<?xml version="1.0" standalone="no"?>
<!DOCTYPE svg PUBLIC "-//W3C//DTD SVG 1.1//EN" "http://www.w3.org/Graphics/SVG/1.1/DTD/svg11.dtd" >
<svg xmlns="http://www.w3.org/2000/svg" xmlns:xlink="http://www.w3.org/1999/xlink" version="1.1">
<metadata>
Created by FontForge 20170731 at Tue Feb 26 18:43:59 2013
 By Aleksey,,,
Copyright (c) 2012 by Nikola &#38; Zoran Kostic. All rights reserved.
</metadata>
<defs>
<font id="BreakersW00-Bold" horiz-adv-x="500" >
  <font-face 
    font-family="BreakersW00-Bold"
    font-weight="700"
    font-stretch="normal"
    units-per-em="1000"
    panose-1="2 0 0 0 0 0 0 0 0 0"
    ascent="764"
    descent="-236"
    x-height="520"
    cap-height="660"
    bbox="-91 -333 1110 910"
    underline-thickness="50"
    underline-position="-200"
    unicode-range="U+000D-FFFB"
  />
<missing-glyph horiz-adv-x="470" 
d="M59 0v733h353v-733h-353v0zM117 59h235v616h-235v-616v0z" />
    <glyph glyph-name=".notdef" horiz-adv-x="470" 
d="M59 0v733h353v-733h-353v0zM117 59h235v616h-235v-616v0z" />
    <glyph glyph-name=".null" horiz-adv-x="0" 
 />
    <glyph glyph-name="uni000D" unicode="&#xd;" horiz-adv-x="0" 
 />
    <glyph glyph-name="space" unicode=" " horiz-adv-x="220" 
 />
    <glyph glyph-name="exclam" unicode="!" horiz-adv-x="276" 
d="M60 70q0 35 22 57.5t56 22.5t56 -22.5t22 -57.5t-22 -57.5t-56 -22.5t-56 22.5t-22 57.5zM148 692q35 0 47 -13.5t12 -38.5v-123l-35 -279h-68l-35 279v123q0 25 12 38.5t47 13.5h20z" />
    <glyph glyph-name="quotedbl" unicode="&#x22;" horiz-adv-x="387" 
d="M300 700q26 0 35.5 -11.5t9.5 -32.5v-40l-36 -175h-58l-36 175v40q0 21 9.5 32.5t35.5 11.5h40zM127 700q26 0 35.5 -11.5t9.5 -32.5v-40l-36 -175h-58l-36 175v40q0 21 9.5 32.5t35.5 11.5h40z" />
    <glyph glyph-name="numbersign" unicode="#" horiz-adv-x="630" 
d="M249 280h107l23 120h-107zM108 512h109l30 148h76l-29 -148h107l29 148h77l-29 -148h110l-22 -112h-110l-24 -120h112l-22 -112h-111l-33 -168h-77l34 168h-107l-34 -168h-76l33 168h-109l22 112h108l24 120h-110z" />
    <glyph glyph-name="dollar" unicode="$" horiz-adv-x="487" 
d="M164 464q0 -29 17 -46t46 -24l43 -11v157h-5q-55 0 -78 -19.5t-23 -56.5zM220 270v-170q58 0 80 22t22 64q0 27 -16 47t-52 29zM57 9q-2 17 -3 35.5t-1 34.5v35l14 7q11 -2 24 -5q11 -2 25 -5t30 -5v183q-51 17 -84 58t-33 110q0 68 28.5 113t88.5 65v105h74v-90
q10 1 20.5 1.5t21.5 0.5h8v88h74v-93q34 -5 52 -9q11 -3 20 -5q-1 -17 -2 -35t-3 -33q-2 -18 -4 -34l-13 -8q-7 1 -15 3q-7 2 -15.5 3.5t-19.5 3.5v-170q57 -22 85 -66.5t28 -103.5q0 -70 -26.5 -117.5t-86.5 -69.5v-106h-74v90q-11 -1 -22.5 -1.5t-23.5 -0.5h-4v-88h-74v92
q-40 5 -63.5 10.5t-25.5 6.5z" />
    <glyph glyph-name="percent" unicode="%" horiz-adv-x="774" 
d="M632 189q0 32 -8.5 49t-31.5 17t-31.5 -17t-8.5 -49v-60q0 -32 8.5 -49t31.5 -17t31.5 17t8.5 49v60zM601 330q23 0 46 -8.5t41 -27t29.5 -47t11.5 -68.5v-41q0 -40 -11.5 -68.5t-29.5 -46.5t-41 -26.5t-46 -8.5h-18q-23 0 -46 8.5t-41.5 26.5t-30 46.5t-11.5 68.5v41
q0 40 11.5 68.5t30 47t41.5 27t46 8.5h18zM543 659h100l-404 -671h-100zM223 509q0 32 -8.5 49t-31.5 17t-31.5 -17t-8.5 -49v-60q0 -32 8.5 -49t31.5 -17t31.5 17t8.5 49v60zM192 650q23 0 46 -8.5t41 -27t29.5 -47t11.5 -68.5v-41q0 -40 -11.5 -68.5t-29.5 -46.5
t-41 -26.5t-46 -8.5h-18q-23 0 -46 8.5t-41.5 26.5t-30 46.5t-11.5 68.5v41q0 40 11.5 68.5t30 47t41.5 27t46 8.5h18z" />
    <glyph glyph-name="ampersand" unicode="&#x26;" horiz-adv-x="623" 
d="M558 320q0 -67 -9 -112t-35 -85l103 -123h-168l-37 45h-1q-59 -57 -161 -57q-97 0 -151.5 45.5t-54.5 131.5q0 37 10 64t26.5 47.5t37 36t41.5 29.5v5l-13 16q-26 32 -44 66t-18 73q0 83 51.5 126.5t143.5 43.5q89 0 139.5 -42t50.5 -118q0 -30 -6.5 -54.5t-21 -46
t-38 -41.5t-57.5 -41v-5l66 -78q5 -7 9 -14.5t5 -8.5h4q4 20 4.5 45t0.5 52h123zM219 505q0 -20 9 -35t30 -41l22 -26q32 26 45.5 49.5t13.5 49.5q0 30 -17 44t-43 14q-27 0 -43.5 -13t-16.5 -42zM275 100q41 0 70 24l-120 144l-11 -10q-18 -17 -26 -35.5t-9 -40.5
q0 -42 25.5 -62t70.5 -20z" />
    <glyph glyph-name="quotesingle" unicode="'" horiz-adv-x="214" 
d="M127 700q26 0 35.5 -11.5t9.5 -32.5v-40l-36 -175h-58l-36 175v40q0 21 9.5 32.5t35.5 11.5h40z" />
    <glyph glyph-name="parenleft" unicode="(" horiz-adv-x="298" 
d="M167 -100q-35 46 -61 106q-23 51 -41.5 122.5t-18.5 161.5q0 99 22 177t48 132q31 63 71 111h91q-31 -54 -56 -119q-21 -57 -38.5 -133t-17.5 -168q0 -83 14.5 -153.5t31.5 -123.5q20 -62 46 -113h-91z" />
    <glyph glyph-name="parenright" unicode=")" horiz-adv-x="293" 
d="M34 -100q26 51 46 113q17 53 32 123.5t15 153.5q0 92 -18 168t-39 133q-25 65 -56 119h91q39 -48 71 -111q26 -54 48.5 -132.5t22.5 -176.5q0 -90 -19 -161.5t-42 -122.5q-27 -60 -61 -106h-91z" />
    <glyph glyph-name="asterisk" unicode="*" horiz-adv-x="481" 
d="M262 549l9 -6l107 68l32 10q20 7 28.5 2t15.5 -25l12 -36q7 -20 2 -28.5t-25 -15.5l-31 -10l-127 -7l-4 -12l98 -80l20 -27q12 -17 10.5 -27t-18.5 -22l-31 -22q-17 -13 -26 -11t-22 19l-20 26l-46 118h-11l-47 -118l-20 -26q-13 -17 -22.5 -18.5t-25.5 10.5l-31 22
q-18 13 -19 22.5t11 26.5l20 27l97 80l-3 11l-127 8l-31 10q-20 7 -24.5 16t1.5 28l12 36q7 21 15.5 25.5t28.5 -2.5l32 -10l106 -69l9 7l-31 123v33q0 21 7.5 28t27.5 7h38q22 0 28.5 -7t6.5 -28v-33z" />
    <glyph glyph-name="plus" unicode="+" 
d="M298 250v-170h-97v170h-171v97h171v173h97v-173h172v-97h-172z" />
    <glyph glyph-name="comma" unicode="," horiz-adv-x="244" 
d="M44 70q0 35 22 57.5t56 22.5t56 -22t22 -59q0 -28 -12 -56t-32 -59l-58 -87h-46v18l35 107v4q-20 9 -31.5 28.5t-11.5 45.5z" />
    <glyph glyph-name="hyphen" unicode="-" horiz-adv-x="334" 
d="M42 250v97h250v-97h-250z" />
    <glyph glyph-name="period" unicode="." horiz-adv-x="244" 
d="M44 70q0 35 22 57.5t56 22.5t56 -22.5t22 -57.5t-22 -57.5t-56 -22.5t-56 22.5t-22 57.5z" />
    <glyph glyph-name="slash" unicode="/" horiz-adv-x="521" 
d="M394 740h107l-374 -840h-107z" />
    <glyph glyph-name="zero" unicode="0" horiz-adv-x="540" 
d="M359 412q0 42 -7 70t-19 45t-28 24.5t-35 7.5t-35 -7.5t-28 -24.5t-19 -45t-7 -70v-165q0 -42 7 -70t19 -45t28 -24.5t35 -7.5t35 7.5t28 24.5t19 45t7 70v165zM276 672q47 0 87 -18t69.5 -55t46 -94t16.5 -135v-81q0 -78 -16.5 -135t-46 -94t-69.5 -54.5t-87 -17.5h-13
q-47 0 -86.5 17.5t-69 54.5t-46 94t-16.5 135v81q0 78 16.5 135t46 94t69 55t86.5 18h13z" />
    <glyph glyph-name="one" unicode="1" horiz-adv-x="307" 
d="M20 551l145 109h80v-660h-135v489h-90v62z" />
    <glyph glyph-name="two" unicode="2" horiz-adv-x="478" 
d="M443 468q0 -45 -11 -78t-31.5 -59.5t-48 -49.5t-60.5 -50l-74 -60q-25 -20 -31.5 -30t-6.5 -25v-4h253v-112h-400v80q0 30 4 54t14 44t27.5 39.5t43.5 40.5l118 96q35 29 51.5 54t16.5 57v5q0 17 -5.5 33t-18.5 28.5t-35 20t-55 7.5q-22 0 -44 -4.5t-41 -9.5
q-22 -6 -42 -14l-13 6q-2 14 -4 30q-2 14 -3.5 30t-2.5 33l13.5 7t37 14.5t56.5 14t72 6.5q54 0 95.5 -14.5t69 -40.5t41.5 -61.5t14 -78.5v-9z" />
    <glyph glyph-name="three" unicode="3" horiz-adv-x="454" 
d="M419 191q0 -45 -15 -82t-44 -64t-71.5 -42t-97.5 -15q-36 0 -66.5 5t-52.5 11t-34.5 11.5l-12.5 5.5q1 16 2.5 32t3.5 30q2 16 4 30l13 7q20 -6 39 -10q17 -4 36.5 -7t38.5 -3q33 0 56 8t38 21.5t21.5 31.5t6.5 38v5q0 38 -25 62t-87 24h-83v98h96q36 0 60.5 23.5
t24.5 62.5v5q0 33 -23 57t-79 24q-18 0 -37.5 -3.5t-35.5 -8.5q-19 -5 -37 -11l-14 6q-2 14 -4 30q-2 14 -3.5 29.5t-2.5 32.5l12 6t33.5 13t52 12.5t66.5 5.5q52 0 89.5 -14t62.5 -37t37 -54.5t12 -65.5v-9q0 -46 -19 -79.5t-50 -53.5v-3q37 -20 63 -59.5t26 -96.5v-9z" />
    <glyph glyph-name="four" unicode="4" horiz-adv-x="487" 
d="M198 660h140l-175 -445h114l35 185h100v-185h65v-112h-65v-103h-135v103h-255v111z" />
    <glyph glyph-name="five" unicode="5" horiz-adv-x="472" 
d="M429 207q0 -108 -52 -163.5t-155 -55.5q-37 0 -69 5.5t-55.5 12t-37 12l-13.5 5.5q2 17 3.5 33t3.5 30q2 16 4 30l12 6q21 -7 43 -11q19 -5 40 -8t40 -3q55 0 78 28t23 81v14q0 41 -19.5 65t-64.5 24q-17 0 -31.5 -4t-25.5 -9q-12 -6 -23 -13l-81 19l20 355h320v-112
h-192l-8 -143h2q12 6 32 11.5t43 5.5q79 0 121 -46.5t42 -135.5v-33z" />
    <glyph glyph-name="six" unicode="6" horiz-adv-x="520" 
d="M263 316q-23 0 -45 -8t-38 -18v-35q0 -48 6 -78t17 -47t26 -23.5t33 -6.5q36 0 57 25.5t21 72.5v31q0 44 -20.5 65.5t-56.5 21.5zM321 560q-36 0 -61.5 -9t-43 -29.5t-26.5 -53.5t-10 -82h2q20 14 53 28t77 14q40 0 71 -14t51 -39t30.5 -59.5t10.5 -75.5v-32
q0 -50 -12.5 -90.5t-38.5 -69t-66 -44.5t-96 -16q-109 0 -163 70t-54 217v65q0 175 66.5 253.5t195.5 78.5q25 0 46 -3t38 -7q18 -4 35 -9q-2 -16 -3.5 -33.5t-3.5 -32.5t-3 -25t-1 -11l-11 -6q-13 3 -26 7q-12 3 -26.5 5.5t-30.5 2.5z" />
    <glyph glyph-name="seven" unicode="7" horiz-adv-x="445" 
d="M22 660h410v-113l-230 -547h-147l236 539v9h-269v112z" />
    <glyph glyph-name="eight" unicode="8" horiz-adv-x="530" 
d="M181 490q0 -30 20.5 -48t58.5 -35l30 -13q22 18 40 42t18 54q0 32 -20.5 51t-62.5 19t-63 -19t-21 -51zM239 279q-29 -17 -45.5 -42t-16.5 -60t22.5 -56t65.5 -21q42 0 65 19.5t23 57.5q0 27 -16 47.5t-67 41.5zM42 167q0 57 24.5 96t66.5 61v8q-16 12 -30.5 26
t-25.5 32.5t-17.5 42t-6.5 52.5q0 47 15.5 82t44 58.5t67 35t85.5 11.5q46 0 85 -11.5t67 -34t43.5 -55.5t15.5 -76q0 -46 -21.5 -82.5t-67.5 -58.5v-6q46 -29 73.5 -69t27.5 -97q0 -98 -59.5 -146t-163.5 -48q-47 0 -87.5 10t-70.5 31.5t-47.5 55.5t-17.5 82z" />
    <glyph glyph-name="nine" unicode="9" horiz-adv-x="520" 
d="M256 344q23 0 45 6t39 16v38q0 87 -20.5 121.5t-59.5 34.5q-37 0 -58.5 -27.5t-21.5 -75.5v-22q0 -47 20.5 -69t55.5 -22zM202 100q34 0 59 8.5t42 29t26 53.5t10 81q-24 -17 -55 -28.5t-69 -11.5q-81 0 -125.5 51.5t-44.5 137.5v31q0 52 15.5 92.5t43.5 69t68 43.5
t88 15q106 0 160.5 -70t54.5 -195v-87q0 -88 -16.5 -150.5t-49.5 -103t-82 -59.5t-115 -19q-24 0 -45.5 2.5t-37.5 6.5q-19 4 -35 10q1 16 3 33.5t3.5 32.5t3 24.5t1.5 10.5l11 6q14 -4 28 -7q12 -3 27 -5t31 -2z" />
    <glyph glyph-name="colon" unicode=":" horiz-adv-x="244" 
d="M44 420q0 36 22.5 58t55.5 22q34 0 56 -22t22 -58q0 -35 -22 -57.5t-56 -22.5q-33 0 -55.5 22.5t-22.5 57.5zM44 70q0 36 22.5 58t55.5 22q34 0 56 -22t22 -58q0 -35 -22 -57.5t-56 -22.5q-33 0 -55.5 22.5t-22.5 57.5z" />
    <glyph glyph-name="semicolon" unicode=";" horiz-adv-x="244" 
d="M44 420q0 36 22.5 58t55.5 22q34 0 56 -22t22 -58q0 -35 -22 -57.5t-56 -22.5q-33 0 -55.5 22.5t-22.5 57.5zM44 70q0 35 22 57.5t56 22.5t56 -22t22 -59q0 -28 -12 -56t-32 -59l-58 -87h-46v18l35 107v4q-20 9 -31.5 28.5t-11.5 45.5z" />
    <glyph glyph-name="less" unicode="&#x3c;" 
d="M436 48h-30l-342 205v72l342 207h30v-96l-238 -146v-1q58 -38 118 -74l120 -72v-95z" />
    <glyph glyph-name="equal" unicode="=" 
d="M50 148v97h400v-97h-400zM50 335v97h400v-97h-400z" />
    <glyph glyph-name="greater" unicode="&#x3e;" 
d="M64 532h30l342 -206v-71l-342 -207h-30v96q60 36 119.5 73.5t119.5 73.5v2q-60 36 -119.5 71.5t-119.5 72.5v95z" />
    <glyph glyph-name="question" unicode="?" horiz-adv-x="426" 
d="M95 70q0 35 22 57.5t56 22.5t56 -22.5t22 -57.5t-22 -57.5t-56 -22.5t-56 22.5t-22 57.5zM396 492q0 -55 -24 -93.5t-81 -74.5q-18 -12 -28 -21t-15 -18.5t-6 -20t-1 -24.5v-27h-135v67q0 24 3.5 41t12.5 31.5t25.5 27.5t43.5 29q42 25 56 42.5t14 40.5v5
q0 28 -22.5 45.5t-66.5 17.5q-20 0 -38.5 -3t-32.5 -7q-17 -4 -32 -10l-13 6q-2 13 -4 29q-2 13 -3.5 30t-3.5 35l11 5t31 11t48.5 11t63.5 5q52 0 89 -13t61 -35.5t35.5 -54t11.5 -68.5v-9z" />
    <glyph glyph-name="at" unicode="@" horiz-adv-x="840" 
d="M337 299q-3 -17 -5 -35.5t-2 -36.5q0 -31 11 -48t32 -17q26 0 48.5 20t40.5 53l37 183q-9 5 -25.5 10.5t-34.5 5.5q-45 0 -67 -32.5t-35 -102.5zM587 68q-46 0 -76.5 19.5t-41.5 57.5h-4q-17 -34 -48.5 -55.5t-71.5 -21.5q-57 0 -92.5 39.5t-35.5 116.5q0 65 14 121
t40.5 97.5t64.5 65.5t86 24q23 0 41.5 -5t32.5 -12.5t23.5 -15.5t15.5 -13l30 34h69l-61 -309q-6 -32 2 -48.5t34 -16.5q23 0 45.5 12.5t40.5 39t29 66.5t11 95v39q0 114 -75.5 176.5t-221.5 62.5h-21q-73 0 -130.5 -23.5t-98 -66t-62 -101.5t-21.5 -130v-61
q0 -142 79.5 -221t225.5 -79h11q28 0 59.5 1.5t63 4.5t62 7t56.5 9q2 -16 4 -31.5t4 -31.5q-48 -14 -113 -24t-136 -10h-11q-92 0 -162.5 25.5t-119 73.5t-73.5 117.5t-25 158.5v61q0 88 26 161t76 125t121.5 81t163.5 29h21q184 0 278 -82t94 -232v-39q0 -75 -19 -129.5
t-50 -90.5t-71.5 -53.5t-82.5 -17.5z" />
    <glyph glyph-name="A" unicode="A" horiz-adv-x="522" 
d="M201 240h119l-35 160q-3 11 -6.5 32.5t-6.5 41.5q-4 24 -8 51h-7q-3 -25 -7 -48q-3 -20 -6.5 -41t-6.5 -36zM344 128h-167l-28 -128h-138l154 660h192l154 -660h-138z" />
    <glyph glyph-name="B" unicode="B" horiz-adv-x="509" 
d="M192 554v-174h73q57 0 57 70v22q0 40 -18.5 61t-60.5 21h-51zM192 282v-176h86q34 0 49 20t15 54v28q0 35 -18.5 54.5t-58.5 19.5h-73zM57 660h202q100 0 149 -45t49 -131v-8q0 -48 -15 -83t-61 -52v-4q29 -8 47.5 -23.5t29.5 -35.5t15 -44t4 -50v-8q0 -33 -8.5 -64.5
t-28 -56t-51.5 -40t-80 -15.5h-252v660z" />
    <glyph glyph-name="C" unicode="C" horiz-adv-x="433" 
d="M411 8q-16 -6 -34 -10q-16 -4 -37.5 -7t-47.5 -3q-54 0 -100 14.5t-79 50t-51.5 95.5t-18.5 152v35q0 91 18.5 155t52 104.5t81 59t106.5 18.5q20 0 38 -2.5t31 -4.5q15 -4 28 -7q-2 -17 -4 -34.5t-4 -31.5q-3 -17 -4 -33l-11 -6q-9 1 -20 3q-9 2 -20.5 3t-23.5 1
q-69 0 -100.5 -53t-31.5 -174v-21q0 -58 8.5 -98t25 -65.5t41.5 -37t58 -11.5q13 0 26.5 2t24.5 4q13 3 25 6l11 -6q1 -15 4 -31q2 -14 4 -31.5t4 -35.5z" />
    <glyph glyph-name="D" unicode="D" horiz-adv-x="530" 
d="M192 548v-436h66q21 0 38.5 6t30 21t19 40.5t6.5 65.5v151q0 46 -7.5 76t-22.5 46.5t-37 23t-50 6.5h-43zM57 660h202q52 0 94 -15t72 -46.5t46 -80.5t16 -118v-172q0 -113 -51 -170.5t-147 -57.5h-232v660z" />
    <glyph glyph-name="E" unicode="E" horiz-adv-x="406" 
d="M57 660h320v-112h-185v-158h155v-98h-155v-180h195v-112h-330v660z" />
    <glyph glyph-name="F" unicode="F" horiz-adv-x="396" 
d="M57 660h320v-112h-185v-165h155v-106h-155v-277h-135v660z" />
    <glyph glyph-name="G" unicode="G" horiz-adv-x="504" 
d="M277 100q20 0 34.5 7t21.5 12v241h135v-360h-73l-18 39q-26 -22 -56 -36.5t-71 -14.5q-45 0 -83 15t-65.5 52t-43 97.5t-15.5 152.5v35q0 96 17.5 159.5t51 102t83.5 54.5t115 16q24 0 49 -3t45 -7q24 -4 45 -9q-2 -17 -3.5 -34.5t-3.5 -32.5q-2 -18 -4 -34l-11 -5
q-19 3 -37 6q-16 2 -34 4.5t-32 2.5q-39 0 -66.5 -10.5t-44.5 -36.5t-24.5 -70t-7.5 -110v-31q0 -63 6.5 -102.5t18.5 -61.5t30 -30t41 -8z" />
    <glyph glyph-name="H" unicode="H" horiz-adv-x="554" 
d="M362 275h-170v-275h-135v660h135v-273h170v273h135v-660h-135v275z" />
    <glyph glyph-name="I" unicode="I" horiz-adv-x="249" 
d="M57 660h135v-660h-135v660z" />
    <glyph glyph-name="J" unicode="J" horiz-adv-x="338" 
d="M15 -1q1 16 2 33t3 31q2 17 3 32l12 9q7 -1 15 -2q7 -1 15 -1.5t16 -0.5q38 0 51.5 26.5t13.5 94.5v439h135v-460q0 -60 -10.5 -101t-31.5 -65.5t-53 -35t-75 -10.5q-18 0 -35 1.5t-31 3.5q-16 3 -30 6z" />
    <glyph glyph-name="K" unicode="K" horiz-adv-x="514" 
d="M354 0l-135 275h-27v-275h-135v660h135v-273h28l134 273h144l-158 -325l164 -335h-150z" />
    <glyph glyph-name="L" unicode="L" horiz-adv-x="383" 
d="M57 660h135v-548h175v-112h-310v660z" />
    <glyph glyph-name="M" unicode="M" horiz-adv-x="704" 
d="M647 660v-660h-135v276q0 23 0.5 48.5t1.5 48.5l2 52l-8 1q-6 -23 -11 -42q-5 -17 -9 -33t-6 -21l-103 -310h-54l-103 310q-4 10 -8 26l-8 32q-4 18 -9 38l-9 -1l2 -52q1 -23 1.5 -48.5t0.5 -48.5v-276h-135v660h172l104 -310q2 -8 5.5 -18t5.5 -20q3 -11 5 -23h6
q2 12 5 23q5 21 11 38l104 310h172z" />
    <glyph glyph-name="N" unicode="N" horiz-adv-x="591" 
d="M212 367q-4 8 -7.5 18.5l-6.5 19.5q-4 11 -6 21l-6 -1l6 -83v-342h-135v660h150l172 -367q3 -8 6.5 -17.5t6.5 -19.5q4 -11 7 -23l5 1l-5 84v342h135v-660h-150z" />
    <glyph glyph-name="O" unicode="O" horiz-adv-x="526" 
d="M346 368q0 104 -19 148t-64 44t-64 -44t-19 -148v-77q0 -104 19 -147.5t64 -43.5t64 43.5t19 147.5v77zM269 672q115 0 164.5 -81t49.5 -241v-41q0 -160 -49.5 -240.5t-164.5 -80.5h-12q-115 0 -164.5 80t-49.5 241v41q0 161 49.5 241.5t164.5 80.5h12z" />
    <glyph glyph-name="P" unicode="P" horiz-adv-x="493" 
d="M192 548v-238h54q39 0 61.5 21.5t22.5 70.5v38q0 54 -22.5 81t-71.5 27h-44zM57 660h201q103 0 155 -51.5t52 -163.5v-42q0 -98 -49 -144.5t-133 -46.5h-91v-212h-135v660z" />
    <glyph glyph-name="Q" unicode="Q" horiz-adv-x="526" 
d="M346 368q0 104 -19 148t-64 44t-64 -44t-19 -148v-77q0 -104 19 -147.5t64 -43.5t64 43.5t19 147.5v77zM269 672q115 0 164.5 -81t49.5 -241v-41q0 -97 -17.5 -164.5t-55.5 -105.5l48 -91l-98 -48l-46 92q-19 -4 -45 -4h-12q-115 0 -164.5 80t-49.5 241v41
q0 161 49.5 241.5t164.5 80.5h12z" />
    <glyph glyph-name="R" unicode="R" horiz-adv-x="517" 
d="M355 0l-87 233q-5 14 -13 20.5t-22 6.5h-41v-260h-135v660h201q58 0 99.5 -14t68 -39.5t39 -62.5t12.5 -83v-16q0 -61 -25 -102t-73 -61v-3q12 -8 20 -21.5t15 -32.5l84 -225h-143zM192 548v-190h56q49 0 71.5 19t22.5 64v10q0 54 -23.5 75.5t-81.5 21.5h-45z" />
    <glyph glyph-name="S" unicode="S" horiz-adv-x="466" 
d="M57 4q-2 17 -3 35.5t-1 34.5v35l14 7q18 -4 39 -8q18 -3 40.5 -5.5t46.5 -2.5q58 0 81 24.5t23 66.5q0 27 -14 45t-49 31l-78 29q-26 10 -48.5 24.5t-39 35.5t-25.5 49t-9 65q0 97 54 149.5t174 52.5q23 0 45.5 -2t40 -4t28.5 -4.5l11 -2.5q-1 -17 -2 -35t-3 -33
q-2 -18 -4 -34l-13 -8l-30 5q-14 2 -31.5 4t-34.5 2q-57 0 -78.5 -23t-21.5 -60q0 -29 13 -45.5t39 -26.5l75 -28q69 -26 102.5 -68.5t33.5 -110.5q0 -49 -12 -88t-39 -66t-70.5 -41.5t-106.5 -14.5q-27 0 -53 2.5t-46.5 5.5t-33.5 5.5t-14 2.5z" />
    <glyph glyph-name="T" unicode="T" horiz-adv-x="395" 
d="M12 660h371v-112h-118v-548h-135v548h-118v112z" />
    <glyph glyph-name="U" unicode="U" horiz-adv-x="540" 
d="M485 660v-426q0 -65 -14 -111.5t-40.5 -76.5t-65 -44t-87.5 -14h-17q-49 0 -87 14t-64.5 44t-40.5 76.5t-14 111.5v426h135v-450q0 -60 21.5 -85t58.5 -25q36 0 58 25t22 85v450h135z" />
    <glyph glyph-name="V" unicode="V" horiz-adv-x="522" 
d="M373 660h138l-149 -660h-202l-149 660h138l86 -396q2 -13 5.5 -32.5t6.5 -39.5q4 -23 7 -47h14q3 25 7 48q3 20 6 39.5t6 31.5z" />
    <glyph glyph-name="W" unicode="W" horiz-adv-x="706" 
d="M468 335q2 -8 4 -22.5t4 -28.5q3 -17 5 -36h13q2 21 4 40q2 17 4 34.5t4 29.5l53 308h136l-117 -660h-144l-64 265q-2 5 -3.5 19.5t-3.5 28.5q-2 17 -4 37h-12q-2 -20 -4 -37q-2 -14 -3.5 -28.5t-3.5 -19.5l-64 -265h-144l-117 660h136l53 -308q2 -12 4 -29.5t4 -34.5
q2 -19 4 -40h13q2 19 5 36q2 14 4 28.5t4 22.5l74 305h82z" />
    <glyph glyph-name="X" unicode="X" horiz-adv-x="514" 
d="M162 660l75 -188q4 -10 7 -21.5t5 -21.5q3 -12 5 -24h6q2 12 5 24q2 10 5 21.5t7 21.5l75 188h144l-129 -322l136 -338h-145l-82 205q-3 6 -6 16.5t-5 20.5q-3 11 -5 25h-6q-2 -14 -5 -25q-2 -10 -5.5 -20.5l-5.5 -16.5l-82 -205h-145l136 338l-129 322h144z" />
    <glyph glyph-name="Y" unicode="Y" horiz-adv-x="529" 
d="M157 660l78 -202q5 -13 9 -30t8 -33q4 -18 8 -39h9q4 21 8 39q4 16 8 33t9 30l78 202h146l-186 -458v-202h-135v202l-186 458h146z" />
    <glyph glyph-name="Z" unicode="Z" horiz-adv-x="434" 
d="M49 660h353v-60l-194 -448q-3 -8 -7 -14t-7 -11l-8 -10v-5h216v-112h-370v59l196 448q2 6 6 13t8 12l8 12v4h-201v112z" />
    <glyph glyph-name="bracketleft" unicode="[" horiz-adv-x="298" 
d="M68 710h215v-75h-95v-680h95v-75h-215v830z" />
    <glyph glyph-name="backslash" unicode="\" horiz-adv-x="521" 
d="M501 -100h-107l-374 840h107z" />
    <glyph glyph-name="bracketright" unicode="]" horiz-adv-x="293" 
d="M230 -120h-215v75h95v680h-95v75h215v-830z" />
    <glyph glyph-name="asciicircum" unicode="^" horiz-adv-x="495" 
d="M31 280l176 370h80l176 -370h-107l-106 221h-7l-105 -221h-107z" />
    <glyph glyph-name="underscore" unicode="_" 
d="M500 -115h-500v45h500v-45z" />
    <glyph glyph-name="grave" unicode="`" horiz-adv-x="290" 
d="M51 720h117l83 -123l-9 -17h-76l-115 97v43z" />
    <glyph glyph-name="a" unicode="a" horiz-adv-x="505" 
d="M220 96q23 0 43 13.5t34 30.5v110l-77 -16q-29 -6 -44.5 -21t-15.5 -44v-12q0 -26 16 -43.5t44 -17.5zM405 -12q-36 0 -61.5 18.5t-36.5 52.5h-4q-21 -30 -54.5 -50.5t-80.5 -20.5q-33 0 -59.5 12t-45 32.5t-28.5 48t-10 58.5v16q0 71 36 108.5t105 46.5l131 17v5
q0 44 -23.5 66t-92.5 22q-20 0 -39 -2t-35 -4q-18 -3 -35 -6l-12 9q0 3 2 16.5t5 30t6.5 32.5t5.5 24q17 3 36 6q17 2 39 4t48 2q63 0 107 -12.5t71.5 -37t39.5 -62t12 -88.5v-181q0 -24 8 -35t27 -14l20 -3l6 -13q-2 -9 -4.5 -21.5t-5.5 -23.5q-4 -13 -7 -27q-7 -8 -18 -13
q-9 -5 -22.5 -9t-30.5 -4z" />
    <glyph glyph-name="b" unicode="b" horiz-adv-x="502" 
d="M300 -12q-48 0 -81 18.5t-59 45.5h-2l-33 -52h-80v700h135v-214h1q20 16 52 31t76 15q77 0 121.5 -60.5t44.5 -198.5v-33q0 -65 -13 -112.5t-36.5 -78.5t-55.5 -46t-70 -15zM340 269q0 43 -4 72t-13.5 46.5t-24 25t-35.5 7.5q-29 0 -52.5 -9.5t-30.5 -12.5v-279
q5 -3 25 -13t46 -10q43 0 66 35.5t23 119.5v18z" />
    <glyph glyph-name="c" unicode="c" horiz-adv-x="378" 
d="M361 11q-15 -7 -33 -12q-16 -5 -37 -8t-46 -3q-53 0 -94 13t-68.5 43t-41.5 79t-14 122v15q0 75 14.5 127t42 84.5t68.5 46.5t95 14q23 0 41.5 -2.5t32.5 -5.5q16 -4 30 -7q-2 -16 -4 -33.5t-3.5 -32t-3 -24t-1.5 -10.5l-10 -6q-12 2 -23 4t-23 3.5t-24 1.5
q-22 0 -40 -6.5t-30.5 -24.5t-19.5 -49.5t-7 -81.5v-12q0 -47 8 -75.5t21.5 -44t31.5 -21t38 -5.5q12 0 25.5 2t24.5 5t18.5 5.5t8.5 2.5l10 -6q0 -1 2 -10t4 -23.5t4 -31.5t3 -33z" />
    <glyph glyph-name="d" unicode="d" horiz-adv-x="530" 
d="M162 250q0 -82 20.5 -118t59.5 -36q23 0 44 11.5t36 25.5v268q-7 3 -26 10.5t-45 7.5q-21 0 -37.5 -7.5t-28 -25t-17.5 -46t-6 -71.5v-19zM457 151q0 -22 7.5 -34t27.5 -15l20 -3l6 -13l-17 -72q-6 -8 -17 -13q-9 -5 -22.5 -9t-30.5 -4q-35 0 -60 19t-36 46h-7
q-20 -26 -51.5 -45.5t-76.5 -19.5q-38 0 -69.5 14t-54.5 44t-36 77.5t-13 113.5v36q0 69 13.5 118.5t39 80.5t61.5 45.5t81 14.5q30 0 55.5 -8.5t44.5 -17.5v194h135v-549z" />
    <glyph glyph-name="e" unicode="e" horiz-adv-x="455" 
d="M162 302h138v36q0 55 -15 75.5t-46 20.5h-2q-14 0 -27 -5t-24 -16.5t-17.5 -29.5t-6.5 -45v-36zM162 220q0 -30 4.5 -52.5t17.5 -37.5t34.5 -22.5t56.5 -7.5q18 0 37.5 3.5t35.5 7.5t27 7.5t12 3.5l13 -6q0 -1 1 -9.5t2.5 -21.5t3.5 -29t3 -32q0 -1 -12 -6.5t-33.5 -12
t-51.5 -12t-67 -5.5q-108 0 -163.5 62t-55.5 195v35q0 60 15 106.5t42.5 79t65.5 49.5t84 17h11q88 0 135.5 -52t47.5 -157v-17q0 -13 -1.5 -28t-3.5 -28l-4 -30h-257z" />
    <glyph glyph-name="f" unicode="f" horiz-adv-x="351" 
d="M15 520h65v37q0 51 12 86t35 56.5t57 31t78 9.5q15 0 29.5 -1t26.5 -2q13 -2 26 -3q-2 -16 -3 -33.5t-3 -33.5q-2 -18 -4 -37l-11 -6l-16 2q-7 1 -14.5 1.5t-13.5 0.5q-35 0 -49.5 -14.5t-14.5 -52.5v-41h119v-112h-119v-408h-135v408h-65v112z" />
    <glyph glyph-name="g" unicode="g" horiz-adv-x="517" 
d="M500 520v-105l-13 -9q-4 0 -8 1q-4 0 -8.5 0.5t-9.5 0.5q-8 0 -18.5 -2t-15.5 -6q8 -26 8 -49q0 -48 -15.5 -81.5t-42.5 -55t-63 -31.5t-77 -10h-15q-29 0 -54 6q-5 -10 -8.5 -20.5t-3.5 -21.5q0 -17 11.5 -26t28.5 -9h113q43 0 75.5 -11.5t54 -31t32.5 -45.5t11 -54v-19
q0 -29 -11.5 -56t-37 -49t-65.5 -35t-98 -13h-50q-98 0 -148 34t-50 86v8q0 29 16.5 55t45.5 41v3q-41 27 -41 81q0 28 14.5 56t37.5 55q-32 21 -51 56.5t-19 87.5q0 39 13.5 72t39 57.5t62 38t82.5 13.5h15q49 0 86.5 -15.5t63.5 -41.5q16 19 38.5 32t54.5 13h20zM300 361
q0 77 -70 77t-70 -77v-14q0 -80 70 -80t70 73v21zM196 -6h-23q-8 -14 -12 -28.5t-4 -31.5q0 -34 25 -48t73 -14q49 0 70.5 16t21.5 45v6q0 25 -16.5 40t-50.5 15h-84z" />
    <glyph glyph-name="h" unicode="h" horiz-adv-x="508" 
d="M45 0v700h135v-224h2q25 22 60 39t83 17q64 0 102 -40.5t38 -109.5v-382h-135v360q0 60 -59 60q-26 0 -50 -9.5t-41 -22.5v-388h-135z" />
    <glyph glyph-name="i" unicode="i" horiz-adv-x="225" 
d="M33 644q0 35 22 52.5t57 17.5t57 -17.5t22 -52.5t-22 -52.5t-57 -17.5t-57 17.5t-22 52.5zM45 0v520h135v-520h-135z" />
    <glyph glyph-name="j" unicode="j" horiz-adv-x="232" 
d="M40 644q0 35 22 52.5t57 17.5t57 -17.5t22 -52.5t-22 -52.5t-57 -17.5t-57 17.5t-22 52.5zM187 -53q0 -80 -30 -119.5t-102 -39.5q-20 0 -38 2.5t-32 6.5q-16 4 -30 9l10 86l14 13q5 -2 10 -3t9.5 -1.5t9.5 -0.5q21 0 32.5 12.5t11.5 46.5v561h135v-573z" />
    <glyph glyph-name="k" unicode="k" horiz-adv-x="481" 
d="M45 0v700h135v-390h23l117 210h143l-139 -252l149 -268h-153l-118 212h-22v-212h-135z" />
    <glyph glyph-name="l" unicode="l" horiz-adv-x="280" 
d="M45 700h135v-544q0 -32 12 -44t33 -12h10.5t9.5 1t9 2l14 -13v-85q-12 -5 -26 -9q-12 -3 -28.5 -5.5t-36.5 -2.5q-72 0 -102 39t-30 115v558z" />
    <glyph glyph-name="m" unicode="m" horiz-adv-x="758" 
d="M45 0v520h80q9 -15 18.5 -30t19.5 -30q13 13 28 26t33 23t39.5 16.5t48.5 6.5q42 0 72 -19t47 -52q25 26 60.5 48.5t88.5 22.5q62 0 98.5 -39t36.5 -106v-387h-135v365q0 27 -14.5 41t-39.5 14q-23 0 -43 -8.5t-37 -21.5q0 -8 0.5 -22t0.5 -34v-334h-135v365
q0 29 -14.5 42t-39.5 13q-22 0 -42 -8.5t-36 -20.5v-391h-135z" />
    <glyph glyph-name="n" unicode="n" horiz-adv-x="508" 
d="M45 0v520h80l39 -60q13 13 29 25.5t36 23t43.5 17t52.5 6.5q66 0 103 -41t37 -109v-382h-135v360q0 31 -15.5 45.5t-43.5 14.5q-26 0 -50 -9.5t-41 -22.5v-388h-135z" />
    <glyph glyph-name="o" unicode="o" horiz-adv-x="474" 
d="M312 323q0 51 -19.5 76t-55.5 25t-55.5 -25t-19.5 -76v-125q0 -51 19.5 -76.5t55.5 -25.5t55.5 25.5t19.5 76.5v125zM244 532q94 0 148.5 -65.5t54.5 -185.5v-42q0 -120 -54.5 -185.5t-148.5 -65.5h-14q-94 0 -148.5 65.5t-54.5 185.5v42q0 120 54.5 185.5t148.5 65.5h14
z" />
    <glyph glyph-name="p" unicode="p" horiz-adv-x="502" 
d="M340 269q0 85 -19.5 118t-60.5 33q-14 0 -27.5 -3t-24 -6.5t-18 -7t-10.5 -4.5v-279q6 -3 26 -13.5t46 -10.5q43 0 65.5 35.5t22.5 119.5v18zM45 -200v720h80l34 -53q10 10 24 21.5t32 21t40.5 16t49.5 6.5q39 0 70.5 -14t53.5 -45t34 -80.5t12 -119.5v-33
q0 -66 -13 -113.5t-35.5 -78.5t-54 -45.5t-67.5 -14.5q-38 0 -68 11.5t-55 33.5h-2v-233h-135z" />
    <glyph glyph-name="q" unicode="q" horiz-adv-x="502" 
d="M322 -200v241h-2q-22 -23 -50 -38t-70 -15q-38 0 -70 13.5t-55 43.5t-35.5 77t-12.5 113v33q0 72 15 122t40.5 81.5t60.5 46t75 14.5q27 0 48 -6.5t37.5 -15t28 -18t18.5 -15.5l27 43h80v-720h-135zM162 247q0 -45 5.5 -74.5t16.5 -46.5t26 -23.5t35 -6.5q24 0 43.5 12
t33.5 26v266q-8 3 -28.5 11.5t-45.5 8.5q-42 0 -64 -35t-22 -121v-17z" />
    <glyph glyph-name="r" unicode="r" horiz-adv-x="328" 
d="M45 0v520h80l36 -59h1q9 14 20 27t26 22.5t35 15.5t46 6q5 0 9.5 -0.5t7.5 -0.5q4 -1 7 -1l-9 -120l-17 -9q-4 0 -9 1t-10.5 1.5t-11.5 0.5q-29 0 -47 -10t-29 -25v-369h-135z" />
    <glyph glyph-name="s" unicode="s" horiz-adv-x="433" 
d="M53 1q-3 15 -5 33t-4 34q-2 18 -2 37l13 8q19 -4 41 -7q18 -2 41 -4t46 -2q54 0 73.5 14.5t19.5 42.5q0 17 -11 30t-43 18l-71 13q-57 11 -90.5 43t-34.5 94q-1 41 11 74t38 56t67.5 35t100.5 12q21 0 42 -2t38 -4t28 -4.5l11 -2.5q-2 -19 -3 -37t-3 -32q-2 -17 -4 -33
l-13 -7q-16 2 -33 5q-14 2 -31 3.5t-32 1.5q-51 0 -68 -15t-17 -37q0 -35 42 -44l66 -13q76 -15 109 -52t33 -97q0 -84 -48.5 -129t-165.5 -45q-33 0 -59 2t-44 4q-21 3 -38 7z" />
    <glyph glyph-name="t" unicode="t" horiz-adv-x="346" 
d="M12 520h64l37 120h98v-120h118v-112h-118v-237q0 -38 12.5 -54.5t43.5 -16.5q11 0 20.5 0.5t16.5 1.5q8 1 14 3l11 -5v-97q-12 -4 -26 -8q-12 -3 -29 -5t-37 -2q-48 0 -79 12.5t-49 35.5t-25.5 57t-7.5 76v239h-64v112z" />
    <glyph glyph-name="u" unicode="u" horiz-adv-x="538" 
d="M180 520v-345q0 -36 16 -55.5t49 -19.5q27 0 49 13t36 29v378h135v-369q0 -23 7.5 -34.5t27.5 -14.5l20 -3l6 -13q-2 -8 -4.5 -20.5t-5.5 -23.5q-4 -13 -7 -28q-7 -8 -18 -13q-9 -5 -22 -9t-31 -4q-38 0 -62.5 18.5t-35.5 52.5h-5q-21 -28 -54 -49.5t-86 -21.5
q-71 0 -110.5 44.5t-39.5 132.5v355h135z" />
    <glyph glyph-name="v" unicode="v" horiz-adv-x="482" 
d="M155 0l-145 520h136l71 -268l18 -117h12l18 117l71 268h136l-145 -520h-172z" />
    <glyph glyph-name="w" unicode="w" horiz-adv-x="712" 
d="M343 235l-53 -235h-172q-26 131 -54 260t-54 260h133l54 -270l14 -100h11l15 100l61 270h116l61 -270l15 -100h11l14 100l54 270h133q-26 -131 -54 -260t-54 -260h-172l-53 235l-8 59h-10z" />
    <glyph glyph-name="x" unicode="x" horiz-adv-x="470" 
d="M454 520q-29 -65 -57 -129t-56 -129q29 -66 59 -131t60 -131h-144l-67 156l-10 44h-8l-10 -44l-67 -156h-144l119 261l-113 259h142l62 -153l11 -47h8l11 47l62 153h142z" />
    <glyph glyph-name="y" unicode="y" horiz-adv-x="498" 
d="M304 -69q-12 -37 -24 -64t-28.5 -44.5t-38.5 -26t-53 -8.5q-21 0 -38.5 3t-30 6.5t-19 6l-6.5 2.5l12 89l15 13q6 -2 11 -3q9 -3 21 -3q23 0 32 11.5t18 40.5l15 46l-180 520h138l88 -268q2 -5 3.5 -16t3.5 -23q2 -14 4 -30h10q2 15 4 28q2 11 4 22.5t4 18.5l82 268h137z
" />
    <glyph glyph-name="z" unicode="z" horiz-adv-x="419" 
d="M396 460l-192 -322l-22 -26l2 -4l37 4h175v-112h-373v79l177 295l24 31l-2 5l-36 -2h-158v112h368v-60z" />
    <glyph glyph-name="braceleft" unicode="{" horiz-adv-x="302" 
d="M282 -115q-12 -2 -23 -3q-10 -1 -21 -1.5t-20 -0.5q-74 0 -112 35t-38 109q0 30 5.5 55.5t11.5 48t11.5 42t5.5 35.5q0 26 -15.5 39t-35.5 13h-24v75h24q21 0 36 13.5t15 39.5q0 16 -5.5 35t-11.5 41.5t-11.5 48.5t-5.5 56q0 74 38 109t112 35q9 0 20 -1t21 -2
q11 -1 23 -2v-72q-5 0 -18 1t-27 1q-27 0 -38 -15t-11 -44q0 -17 4 -37.5t9 -43.5t9 -47t4 -48q0 -51 -26 -73.5t-66 -29.5v-5q40 -6 66 -29t26 -73q0 -24 -4 -48t-9 -47.5t-9 -44.5t-4 -37q0 -27 12 -42.5t37 -15.5q14 0 27 1t18 1v-72z" />
    <glyph glyph-name="bar" unicode="|" horiz-adv-x="237" 
d="M70 740h97v-840h-97v840z" />
    <glyph glyph-name="braceright" unicode="}" horiz-adv-x="302" 
d="M20 -43q5 0 18 -1t27 -1q25 0 37 15.5t12 42.5q0 16 -4 37t-9 44.5t-9 47.5t-4 48q0 50 26 73t66 29v5q-40 7 -66 29.5t-26 73.5q0 24 4 48t9 47t9 43.5t4 37.5q0 29 -11 44t-38 15q-14 0 -27 -1t-18 -1v72q12 1 23 2q10 1 20.5 2t20.5 1q74 0 112 -35t38 -109
q0 -30 -5.5 -56t-11.5 -48.5t-11.5 -41.5t-5.5 -35q0 -26 15 -39.5t36 -13.5h24v-75h-24q-20 0 -35.5 -13t-15.5 -39q0 -16 5.5 -35.5t11.5 -42t11.5 -48t5.5 -55.5q0 -74 -38 -109t-112 -35q-10 0 -20.5 0.5t-20.5 1.5q-11 1 -23 3v72z" />
    <glyph glyph-name="asciitilde" unicode="~" horiz-adv-x="608" 
d="M579 385q0 -46 -8.5 -84.5t-26.5 -66.5t-46 -43.5t-67 -15.5q-43 0 -76 19t-61 42t-54 42t-54 19q-30 0 -48.5 -28t-18.5 -84h-90q0 45 9.5 83.5t29 66.5t48 44t66.5 16q43 0 76.5 -19t61.5 -42t53.5 -42t53.5 -19q27 0 44.5 28t17.5 84h90z" />
    <glyph glyph-name="uni00A0" unicode="&#xa0;" horiz-adv-x="220" 
 />
    <glyph glyph-name="exclamdown" unicode="&#xa1;" horiz-adv-x="276" 
d="M216 420q0 -35 -22 -57.5t-56 -22.5t-56 22.5t-22 57.5t22 57.5t56 22.5t56 -22.5t22 -57.5zM128 -202q-35 0 -47 13.5t-12 38.5v123l35 279h68l35 -279v-123q0 -25 -12 -38.5t-47 -13.5h-20z" />
    <glyph glyph-name="cent" unicode="&#xa2;" horiz-adv-x="391" 
d="M176 104q-69 15 -106.5 64.5t-37.5 144.5v14q0 184 144 217v116h97v-109q18 -2 33 -4t26 -4q13 -3 24 -6q-2 -15 -4 -33t-4 -33q-3 -18 -4 -35l-10 -6q-11 2 -23 4q-11 2 -23.5 3.5t-24.5 1.5q-46 0 -71 -25.5t-25 -87.5v-11q0 -31 8 -51t21.5 -32t31.5 -17t38 -5
q12 0 26 2t25 5l26 8l10 -5l2 -10.5t4 -25.5t4 -32.5t3 -32.5q-12 -5 -27 -9q-13 -4 -29.5 -7t-36.5 -5v-108h-97v114z" />
    <glyph glyph-name="sterling" unicode="&#xa3;" horiz-adv-x="442" 
d="M32 337h66q-10 18 -22.5 35t-23.5 36t-18.5 39.5t-7.5 44.5q0 41 17.5 71t47.5 49.5t70 28.5t86 9q27 0 53.5 -3t46.5 -6.5t32.5 -7l12.5 -3.5q-2 -17 -4 -35t-4 -32q-3 -17 -4 -33l-12 -7q-15 3 -31 7q-14 3 -31.5 5.5t-36.5 2.5q-51 0 -79.5 -18.5t-28.5 -54.5
q0 -17 7.5 -32t18 -30.5t22.5 -31.5t22 -34h131v-82h-114q-3 -42 -24.5 -77.5t-44.5 -56.5v-9h243v-112h-400v95q7 6 21.5 20.5t29.5 35t26.5 47t14.5 57.5h-82v82z" />
    <glyph glyph-name="currency" unicode="&#xa4;" horiz-adv-x="609" 
d="M110 193q-38 55 -38 127q0 71 38 127l-80 79l68 68l40 -40l40 -40q27 18 59 28t67 10t67 -10t60 -28q39 41 80 80l68 -68q-41 -39 -80 -80q17 -27 27.5 -59t10.5 -67t-10.5 -67.5t-27.5 -59.5l80 -80l-68 -68l-80 80q-28 -18 -60 -28t-67 -10t-67 10t-59 28l-80 -80
l-68 68zM169 320q0 -28 10.5 -52.5t29 -43t43 -29t52.5 -10.5t52.5 10.5t43 29t29 43t10.5 52.5t-10.5 52.5t-29 43t-43 29t-52.5 10.5t-52.5 -10.5t-43 -29t-29 -43t-10.5 -52.5z" />
    <glyph glyph-name="yen" unicode="&#xa5;" horiz-adv-x="523" 
d="M511 650l-129 -318h105v-82h-139l-19 -48v-20h158v-82h-158v-100h-135v100h-158v82h158v20l-20 48h-138v82h105l-129 318h146l74 -192q4 -11 8 -27l8 -32q4 -18 9 -38h9q4 19 8 37q4 15 8 31.5t9 28.5l74 192h146z" />
    <glyph glyph-name="brokenbar" unicode="&#xa6;" horiz-adv-x="237" 
d="M167 280v-380h-97v380h97zM70 380v380h97v-380h-97z" />
    <glyph glyph-name="section" unicode="&#xa7;" horiz-adv-x="448" 
d="M410 299q0 -37 -13.5 -67.5t-41.5 -50.5v-2q31 -40 31 -100q0 -70 -48.5 -110.5t-142.5 -40.5q-21 0 -41.5 2t-36.5 4t-26 4.5t-11 2.5v33.5t1 29.5q0 15 1 29l12 7q14 -3 30 -6q14 -2 30 -4t33 -2q39 0 59.5 14.5t20.5 40.5q0 40 -46 53l-70 21q-52 16 -82.5 49.5
t-30.5 97.5q0 74 56 114v2q-14 19 -23 41.5t-9 52.5q0 75 47.5 116.5t145.5 41.5q23 0 42.5 -2t33.5 -4q17 -3 30 -6q-2 -15 -3 -31t-3 -30q-2 -16 -3 -31l-12 -6q-13 2 -26 5q-11 2 -25 3.5t-28 1.5q-38 0 -58.5 -14t-20.5 -40q0 -22 12 -32t30 -16l68 -22q58 -19 88 -54
t30 -95zM207 361q-25 -6 -36.5 -20t-11.5 -32q0 -40 49 -56l37 -12q45 13 45 54q0 21 -13 34.5t-44 23.5z" />
    <glyph glyph-name="dieresis" unicode="&#xa8;" horiz-adv-x="418" 
d="M243 650q0 26 17 43t43 17q25 0 42 -17t17 -43t-17 -43.5t-42 -17.5q-26 0 -43 17.5t-17 43.5zM55 650q0 26 17 43t43 17q25 0 42 -17t17 -43t-17 -43.5t-42 -17.5q-26 0 -43 17.5t-17 43.5z" />
    <glyph glyph-name="copyright" unicode="&#xa9;" horiz-adv-x="714" 
d="M456 187q-12 -5 -25 -9q-11 -3 -26.5 -5.5t-33.5 -2.5q-32 0 -59 8t-46 26t-29.5 47.5t-10.5 72.5v21q0 87 39 126t110 39q14 0 26 -1.5t22 -3.5q11 -2 21 -4q-1 -11 -1.5 -22.5t-1.5 -21.5l-2 -22l-7 -3q-7 1 -15 2q-7 1 -14.5 2t-15.5 1q-36 0 -53.5 -20.5t-17.5 -72.5
v-13q0 -52 17.5 -70.5t52.5 -18.5q18 0 36 5q10 3 19 6l7 -3q1 -10 3 -21q2 -9 3 -20zM122 340q0 -49 18.5 -91.5t50.5 -74.5t75 -50.5t91 -18.5q49 0 91.5 18.5t74.5 50.5t50.5 74.5t18.5 91.5q0 48 -18.5 91t-50.5 75t-74.5 50.5t-91.5 18.5q-48 0 -91 -18.5t-75 -50.5
t-50.5 -75t-18.5 -91zM47 340q0 64 24.5 120.5t66.5 98.5t98.5 66.5t120.5 24.5t120.5 -24.5t98.5 -66.5t66.5 -98.5t24.5 -120.5t-24.5 -120.5t-66.5 -98.5t-98.5 -66.5t-120.5 -24.5t-120.5 24.5t-98.5 66.5t-66.5 98.5t-24.5 120.5z" />
    <glyph glyph-name="ordfeminine" unicode="&#xaa;" horiz-adv-x="366" 
d="M69 593q13 2 28 4q13 2 28.5 3.5t32.5 1.5q86 0 120.5 -34t34.5 -103v-102q0 -23 17 -24l17 -2l5 -14l-10 -49q-7 -6 -15 -10t-17.5 -7t-21.5 -3q-49 0 -66 43h-4q-14 -20 -38 -31.5t-51 -11.5q-43 0 -68.5 27t-25.5 71v10q0 43 22.5 67.5t62.5 29.5l95 12v9
q0 19 -13.5 29t-48.5 10q-14 0 -29.5 -1.5t-28.5 -3.5q-15 -2 -29 -4l-10 8q0 3 1.5 12.5t3.5 21.5t4 23.5t4 17.5zM166 326q17 0 29.5 9t19.5 18v63l-43 -8q-18 -4 -28.5 -13t-10.5 -30q0 -20 9.5 -29.5t23.5 -9.5z" />
    <glyph glyph-name="guillemotleft" unicode="&#xab;" horiz-adv-x="487" 
d="M239 220l111 220h93l-79 -220l79 -220h-93zM34 220l110 220h93l-78 -220l78 -220h-93z" />
    <glyph glyph-name="logicalnot" unicode="&#xac;" 
d="M450 132h-97v183h-303v97h400v-280z" />
    <glyph glyph-name="uni00AD" unicode="&#xad;" horiz-adv-x="334" 
d="M42 250v97h250v-97h-250z" />
    <glyph glyph-name="registered" unicode="&#xae;" horiz-adv-x="414" 
d="M186 538v-49h26q14 0 19.5 6.5t5.5 17.5t-6.5 18t-23.5 7h-21zM231 393l-24 59h-21v-59h-52v186h80q39 0 57 -17.5t18 -47.5q0 -42 -31 -56l27 -65h-54zM73 485q0 -29 10 -53.5t28 -43t42.5 -29t53.5 -10.5q28 0 52.5 10.5t42.5 29t28.5 43t10.5 53.5q0 28 -10.5 52.5
t-28.5 42.5t-42.5 28.5t-52.5 10.5q-29 0 -53.5 -10.5t-42.5 -28.5t-28 -42.5t-10 -52.5zM20 485q0 39 14.5 73t40 59.5t59.5 40t73 14.5t73 -14.5t59.5 -40t40 -59.5t14.5 -73t-14.5 -73t-40 -59.5t-59.5 -40t-73 -14.5t-73 14.5t-59.5 40t-40 59.5t-14.5 73z" />
    <glyph glyph-name="macron" unicode="&#xaf;" horiz-adv-x="350" 
d="M52 690h245v-83h-245v83z" />
    <glyph glyph-name="degree" unicode="&#xb0;" horiz-adv-x="394" 
d="M127 516q0 -28 20.5 -48.5t49.5 -20.5t49.5 20.5t20.5 48.5q0 29 -20.5 50t-49.5 21t-49.5 -21t-20.5 -50zM45 516q0 32 12 60t32.5 48.5t48 32.5t59.5 12q31 0 59 -12t48.5 -32.5t32.5 -48.5t12 -60t-12 -59.5t-32.5 -48t-48.5 -32.5t-59 -12q-32 0 -59.5 12t-48 32.5
t-32.5 48t-12 59.5z" />
    <glyph glyph-name="plusminus" unicode="&#xb1;" 
d="M30 15v97h440v-97h-440zM298 285v-135h-97v135h-171v97h171v138h97v-138h172v-97h-172z" />
    <glyph glyph-name="uni00B2" unicode="&#xb2;" horiz-adv-x="320" 
d="M290 702q0 -26 -6.5 -45t-18.5 -35t-29.5 -31.5t-39.5 -34.5l-38 -32q-10 -8 -12 -11t-2 -8v-3h140v-82h-254v69q0 16 4 28.5t13.5 24.5t24 25t35.5 31l30 25q32 26 43.5 40.5t11.5 31.5t-13 32t-52 15q-14 0 -27 -3t-24 -6q-13 -4 -25 -8l-9 4q-1 10 -2 21
q-1 10 -1.5 22.5t-1.5 26.5l9 4t24 8.5t35.5 8.5t43.5 4q68 0 104.5 -35t36.5 -87z" />
    <glyph glyph-name="uni00B3" unicode="&#xb3;" horiz-adv-x="296" 
d="M275 542q0 -56 -34 -92t-116 -36q-23 0 -42 2.5t-33 5.5q-17 4 -30 9q0 11 1 22.5t2 22.5q1 12 3 25l8 4q13 -3 25 -5q11 -2 23.5 -3t23.5 -1q69 0 69 50q0 21 -14 32.5t-50 11.5h-53v67h62q21 1 33.5 11t12.5 33q0 19 -12.5 30t-44.5 11q-13 0 -25 -2.5t-22 -4.5
q-11 -4 -22 -7l-8 4l-2 24q-1 11 -2.5 23t-2.5 23q14 6 32 11q14 4 33.5 7.5t41.5 3.5q34 0 59 -8.5t41 -23.5t24 -34.5t8 -41.5q0 -53 -38 -80v-2q22 -14 35.5 -35.5t13.5 -56.5z" />
    <glyph glyph-name="acute" unicode="&#xb4;" horiz-adv-x="470" 
d="M387 677l-115 -97h-76l-9 17l83 123h117v-43z" />
    <glyph glyph-name="mu" unicode="&#xb5;" horiz-adv-x="538" 
d="M180 520v-352q0 -68 65 -68q27 0 49 13t36 29v378h135v-369q0 -23 7.5 -34.5t27.5 -14.5l20 -3l6 -13q-2 -8 -4.5 -20.5t-5.5 -23.5q-4 -13 -7 -28q-7 -8 -18 -13q-9 -5 -22 -9t-31 -4q-38 0 -62.5 18.5t-35.5 52.5h-5q-21 -28 -54 -49.5t-86 -21.5q-10 0 -15 1v-189
h-135v720h135z" />
    <glyph glyph-name="paragraph" unicode="&#xb6;" horiz-adv-x="533" 
d="M361 578h-75v-638h-82v357h-25q-67 0 -105.5 46.5t-38.5 127.5q0 91 41 140t125 49h307v-82h-65v-638h-82v638z" />
    <glyph glyph-name="periodcentered" unicode="&#xb7;" horiz-adv-x="268" 
d="M56 300q0 36 22.5 58t55.5 22q34 0 56 -22t22 -58q0 -35 -22 -57.5t-56 -22.5q-33 0 -55.5 22.5t-22.5 57.5z" />
    <glyph glyph-name="cedilla" unicode="&#xb8;" horiz-adv-x="306" 
d="M53 -147q8 -2 18 -3q8 -1 17.5 -1.5t18.5 -0.5q26 0 36 7.5t10 19.5q0 21 -28 21h-55l15 104h67l-2 -52h16q77 0 77 -73q0 -41 -25.5 -64t-85.5 -23q-17 0 -32.5 1t-27.5 3q-14 2 -26 5z" />
    <glyph glyph-name="uni00B9" unicode="&#xb9;" horiz-adv-x="247" 
d="M25 740l108 78h63v-398h-98v268h-73v52z" />
    <glyph glyph-name="ordmasculine" unicode="&#xba;" horiz-adv-x="360" 
d="M227 460q0 32 -13.5 46t-33.5 14t-33.5 -14t-13.5 -46v-64q0 -32 13.5 -46t33.5 -14t33.5 14t13.5 46v64zM185 602q29 0 54.5 -10t44.5 -30t30 -49.5t11 -67.5v-34q0 -38 -11 -67.5t-30 -49.5t-44.5 -30t-54.5 -10h-10q-29 0 -54.5 10t-44.5 30t-30 49.5t-11 67.5v34
q0 38 11 67.5t30 49.5t44.5 30t54.5 10h10z" />
    <glyph glyph-name="guillemotright" unicode="&#xbb;" horiz-adv-x="487" 
d="M137 0h-93l78 220l-78 220h93l110 -220zM342 0h-93l78 220l-78 220h93l110 -220z" />
    <glyph glyph-name="onequarter" unicode="&#xbc;" horiz-adv-x="727" 
d="M513 396h96l-97 -249h62l29 103h61v-103h48v-82h-48v-65h-98v65h-150v84zM25 582l108 78h63v-398h-98v268h-73v52zM501 672h100l-412 -684h-100z" />
    <glyph glyph-name="onehalf" unicode="&#xbd;" horiz-adv-x="758" 
d="M728 282q0 -26 -6.5 -45t-18.5 -35t-29.5 -31.5t-39.5 -34.5l-38 -32q-10 -8 -12 -11t-2 -8v-3h140v-82h-254v69q0 16 4 28.5t13.5 24.5t24 25t35.5 31l30 25q32 26 43.5 40.5t11.5 31.5t-13 32t-52 15q-14 0 -27 -3t-24 -6q-13 -4 -25 -8l-9 4q-1 10 -2 21
q-1 10 -1.5 22.5t-1.5 26.5l9 4t24 8.5t35.5 8.5t43.5 4q68 0 104.5 -35t36.5 -87zM25 582l108 78h63v-398h-98v268h-73v52zM501 672h100l-412 -684h-100z" />
    <glyph glyph-name="threequarters" unicode="&#xbe;" horiz-adv-x="750" 
d="M536 396h96l-97 -249h62l29 103h61v-103h48v-82h-48v-65h-98v65h-150v84zM275 384q0 -56 -34 -92t-116 -36q-23 0 -42 2.5t-33 5.5q-17 4 -30 9q0 11 1 22.5t2 22.5q1 12 3 25l8 4q13 -3 25 -5q11 -2 23.5 -3t23.5 -1q69 0 69 50q0 21 -14 32.5t-50 11.5h-53v67h62
q21 1 33.5 11t12.5 33q0 19 -12.5 30t-44.5 11q-13 0 -25 -2.5t-22 -4.5q-11 -4 -22 -7l-8 4l-2 24q-1 11 -2.5 23t-2.5 23q14 6 32 11q14 4 33.5 7.5t41.5 3.5q34 0 59 -8.5t41 -23.5t24 -34.5t8 -41.5q0 -53 -38 -80v-2q22 -14 35.5 -35.5t13.5 -56.5zM539 672h100
l-412 -684h-100z" />
    <glyph glyph-name="questiondown" unicode="&#xbf;" horiz-adv-x="426" 
d="M331 420q0 -35 -22 -57.5t-56 -22.5t-56 22.5t-22 57.5t22 57.5t56 22.5t56 -22.5t22 -57.5zM30 -2q0 55 24 93.5t81 74.5q18 12 28 21t15 18.5t6 20t1 24.5v27h135v-67q0 -24 -3.5 -41t-12.5 -31.5t-25.5 -27.5t-43.5 -29q-21 -13 -34.5 -23t-21.5 -19.5t-11 -19
t-3 -21.5v-5q0 -28 22.5 -45.5t66.5 -17.5q19 0 38 3t33 7q17 4 32 10l13 -6q2 -14 4 -29q2 -14 3.5 -30.5t3.5 -34.5l-11 -5t-31 -11t-48.5 -11t-63.5 -5q-52 0 -89 13t-61 35.5t-35.5 54t-11.5 68.5v9z" />
    <glyph glyph-name="Agrave" unicode="&#xc0;" horiz-adv-x="522" 
d="M201 240h119l-35 160q-3 11 -6.5 32.5t-6.5 41.5q-4 24 -8 51h-7q-3 -25 -7 -48q-3 -20 -6.5 -41t-6.5 -36zM344 128h-167l-28 -128h-138l154 660h192l154 -660h-138zM135 860h117l83 -123l-9 -17h-76l-115 97v43z" />
    <glyph glyph-name="Aacute" unicode="&#xc1;" horiz-adv-x="522" 
d="M201 240h119l-35 160q-3 11 -6.5 32.5t-6.5 41.5q-4 24 -8 51h-7q-3 -25 -7 -48q-3 -20 -6.5 -41t-6.5 -36zM344 128h-167l-28 -128h-138l154 660h192l154 -660h-138zM419 817l-115 -97h-76l-9 17l83 123h117v-43z" />
    <glyph glyph-name="Acircumflex" unicode="&#xc2;" horiz-adv-x="522" 
d="M201 240h119l-35 160q-3 11 -6.5 32.5t-6.5 41.5q-4 24 -8 51h-7q-3 -25 -7 -48q-3 -20 -6.5 -41t-6.5 -36zM344 128h-167l-28 -128h-138l154 660h192l154 -660h-138zM416 745l-9 -25h-69l-74 62l-75 -62h-69l-9 25l97 115h112z" />
    <glyph glyph-name="Atilde" unicode="&#xc3;" horiz-adv-x="522" 
d="M201 240h119l-35 160q-3 11 -6.5 32.5t-6.5 41.5q-4 24 -8 51h-7q-3 -25 -7 -48q-3 -20 -6.5 -41t-6.5 -36zM344 128h-167l-28 -128h-138l154 660h192l154 -660h-138zM446 850q-17 -70 -45.5 -100t-70.5 -30q-21 0 -38.5 9t-32.5 20.5t-28.5 20.5t-27.5 9t-30 -10
t-30 -49l-61 19q16 71 47 100.5t74 29.5q21 0 39 -9t33.5 -20.5t29 -20.5t25.5 -9q6 0 12.5 2t13.5 8t14 17.5t15 31.5z" />
    <glyph glyph-name="Adieresis" unicode="&#xc4;" horiz-adv-x="522" 
d="M201 240h119l-35 160q-3 11 -6.5 32.5t-6.5 41.5q-4 24 -8 51h-7q-3 -25 -7 -48q-3 -20 -6.5 -41t-6.5 -36zM344 128h-167l-28 -128h-138l154 660h192l154 -660h-138zM295 790q0 26 17 43t43 17q25 0 42 -17t17 -43t-17 -43.5t-42 -17.5q-26 0 -43 17.5t-17 43.5z
M107 790q0 26 17 43t43 17q25 0 42 -17t17 -43t-17 -43.5t-42 -17.5q-26 0 -43 17.5t-17 43.5z" />
    <glyph glyph-name="Aring" unicode="&#xc5;" horiz-adv-x="522" 
d="M218 717q0 -18 11.5 -29.5t31.5 -11.5q19 0 30.5 11.5t11.5 29.5t-11.5 29.5t-30.5 11.5q-20 0 -31.5 -11.5t-11.5 -29.5zM201 240h119l-35 160l-14 115h-21l-13 -115zM143 717q0 44 31 73.5t87 29.5q55 0 86 -29.5t31 -73.5q0 -36 -20 -62l153 -655h-138l-29 128h-167
l-28 -128h-138l153 654q-21 25 -21 63z" />
    <glyph glyph-name="AE" unicode="&#xc6;" horiz-adv-x="643" 
d="M207 240h87v308h-14q-4 -19 -8 -42q-4 -20 -10 -45t-13 -54zM179 127l-31 -127h-137l169 660h434v-112h-185v-158h155v-98h-155v-180h195v-112h-330v127h-115z" />
    <glyph glyph-name="Ccedilla" unicode="&#xc7;" horiz-adv-x="433" 
d="M191 -147q8 -2 18 -3q8 -1 17.5 -1.5t18.5 -0.5q26 0 36 7.5t10 19.5q0 21 -28 21h-55l14 99q-41 8 -74 28t-56 56t-36 90t-13 131v35q0 91 18.5 155t52 104.5t81 59t106.5 18.5q20 0 38 -2.5t31 -4.5q15 -4 28 -7q-2 -17 -4 -34.5t-4 -31.5q-3 -17 -4 -33l-11 -6
q-9 1 -20 3q-9 2 -20.5 3t-23.5 1q-69 0 -100.5 -53t-31.5 -174v-21q0 -58 8.5 -98t25 -65.5t41.5 -37t58 -11.5q13 0 26.5 2t24.5 4q13 3 25 6l11 -6q1 -15 4 -31q2 -14 4 -31.5t4 -35.5q-16 -6 -34 -10q-16 -4 -37.5 -7t-47.5 -3h-3l-1 -40h16q77 0 77 -73
q0 -41 -25.5 -64t-85.5 -23q-17 0 -32.5 1t-27.5 3q-14 2 -26 5z" />
    <glyph glyph-name="Egrave" unicode="&#xc8;" horiz-adv-x="406" 
d="M57 660h320v-112h-185v-158h155v-98h-155v-180h195v-112h-330v660zM79 860h117l83 -123l-9 -17h-76l-115 97v43z" />
    <glyph glyph-name="Eacute" unicode="&#xc9;" horiz-adv-x="406" 
d="M57 660h320v-112h-185v-158h155v-98h-155v-180h195v-112h-330v660zM357 817l-115 -97h-76l-9 17l83 123h117v-43z" />
    <glyph glyph-name="Ecircumflex" unicode="&#xca;" horiz-adv-x="406" 
d="M57 660h320v-112h-185v-158h155v-98h-155v-180h195v-112h-330v660zM373 745l-9 -25h-69l-74 62l-75 -62h-69l-9 25l97 115h112z" />
    <glyph glyph-name="Edieresis" unicode="&#xcb;" horiz-adv-x="406" 
d="M57 660h320v-112h-185v-158h155v-98h-155v-180h195v-112h-330v660zM256 785q0 26 17 43t43 17q25 0 42 -17t17 -43t-17 -43.5t-42 -17.5q-26 0 -43 17.5t-17 43.5zM68 785q0 26 17 43t43 17q25 0 42 -17t17 -43t-17 -43.5t-42 -17.5q-26 0 -43 17.5t-17 43.5z" />
    <glyph glyph-name="Igrave" unicode="&#xcc;" horiz-adv-x="249" 
d="M57 660h135v-660h-135v660zM-10 860h117l83 -123l-9 -17h-76l-115 97v43z" />
    <glyph glyph-name="Iacute" unicode="&#xcd;" horiz-adv-x="249" 
d="M57 660h135v-660h-135v660zM258 817l-115 -97h-76l-9 17l83 123h117v-43z" />
    <glyph glyph-name="Icircumflex" unicode="&#xce;" horiz-adv-x="249" 
d="M57 660h135v-660h-135v660zM278 745l-9 -25h-69l-74 62l-75 -62h-69l-9 25l97 115h112z" />
    <glyph glyph-name="Idieresis" unicode="&#xcf;" horiz-adv-x="249" 
d="M57 660h135v-660h-135v660zM161 786q0 26 17 43t43 17q25 0 42 -17t17 -43t-17 -43.5t-42 -17.5q-26 0 -43 17.5t-17 43.5zM-27 786q0 26 17 43t43 17q25 0 42 -17t17 -43t-17 -43.5t-42 -17.5q-26 0 -43 17.5t-17 43.5z" />
    <glyph glyph-name="Eth" unicode="&#xd0;" horiz-adv-x="530" 
d="M192 548v-178h68v-98h-68v-160h66q21 0 38.5 6t30 21t19 40.5t6.5 65.5v151q0 46 -7.5 76t-22.5 46.5t-37 23t-50 6.5h-43zM0 370h57v290h202q52 0 94 -15t72 -46.5t46 -80.5t16 -118v-172q0 -113 -51 -170.5t-147 -57.5h-232v272h-57v98z" />
    <glyph glyph-name="Ntilde" unicode="&#xd1;" horiz-adv-x="591" 
d="M212 367q-4 8 -7.5 18.5l-6.5 19.5q-4 11 -6 21l-6 -1l6 -83v-342h-135v660h150l172 -367q3 -8 6.5 -17.5t6.5 -19.5q4 -11 7 -23l5 1l-5 84v342h135v-660h-150zM492 855q-17 -70 -45.5 -100t-70.5 -30q-21 0 -38.5 9t-32.5 20.5t-28.5 20.5t-27.5 9t-30 -10t-30 -49
l-61 19q16 71 47 100.5t74 29.5q21 0 39 -9t33.5 -20.5t29 -20.5t25.5 -9q6 0 12.5 2t13.5 8t14 17.5t15 31.5z" />
    <glyph glyph-name="Ograve" unicode="&#xd2;" horiz-adv-x="526" 
d="M346 368q0 104 -19 148t-64 44t-64 -44t-19 -148v-77q0 -104 19 -147.5t64 -43.5t64 43.5t19 147.5v77zM269 672q115 0 164.5 -81t49.5 -241v-41q0 -160 -49.5 -240.5t-164.5 -80.5h-12q-115 0 -164.5 80t-49.5 241v41q0 161 49.5 241.5t164.5 80.5h12zM126 860h117
l83 -123l-9 -17h-76l-115 97v43z" />
    <glyph glyph-name="Oacute" unicode="&#xd3;" horiz-adv-x="526" 
d="M346 368q0 104 -19 148t-64 44t-64 -44t-19 -148v-77q0 -104 19 -147.5t64 -43.5t64 43.5t19 147.5v77zM269 672q115 0 164.5 -81t49.5 -241v-41q0 -160 -49.5 -240.5t-164.5 -80.5h-12q-115 0 -164.5 80t-49.5 241v41q0 161 49.5 241.5t164.5 80.5h12zM404 817l-115 -97
h-76l-9 17l83 123h117v-43z" />
    <glyph glyph-name="Ocircumflex" unicode="&#xd4;" horiz-adv-x="526" 
d="M346 368q0 104 -19 148t-64 44t-64 -44t-19 -148v-77q0 -104 19 -147.5t64 -43.5t64 43.5t19 147.5v77zM269 672q115 0 164.5 -81t49.5 -241v-41q0 -160 -49.5 -240.5t-164.5 -80.5h-12q-115 0 -164.5 80t-49.5 241v41q0 161 49.5 241.5t164.5 80.5h12zM415 745l-9 -25
h-69l-74 62l-75 -62h-69l-9 25l97 115h112z" />
    <glyph glyph-name="Otilde" unicode="&#xd5;" horiz-adv-x="526" 
d="M346 368q0 104 -19 148t-64 44t-64 -44t-19 -148v-77q0 -104 19 -147.5t64 -43.5t64 43.5t19 147.5v77zM269 672q115 0 164.5 -81t49.5 -241v-41q0 -160 -49.5 -240.5t-164.5 -80.5h-12q-115 0 -164.5 80t-49.5 241v41q0 161 49.5 241.5t164.5 80.5h12zM446 855
q-17 -70 -45.5 -100t-70.5 -30q-21 0 -38.5 9t-32.5 20.5t-28.5 20.5t-27.5 9t-30 -10t-30 -49l-61 19q16 71 47 100.5t74 29.5q21 0 39 -9t33.5 -20.5t29 -20.5t25.5 -9q6 0 12.5 2t13.5 8t14 17.5t15 31.5z" />
    <glyph glyph-name="Odieresis" unicode="&#xd6;" horiz-adv-x="526" 
d="M346 368q0 104 -19 148t-64 44t-64 -44t-19 -148v-77q0 -104 19 -147.5t64 -43.5t64 43.5t19 147.5v77zM269 672q115 0 164.5 -81t49.5 -241v-41q0 -160 -49.5 -240.5t-164.5 -80.5h-12q-115 0 -164.5 80t-49.5 241v41q0 161 49.5 241.5t164.5 80.5h12zM296 784
q0 26 17 43t43 17q25 0 42 -17t17 -43t-17 -43.5t-42 -17.5q-26 0 -43 17.5t-17 43.5zM108 784q0 26 17 43t43 17q25 0 42 -17t17 -43t-17 -43.5t-42 -17.5q-26 0 -43 17.5t-17 43.5z" />
    <glyph glyph-name="multiply" unicode="&#xd7;" 
d="M319 300l121 -121l-69 -69l-121 121l-121 -121l-69 69l121 121l-121 121l69 69l121 -121l121 121l69 -69z" />
    <glyph glyph-name="Oslash" unicode="&#xd8;" horiz-adv-x="526" 
d="M346 368v15.5t-1 15.5h-3l-18 -42l-120 -225q19 -32 59 -32q45 0 64 43.5t19 147.5v77zM326 517q-19 43 -63 43q-45 0 -64 -44t-19 -148v-77v-25.5t1 -22.5h4l16 40zM269 672q74 0 121 -35l37 69l65 -35l-51 -94q22 -41 32 -97t10 -130v-41q0 -160 -49.5 -240.5
t-164.5 -80.5h-12q-68 0 -114 29l-34 -63l-65 35l45 84q-24 41 -35 99.5t-11 136.5v41q0 161 49.5 241.5t164.5 80.5h12z" />
    <glyph glyph-name="Ugrave" unicode="&#xd9;" horiz-adv-x="540" 
d="M485 660v-426q0 -65 -14 -111.5t-40.5 -76.5t-65 -44t-87.5 -14h-17q-49 0 -87 14t-64.5 44t-40.5 76.5t-14 111.5v426h135v-450q0 -60 21.5 -85t58.5 -25q36 0 58 25t22 85v450h135zM115 860h117l83 -123l-9 -17h-76l-115 97v43z" />
    <glyph glyph-name="Uacute" unicode="&#xda;" horiz-adv-x="540" 
d="M485 660v-426q0 -65 -14 -111.5t-40.5 -76.5t-65 -44t-87.5 -14h-17q-49 0 -87 14t-64.5 44t-40.5 76.5t-14 111.5v426h135v-450q0 -60 21.5 -85t58.5 -25q36 0 58 25t22 85v450h135zM428 817l-115 -97h-76l-9 17l83 123h117v-43z" />
    <glyph glyph-name="Ucircumflex" unicode="&#xdb;" horiz-adv-x="540" 
d="M485 660v-426q0 -65 -14 -111.5t-40.5 -76.5t-65 -44t-87.5 -14h-17q-49 0 -87 14t-64.5 44t-40.5 76.5t-14 111.5v426h135v-450q0 -60 21.5 -85t58.5 -25q36 0 58 25t22 85v450h135zM425 745l-9 -25h-69l-74 62l-75 -62h-69l-9 25l97 115h112z" />
    <glyph glyph-name="Udieresis" unicode="&#xdc;" horiz-adv-x="540" 
d="M485 660v-426q0 -65 -14 -111.5t-40.5 -76.5t-65 -44t-87.5 -14h-17q-49 0 -87 14t-64.5 44t-40.5 76.5t-14 111.5v426h135v-450q0 -60 21.5 -85t58.5 -25q36 0 58 25t22 85v450h135zM304 783q0 26 17 43t43 17q25 0 42 -17t17 -43t-17 -43.5t-42 -17.5q-26 0 -43 17.5
t-17 43.5zM116 783q0 26 17 43t43 17q25 0 42 -17t17 -43t-17 -43.5t-42 -17.5q-26 0 -43 17.5t-17 43.5z" />
    <glyph glyph-name="Yacute" unicode="&#xdd;" horiz-adv-x="529" 
d="M157 660l78 -202q5 -13 9 -30t8 -33q4 -18 8 -39h9q4 21 8 39q4 16 8 33t9 30l78 202h146l-186 -458v-202h-135v202l-186 458h146zM416 817l-115 -97h-76l-9 17l83 123h117v-43z" />
    <glyph glyph-name="Thorn" unicode="&#xde;" horiz-adv-x="495" 
d="M192 440v-238h54q39 0 61.5 21.5t22.5 70.5v38q0 54 -22.5 81t-71.5 27h-44zM57 660h135v-108h66q103 0 155 -51.5t52 -163.5v-42q0 -98 -49 -144.5t-133 -46.5h-91v-104h-135v660z" />
    <glyph glyph-name="germandbls" unicode="&#xdf;" horiz-adv-x="557" 
d="M475 565q0 -43 -14 -71t-41 -58q-20 -21 -26 -30t-6 -21q0 -13 6.5 -20t19.5 -15l27 -16q46 -27 68.5 -63.5t22.5 -90.5q0 -90 -45 -141t-152 -51q-35 0 -55 2t-20 1v105l12 7q7 -1 15 -2q7 -1 15 -1h18q82 0 82 82q0 20 -11 37.5t-38 33.5l-22 12q-44 24 -58 49.5
t-15 62.5q-1 34 12.5 56t36.5 47q20 23 29 39t9 41q0 29 -19 48.5t-61 19.5q-41 0 -63 -27.5t-22 -85.5v-515h-135v517q0 58 16 100t45.5 69.5t70 40.5t88.5 13q47 0 86 -11t66.5 -33t42.5 -55t15 -76z" />
    <glyph glyph-name="agrave" unicode="&#xe0;" horiz-adv-x="505" 
d="M220 96q23 0 43 13.5t34 30.5v110l-77 -16q-29 -6 -44.5 -21t-15.5 -44v-12q0 -26 16 -43.5t44 -17.5zM405 -12q-36 0 -61.5 18.5t-36.5 52.5h-4q-21 -30 -54.5 -50.5t-80.5 -20.5q-33 0 -59.5 12t-45 32.5t-28.5 48t-10 58.5v16q0 71 36 108.5t105 46.5l131 17v5
q0 44 -23.5 66t-92.5 22q-20 0 -39 -2t-35 -4q-18 -3 -35 -6l-12 9q0 3 2 16.5t5 30t6.5 32.5t5.5 24q17 3 36 6q17 2 39 4t48 2q63 0 107 -12.5t71.5 -37t39.5 -62t12 -88.5v-181q0 -24 8 -35t27 -14l20 -3l6 -13q-2 -9 -4.5 -21.5t-5.5 -23.5q-4 -13 -7 -27q-7 -8 -18 -13
q-9 -5 -22.5 -9t-30.5 -4zM104 720h117l83 -123l-9 -17h-76l-115 97v43z" />
    <glyph glyph-name="aacute" unicode="&#xe1;" horiz-adv-x="505" 
d="M220 96q23 0 43 13.5t34 30.5v110l-77 -16q-29 -6 -44.5 -21t-15.5 -44v-12q0 -26 16 -43.5t44 -17.5zM405 -12q-36 0 -61.5 18.5t-36.5 52.5h-4q-21 -30 -54.5 -50.5t-80.5 -20.5q-33 0 -59.5 12t-45 32.5t-28.5 48t-10 58.5v16q0 71 36 108.5t105 46.5l131 17v5
q0 44 -23.5 66t-92.5 22q-20 0 -39 -2t-35 -4q-18 -3 -35 -6l-12 9q0 3 2 16.5t5 30t6.5 32.5t5.5 24q17 3 36 6q17 2 39 4t48 2q63 0 107 -12.5t71.5 -37t39.5 -62t12 -88.5v-181q0 -24 8 -35t27 -14l20 -3l6 -13q-2 -9 -4.5 -21.5t-5.5 -23.5q-4 -13 -7 -27q-7 -8 -18 -13
q-9 -5 -22.5 -9t-30.5 -4zM377 677l-115 -97h-76l-9 17l83 123h117v-43z" />
    <glyph glyph-name="acircumflex" unicode="&#xe2;" horiz-adv-x="505" 
d="M220 96q23 0 43 13.5t34 30.5v110l-77 -16q-29 -6 -44.5 -21t-15.5 -44v-12q0 -26 16 -43.5t44 -17.5zM405 -12q-36 0 -61.5 18.5t-36.5 52.5h-4q-21 -30 -54.5 -50.5t-80.5 -20.5q-33 0 -59.5 12t-45 32.5t-28.5 48t-10 58.5v16q0 71 36 108.5t105 46.5l131 17v5
q0 44 -23.5 66t-92.5 22q-20 0 -39 -2t-35 -4q-18 -3 -35 -6l-12 9q0 3 2 16.5t5 30t6.5 32.5t5.5 24q17 3 36 6q17 2 39 4t48 2q63 0 107 -12.5t71.5 -37t39.5 -62t12 -88.5v-181q0 -24 8 -35t27 -14l20 -3l6 -13q-2 -9 -4.5 -21.5t-5.5 -23.5q-4 -13 -7 -27q-7 -8 -18 -13
q-9 -5 -22.5 -9t-30.5 -4zM395 605l-9 -25h-69l-74 62l-75 -62h-69l-9 25l97 115h112z" />
    <glyph glyph-name="atilde" unicode="&#xe3;" horiz-adv-x="505" 
d="M220 96q23 0 43 13.5t34 30.5v110l-77 -16q-29 -6 -44.5 -21t-15.5 -44v-12q0 -26 16 -43.5t44 -17.5zM405 -12q-36 0 -61.5 18.5t-36.5 52.5h-4q-21 -30 -54.5 -50.5t-80.5 -20.5q-33 0 -59.5 12t-45 32.5t-28.5 48t-10 58.5v16q0 71 36 108.5t105 46.5l131 17v5
q0 44 -23.5 66t-92.5 22q-20 0 -39 -2t-35 -4q-18 -3 -35 -6l-12 9q0 3 2 16.5t5 30t6.5 32.5t5.5 24q17 3 36 6q17 2 39 4t48 2q63 0 107 -12.5t71.5 -37t39.5 -62t12 -88.5v-181q0 -24 8 -35t27 -14l20 -3l6 -13q-2 -9 -4.5 -21.5t-5.5 -23.5q-4 -13 -7 -27q-7 -8 -18 -13
q-9 -5 -22.5 -9t-30.5 -4zM418 714q-17 -70 -45.5 -100t-70.5 -30q-21 0 -38.5 9t-32.5 20.5t-28.5 20.5t-27.5 9t-30 -10t-30 -49l-61 19q16 71 47 100.5t74 29.5q21 0 39 -9t33.5 -20.5t29 -20.5t25.5 -9q6 0 12.5 2t13.5 8t14 17.5t15 31.5z" />
    <glyph glyph-name="adieresis" unicode="&#xe4;" horiz-adv-x="505" 
d="M220 96q23 0 43 13.5t34 30.5v110l-77 -16q-29 -6 -44.5 -21t-15.5 -44v-12q0 -26 16 -43.5t44 -17.5zM405 -12q-36 0 -61.5 18.5t-36.5 52.5h-4q-21 -30 -54.5 -50.5t-80.5 -20.5q-33 0 -59.5 12t-45 32.5t-28.5 48t-10 58.5v16q0 71 36 108.5t105 46.5l131 17v5
q0 44 -23.5 66t-92.5 22q-20 0 -39 -2t-35 -4q-18 -3 -35 -6l-12 9q0 3 2 16.5t5 30t6.5 32.5t5.5 24q17 3 36 6q17 2 39 4t48 2q63 0 107 -12.5t71.5 -37t39.5 -62t12 -88.5v-181q0 -24 8 -35t27 -14l20 -3l6 -13q-2 -9 -4.5 -21.5t-5.5 -23.5q-4 -13 -7 -27q-7 -8 -18 -13
q-9 -5 -22.5 -9t-30.5 -4zM275 646q0 26 17 43t43 17q25 0 42 -17t17 -43t-17 -43.5t-42 -17.5q-26 0 -43 17.5t-17 43.5zM87 646q0 26 17 43t43 17q25 0 42 -17t17 -43t-17 -43.5t-42 -17.5q-26 0 -43 17.5t-17 43.5z" />
    <glyph glyph-name="aring" unicode="&#xe5;" horiz-adv-x="505" 
d="M220 96q23 0 43 13.5t34 30.5v110l-77 -16q-29 -6 -44.5 -21t-15.5 -44v-12q0 -26 16 -43.5t44 -17.5zM405 -12q-36 0 -61.5 18.5t-36.5 52.5h-4q-21 -30 -54.5 -50.5t-80.5 -20.5q-33 0 -59.5 12t-45 32.5t-28.5 48t-10 58.5v16q0 71 36 108.5t105 46.5l131 17v5
q0 44 -23.5 66t-92.5 22q-20 0 -39 -2t-35 -4q-18 -3 -35 -6l-12 9q0 3 2 16.5t5 30t6.5 32.5t5.5 24q17 3 36 6q17 2 39 4t48 2q63 0 107 -12.5t71.5 -37t39.5 -62t12 -88.5v-181q0 -24 8 -35t27 -14l20 -3l6 -13q-2 -9 -4.5 -21.5t-5.5 -23.5q-4 -13 -7 -27q-7 -8 -18 -13
q-9 -5 -22.5 -9t-30.5 -4zM188 675q0 -18 11.5 -29.5t31.5 -11.5q19 0 30.5 11.5t11.5 29.5t-11.5 29.5t-30.5 11.5q-20 0 -31.5 -11.5t-11.5 -29.5zM113 675q0 44 31 73.5t87 29.5q55 0 86 -29.5t31 -73.5t-31 -73.5t-86 -29.5q-56 0 -87 29.5t-31 73.5z" />
    <glyph glyph-name="ae" unicode="&#xe6;" horiz-adv-x="725" 
d="M432 332v-27h138v33q0 55 -15 75.5t-46 20.5h-2q-14 0 -27 -5t-24 -16.5t-17.5 -29.5t-6.5 -45v-6zM220 96q31 0 53.5 17t33.5 33q-5 19 -7.5 40.5t-2.5 45.5l-73 -6q-30 -3 -47 -18.5t-17 -41.5v-9q0 -26 16 -43.5t44 -17.5zM432 223v-6q0 -29 5 -51t17.5 -36.5
t34.5 -22t56 -7.5q18 0 37.5 3.5t35.5 7.5t27 7.5t12 3.5l13 -6q0 -1 1 -9.5t2.5 -21.5t3.5 -29t3 -32q0 -1 -12 -6.5t-33.5 -12t-51.5 -12t-67 -5.5q-123 0 -177 79h-5q-11 -15 -25.5 -29t-33 -25.5t-43.5 -18t-57 -6.5q-33 0 -61 12t-47.5 32.5t-30.5 48t-11 58.5v16
q0 71 41.5 109.5t111.5 42.5l119 7v18q0 44 -23.5 66t-92.5 22q-20 0 -39 -2t-35 -4q-18 -3 -35 -6l-12 9q0 3 2 16.5t5 30t6.5 32.5t5.5 24q17 3 36 6q17 2 39 4t48 2q58 0 100 -13t70 -37h3q26 23 58.5 36.5t70.5 13.5h11q88 0 135.5 -52t47.5 -157v-17q0 -13 -1 -27.5
t-3 -26.5q-2 -15 -4 -29h-258z" />
    <glyph glyph-name="ccedilla" unicode="&#xe7;" horiz-adv-x="378" 
d="M147 -147q8 -2 18 -3q8 -1 17.5 -1.5t18.5 -0.5q26 0 36 7.5t10 19.5q0 21 -28 21h-55l14 98q-37 7 -65.5 24.5t-47.5 47.5t-28.5 74.5t-9.5 104.5v15q0 75 14.5 127t42 84.5t68.5 46.5t95 14q23 0 41.5 -2.5t32.5 -5.5q16 -4 30 -7q-2 -16 -4 -33.5t-3.5 -32t-3 -24
t-1.5 -10.5l-10 -6q-12 2 -23 4t-23 3.5t-24 1.5q-22 0 -40 -6.5t-30.5 -24.5t-19.5 -49.5t-7 -81.5v-12q0 -47 8 -75.5t21.5 -44t31.5 -21t38 -5.5q12 0 25.5 2t24.5 5t18.5 5.5t8.5 2.5l10 -6q0 -1 2 -10t4 -23.5t4 -31.5t3 -33q-15 -7 -33 -12q-16 -5 -37 -8t-46 -3
l-1 -40h16q77 0 77 -73q0 -41 -25.5 -64t-85.5 -23q-17 0 -32.5 1t-27.5 3q-14 2 -26 5z" />
    <glyph glyph-name="egrave" unicode="&#xe8;" horiz-adv-x="454" 
d="M162 302h138v36q0 55 -15 75.5t-46 20.5h-2q-14 0 -27 -5t-24 -16.5t-17.5 -29.5t-6.5 -45v-36zM162 220q0 -30 4.5 -52.5t17.5 -37.5t34.5 -22.5t56.5 -7.5q18 0 37.5 3.5t35.5 7.5t27 7.5t12 3.5l13 -6q0 -1 1 -9.5t2.5 -21.5t3.5 -29t3 -32q0 -1 -12 -6.5t-33.5 -12
t-51.5 -12t-67 -5.5q-108 0 -163.5 62t-55.5 195v35q0 60 15 106.5t42.5 79t65.5 49.5t84 17h11q88 0 135.5 -52t47.5 -157v-17q0 -13 -1.5 -28t-3.5 -28l-4 -30h-257zM95 720h117l83 -123l-9 -17h-76l-115 97v43z" />
    <glyph glyph-name="eacute" unicode="&#xe9;" horiz-adv-x="455" 
d="M162 302h138v36q0 55 -15 75.5t-46 20.5h-2q-14 0 -27 -5t-24 -16.5t-17.5 -29.5t-6.5 -45v-36zM162 220q0 -30 4.5 -52.5t17.5 -37.5t34.5 -22.5t56.5 -7.5q18 0 37.5 3.5t35.5 7.5t27 7.5t12 3.5l13 -6q0 -1 1 -9.5t2.5 -21.5t3.5 -29t3 -32q0 -1 -12 -6.5t-33.5 -12
t-51.5 -12t-67 -5.5q-108 0 -163.5 62t-55.5 195v35q0 60 15 106.5t42.5 79t65.5 49.5t84 17h11q88 0 135.5 -52t47.5 -157v-17q0 -13 -1.5 -28t-3.5 -28l-4 -30h-257zM378 677l-115 -97h-76l-9 17l83 123h117v-43z" />
    <glyph glyph-name="ecircumflex" unicode="&#xea;" horiz-adv-x="455" 
d="M162 302h138v36q0 55 -15 75.5t-46 20.5h-2q-14 0 -27 -5t-24 -16.5t-17.5 -29.5t-6.5 -45v-36zM162 220q0 -30 4.5 -52.5t17.5 -37.5t34.5 -22.5t56.5 -7.5q18 0 37.5 3.5t35.5 7.5t27 7.5t12 3.5l13 -6q0 -1 1 -9.5t2.5 -21.5t3.5 -29t3 -32q0 -1 -12 -6.5t-33.5 -12
t-51.5 -12t-67 -5.5q-108 0 -163.5 62t-55.5 195v35q0 60 15 106.5t42.5 79t65.5 49.5t84 17h11q88 0 135.5 -52t47.5 -157v-17q0 -13 -1.5 -28t-3.5 -28l-4 -30h-257zM391 605l-9 -25h-69l-74 62l-75 -62h-69l-9 25l97 115h112z" />
    <glyph glyph-name="edieresis" unicode="&#xeb;" horiz-adv-x="455" 
d="M162 302h138v36q0 55 -15 75.5t-46 20.5h-2q-14 0 -27 -5t-24 -16.5t-17.5 -29.5t-6.5 -45v-36zM162 220q0 -30 4.5 -52.5t17.5 -37.5t34.5 -22.5t56.5 -7.5q18 0 37.5 3.5t35.5 7.5t27 7.5t12 3.5l13 -6q0 -1 1 -9.5t2.5 -21.5t3.5 -29t3 -32q0 -1 -12 -6.5t-33.5 -12
t-51.5 -12t-67 -5.5q-108 0 -163.5 62t-55.5 195v35q0 60 15 106.5t42.5 79t65.5 49.5t84 17h11q88 0 135.5 -52t47.5 -157v-17q0 -13 -1.5 -28t-3.5 -28l-4 -30h-257zM274 645q0 26 17 43t43 17q25 0 42 -17t17 -43t-17 -43.5t-42 -17.5q-26 0 -43 17.5t-17 43.5zM86 645
q0 26 17 43t43 17q25 0 42 -17t17 -43t-17 -43.5t-42 -17.5q-26 0 -43 17.5t-17 43.5z" />
    <glyph glyph-name="igrave" unicode="&#xec;" horiz-adv-x="225" 
d="M45 0v520h135v-520h-135zM-25 720h117l83 -123l-9 -17h-76l-115 97v43z" />
    <glyph glyph-name="iacute" unicode="&#xed;" horiz-adv-x="225" 
d="M45 0v520h135v-520h-135zM255 677l-115 -97h-76l-9 17l83 123h117v-43z" />
    <glyph glyph-name="icircumflex" unicode="&#xee;" horiz-adv-x="225" 
d="M45 0v520h135v-520h-135zM266 605l-9 -25h-69l-74 62l-75 -62h-69l-9 25l97 115h112z" />
    <glyph glyph-name="idieresis" unicode="&#xef;" horiz-adv-x="225" 
d="M45 0v520h135v-520h-135zM148 644q0 26 17 43t43 17q25 0 42 -17t17 -43t-17 -43.5t-42 -17.5q-26 0 -43 17.5t-17 43.5zM-40 644q0 26 17 43t43 17q25 0 42 -17t17 -43t-17 -43.5t-42 -17.5q-26 0 -43 17.5t-17 43.5z" />
    <glyph glyph-name="eth" unicode="&#xf0;" horiz-adv-x="474" 
d="M312 312q0 51 -19.5 76t-55.5 25t-55.5 -25t-19.5 -76v-114q0 -51 19.5 -76.5t55.5 -25.5t55.5 25.5t19.5 76.5v114zM87 602l99 42q-32 15 -69 24l-25 6q3 17 6 33t7 33q113 -5 189 -51l114 48l27 -69l-38 -16t-39 -16q43 -47 66 -112t23 -150v-135q0 -120 -54.5 -185.5
t-148.5 -65.5h-14q-94 0 -148.5 65.5t-54.5 185.5v31q0 64 14.5 110.5t39 77t58 45t71.5 14.5t62 -12.5t35 -28.5l5 3q-11 67 -58 113q-35 -14 -70 -29l-70 -30z" />
    <glyph glyph-name="ntilde" unicode="&#xf1;" horiz-adv-x="508" 
d="M45 0v520h80l39 -60q13 13 29 25.5t36 23t43.5 17t52.5 6.5q66 0 103 -41t37 -109v-382h-135v360q0 31 -15.5 45.5t-43.5 14.5q-26 0 -50 -9.5t-41 -22.5v-388h-135zM434 713q-17 -70 -45.5 -100t-70.5 -30q-21 0 -38.5 9t-32.5 20.5t-28.5 20.5t-27.5 9t-30 -10t-30 -49
l-61 19q16 71 47 100.5t74 29.5q21 0 39 -9t33.5 -20.5t29 -20.5t25.5 -9q6 0 12.5 2t13.5 8t14 17.5t15 31.5z" />
    <glyph glyph-name="ograve" unicode="&#xf2;" horiz-adv-x="474" 
d="M312 323q0 51 -19.5 76t-55.5 25t-55.5 -25t-19.5 -76v-125q0 -51 19.5 -76.5t55.5 -25.5t55.5 25.5t19.5 76.5v125zM244 532q94 0 148.5 -65.5t54.5 -185.5v-42q0 -120 -54.5 -185.5t-148.5 -65.5h-14q-94 0 -148.5 65.5t-54.5 185.5v42q0 120 54.5 185.5t148.5 65.5h14
zM94 720h117l83 -123l-9 -17h-76l-115 97v43z" />
    <glyph glyph-name="oacute" unicode="&#xf3;" horiz-adv-x="474" 
d="M312 323q0 51 -19.5 76t-55.5 25t-55.5 -25t-19.5 -76v-125q0 -51 19.5 -76.5t55.5 -25.5t55.5 25.5t19.5 76.5v125zM244 532q94 0 148.5 -65.5t54.5 -185.5v-42q0 -120 -54.5 -185.5t-148.5 -65.5h-14q-94 0 -148.5 65.5t-54.5 185.5v42q0 120 54.5 185.5t148.5 65.5h14
zM372 677l-115 -97h-76l-9 17l83 123h117v-43z" />
    <glyph glyph-name="ocircumflex" unicode="&#xf4;" horiz-adv-x="474" 
d="M312 323q0 51 -19.5 76t-55.5 25t-55.5 -25t-19.5 -76v-125q0 -51 19.5 -76.5t55.5 -25.5t55.5 25.5t19.5 76.5v125zM244 532q94 0 148.5 -65.5t54.5 -185.5v-42q0 -120 -54.5 -185.5t-148.5 -65.5h-14q-94 0 -148.5 65.5t-54.5 185.5v42q0 120 54.5 185.5t148.5 65.5h14
zM391 605l-9 -25h-69l-74 62l-75 -62h-69l-9 25l97 115h112z" />
    <glyph glyph-name="otilde" unicode="&#xf5;" horiz-adv-x="474" 
d="M312 323q0 51 -19.5 76t-55.5 25t-55.5 -25t-19.5 -76v-125q0 -51 19.5 -76.5t55.5 -25.5t55.5 25.5t19.5 76.5v125zM244 532q94 0 148.5 -65.5t54.5 -185.5v-42q0 -120 -54.5 -185.5t-148.5 -65.5h-14q-94 0 -148.5 65.5t-54.5 185.5v42q0 120 54.5 185.5t148.5 65.5h14
zM420 712q-17 -70 -45.5 -100t-70.5 -30q-21 0 -38.5 9t-32.5 20.5t-28.5 20.5t-27.5 9t-30 -10t-30 -49l-61 19q16 71 47 100.5t74 29.5q21 0 39 -9t33.5 -20.5t29 -20.5t25.5 -9q6 0 12.5 2t13.5 8t14 17.5t15 31.5z" />
    <glyph glyph-name="odieresis" unicode="&#xf6;" horiz-adv-x="474" 
d="M312 323q0 51 -19.5 76t-55.5 25t-55.5 -25t-19.5 -76v-125q0 -51 19.5 -76.5t55.5 -25.5t55.5 25.5t19.5 76.5v125zM244 532q94 0 148.5 -65.5t54.5 -185.5v-42q0 -120 -54.5 -185.5t-148.5 -65.5h-14q-94 0 -148.5 65.5t-54.5 185.5v42q0 120 54.5 185.5t148.5 65.5h14
zM271 646q0 26 17 43t43 17q25 0 42 -17t17 -43t-17 -43.5t-42 -17.5q-26 0 -43 17.5t-17 43.5zM83 646q0 26 17 43t43 17q25 0 42 -17t17 -43t-17 -43.5t-42 -17.5q-26 0 -43 17.5t-17 43.5z" />
    <glyph glyph-name="divide" unicode="&#xf7;" 
d="M187 475q0 29 18 46.5t45 17.5t45.5 -17.5t18.5 -46.5t-18.5 -47t-45.5 -18t-45 18t-18 47zM187 125q0 29 18 46.5t45 17.5t45.5 -17.5t18.5 -46.5t-18.5 -47t-45.5 -18t-45 18t-18 47zM50 250v97h400v-97h-400z" />
    <glyph glyph-name="oslash" unicode="&#xf8;" horiz-adv-x="474" 
d="M317 324h-4l-19 -42l-102 -175q18 -11 45 -11q36 0 58 25.5t22 76.5v126zM283 410q-19 14 -46 14q-36 0 -58 -25t-22 -76v-130h4l16 35zM244 532q54 0 97 -23l32 55l64 -38l-40 -68q24 -32 37 -76t13 -101v-42q0 -120 -54.5 -185.5t-148.5 -65.5h-14q-27 0 -50.5 5.5
t-44.5 16.5l-33 -57l-63 38l39 67q-51 66 -51 181v42q0 120 54.5 185.5t148.5 65.5h14z" />
    <glyph glyph-name="ugrave" unicode="&#xf9;" horiz-adv-x="538" 
d="M180 520v-345q0 -36 16 -55.5t49 -19.5q27 0 49 13t36 29v378h135v-369q0 -23 7.5 -34.5t27.5 -14.5l20 -3l6 -13q-2 -8 -4.5 -20.5t-5.5 -23.5q-4 -13 -7 -28q-7 -8 -18 -13q-9 -5 -22 -9t-31 -4q-38 0 -62.5 18.5t-35.5 52.5h-5q-21 -28 -54 -49.5t-86 -21.5
q-71 0 -110.5 44.5t-39.5 132.5v355h135zM107 720h117l83 -123l-9 -17h-76l-115 97v43z" />
    <glyph glyph-name="uacute" unicode="&#xfa;" horiz-adv-x="538" 
d="M180 520v-345q0 -36 16 -55.5t49 -19.5q27 0 49 13t36 29v378h135v-369q0 -23 7.5 -34.5t27.5 -14.5l20 -3l6 -13q-2 -8 -4.5 -20.5t-5.5 -23.5q-4 -13 -7 -28q-7 -8 -18 -13q-9 -5 -22 -9t-31 -4q-38 0 -62.5 18.5t-35.5 52.5h-5q-21 -28 -54 -49.5t-86 -21.5
q-71 0 -110.5 44.5t-39.5 132.5v355h135zM405 677l-115 -97h-76l-9 17l83 123h117v-43z" />
    <glyph glyph-name="ucircumflex" unicode="&#xfb;" horiz-adv-x="538" 
d="M180 520v-345q0 -36 16 -55.5t49 -19.5q27 0 49 13t36 29v378h135v-369q0 -23 7.5 -34.5t27.5 -14.5l20 -3l6 -13q-2 -8 -4.5 -20.5t-5.5 -23.5q-4 -13 -7 -28q-7 -8 -18 -13q-9 -5 -22 -9t-31 -4q-38 0 -62.5 18.5t-35.5 52.5h-5q-21 -28 -54 -49.5t-86 -21.5
q-71 0 -110.5 44.5t-39.5 132.5v355h135zM411 605l-9 -25h-69l-74 62l-75 -62h-69l-9 25l97 115h112z" />
    <glyph glyph-name="udieresis" unicode="&#xfc;" horiz-adv-x="538" 
d="M180 520v-345q0 -36 16 -55.5t49 -19.5q27 0 49 13t36 29v378h135v-369q0 -23 7.5 -34.5t27.5 -14.5l20 -3l6 -13q-2 -8 -4.5 -20.5t-5.5 -23.5q-4 -13 -7 -28q-7 -8 -18 -13q-9 -5 -22 -9t-31 -4q-38 0 -62.5 18.5t-35.5 52.5h-5q-21 -28 -54 -49.5t-86 -21.5
q-71 0 -110.5 44.5t-39.5 132.5v355h135zM291 644q0 26 17 43t43 17q25 0 42 -17t17 -43t-17 -43.5t-42 -17.5q-26 0 -43 17.5t-17 43.5zM103 644q0 26 17 43t43 17q25 0 42 -17t17 -43t-17 -43.5t-42 -17.5q-26 0 -43 17.5t-17 43.5z" />
    <glyph glyph-name="yacute" unicode="&#xfd;" horiz-adv-x="498" 
d="M304 -69q-12 -37 -24 -64t-28.5 -44.5t-38.5 -26t-53 -8.5q-21 0 -38.5 3t-30 6.5t-19 6l-6.5 2.5l12 89l15 13q6 -2 11 -3q9 -3 21 -3q23 0 32 11.5t18 40.5l15 46l-180 520h138l88 -268q2 -5 3.5 -16t3.5 -23q2 -14 4 -30h10q2 15 4 28q2 11 4 22.5t4 18.5l82 268h137z
M410 677l-115 -97h-76l-9 17l83 123h117v-43z" />
    <glyph glyph-name="thorn" unicode="&#xfe;" horiz-adv-x="502" 
d="M340 269q0 85 -19.5 118t-60.5 33q-14 0 -27.5 -3t-24 -6.5t-18 -7t-10.5 -4.5v-279q6 -3 26 -13.5t46 -10.5q43 0 65.5 35.5t22.5 119.5v18zM45 -200v900h135v-214q21 17 52 31.5t73 14.5q39 0 70.5 -14t53.5 -45t34 -80.5t12 -119.5v-33q0 -66 -13 -113.5t-35.5 -78.5
t-54 -45.5t-67.5 -14.5q-38 0 -68 11.5t-55 33.5h-2v-233h-135z" />
    <glyph glyph-name="ydieresis" unicode="&#xff;" horiz-adv-x="498" 
d="M304 -69q-12 -37 -24 -64t-28.5 -44.5t-38.5 -26t-53 -8.5q-21 0 -38.5 3t-30 6.5t-19 6l-6.5 2.5l12 89l15 13q6 -2 11 -3q9 -3 21 -3q23 0 32 11.5t18 40.5l15 46l-180 520h138l88 -268q2 -5 3.5 -16t3.5 -23q2 -14 4 -30h10q2 15 4 28q2 11 4 22.5t4 18.5l82 268h137z
M286 645q0 26 17 43t43 17q25 0 42 -17t17 -43t-17 -43.5t-42 -17.5q-26 0 -43 17.5t-17 43.5zM98 645q0 26 17 43t43 17q25 0 42 -17t17 -43t-17 -43.5t-42 -17.5q-26 0 -43 17.5t-17 43.5z" />
    <glyph glyph-name="Amacron" unicode="&#x100;" horiz-adv-x="522" 
d="M201 240h119l-35 160q-3 11 -6.5 32.5t-6.5 41.5q-4 24 -8 51h-7q-3 -25 -7 -48q-3 -20 -6.5 -41t-6.5 -36zM344 128h-167l-28 -128h-138l154 660h192l154 -660h-138zM140 823h245v-83h-245v83z" />
    <glyph glyph-name="amacron" unicode="&#x101;" horiz-adv-x="505" 
d="M220 96q23 0 43 13.5t34 30.5v110l-77 -16q-29 -6 -44.5 -21t-15.5 -44v-12q0 -26 16 -43.5t44 -17.5zM405 -12q-36 0 -61.5 18.5t-36.5 52.5h-4q-21 -30 -54.5 -50.5t-80.5 -20.5q-33 0 -59.5 12t-45 32.5t-28.5 48t-10 58.5v16q0 71 36 108.5t105 46.5l131 17v5
q0 44 -23.5 66t-92.5 22q-20 0 -39 -2t-35 -4q-18 -3 -35 -6l-12 9q0 3 2 16.5t5 30t6.5 32.5t5.5 24q17 3 36 6q17 2 39 4t48 2q63 0 107 -12.5t71.5 -37t39.5 -62t12 -88.5v-181q0 -24 8 -35t27 -14l20 -3l6 -13q-2 -9 -4.5 -21.5t-5.5 -23.5q-4 -13 -7 -27q-7 -8 -18 -13
q-9 -5 -22.5 -9t-30.5 -4zM105 684h245v-83h-245v83z" />
    <glyph glyph-name="Abreve" unicode="&#x102;" horiz-adv-x="522" 
d="M201 240h119l-35 160q-3 11 -6.5 32.5t-6.5 41.5q-4 24 -8 51h-7q-3 -25 -7 -48q-3 -20 -6.5 -41t-6.5 -36zM344 128h-167l-28 -128h-138l154 660h192l154 -660h-138zM408 859q0 -30 -7 -56t-24 -45.5t-45 -31t-70 -11.5t-69.5 11.5t-44.5 31t-24 45.5t-7 56h83
q0 -21 14 -41.5t48 -20.5t49 20.5t15 41.5h82z" />
    <glyph glyph-name="abreve" unicode="&#x103;" horiz-adv-x="505" 
d="M220 96q23 0 43 13.5t34 30.5v110l-77 -16q-29 -6 -44.5 -21t-15.5 -44v-12q0 -26 16 -43.5t44 -17.5zM405 -12q-36 0 -61.5 18.5t-36.5 52.5h-4q-21 -30 -54.5 -50.5t-80.5 -20.5q-33 0 -59.5 12t-45 32.5t-28.5 48t-10 58.5v16q0 71 36 108.5t105 46.5l131 17v5
q0 44 -23.5 66t-92.5 22q-20 0 -39 -2t-35 -4q-18 -3 -35 -6l-12 9q0 3 2 16.5t5 30t6.5 32.5t5.5 24q17 3 36 6q17 2 39 4t48 2q63 0 107 -12.5t71.5 -37t39.5 -62t12 -88.5v-181q0 -24 8 -35t27 -14l20 -3l6 -13q-2 -9 -4.5 -21.5t-5.5 -23.5q-4 -13 -7 -27q-7 -8 -18 -13
q-9 -5 -22.5 -9t-30.5 -4zM374 719q0 -30 -7 -56t-24 -45.5t-45 -31t-70 -11.5t-69.5 11.5t-44.5 31t-24 45.5t-7 56h83q0 -21 14 -41.5t48 -20.5t49 20.5t15 41.5h82z" />
    <glyph glyph-name="Aogonek" unicode="&#x104;" horiz-adv-x="522" 
d="M201 240h119l-35 160q-3 11 -6.5 32.5t-6.5 41.5q-4 24 -8 51h-7q-3 -25 -7 -48q-3 -20 -6.5 -41t-6.5 -36zM344 128h-167l-28 -128h-138l154 660h192l154 -660q-19 -25 -38.5 -54t-19.5 -55q0 -36 43 -36q6 0 12 0.5t11 1.5l12 2l8 -61q-8 -3 -19 -5q-20 -5 -49 -5
q-57 0 -82.5 22t-25.5 59q0 30 19.5 63.5t55.5 65.5v2h-65z" />
    <glyph glyph-name="aogonek" unicode="&#x105;" horiz-adv-x="505" 
d="M220 96q23 0 43 13.5t34 30.5v110l-77 -16q-29 -6 -44.5 -21t-15.5 -44v-12q0 -26 16 -43.5t44 -17.5zM484 -202q-8 -3 -19 -5q-20 -5 -49 -5q-57 0 -82.5 22t-25.5 59q0 29 17.5 60t49.5 62v1q-51 12 -68 67h-4q-21 -30 -54.5 -50.5t-80.5 -20.5q-33 0 -59.5 12
t-45 32.5t-28.5 48t-10 58.5v16q0 71 36 108.5t105 46.5l131 17v5q0 44 -23.5 66t-92.5 22q-20 0 -39 -2t-35 -4q-18 -3 -35 -6l-12 9q0 3 2 16.5t5 30t6.5 32.5t5.5 24q17 3 36 6q17 2 39 4t48 2q63 0 107 -12.5t71.5 -37t39.5 -62t12 -88.5v-181q0 -24 8 -35t27 -14l20 -3
l6 -13q-2 -9 -4.5 -21.5t-5.5 -23.5q-4 -13 -7 -27q-2 -2 -6 -5q-6 -5 -15 -9q-19 -25 -38 -54t-19 -55q0 -36 43 -36q6 0 12 0.5t11 1.5l12 2z" />
    <glyph glyph-name="Cacute" unicode="&#x106;" horiz-adv-x="433" 
d="M411 8q-16 -6 -34 -10q-16 -4 -37.5 -7t-47.5 -3q-54 0 -100 14.5t-79 50t-51.5 95.5t-18.5 152v35q0 91 18.5 155t52 104.5t81 59t106.5 18.5q20 0 38 -2.5t31 -4.5q15 -4 28 -7q-2 -17 -4 -34.5t-4 -31.5q-3 -17 -4 -33l-11 -6q-9 1 -20 3q-9 2 -20.5 3t-23.5 1
q-69 0 -100.5 -53t-31.5 -174v-21q0 -58 8.5 -98t25 -65.5t41.5 -37t58 -11.5q13 0 26.5 2t24.5 4q13 3 25 6l11 -6q1 -15 4 -31q2 -14 4 -31.5t4 -35.5zM412 817l-115 -97h-76l-9 17l83 123h117v-43z" />
    <glyph glyph-name="cacute" unicode="&#x107;" horiz-adv-x="378" 
d="M361 11q-15 -7 -33 -12q-16 -5 -37 -8t-46 -3q-53 0 -94 13t-68.5 43t-41.5 79t-14 122v15q0 75 14.5 127t42 84.5t68.5 46.5t95 14q23 0 41.5 -2.5t32.5 -5.5q16 -4 30 -7q-2 -16 -4 -33.5t-3.5 -32t-3 -24t-1.5 -10.5l-10 -6q-12 2 -23 4t-23 3.5t-24 1.5
q-22 0 -40 -6.5t-30.5 -24.5t-19.5 -49.5t-7 -81.5v-12q0 -47 8 -75.5t21.5 -44t31.5 -21t38 -5.5q12 0 25.5 2t24.5 5t18.5 5.5t8.5 2.5l10 -6q0 -1 2 -10t4 -23.5t4 -31.5t3 -33zM370 677l-115 -97h-76l-9 17l83 123h117v-43z" />
    <glyph glyph-name="Ccircumflex" unicode="&#x108;" horiz-adv-x="433" 
d="M411 8q-16 -6 -34 -10q-16 -4 -37.5 -7t-47.5 -3q-54 0 -100 14.5t-79 50t-51.5 95.5t-18.5 152v35q0 91 18.5 155t52 104.5t81 59t106.5 18.5q20 0 38 -2.5t31 -4.5q15 -4 28 -7q-2 -17 -4 -34.5t-4 -31.5q-3 -17 -4 -33l-11 -6q-9 1 -20 3q-9 2 -20.5 3t-23.5 1
q-69 0 -100.5 -53t-31.5 -174v-21q0 -58 8.5 -98t25 -65.5t41.5 -37t58 -11.5q13 0 26.5 2t24.5 4q13 3 25 6l11 -6q1 -15 4 -31q2 -14 4 -31.5t4 -35.5zM417 745l-9 -25h-69l-74 62l-75 -62h-69l-9 25l97 115h112z" />
    <glyph glyph-name="ccircumflex" unicode="&#x109;" horiz-adv-x="378" 
d="M361 11q-15 -7 -33 -12q-16 -5 -37 -8t-46 -3q-53 0 -94 13t-68.5 43t-41.5 79t-14 122v15q0 75 14.5 127t42 84.5t68.5 46.5t95 14q23 0 41.5 -2.5t32.5 -5.5q16 -4 30 -7q-2 -16 -4 -33.5t-3.5 -32t-3 -24t-1.5 -10.5l-10 -6q-12 2 -23 4t-23 3.5t-24 1.5
q-22 0 -40 -6.5t-30.5 -24.5t-19.5 -49.5t-7 -81.5v-12q0 -47 8 -75.5t21.5 -44t31.5 -21t38 -5.5q12 0 25.5 2t24.5 5t18.5 5.5t8.5 2.5l10 -6q0 -1 2 -10t4 -23.5t4 -31.5t3 -33zM379 605l-9 -25h-69l-74 62l-75 -62h-69l-9 25l97 115h112z" />
    <glyph glyph-name="Cdotaccent" unicode="&#x10a;" horiz-adv-x="433" 
d="M411 8q-16 -6 -34 -10q-16 -4 -37.5 -7t-47.5 -3q-54 0 -100 14.5t-79 50t-51.5 95.5t-18.5 152v35q0 91 18.5 155t52 104.5t81 59t106.5 18.5q20 0 38 -2.5t31 -4.5q15 -4 28 -7q-2 -17 -4 -34.5t-4 -31.5q-3 -17 -4 -33l-11 -6q-9 1 -20 3q-9 2 -20.5 3t-23.5 1
q-69 0 -100.5 -53t-31.5 -174v-21q0 -58 8.5 -98t25 -65.5t41.5 -37t58 -11.5q13 0 26.5 2t24.5 4q13 3 25 6l11 -6q1 -15 4 -31q2 -14 4 -31.5t4 -35.5zM205 788q0 28 18.5 46t45.5 18t45 -18t18 -46t-18 -46.5t-45 -18.5t-45.5 18.5t-18.5 46.5z" />
    <glyph glyph-name="cdotaccent" unicode="&#x10b;" horiz-adv-x="378" 
d="M361 11q-15 -7 -33 -12q-16 -5 -37 -8t-46 -3q-53 0 -94 13t-68.5 43t-41.5 79t-14 122v15q0 75 14.5 127t42 84.5t68.5 46.5t95 14q23 0 41.5 -2.5t32.5 -5.5q16 -4 30 -7q-2 -16 -4 -33.5t-3.5 -32t-3 -24t-1.5 -10.5l-10 -6q-12 2 -23 4t-23 3.5t-24 1.5
q-22 0 -40 -6.5t-30.5 -24.5t-19.5 -49.5t-7 -81.5v-12q0 -47 8 -75.5t21.5 -44t31.5 -21t38 -5.5q12 0 25.5 2t24.5 5t18.5 5.5t8.5 2.5l10 -6q0 -1 2 -10t4 -23.5t4 -31.5t3 -33zM158 651q0 28 18.5 46t45.5 18t45 -18t18 -46t-18 -46.5t-45 -18.5t-45.5 18.5t-18.5 46.5z
" />
    <glyph glyph-name="Ccaron" unicode="&#x10c;" horiz-adv-x="433" 
d="M411 8q-16 -6 -34 -10q-16 -4 -37.5 -7t-47.5 -3q-54 0 -100 14.5t-79 50t-51.5 95.5t-18.5 152v35q0 91 18.5 155t52 104.5t81 59t106.5 18.5q20 0 38 -2.5t31 -4.5q15 -4 28 -7q-2 -17 -4 -34.5t-4 -31.5q-3 -17 -4 -33l-11 -6q-9 1 -20 3q-9 2 -20.5 3t-23.5 1
q-69 0 -100.5 -53t-31.5 -174v-21q0 -58 8.5 -98t25 -65.5t41.5 -37t58 -11.5q13 0 26.5 2t24.5 4q13 3 25 6l11 -6q1 -15 4 -31q2 -14 4 -31.5t4 -35.5zM115 835l9 25h69l74 -62l75 62h69l9 -25l-97 -115h-112z" />
    <glyph glyph-name="ccaron" unicode="&#x10d;" horiz-adv-x="378" 
d="M361 11q-15 -7 -33 -12q-16 -5 -37 -8t-46 -3q-53 0 -94 13t-68.5 43t-41.5 79t-14 122v15q0 75 14.5 127t42 84.5t68.5 46.5t95 14q23 0 41.5 -2.5t32.5 -5.5q16 -4 30 -7q-2 -16 -4 -33.5t-3.5 -32t-3 -24t-1.5 -10.5l-10 -6q-12 2 -23 4t-23 3.5t-24 1.5
q-22 0 -40 -6.5t-30.5 -24.5t-19.5 -49.5t-7 -81.5v-12q0 -47 8 -75.5t21.5 -44t31.5 -21t38 -5.5q12 0 25.5 2t24.5 5t18.5 5.5t8.5 2.5l10 -6q0 -1 2 -10t4 -23.5t4 -31.5t3 -33zM71 695l9 25h69l74 -62l75 62h69l9 -25l-97 -115h-112z" />
    <glyph glyph-name="Dcaron" unicode="&#x10e;" horiz-adv-x="530" 
d="M192 548v-436h66q21 0 38.5 6t30 21t19 40.5t6.5 65.5v151q0 46 -7.5 76t-22.5 46.5t-37 23t-50 6.5h-43zM57 660h202q52 0 94 -15t72 -46.5t46 -80.5t16 -118v-172q0 -113 -51 -170.5t-147 -57.5h-232v660zM74 835l9 25h69l74 -62l75 62h69l9 -25l-97 -115h-112z" />
    <glyph glyph-name="dcaron" unicode="&#x10f;" horiz-adv-x="653" 
d="M497 636q0 35 22 57.5t56 22.5t56 -22t22 -59q0 -28 -12 -56t-32 -59l-58 -87h-46v18l35 107v4q-20 9 -31.5 28.5t-11.5 45.5zM162 250q0 -82 20.5 -118t59.5 -36q23 0 44 11.5t36 25.5v268q-7 3 -26 10.5t-45 7.5q-21 0 -37.5 -7.5t-28 -25t-17.5 -46t-6 -71.5v-19z
M457 151q0 -22 7.5 -34t27.5 -15l20 -3l6 -13l-17 -72q-6 -8 -17 -13q-9 -5 -22.5 -9t-30.5 -4q-35 0 -60 19t-36 46h-7q-20 -26 -51.5 -45.5t-76.5 -19.5q-38 0 -69.5 14t-54.5 44t-36 77.5t-13 113.5v36q0 69 13.5 118.5t39 80.5t61.5 45.5t81 14.5q30 0 55.5 -8.5
t44.5 -17.5v194h135v-549z" />
    <glyph glyph-name="Dcroat" unicode="&#x110;" horiz-adv-x="530" 
d="M192 548v-178h68v-98h-68v-160h66q21 0 38.5 6t30 21t19 40.5t6.5 65.5v151q0 46 -7.5 76t-22.5 46.5t-37 23t-50 6.5h-43zM0 370h57v290h202q52 0 94 -15t72 -46.5t46 -80.5t16 -118v-172q0 -113 -51 -170.5t-147 -57.5h-232v272h-57v98z" />
    <glyph glyph-name="dcroat" unicode="&#x111;" horiz-adv-x="530" 
d="M162 250q0 -82 20.5 -118t59.5 -36q23 0 44 11.5t36 25.5v262q-7 3 -26 10.5t-45 7.5q-21 0 -37.5 -6.5t-28 -23t-17.5 -44t-6 -70.5v-19zM457 645h55v-74h-55v-420q0 -22 7.5 -34t27.5 -15l20 -3l6 -13l-17 -72q-6 -8 -17 -13q-9 -5 -22.5 -9t-30.5 -4q-35 0 -60 19
t-36 46h-7q-20 -26 -51.5 -45.5t-76.5 -19.5q-38 0 -69.5 14t-54.5 44t-36 77.5t-13 113.5v36q0 69 13.5 117.5t39 78.5t61.5 43.5t81 13.5q28 0 55.5 -8t44.5 -18v71h-155v74h155v55h135v-55z" />
    <glyph glyph-name="Emacron" unicode="&#x112;" horiz-adv-x="406" 
d="M57 660h320v-112h-185v-158h155v-98h-155v-180h195v-112h-330v660zM97 821h245v-83h-245v83z" />
    <glyph glyph-name="emacron" unicode="&#x113;" horiz-adv-x="455" 
d="M162 302h138v36q0 55 -15 75.5t-46 20.5h-2q-14 0 -27 -5t-24 -16.5t-17.5 -29.5t-6.5 -45v-36zM162 220q0 -30 4.5 -52.5t17.5 -37.5t34.5 -22.5t56.5 -7.5q18 0 37.5 3.5t35.5 7.5t27 7.5t12 3.5l13 -6q0 -1 1 -9.5t2.5 -21.5t3.5 -29t3 -32q0 -1 -12 -6.5t-33.5 -12
t-51.5 -12t-67 -5.5q-108 0 -163.5 62t-55.5 195v35q0 60 15 106.5t42.5 79t65.5 49.5t84 17h11q88 0 135.5 -52t47.5 -157v-17q0 -13 -1.5 -28t-3.5 -28l-4 -30h-257zM115 682h245v-83h-245v83z" />
    <glyph glyph-name="Ebreve" unicode="&#x114;" horiz-adv-x="406" 
d="M57 660h320v-112h-185v-158h155v-98h-155v-180h195v-112h-330v660zM368 856q0 -30 -7 -56t-24 -45.5t-45 -31t-70 -11.5t-69.5 11.5t-44.5 31t-24 45.5t-7 56h83q0 -21 14 -41.5t48 -20.5t49 20.5t15 41.5h82z" />
    <glyph glyph-name="ebreve" unicode="&#x115;" horiz-adv-x="455" 
d="M162 302h138v36q0 55 -15 75.5t-46 20.5h-2q-14 0 -27 -5t-24 -16.5t-17.5 -29.5t-6.5 -45v-36zM162 220q0 -30 4.5 -52.5t17.5 -37.5t34.5 -22.5t56.5 -7.5q18 0 37.5 3.5t35.5 7.5t27 7.5t12 3.5l13 -6q0 -1 1 -9.5t2.5 -21.5t3.5 -29t3 -32q0 -1 -12 -6.5t-33.5 -12
t-51.5 -12t-67 -5.5q-108 0 -163.5 62t-55.5 195v35q0 60 15 106.5t42.5 79t65.5 49.5t84 17h11q88 0 135.5 -52t47.5 -157v-17q0 -13 -1.5 -28t-3.5 -28l-4 -30h-257zM381 718q0 -30 -7 -56t-24 -45.5t-45 -31t-70 -11.5t-69.5 11.5t-44.5 31t-24 45.5t-7 56h83
q0 -21 14 -41.5t48 -20.5t49 20.5t15 41.5h82z" />
    <glyph glyph-name="Edotaccent" unicode="&#x116;" horiz-adv-x="406" 
d="M57 660h320v-112h-185v-158h155v-98h-155v-180h195v-112h-330v660zM159 787q0 28 18.5 46t45.5 18t45 -18t18 -46t-18 -46.5t-45 -18.5t-45.5 18.5t-18.5 46.5z" />
    <glyph glyph-name="edotaccent" unicode="&#x117;" horiz-adv-x="455" 
d="M162 302h138v36q0 55 -15 75.5t-46 20.5h-2q-14 0 -27 -5t-24 -16.5t-17.5 -29.5t-6.5 -45v-36zM162 220q0 -30 4.5 -52.5t17.5 -37.5t34.5 -22.5t56.5 -7.5q18 0 37.5 3.5t35.5 7.5t27 7.5t12 3.5l13 -6q0 -1 1 -9.5t2.5 -21.5t3.5 -29t3 -32q0 -1 -12 -6.5t-33.5 -12
t-51.5 -12t-67 -5.5q-108 0 -163.5 62t-55.5 195v35q0 60 15 106.5t42.5 79t65.5 49.5t84 17h11q88 0 135.5 -52t47.5 -157v-17q0 -13 -1.5 -28t-3.5 -28l-4 -30h-257zM175 648q0 28 18.5 46t45.5 18t45 -18t18 -46t-18 -46.5t-45 -18.5t-45.5 18.5t-18.5 46.5z" />
    <glyph glyph-name="Eogonek" unicode="&#x118;" horiz-adv-x="406" 
d="M57 660h320v-112h-185v-158h155v-98h-155v-180h195v-112q-19 -25 -38.5 -54t-19.5 -55q0 -36 43 -36q6 0 12 0.5t11 1.5l12 2l8 -61q-8 -3 -19 -5q-20 -5 -49 -5q-57 0 -82.5 22t-25.5 59q0 31 19.5 64t56.5 65v2h-258v660z" />
    <glyph glyph-name="eogonek" unicode="&#x119;" horiz-adv-x="455" 
d="M162 302h138v36q0 55 -15 75.5t-46 20.5h-2q-14 0 -27 -5t-24 -16.5t-17.5 -29.5t-6.5 -45v-36zM162 220q0 -30 4.5 -52.5t17.5 -37.5t34.5 -22.5t56.5 -7.5q18 0 37.5 3.5t35.5 7.5t27 7.5t12 3.5l13 -6q0 -1 1 -9.5t2.5 -21.5t3.5 -29t3 -32q-1 -1 -19 -9t-48 -15
q-19 -25 -38 -54t-19 -55q0 -36 43 -36q6 0 12 0.5t11 1.5l12 2l8 -61q-8 -3 -19 -5q-20 -5 -49 -5q-57 0 -82.5 22t-25.5 59q0 57 62 117v2h-12q-108 0 -163.5 62t-55.5 195v35q0 60 15 106.5t42.5 79t65.5 49.5t84 17h11q88 0 135.5 -52t47.5 -157v-17q0 -13 -1.5 -28
t-3.5 -28l-4 -30h-257z" />
    <glyph glyph-name="Ecaron" unicode="&#x11a;" horiz-adv-x="406" 
d="M57 660h320v-112h-185v-158h155v-98h-155v-180h195v-112h-330v660zM70 835l9 25h69l74 -62l75 62h69l9 -25l-97 -115h-112z" />
    <glyph glyph-name="ecaron" unicode="&#x11b;" horiz-adv-x="455" 
d="M162 302h138v36q0 55 -15 75.5t-46 20.5h-2q-14 0 -27 -5t-24 -16.5t-17.5 -29.5t-6.5 -45v-36zM162 220q0 -30 4.5 -52.5t17.5 -37.5t34.5 -22.5t56.5 -7.5q18 0 37.5 3.5t35.5 7.5t27 7.5t12 3.5l13 -6q0 -1 1 -9.5t2.5 -21.5t3.5 -29t3 -32q0 -1 -12 -6.5t-33.5 -12
t-51.5 -12t-67 -5.5q-108 0 -163.5 62t-55.5 195v35q0 60 15 106.5t42.5 79t65.5 49.5t84 17h11q88 0 135.5 -52t47.5 -157v-17q0 -13 -1.5 -28t-3.5 -28l-4 -30h-257zM86 695l9 25h69l74 -62l75 62h69l9 -25l-97 -115h-112z" />
    <glyph glyph-name="Gcircumflex" unicode="&#x11c;" horiz-adv-x="504" 
d="M277 100q20 0 34.5 7t21.5 12v241h135v-360h-73l-18 39q-26 -22 -56 -36.5t-71 -14.5q-45 0 -83 15t-65.5 52t-43 97.5t-15.5 152.5v35q0 96 17.5 159.5t51 102t83.5 54.5t115 16q24 0 49 -3t45 -7q24 -4 45 -9q-2 -17 -3.5 -34.5t-3.5 -32.5q-2 -18 -4 -34l-11 -5
q-19 3 -37 6q-16 2 -34 4.5t-32 2.5q-39 0 -66.5 -10.5t-44.5 -36.5t-24.5 -70t-7.5 -110v-31q0 -63 6.5 -102.5t18.5 -61.5t30 -30t41 -8zM436 745l-9 -25h-69l-74 62l-75 -62h-69l-9 25l97 115h112z" />
    <glyph glyph-name="gcircumflex" unicode="&#x11d;" horiz-adv-x="517" 
d="M500 520v-105l-13 -9q-4 0 -8 1q-4 0 -8.5 0.5t-9.5 0.5q-8 0 -18.5 -2t-15.5 -6q8 -26 8 -49q0 -48 -15.5 -81.5t-42.5 -55t-63 -31.5t-77 -10h-15q-29 0 -54 6q-5 -10 -8.5 -20.5t-3.5 -21.5q0 -17 11.5 -26t28.5 -9h113q43 0 75.5 -11.5t54 -31t32.5 -45.5t11 -54v-19
q0 -29 -11.5 -56t-37 -49t-65.5 -35t-98 -13h-50q-98 0 -148 34t-50 86v8q0 29 16.5 55t45.5 41v3q-41 27 -41 81q0 28 14.5 56t37.5 55q-32 21 -51 56.5t-19 87.5q0 39 13.5 72t39 57.5t62 38t82.5 13.5h15q49 0 86.5 -15.5t63.5 -41.5q16 19 38.5 32t54.5 13h20zM300 361
q0 77 -70 77t-70 -77v-14q0 -80 70 -80t70 73v21zM196 -6h-23q-8 -14 -12 -28.5t-4 -31.5q0 -34 25 -48t73 -14q49 0 70.5 16t21.5 45v6q0 25 -16.5 40t-50.5 15h-84zM384 605l-9 -25h-69l-74 62l-75 -62h-69l-9 25l97 115h112z" />
    <glyph glyph-name="Gbreve" unicode="&#x11e;" horiz-adv-x="504" 
d="M277 100q20 0 34.5 7t21.5 12v241h135v-360h-73l-18 39q-26 -22 -56 -36.5t-71 -14.5q-45 0 -83 15t-65.5 52t-43 97.5t-15.5 152.5v35q0 96 17.5 159.5t51 102t83.5 54.5t115 16q24 0 49 -3t45 -7q24 -4 45 -9q-2 -17 -3.5 -34.5t-3.5 -32.5q-2 -18 -4 -34l-11 -5
q-19 3 -37 6q-16 2 -34 4.5t-32 2.5q-39 0 -66.5 -10.5t-44.5 -36.5t-24.5 -70t-7.5 -110v-31q0 -63 6.5 -102.5t18.5 -61.5t30 -30t41 -8zM422 859q0 -30 -7 -56t-24 -45.5t-45 -31t-70 -11.5t-69.5 11.5t-44.5 31t-24 45.5t-7 56h83q0 -21 14 -41.5t48 -20.5t49 20.5
t15 41.5h82z" />
    <glyph glyph-name="gbreve" unicode="&#x11f;" horiz-adv-x="517" 
d="M500 520v-105l-13 -9q-4 0 -8 1q-4 0 -8.5 0.5t-9.5 0.5q-8 0 -18.5 -2t-15.5 -6q8 -26 8 -49q0 -48 -15.5 -81.5t-42.5 -55t-63 -31.5t-77 -10h-15q-29 0 -54 6q-5 -10 -8.5 -20.5t-3.5 -21.5q0 -17 11.5 -26t28.5 -9h113q43 0 75.5 -11.5t54 -31t32.5 -45.5t11 -54v-19
q0 -29 -11.5 -56t-37 -49t-65.5 -35t-98 -13h-50q-98 0 -148 34t-50 86v8q0 29 16.5 55t45.5 41v3q-41 27 -41 81q0 28 14.5 56t37.5 55q-32 21 -51 56.5t-19 87.5q0 39 13.5 72t39 57.5t62 38t82.5 13.5h15q49 0 86.5 -15.5t63.5 -41.5q16 19 38.5 32t54.5 13h20zM300 361
q0 77 -70 77t-70 -77v-14q0 -80 70 -80t70 73v21zM196 -6h-23q-8 -14 -12 -28.5t-4 -31.5q0 -34 25 -48t73 -14q49 0 70.5 16t21.5 45v6q0 25 -16.5 40t-50.5 15h-84zM375 719q0 -30 -7 -56t-24 -45.5t-45 -31t-70 -11.5t-69.5 11.5t-44.5 31t-24 45.5t-7 56h83
q0 -21 14 -41.5t48 -20.5t49 20.5t15 41.5h82z" />
    <glyph glyph-name="Gdotaccent" unicode="&#x120;" horiz-adv-x="504" 
d="M277 100q20 0 34.5 7t21.5 12v241h135v-360h-73l-18 39q-26 -22 -56 -36.5t-71 -14.5q-45 0 -83 15t-65.5 52t-43 97.5t-15.5 152.5v35q0 96 17.5 159.5t51 102t83.5 54.5t115 16q24 0 49 -3t45 -7q24 -4 45 -9q-2 -17 -3.5 -34.5t-3.5 -32.5q-2 -18 -4 -34l-11 -5
q-19 3 -37 6q-16 2 -34 4.5t-32 2.5q-39 0 -66.5 -10.5t-44.5 -36.5t-24.5 -70t-7.5 -110v-31q0 -63 6.5 -102.5t18.5 -61.5t30 -30t41 -8zM227 787q0 28 18.5 46t45.5 18t45 -18t18 -46t-18 -46.5t-45 -18.5t-45.5 18.5t-18.5 46.5z" />
    <glyph glyph-name="gdotaccent" unicode="&#x121;" horiz-adv-x="517" 
d="M500 520v-105l-13 -9q-4 0 -8 1q-4 0 -8.5 0.5t-9.5 0.5q-8 0 -18.5 -2t-15.5 -6q8 -26 8 -49q0 -48 -15.5 -81.5t-42.5 -55t-63 -31.5t-77 -10h-15q-29 0 -54 6q-5 -10 -8.5 -20.5t-3.5 -21.5q0 -17 11.5 -26t28.5 -9h113q43 0 75.5 -11.5t54 -31t32.5 -45.5t11 -54v-19
q0 -29 -11.5 -56t-37 -49t-65.5 -35t-98 -13h-50q-98 0 -148 34t-50 86v8q0 29 16.5 55t45.5 41v3q-41 27 -41 81q0 28 14.5 56t37.5 55q-32 21 -51 56.5t-19 87.5q0 39 13.5 72t39 57.5t62 38t82.5 13.5h15q49 0 86.5 -15.5t63.5 -41.5q16 19 38.5 32t54.5 13h20zM300 361
q0 77 -70 77t-70 -77v-14q0 -80 70 -80t70 73v21zM196 -6h-23q-8 -14 -12 -28.5t-4 -31.5q0 -34 25 -48t73 -14q49 0 70.5 16t21.5 45v6q0 25 -16.5 40t-50.5 15h-84zM167 649q0 28 18.5 46t45.5 18t45 -18t18 -46t-18 -46.5t-45 -18.5t-45.5 18.5t-18.5 46.5z" />
    <glyph glyph-name="uni0122" unicode="&#x122;" horiz-adv-x="504" 
d="M207 -130q0 35 22 57.5t56 22.5t56 -22t22 -59q0 -28 -12 -56t-32 -59l-58 -87h-46v18l35 107v4q-20 9 -31.5 28.5t-11.5 45.5zM277 100q20 0 34.5 7t21.5 12v241h135v-360h-73l-18 39q-26 -22 -56 -36.5t-71 -14.5q-45 0 -83 15t-65.5 52t-43 97.5t-15.5 152.5v35
q0 96 17.5 159.5t51 102t83.5 54.5t115 16q24 0 49 -3t45 -7q24 -4 45 -9q-2 -17 -3.5 -34.5t-3.5 -32.5q-2 -18 -4 -34l-11 -5q-19 3 -37 6q-16 2 -34 4.5t-32 2.5q-39 0 -66.5 -10.5t-44.5 -36.5t-24.5 -70t-7.5 -110v-31q0 -63 6.5 -102.5t18.5 -61.5t30 -30t41 -8z" />
    <glyph glyph-name="uni0123" unicode="&#x123;" horiz-adv-x="517" 
d="M500 520v-105l-13 -9q-4 0 -8 1q-4 0 -8.5 0.5t-9.5 0.5q-8 0 -18.5 -2t-15.5 -6q8 -26 8 -49q0 -48 -15.5 -81.5t-42.5 -55t-63 -31.5t-77 -10h-15q-29 0 -54 6q-5 -10 -8.5 -20.5t-3.5 -21.5q0 -17 11.5 -26t28.5 -9h113q43 0 75.5 -11.5t54 -31t32.5 -45.5t11 -54v-19
q0 -29 -11.5 -56t-37 -49t-65.5 -35t-98 -13h-50q-98 0 -148 34t-50 86v8q0 29 16.5 55t45.5 41v3q-41 27 -41 81q0 28 14.5 56t37.5 55q-32 21 -51 56.5t-19 87.5q0 39 13.5 72t39 57.5t62 38t82.5 13.5h15q49 0 86.5 -15.5t63.5 -41.5q16 19 38.5 32t54.5 13h20zM300 361
q0 77 -70 77t-70 -77v-14q0 -80 70 -80t70 73v21zM196 -6h-23q-8 -14 -12 -28.5t-4 -31.5q0 -34 25 -48t73 -14q49 0 70.5 16t21.5 45v6q0 25 -16.5 40t-50.5 15h-84zM318 675q0 -35 -22 -57.5t-56 -22.5t-56 22t-22 59q0 28 12 56t32 59l58 87h46v-18l-35 -107v-4
q20 -9 31.5 -28.5t11.5 -45.5z" />
    <glyph glyph-name="Imacron" unicode="&#x12a;" horiz-adv-x="249" 
d="M57 660h135v-660h-135v660zM3 821h245v-83h-245v83z" />
    <glyph glyph-name="imacron" unicode="&#x12b;" horiz-adv-x="225" 
d="M45 0v520h135v-520h-135zM-9 682h245v-83h-245v83z" />
    <glyph glyph-name="Iogonek" unicode="&#x12e;" horiz-adv-x="249" 
d="M57 660h135v-660q-19 -25 -38.5 -54t-19.5 -55q0 -36 43 -36q6 0 12 0.5t11 1.5l12 2l8 -61q-8 -3 -19 -5q-20 -5 -49 -5q-57 0 -82.5 22t-25.5 59q0 30 19.5 63t55.5 65v3h-62v660z" />
    <glyph glyph-name="iogonek" unicode="&#x12f;" horiz-adv-x="225" 
d="M33 644q0 35 22 52.5t57 17.5t57 -17.5t22 -52.5t-22 -52.5t-57 -17.5t-57 17.5t-22 52.5zM180 0q-19 -25 -38.5 -54t-19.5 -55q0 -36 43 -36q6 0 12 0.5t11 1.5l12 2l8 -61q-8 -3 -19 -5q-20 -5 -49 -5q-57 0 -82.5 22t-25.5 59q0 30 19.5 63.5t55.5 65.5v2h-62v520h135
v-520z" />
    <glyph glyph-name="Idotaccent" unicode="&#x130;" horiz-adv-x="249" 
d="M57 660h135v-660h-135v660zM61 789q0 28 18.5 46t45.5 18t45 -18t18 -46t-18 -46.5t-45 -18.5t-45.5 18.5t-18.5 46.5z" />
    <glyph glyph-name="dotlessi" unicode="&#x131;" horiz-adv-x="225" 
d="M45 0v520h135v-520h-135z" />
    <glyph glyph-name="Jcircumflex" unicode="&#x134;" horiz-adv-x="338" 
d="M15 -1q1 16 2 33t3 31q2 17 3 32l12 9q7 -1 15 -2q7 -1 15 -1.5t16 -0.5q38 0 51.5 26.5t13.5 94.5v439h135v-460q0 -60 -10.5 -101t-31.5 -65.5t-53 -35t-75 -10.5q-18 0 -35 1.5t-31 3.5q-16 3 -30 6zM368 745l-9 -25h-69l-74 62l-75 -62h-69l-9 25l97 115h112z" />
    <glyph glyph-name="jcircumflex" unicode="&#x135;" horiz-adv-x="232" 
d="M272 605l-9 -25h-69l-74 62l-75 -62h-69l-9 25l97 115h112zM187 -53q0 -80 -30 -119.5t-102 -39.5q-20 0 -37.5 2.5t-31.5 6.5q-17 4 -31 9l10 86l14 13q5 -2 10 -3t9.5 -1.5t9.5 -0.5q21 0 32.5 12.5t11.5 46.5v561h135v-573z" />
    <glyph glyph-name="uni0136" unicode="&#x136;" horiz-adv-x="514" 
d="M179 -130q0 35 22 57.5t56 22.5t56 -22t22 -59q0 -28 -12 -56t-32 -59l-58 -87h-46v18l35 107v4q-20 9 -31.5 28.5t-11.5 45.5zM354 0l-135 275h-27v-275h-135v660h135v-273h28l134 273h144l-158 -325l164 -335h-150z" />
    <glyph glyph-name="uni0137" unicode="&#x137;" horiz-adv-x="481" 
d="M45 0v700h135v-390h23l117 210h143l-139 -252l149 -268h-153l-118 212h-22v-212h-135zM168 -129q0 35 22 57.5t56 22.5t56 -22t22 -59q0 -28 -12 -56t-32 -59l-58 -87h-46v18l35 107v4q-20 9 -31.5 28.5t-11.5 45.5z" />
    <glyph glyph-name="Lacute" unicode="&#x139;" horiz-adv-x="383" 
d="M57 660h135v-548h175v-112h-310v660zM280 817l-115 -97h-76l-9 17l83 123h117v-43z" />
    <glyph glyph-name="lacute" unicode="&#x13a;" horiz-adv-x="280" 
d="M45 700h135v-544q0 -32 12 -44t33 -12h10.5t9.5 1t9 2l14 -13v-85q-12 -5 -26 -9q-12 -3 -28.5 -5.5t-36.5 -2.5q-72 0 -102 39t-30 115v558zM249 837l-115 -97h-76l-9 17l83 123h117v-43z" />
    <glyph glyph-name="uni013B" unicode="&#x13b;" horiz-adv-x="383" 
d="M140 -117q0 32 20 52t50 20q31 0 50.5 -20t19.5 -53q0 -25 -10.5 -50.5t-28.5 -52.5l-53 -79h-41v16l32 97v3q-19 8 -29 26t-10 41zM57 660h135v-548h175v-112h-310v660z" />
    <glyph glyph-name="uni013C" unicode="&#x13c;" horiz-adv-x="280" 
d="M45 700h135v-544q0 -32 12 -44t33 -12h10.5t9.5 1t9 2l14 -13v-85q-12 -5 -26 -9q-12 -3 -28.5 -5.5t-36.5 -2.5q-72 0 -102 39t-30 115v558zM84 -129q0 35 22 57.5t56 22.5t56 -22t22 -59q0 -28 -12 -56t-32 -59l-58 -87h-46v18l35 107v4q-20 9 -31.5 28.5t-11.5 45.5z
" />
    <glyph glyph-name="Lcaron" unicode="&#x13d;" horiz-adv-x="383" 
d="M251 622q0 29 17.5 46.5t44.5 17.5t44.5 -18t17.5 -47q0 -22 -9 -44.5t-26 -47.5l-46 -69h-37v14l28 86v3q-17 7 -25.5 23t-8.5 36zM57 660h135v-548h175v-112h-310v660z" />
    <glyph glyph-name="lcaron" unicode="&#x13e;" horiz-adv-x="391" 
d="M230 641q0 35 22 57.5t56 22.5t56 -22t22 -59q0 -28 -12 -56t-32 -59l-58 -87h-46v18l35 107v4q-20 9 -31.5 28.5t-11.5 45.5zM45 700h135v-544q0 -32 12 -44t33 -12h10.5t9.5 1t9 2l14 -13v-85q-12 -5 -26 -9q-12 -3 -28.5 -5.5t-36.5 -2.5q-72 0 -102 39t-30 115v558z
" />
    <glyph glyph-name="Ldot" unicode="&#x13f;" horiz-adv-x="383" 
d="M244 339q0 32 20.5 52t50.5 20t50 -20t20 -52t-20 -52t-50 -20t-50.5 20t-20.5 52zM57 660h135v-548h175v-112h-310v660z" />
    <glyph glyph-name="ldot" unicode="&#x140;" horiz-adv-x="384" 
d="M223 356q0 36 22.5 58t55.5 22q34 0 56 -22t22 -58q0 -35 -22 -57.5t-56 -22.5q-33 0 -55.5 22.5t-22.5 57.5zM45 700h135v-544q0 -32 12 -44t33 -12h10.5t9.5 1t9 2l14 -13v-85q-12 -5 -26 -9q-12 -3 -28.5 -5.5t-36.5 -2.5q-72 0 -102 39t-30 115v558z" />
    <glyph glyph-name="Lslash" unicode="&#x141;" horiz-adv-x="383" 
d="M2 273l55 32v355h135v-277l98 57v-95l-98 -57v-176h175v-112h-310v210l-55 -32v95z" />
    <glyph glyph-name="lslash" unicode="&#x142;" horiz-adv-x="296" 
d="M5 279l50 29v392h135v-314l71 42v-91l-71 -42v-139q0 -32 12 -44t33 -12h10.5t9.5 1t9 2l14 -13v-85q-12 -5 -26 -9q-12 -3 -28.5 -5.5t-36.5 -2.5q-72 0 -102 39t-30 115v75l-50 -29v91z" />
    <glyph glyph-name="Nacute" unicode="&#x143;" horiz-adv-x="591" 
d="M212 367q-4 8 -7.5 18.5l-6.5 19.5q-4 11 -6 21l-6 -1l6 -83v-342h-135v660h150l172 -367q3 -8 6.5 -17.5t6.5 -19.5q4 -11 7 -23l5 1l-5 84v342h135v-660h-150zM461 817l-115 -97h-76l-9 17l83 123h117v-43z" />
    <glyph glyph-name="nacute" unicode="&#x144;" horiz-adv-x="508" 
d="M45 0v520h80l39 -60q13 13 29 25.5t36 23t43.5 17t52.5 6.5q66 0 103 -41t37 -109v-382h-135v360q0 31 -15.5 45.5t-43.5 14.5q-26 0 -50 -9.5t-41 -22.5v-388h-135zM389 677l-115 -97h-76l-9 17l83 123h117v-43z" />
    <glyph glyph-name="uni0145" unicode="&#x145;" horiz-adv-x="591" 
d="M215 -117q0 32 20 52t50 20q31 0 50.5 -20t19.5 -53q0 -25 -10.5 -50.5t-28.5 -52.5l-53 -79h-41v16l32 97v3q-19 8 -29 26t-10 41zM212 367q-4 8 -7.5 18.5l-6.5 19.5q-4 11 -6 21l-6 -1l6 -83v-342h-135v660h150l172 -367q3 -8 6.5 -17.5t6.5 -19.5q4 -11 7 -23l5 1
l-5 84v342h135v-660h-150z" />
    <glyph glyph-name="uni0146" unicode="&#x146;" horiz-adv-x="508" 
d="M45 0v520h80l39 -60q13 13 29 25.5t36 23t43.5 17t52.5 6.5q66 0 103 -41t37 -109v-382h-135v360q0 31 -15.5 45.5t-43.5 14.5q-26 0 -50 -9.5t-41 -22.5v-388h-135zM176 -129q0 35 22 57.5t56 22.5t56 -22t22 -59q0 -28 -12 -56t-32 -59l-58 -87h-46v18l35 107v4
q-20 9 -31.5 28.5t-11.5 45.5z" />
    <glyph glyph-name="Ncaron" unicode="&#x147;" horiz-adv-x="591" 
d="M212 367q-4 8 -7.5 18.5l-6.5 19.5q-4 11 -6 21l-6 -1l6 -83v-342h-135v660h150l172 -367q3 -8 6.5 -17.5t6.5 -19.5q4 -11 7 -23l5 1l-5 84v342h135v-660h-150zM152 835l9 25h69l74 -62l75 62h69l9 -25l-97 -115h-112z" />
    <glyph glyph-name="ncaron" unicode="&#x148;" horiz-adv-x="508" 
d="M45 0v520h80l39 -60q13 13 29 25.5t36 23t43.5 17t52.5 6.5q66 0 103 -41t37 -109v-382h-135v360q0 31 -15.5 45.5t-43.5 14.5q-26 0 -50 -9.5t-41 -22.5v-388h-135zM106 695l9 25h69l74 -62l75 62h69l9 -25l-97 -115h-112z" />
    <glyph glyph-name="Omacron" unicode="&#x14c;" horiz-adv-x="526" 
d="M346 368q0 104 -19 148t-64 44t-64 -44t-19 -148v-77q0 -104 19 -147.5t64 -43.5t64 43.5t19 147.5v77zM269 672q115 0 164.5 -81t49.5 -241v-41q0 -160 -49.5 -240.5t-164.5 -80.5h-12q-115 0 -164.5 80t-49.5 241v41q0 161 49.5 241.5t164.5 80.5h12zM139 821h245v-83
h-245v83z" />
    <glyph glyph-name="omacron" unicode="&#x14d;" horiz-adv-x="474" 
d="M312 323q0 51 -19.5 76t-55.5 25t-55.5 -25t-19.5 -76v-125q0 -51 19.5 -76.5t55.5 -25.5t55.5 25.5t19.5 76.5v125zM244 532q94 0 148.5 -65.5t54.5 -185.5v-42q0 -120 -54.5 -185.5t-148.5 -65.5h-14q-94 0 -148.5 65.5t-54.5 185.5v42q0 120 54.5 185.5t148.5 65.5h14
zM114 682h245v-83h-245v83z" />
    <glyph glyph-name="Obreve" unicode="&#x14e;" horiz-adv-x="526" 
d="M346 368q0 104 -19 148t-64 44t-64 -44t-19 -148v-77q0 -104 19 -147.5t64 -43.5t64 43.5t19 147.5v77zM269 672q115 0 164.5 -81t49.5 -241v-41q0 -160 -49.5 -240.5t-164.5 -80.5h-12q-115 0 -164.5 80t-49.5 241v41q0 161 49.5 241.5t164.5 80.5h12zM408 856
q0 -30 -7 -56t-24 -45.5t-45 -31t-70 -11.5t-69.5 11.5t-44.5 31t-24 45.5t-7 56h83q0 -21 14 -41.5t48 -20.5t49 20.5t15 41.5h82z" />
    <glyph glyph-name="obreve" unicode="&#x14f;" horiz-adv-x="474" 
d="M312 323q0 51 -19.5 76t-55.5 25t-55.5 -25t-19.5 -76v-125q0 -51 19.5 -76.5t55.5 -25.5t55.5 25.5t19.5 76.5v125zM244 532q94 0 148.5 -65.5t54.5 -185.5v-42q0 -120 -54.5 -185.5t-148.5 -65.5h-14q-94 0 -148.5 65.5t-54.5 185.5v42q0 120 54.5 185.5t148.5 65.5h14
zM382 719q0 -30 -7 -56t-24 -45.5t-45 -31t-70 -11.5t-69.5 11.5t-44.5 31t-24 45.5t-7 56h83q0 -21 14 -41.5t48 -20.5t49 20.5t15 41.5h82z" />
    <glyph glyph-name="Ohungarumlaut" unicode="&#x150;" horiz-adv-x="526" 
d="M346 368q0 104 -19 148t-64 44t-64 -44t-19 -148v-77q0 -104 19 -147.5t64 -43.5t64 43.5t19 147.5v77zM269 672q115 0 164.5 -81t49.5 -241v-41q0 -160 -49.5 -240.5t-164.5 -80.5h-12q-115 0 -164.5 80t-49.5 241v41q0 161 49.5 241.5t164.5 80.5h12zM305 816l-105 -97
h-46l-9 17l65 123h95v-43zM469 816l-105 -97h-46l-9 17l65 123h95v-43z" />
    <glyph glyph-name="ohungarumlaut" unicode="&#x151;" horiz-adv-x="474" 
d="M312 323q0 51 -19.5 76t-55.5 25t-55.5 -25t-19.5 -76v-125q0 -51 19.5 -76.5t55.5 -25.5t55.5 25.5t19.5 76.5v125zM244 532q94 0 148.5 -65.5t54.5 -185.5v-42q0 -120 -54.5 -185.5t-148.5 -65.5h-14q-94 0 -148.5 65.5t-54.5 185.5v42q0 120 54.5 185.5t148.5 65.5h14
zM281 677l-105 -97h-46l-9 17l65 123h95v-43zM445 677l-105 -97h-46l-9 17l65 123h95v-43z" />
    <glyph glyph-name="OE" unicode="&#x152;" horiz-adv-x="683" 
d="M346 368q0 104 -19 148t-64 44t-64 -44t-19 -148v-77q0 -104 19 -147.5t64 -43.5t64 43.5t19 147.5v77zM269 672q43 0 78 -12h307v-112h-197l-2 -2q12 -32 18.5 -70.5t8.5 -85.5h142v-98h-141q-2 -110 -28 -179l2 -1h207v-112h-317q-35 -12 -78 -12h-12q-115 0 -164.5 80
t-49.5 241v41q0 161 49.5 241.5t164.5 80.5h12z" />
    <glyph glyph-name="oe" unicode="&#x153;" horiz-adv-x="740" 
d="M447 302h138v36q0 55 -15 75.5t-46 20.5h-2q-14 0 -27 -5t-24 -16.5t-17.5 -29.5t-6.5 -45v-36zM312 323q0 51 -19.5 76t-55.5 25t-55.5 -25t-19.5 -76v-125q0 -51 19.5 -76.5t55.5 -25.5t55.5 25.5t19.5 76.5v125zM447 220q0 -30 4.5 -52.5t17.5 -37.5t34.5 -22.5
t56.5 -7.5q18 0 37.5 3.5t35.5 7.5t27 7.5t12 3.5l13 -6q0 -1 1 -9.5t2.5 -21.5t3.5 -29t3 -32q0 -1 -12 -6.5t-33.5 -12t-51.5 -12t-67 -5.5q-101 0 -151 54h-3q-50 -54 -133 -54h-14q-94 0 -148.5 65.5t-54.5 185.5v42q0 120 54.5 185.5t148.5 65.5h14q86 0 135 -57h3
q52 57 137 57h11q88 0 135.5 -52t47.5 -157v-17q0 -13 -1.5 -28t-3.5 -28l-4 -30h-257z" />
    <glyph glyph-name="Racute" unicode="&#x154;" horiz-adv-x="517" 
d="M355 0l-87 233q-5 14 -13 20.5t-22 6.5h-41v-260h-135v660h201q58 0 99.5 -14t68 -39.5t39 -62.5t12.5 -83v-16q0 -61 -25 -102t-73 -61v-3q12 -8 20 -21.5t15 -32.5l84 -225h-143zM192 548v-190h56q49 0 71.5 19t22.5 64v10q0 54 -23.5 75.5t-81.5 21.5h-45zM377 817
l-115 -97h-76l-9 17l83 123h117v-43z" />
    <glyph glyph-name="racute" unicode="&#x155;" horiz-adv-x="328" 
d="M45 0v520h80l36 -59h1q9 14 20 27t26 22.5t35 15.5t46 6q5 0 9.5 -0.5t7.5 -0.5q4 -1 7 -1l-9 -120l-17 -9q-4 0 -9 1t-10.5 1.5t-11.5 0.5q-29 0 -47 -10t-29 -25v-369h-135zM314 677l-115 -97h-76l-9 17l83 123h117v-43z" />
    <glyph glyph-name="uni0156" unicode="&#x156;" horiz-adv-x="517" 
d="M188 -117q0 32 20 52t50 20q31 0 50.5 -20t19.5 -53q0 -25 -10.5 -50.5t-28.5 -52.5l-53 -79h-41v16l32 97v3q-19 8 -29 26t-10 41zM355 0l-87 233q-5 14 -13 20.5t-22 6.5h-41v-260h-135v660h201q58 0 99.5 -14t68 -39.5t39 -62.5t12.5 -83v-16q0 -61 -25 -102t-73 -61
v-3q12 -8 20 -21.5t15 -32.5l84 -225h-143zM192 548v-190h56q49 0 71.5 19t22.5 64v10q0 54 -23.5 75.5t-81.5 21.5h-45z" />
    <glyph glyph-name="uni0157" unicode="&#x157;" horiz-adv-x="328" 
d="M45 0v520h80l36 -59h1q9 14 20 27t26 22.5t35 15.5t46 6q5 0 9.5 -0.5t7.5 -0.5q4 -1 7 -1l-9 -120l-17 -9q-4 0 -9 1t-10.5 1.5t-11.5 0.5q-29 0 -47 -10t-29 -25v-369h-135zM42 -129q0 35 22 57.5t56 22.5t56 -22t22 -59q0 -28 -12 -56t-32 -59l-58 -87h-46v18l35 107
v4q-20 9 -31.5 28.5t-11.5 45.5z" />
    <glyph glyph-name="Rcaron" unicode="&#x158;" horiz-adv-x="517" 
d="M355 0l-87 233q-5 14 -13 20.5t-22 6.5h-41v-260h-135v660h201q58 0 99.5 -14t68 -39.5t39 -62.5t12.5 -83v-16q0 -61 -25 -102t-73 -61v-3q12 -8 20 -21.5t15 -32.5l84 -225h-143zM192 548v-190h56q49 0 71.5 19t22.5 64v10q0 54 -23.5 75.5t-81.5 21.5h-45zM90 835
l9 25h69l74 -62l75 62h69l9 -25l-97 -115h-112z" />
    <glyph glyph-name="rcaron" unicode="&#x159;" horiz-adv-x="328" 
d="M45 0v520h80l36 -59h1q9 14 20 27t26 22.5t35 15.5t46 6q5 0 9.5 -0.5t7.5 -0.5q4 -1 7 -1l-9 -120l-17 -9q-4 0 -9 1t-10.5 1.5t-11.5 0.5q-29 0 -47 -10t-29 -25v-369h-135zM15 695l9 25h69l74 -62l75 62h69l9 -25l-97 -115h-112z" />
    <glyph glyph-name="Sacute" unicode="&#x15a;" horiz-adv-x="466" 
d="M57 4q-2 17 -3 35.5t-1 34.5v35l14 7q18 -4 39 -8q18 -3 40.5 -5.5t46.5 -2.5q58 0 81 24.5t23 66.5q0 27 -14 45t-49 31l-78 29q-26 10 -48.5 24.5t-39 35.5t-25.5 49t-9 65q0 97 54 149.5t174 52.5q23 0 45.5 -2t40 -4t28.5 -4.5l11 -2.5q-1 -17 -2 -35t-3 -33
q-2 -18 -4 -34l-13 -8l-30 5q-14 2 -31.5 4t-34.5 2q-57 0 -78.5 -23t-21.5 -60q0 -29 13 -45.5t39 -26.5l75 -28q69 -26 102.5 -68.5t33.5 -110.5q0 -49 -12 -88t-39 -66t-70.5 -41.5t-106.5 -14.5q-27 0 -53 2.5t-46.5 5.5t-33.5 5.5t-14 2.5zM387 817l-115 -97h-76l-9 17
l83 123h117v-43z" />
    <glyph glyph-name="sacute" unicode="&#x15b;" horiz-adv-x="433" 
d="M53 1q-3 15 -5 33t-4 34q-2 18 -2 37l13 8q19 -4 41 -7q18 -2 41 -4t46 -2q54 0 73.5 14.5t19.5 42.5q0 17 -11 30t-43 18l-71 13q-57 11 -90.5 43t-34.5 94q-1 41 11 74t38 56t67.5 35t100.5 12q21 0 42 -2t38 -4t28 -4.5l11 -2.5q-2 -19 -3 -37t-3 -32q-2 -17 -4 -33
l-13 -7q-16 2 -33 5q-14 2 -31 3.5t-32 1.5q-51 0 -68 -15t-17 -37q0 -35 42 -44l66 -13q76 -15 109 -52t33 -97q0 -84 -48.5 -129t-165.5 -45q-33 0 -59 2t-44 4q-21 3 -38 7zM351 677l-115 -97h-76l-9 17l83 123h117v-43z" />
    <glyph glyph-name="Scircumflex" unicode="&#x15c;" horiz-adv-x="466" 
d="M57 4q-2 17 -3 35.5t-1 34.5v35l14 7q18 -4 39 -8q18 -3 40.5 -5.5t46.5 -2.5q58 0 81 24.5t23 66.5q0 27 -14 45t-49 31l-78 29q-26 10 -48.5 24.5t-39 35.5t-25.5 49t-9 65q0 97 54 149.5t174 52.5q23 0 45.5 -2t40 -4t28.5 -4.5l11 -2.5q-1 -17 -2 -35t-3 -33
q-2 -18 -4 -34l-13 -8l-30 5q-14 2 -31.5 4t-34.5 2q-57 0 -78.5 -23t-21.5 -60q0 -29 13 -45.5t39 -26.5l75 -28q69 -26 102.5 -68.5t33.5 -110.5q0 -49 -12 -88t-39 -66t-70.5 -41.5t-106.5 -14.5q-27 0 -53 2.5t-46.5 5.5t-33.5 5.5t-14 2.5zM392 745l-9 -25h-69l-74 62
l-75 -62h-69l-9 25l97 115h112z" />
    <glyph glyph-name="scircumflex" unicode="&#x15d;" horiz-adv-x="433" 
d="M53 1q-3 15 -5 33t-4 34q-2 18 -2 37l13 8q19 -4 41 -7q18 -2 41 -4t46 -2q54 0 73.5 14.5t19.5 42.5q0 17 -11 30t-43 18l-71 13q-57 11 -90.5 43t-34.5 94q-1 41 11 74t38 56t67.5 35t100.5 12q21 0 42 -2t38 -4t28 -4.5l11 -2.5q-2 -19 -3 -37t-3 -32q-2 -17 -4 -33
l-13 -7q-16 2 -33 5q-14 2 -31 3.5t-32 1.5q-51 0 -68 -15t-17 -37q0 -35 42 -44l66 -13q76 -15 109 -52t33 -97q0 -84 -48.5 -129t-165.5 -45q-33 0 -59 2t-44 4q-21 3 -38 7zM357 605l-9 -25h-69l-74 62l-75 -62h-69l-9 25l97 115h112z" />
    <glyph glyph-name="Scedilla" unicode="&#x15e;" horiz-adv-x="466" 
d="M158 -147q8 -2 18 -3q8 -1 17.5 -1.5t18.5 -0.5q26 0 36 7.5t10 19.5q0 21 -28 21h-55l13 92q-25 1 -48.5 3.5t-41.5 5t-29 5t-12 2.5q-2 17 -3 35.5t-1 34.5v35l14 7q18 -4 39 -8q18 -3 40.5 -5.5t46.5 -2.5q58 0 81 24.5t23 66.5q0 27 -14 45t-49 31l-78 29
q-26 10 -48.5 24.5t-39 35.5t-25.5 49t-9 65q0 97 54 149.5t174 52.5q23 0 45.5 -2t40 -4t28.5 -4.5l11 -2.5q-1 -17 -2 -35t-3 -33q-2 -18 -4 -34l-13 -8l-30 5q-14 2 -31.5 4t-34.5 2q-57 0 -78.5 -23t-21.5 -60q0 -29 13 -45.5t39 -26.5l75 -28q69 -26 102.5 -68.5
t33.5 -110.5q0 -87 -40 -141.5t-136 -65.5l-1 -43h16q77 0 77 -73q0 -41 -25.5 -64t-85.5 -23q-17 0 -32.5 1t-27.5 3q-14 2 -26 5z" />
    <glyph glyph-name="scedilla" unicode="&#x15f;" horiz-adv-x="433" 
d="M147 -147q8 -2 18 -3q8 -1 17.5 -1.5t18.5 -0.5q26 0 36 7.5t10 19.5q0 21 -28 21h-55l13 92q-29 1 -52 3t-39 4q-18 3 -33 6q-3 15 -5 33t-4 34q-2 18 -2 37l13 8q19 -4 41 -7q18 -2 41 -4t46 -2q54 0 73.5 14.5t19.5 42.5q0 17 -11 30t-43 18l-71 13q-57 11 -90.5 43
t-34.5 94q-1 41 11 74t38 56t67.5 35t100.5 12q21 0 42 -2t38 -4t28 -4.5l11 -2.5q-2 -19 -3 -37t-3 -32q-2 -17 -4 -33l-13 -7q-16 2 -33 5q-14 2 -31 3.5t-32 1.5q-51 0 -68 -15t-17 -37q0 -35 42 -44l66 -13q76 -15 109 -52t33 -97q0 -75 -37 -118t-126 -53l-1 -43h16
q77 0 77 -73q0 -41 -25.5 -64t-85.5 -23q-17 0 -32.5 1t-27.5 3q-14 2 -26 5z" />
    <glyph glyph-name="Scaron" unicode="&#x160;" horiz-adv-x="466" 
d="M57 4q-2 17 -3 35.5t-1 34.5v35l14 7q18 -4 39 -8q18 -3 40.5 -5.5t46.5 -2.5q58 0 81 24.5t23 66.5q0 27 -14 45t-49 31l-78 29q-26 10 -48.5 24.5t-39 35.5t-25.5 49t-9 65q0 97 54 149.5t174 52.5q23 0 45.5 -2t40 -4t28.5 -4.5l11 -2.5q-1 -17 -2 -35t-3 -33
q-2 -18 -4 -34l-13 -8l-30 5q-14 2 -31.5 4t-34.5 2q-57 0 -78.5 -23t-21.5 -60q0 -29 13 -45.5t39 -26.5l75 -28q69 -26 102.5 -68.5t33.5 -110.5q0 -49 -12 -88t-39 -66t-70.5 -41.5t-106.5 -14.5q-27 0 -53 2.5t-46.5 5.5t-33.5 5.5t-14 2.5zM78 835l9 25h69l74 -62
l75 62h69l9 -25l-97 -115h-112z" />
    <glyph glyph-name="scaron" unicode="&#x161;" horiz-adv-x="433" 
d="M53 1q-3 15 -5 33t-4 34q-2 18 -2 37l13 8q19 -4 41 -7q18 -2 41 -4t46 -2q54 0 73.5 14.5t19.5 42.5q0 17 -11 30t-43 18l-71 13q-57 11 -90.5 43t-34.5 94q-1 41 11 74t38 56t67.5 35t100.5 12q21 0 42 -2t38 -4t28 -4.5l11 -2.5q-2 -19 -3 -37t-3 -32q-2 -17 -4 -33
l-13 -7q-16 2 -33 5q-14 2 -31 3.5t-32 1.5q-51 0 -68 -15t-17 -37q0 -35 42 -44l66 -13q76 -15 109 -52t33 -97q0 -84 -48.5 -129t-165.5 -45q-33 0 -59 2t-44 4q-21 3 -38 7zM55 695l9 25h69l74 -62l75 62h69l9 -25l-97 -115h-112z" />
    <glyph glyph-name="uni0162" unicode="&#x162;" horiz-adv-x="395" 
d="M12 660h371v-112h-118v-548h-135v548h-118v112zM125 -117q0 32 20 52t50 20q31 0 50.5 -20t19.5 -53q0 -25 -10.5 -50.5t-28.5 -52.5l-53 -79h-41v16l32 97v3q-19 8 -29 26t-10 41z" />
    <glyph glyph-name="uni0162" unicode="&#x21a;" horiz-adv-x="395" 
d="M12 660h371v-112h-118v-548h-135v548h-118v112zM125 -117q0 32 20 52t50 20q31 0 50.5 -20t19.5 -53q0 -25 -10.5 -50.5t-28.5 -52.5l-53 -79h-41v16l32 97v3q-19 8 -29 26t-10 41z" />
    <glyph glyph-name="uni0163" unicode="&#x163;" horiz-adv-x="346" 
d="M12 520h64l37 120h98v-120h118v-112h-118v-237q0 -38 12.5 -54.5t43.5 -16.5q11 0 20.5 0.5t16.5 1.5q8 1 14 3l11 -5v-97q-12 -4 -26 -8q-12 -3 -29 -5t-37 -2q-48 0 -79 12.5t-49 35.5t-25.5 57t-7.5 76v239h-64v112zM131 -129q0 35 22 57.5t56 22.5t56 -22t22 -59
q0 -28 -12 -56t-32 -59l-58 -87h-46v18l35 107v4q-20 9 -31.5 28.5t-11.5 45.5z" />
    <glyph glyph-name="uni0163" unicode="&#x21b;" horiz-adv-x="346" 
d="M12 520h64l37 120h98v-120h118v-112h-118v-237q0 -38 12.5 -54.5t43.5 -16.5q11 0 20.5 0.5t16.5 1.5q8 1 14 3l11 -5v-97q-12 -4 -26 -8q-12 -3 -29 -5t-37 -2q-48 0 -79 12.5t-49 35.5t-25.5 57t-7.5 76v239h-64v112zM131 -129q0 35 22 57.5t56 22.5t56 -22t22 -59
q0 -28 -12 -56t-32 -59l-58 -87h-46v18l35 107v4q-20 9 -31.5 28.5t-11.5 45.5z" />
    <glyph glyph-name="Tcaron" unicode="&#x164;" horiz-adv-x="395" 
d="M12 660h371v-112h-118v-548h-135v548h-118v112zM46 835l9 25h69l74 -62l75 62h69l9 -25l-97 -115h-112z" />
    <glyph glyph-name="tcaron" unicode="&#x165;" horiz-adv-x="389" 
d="M243 758q0 35 22 57.5t56 22.5t56 -22t22 -59q0 -28 -12 -56t-32 -59l-58 -87h-46v18l35 107v4q-20 9 -31.5 28.5t-11.5 45.5zM12 520h64l37 120h98v-120h118v-112h-118v-237q0 -38 12.5 -54.5t43.5 -16.5q11 0 20.5 0.5t16.5 1.5q8 1 14 3l11 -5v-97q-12 -4 -26 -8
q-12 -3 -29 -5t-37 -2q-48 0 -79 12.5t-49 35.5t-25.5 57t-7.5 76v239h-64v112z" />
    <glyph glyph-name="Utilde" unicode="&#x168;" horiz-adv-x="540" 
d="M485 660v-426q0 -65 -14 -111.5t-40.5 -76.5t-65 -44t-87.5 -14h-17q-49 0 -87 14t-64.5 44t-40.5 76.5t-14 111.5v426h135v-450q0 -60 21.5 -85t58.5 -25q36 0 58 25t22 85v450h135zM453 849q-17 -70 -45.5 -100t-70.5 -30q-21 0 -38.5 9t-32.5 20.5t-28.5 20.5t-27.5 9
t-30 -10t-30 -49l-61 19q16 71 47 100.5t74 29.5q21 0 39 -9t33.5 -20.5t29 -20.5t25.5 -9q6 0 12.5 2t13.5 8t14 17.5t15 31.5z" />
    <glyph glyph-name="utilde" unicode="&#x169;" horiz-adv-x="538" 
d="M180 520v-345q0 -36 16 -55.5t49 -19.5q27 0 49 13t36 29v378h135v-369q0 -23 7.5 -34.5t27.5 -14.5l20 -3l6 -13q-2 -8 -4.5 -20.5t-5.5 -23.5q-4 -13 -7 -28q-7 -8 -18 -13q-9 -5 -22 -9t-31 -4q-38 0 -62.5 18.5t-35.5 52.5h-5q-21 -28 -54 -49.5t-86 -21.5
q-71 0 -110.5 44.5t-39.5 132.5v355h135zM441 712q-17 -70 -45.5 -100t-70.5 -30q-21 0 -38.5 9t-32.5 20.5t-28.5 20.5t-27.5 9t-30 -10t-30 -49l-61 19q16 71 47 100.5t74 29.5q21 0 39 -9t33.5 -20.5t29 -20.5t25.5 -9q6 0 12.5 2t13.5 8t14 17.5t15 31.5z" />
    <glyph glyph-name="Umacron" unicode="&#x16a;" horiz-adv-x="540" 
d="M485 660v-426q0 -65 -14 -111.5t-40.5 -76.5t-65 -44t-87.5 -14h-17q-49 0 -87 14t-64.5 44t-40.5 76.5t-14 111.5v426h135v-450q0 -60 21.5 -85t58.5 -25q36 0 58 25t22 85v450h135zM147 825h245v-83h-245v83z" />
    <glyph glyph-name="umacron" unicode="&#x16b;" horiz-adv-x="538" 
d="M180 520v-345q0 -36 16 -55.5t49 -19.5q27 0 49 13t36 29v378h135v-369q0 -23 7.5 -34.5t27.5 -14.5l20 -3l6 -13q-2 -8 -4.5 -20.5t-5.5 -23.5q-4 -13 -7 -28q-7 -8 -18 -13q-9 -5 -22 -9t-31 -4q-38 0 -62.5 18.5t-35.5 52.5h-5q-21 -28 -54 -49.5t-86 -21.5
q-71 0 -110.5 44.5t-39.5 132.5v355h135zM134 683h245v-83h-245v83z" />
    <glyph glyph-name="Ubreve" unicode="&#x16c;" horiz-adv-x="540" 
d="M485 660v-426q0 -65 -14 -111.5t-40.5 -76.5t-65 -44t-87.5 -14h-17q-49 0 -87 14t-64.5 44t-40.5 76.5t-14 111.5v426h135v-450q0 -60 21.5 -85t58.5 -25q36 0 58 25t22 85v450h135zM412 856q0 -30 -7 -56t-24 -45.5t-45 -31t-70 -11.5t-69.5 11.5t-44.5 31t-24 45.5
t-7 56h83q0 -21 14 -41.5t48 -20.5t49 20.5t15 41.5h82z" />
    <glyph glyph-name="ubreve" unicode="&#x16d;" horiz-adv-x="538" 
d="M180 520v-345q0 -36 16 -55.5t49 -19.5q27 0 49 13t36 29v378h135v-369q0 -23 7.5 -34.5t27.5 -14.5l20 -3l6 -13q-2 -8 -4.5 -20.5t-5.5 -23.5q-4 -13 -7 -28q-7 -8 -18 -13q-9 -5 -22 -9t-31 -4q-38 0 -62.5 18.5t-35.5 52.5h-5q-21 -28 -54 -49.5t-86 -21.5
q-71 0 -110.5 44.5t-39.5 132.5v355h135zM402 719q0 -30 -7 -56t-24 -45.5t-45 -31t-70 -11.5t-69.5 11.5t-44.5 31t-24 45.5t-7 56h83q0 -21 14 -41.5t48 -20.5t49 20.5t15 41.5h82z" />
    <glyph glyph-name="Uring" unicode="&#x16e;" horiz-adv-x="540" 
d="M485 660v-426q0 -65 -14 -111.5t-40.5 -76.5t-65 -44t-87.5 -14h-17q-49 0 -87 14t-64.5 44t-40.5 76.5t-14 111.5v426h135v-450q0 -60 21.5 -85t58.5 -25q36 0 58 25t22 85v450h135zM225 807q0 -18 11.5 -29.5t31.5 -11.5q19 0 30.5 11.5t11.5 29.5t-11.5 29.5
t-30.5 11.5q-20 0 -31.5 -11.5t-11.5 -29.5zM150 807q0 44 31 73.5t87 29.5q55 0 86 -29.5t31 -73.5t-31 -73.5t-86 -29.5q-56 0 -87 29.5t-31 73.5z" />
    <glyph glyph-name="uring" unicode="&#x16f;" horiz-adv-x="538" 
d="M180 520v-345q0 -36 16 -55.5t49 -19.5q27 0 49 13t36 29v378h135v-369q0 -23 7.5 -34.5t27.5 -14.5l20 -3l6 -13q-2 -8 -4.5 -20.5t-5.5 -23.5q-4 -13 -7 -28q-7 -8 -18 -13q-9 -5 -22 -9t-31 -4q-38 0 -62.5 18.5t-35.5 52.5h-5q-21 -28 -54 -49.5t-86 -21.5
q-71 0 -110.5 44.5t-39.5 132.5v355h135zM213 667q0 -18 11.5 -29.5t31.5 -11.5q19 0 30.5 11.5t11.5 29.5t-11.5 29.5t-30.5 11.5q-20 0 -31.5 -11.5t-11.5 -29.5zM138 667q0 44 31 73.5t87 29.5q55 0 86 -29.5t31 -73.5t-31 -73.5t-86 -29.5q-56 0 -87 29.5t-31 73.5z" />
    <glyph glyph-name="Uhungarumlaut" unicode="&#x170;" horiz-adv-x="540" 
d="M485 660v-426q0 -65 -14 -111.5t-40.5 -76.5t-65 -44t-87.5 -14h-17q-49 0 -87 14t-64.5 44t-40.5 76.5t-14 111.5v426h135v-450q0 -60 21.5 -85t58.5 -25q36 0 58 25t22 85v450h135zM304 817l-105 -97h-46l-9 17l65 123h95v-43zM468 817l-105 -97h-46l-9 17l65 123h95
v-43z" />
    <glyph glyph-name="uhungarumlaut" unicode="&#x171;" horiz-adv-x="538" 
d="M180 520v-345q0 -36 16 -55.5t49 -19.5q27 0 49 13t36 29v378h135v-369q0 -23 7.5 -34.5t27.5 -14.5l20 -3l6 -13q-2 -8 -4.5 -20.5t-5.5 -23.5q-4 -13 -7 -28q-7 -8 -18 -13q-9 -5 -22 -9t-31 -4q-38 0 -62.5 18.5t-35.5 52.5h-5q-21 -28 -54 -49.5t-86 -21.5
q-71 0 -110.5 44.5t-39.5 132.5v355h135zM287 677l-105 -97h-46l-9 17l65 123h95v-43zM451 677l-105 -97h-46l-9 17l65 123h95v-43z" />
    <glyph glyph-name="Uogonek" unicode="&#x172;" horiz-adv-x="540" 
d="M387 -202q-8 -3 -19 -5q-20 -5 -49 -5q-57 0 -82.5 22t-25.5 59q0 28 16.5 58t46.5 59v2h-13q-49 0 -87 14t-64.5 44t-40.5 76.5t-14 111.5v426h135v-450q0 -60 21.5 -85t58.5 -25q36 0 58 25t22 85v450h135v-426q0 -101 -33 -157.5t-93 -76.5q-19 -25 -38.5 -54
t-19.5 -55q0 -36 43 -36q6 0 12 0.5t11 1.5l12 2z" />
    <glyph glyph-name="uogonek" unicode="&#x173;" horiz-adv-x="538" 
d="M180 520v-345q0 -36 16 -55.5t49 -19.5q27 0 49 13t36 29v378h135v-369q0 -23 7.5 -34.5t27.5 -14.5l20 -3l6 -13q-2 -8 -4.5 -20.5t-5.5 -23.5q-4 -13 -7 -28q-2 -2 -6 -5q-3 -2 -6.5 -5t-8.5 -5q-19 -25 -38 -53.5t-19 -54.5q0 -36 43 -36q6 0 12 0.5t11 1.5l12 2
l8 -61q-8 -3 -19 -5q-20 -5 -49 -5q-57 0 -82.5 22t-25.5 59q0 29 17 60t49 61v2q-50 12 -67 67h-5q-21 -28 -54 -49.5t-86 -21.5q-71 0 -110.5 44.5t-39.5 132.5v355h135z" />
    <glyph glyph-name="Wcircumflex" unicode="&#x174;" horiz-adv-x="706" 
d="M468 335q2 -8 4 -22.5t4 -28.5q3 -17 5 -36h13q2 21 4 40q2 17 4 34.5t4 29.5l53 308h136l-117 -660h-144l-64 265q-2 5 -3.5 19.5t-3.5 28.5q-2 17 -4 37h-12q-2 -20 -4 -37q-2 -14 -3.5 -28.5t-3.5 -19.5l-64 -265h-144l-117 660h136l53 -308q2 -12 4 -29.5t4 -34.5
q2 -19 4 -40h13q2 19 5 36q2 14 4 28.5t4 22.5l74 305h82zM507 745l-9 -25h-69l-74 62l-75 -62h-69l-9 25l97 115h112z" />
    <glyph glyph-name="wcircumflex" unicode="&#x175;" horiz-adv-x="712" 
d="M343 235l-53 -235h-172q-26 131 -54 260t-54 260h133l54 -270l14 -100h11l15 100l61 270h116l61 -270l15 -100h11l14 100l54 270h133q-26 -131 -54 -260t-54 -260h-172l-53 235l-8 59h-10zM510 605l-9 -25h-69l-74 62l-75 -62h-69l-9 25l97 115h112z" />
    <glyph glyph-name="Ycircumflex" unicode="&#x176;" horiz-adv-x="529" 
d="M157 660l78 -202q5 -13 9 -30t8 -33q4 -18 8 -39h9q4 21 8 39q4 16 8 33t9 30l78 202h146l-186 -458v-202h-135v202l-186 458h146zM420 745l-9 -25h-69l-74 62l-75 -62h-69l-9 25l97 115h112z" />
    <glyph glyph-name="ycircumflex" unicode="&#x177;" horiz-adv-x="498" 
d="M304 -69q-12 -37 -24 -64t-28.5 -44.5t-38.5 -26t-53 -8.5q-21 0 -38.5 3t-30 6.5t-19 6l-6.5 2.5l12 89l15 13q6 -2 11 -3q9 -3 21 -3q23 0 32 11.5t18 40.5l15 46l-180 520h138l88 -268q2 -5 3.5 -16t3.5 -23q2 -14 4 -30h10q2 15 4 28q2 11 4 22.5t4 18.5l82 268h137z
M405 605l-9 -25h-69l-74 62l-75 -62h-69l-9 25l97 115h112z" />
    <glyph glyph-name="Ydieresis" unicode="&#x178;" horiz-adv-x="529" 
d="M157 660l78 -202q5 -13 9 -30t8 -33q4 -18 8 -39h9q4 21 8 39q4 16 8 33t9 30l78 202h146l-186 -458v-202h-135v202l-186 458h146zM299 781q0 26 17 43t43 17q25 0 42 -17t17 -43t-17 -43.5t-42 -17.5q-26 0 -43 17.5t-17 43.5zM111 781q0 26 17 43t43 17q25 0 42 -17
t17 -43t-17 -43.5t-42 -17.5q-26 0 -43 17.5t-17 43.5z" />
    <glyph glyph-name="Zacute" unicode="&#x179;" horiz-adv-x="434" 
d="M49 660h353v-60l-194 -448q-3 -8 -7 -14t-7 -11l-8 -10v-5h216v-112h-370v59l196 448q2 6 6 13t8 12l8 12v4h-201v112zM376 817l-115 -97h-76l-9 17l83 123h117v-43z" />
    <glyph glyph-name="zacute" unicode="&#x17a;" horiz-adv-x="419" 
d="M396 460l-192 -322l-22 -26l2 -4l37 4h175v-112h-373v79l177 295l24 31l-2 5l-36 -2h-158v112h368v-60zM360 677l-115 -97h-76l-9 17l83 123h117v-43z" />
    <glyph glyph-name="Zdotaccent" unicode="&#x17b;" horiz-adv-x="434" 
d="M49 660h353v-60l-194 -448q-3 -8 -7 -14t-7 -11l-8 -10v-5h216v-112h-370v59l196 448q2 6 6 13t8 12l8 12v4h-201v112zM178 787q0 28 18.5 46t45.5 18t45 -18t18 -46t-18 -46.5t-45 -18.5t-45.5 18.5t-18.5 46.5z" />
    <glyph glyph-name="zdotaccent" unicode="&#x17c;" horiz-adv-x="419" 
d="M396 460l-192 -322l-22 -26l2 -4l37 4h175v-112h-373v79l177 295l24 31l-2 5l-36 -2h-158v112h368v-60zM156 648q0 28 18.5 46t45.5 18t45 -18t18 -46t-18 -46.5t-45 -18.5t-45.5 18.5t-18.5 46.5z" />
    <glyph glyph-name="Zcaron" unicode="&#x17d;" horiz-adv-x="434" 
d="M49 660h353v-60l-194 -448q-3 -8 -7 -14t-7 -11l-8 -10v-5h216v-112h-370v59l196 448q2 6 6 13t8 12l8 12v4h-201v112zM84 835l9 25h69l74 -62l75 62h69l9 -25l-97 -115h-112z" />
    <glyph glyph-name="zcaron" unicode="&#x17e;" horiz-adv-x="419" 
d="M396 460l-192 -322l-22 -26l2 -4l37 4h175v-112h-373v79l177 295l24 31l-2 5l-36 -2h-158v112h368v-60zM70 695l9 25h69l74 -62l75 62h69l9 -25l-97 -115h-112z" />
    <glyph glyph-name="florin" unicode="&#x192;" horiz-adv-x="369" 
d="M10 385h90l10 94q10 98 54.5 140.5t130.5 42.5q14 0 28.5 -1t25.5 -3q13 -2 24 -3q0 -17 -1 -34.5t-2 -33.5q-2 -18 -3 -36l-12 -6q-7 1 -13 2q-5 1 -12 1.5t-13 0.5q-35 0 -51 -14t-20 -52l-11 -98h95v-82h-104l-32 -312q-10 -98 -53.5 -139.5t-130.5 -41.5q-32 0 -54 3
q-13 2 -24 4q0 17 1 35t2 33q1 18 3 35l12 6q7 -1 13 -2q5 -1 11.5 -1.5t13.5 -0.5q35 0 50.5 14.5t20.5 52.5l33 314h-82v82z" />
    <glyph glyph-name="AEacute" unicode="&#x1fc;" horiz-adv-x="643" 
d="M207 240h87v308h-14q-4 -19 -8 -42q-4 -20 -10 -45t-13 -54zM179 127l-31 -127h-137l169 660h434v-112h-185v-158h155v-98h-155v-180h195v-112h-330v127h-115zM522 867l-115 -97h-76l-9 17l83 123h117v-43z" />
    <glyph glyph-name="aeacute" unicode="&#x1fd;" horiz-adv-x="725" 
d="M432 332v-27h138v33q0 55 -15 75.5t-46 20.5h-2q-14 0 -27 -5t-24 -16.5t-17.5 -29.5t-6.5 -45v-6zM220 96q31 0 53.5 17t33.5 33q-5 19 -7.5 40.5t-2.5 45.5l-73 -6q-30 -3 -47 -18.5t-17 -41.5v-9q0 -26 16 -43.5t44 -17.5zM432 223v-6q0 -29 5 -51t17.5 -36.5
t34.5 -22t56 -7.5q18 0 37.5 3.5t35.5 7.5t27 7.5t12 3.5l13 -6q0 -1 1 -9.5t2.5 -21.5t3.5 -29t3 -32q0 -1 -12 -6.5t-33.5 -12t-51.5 -12t-67 -5.5q-123 0 -177 79h-5q-11 -15 -25.5 -29t-33 -25.5t-43.5 -18t-57 -6.5q-33 0 -61 12t-47.5 32.5t-30.5 48t-11 58.5v16
q0 71 41.5 109.5t111.5 42.5l119 7v18q0 44 -23.5 66t-92.5 22q-20 0 -39 -2t-35 -4q-18 -3 -35 -6l-12 9q0 3 2 16.5t5 30t6.5 32.5t5.5 24q17 3 36 6q17 2 39 4t48 2q58 0 100 -13t70 -37h3q26 23 58.5 36.5t70.5 13.5h11q88 0 135.5 -52t47.5 -157v-17q0 -13 -1 -27.5
t-3 -26.5q-2 -15 -4 -29h-258zM530 677l-115 -97h-76l-9 17l83 123h117v-43z" />
    <glyph glyph-name="Oslashacute" unicode="&#x1fe;" horiz-adv-x="526" 
d="M346 368v15.5t-1 15.5h-3l-18 -42l-120 -225q19 -32 59 -32q45 0 64 43.5t19 147.5v77zM326 517q-19 43 -63 43q-45 0 -64 -44t-19 -148v-77v-25.5t1 -22.5h4l16 40zM269 672q74 0 121 -35l37 69l65 -35l-51 -94q22 -41 32 -97t10 -130v-41q0 -160 -49.5 -240.5
t-164.5 -80.5h-12q-68 0 -114 29l-34 -63l-65 35l45 84q-24 41 -35 99.5t-11 136.5v41q0 161 49.5 241.5t164.5 80.5h12zM417 817l-115 -97h-76l-9 17l83 123h117v-43z" />
    <glyph glyph-name="oslashacute" unicode="&#x1ff;" horiz-adv-x="474" 
d="M317 324h-4l-19 -42l-102 -175q18 -11 45 -11q36 0 58 25.5t22 76.5v126zM283 410q-19 14 -46 14q-36 0 -58 -25t-22 -76v-130h4l16 35zM244 532q54 0 97 -23l32 55l64 -38l-40 -68q24 -32 37 -76t13 -101v-42q0 -120 -54.5 -185.5t-148.5 -65.5h-14q-27 0 -50.5 5.5
t-44.5 16.5l-33 -57l-63 38l39 67q-51 66 -51 181v42q0 120 54.5 185.5t148.5 65.5h14zM377 677l-115 -97h-76l-9 17l83 123h117v-43z" />
    <glyph glyph-name="uni0200" unicode="&#x200;" horiz-adv-x="522" 
d="M219 859h95l65 -123l-9 -17h-46l-105 97v43zM52 859h95l65 -123l-9 -17h-46l-105 97v43zM201 240h119l-35 160q-3 11 -6.5 32.5t-6.5 41.5q-4 24 -8 51h-7q-3 -25 -7 -48q-3 -20 -6.5 -41t-6.5 -36zM344 128h-167l-28 -128h-138l154 660h192l154 -660h-138z" />
    <glyph glyph-name="uni0201" unicode="&#x201;" horiz-adv-x="505" 
d="M207 720h95l65 -123l-9 -17h-46l-105 97v43zM40 720h95l65 -123l-9 -17h-46l-105 97v43zM220 96q23 0 43 13.5t34 30.5v110l-77 -16q-29 -6 -44.5 -21t-15.5 -44v-12q0 -26 16 -43.5t44 -17.5zM405 -12q-36 0 -61.5 18.5t-36.5 52.5h-4q-21 -30 -54.5 -50.5t-80.5 -20.5
q-33 0 -59.5 12t-45 32.5t-28.5 48t-10 58.5v16q0 71 36 108.5t105 46.5l131 17v5q0 44 -23.5 66t-92.5 22q-20 0 -39 -2t-35 -4q-18 -3 -35 -6l-12 9q0 3 2 16.5t5 30t6.5 32.5t5.5 24q17 3 36 6q17 2 39 4t48 2q63 0 107 -12.5t71.5 -37t39.5 -62t12 -88.5v-181
q0 -24 8 -35t27 -14l20 -3l6 -13q-2 -9 -4.5 -21.5t-5.5 -23.5q-4 -13 -7 -27q-7 -8 -18 -13q-9 -5 -22.5 -9t-30.5 -4z" />
    <glyph glyph-name="uni0202" unicode="&#x202;" horiz-adv-x="522" 
d="M116 717q0 30 7 56t24 45.5t45.5 31t70.5 11.5q41 0 69 -11.5t44.5 -31t23.5 -45.5t7 -56h-82q0 21 -14.5 41t-47.5 20q-35 0 -49.5 -20t-14.5 -41h-83zM201 240h119l-35 160q-3 11 -6.5 32.5t-6.5 41.5q-4 24 -8 51h-7q-3 -25 -7 -48q-3 -20 -6.5 -41t-6.5 -36zM344 128
h-167l-28 -128h-138l154 660h192l154 -660h-138z" />
    <glyph glyph-name="uni0203" unicode="&#x203;" horiz-adv-x="505" 
d="M84 580q0 30 7 56t24 45.5t45.5 31t70.5 11.5q41 0 69 -11.5t44.5 -31t23.5 -45.5t7 -56h-82q0 21 -14.5 41t-47.5 20q-35 0 -49.5 -20t-14.5 -41h-83zM220 96q23 0 43 13.5t34 30.5v110l-77 -16q-29 -6 -44.5 -21t-15.5 -44v-12q0 -26 16 -43.5t44 -17.5zM405 -12
q-36 0 -61.5 18.5t-36.5 52.5h-4q-21 -30 -54.5 -50.5t-80.5 -20.5q-33 0 -59.5 12t-45 32.5t-28.5 48t-10 58.5v16q0 71 36 108.5t105 46.5l131 17v5q0 44 -23.5 66t-92.5 22q-20 0 -39 -2t-35 -4q-18 -3 -35 -6l-12 9q0 3 2 16.5t5 30t6.5 32.5t5.5 24q17 3 36 6
q17 2 39 4t48 2q63 0 107 -12.5t71.5 -37t39.5 -62t12 -88.5v-181q0 -24 8 -35t27 -14l20 -3l6 -13q-2 -9 -4.5 -21.5t-5.5 -23.5q-4 -13 -7 -27q-7 -8 -18 -13q-9 -5 -22.5 -9t-30.5 -4z" />
    <glyph glyph-name="uni0204" unicode="&#x204;" horiz-adv-x="406" 
d="M190 859h95l65 -123l-9 -17h-46l-105 97v43zM23 859h95l65 -123l-9 -17h-46l-105 97v43zM57 660h320v-112h-185v-158h155v-98h-155v-180h195v-112h-330v660z" />
    <glyph glyph-name="uni0205" unicode="&#x205;" horiz-adv-x="455" 
d="M209 720h95l65 -123l-9 -17h-46l-105 97v43zM42 720h95l65 -123l-9 -17h-46l-105 97v43zM162 302h138v36q0 55 -15 75.5t-46 20.5h-2q-14 0 -27 -5t-24 -16.5t-17.5 -29.5t-6.5 -45v-36zM162 220q0 -30 4.5 -52.5t17.5 -37.5t34.5 -22.5t56.5 -7.5q18 0 37.5 3.5
t35.5 7.5t27 7.5t12 3.5l13 -6q0 -1 1 -9.5t2.5 -21.5t3.5 -29t3 -32q0 -1 -12 -6.5t-33.5 -12t-51.5 -12t-67 -5.5q-108 0 -163.5 62t-55.5 195v35q0 60 15 106.5t42.5 79t65.5 49.5t84 17h11q88 0 135.5 -52t47.5 -157v-17q0 -13 -1.5 -28t-3.5 -28l-4 -30h-257z" />
    <glyph glyph-name="uni0206" unicode="&#x206;" horiz-adv-x="406" 
d="M74 715q0 30 7 56t24 45.5t45.5 31t70.5 11.5q41 0 69 -11.5t44.5 -31t23.5 -45.5t7 -56h-82q0 21 -14.5 41t-47.5 20q-35 0 -49.5 -20t-14.5 -41h-83zM57 660h320v-112h-185v-158h155v-98h-155v-180h195v-112h-330v660z" />
    <glyph glyph-name="uni0207" unicode="&#x207;" horiz-adv-x="455" 
d="M89 580q0 30 7 56t24 45.5t45.5 31t70.5 11.5q41 0 69 -11.5t44.5 -31t23.5 -45.5t7 -56h-82q0 21 -14.5 41t-47.5 20q-35 0 -49.5 -20t-14.5 -41h-83zM162 302h138v36q0 55 -15 75.5t-46 20.5h-2q-14 0 -27 -5t-24 -16.5t-17.5 -29.5t-6.5 -45v-36zM162 220
q0 -30 4.5 -52.5t17.5 -37.5t34.5 -22.5t56.5 -7.5q18 0 37.5 3.5t35.5 7.5t27 7.5t12 3.5l13 -6q0 -1 1 -9.5t2.5 -21.5t3.5 -29t3 -32q0 -1 -12 -6.5t-33.5 -12t-51.5 -12t-67 -5.5q-108 0 -163.5 62t-55.5 195v35q0 60 15 106.5t42.5 79t65.5 49.5t84 17h11
q88 0 135.5 -52t47.5 -157v-17q0 -13 -1.5 -28t-3.5 -28l-4 -30h-257z" />
    <glyph glyph-name="uni0208" unicode="&#x208;" horiz-adv-x="249" 
d="M76 859h95l65 -123l-9 -17h-46l-105 97v43zM-91 859h95l65 -123l-9 -17h-46l-105 97v43zM57 660h135v-660h-135v660z" />
    <glyph glyph-name="uni0209" unicode="&#x209;" horiz-adv-x="225" 
d="M45 0v520h135v-520h-135zM76 720h95l65 -123l-9 -17h-46l-105 97v43zM-91 720h95l65 -123l-9 -17h-46l-105 97v43z" />
    <glyph glyph-name="uni020A" unicode="&#x20a;" horiz-adv-x="249" 
d="M-21 719q0 30 7 56t24 45.5t45.5 31t70.5 11.5q41 0 69 -11.5t44.5 -31t23.5 -45.5t7 -56h-82q0 21 -14.5 41t-47.5 20q-35 0 -49.5 -20t-14.5 -41h-83zM57 660h135v-660h-135v660z" />
    <glyph glyph-name="uni020B" unicode="&#x20b;" horiz-adv-x="225" 
d="M-33 580q0 30 7 56t24 45.5t45.5 31t70.5 11.5q41 0 69 -11.5t44.5 -31t23.5 -45.5t7 -56h-82q0 21 -14.5 41t-47.5 20q-35 0 -49.5 -20t-14.5 -41h-83zM45 0v520h135v-520h-135z" />
    <glyph glyph-name="uni020C" unicode="&#x20c;" horiz-adv-x="526" 
d="M219 859h95l65 -123l-9 -17h-46l-105 97v43zM52 859h95l65 -123l-9 -17h-46l-105 97v43zM346 368q0 104 -19 148t-64 44t-64 -44t-19 -148v-77q0 -104 19 -147.5t64 -43.5t64 43.5t19 147.5v77zM269 672q115 0 164.5 -81t49.5 -241v-41q0 -160 -49.5 -240.5t-164.5 -80.5
h-12q-115 0 -164.5 80t-49.5 241v41q0 161 49.5 241.5t164.5 80.5h12z" />
    <glyph glyph-name="uni020D" unicode="&#x20d;" horiz-adv-x="474" 
d="M206 720h95l65 -123l-9 -17h-46l-105 97v43zM39 720h95l65 -123l-9 -17h-46l-105 97v43zM312 323q0 51 -19.5 76t-55.5 25t-55.5 -25t-19.5 -76v-125q0 -51 19.5 -76.5t55.5 -25.5t55.5 25.5t19.5 76.5v125zM244 532q94 0 148.5 -65.5t54.5 -185.5v-42
q0 -120 -54.5 -185.5t-148.5 -65.5h-14q-94 0 -148.5 65.5t-54.5 185.5v42q0 120 54.5 185.5t148.5 65.5h14z" />
    <glyph glyph-name="uni020E" unicode="&#x20e;" horiz-adv-x="526" 
d="M119 719q0 30 7 56t24 45.5t45.5 31t70.5 11.5q41 0 69 -11.5t44.5 -31t23.5 -45.5t7 -56h-82q0 21 -14.5 41t-47.5 20q-35 0 -49.5 -20t-14.5 -41h-83zM346 368q0 104 -19 148t-64 44t-64 -44t-19 -148v-77q0 -104 19 -147.5t64 -43.5t64 43.5t19 147.5v77zM269 672
q115 0 164.5 -81t49.5 -241v-41q0 -160 -49.5 -240.5t-164.5 -80.5h-12q-115 0 -164.5 80t-49.5 241v41q0 161 49.5 241.5t164.5 80.5h12z" />
    <glyph glyph-name="uni020F" unicode="&#x20f;" horiz-adv-x="474" 
d="M91 580q0 30 7 56t24 45.5t45.5 31t70.5 11.5q41 0 69 -11.5t44.5 -31t23.5 -45.5t7 -56h-82q0 21 -14.5 41t-47.5 20q-35 0 -49.5 -20t-14.5 -41h-83zM312 323q0 51 -19.5 76t-55.5 25t-55.5 -25t-19.5 -76v-125q0 -51 19.5 -76.5t55.5 -25.5t55.5 25.5t19.5 76.5v125z
M244 532q94 0 148.5 -65.5t54.5 -185.5v-42q0 -120 -54.5 -185.5t-148.5 -65.5h-14q-94 0 -148.5 65.5t-54.5 185.5v42q0 120 54.5 185.5t148.5 65.5h14z" />
    <glyph glyph-name="uni0210" unicode="&#x210;" horiz-adv-x="517" 
d="M199 859h95l65 -123l-9 -17h-46l-105 97v43zM32 859h95l65 -123l-9 -17h-46l-105 97v43zM355 0l-87 233q-5 14 -13 20.5t-22 6.5h-41v-260h-135v660h201q58 0 99.5 -14t68 -39.5t39 -62.5t12.5 -83v-16q0 -61 -25 -102t-73 -61v-3q12 -8 20 -21.5t15 -32.5l84 -225h-143z
M192 548v-190h56q49 0 71.5 19t22.5 64v10q0 54 -23.5 75.5t-81.5 21.5h-45z" />
    <glyph glyph-name="uni0211" unicode="&#x211;" horiz-adv-x="328" 
d="M147 720h95l65 -123l-9 -17h-46l-105 97v43zM-20 720h95l65 -123l-9 -17h-46l-105 97v43zM45 0v520h80l36 -59h1q9 14 20 27t26 22.5t35 15.5t46 6q5 0 9.5 -0.5t7.5 -0.5q4 -1 7 -1l-9 -120l-17 -9q-4 0 -9 1t-10.5 1.5t-11.5 0.5q-29 0 -47 -10t-29 -25v-369h-135z" />
    <glyph glyph-name="uni0212" unicode="&#x212;" horiz-adv-x="517" 
d="M95 719q0 30 7 56t24 45.5t45.5 31t70.5 11.5q41 0 69 -11.5t44.5 -31t23.5 -45.5t7 -56h-82q0 21 -14.5 41t-47.5 20q-35 0 -49.5 -20t-14.5 -41h-83zM355 0l-87 233q-5 14 -13 20.5t-22 6.5h-41v-260h-135v660h201q58 0 99.5 -14t68 -39.5t39 -62.5t12.5 -83v-16
q0 -61 -25 -102t-73 -61v-3q12 -8 20 -21.5t15 -32.5l84 -225h-143zM192 548v-190h56q49 0 71.5 19t22.5 64v10q0 54 -23.5 75.5t-81.5 21.5h-45z" />
    <glyph glyph-name="uni0213" unicode="&#x213;" horiz-adv-x="328" 
d="M30 580q0 30 7 56t24 45.5t45.5 31t70.5 11.5q41 0 69 -11.5t44.5 -31t23.5 -45.5t7 -56h-82q0 21 -14.5 41t-47.5 20q-35 0 -49.5 -20t-14.5 -41h-83zM45 0v520h80l36 -59h1q9 14 20 27t26 22.5t35 15.5t46 6q5 0 9.5 -0.5t7.5 -0.5q4 -1 7 -1l-9 -120l-17 -9q-4 0 -9 1
t-10.5 1.5t-11.5 0.5q-29 0 -47 -10t-29 -25v-369h-135z" />
    <glyph glyph-name="uni0214" unicode="&#x214;" horiz-adv-x="540" 
d="M225 860h95l65 -123l-9 -17h-46l-105 97v43zM58 860h95l65 -123l-9 -17h-46l-105 97v43zM485 660v-426q0 -65 -14 -111.5t-40.5 -76.5t-65 -44t-87.5 -14h-17q-49 0 -87 14t-64.5 44t-40.5 76.5t-14 111.5v426h135v-450q0 -60 21.5 -85t58.5 -25q36 0 58 25t22 85v450
h135z" />
    <glyph glyph-name="uni0215" unicode="&#x215;" horiz-adv-x="538" 
d="M227 720h95l65 -123l-9 -17h-46l-105 97v43zM60 720h95l65 -123l-9 -17h-46l-105 97v43zM180 520v-345q0 -36 16 -55.5t49 -19.5q27 0 49 13t36 29v378h135v-369q0 -23 7.5 -34.5t27.5 -14.5l20 -3l6 -13q-2 -8 -4.5 -20.5t-5.5 -23.5q-4 -13 -7 -28q-7 -8 -18 -13
q-9 -5 -22 -9t-31 -4q-38 0 -62.5 18.5t-35.5 52.5h-5q-21 -28 -54 -49.5t-86 -21.5q-71 0 -110.5 44.5t-39.5 132.5v355h135z" />
    <glyph glyph-name="uni0216" unicode="&#x216;" horiz-adv-x="540" 
d="M123 719q0 30 7 56t24 45.5t45.5 31t70.5 11.5q41 0 69 -11.5t44.5 -31t23.5 -45.5t7 -56h-82q0 21 -14.5 41t-47.5 20q-35 0 -49.5 -20t-14.5 -41h-83zM485 660v-426q0 -65 -14 -111.5t-40.5 -76.5t-65 -44t-87.5 -14h-17q-49 0 -87 14t-64.5 44t-40.5 76.5t-14 111.5
v426h135v-450q0 -60 21.5 -85t58.5 -25q36 0 58 25t22 85v450h135z" />
    <glyph glyph-name="uni0217" unicode="&#x217;" horiz-adv-x="538" 
d="M110 580q0 30 7 56t24 45.5t45.5 31t70.5 11.5q41 0 69 -11.5t44.5 -31t23.5 -45.5t7 -56h-82q0 21 -14.5 41t-47.5 20q-35 0 -49.5 -20t-14.5 -41h-83zM180 520v-345q0 -36 16 -55.5t49 -19.5q27 0 49 13t36 29v378h135v-369q0 -23 7.5 -34.5t27.5 -14.5l20 -3l6 -13
q-2 -8 -4.5 -20.5t-5.5 -23.5q-4 -13 -7 -28q-7 -8 -18 -13q-9 -5 -22 -9t-31 -4q-38 0 -62.5 18.5t-35.5 52.5h-5q-21 -28 -54 -49.5t-86 -21.5q-71 0 -110.5 44.5t-39.5 132.5v355h135z" />
    <glyph glyph-name="uni0218" unicode="&#x218;" horiz-adv-x="466" 
d="M161 -117q0 32 20 52t50 20q31 0 50.5 -20t19.5 -53q0 -25 -10.5 -50.5t-28.5 -52.5l-53 -79h-41v16l32 97v3q-19 8 -29 26t-10 41zM57 4q-2 17 -3 35.5t-1 34.5v35l14 7q18 -4 39 -8q18 -3 40.5 -5.5t46.5 -2.5q58 0 81 24.5t23 66.5q0 27 -14 45t-49 31l-78 29
q-26 10 -48.5 24.5t-39 35.5t-25.5 49t-9 65q0 97 54 149.5t174 52.5q23 0 45.5 -2t40 -4t28.5 -4.5l11 -2.5q-1 -17 -2 -35t-3 -33q-2 -18 -4 -34l-13 -8l-30 5q-14 2 -31.5 4t-34.5 2q-57 0 -78.5 -23t-21.5 -60q0 -29 13 -45.5t39 -26.5l75 -28q69 -26 102.5 -68.5
t33.5 -110.5q0 -49 -12 -88t-39 -66t-70.5 -41.5t-106.5 -14.5q-27 0 -53 2.5t-46.5 5.5t-33.5 5.5t-14 2.5z" />
    <glyph glyph-name="uni0219" unicode="&#x219;" horiz-adv-x="433" 
d="M53 1q-3 15 -5 33t-4 34q-2 18 -2 37l13 8q19 -4 41 -7q18 -2 41 -4t46 -2q54 0 73.5 14.5t19.5 42.5q0 17 -11 30t-43 18l-71 13q-57 11 -90.5 43t-34.5 94q-1 41 11 74t38 56t67.5 35t100.5 12q21 0 42 -2t38 -4t28 -4.5l11 -2.5q-2 -19 -3 -37t-3 -32q-2 -17 -4 -33
l-13 -7q-16 2 -33 5q-14 2 -31 3.5t-32 1.5q-51 0 -68 -15t-17 -37q0 -35 42 -44l66 -13q76 -15 109 -52t33 -97q0 -84 -48.5 -129t-165.5 -45q-33 0 -59 2t-44 4q-21 3 -38 7zM147 -129q0 35 22 57.5t56 22.5t56 -22t22 -59q0 -28 -12 -56t-32 -59l-58 -87h-46v18l35 107v4
q-20 9 -31.5 28.5t-11.5 45.5z" />
    <glyph glyph-name="circumflex" unicode="&#x2c6;" horiz-adv-x="833" 
d="M552 605l-9 -25h-69l-74 62l-75 -62h-69l-9 25l97 115h112z" />
    <glyph glyph-name="caron" unicode="&#x2c7;" horiz-adv-x="833" 
d="M247 695l9 25h69l74 -62l75 62h69l9 -25l-97 -115h-112z" />
    <glyph glyph-name="breve" unicode="&#x2d8;" horiz-adv-x="406" 
d="M348 719q0 -30 -7 -56t-24 -45.5t-45 -31t-70 -11.5t-69.5 11.5t-44.5 31t-24 45.5t-7 56h83q0 -21 14 -41.5t48 -20.5t49 20.5t15 41.5h82z" />
    <glyph glyph-name="dotaccent" unicode="&#x2d9;" horiz-adv-x="230" 
d="M51 654q0 28 18.5 46t45.5 18t45 -18t18 -46t-18 -46.5t-45 -18.5t-45.5 18.5t-18.5 46.5z" />
    <glyph glyph-name="ring" unicode="&#x2da;" horiz-adv-x="270" 
d="M92 667q0 -18 11.5 -29.5t31.5 -11.5q19 0 30.5 11.5t11.5 29.5t-11.5 29.5t-30.5 11.5q-20 0 -31.5 -11.5t-11.5 -29.5zM17 667q0 44 31 73.5t87 29.5q55 0 86 -29.5t31 -73.5t-31 -73.5t-86 -29.5q-56 0 -87 29.5t-31 73.5z" />
    <glyph glyph-name="ogonek" unicode="&#x2db;" horiz-adv-x="306" 
d="M223 -202q-8 -3 -19 -5q-20 -5 -49 -5q-57 0 -82.5 22t-25.5 59q0 31 20 65t58 66h70q-19 -25 -38.5 -54t-19.5 -55q0 -36 43 -36q6 0 12 0.5t11 1.5l12 2z" />
    <glyph glyph-name="tilde" unicode="&#x2dc;" horiz-adv-x="476" 
d="M420 715q-17 -70 -45.5 -100t-70.5 -30q-21 0 -38.5 9t-32.5 20.5t-28.5 20.5t-27.5 9t-30 -10t-30 -49l-61 19q16 71 47 100.5t74 29.5q21 0 39 -9t33.5 -20.5t29 -20.5t25.5 -9q6 0 12.5 2t13.5 8t14 17.5t15 31.5z" />
    <glyph glyph-name="hungarumlaut" unicode="&#x2dd;" horiz-adv-x="470" 
d="M271 677l-105 -97h-46l-9 17l65 123h95v-43zM435 677l-105 -97h-46l-9 17l65 123h95v-43z" />
    <glyph glyph-name="uni0311" unicode="&#x311;" horiz-adv-x="406" 
d="M57 580q0 30 7 56t24 45.5t45.5 31t70.5 11.5q41 0 69 -11.5t44.5 -31t23.5 -45.5t7 -56h-82q0 21 -14.5 41t-47.5 20q-35 0 -49.5 -20t-14.5 -41h-83z" />
    <glyph glyph-name="pi" unicode="&#x3c0;" horiz-adv-x="649" 
d="M390 408h-140v-408h-135v408h-100v112h610v-112h-100v-252q0 -32 12 -44t33 -12h10.5t9.5 1t9 2l14 -13v-85q-12 -5 -26 -9q-12 -3 -28.5 -5.5t-36.5 -2.5q-72 0 -102 39t-30 115v266z" />
    <glyph glyph-name="uni0E3F" unicode="&#xe3f;" horiz-adv-x="527" 
d="M200 544v-169h73q57 0 57 69v19q0 39 -18.5 60t-60.5 21h-51zM200 277v-171h86q34 0 49 20t15 53v25q0 35 -18.5 54t-58.5 19h-73zM65 650h140v90h98v-92q82 -8 122 -51.5t40 -119.5v-8q0 -48 -15 -82t-61 -51v-4q29 -8 47.5 -23t29.5 -35t15 -44t4 -49v-8
q0 -32 -8.5 -63t-28 -55.5t-51.5 -39.5t-80 -15h-14v-100h-98v100h-140v650z" />
    <glyph glyph-name="Wgrave" unicode="&#x1e80;" horiz-adv-x="706" 
d="M468 335q2 -8 4 -22.5t4 -28.5q3 -17 5 -36h13q2 21 4 40q2 17 4 34.5t4 29.5l53 308h136l-117 -660h-144l-64 265q-2 5 -3.5 19.5t-3.5 28.5q-2 17 -4 37h-12q-2 -20 -4 -37q-2 -14 -3.5 -28.5t-3.5 -19.5l-64 -265h-144l-117 660h136l53 -308q2 -12 4 -29.5t4 -34.5
q2 -19 4 -40h13q2 19 5 36q2 14 4 28.5t4 22.5l74 305h82zM214 860h117l83 -123l-9 -17h-76l-115 97v43z" />
    <glyph glyph-name="wgrave" unicode="&#x1e81;" horiz-adv-x="712" 
d="M343 235l-53 -235h-172q-26 131 -54 260t-54 260h133l54 -270l14 -100h11l15 100l61 270h116l61 -270l15 -100h11l14 100l54 270h133q-26 -131 -54 -260t-54 -260h-172l-53 235l-8 59h-10zM212 720h117l83 -123l-9 -17h-76l-115 97v43z" />
    <glyph glyph-name="Wacute" unicode="&#x1e82;" horiz-adv-x="706" 
d="M468 335q2 -8 4 -22.5t4 -28.5q3 -17 5 -36h13q2 21 4 40q2 17 4 34.5t4 29.5l53 308h136l-117 -660h-144l-64 265q-2 5 -3.5 19.5t-3.5 28.5q-2 17 -4 37h-12q-2 -20 -4 -37q-2 -14 -3.5 -28.5t-3.5 -19.5l-64 -265h-144l-117 660h136l53 -308q2 -12 4 -29.5t4 -34.5
q2 -19 4 -40h13q2 19 5 36q2 14 4 28.5t4 22.5l74 305h82zM495 817l-115 -97h-76l-9 17l83 123h117v-43z" />
    <glyph glyph-name="wacute" unicode="&#x1e83;" horiz-adv-x="712" 
d="M343 235l-53 -235h-172q-26 131 -54 260t-54 260h133l54 -270l14 -100h11l15 100l61 270h116l61 -270l15 -100h11l14 100l54 270h133q-26 -131 -54 -260t-54 -260h-172l-53 235l-8 59h-10zM498 677l-115 -97h-76l-9 17l83 123h117v-43z" />
    <glyph glyph-name="Wdieresis" unicode="&#x1e84;" horiz-adv-x="706" 
d="M468 335q2 -8 4 -22.5t4 -28.5q3 -17 5 -36h13q2 21 4 40q2 17 4 34.5t4 29.5l53 308h136l-117 -660h-144l-64 265q-2 5 -3.5 19.5t-3.5 28.5q-2 17 -4 37h-12q-2 -20 -4 -37q-2 -14 -3.5 -28.5t-3.5 -19.5l-64 -265h-144l-117 660h136l53 -308q2 -12 4 -29.5t4 -34.5
q2 -19 4 -40h13q2 19 5 36q2 14 4 28.5t4 22.5l74 305h82zM387 783q0 26 17 43t43 17q25 0 42 -17t17 -43t-17 -43.5t-42 -17.5q-26 0 -43 17.5t-17 43.5zM199 783q0 26 17 43t43 17q25 0 42 -17t17 -43t-17 -43.5t-42 -17.5q-26 0 -43 17.5t-17 43.5z" />
    <glyph glyph-name="wdieresis" unicode="&#x1e85;" horiz-adv-x="712" 
d="M343 235l-53 -235h-172q-26 131 -54 260t-54 260h133l54 -270l14 -100h11l15 100l61 270h116l61 -270l15 -100h11l14 100l54 270h133q-26 -131 -54 -260t-54 -260h-172l-53 235l-8 59h-10zM390 645q0 26 17 43t43 17q25 0 42 -17t17 -43t-17 -43.5t-42 -17.5
q-26 0 -43 17.5t-17 43.5zM202 645q0 26 17 43t43 17q25 0 42 -17t17 -43t-17 -43.5t-42 -17.5q-26 0 -43 17.5t-17 43.5z" />
    <glyph glyph-name="Ygrave" unicode="&#x1ef2;" horiz-adv-x="529" 
d="M157 660l78 -202q5 -13 9 -30t8 -33q4 -18 8 -39h9q4 21 8 39q4 16 8 33t9 30l78 202h146l-186 -458v-202h-135v202l-186 458h146zM116 860h117l83 -123l-9 -17h-76l-115 97v43z" />
    <glyph glyph-name="ygrave" unicode="&#x1ef3;" horiz-adv-x="498" 
d="M304 -69q-12 -37 -24 -64t-28.5 -44.5t-38.5 -26t-53 -8.5q-21 0 -38.5 3t-30 6.5t-19 6l-6.5 2.5l12 89l15 13q6 -2 11 -3q9 -3 21 -3q23 0 32 11.5t18 40.5l15 46l-180 520h138l88 -268q2 -5 3.5 -16t3.5 -23q2 -14 4 -30h10q2 15 4 28q2 11 4 22.5t4 18.5l82 268h137z
M95 720h117l83 -123l-9 -17h-76l-115 97v43z" />
    <glyph glyph-name="endash" unicode="&#x2013;" 
d="M50 250v97h400v-97h-400z" />
    <glyph glyph-name="emdash" unicode="&#x2014;" horiz-adv-x="740" 
d="M45 250v97h650v-97h-650z" />
    <glyph glyph-name="quoteleft" unicode="&#x2018;" horiz-adv-x="240" 
d="M198 497q0 -35 -22 -57.5t-56 -22.5t-56 22t-22 59q0 28 12 56t32 59l58 87h46v-18l-35 -107v-4q20 -9 31.5 -28.5t11.5 -45.5z" />
    <glyph glyph-name="quoteright" unicode="&#x2019;" horiz-adv-x="240" 
d="M42 620q0 35 22 57.5t56 22.5t56 -22t22 -59q0 -28 -12 -56t-32 -59l-58 -87h-46v18l35 107v4q-20 9 -31.5 28.5t-11.5 45.5z" />
    <glyph glyph-name="quotesinglbase" unicode="&#x201a;" horiz-adv-x="240" 
d="M42 70q0 35 22 57.5t56 22.5t56 -22t22 -59q0 -28 -12 -56t-32 -59l-58 -87h-46v18l35 107v4q-20 9 -31.5 28.5t-11.5 45.5z" />
    <glyph glyph-name="quotedblleft" unicode="&#x201c;" horiz-adv-x="435" 
d="M198 497q0 -35 -22 -57.5t-56 -22.5t-56 22t-22 59q0 28 12 56t32 59l58 87h46v-18l-35 -107v-4q20 -9 31.5 -28.5t11.5 -45.5zM393 497q0 -35 -22 -57.5t-56 -22.5t-56 22t-22 59q0 28 12 56t32 59l58 87h46v-18l-35 -107v-4q20 -9 31.5 -28.5t11.5 -45.5z" />
    <glyph glyph-name="quotedblright" unicode="&#x201d;" horiz-adv-x="435" 
d="M237 620q0 35 22 57.5t56 22.5t56 -22t22 -59q0 -28 -12 -56t-32 -59l-58 -87h-46v18l35 107v4q-20 9 -31.5 28.5t-11.5 45.5zM42 620q0 35 22 57.5t56 22.5t56 -22t22 -59q0 -28 -12 -56t-32 -59l-58 -87h-46v18l35 107v4q-20 9 -31.5 28.5t-11.5 45.5z" />
    <glyph glyph-name="quotedblbase" unicode="&#x201e;" horiz-adv-x="435" 
d="M237 70q0 35 22 57.5t56 22.5t56 -22t22 -59q0 -28 -12 -56t-32 -59l-58 -87h-46v18l35 107v4q-20 9 -31.5 28.5t-11.5 45.5zM42 70q0 35 22 57.5t56 22.5t56 -22t22 -59q0 -28 -12 -56t-32 -59l-58 -87h-46v18l35 107v4q-20 9 -31.5 28.5t-11.5 45.5z" />
    <glyph glyph-name="dagger" unicode="&#x2020;" horiz-adv-x="522" 
d="M471 395q0 -21 -7 -29.5t-27 -8.5h-51l-92 25l17 -85v-95l-17 -252h-67l-16 252v95l17 85l-92 -25h-52q-20 0 -26.5 9.5t-6.5 28.5v40q0 21 6.5 29t26.5 8h52l92 -24l-25 119v60q0 19 8.5 26t27.5 7h43q21 0 28.5 -7t7.5 -26v-60l-24 -119l92 24h51q20 0 27 -9t7 -28v-40
z" />
    <glyph glyph-name="daggerdbl" unicode="&#x2021;" horiz-adv-x="522" 
d="M211 317l17 75l-102 -25h-37q-24 0 -31 9t-7 29v40q0 22 7 29.5t31 7.5h37l102 -24l-25 117v47q0 22 8 30t28 8h43q21 0 28.5 -8t7.5 -30v-47l-24 -117l101 24h37q24 0 31.5 -8.5t7.5 -28.5v-40q0 -23 -7.5 -30.5t-31.5 -7.5h-37l-101 25l17 -75v-25l-17 -74l101 24h37
q24 0 31.5 -8.5t7.5 -28.5v-40q0 -23 -7.5 -30.5t-31.5 -7.5h-37l-101 25l24 -117v-48q0 -20 -7.5 -28.5t-28.5 -8.5h-43q-22 0 -29 8.5t-7 28.5v48l25 117l-102 -25h-37q-24 0 -31 9t-7 29v40q0 22 7 29.5t31 7.5h37l102 -24l-17 74v25z" />
    <glyph glyph-name="bullet" unicode="&#x2022;" horiz-adv-x="350" 
d="M62 330q0 25 9 46.5t24 36.5t35.5 23.5t44.5 8.5t44.5 -8.5t35.5 -23.5t24 -36.5t9 -46.5q0 -26 -9 -47t-24 -36t-35.5 -23.5t-44.5 -8.5t-44.5 8.5t-35.5 23.5t-24 36t-9 47z" />
    <glyph glyph-name="ellipsis" unicode="&#x2026;" horiz-adv-x="740" 
d="M514 70q0 35 22 57.5t56 22.5t56 -22.5t22 -57.5t-22 -57.5t-56 -22.5t-56 22.5t-22 57.5zM292 70q0 35 22 57.5t56 22.5t56 -22.5t22 -57.5t-22 -57.5t-56 -22.5t-56 22.5t-22 57.5zM70 70q0 35 22 57.5t56 22.5t56 -22.5t22 -57.5t-22 -57.5t-56 -22.5t-56 22.5
t-22 57.5z" />
    <glyph glyph-name="perthousand" unicode="&#x2030;" horiz-adv-x="1094" 
d="M952 189q0 32 -8.5 49t-31.5 17t-31.5 -17t-8.5 -49v-60q0 -32 8.5 -49t31.5 -17t31.5 17t8.5 49v60zM921 330q23 0 46 -8.5t41 -27t29.5 -47t11.5 -68.5v-41q0 -40 -11.5 -68.5t-29.5 -46.5t-41 -26.5t-46 -8.5h-18q-23 0 -46 8.5t-41.5 26.5t-30 46.5t-11.5 68.5v41
q0 40 11.5 68.5t30 47t41.5 27t46 8.5h18zM632 189q0 32 -8.5 49t-31.5 17t-31.5 -17t-8.5 -49v-60q0 -32 8.5 -49t31.5 -17t31.5 17t8.5 49v60zM601 330q23 0 46 -8.5t41 -27t29.5 -47t11.5 -68.5v-41q0 -40 -11.5 -68.5t-29.5 -46.5t-41 -26.5t-46 -8.5h-18q-23 0 -46 8.5
t-41.5 26.5t-30 46.5t-11.5 68.5v41q0 40 11.5 68.5t30 47t41.5 27t46 8.5h18zM543 659h100l-404 -671h-100zM223 509q0 32 -8.5 49t-31.5 17t-31.5 -17t-8.5 -49v-60q0 -32 8.5 -49t31.5 -17t31.5 17t8.5 49v60zM192 650q23 0 46 -8.5t41 -27t29.5 -47t11.5 -68.5v-41
q0 -40 -11.5 -68.5t-29.5 -46.5t-41 -26.5t-46 -8.5h-18q-23 0 -46 8.5t-41.5 26.5t-30 46.5t-11.5 68.5v41q0 40 11.5 68.5t30 47t41.5 27t46 8.5h18z" />
    <glyph glyph-name="guilsinglleft" unicode="&#x2039;" horiz-adv-x="281" 
d="M34 220l110 220h93l-78 -220l78 -220h-93z" />
    <glyph glyph-name="guilsinglright" unicode="&#x203a;" horiz-adv-x="281" 
d="M137 0h-93l78 220l-78 220h93l110 -220z" />
    <glyph glyph-name="fraction" unicode="&#x2044;" horiz-adv-x="512" 
d="M412 672h100l-412 -684h-100z" />
    <glyph glyph-name="uni2070" unicode="&#x2070;" horiz-adv-x="356" 
d="M228 662q0 44 -13.5 62t-36.5 18t-36.5 -18t-13.5 -62v-86q0 -44 13.5 -62t36.5 -18t36.5 18t13.5 62v86zM182 824q31 0 57.5 -10.5t45.5 -32t30 -55.5t11 -82v-50q0 -48 -11 -82t-30 -55.5t-45.5 -32t-57.5 -10.5h-8q-31 0 -57.5 10.5t-45.5 32t-30 55.5t-11 82v50
q0 48 11 82t30 55.5t45.5 32t57.5 10.5h8z" />
    <glyph glyph-name="uni2074" unicode="&#x2074;" horiz-adv-x="326" 
d="M112 816h96l-97 -249h62l29 103h61v-103h48v-82h-48v-65h-98v65h-150v84z" />
    <glyph glyph-name="uni2075" unicode="&#x2075;" horiz-adv-x="299" 
d="M274 546q0 -68 -35 -100t-98 -32q-23 0 -43 3.5t-35 7.5t-24 7.5l-9 3.5q0 11 1 22.5t2 22.5q1 12 3 25l8 4q14 -4 27 -7q11 -3 24 -5t24 -2q30 0 43.5 13.5t13.5 43.5v3q0 24 -11.5 38t-34.5 14q-11 0 -19.5 -2.5t-15.5 -5.5q-8 -4 -14 -8l-49 12l12 214h206v-82h-114
l-3 -70h1q8 3 18.5 6t23.5 3q49 0 73.5 -29.5t24.5 -82.5v-17z" />
    <glyph glyph-name="uni2076" unicode="&#x2076;" horiz-adv-x="350" 
d="M177 598q-18 0 -32.5 -5.5t-16.5 -7.5v-19q0 -70 47 -70q22 0 34.5 13.5t12.5 40.5v3q0 22 -10 33.5t-35 11.5zM217 742q-45 0 -66 -20.5t-23 -66.5q15 11 37.5 18.5t45.5 7.5q51 0 80 -31.5t29 -82.5v-19q0 -60 -38 -97t-107 -37q-65 0 -105 42t-40 130v39q0 103 48 151
t130 48q16 0 30.5 -2t26.5 -4l26 -6q-2 -11 -2.5 -24t-2.5 -24q-2 -13 -3 -27l-7 -4q-9 2 -19 4q-8 2 -18.5 3.5t-21.5 1.5z" />
    <glyph glyph-name="uni2077" unicode="&#x2077;" horiz-adv-x="285" 
d="M15 816h255v-81l-132 -315h-105l130 302v12h-148v82z" />
    <glyph glyph-name="uni2078" unicode="&#x2078;" horiz-adv-x="362" 
d="M132 712q0 -14 9 -23t34 -18l22 -8q17 14 24.5 24.5t7.5 24.5q0 17 -11.5 27t-36.5 10t-37 -10t-12 -27zM165 582q-35 -20 -35 -52q0 -17 12 -29t39 -12q26 0 38.5 11t12.5 30q0 16 -10 26t-37 19zM32 519q0 39 14.5 61.5t38.5 35.5v4q-20 14 -33 35t-13 53q0 55 38 85.5
t104 30.5q69 0 105 -29.5t36 -78.5q0 -26 -12 -47.5t-39 -34.5v-4q27 -16 43 -38.5t16 -59.5q0 -61 -38.5 -89.5t-110.5 -28.5q-32 0 -59 6t-47 18.5t-31.5 32.5t-11.5 48z" />
    <glyph glyph-name="uni2079" unicode="&#x2079;" horiz-adv-x="350" 
d="M172 640q20 0 34 6t16 8v18q0 70 -47 70t-47 -53q0 -23 10 -36t34 -13zM132 496q48 0 68.5 20.5t20.5 67.5q-14 -11 -36.5 -18.5t-46.5 -7.5q-54 0 -81 29.5t-27 81.5v17q0 63 37.5 100.5t107.5 37.5q68 0 106.5 -41.5t38.5 -129.5v-40q0 -103 -48 -151t-130 -48
q-33 0 -58 5q-13 3 -25 6q1 11 1.5 24t2.5 24q1 13 3 27l7 4q9 -2 20 -4q9 -2 19.5 -3t19.5 -1z" />
    <glyph glyph-name="uni207D" unicode="&#x207d;" horiz-adv-x="187" 
d="M120 600q0 -36 5.5 -69t13 -61.5t15.5 -50.5t14 -35h-65q-9 12 -20.5 32t-22 47.5t-18 61.5t-7.5 75t7 77.5t17.5 67t22.5 53t21 36.5h65q-6 -13 -14 -34.5t-15.5 -51.5t-13 -67.5t-5.5 -80.5z" />
    <glyph glyph-name="uni207E" unicode="&#x207e;" horiz-adv-x="187" 
d="M67 600q0 43 -5.5 80.5t-13 67.5t-15.5 51.5t-14 34.5h65q9 -14 20.5 -36.5t22 -53t18 -67t7.5 -77.5t-7.5 -75t-18 -61.5t-22 -47.5t-20.5 -32h-65q6 13 14 35t15.5 50.5t13 61.5t5.5 69z" />
    <glyph glyph-name="uni2080" unicode="&#x2080;" horiz-adv-x="356" 
d="M228 162q0 44 -13.5 62t-36.5 18t-36.5 -18t-13.5 -62v-86q0 -44 13.5 -62t36.5 -18t36.5 18t13.5 62v86zM182 324q31 0 57.5 -10.5t45.5 -32t30 -55.5t11 -82v-50q0 -48 -11 -82t-30 -55.5t-45.5 -32t-57.5 -10.5h-8q-31 0 -57.5 10.5t-45.5 32t-30 55.5t-11 82v50
q0 48 11 82t30 55.5t45.5 32t57.5 10.5h8z" />
    <glyph glyph-name="uni2081" unicode="&#x2081;" horiz-adv-x="247" 
d="M25 240l108 78h63v-398h-98v268h-73v52z" />
    <glyph glyph-name="uni2082" unicode="&#x2082;" horiz-adv-x="320" 
d="M290 202q0 -26 -6.5 -45t-18.5 -35t-29.5 -31.5t-39.5 -34.5l-38 -32q-10 -8 -12 -11t-2 -8v-3h140v-82h-254v69q0 16 4 28.5t13.5 24.5t24 25t35.5 31l30 25q32 26 43.5 40.5t11.5 31.5t-13 32t-52 15q-14 0 -27 -3t-24 -6q-13 -4 -25 -8l-9 4q-1 10 -2 21
q-1 10 -1.5 22.5t-1.5 26.5l9 4t24 8.5t35.5 8.5t43.5 4q68 0 104.5 -35t36.5 -87z" />
    <glyph glyph-name="uni2083" unicode="&#x2083;" horiz-adv-x="296" 
d="M275 42q0 -56 -34 -92t-116 -36q-23 0 -42 2.5t-33 5.5q-17 4 -30 9q0 11 1 22.5t2 22.5q1 12 3 25l8 4q13 -3 25 -5q11 -2 23.5 -3t23.5 -1q69 0 69 50q0 21 -14 32.5t-50 11.5h-53v67h62q21 1 33.5 11t12.5 33q0 19 -12.5 30t-44.5 11q-13 0 -25 -2.5t-22 -4.5
q-11 -4 -22 -7l-8 4l-2 24q-1 11 -2.5 23t-2.5 23q14 6 32 11q14 4 33.5 7.5t41.5 3.5q34 0 59 -8.5t41 -23.5t24 -34.5t8 -41.5q0 -53 -38 -80v-2q22 -14 35.5 -35.5t13.5 -56.5z" />
    <glyph glyph-name="uni2084" unicode="&#x2084;" horiz-adv-x="326" 
d="M112 316h96l-97 -249h62l29 103h61v-103h48v-82h-48v-65h-98v65h-150v84z" />
    <glyph glyph-name="uni2085" unicode="&#x2085;" horiz-adv-x="299" 
d="M274 46q0 -68 -35 -100t-98 -32q-23 0 -43 3.5t-35 7.5t-24 7.5l-9 3.5q0 11 1 22.5t2 22.5q1 12 3 25l8 4q14 -4 27 -7q11 -3 24 -5t24 -2q30 0 43.5 13.5t13.5 43.5v3q0 24 -11.5 38t-34.5 14q-11 0 -19.5 -2.5t-15.5 -5.5q-8 -4 -14 -8l-49 12l12 214h206v-82h-114
l-3 -70h1q8 3 18.5 6t23.5 3q49 0 73.5 -29.5t24.5 -82.5v-17z" />
    <glyph glyph-name="uni2086" unicode="&#x2086;" horiz-adv-x="350" 
d="M177 98q-18 0 -32.5 -5.5t-16.5 -7.5v-19q0 -70 47 -70q22 0 34.5 13.5t12.5 40.5v3q0 22 -10 33.5t-35 11.5zM217 242q-45 0 -66 -20.5t-23 -66.5q15 11 37.5 18.5t45.5 7.5q51 0 80 -31.5t29 -82.5v-19q0 -60 -38 -97t-107 -37q-65 0 -105 42t-40 130v39q0 103 48 151
t130 48q16 0 30.5 -2t26.5 -4l26 -6q-2 -11 -2.5 -24t-2.5 -24q-2 -13 -3 -27l-7 -4q-9 2 -19 4q-8 2 -18.5 3.5t-21.5 1.5z" />
    <glyph glyph-name="uni2087" unicode="&#x2087;" horiz-adv-x="285" 
d="M15 316h255v-81l-132 -315h-105l130 302v12h-148v82z" />
    <glyph glyph-name="uni2088" unicode="&#x2088;" horiz-adv-x="362" 
d="M132 212q0 -14 9 -23t34 -18l22 -8q17 14 24.5 24.5t7.5 24.5q0 17 -11.5 27t-36.5 10t-37 -10t-12 -27zM165 82q-35 -20 -35 -52q0 -17 12 -29t39 -12q26 0 38.5 11t12.5 30q0 16 -10 26t-37 19zM32 19q0 39 14.5 61.5t38.5 35.5v4q-20 14 -33 35t-13 53q0 55 38 85.5
t104 30.5q69 0 105 -29.5t36 -78.5q0 -26 -12 -47.5t-39 -34.5v-4q27 -16 43 -38.5t16 -59.5q0 -61 -38.5 -89.5t-110.5 -28.5q-32 0 -59 6t-47 18.5t-31.5 32.5t-11.5 48z" />
    <glyph glyph-name="uni2089" unicode="&#x2089;" horiz-adv-x="350" 
d="M172 140q20 0 34 6t16 8v18q0 70 -47 70t-47 -53q0 -23 10 -36t34 -13zM132 -4q48 0 68.5 20.5t20.5 67.5q-14 -11 -36.5 -18.5t-46.5 -7.5q-54 0 -81 29.5t-27 81.5v17q0 63 37.5 100.5t107.5 37.5q68 0 106.5 -41.5t38.5 -129.5v-40q0 -103 -48 -151t-130 -48
q-33 0 -58 5q-13 3 -25 6q1 11 1.5 24t2.5 24q1 13 3 27l7 4q9 -2 20 -4q9 -2 19.5 -3t19.5 -1z" />
    <glyph glyph-name="uni208D" unicode="&#x208d;" horiz-adv-x="187" 
d="M120 100q0 -36 5.5 -69t13 -61.5t15.5 -50.5t14 -35h-65q-9 12 -20.5 32t-22 47.5t-18 61.5t-7.5 75t7 77.5t17.5 67t22.5 53t21 36.5h65q-6 -13 -14 -34.5t-15.5 -51.5t-13 -67.5t-5.5 -80.5z" />
    <glyph glyph-name="uni208E" unicode="&#x208e;" horiz-adv-x="187" 
d="M67 100q0 43 -5.5 80.5t-13 67.5t-15.5 51.5t-14 34.5h65q9 -14 20.5 -36.5t22 -53t18 -67t7.5 -77.5t-7.5 -75t-18 -61.5t-22 -47.5t-20.5 -32h-65q6 13 14 35t15.5 50.5t13 61.5t5.5 69z" />
    <glyph glyph-name="colonmonetary" unicode="&#x20a1;" horiz-adv-x="552" 
d="M179 287q0 -60 8.5 -93.5t22.5 -56.5h6q1 6 2 20.5t4 28.5l67 349q-54 -8 -82 -54t-28 -146v-48zM337 100l84 426q-11 2 -25.5 4t-31.5 4l-82 -429q23 -5 50 -5h5zM188 8q-64 23 -104 91.5t-40 187.5v40q0 168 68.5 244.5t198.5 78.5l18 90l73 -14l-16 -81q32 -4 56 -9
l15 79l73 -15q-29 -149 -57.5 -295.5t-57.5 -295.5q12 2 22 3.5t18 3.5q9 2 15 4l11 -5q2 -11 4 -26q2 -13 3.5 -31.5t3.5 -41.5q-13 -4 -28 -8q-14 -4 -31.5 -8t-39.5 -6l-22 -119l-73 15l19 98q-14 0 -28.5 1.5t-28.5 3.5l-17 -92l-73 14z" />
    <glyph glyph-name="uni20A2" unicode="&#x20a2;" horiz-adv-x="516" 
d="M482 16q-1 0 -13 -4.5t-34 -10t-53 -9.5t-69 -4q-57 0 -106 13t-85 47t-57 92.5t-21 149.5v34q0 90 18.5 152t54 100.5t87.5 56t120 17.5q31 0 57 -3t46 -7q23 -4 42 -9l-15 -100l-11 -6l-36 6q-16 2 -34.5 4t-35.5 2q-41 0 -70.5 -10t-48.5 -34.5t-28.5 -66t-9.5 -104.5
v-20q0 -50 5.5 -85t17.5 -58t30.5 -36t45.5 -18v275h67l30 -48q14 22 33.5 40t59.5 18q4 0 8 -0.5t6 -0.5q3 -1 5 -1l-6 -98l-13 -7q-2 0 -6 1q-3 0 -6.5 0.5t-8.5 0.5q-20 0 -34.5 -8t-22.5 -21v-150q14 2 27 4.5t22 4.5q11 3 19 5l11 -5q1 -15 4 -32q2 -14 4 -31.5
t4 -35.5z" />
    <glyph glyph-name="franc" unicode="&#x20a3;" horiz-adv-x="425" 
d="M20 207h65v443h320v-112h-185v-145h155v-106h-155v-80h105v-82h-105v-125h-135v125h-65v82z" />
    <glyph glyph-name="uni20A6" unicode="&#x20a6;" horiz-adv-x="633" 
d="M420 343v20h-55l17 -36l32 -95l14 2zM213 277h60l-24 51l-33 90l-15 -3l12 -105v-33zM10 445h68v205h150l98 -205h94v205h135v-205h68v-82h-68v-86h68v-82h-68v-195h-150l-93 195h-99v-195h-135v195h-68v82h68v86h-68v82z" />
    <glyph glyph-name="peseta" unicode="&#x20a7;" horiz-adv-x="570" 
d="M212 538v-94h137q-5 94 -93 94h-44zM266 270q39 0 61.5 21.5t22.5 70.5h-138v-92h54zM12 444h65v206h201q101 0 153 -50t54 -156h65v-82h-65q-1 -99 -49.5 -144.5t-132.5 -45.5h-91v-172h-135v362h-65v82z" />
    <glyph glyph-name="uni20A8" unicode="&#x20a8;" horiz-adv-x="605" 
d="M68 457h242q-3 46 -27 65.5t-80 19.5h-163l31 108h491l-23 -82h-130q-1 -1 -1 -2q17 -20 26 -49.5t11 -59.5h116l-23 -82h-95q-5 -55 -29 -88.5t-70 -51.5v-3q23 -12 37 -35t26 -52l61 -145h-144l-74 159q-8 17 -21.5 25t-36.5 8h-122v98h145q87 0 94 85h-265z" />
    <glyph glyph-name="uni20A9" unicode="&#x20a9;" horiz-adv-x="804" 
d="M274 244q2 18 5 35q2 14 4 28.5t4 22.5l8 33h-49l3 -16q2 -12 4 -29l4 -34q2 -19 4 -40h13zM543 244q2 21 4 40l4 34t4 29l3 16h-49l8 -33q2 -8 4 -22.5t4 -28.5q3 -17 5 -35h13zM18 445h79l-37 205h136l36 -205h83l46 185h82l45 -185h84l36 205h136l-37 -205h79v-82h-94
l-15 -85h109v-82h-124l-35 -196h-144l-64 261q-2 5 -3.5 19.5t-3.5 28.5q-2 17 -4 36h-12q-2 -19 -4 -36q-2 -14 -3.5 -28.5t-3.5 -19.5l-64 -261h-144l-36 196h-123v82h109l-16 85h-93v82z" />
    <glyph glyph-name="uni20AA" unicode="&#x20aa;" horiz-adv-x="860" 
d="M810 520v-354q0 -48 -12 -79.5t-35 -51t-56 -27.5t-75 -8h-367v340h125v-228h195q50 0 70 20.5t20 68.5v319h135zM470 180v138q0 48 -18.5 69t-68.5 21h-198v-408h-135v520h364q42 0 75.5 -8t57 -27.5t36 -51.5t12.5 -79v-174h-125z" />
    <glyph glyph-name="Euro" unicode="&#x20ac;" horiz-adv-x="496" 
d="M45 422h52q17 123 82 175.5t175 52.5q23 0 43.5 -2.5t37.5 -5.5q19 -4 36 -8q-5 -30 -9 -56.5t-7 -42.5l-11 -6l-26 4q-11 2 -25 3.5t-28 1.5q-54 0 -86 -26t-43 -90h205l-13 -82h-199v-50h192l-11 -82h-175q11 -60 41 -84t84 -24q13 0 27 2t27 4q14 3 29 7l11 -6
q2 -15 4 -32q2 -14 4 -31.5t4 -35.5q-1 0 -11 -3t-27.5 -7t-40 -7t-48.5 -3q-50 0 -91.5 10t-73 35t-52 67.5t-28.5 107.5h-82l33 82h45v50h-78z" />
    <glyph glyph-name="uni2113" unicode="&#x2113;" horiz-adv-x="445" 
d="M214 330q46 21 59 51t13 74v47q0 36 -8 50.5t-28 14.5t-28 -16t-8 -49v-172zM267 -12q-50 0 -84 13.5t-55.5 38.5t-32 60t-11.5 78l-2 2l-50 -21q-7 18 -14 37t-13 36l79 38v200q0 104 39.5 153t126.5 49q82 0 118 -42.5t36 -133.5q0 -48 -6 -85.5t-22.5 -67t-44.5 -52
t-72 -41.5l-45 -21v-30q0 -30 3.5 -49t12 -30t22 -15.5t33.5 -4.5q25 0 50 5q13 3 25 6l11 -6v-99q-14 -5 -31 -9q-14 -4 -33 -6.5t-40 -2.5z" />
    <glyph glyph-name="trademark" unicode="&#x2122;" horiz-adv-x="574" 
d="M550 660v-330h-75v127l2 64l-9 1l-12 -49l-43 -131h-32l-44 131l-11 49l-9 -1l2 -64v-127h-75v330h96l40 -115q2 -7 4.5 -16.5t4.5 -18.5l4 -22h8q2 10 4 21q2 9 4 18.5t5 17.5l40 115h96zM20 660h190v-60h-58v-270h-75v270h-57v60z" />
    <glyph glyph-name="Omega" unicode="&#x2126;" horiz-adv-x="566" 
d="M313 201q15 7 28 16t23 24.5t15.5 39t5.5 59.5v86q0 60 -25.5 96.5t-76.5 36.5t-76 -36.5t-25 -96.5v-86q0 -36 4.5 -59t13.5 -38t22.5 -24t30.5 -18v-201h-210v112h120v27q-60 24 -90 82t-30 159v22q0 132 58.5 201t175.5 69h12q117 0 175.5 -69t58.5 -201v-22
q0 -101 -30 -159t-90 -82v-27h120v-112h-210v201z" />
    <glyph glyph-name="estimated" unicode="&#x212e;" horiz-adv-x="855" 
d="M810 319h-619q-5 0 -5 -4v-187q0 -12 8 -22q45 -48 105.5 -74.5t129.5 -26.5q74 0 137.5 30t108.5 83h56q-52 -62 -131 -98t-172 -36q-79 0 -149 27t-122 73.5t-82 109t-30 134.5q0 71 30 134t82 109.5t122 73.5t149 27t148.5 -27t121.5 -73.5t82 -109.5t30 -134v-9z
M671 343v188q0 13 -10 23q-45 45 -104.5 71t-127.5 26q-69 0 -129 -26.5t-105 -73.5q-9 -11 -9 -24v-184q0 -5 5 -5h475q5 0 5 5z" />
    <glyph glyph-name="onethird" unicode="&#x2153;" horiz-adv-x="747" 
d="M726 122q0 -56 -34 -92t-116 -36q-23 0 -42 2.5t-33 5.5q-17 4 -30 9q0 11 1 22.5t2 22.5q1 12 3 25l8 4q13 -3 25 -5q11 -2 23.5 -3t23.5 -1q69 0 69 50q0 21 -14 32.5t-50 11.5h-53v67h62q21 1 33.5 11t12.5 33q0 19 -12.5 30t-44.5 11q-13 0 -25 -2.5t-22 -4.5
q-11 -4 -22 -7l-8 4l-2 24q-1 11 -2.5 23t-2.5 23q14 6 32 11q14 4 33.5 7.5t41.5 3.5q34 0 59 -8.5t41 -23.5t24 -34.5t8 -41.5q0 -53 -38 -80v-2q22 -14 35.5 -35.5t13.5 -56.5zM25 582l108 78h63v-398h-98v268h-73v52zM501 672h100l-412 -684h-100z" />
    <glyph glyph-name="twothirds" unicode="&#x2154;" horiz-adv-x="830" 
d="M809 122q0 -56 -34 -92t-116 -36q-23 0 -42 2.5t-33 5.5q-17 4 -30 9q0 11 1 22.5t2 22.5q1 12 3 25l8 4q13 -3 25 -5q11 -2 23.5 -3t23.5 -1q69 0 69 50q0 21 -14 32.5t-50 11.5h-53v67h62q21 1 33.5 11t12.5 33q0 19 -12.5 30t-44.5 11q-13 0 -25 -2.5t-22 -4.5
q-11 -4 -22 -7l-8 4l-2 24q-1 11 -2.5 23t-2.5 23q14 6 32 11q14 4 33.5 7.5t41.5 3.5q34 0 59 -8.5t41 -23.5t24 -34.5t8 -41.5q0 -53 -38 -80v-2q22 -14 35.5 -35.5t13.5 -56.5zM290 544q0 -26 -6.5 -45t-18.5 -35t-29.5 -31.5t-39.5 -34.5l-38 -32q-10 -8 -12 -11t-2 -8
v-3h140v-82h-254v69q0 16 4 28.5t13.5 24.5t24 25t35.5 31l30 25q32 26 43.5 40.5t11.5 31.5t-13 32t-52 15q-14 0 -27 -3t-24 -6q-13 -4 -25 -8l-9 4q-1 10 -2 21q-1 10 -1.5 22.5t-1.5 26.5l9 4t24 8.5t35.5 8.5t43.5 4q68 0 104.5 -35t36.5 -87zM578 672h100l-412 -684
h-100z" />
    <glyph glyph-name="oneeighth" unicode="&#x215b;" horiz-adv-x="771" 
d="M541 292q0 -14 9 -23t34 -18l22 -8q17 14 24.5 24.5t7.5 24.5q0 17 -11.5 27t-36.5 10t-37 -10t-12 -27zM574 162q-35 -20 -35 -52q0 -17 12 -29t39 -12q26 0 38.5 11t12.5 30q0 16 -10 26t-37 19zM441 99q0 39 14.5 61.5t38.5 35.5v4q-20 14 -33 35t-13 53q0 55 38 85.5
t104 30.5q69 0 105 -29.5t36 -78.5q0 -26 -12 -47.5t-39 -34.5v-4q27 -16 43 -38.5t16 -59.5q0 -61 -38.5 -89.5t-110.5 -28.5q-32 0 -59 6t-47 18.5t-31.5 32.5t-11.5 48zM25 582l108 78h63v-398h-98v268h-73v52zM501 672h100l-412 -684h-100z" />
    <glyph glyph-name="threeeighths" unicode="&#x215c;" horiz-adv-x="809" 
d="M579 292q0 -14 9 -23t34 -18l22 -8q17 14 24.5 24.5t7.5 24.5q0 17 -11.5 27t-36.5 10t-37 -10t-12 -27zM612 162q-35 -20 -35 -52q0 -17 12 -29t39 -12q26 0 38.5 11t12.5 30q0 16 -10 26t-37 19zM479 99q0 39 14.5 61.5t38.5 35.5v4q-20 14 -33 35t-13 53q0 55 38 85.5
t104 30.5q69 0 105 -29.5t36 -78.5q0 -26 -12 -47.5t-39 -34.5v-4q27 -16 43 -38.5t16 -59.5q0 -61 -38.5 -89.5t-110.5 -28.5q-32 0 -59 6t-47 18.5t-31.5 32.5t-11.5 48zM275 384q0 -56 -34 -92t-116 -36q-23 0 -42 2.5t-33 5.5q-17 4 -30 9q0 11 1 22.5t2 22.5q1 12 3 25
l8 4q13 -3 25 -5q11 -2 23.5 -3t23.5 -1q69 0 69 50q0 21 -14 32.5t-50 11.5h-53v67h62q21 1 33.5 11t12.5 33q0 19 -12.5 30t-44.5 11q-13 0 -25 -2.5t-22 -4.5q-11 -4 -22 -7l-8 4l-2 24q-1 11 -2.5 23t-2.5 23q14 6 32 11q14 4 33.5 7.5t41.5 3.5q34 0 59 -8.5t41 -23.5
t24 -34.5t8 -41.5q0 -53 -38 -80v-2q22 -14 35.5 -35.5t13.5 -56.5zM540 672h100l-412 -684h-100z" />
    <glyph glyph-name="fiveeighths" unicode="&#x215d;" horiz-adv-x="810" 
d="M580 292q0 -14 9 -23t34 -18l22 -8q17 14 24.5 24.5t7.5 24.5q0 17 -11.5 27t-36.5 10t-37 -10t-12 -27zM613 162q-35 -20 -35 -52q0 -17 12 -29t39 -12q26 0 38.5 11t12.5 30q0 16 -10 26t-37 19zM480 99q0 39 14.5 61.5t38.5 35.5v4q-20 14 -33 35t-13 53q0 55 38 85.5
t104 30.5q69 0 105 -29.5t36 -78.5q0 -26 -12 -47.5t-39 -34.5v-4q27 -16 43 -38.5t16 -59.5q0 -61 -38.5 -89.5t-110.5 -28.5q-32 0 -59 6t-47 18.5t-31.5 32.5t-11.5 48zM274 388q0 -68 -35 -100t-98 -32q-23 0 -43 3.5t-35 7.5t-24 7.5l-9 3.5q0 11 1 22.5t2 22.5
q1 12 3 25l8 4q14 -4 27 -7q11 -3 24 -5t24 -2q30 0 43.5 13.5t13.5 43.5v3q0 24 -11.5 38t-34.5 14q-11 0 -19.5 -2.5t-15.5 -5.5q-8 -4 -14 -8l-49 12l12 214h206v-82h-114l-3 -70h1q8 3 18.5 6t23.5 3q49 0 73.5 -29.5t24.5 -82.5v-17zM540 672h100l-412 -684h-100z" />
    <glyph glyph-name="seveneighths" unicode="&#x215e;" horiz-adv-x="735" 
d="M505 292q0 -14 9 -23t34 -18l22 -8q17 14 24.5 24.5t7.5 24.5q0 17 -11.5 27t-36.5 10t-37 -10t-12 -27zM538 162q-35 -20 -35 -52q0 -17 12 -29t39 -12q26 0 38.5 11t12.5 30q0 16 -10 26t-37 19zM405 99q0 39 14.5 61.5t38.5 35.5v4q-20 14 -33 35t-13 53q0 55 38 85.5
t104 30.5q69 0 105 -29.5t36 -78.5q0 -26 -12 -47.5t-39 -34.5v-4q27 -16 43 -38.5t16 -59.5q0 -61 -38.5 -89.5t-110.5 -28.5q-32 0 -59 6t-47 18.5t-31.5 32.5t-11.5 48zM15 658h255v-81l-132 -315h-105l130 302v12h-148v82zM467 672h100l-412 -684h-100z" />
    <glyph glyph-name="partialdiff" unicode="&#x2202;" horiz-adv-x="474" 
d="M312 313q0 51 -19.5 76t-55.5 25t-55.5 -25t-19.5 -76v-115q0 -51 19.5 -76.5t55.5 -25.5t55.5 25.5t19.5 76.5v115zM447 239q0 -120 -55 -185.5t-149 -65.5h-13q-94 0 -148.5 65.5t-54.5 185.5v31q0 128 49.5 190t128.5 62q36 0 60.5 -13t37.5 -28l4 3q-13 67 -61 108
t-124 63l-28 8q6 19 11.5 38t11.5 39q162 -14 246 -106t84 -260v-135z" />
    <glyph glyph-name="Delta" unicode="&#x2206;" horiz-adv-x="552" 
d="M171 112h210l-73 245l-22 144h-20l-22 -144zM522 0h-492v107l170 553h152l170 -553v-107z" />
    <glyph glyph-name="product" unicode="&#x220f;" horiz-adv-x="554" 
d="M362 548h-170v-548h-135v660h440v-660h-135v548z" />
    <glyph glyph-name="summation" unicode="&#x2211;" horiz-adv-x="417" 
d="M218 146q-3 -6 -7 -11t-7 -9q-4 -4 -7 -9v-5h190v-112h-357v68l140 265l-140 223v104h347v-112h-194v-7q5 -3 10 -8q8 -9 22 -28l106 -165z" />
    <glyph glyph-name="minus" unicode="&#x2212;" 
d="M50 250v97h400v-97h-400z" />
    <glyph glyph-name="radical" unicode="&#x221a;" horiz-adv-x="583" 
d="M447 760h100l-207 -860h-146l-76 351h-108v97h187l60 -278l7 -60h8l9 60z" />
    <glyph glyph-name="infinity" unicode="&#x221e;" horiz-adv-x="792" 
d="M590 385q-18 0 -32.5 -4.5t-28.5 -14.5t-28.5 -26.5t-32.5 -40.5l-18 -25l18 -27q29 -43 58.5 -65t63.5 -22q16 0 31 5.5t27 19t19 35t7 53.5q0 31 -7 52.5t-19 34.5t-27 19t-31 6zM201 160q38 0 64.5 21.5t57.5 65.5l19 27l-19 24q-19 24 -33 40.5t-27.5 27t-28 15
t-33.5 4.5q-15 0 -30 -6t-27 -19.5t-19.5 -35t-7.5 -53.5q0 -31 7.5 -52.5t19.5 -34.5t27 -18.5t30 -5.5zM590 482q36 0 68.5 -10t58 -34t40.5 -64t15 -101q0 -60 -15.5 -100.5t-41 -65t-58 -34.5t-67.5 -10t-60 9t-46.5 26t-42 42.5t-44.5 57.5h-4q-25 -32 -45 -57.5
t-41.5 -42.5t-46.5 -26t-59 -9q-35 0 -68 10t-58 34t-40 64t-15 100q0 61 15 102t40 65t57.5 34t68.5 10q34 0 59 -9t46 -26.5t41.5 -42.5t44.5 -57h6q25 34 45.5 59t42 42t46.5 25.5t58 8.5z" />
    <glyph glyph-name="integral" unicode="&#x222b;" horiz-adv-x="284" 
d="M171 -42q0 -45 -7 -77t-23.5 -53t-43 -30.5t-66.5 -9.5q-15 0 -27 1t-20 3q-10 2 -18 5v56l12 11q5 0 15.5 -0.5t21.5 -0.5q28 0 43.5 14.5t15.5 52.5v670q0 45 7 77t23.5 53t43 30.5t66.5 9.5q14 0 26.5 -1.5t20.5 -3.5q10 -2 18 -4v-56q-3 -3 -5.5 -6t-5.5 -5
q-5 0 -15.5 0.5t-22.5 0.5q-28 0 -43.5 -14.5t-15.5 -52.5v-670z" />
    <glyph glyph-name="approxequal" unicode="&#x2248;" 
d="M151 184q-19 0 -36.5 -6.5t-31 -15.5t-22.5 -17.5t-11 -12.5v98q14 17 42 34.5t66 17.5q32 0 53.5 -10t41 -22.5t39.5 -22.5t49 -10q20 0 40 7.5t35 17.5q18 11 34 26v-97q-7 -7 -17.5 -16t-25 -17t-31 -13.5t-35.5 -5.5q-32 0 -55 10t-43.5 22.5t-42 22.5t-49.5 10z
M151 362q-19 0 -36.5 -6.5t-31 -15.5t-22.5 -17.5t-11 -12.5v98q14 17 42 34.5t66 17.5q32 0 55 -10t43.5 -22.5t41.5 -22.5t50 -10q20 0 39 7.5t33 17.5q17 11 30 26v-97q-14 -15 -42.5 -33.5t-66.5 -18.5q-32 0 -55 10t-43.5 22.5t-42 22.5t-49.5 10z" />
    <glyph glyph-name="notequal" unicode="&#x2260;" 
d="M74 20l62 128h-86v97h132l44 90h-176v97h221l63 128h91l-63 -128h88v-97h-133l-44 -90h177v-97h-223l-62 -128h-91z" />
    <glyph glyph-name="lessequal" unicode="&#x2264;" 
d="M436 140h-24l-348 184v84l348 186h24v-98l-234 -129v-2l234 -129v-96zM64 0v97h372v-97h-372z" />
    <glyph glyph-name="greaterequal" unicode="&#x2265;" 
d="M64 594h24l348 -185v-83l-348 -186h-24v97l234 130v2l-234 128v97zM64 0v97h372v-97h-372z" />
    <glyph glyph-name="lozenge" unicode="&#x25ca;" horiz-adv-x="517" 
d="M143 316l114 -246h4l114 246l-114 246h-4l-114 -246v0zM317 -40h-116l-166 356l166 356h116l166 -356z" />
    <glyph glyph-name="uniF639" unicode="&#xf639;" 
d="M339 412q0 42 -7 70t-19 45t-28 24.5t-35 7.5t-35 -7.5t-28 -24.5t-19 -45t-7 -70v-165q0 -42 7 -70t19 -45t28 -24.5t35 -7.5t35 7.5t28 24.5t19 45t7 70v165zM256 672q47 0 87 -18t69.5 -55t46 -94t16.5 -135v-81q0 -78 -16.5 -135t-46 -94t-69.5 -54.5t-87 -17.5h-13
q-47 0 -86.5 17.5t-69 54.5t-46 94t-16.5 135v81q0 78 16.5 135t46 94t69 55t86.5 18h13z" />
    <glyph glyph-name="uniF63A" unicode="&#xf63a;" 
d="M460 468q0 -45 -11 -78t-31.5 -59.5t-48 -49.5t-60.5 -50l-74 -60q-25 -20 -31.5 -30t-6.5 -25v-4h253v-112h-400v80q0 30 4 54t14 44t27.5 39.5t43.5 40.5l118 96q35 29 51.5 54t16.5 57v5q0 17 -5.5 33t-18.5 28.5t-35 20t-55 7.5q-22 0 -44 -4.5t-41 -9.5
q-22 -6 -42 -14l-13 6q-2 14 -4 30q-2 14 -3.5 30t-2.5 33l13.5 7t37 14.5t56.5 14t72 6.5q54 0 95.5 -14.5t69 -40.5t41.5 -61.5t14 -78.5v-9z" />
    <glyph glyph-name="uniF63B" unicode="&#xf63b;" 
d="M440 191q0 -45 -15 -82t-44 -64t-71.5 -42t-97.5 -15q-36 0 -66.5 5t-52.5 11t-34.5 11.5l-12.5 5.5q1 16 2.5 32t3.5 30q2 16 4 30l13 7q20 -6 39 -10q17 -4 36.5 -7t38.5 -3q33 0 56 8t38 21.5t21.5 31.5t6.5 38v5q0 38 -25 62t-87 24h-83v98h96q36 0 60.5 23.5
t24.5 62.5v5q0 33 -23 57t-79 24q-18 0 -37.5 -3.5t-35.5 -8.5q-19 -5 -37 -11l-14 6q-2 14 -4 30q-2 14 -3.5 29.5t-2.5 32.5l12 6t33.5 13t52 12.5t66.5 5.5q52 0 89.5 -14t62.5 -37t37 -54.5t12 -65.5v-9q0 -46 -19 -79.5t-50 -53.5v-3q37 -20 63 -59.5t26 -96.5v-9z" />
    <glyph glyph-name="uniF63C" unicode="&#xf63c;" 
d="M211 660h140l-175 -445h114l35 185h100v-185h65v-112h-65v-103h-135v103h-255v111z" />
    <glyph glyph-name="uniF63D" unicode="&#xf63d;" 
d="M442 207q0 -108 -52 -163.5t-155 -55.5q-37 0 -69 5.5t-55.5 12t-37 12l-13.5 5.5q2 17 3.5 33t3.5 30q2 16 4 30l12 6q21 -7 43 -11q19 -5 40 -8t40 -3q55 0 78 28t23 81v14q0 41 -19.5 65t-64.5 24q-17 0 -31.5 -4t-25.5 -9q-12 -6 -23 -13l-81 19l20 355h320v-112
h-192l-8 -143h2q12 6 32 11.5t43 5.5q79 0 121 -46.5t42 -135.5v-33z" />
    <glyph glyph-name="uniF63E" unicode="&#xf63e;" 
d="M253 316q-23 0 -45 -8t-38 -18v-35q0 -48 6 -78t17 -47t26 -23.5t33 -6.5q36 0 57 25.5t21 72.5v31q0 44 -20.5 65.5t-56.5 21.5zM311 560q-36 0 -61.5 -9t-43 -29.5t-26.5 -53.5t-10 -82h2q20 14 53 28t77 14q40 0 71 -14t51 -39t30.5 -59.5t10.5 -75.5v-32
q0 -50 -12.5 -90.5t-38.5 -69t-66 -44.5t-96 -16q-109 0 -163 70t-54 217v65q0 175 66.5 253.5t195.5 78.5q25 0 46 -3t38 -7q18 -4 35 -9q-2 -16 -3.5 -33.5t-3.5 -32.5t-3 -25t-1 -11l-11 -6q-13 3 -26 7q-12 3 -26.5 5.5t-30.5 2.5z" />
    <glyph glyph-name="uniF63F" unicode="&#xf63f;" 
d="M45 660h410v-113l-230 -547h-147l236 539v9h-269v112z" />
    <glyph glyph-name="uniF640" unicode="&#xf640;" 
d="M166 490q0 -30 20.5 -48t58.5 -35l30 -13q22 18 40 42t18 54q0 32 -20.5 51t-62.5 19t-63 -19t-21 -51zM224 279q-29 -17 -45.5 -42t-16.5 -60t22.5 -56t65.5 -21q42 0 65 19.5t23 57.5q0 27 -16 47.5t-67 41.5zM27 167q0 57 24.5 96t66.5 61v8q-16 12 -30.5 26
t-25.5 32.5t-17.5 42t-6.5 52.5q0 47 15.5 82t44 58.5t67 35t85.5 11.5q46 0 85 -11.5t67 -34t43.5 -55.5t15.5 -76q0 -46 -21.5 -82.5t-67.5 -58.5v-6q46 -29 73.5 -69t27.5 -97q0 -98 -59.5 -146t-163.5 -48q-47 0 -87.5 10t-70.5 31.5t-47.5 55.5t-17.5 82z" />
    <glyph glyph-name="uniF641" unicode="&#xf641;" 
d="M246 344q23 0 45 6t39 16v38q0 87 -20.5 121.5t-59.5 34.5q-37 0 -58.5 -27.5t-21.5 -75.5v-22q0 -47 20.5 -69t55.5 -22zM192 100q34 0 59 8.5t42 29t26 53.5t10 81q-24 -17 -55 -28.5t-69 -11.5q-81 0 -125.5 51.5t-44.5 137.5v31q0 52 15.5 92.5t43.5 69t68 43.5
t88 15q106 0 160.5 -70t54.5 -195v-87q0 -88 -16.5 -150.5t-49.5 -103t-82 -59.5t-115 -19q-24 0 -45.5 2.5t-37.5 6.5q-19 4 -35 10q1 16 3 33.5t3.5 32.5t3 24.5t1.5 10.5l11 6q14 -4 28 -7q12 -3 27 -5t31 -2z" />
    <glyph glyph-name="uniF643" unicode="&#xf643;" 
d="M339 286q0 68 -24.5 101t-64.5 33q-41 0 -65 -33t-24 -101v-52q0 -68 24 -101t65 -33q40 0 64.5 33t24.5 101v52zM256 532q47 0 87 -17.5t69.5 -50.5t46 -81.5t16.5 -111.5v-22q0 -63 -16.5 -111.5t-46 -82t-69.5 -50.5t-87 -17h-12q-47 0 -87 17t-69.5 50.5t-46 82
t-16.5 111.5v22q0 63 16.5 111.5t46 81.5t69.5 50.5t87 17.5h12z" />
    <glyph glyph-name="uniF644" unicode="&#xf644;" 
d="M75 393l177 127h80v-408h113v-112h-380v112h132v241l-3 2l-48 -34h-71v72z" />
    <glyph glyph-name="uniF645" unicode="&#xf645;" 
d="M450 352q0 -33 -9 -59t-24.5 -47.5t-36.5 -40t-46 -36.5l-81 -59l2 -6l50 8h145v-112h-400v101l149 114q33 25 55 42.5t35.5 32t19.5 28t6 30.5q0 32 -24.5 52t-78.5 20q-22 0 -44.5 -4.5t-40.5 -9.5q-22 -6 -42 -14l-13 6q-2 14 -4 30q-2 14 -3.5 30t-2.5 33
q21 11 48 20q23 8 55 14.5t72 6.5q99 0 156 -47.5t57 -132.5z" />
    <glyph glyph-name="uniF646" unicode="&#xf646;" 
d="M443 58q0 -44 -15 -80.5t-44 -63t-71.5 -41.5t-97.5 -15q-36 0 -66.5 5t-52.5 11t-34.5 11.5l-12.5 5.5q1 15 2.5 31.5t3.5 30.5q2 16 4 31l13 6q20 -6 39 -10q17 -4 36.5 -7t38.5 -3q33 0 56 7.5t38 20.5t21.5 30t6.5 36v5q0 19 -6 35t-19 28t-34.5 18.5t-52.5 6.5h-83
v98h96q36 0 61 22t25 60v5q0 33 -23.5 55.5t-79.5 22.5q-18 0 -37.5 -3.5t-35.5 -7.5q-19 -5 -37 -11l-14 6q-2 14 -4 30q-2 14 -3.5 30t-2.5 32l12 6t33.5 12.5t52 12t66.5 5.5q52 0 89.5 -13.5t62.5 -36.5t37 -53.5t12 -64.5v-9q0 -46 -19 -79t-50 -53v-3q37 -19 63 -57.5
t26 -95.5v-9z" />
    <glyph glyph-name="uniF647" unicode="&#xf647;" 
d="M197 520h140l-162 -408h115l35 185h100v-185h65v-112h-65v-130h-135v130h-255v112z" />
    <glyph glyph-name="uniF648" unicode="&#xf648;" 
d="M450 74q0 -106 -52 -161t-155 -55q-37 0 -69 5t-55.5 11.5t-37 12l-13.5 5.5q2 17 3.5 34t3.5 31q2 16 4 29l12 6q21 -7 43 -11q19 -5 40 -8t40 -3q55 0 78 27t23 79v14q0 40 -19.5 61.5t-64.5 21.5q-17 0 -31.5 -4t-25.5 -9q-12 -5 -23 -12l-81 18l20 354h320v-112h-192
l-8 -143h2q12 6 33 11.5t44 5.5q79 0 120 -44t41 -132v-32z" />
    <glyph glyph-name="uniF649" unicode="&#xf649;" 
d="M263 308q-23 0 -45 -7.5t-38 -16.5v-36q0 -44 6 -73t17 -45.5t26 -23t33 -6.5q36 0 57 25.5t21 71.5v25q0 44 -20.5 65t-56.5 21zM319 540q-71 0 -103.5 -37.5t-35.5 -123.5h2q20 14 53 27.5t77 13.5q40 0 71 -13.5t51 -38.5t30.5 -59t10.5 -75v-28q0 -49 -12.5 -89
t-38.5 -68.5t-66 -44.5t-96 -16q-109 0 -163 69.5t-54 215.5v60q0 159 67 239t195 80q24 0 45 -3t38 -7q19 -4 36 -9q-2 -17 -3.5 -34.5t-3.5 -32.5q-2 -18 -4 -34l-11 -6q-13 3 -27 7q-12 2 -27.5 4.5t-30.5 2.5z" />
    <glyph glyph-name="uniF64A" unicode="&#xf64a;" 
d="M45 520h410v-113l-226 -537h-147l232 529v9h-269v112z" />
    <glyph glyph-name="uniF64B" unicode="&#xf64b;" 
d="M166 475q0 -20 14 -36.5t50 -33.5l47 -20q22 18 39.5 39.5t17.5 50.5t-21 47t-63 18t-63 -18t-21 -47zM222 270q-27 -17 -43.5 -39t-16.5 -56t22.5 -54.5t65.5 -20.5q44 0 66 19.5t22 52.5q0 23 -11.5 41t-51.5 35zM27 162q0 58 24.5 95.5t67.5 60.5v4q-33 23 -56.5 56
t-23.5 87q0 47 15 82t43 58.5t67 35t86 11.5t86 -10.5t66.5 -32t43 -53.5t15.5 -74q0 -45 -21.5 -80t-66.5 -58v-6q45 -24 72.5 -61.5t27.5 -94.5q0 -100 -58 -147t-165 -47q-45 0 -85.5 9t-71 29.5t-48.5 53.5t-18 82z" />
    <glyph glyph-name="uniF64C" unicode="&#xf64c;" 
d="M246 212q23 0 45 6t39 15v35q0 85 -20.5 118.5t-59.5 33.5q-37 0 -58.5 -26.5t-21.5 -74.5v-18q0 -46 20.5 -67.5t55.5 -21.5zM192 -30q67 0 101 42.5t37 125.5l-3 1q-27 -17 -59.5 -28t-69.5 -11q-81 0 -122 51t-41 134v30q0 51 15.5 91.5t43.5 68t68 42.5t88 15
q106 0 160.5 -69t54.5 -192v-86q0 -86 -16.5 -148t-49.5 -102t-82 -58.5t-115 -18.5q-24 0 -45.5 2.5t-37.5 6.5q-19 4 -35 10q1 16 3 33.5t3.5 32t3 24.5t1.5 11l11 6q14 -4 28 -7q12 -3 27 -5t31 -2z" />
    <glyph glyph-name="uniF655" unicode="&#xf655;" horiz-adv-x="356" 
d="M228 242q0 44 -13.5 62t-36.5 18t-36.5 -18t-13.5 -62v-86q0 -44 13.5 -62t36.5 -18t36.5 18t13.5 62v86zM182 404q31 0 57.5 -10.5t45.5 -32t30 -55.5t11 -82v-50q0 -48 -11 -82t-30 -55.5t-45.5 -32t-57.5 -10.5h-8q-31 0 -57.5 10.5t-45.5 32t-30 55.5t-11 82v50
q0 48 11 82t30 55.5t45.5 32t57.5 10.5h8z" />
    <glyph glyph-name="uniF656" unicode="&#xf656;" horiz-adv-x="247" 
d="M25 320l108 78h63v-398h-98v268h-73v52z" />
    <glyph glyph-name="uniF657" unicode="&#xf657;" horiz-adv-x="320" 
d="M290 282q0 -26 -6.5 -45t-18.5 -35t-29.5 -31.5t-39.5 -34.5l-38 -32q-10 -8 -12 -11t-2 -8v-3h140v-82h-254v69q0 16 4 28.5t13.5 24.5t24 25t35.5 31l30 25q32 26 43.5 40.5t11.5 31.5t-13 32t-52 15q-14 0 -27 -3t-24 -6q-13 -4 -25 -8l-9 4q-1 10 -2 21
q-1 10 -1.5 22.5t-1.5 26.5l9 4t24 8.5t35.5 8.5t43.5 4q68 0 104.5 -35t36.5 -87z" />
    <glyph glyph-name="uniF658" unicode="&#xf658;" horiz-adv-x="296" 
d="M275 122q0 -56 -34 -92t-116 -36q-23 0 -42 2.5t-33 5.5q-17 4 -30 9q0 11 1 22.5t2 22.5q1 12 3 25l8 4q13 -3 25 -5q11 -2 23.5 -3t23.5 -1q69 0 69 50q0 21 -14 32.5t-50 11.5h-53v67h62q21 1 33.5 11t12.5 33q0 19 -12.5 30t-44.5 11q-13 0 -25 -2.5t-22 -4.5
q-11 -4 -22 -7l-8 4l-2 24q-1 11 -2.5 23t-2.5 23q14 6 32 11q14 4 33.5 7.5t41.5 3.5q34 0 59 -8.5t41 -23.5t24 -34.5t8 -41.5q0 -53 -38 -80v-2q22 -14 35.5 -35.5t13.5 -56.5z" />
    <glyph glyph-name="uniF659" unicode="&#xf659;" horiz-adv-x="326" 
d="M112 396h96l-97 -249h62l29 103h61v-103h48v-82h-48v-65h-98v65h-150v84z" />
    <glyph glyph-name="uniF65A" unicode="&#xf65a;" horiz-adv-x="299" 
d="M274 126q0 -68 -35 -100t-98 -32q-23 0 -43 3.5t-35 7.5t-24 7.5l-9 3.5q0 11 1 22.5t2 22.5q1 12 3 25l8 4q14 -4 27 -7q11 -3 24 -5t24 -2q30 0 43.5 13.5t13.5 43.5v3q0 24 -11.5 38t-34.5 14q-11 0 -19.5 -2.5t-15.5 -5.5q-8 -4 -14 -8l-49 12l12 214h206v-82h-114
l-3 -70h1q8 3 18.5 6t23.5 3q49 0 73.5 -29.5t24.5 -82.5v-17z" />
    <glyph glyph-name="uniF65B" unicode="&#xf65b;" horiz-adv-x="350" 
d="M177 178q-18 0 -32.5 -5.5t-16.5 -7.5v-19q0 -70 47 -70q22 0 34.5 13.5t12.5 40.5v3q0 22 -10 33.5t-35 11.5zM217 322q-45 0 -66 -20.5t-23 -66.5q15 11 37.5 18.5t45.5 7.5q51 0 80 -31.5t29 -82.5v-19q0 -60 -38 -97t-107 -37q-65 0 -105 42t-40 130v39q0 103 48 151
t130 48q16 0 30.5 -2t26.5 -4l26 -6q-2 -11 -2.5 -24t-2.5 -24q-2 -13 -3 -27l-7 -4q-9 2 -19 4q-8 2 -18.5 3.5t-21.5 1.5z" />
    <glyph glyph-name="uniF65C" unicode="&#xf65c;" horiz-adv-x="285" 
d="M15 396h255v-81l-132 -315h-105l130 302v12h-148v82z" />
    <glyph glyph-name="uniF65D" unicode="&#xf65d;" horiz-adv-x="362" 
d="M132 292q0 -14 9 -23t34 -18l22 -8q17 14 24.5 24.5t7.5 24.5q0 17 -11.5 27t-36.5 10t-37 -10t-12 -27zM165 162q-35 -20 -35 -52q0 -17 12 -29t39 -12q26 0 38.5 11t12.5 30q0 16 -10 26t-37 19zM32 99q0 39 14.5 61.5t38.5 35.5v4q-20 14 -33 35t-13 53q0 55 38 85.5
t104 30.5q69 0 105 -29.5t36 -78.5q0 -26 -12 -47.5t-39 -34.5v-4q27 -16 43 -38.5t16 -59.5q0 -61 -38.5 -89.5t-110.5 -28.5q-32 0 -59 6t-47 18.5t-31.5 32.5t-11.5 48z" />
    <glyph glyph-name="uniF65E" unicode="&#xf65e;" horiz-adv-x="350" 
d="M172 220q20 0 34 6t16 8v18q0 70 -47 70t-47 -53q0 -23 10 -36t34 -13zM132 76q48 0 68.5 20.5t20.5 67.5q-14 -11 -36.5 -18.5t-46.5 -7.5q-54 0 -81 29.5t-27 81.5v17q0 63 37.5 100.5t107.5 37.5q68 0 106.5 -41.5t38.5 -129.5v-40q0 -103 -48 -151t-130 -48
q-33 0 -58 5q-13 3 -25 6q1 11 1.5 24t2.5 24q1 13 3 27l7 4q9 -2 20 -4q9 -2 19.5 -3t19.5 -1z" />
    <glyph glyph-name="uniF661" unicode="&#xf661;" horiz-adv-x="356" 
d="M228 504q0 44 -13.5 62t-36.5 18t-36.5 -18t-13.5 -62v-86q0 -44 13.5 -62t36.5 -18t36.5 18t13.5 62v86zM182 666q31 0 57.5 -10.5t45.5 -32t30 -55.5t11 -82v-50q0 -48 -11 -82t-30 -55.5t-45.5 -32t-57.5 -10.5h-8q-31 0 -57.5 10.5t-45.5 32t-30 55.5t-11 82v50
q0 48 11 82t30 55.5t45.5 32t57.5 10.5h8z" />
    <glyph glyph-name="uniF662" unicode="&#xf662;" horiz-adv-x="247" 
d="M25 582l108 78h63v-398h-98v268h-73v52z" />
    <glyph glyph-name="uniF663" unicode="&#xf663;" horiz-adv-x="320" 
d="M290 544q0 -26 -6.5 -45t-18.5 -35t-29.5 -31.5t-39.5 -34.5l-38 -32q-10 -8 -12 -11t-2 -8v-3h140v-82h-254v69q0 16 4 28.5t13.5 24.5t24 25t35.5 31l30 25q32 26 43.5 40.5t11.5 31.5t-13 32t-52 15q-14 0 -27 -3t-24 -6q-13 -4 -25 -8l-9 4q-1 10 -2 21
q-1 10 -1.5 22.5t-1.5 26.5l9 4t24 8.5t35.5 8.5t43.5 4q68 0 104.5 -35t36.5 -87z" />
    <glyph glyph-name="uniF664" unicode="&#xf664;" horiz-adv-x="296" 
d="M275 384q0 -56 -34 -92t-116 -36q-23 0 -42 2.5t-33 5.5q-17 4 -30 9q0 11 1 22.5t2 22.5q1 12 3 25l8 4q13 -3 25 -5q11 -2 23.5 -3t23.5 -1q69 0 69 50q0 21 -14 32.5t-50 11.5h-53v67h62q21 1 33.5 11t12.5 33q0 19 -12.5 30t-44.5 11q-13 0 -25 -2.5t-22 -4.5
q-11 -4 -22 -7l-8 4l-2 24q-1 11 -2.5 23t-2.5 23q14 6 32 11q14 4 33.5 7.5t41.5 3.5q34 0 59 -8.5t41 -23.5t24 -34.5t8 -41.5q0 -53 -38 -80v-2q22 -14 35.5 -35.5t13.5 -56.5z" />
    <glyph glyph-name="uniF665" unicode="&#xf665;" horiz-adv-x="326" 
d="M112 658h96l-97 -249h62l29 103h61v-103h48v-82h-48v-65h-98v65h-150v84z" />
    <glyph glyph-name="uniF666" unicode="&#xf666;" horiz-adv-x="299" 
d="M274 388q0 -68 -35 -100t-98 -32q-23 0 -43 3.5t-35 7.5t-24 7.5l-9 3.5q0 11 1 22.5t2 22.5q1 12 3 25l8 4q14 -4 27 -7q11 -3 24 -5t24 -2q30 0 43.5 13.5t13.5 43.5v3q0 24 -11.5 38t-34.5 14q-11 0 -19.5 -2.5t-15.5 -5.5q-8 -4 -14 -8l-49 12l12 214h206v-82h-114
l-3 -70h1q8 3 18.5 6t23.5 3q49 0 73.5 -29.5t24.5 -82.5v-17z" />
    <glyph glyph-name="uniF667" unicode="&#xf667;" horiz-adv-x="350" 
d="M177 440q-18 0 -32.5 -5.5t-16.5 -7.5v-19q0 -70 47 -70q22 0 34.5 13.5t12.5 40.5v3q0 22 -10 33.5t-35 11.5zM217 584q-45 0 -66 -20.5t-23 -66.5q15 11 37.5 18.5t45.5 7.5q51 0 80 -31.5t29 -82.5v-19q0 -60 -38 -97t-107 -37q-65 0 -105 42t-40 130v39q0 103 48 151
t130 48q16 0 30.5 -2t26.5 -4l26 -6q-2 -11 -2.5 -24t-2.5 -24q-2 -13 -3 -27l-7 -4q-9 2 -19 4q-8 2 -18.5 3.5t-21.5 1.5z" />
    <glyph glyph-name="uniF668" unicode="&#xf668;" horiz-adv-x="285" 
d="M15 658h255v-81l-132 -315h-105l130 302v12h-148v82z" />
    <glyph glyph-name="uniF669" unicode="&#xf669;" horiz-adv-x="362" 
d="M132 554q0 -14 9 -23t34 -18l22 -8q17 14 24.5 24.5t7.5 24.5q0 17 -11.5 27t-36.5 10t-37 -10t-12 -27zM165 424q-35 -20 -35 -52q0 -17 12 -29t39 -12q26 0 38.5 11t12.5 30q0 16 -10 26t-37 19zM32 361q0 39 14.5 61.5t38.5 35.5v4q-20 14 -33 35t-13 53q0 55 38 85.5
t104 30.5q69 0 105 -29.5t36 -78.5q0 -26 -12 -47.5t-39 -34.5v-4q27 -16 43 -38.5t16 -59.5q0 -61 -38.5 -89.5t-110.5 -28.5q-32 0 -59 6t-47 18.5t-31.5 32.5t-11.5 48z" />
    <glyph glyph-name="uniF66A" unicode="&#xf66a;" horiz-adv-x="350" 
d="M172 482q20 0 34 6t16 8v18q0 70 -47 70t-47 -53q0 -23 10 -36t34 -13zM132 338q48 0 68.5 20.5t20.5 67.5q-14 -11 -36.5 -18.5t-46.5 -7.5q-54 0 -81 29.5t-27 81.5v17q0 63 37.5 100.5t107.5 37.5q68 0 106.5 -41.5t38.5 -129.5v-40q0 -103 -48 -151t-130 -48
q-33 0 -58 5q-13 3 -25 6q1 11 1.5 24t2.5 24q1 13 3 27l7 4q9 -2 20 -4q9 -2 19.5 -3t19.5 -1z" />
    <glyph glyph-name="uniF66D" unicode="&#xf66d;" horiz-adv-x="514" 
d="M404 752q0 -30 -7 -56t-24 -45.5t-45 -31t-70 -11.5t-69.5 11.5t-44.5 31t-24 45.5t-7 56h83q0 -21 14 -41.5t48 -20.5t49 20.5t15 41.5h82zM253 438q-3 -21 -7 -40q-3 -17 -6.5 -33.5t-5.5 -27.5l-34 -131h113l-33 131q-3 11 -6 27.5t-6 33.5q-4 19 -7 40h-8zM340 100
h-166q-12 -44 -25 -100h-138l148 550h196l148 -550h-138z" />
    <glyph glyph-name="uniF66E" unicode="&#xf66e;" horiz-adv-x="514" 
d="M134 697h245v-83h-245v83zM253 438q-3 -21 -7 -40q-3 -17 -6.5 -33.5t-5.5 -27.5l-34 -131h113l-33 131q-3 11 -6 27.5t-6 33.5q-4 19 -7 40h-8zM340 100h-166q-12 -44 -25 -100h-138l148 550h196l148 -550h-138z" />
    <glyph glyph-name="uniF66F" unicode="&#xf66f;" horiz-adv-x="514" 
d="M253 438q-3 -21 -7 -40q-3 -17 -6.5 -33.5t-5.5 -27.5l-34 -131h113l-33 131q-3 11 -6 27.5t-6 33.5q-4 19 -7 40h-8zM340 100h-166q-12 -44 -25 -100h-138l148 550h196l148 -550q-19 -25 -38.5 -54t-19.5 -55q0 -36 43 -36q6 0 12 0.5t11 1.5l12 2l8 -61q-8 -3 -19 -5
q-20 -5 -49 -5q-57 0 -82.5 22t-25.5 59q0 31 19.5 64t56.5 65v2h-66z" />
    <glyph glyph-name="uniF671" unicode="&#xf671;" horiz-adv-x="405" 
d="M391 706l-115 -97h-76l-9 17l83 123h117v-43zM394 8q-17 -6 -36 -10q-17 -4 -39.5 -7t-48.5 -3q-51 0 -93.5 13.5t-74 44t-49 80.5t-17.5 124v29q0 77 17.5 131t49.5 87.5t78.5 49t104.5 15.5q20 0 37.5 -2.5t30.5 -4.5q15 -4 26 -7q-2 -14 -3.5 -31t-3.5 -32l-4 -36
l-11 -5q-9 1 -20 3q-9 1 -20.5 2t-23.5 1q-68 0 -95 -46.5t-27 -126.5v-17q0 -81 28.5 -120.5t94.5 -39.5q25 0 50 5q12 3 25 6l11 -4q2 -17 5 -35q2 -15 4 -32.5t4 -31.5z" />
    <glyph glyph-name="uniF672" unicode="&#xf672;" horiz-adv-x="405" 
d="M96 724l9 25h69l74 -62l75 62h69l9 -25l-97 -115h-112zM394 8q-17 -6 -36 -10q-17 -4 -39.5 -7t-48.5 -3q-51 0 -93.5 13.5t-74 44t-49 80.5t-17.5 124v29q0 77 17.5 131t49.5 87.5t78.5 49t104.5 15.5q20 0 37.5 -2.5t30.5 -4.5q15 -4 26 -7q-2 -14 -3.5 -31t-3.5 -32
l-4 -36l-11 -5q-9 1 -20 3q-9 1 -20.5 2t-23.5 1q-68 0 -95 -46.5t-27 -126.5v-17q0 -81 28.5 -120.5t94.5 -39.5q25 0 50 5q12 3 25 6l11 -4q2 -17 5 -35q2 -15 4 -32.5t4 -31.5z" />
    <glyph glyph-name="uniF673" unicode="&#xf673;" horiz-adv-x="405" 
d="M397 634l-9 -25h-69l-74 62l-75 -62h-69l-9 25l97 115h112zM394 8q-17 -6 -36 -10q-17 -4 -39.5 -7t-48.5 -3q-51 0 -93.5 13.5t-74 44t-49 80.5t-17.5 124v29q0 77 17.5 131t49.5 87.5t78.5 49t104.5 15.5q20 0 37.5 -2.5t30.5 -4.5q15 -4 26 -7q-2 -14 -3.5 -31
t-3.5 -32l-4 -36l-11 -5q-9 1 -20 3q-9 1 -20.5 2t-23.5 1q-68 0 -95 -46.5t-27 -126.5v-17q0 -81 28.5 -120.5t94.5 -39.5q25 0 50 5q12 3 25 6l11 -4q2 -17 5 -35q2 -15 4 -32.5t4 -31.5z" />
    <glyph glyph-name="uniF674" unicode="&#xf674;" horiz-adv-x="405" 
d="M188 678q0 28 18.5 46t45.5 18t45 -18t18 -46t-18 -46.5t-45 -18.5t-45.5 18.5t-18.5 46.5zM394 8q-17 -6 -36 -10q-17 -4 -39.5 -7t-48.5 -3q-51 0 -93.5 13.5t-74 44t-49 80.5t-17.5 124v29q0 77 17.5 131t49.5 87.5t78.5 49t104.5 15.5q20 0 37.5 -2.5t30.5 -4.5
q15 -4 26 -7q-2 -14 -3.5 -31t-3.5 -32l-4 -36l-11 -5q-9 1 -20 3q-9 1 -20.5 2t-23.5 1q-68 0 -95 -46.5t-27 -126.5v-17q0 -81 28.5 -120.5t94.5 -39.5q25 0 50 5q12 3 25 6l11 -4q2 -17 5 -35q2 -15 4 -32.5t4 -31.5z" />
    <glyph glyph-name="uniF675" unicode="&#xf675;" horiz-adv-x="504" 
d="M91 725l9 25h69l74 -62l75 62h69l9 -25l-97 -115h-112zM183 438v-326h56q21 0 38.5 5t29.5 17t19 33t7 53v84q0 41 -7.5 67t-22.5 41t-37 20.5t-50 5.5h-33zM48 550h192q52 0 94 -14t72 -42.5t46 -72.5t16 -104v-120q0 -105 -57 -151t-161 -46h-202v550z" />
    <glyph glyph-name="uniF676" unicode="&#xf676;" horiz-adv-x="504" 
d="M183 437v-107h68v-98h-68v-120h56q21 0 38.5 5t29.5 17t19 33t7 53v83q0 41 -7.5 67t-22.5 41t-37 20.5t-50 5.5h-33zM1 330h47v220h192q52 0 94 -14t72 -42.5t46 -72.5t16 -104v-120q0 -105 -57 -151t-161 -46h-202v232h-47v98z" />
    <glyph glyph-name="uniF677" unicode="&#xf677;" horiz-adv-x="392" 
d="M354 753q0 -30 -7 -56t-24 -45.5t-45 -31t-70 -11.5t-69.5 11.5t-44.5 31t-24 45.5t-7 56h83q0 -21 14 -41.5t48 -20.5t49 20.5t15 41.5h82zM48 550h320v-112h-185v-108h155v-98h-155v-120h195v-112h-330v550z" />
    <glyph glyph-name="uniF678" unicode="&#xf678;" horiz-adv-x="392" 
d="M67 724l9 25h69l74 -62l75 62h69l9 -25l-97 -115h-112zM48 550h320v-112h-185v-108h155v-98h-155v-120h195v-112h-330v550z" />
    <glyph glyph-name="uniF679" unicode="&#xf679;" horiz-adv-x="392" 
d="M157 674q0 28 18.5 46t45.5 18t45 -18t18 -46t-18 -46.5t-45 -18.5t-45.5 18.5t-18.5 46.5zM48 550h320v-112h-185v-108h155v-98h-155v-120h195v-112h-330v550z" />
    <glyph glyph-name="uniF67A" unicode="&#xf67a;" horiz-adv-x="392" 
d="M82 699h245v-83h-245v83zM48 550h320v-112h-185v-108h155v-98h-155v-120h195v-112h-330v550z" />
    <glyph glyph-name="uniF67C" unicode="&#xf67c;" horiz-adv-x="392" 
d="M48 550h320v-112h-185v-108h155v-98h-155v-120h195v-112q-19 -25 -38.5 -54t-19.5 -55q0 -36 43 -36q6 0 12 0.5t11 1.5l12 2l8 -61q-8 -3 -19 -5q-20 -5 -49 -5q-57 0 -82.5 22t-25.5 59q0 30 19 63t55 65v3h-256v550z" />
    <glyph glyph-name="uniF67D" unicode="&#xf67d;" horiz-adv-x="482" 
d="M405 754q0 -30 -7 -56t-24 -45.5t-45 -31t-70 -11.5t-69.5 11.5t-44.5 31t-24 45.5t-7 56h83q0 -21 14 -41.5t48 -20.5t49 20.5t15 41.5h82zM268 100q21 0 34.5 7.5t17.5 8.5v184h135v-300h-72l-18 33h-2q-25 -20 -54 -32.5t-69 -12.5q-45 0 -82.5 14t-64.5 45.5t-42 82
t-15 124.5v29q0 76 18 129t51.5 86.5t83 48.5t112.5 15q26 0 50.5 -3t43.5 -7q22 -4 41 -9q-2 -14 -3.5 -31.5t-3.5 -33.5q-2 -18 -4 -37q-2 -2 -5 -2.5t-6 -2.5q-15 3 -33 7q-15 2 -33.5 4.5t-37.5 2.5q-75 0 -106.5 -41t-31.5 -132v-21q0 -44 6.5 -74t18.5 -48t30 -26
t41 -8z" />
    <glyph glyph-name="uniF67E" unicode="&#xf67e;" horiz-adv-x="482" 
d="M412 634l-9 -25h-69l-74 62l-75 -62h-69l-9 25l97 115h112zM268 100q21 0 34.5 7.5t17.5 8.5v184h135v-300h-72l-18 33h-2q-25 -20 -54 -32.5t-69 -12.5q-45 0 -82.5 14t-64.5 45.5t-42 82t-15 124.5v29q0 76 18 129t51.5 86.5t83 48.5t112.5 15q26 0 50.5 -3t43.5 -7
q22 -4 41 -9q-2 -14 -3.5 -31.5t-3.5 -33.5q-2 -18 -4 -37q-2 -2 -5 -2.5t-6 -2.5q-15 3 -33 7q-15 2 -33.5 4.5t-37.5 2.5q-75 0 -106.5 -41t-31.5 -132v-21q0 -44 6.5 -74t18.5 -48t30 -26t41 -8z" />
    <glyph glyph-name="uniF67F" unicode="&#xf67f;" horiz-adv-x="482" 
d="M191 -117q0 32 19.5 52t50.5 20q30 0 50 -20t20 -53q0 -25 -10.5 -50.5t-29.5 -53.5l-52 -78h-41v16l31 97v3q-18 8 -28 26t-10 41zM268 100q21 0 34.5 7.5t17.5 8.5v184h135v-300h-72l-18 33h-2q-25 -20 -54 -32.5t-69 -12.5q-45 0 -82.5 14t-64.5 45.5t-42 82
t-15 124.5v29q0 76 18 129t51.5 86.5t83 48.5t112.5 15q26 0 50.5 -3t43.5 -7q22 -4 41 -9q-2 -14 -3.5 -31.5t-3.5 -33.5q-2 -18 -4 -37q-2 -2 -5 -2.5t-6 -2.5q-15 3 -33 7q-15 2 -33.5 4.5t-37.5 2.5q-75 0 -106.5 -41t-31.5 -132v-21q0 -44 6.5 -74t18.5 -48t30 -26
t41 -8z" />
    <glyph glyph-name="uniF680" unicode="&#xf680;" horiz-adv-x="482" 
d="M198 675q0 28 18.5 46t45.5 18t45 -18t18 -46t-18 -46.5t-45 -18.5t-45.5 18.5t-18.5 46.5zM268 100q21 0 34.5 7.5t17.5 8.5v184h135v-300h-72l-18 33h-2q-25 -20 -54 -32.5t-69 -12.5q-45 0 -82.5 14t-64.5 45.5t-42 82t-15 124.5v29q0 76 18 129t51.5 86.5t83 48.5
t112.5 15q26 0 50.5 -3t43.5 -7q22 -4 41 -9q-2 -14 -3.5 -31.5t-3.5 -33.5q-2 -18 -4 -37q-2 -2 -5 -2.5t-6 -2.5q-15 3 -33 7q-15 2 -33.5 4.5t-37.5 2.5q-75 0 -106.5 -41t-31.5 -132v-21q0 -44 6.5 -74t18.5 -48t30 -26t41 -8z" />
    <glyph glyph-name="uniF685" unicode="&#xf685;" horiz-adv-x="231" 
d="M-7 699h245v-83h-245v83zM48 550h135v-550h-135v550z" />
    <glyph glyph-name="uniF686" unicode="&#xf686;" horiz-adv-x="231" 
d="M48 550h135v-550q-19 -25 -38.5 -54t-19.5 -55q0 -36 43 -36q6 0 12 0.5t11 1.5l12 2l8 -61q-8 -3 -19 -5q-20 -5 -49 -5q-57 0 -82.5 22t-25.5 59q0 30 19.5 63.5t55.5 65.5v2h-62v550z" />
    <glyph glyph-name="uniF688" unicode="&#xf688;" horiz-adv-x="314" 
d="M348 634l-9 -25h-69l-74 62l-75 -62h-69l-9 25l97 115h112zM5 -1q1 19 2 36.5t3 31.5q2 16 3 30l12 8q7 -2 15 -3q6 -1 13.5 -1.5t14.5 -0.5q33 0 48 20.5t15 80.5v349h135v-374q0 -53 -11.5 -88.5t-33 -58t-53.5 -32t-73 -9.5q-34 0 -62 5q-15 3 -28 6z" />
    <glyph glyph-name="uniF689" unicode="&#xf689;" horiz-adv-x="496" 
d="M179 -117q0 32 20 52t50 20q31 0 50.5 -20t19.5 -53q0 -25 -10.5 -50.5t-28.5 -52.5l-53 -79h-41v16l32 97v3q-19 8 -29 26t-10 41zM334 0l-120 228h-31v-228h-135v550h135v-224h31l120 224h143l-142 -265l151 -285h-152z" />
    <glyph glyph-name="uniF68A" unicode="&#xf68a;" horiz-adv-x="348" 
d="M262 707l-115 -97h-76l-9 17l83 123h117v-43zM48 550h135v-438h155v-112h-290v550z" />
    <glyph glyph-name="uniF68B" unicode="&#xf68b;" horiz-adv-x="366" 
d="M237 493q0 29 17.5 46.5t44.5 17.5t44.5 -18t17.5 -47q0 -22 -9 -44.5t-26 -47.5l-46 -69h-37v14l28 86v3q-17 7 -25.5 23t-8.5 36zM48 550h135v-438h155v-112h-290v550z" />
    <glyph glyph-name="uniF68C" unicode="&#xf68c;" horiz-adv-x="348" 
d="M117 -117q0 32 20 52t50 20q31 0 50.5 -20t19.5 -53q0 -25 -10.5 -50.5t-28.5 -52.5l-53 -79h-41v16l32 97v3q-19 8 -29 26t-10 41zM48 550h135v-438h155v-112h-290v550z" />
    <glyph glyph-name="uniF68D" unicode="&#xf68d;" horiz-adv-x="395" 
d="M234 336q0 36 22.5 58t55.5 22q34 0 56 -22t22 -58q0 -35 -22 -57.5t-56 -22.5q-33 0 -55.5 22.5t-22.5 57.5zM48 550h135v-438h155v-112h-290v550z" />
    <glyph glyph-name="uniF68E" unicode="&#xf68e;" horiz-adv-x="563" 
d="M441 707l-115 -97h-76l-9 17l83 123h117v-43zM202 301q-5 8 -8.5 17t-5.5 17q-3 9 -5 18l-5 -1l5 -68v-284h-135v550h155l158 -302q3 -7 6.5 -15.5t5.5 -16.5q3 -10 6 -19l5 1l-4 67v285h135v-550h-155z" />
    <glyph glyph-name="uniF68F" unicode="&#xf68f;" horiz-adv-x="563" 
d="M143 725l9 25h69l74 -62l75 62h69l9 -25l-97 -115h-112zM202 301q-5 8 -8.5 17t-5.5 17q-3 9 -5 18l-5 -1l5 -68v-284h-135v550h155l158 -302q3 -7 6.5 -15.5t5.5 -16.5q3 -10 6 -19l5 1l-4 67v285h135v-550h-155z" />
    <glyph glyph-name="uniF690" unicode="&#xf690;" horiz-adv-x="563" 
d="M200 -117q0 32 20 52t50 20q31 0 50.5 -20t19.5 -53q0 -25 -10.5 -50.5t-28.5 -52.5l-53 -79h-41v16l32 97v3q-19 8 -29 26t-10 41zM202 301q-5 8 -8.5 17t-5.5 17q-3 9 -5 18l-5 -1l5 -68v-284h-135v550h155l158 -302q3 -7 6.5 -15.5t5.5 -16.5q3 -10 6 -19l5 1l-4 67
v285h135v-550h-155z" />
    <glyph glyph-name="uniF691" unicode="&#xf691;" horiz-adv-x="506" 
d="M400 754q0 -30 -7 -56t-24 -45.5t-45 -31t-70 -11.5t-69.5 11.5t-44.5 31t-24 45.5t-7 56h83q0 -21 14 -41.5t48 -20.5t49 20.5t15 41.5h82zM334 304q0 83 -20.5 116.5t-60.5 33.5t-60.5 -33.5t-20.5 -116.5v-59q0 -83 20.5 -116.5t60.5 -33.5t60.5 33.5t20.5 116.5v59z
M259 562q211 0 211 -270v-35q0 -269 -211 -269h-12q-211 0 -211 269v35q0 270 211 270h12z" />
    <glyph glyph-name="uniF692" unicode="&#xf692;" horiz-adv-x="506" 
d="M291 706l-105 -97h-46l-9 17l65 123h95v-43zM455 706l-105 -97h-46l-9 17l65 123h95v-43zM334 304q0 83 -20.5 116.5t-60.5 33.5t-60.5 -33.5t-20.5 -116.5v-59q0 -83 20.5 -116.5t60.5 -33.5t60.5 33.5t20.5 116.5v59zM259 562q211 0 211 -270v-35q0 -269 -211 -269h-12
q-211 0 -211 269v35q0 270 211 270h12z" />
    <glyph glyph-name="uniF693" unicode="&#xf693;" horiz-adv-x="506" 
d="M128 703h245v-83h-245v83zM334 304q0 83 -20.5 116.5t-60.5 33.5t-60.5 -33.5t-20.5 -116.5v-59q0 -83 20.5 -116.5t60.5 -33.5t60.5 33.5t20.5 116.5v59zM259 562q211 0 211 -270v-35q0 -269 -211 -269h-12q-211 0 -211 269v35q0 270 211 270h12z" />
    <glyph glyph-name="uniF694" unicode="&#xf694;" horiz-adv-x="506" 
d="M334 304q0 10 -0.5 19t-0.5 17h-5l-16 -44l-104 -189q16 -12 45 -12q40 0 60.5 33.5t20.5 116.5v59zM304 436q-18 18 -51 18q-40 0 -60.5 -33.5t-20.5 -116.5v-59v-24.5t1 -21.5h6l21 48zM259 562q61 0 102 -22l30 54l65 -36l-37 -67q51 -68 51 -199v-35
q0 -269 -211 -269h-12q-55 0 -95 18l-29 -54l-65 36l34 63q-56 68 -56 206v35q0 270 211 270h12zM395 706l-115 -97h-76l-9 17l83 123h117v-43z" />
    <glyph glyph-name="uniF695" unicode="&#xf695;" horiz-adv-x="492" 
d="M372 706l-115 -97h-76l-9 17l83 123h117v-43zM335 0l-72 149q-7 14 -16.5 22t-29.5 8h-34v-179h-135v550h198q60 0 101 -13.5t66.5 -37t36.5 -56.5t11 -72v-9q0 -57 -24.5 -95t-75.5 -53v-4q14 -7 24 -19.5t17 -26.5l80 -164h-147zM183 438v-161h53q49 0 69.5 17.5
t20.5 55.5v9q0 42 -22 60.5t-72 18.5h-49z" />
    <glyph glyph-name="uniF696" unicode="&#xf696;" horiz-adv-x="492" 
d="M67 725l9 25h69l74 -62l75 62h69l9 -25l-97 -115h-112zM335 0l-72 149q-7 14 -16.5 22t-29.5 8h-34v-179h-135v550h198q60 0 101 -13.5t66.5 -37t36.5 -56.5t11 -72v-9q0 -57 -24.5 -95t-75.5 -53v-4q14 -7 24 -19.5t17 -26.5l80 -164h-147zM183 438v-161h53
q49 0 69.5 17.5t20.5 55.5v9q0 42 -22 60.5t-72 18.5h-49z" />
    <glyph glyph-name="uniF697" unicode="&#xf697;" horiz-adv-x="492" 
d="M183 -117q0 32 20 52t50 20q31 0 50.5 -20t19.5 -53q0 -25 -10.5 -50.5t-28.5 -52.5l-53 -79h-41v16l32 97v3q-19 8 -29 26t-10 41zM335 0l-72 149q-7 14 -16.5 22t-29.5 8h-34v-179h-135v550h198q60 0 101 -13.5t66.5 -37t36.5 -56.5t11 -72v-9q0 -57 -24.5 -95
t-75.5 -53v-4q14 -7 24 -19.5t17 -26.5l80 -164h-147zM183 438v-161h53q49 0 69.5 17.5t20.5 55.5v9q0 42 -22 60.5t-72 18.5h-49z" />
    <glyph glyph-name="uniF698" unicode="&#xf698;" horiz-adv-x="439" 
d="M361 707l-115 -97h-76l-9 17l83 123h117v-43zM45 3q-2 22 -2.5 41t-0.5 33v30l14 6q19 -4 39 -7q17 -2 39.5 -4t45.5 -2q55 0 78 15t23 46q0 20 -13.5 34.5t-49.5 24.5l-74 21q-55 16 -88 49.5t-33 98.5q0 81 53.5 127t171.5 46q23 0 45.5 -2t40 -4t28 -4.5l10.5 -2.5
q-1 -19 -2 -37.5t-3 -32.5q-2 -18 -4 -33l-13 -6l-30 5q-14 2 -30.5 3.5t-33.5 1.5q-55 0 -76.5 -16.5t-21.5 -41.5q0 -23 14 -34t39 -19l73 -21q67 -19 99.5 -55t32.5 -96q0 -41 -11.5 -74t-38 -56t-69.5 -36t-106 -13q-27 0 -52.5 2t-46 5t-33.5 5.5t-14 2.5z" />
    <glyph glyph-name="uniF699" unicode="&#xf699;" horiz-adv-x="439" 
d="M45 3q-2 22 -2.5 41t-0.5 33v30l14 6q19 -4 39 -7q17 -2 39.5 -4t45.5 -2q55 0 78 15t23 46q0 20 -13.5 34.5t-49.5 24.5l-74 21q-55 16 -88 49.5t-33 98.5q0 81 53.5 127t171.5 46q23 0 45.5 -2t40 -4t28 -4.5l10.5 -2.5q-1 -19 -2 -37.5t-3 -32.5q-2 -18 -4 -33l-13 -6
l-30 5q-14 2 -30.5 3.5t-33.5 1.5q-55 0 -76.5 -16.5t-21.5 -41.5q0 -23 14 -34t39 -19l73 -21q67 -19 99.5 -55t32.5 -96q0 -70 -37 -116.5t-126 -58.5l-1 -44h16q77 0 77 -73q0 -41 -25.5 -64t-85.5 -23q-17 0 -32.5 1t-27.5 3q-14 2 -26 5l7 56q8 -2 18 -3
q8 -1 17.5 -1.5t18.5 -0.5q26 0 36 7.5t10 19.5q0 21 -28 21h-55l13 92q-26 0 -50.5 2.5t-44 5t-32 5t-13.5 2.5z" />
    <glyph glyph-name="uniF69A" unicode="&#xf69a;" horiz-adv-x="439" 
d="M361 635l-9 -25h-69l-74 62l-75 -62h-69l-9 25l97 115h112zM45 3q-2 22 -2.5 41t-0.5 33v30l14 6q19 -4 39 -7q17 -2 39.5 -4t45.5 -2q55 0 78 15t23 46q0 20 -13.5 34.5t-49.5 24.5l-74 21q-55 16 -88 49.5t-33 98.5q0 81 53.5 127t171.5 46q23 0 45.5 -2t40 -4t28 -4.5
l10.5 -2.5q-1 -19 -2 -37.5t-3 -32.5q-2 -18 -4 -33l-13 -6l-30 5q-14 2 -30.5 3.5t-33.5 1.5q-55 0 -76.5 -16.5t-21.5 -41.5q0 -23 14 -34t39 -19l73 -21q67 -19 99.5 -55t32.5 -96q0 -41 -11.5 -74t-38 -56t-69.5 -36t-106 -13q-27 0 -52.5 2t-46 5t-33.5 5.5t-14 2.5z
" />
    <glyph glyph-name="uniF69B" unicode="&#xf69b;" horiz-adv-x="439" 
d="M158 -117q0 32 19.5 52t50.5 20q30 0 50 -20t20 -53q0 -25 -10.5 -50.5t-29.5 -53.5l-52 -78h-41v16l31 97v3q-18 8 -28 26t-10 41zM45 3q-2 22 -2.5 41t-0.5 33v30l14 6q19 -4 39 -7q17 -2 39.5 -4t45.5 -2q55 0 78 15t23 46q0 20 -13.5 34.5t-49.5 24.5l-74 21
q-55 16 -88 49.5t-33 98.5q0 81 53.5 127t171.5 46q23 0 45.5 -2t40 -4t28 -4.5l10.5 -2.5q-1 -19 -2 -37.5t-3 -32.5q-2 -18 -4 -33l-13 -6l-30 5q-14 2 -30.5 3.5t-33.5 1.5q-55 0 -76.5 -16.5t-21.5 -41.5q0 -23 14 -34t39 -19l73 -21q67 -19 99.5 -55t32.5 -96
q0 -41 -11.5 -74t-38 -56t-69.5 -36t-106 -13q-27 0 -52.5 2t-46 5t-33.5 5.5t-14 2.5z" />
    <glyph glyph-name="uniF69D" unicode="&#xf69d;" horiz-adv-x="395" 
d="M47 725l9 25h69l74 -62l75 62h69l9 -25l-97 -115h-112zM12 550h371v-112h-118v-438h-135v438h-118v112z" />
    <glyph glyph-name="uniF69E" unicode="&#xf69e;" horiz-adv-x="395" 
d="M127 -117q0 32 20 52t50 20q31 0 50.5 -20t19.5 -53q0 -25 -10.5 -50.5t-28.5 -52.5l-53 -79h-41v16l32 97v3q-19 8 -29 26t-10 41zM12 550h371v-112h-118v-438h-135v438h-118v112z" />
    <glyph glyph-name="uniF69F" unicode="&#xf69f;" horiz-adv-x="512" 
d="M401 754q0 -30 -7 -56t-24 -45.5t-45 -31t-70 -11.5t-69.5 11.5t-44.5 31t-24 45.5t-7 56h83q0 -21 14 -41.5t48 -20.5t49 20.5t15 41.5h82zM466 550v-345q0 -113 -52 -165t-150 -52h-16q-98 0 -150 52t-52 165v345h135v-354q0 -54 20 -75t55 -21t55 21t20 75v354h135z
" />
    <glyph glyph-name="uniF6A0" unicode="&#xf6a0;" horiz-adv-x="512" 
d="M292 706l-105 -97h-46l-9 17l65 123h95v-43zM456 706l-105 -97h-46l-9 17l65 123h95v-43zM466 550v-345q0 -113 -52 -165t-150 -52h-16q-98 0 -150 52t-52 165v345h135v-354q0 -54 20 -75t55 -21t55 21t20 75v354h135z" />
    <glyph glyph-name="uniF6A1" unicode="&#xf6a1;" horiz-adv-x="512" 
d="M133 701h245v-83h-245v83zM466 550v-345q0 -113 -52 -165t-150 -52h-16q-98 0 -150 52t-52 165v345h135v-354q0 -54 20 -75t55 -21t55 21t20 75v354h135z" />
    <glyph glyph-name="uniF6A2" unicode="&#xf6a2;" horiz-adv-x="512" 
d="M466 550v-345q0 -86 -30.5 -136t-88.5 -69q-19 -25 -38.5 -54t-19.5 -55q0 -36 43 -36q6 0 12 0.5t11 1.5l12 2l8 -61q-8 -3 -19 -5q-20 -5 -49 -5q-57 0 -82.5 22t-25.5 59q0 57 63 117v2h-14q-98 0 -150 52t-52 165v345h135v-354q0 -54 20 -75t55 -21t55 21t20 75v354
h135z" />
    <glyph glyph-name="uniF6A3" unicode="&#xf6a3;" horiz-adv-x="512" 
d="M213 710q0 -18 11.5 -29.5t31.5 -11.5q19 0 30.5 11.5t11.5 29.5t-11.5 29.5t-30.5 11.5q-20 0 -31.5 -11.5t-11.5 -29.5zM138 710q0 44 31 73.5t87 29.5q55 0 86 -29.5t31 -73.5t-31 -73.5t-86 -29.5q-56 0 -87 29.5t-31 73.5zM466 550v-345q0 -113 -52 -165t-150 -52
h-16q-98 0 -150 52t-52 165v345h135v-354q0 -54 20 -75t55 -21t55 21t20 75v354h135z" />
    <glyph glyph-name="uniF6A4" unicode="&#xf6a4;" horiz-adv-x="512" 
d="M438 739q-17 -70 -45.5 -100t-70.5 -30q-21 0 -38.5 9t-32.5 20.5t-28.5 20.5t-27.5 9t-30 -10t-30 -49l-61 19q16 71 47 100.5t74 29.5q21 0 39 -9t33.5 -20.5t29 -20.5t25.5 -9q6 0 12.5 2t13.5 8t14 17.5t15 31.5zM466 550v-345q0 -113 -52 -165t-150 -52h-16
q-98 0 -150 52t-52 165v345h135v-354q0 -54 20 -75t55 -21t55 21t20 75v354h135z" />
    <glyph glyph-name="uniF6A5" unicode="&#xf6a5;" horiz-adv-x="686" 
d="M499 707l-115 -97h-76l-9 17l83 123h117v-43zM116 0l-105 550h136l51 -267l10 -87h7q2 15 6 29q2 12 5.5 26t7.5 27l74 255h70l74 -255q3 -11 6 -25t6 -27q4 -15 7 -30h7l10 87l51 267h136l-105 -550h-151l-61 220q-2 6 -4 16.5t-4 21.5q-2 12 -4 25h-6q-2 -13 -4 -25
q-2 -11 -4 -21.5t-4 -16.5l-61 -220h-151z" />
    <glyph glyph-name="uniF6A6" unicode="&#xf6a6;" horiz-adv-x="686" 
d="M496 635l-9 -25h-69l-74 62l-75 -62h-69l-9 25l97 115h112zM116 0l-105 550h136l51 -267l10 -87h7q2 15 6 29q2 12 5.5 26t7.5 27l74 255h70l74 -255q3 -11 6 -25t6 -27q4 -15 7 -30h7l10 87l51 267h136l-105 -550h-151l-61 220q-2 6 -4 16.5t-4 21.5q-2 12 -4 25h-6
q-2 -13 -4 -25q-2 -11 -4 -21.5t-4 -16.5l-61 -220h-151z" />
    <glyph glyph-name="uniF6A7" unicode="&#xf6a7;" horiz-adv-x="686" 
d="M376 672q0 26 17 43t43 17q25 0 42 -17t17 -43t-17 -43.5t-42 -17.5q-26 0 -43 17.5t-17 43.5zM188 672q0 26 17 43t43 17q25 0 42 -17t17 -43t-17 -43.5t-42 -17.5q-26 0 -43 17.5t-17 43.5zM116 0l-105 550h136l51 -267l10 -87h7q2 15 6 29q2 12 5.5 26t7.5 27l74 255
h70l74 -255q3 -11 6 -25t6 -27q4 -15 7 -30h7l10 87l51 267h136l-105 -550h-151l-61 220q-2 6 -4 16.5t-4 21.5q-2 12 -4 25h-6q-2 -13 -4 -25q-2 -11 -4 -21.5t-4 -16.5l-61 -220h-151z" />
    <glyph glyph-name="uniF6A8" unicode="&#xf6a8;" horiz-adv-x="686" 
d="M195 749h117l83 -123l-9 -17h-76l-115 97v43zM116 0l-105 550h136l51 -267l10 -87h7q2 15 6 29q2 12 5.5 26t7.5 27l74 255h70l74 -255q3 -11 6 -25t6 -27q4 -15 7 -30h7l10 87l51 267h136l-105 -550h-151l-61 220q-2 6 -4 16.5t-4 21.5q-2 12 -4 25h-6q-2 -13 -4 -25
q-2 -11 -4 -21.5t-4 -16.5l-61 -220h-151z" />
    <glyph glyph-name="uniF6A9" unicode="&#xf6a9;" horiz-adv-x="481" 
d="M393 634l-9 -25h-69l-74 62l-75 -62h-69l-9 25l97 115h112zM157 550l65 -164q4 -10 6.5 -21t4.5 -21l4 -22h7q1 11 4 22q3 22 11 42l65 164h146l-162 -369v-181h-135v182l-162 368h146z" />
    <glyph glyph-name="uniF6AA" unicode="&#xf6aa;" horiz-adv-x="481" 
d="M95 749h117l83 -123l-9 -17h-76l-115 97v43zM157 550l65 -164q4 -10 6.5 -21t4.5 -21l4 -22h7q1 11 4 22q3 22 11 42l65 164h146l-162 -369v-181h-135v182l-162 368h146z" />
    <glyph glyph-name="uniF6AB" unicode="&#xf6ab;" horiz-adv-x="409" 
d="M358 706l-115 -97h-76l-9 17l83 123h117v-43zM39 550h348v-59l-168 -328q-5 -10 -10.5 -18.5t-10.5 -14.5q-5 -8 -11 -14v-4h200v-112h-365v58l164 318q5 9 11.5 18.5t12.5 17.5q7 9 15 18v8h-186v112z" />
    <glyph glyph-name="uniF6AC" unicode="&#xf6ac;" horiz-adv-x="409" 
d="M157 677q0 28 18.5 46t45.5 18t45 -18t18 -46t-18 -46.5t-45 -18.5t-45.5 18.5t-18.5 46.5zM39 550h348v-59l-168 -328q-5 -10 -10.5 -18.5t-10.5 -14.5q-5 -8 -11 -14v-4h200v-112h-365v58l164 318q5 9 11.5 18.5t12.5 17.5q7 9 15 18v8h-186v112z" />
    <glyph glyph-name="uniF6AD" unicode="&#xf6ad;" horiz-adv-x="231" 
d="M52 684q0 28 18.5 46t45.5 18t45 -18t18 -46t-18 -46.5t-45 -18.5t-45.5 18.5t-18.5 46.5zM48 550h135v-550h-135v550z" />
    <glyph glyph-name="uniF6BE" unicode="&#xf6be;" horiz-adv-x="862" 
d="M45 3q-2 22 -2.5 41t-0.5 33v30l14 6q19 -4 39 -7q17 -2 39.5 -4t45.5 -2q55 0 78 15t23 46q0 20 -13.5 34.5t-49.5 24.5l-74 21q-55 16 -88 49.5t-33 98.5q0 81 53.5 127t171.5 46q23 0 45.5 -2t40 -4t28 -4.5l10.5 -2.5q-1 -19 -2 -37.5t-3 -32.5q-2 -18 -4 -33l-13 -6
l-30 5q-14 2 -30.5 3.5t-33.5 1.5q-55 0 -76.5 -16.5t-21.5 -41.5q0 -23 14 -34t39 -19l73 -21q67 -19 99.5 -55t32.5 -96q0 -41 -11.5 -74t-38 -56t-69.5 -36t-106 -13q-27 0 -52.5 2t-46 5t-33.5 5.5t-14 2.5zM468 3q-2 22 -2.5 41t-0.5 33v30l14 6q19 -4 39 -7
q17 -2 39.5 -4t45.5 -2q55 0 78 15t23 46q0 20 -13.5 34.5t-49.5 24.5l-74 21q-55 16 -88 49.5t-33 98.5q0 81 53.5 127t171.5 46q23 0 45.5 -2t40 -4t28 -4.5l10.5 -2.5q-1 -19 -2 -37.5t-3 -32.5q-2 -18 -4 -33l-13 -6l-30 5q-14 2 -30.5 3.5t-33.5 1.5q-55 0 -76.5 -16.5
t-21.5 -41.5q0 -23 14 -34t39 -19l73 -21q67 -19 99.5 -55t32.5 -96q0 -41 -11.5 -74t-38 -56t-69.5 -36t-106 -13q-27 0 -52.5 2t-46 5t-33.5 5.5t-14 2.5z" />
    <glyph glyph-name="uniF6C3" unicode="&#xf6c3;" horiz-adv-x="220" 
d="M31 -130q0 35 22 57.5t56 22.5t56 -22t22 -59q0 -28 -12 -56t-32 -59l-58 -87h-46v18l35 107v4q-20 9 -31.5 28.5t-11.5 45.5z" />
    <glyph glyph-name="uniF6D6" unicode="&#xf6d6;" horiz-adv-x="470" 
d="M207 720h95l65 -123l-9 -17h-46l-105 97v43zM40 720h95l65 -123l-9 -17h-46l-105 97v43z" />
    <glyph glyph-name="uniF6DC" unicode="&#xf6dc;" 
d="M75 533l177 127h80v-548h113v-112h-380v112h132v381l-3 2l-48 -34h-71v72z" />
    <glyph glyph-name="uniF6DD" unicode="&#xf6dd;" horiz-adv-x="1030" 
d="M853 269q0 85 -19.5 118t-60.5 33q-14 0 -27.5 -3t-24 -6.5t-18 -7t-10.5 -4.5v-279q6 -3 26 -13.5t46 -10.5q43 0 65.5 35.5t22.5 119.5v18zM558 -200v720h80l34 -53q10 10 24 21.5t32 21t40.5 16t49.5 6.5q39 0 70.5 -14t53.5 -45t34 -80.5t12 -119.5v-33
q0 -66 -13 -113.5t-35.5 -78.5t-54 -45.5t-67.5 -14.5q-38 0 -68 11.5t-55 33.5h-2v-233h-135zM345 0l-87 229q-5 14 -13 20.5t-22 6.5h-36v-256h-135v650h196q116 0 167.5 -52.5t51.5 -143.5v-16q0 -60 -25 -100t-73 -60v-3q12 -8 20 -21.5t15 -31.5l84 -222h-143zM187 538
v-184h51q49 0 71.5 17.5t22.5 62.5v10q0 53 -23.5 73.5t-81.5 20.5h-40z" />
    <glyph glyph-name="uniF6F9" unicode="&#xf6f9;" horiz-adv-x="348" 
d="M1 248l47 27v275h135v-196l90 53v-93l-90 -53v-149h155v-112h-290v182l-47 -27v93z" />
    <glyph glyph-name="uniF6FA" unicode="&#xf6fa;" horiz-adv-x="661" 
d="M334 304q0 83 -20.5 116.5t-60.5 33.5t-60.5 -33.5t-20.5 -116.5v-59q0 -83 20.5 -116.5t60.5 -33.5t60.5 33.5t20.5 116.5v59zM259 562q43 0 79 -12h299v-112h-186l-2 -3q8 -23 13 -49t7 -56h138v-98h-138q-3 -68 -21 -118l3 -2h196v-112h-310q-35 -12 -78 -12h-12
q-211 0 -211 269v35q0 270 211 270h12z" />
    <glyph glyph-name="uniF6FD" unicode="&#xf6fd;" horiz-adv-x="439" 
d="M57 725l9 25h69l74 -62l75 62h69l9 -25l-97 -115h-112zM45 3q-2 22 -2.5 41t-0.5 33v30l14 6q19 -4 39 -7q17 -2 39.5 -4t45.5 -2q55 0 78 15t23 46q0 20 -13.5 34.5t-49.5 24.5l-74 21q-55 16 -88 49.5t-33 98.5q0 81 53.5 127t171.5 46q23 0 45.5 -2t40 -4t28 -4.5
l10.5 -2.5q-1 -19 -2 -37.5t-3 -32.5q-2 -18 -4 -33l-13 -6l-30 5q-14 2 -30.5 3.5t-33.5 1.5q-55 0 -76.5 -16.5t-21.5 -41.5q0 -23 14 -34t39 -19l73 -21q67 -19 99.5 -55t32.5 -96q0 -41 -11.5 -74t-38 -56t-69.5 -36t-106 -13q-27 0 -52.5 2t-46 5t-33.5 5.5t-14 2.5z
" />
    <glyph glyph-name="uniF6FF" unicode="&#xf6ff;" horiz-adv-x="409" 
d="M74 724l9 25h69l74 -62l75 62h69l9 -25l-97 -115h-112zM39 550h348v-59l-168 -328q-5 -10 -10.5 -18.5t-10.5 -14.5q-5 -8 -11 -14v-4h200v-112h-365v58l164 318q5 9 11.5 18.5t12.5 17.5q7 9 15 18v8h-186v112z" />
    <glyph glyph-name="uniF721" unicode="&#xf721;" horiz-adv-x="256" 
d="M50 67q0 34 22 55.5t56 21.5t56 -21.5t22 -55.5t-22 -55.5t-56 -21.5t-56 21.5t-22 55.5zM137 582q36 0 48 -13.5t12 -38.5v-115l-31 -192h-75l-32 192v115q0 25 12.5 38.5t47.5 13.5h18z" />
    <glyph glyph-name="uniF726" unicode="&#xf726;" horiz-adv-x="620" 
d="M205 415q0 -20 28 -47l35 -35q16 12 27 21.5t17.5 17.5t9 17t2.5 21q0 20 -15 33t-46 13q-29 0 -43.5 -11.5t-14.5 -29.5zM261 94q40 0 66 18l-119 115q-23 -17 -30.5 -32.5t-7.5 -32.5q0 -32 24 -50t67 -18zM443 0l-37 35q-26 -22 -65 -34.5t-103 -12.5
q-100 0 -151.5 43.5t-51.5 113.5q0 52 23 88.5t74 61.5v6q-27 23 -44.5 50.5t-17.5 63.5q0 64 50 105.5t141 41.5q96 0 143.5 -41.5t47.5 -104.5q0 -24 -6 -43t-19.5 -36.5t-35.5 -34t-54 -35.5l36 -35q10 -10 17.5 -18.5t12.5 -15.5q6 -8 10 -15l5 1q0 6 1 14q1 7 1.5 16
t0.5 22v31h120q0 -49 -6.5 -91t-28.5 -73l107 -103h-170z" />
    <glyph glyph-name="uniF730" unicode="&#xf730;" horiz-adv-x="550" 
d="M384 278q0 69 -30.5 105.5t-78.5 36.5q-49 0 -79 -36.5t-30 -105.5v-36q0 -69 30 -105.5t79 -36.5q48 0 78.5 36.5t30.5 105.5v36zM281 532q48 0 91.5 -16t76 -48.5t52 -82t19.5 -116.5v-19q0 -67 -19.5 -116.5t-52 -81.5t-76 -48t-91.5 -16h-13q-48 0 -91 16t-76 48
t-52 81.5t-19 116.5v19q0 67 19 116.5t52 82t76.5 48.5t91.5 16h12z" />
    <glyph glyph-name="uniF731" unicode="&#xf731;" horiz-adv-x="302" 
d="M20 411l145 109h80v-520h-135v348h-90v63z" />
    <glyph glyph-name="uniF732" unicode="&#xf732;" horiz-adv-x="475" 
d="M433 352q0 -33 -9 -59t-24.5 -47.5t-36.5 -40t-46 -36.5l-81 -59l2 -6l50 8h145v-112h-400v101l149 114q33 25 55 42.5t35.5 32t19.5 28t6 30.5q0 32 -24.5 52t-78.5 20q-22 0 -44.5 -4.5t-40.5 -9.5q-22 -6 -42 -14l-13 6q-2 14 -4 30q-2 14 -3.5 30t-2.5 33
q21 11 48 20q23 8 55 14.5t72 6.5q99 0 156 -47.5t57 -132.5z" />
    <glyph glyph-name="uniF733" unicode="&#xf733;" horiz-adv-x="454" 
d="M419 58q0 -44 -15 -80.5t-44 -63t-71.5 -41.5t-97.5 -15q-36 0 -66.5 5t-52.5 11t-34.5 11.5l-12.5 5.5q1 15 2.5 31.5t3.5 30.5q2 16 4 31l13 6q20 -6 39 -10q17 -4 36.5 -7t38.5 -3q33 0 56 7.5t38 20.5t21.5 30t6.5 36v5q0 19 -6 35t-19 28t-34.5 18.5t-52.5 6.5h-83
v98h96q36 0 61 22t25 60v5q0 33 -23.5 55.5t-79.5 22.5q-18 0 -37.5 -3.5t-35.5 -7.5q-19 -5 -37 -11l-14 6q-2 14 -4 30q-2 14 -3.5 30t-2.5 32l12 6t33.5 12.5t52 12t66.5 5.5q52 0 89.5 -13.5t62.5 -36.5t37 -53.5t12 -64.5v-9q0 -46 -19 -79t-50 -53v-3q37 -19 63 -57.5
t26 -95.5v-9z" />
    <glyph glyph-name="uniF734" unicode="&#xf734;" horiz-adv-x="487" 
d="M184 520h140l-162 -408h115l35 185h100v-185h65v-112h-65v-130h-135v130h-255v112z" />
    <glyph glyph-name="uniF735" unicode="&#xf735;" horiz-adv-x="472" 
d="M429 74q0 -106 -52 -161t-155 -55q-37 0 -69 5t-55.5 11.5t-37 12l-13.5 5.5q2 17 3.5 34t3.5 31q2 16 4 29l12 6q21 -7 43 -11q19 -5 40 -8t40 -3q55 0 78 27t23 79v14q0 40 -19.5 61.5t-64.5 21.5q-17 0 -31.5 -4t-25.5 -9q-12 -5 -23 -12l-81 18l20 354h320v-112h-192
l-8 -143h2q12 6 33 11.5t44 5.5q79 0 120 -44t41 -132v-32z" />
    <glyph glyph-name="uniF736" unicode="&#xf736;" horiz-adv-x="510" 
d="M258 308q-23 0 -45 -7.5t-38 -16.5v-36q0 -44 6 -73t17 -45.5t26 -23t33 -6.5q36 0 57 25.5t21 71.5v25q0 44 -20.5 65t-56.5 21zM314 540q-71 0 -103.5 -37.5t-35.5 -123.5h2q20 14 53 27.5t77 13.5q40 0 71 -13.5t51 -38.5t30.5 -59t10.5 -75v-28q0 -49 -12.5 -89
t-38.5 -68.5t-66 -44.5t-96 -16q-109 0 -163 69.5t-54 215.5v60q0 159 67 239t195 80q24 0 45 -3t38 -7q19 -4 36 -9q-2 -17 -3.5 -34.5t-3.5 -32.5q-2 -18 -4 -34l-11 -6q-13 3 -27 7q-12 2 -27.5 4.5t-30.5 2.5z" />
    <glyph glyph-name="uniF737" unicode="&#xf737;" horiz-adv-x="445" 
d="M22 520h410v-113l-226 -537h-147l232 529v9h-269v112z" />
    <glyph glyph-name="uniF738" unicode="&#xf738;" horiz-adv-x="526" 
d="M179 475q0 -20 14 -36.5t50 -33.5l47 -20q22 18 39.5 39.5t17.5 50.5t-21 47t-63 18t-63 -18t-21 -47zM235 270q-27 -17 -43.5 -39t-16.5 -56t22.5 -54.5t65.5 -20.5q44 0 66 19.5t22 52.5q0 23 -11.5 41t-51.5 35zM40 162q0 58 24.5 95.5t67.5 60.5v4q-33 23 -56.5 56
t-23.5 87q0 47 15 82t43 58.5t67 35t86 11.5t86 -10.5t66.5 -32t43 -53.5t15.5 -74q0 -45 -21.5 -80t-66.5 -58v-6q45 -24 72.5 -61.5t27.5 -94.5q0 -100 -58 -147t-165 -47q-45 0 -85.5 9t-71 29.5t-48.5 53.5t-18 82z" />
    <glyph glyph-name="uniF739" unicode="&#xf739;" horiz-adv-x="510" 
d="M251 212q23 0 45 6t39 15v35q0 85 -20.5 118.5t-59.5 33.5q-37 0 -58.5 -26.5t-21.5 -74.5v-18q0 -46 20.5 -67.5t55.5 -21.5zM197 -30q67 0 101 42.5t37 125.5l-3 1q-27 -17 -59.5 -28t-69.5 -11q-81 0 -122 51t-41 134v30q0 51 15.5 91.5t43.5 68t68 42.5t88 15
q106 0 160.5 -69t54.5 -192v-86q0 -86 -16.5 -148t-49.5 -102t-82 -58.5t-115 -18.5q-24 0 -45.5 2.5t-37.5 6.5q-19 4 -35 10q1 16 3 33.5t3.5 32t3 24.5t1.5 11l11 6q14 -4 28 -7q12 -3 27 -5t31 -2z" />
    <glyph glyph-name="uniF73F" unicode="&#xf73f;" horiz-adv-x="402" 
d="M78 67q0 34 22 55.5t56 21.5t56 -21.5t22 -55.5t-22 -55.5t-56 -21.5t-56 21.5t-22 55.5zM367 409q0 -87 -70 -127l-43 -25q-19 -11 -24.5 -23t-5.5 -34h-135v51q0 18 3 30t12 21.5t24.5 18.5t40.5 21q37 19 50 31t13 31q0 20 -16.5 33t-59.5 13q-17 0 -33 -2.5t-29 -5.5
q-15 -4 -29 -7l-13 8q-2 12 -4 27q-2 13 -3.5 30t-3.5 37q8 3 46 14t96 11q49 0 84 -11t57 -31t32.5 -47.5t10.5 -60.5v-3z" />
    <glyph glyph-name="uniF761" unicode="&#xf761;" horiz-adv-x="514" 
d="M253 438q-3 -21 -7 -40q-3 -17 -6.5 -33.5t-5.5 -27.5l-34 -131h113l-33 131q-3 11 -6 27.5t-6 33.5q-4 19 -7 40h-8zM340 100h-166q-12 -44 -25 -100h-138l148 550h196l148 -550h-138z" />
    <glyph glyph-name="uniF762" unicode="&#xf762;" horiz-adv-x="494" 
d="M183 450v-130h68q57 0 57 57v13q0 29 -15.5 44.5t-58.5 15.5h-51zM183 235v-135h83q35 0 48.5 16t13.5 45v12q0 29 -18.5 45.5t-58.5 16.5h-68zM48 550h202q100 0 146.5 -39t46.5 -109v-6q0 -39 -15 -68t-58 -43v-3q28 -8 46 -21t28.5 -29.5t14.5 -36.5t4 -42v-6
q0 -28 -8 -54.5t-27 -47t-50.5 -33t-79.5 -12.5h-250v550z" />
    <glyph glyph-name="uniF763" unicode="&#xf763;" horiz-adv-x="405" 
d="M394 8q-17 -6 -36 -10q-17 -4 -39.5 -7t-48.5 -3q-51 0 -93.5 13.5t-74 44t-49 80.5t-17.5 124v29q0 77 17.5 131t49.5 87.5t78.5 49t104.5 15.5q20 0 37.5 -2.5t30.5 -4.5q15 -4 26 -7q-2 -14 -3.5 -31t-3.5 -32l-4 -36l-11 -5q-9 1 -20 3q-9 1 -20.5 2t-23.5 1
q-68 0 -95 -46.5t-27 -126.5v-17q0 -81 28.5 -120.5t94.5 -39.5q25 0 50 5q12 3 25 6l11 -4q2 -17 5 -35q2 -15 4 -32.5t4 -31.5z" />
    <glyph glyph-name="uniF764" unicode="&#xf764;" horiz-adv-x="504" 
d="M183 438v-326h56q21 0 38.5 5t29.5 17t19 33t7 53v84q0 41 -7.5 67t-22.5 41t-37 20.5t-50 5.5h-33zM48 550h192q52 0 94 -14t72 -42.5t46 -72.5t16 -104v-120q0 -105 -57 -151t-161 -46h-202v550z" />
    <glyph glyph-name="uniF765" unicode="&#xf765;" horiz-adv-x="392" 
d="M48 550h320v-112h-185v-108h155v-98h-155v-120h195v-112h-330v550z" />
    <glyph glyph-name="uniF766" unicode="&#xf766;" horiz-adv-x="379" 
d="M48 550h320v-112h-185v-132h153v-105h-153v-201h-135v550z" />
    <glyph glyph-name="uniF767" unicode="&#xf767;" horiz-adv-x="482" 
d="M268 100q21 0 34.5 7.5t17.5 8.5v184h135v-300h-72l-18 33h-2q-25 -20 -54 -32.5t-69 -12.5q-45 0 -82.5 14t-64.5 45.5t-42 82t-15 124.5v29q0 76 18 129t51.5 86.5t83 48.5t112.5 15q26 0 50.5 -3t43.5 -7q22 -4 41 -9q-2 -14 -3.5 -31.5t-3.5 -33.5q-2 -18 -4 -37
q-2 -2 -5 -2.5t-6 -2.5q-15 3 -33 7q-15 2 -33.5 4.5t-37.5 2.5q-75 0 -106.5 -41t-31.5 -132v-21q0 -44 6.5 -74t18.5 -48t30 -26t41 -8z" />
    <glyph glyph-name="uniF768" unicode="&#xf768;" horiz-adv-x="526" 
d="M343 215h-160v-215h-135v550h135v-223h160v223h135v-550h-135v215z" />
    <glyph glyph-name="uniF769" unicode="&#xf769;" horiz-adv-x="231" 
d="M48 550h135v-550h-135v550z" />
    <glyph glyph-name="uniF76A" unicode="&#xf76a;" horiz-adv-x="314" 
d="M5 -1q1 19 2 36.5t3 31.5q2 16 3 30l12 8q7 -2 15 -3q6 -1 13.5 -1.5t14.5 -0.5q33 0 48 20.5t15 80.5v349h135v-374q0 -53 -11.5 -88.5t-33 -58t-53.5 -32t-73 -9.5q-34 0 -62 5q-15 3 -28 6z" />
    <glyph glyph-name="uniF76B" unicode="&#xf76b;" horiz-adv-x="496" 
d="M334 0l-120 228h-31v-228h-135v550h135v-224h31l120 224h143l-142 -265l151 -285h-152z" />
    <glyph glyph-name="uniF76C" unicode="&#xf76c;" horiz-adv-x="348" 
d="M48 550h135v-438h155v-112h-290v550z" />
    <glyph glyph-name="uniF76D" unicode="&#xf76d;" horiz-adv-x="666" 
d="M618 550v-550h-135v237v38t1 35q1 18 2 35l-9 2q-5 -16 -9 -30q-4 -12 -8 -25.5t-7 -21.5l-93 -253h-54l-93 253q-4 9 -7.5 22.5t-7.5 25.5q-4 14 -9 29l-9 -2q0 -17 1 -35q1 -16 1.5 -35t0.5 -38v-237h-135v550h174l93 -246q3 -8 5.5 -17t4.5 -17q3 -9 5 -17h6q1 8 4 17
q2 8 5 17t6 17l93 246h174z" />
    <glyph glyph-name="uniF76E" unicode="&#xf76e;" horiz-adv-x="563" 
d="M202 301q-5 8 -8.5 17t-5.5 17q-3 9 -5 18l-5 -1l5 -68v-284h-135v550h155l158 -302q3 -7 6.5 -15.5t5.5 -16.5q3 -10 6 -19l5 1l-4 67v285h135v-550h-155z" />
    <glyph glyph-name="uniF76F" unicode="&#xf76f;" horiz-adv-x="506" 
d="M334 304q0 83 -20.5 116.5t-60.5 33.5t-60.5 -33.5t-20.5 -116.5v-59q0 -83 20.5 -116.5t60.5 -33.5t60.5 33.5t20.5 116.5v59zM259 562q211 0 211 -270v-35q0 -269 -211 -269h-12q-211 0 -211 269v35q0 270 211 270h12z" />
    <glyph glyph-name="uniF770" unicode="&#xf770;" horiz-adv-x="468" 
d="M183 438v-193h52q42 0 60 20t18 59v27q0 45 -20.5 66t-70.5 21h-39zM48 550h197q104 0 153.5 -47t49.5 -140v-46q0 -83 -46 -126.5t-132 -43.5h-87v-147h-135v550z" />
    </font>
</defs>
</svg>
