<?xml version="1.0" standalone="no"?>
<!DOCTYPE svg PUBLIC "-//W3C//DTD SVG 1.1//EN" "http://www.w3.org/Graphics/SVG/1.1/DTD/svg11.dtd" >
<svg xmlns="http://www.w3.org/2000/svg" xmlns:xlink="http://www.w3.org/1999/xlink" version="1.1">
<metadata>
Created by FontForge 20170731 at Thu Jun 14 06:10:51 2012
 By Aleksey,,,
Copyright (c) 2012 by Nikola &#38; Zoran Kostic. All rights reserved.
</metadata>
<defs>
<font id="Breakers-Ultra" horiz-adv-x="500" >
  <font-face 
    font-family="Breakers"
    font-weight="900"
    font-stretch="normal"
    units-per-em="1000"
    panose-1="2 0 0 0 0 0 0 0 0 0"
    ascent="800"
    descent="-200"
    x-height="520"
    cap-height="660"
    bbox="-105 -398 1210 910"
    underline-thickness="50"
    underline-position="-150"
    unicode-range="U+0020-FFFB"
  />
<missing-glyph horiz-adv-x="470" 
d="M117 59h235v616h-235v-616zM59 0v733h353v-733h-353z" />
    <glyph glyph-name="f_f" unicode="ff" horiz-adv-x="690" 
d="M10 356v164h55v24q0 196 200 196q16 0 38.5 -3t36.5 -5l15 -3l-14 -149l-13 -6q-15 2 -28 2q-35 0 -35 -36v-20h120v24q0 110 53.5 153t151.5 43q21 0 45 -3t37 -5l13 -3l-14 -150l-13 -6q-16 3 -33 3q-40 0 -40 -36v-20h95v-164h-95v-356h-200v356h-120v-356h-200v356
h-55z" />
    <glyph glyph-name="fi" unicode="fi" horiz-adv-x="594" 
d="M570 0h-200v356h-105v-356h-200v356h-55v164h55v24q0 107 59 151.5t171 44.5q55 0 108 -8t79 -16l25 -9l-27 -142l-13 -6q-63 17 -132 17q-70 0 -70 -36v-20h305v-520z" />
    <glyph glyph-name="fl" unicode="fl" horiz-adv-x="677" 
d="M385 170v395q-38 11 -70 11q-31 0 -40.5 -9t-9.5 -27v-20h64v-164h-64v-356h-200v356h-55v164h55v24q0 107 54 151.5t151 44.5q49 0 103.5 -10t84.5 -20l31 -10h96v-498q0 -50 41 -50l23 3l19 -15v-128q-39 -24 -109 -24q-174 0 -174 182z" />
    <glyph glyph-name="f_f_i" unicode="ffi" horiz-adv-x="914" 
d="M265 356v-356h-200v356h-55v164h55v24q0 196 200 196q16 0 38.5 -3t36.5 -5l15 -3l-14 -149l-13 -6q-15 2 -28 2q-35 0 -35 -36v-20h120v24q0 107 59 151.5t171 44.5q55 0 108 -8t79 -16l25 -9l-27 -142l-13 -6q-63 17 -132 17q-70 0 -70 -36v-20h305v-520h-200v356h-105
v-356h-200v356h-120z" />
    <glyph glyph-name="f_f_l" unicode="ffl" horiz-adv-x="997" 
d="M705 170v395q-38 11 -70 11q-31 0 -40.5 -9t-9.5 -27v-20h64v-164h-64v-356h-200v356h-120v-356h-200v356h-55v164h55v24q0 196 200 196q16 0 38.5 -3t36.5 -5l15 -3l-14 -149l-13 -6q-15 2 -28 2q-35 0 -35 -36v-20h120v24q0 107 54 151.5t151 44.5q49 0 103.5 -10
t84.5 -20l31 -10h96v-498q0 -50 41 -50l23 3l19 -15v-128q-39 -24 -109 -24q-174 0 -174 182z" />
    <glyph glyph-name="f_t" unicode="ft" horiz-adv-x="693" 
d="M10 356v164h55v24q0 196 200 196q16 0 38.5 -3t36.5 -5l15 -3l-14 -149l-13 -6q-15 2 -28 2q-35 0 -35 -36v-20h110l60 120h140v-120h105v-164h-105v-146q0 -31 11.5 -44.5t39.5 -13.5l41 5l13 -7v-141q-42 -21 -108 -21q-118 0 -157.5 50.5t-39.5 166.5v151h-110v-356
h-200v356h-55z" />
    <glyph glyph-name="f_f_t" unicode="fft" horiz-adv-x="1013" 
d="M265 356v-356h-200v356h-55v164h55v24q0 196 200 196q16 0 38.5 -3t36.5 -5l15 -3l-14 -149l-13 -6q-15 2 -28 2q-35 0 -35 -36v-20h120v24q0 196 200 196q16 0 38.5 -3t36.5 -5l15 -3l-14 -149l-13 -6q-15 2 -28 2q-35 0 -35 -36v-20h110l60 120h140v-120h105v-164h-105
v-146q0 -31 11.5 -44.5t39.5 -13.5l41 5l13 -7v-141q-42 -21 -108 -21q-118 0 -157.5 50.5t-39.5 166.5v151h-110v-356h-200v356h-120z" />
    <glyph glyph-name="f_b" unicode="fb" horiz-adv-x="870" 
d="M679 -12q-67 0 -125 60h-4l-48 -48h-117v565q-38 11 -70 11q-31 0 -40.5 -9t-9.5 -27v-20h64v-164h-64v-356h-200v356h-55v164h55v24q0 107 54 151.5t151 44.5q49 0 103.5 -10t84.5 -20l31 -10h96v-205h1q50 37 110 37q80 0 119.5 -61t39.5 -204v-27q0 -130 -46.5 -191
t-129.5 -61zM655 260v7q0 60 -8.5 80.5t-29.5 20.5l-32 -5v-218q12 -3 26 -3q23 0 33.5 24t10.5 94z" />
    <glyph glyph-name="f_h" unicode="fh" horiz-adv-x="869" 
d="M585 0h-200v565q-38 11 -70 11q-31 0 -40.5 -9t-9.5 -27v-20h64v-164h-64v-356h-200v356h-55v164h55v24q0 107 54 151.5t151 44.5q49 0 103.5 -10t84.5 -20l31 -10h96v-213h2q54 45 121 45q63 0 100 -39.5t37 -103.5v-389h-200v347q0 21 -25 21q-8 0 -17 -2.5t-13 -5.5
l-5 -2v-358z" />
    <glyph glyph-name="f_j" unicode="fj" horiz-adv-x="594" 
d="M10 356v164h55v24q0 107 59 151.5t171 44.5q55 0 108 -8t79 -16l25 -9l-27 -142l-13 -6q-63 17 -132 17q-70 0 -70 -36v-20h305v-550q0 -91 -38 -136.5t-123 -45.5q-31 0 -61 7t-44 13l-15 7l15 125l15 13q10 -1 15 -1q36 0 36 43v361h-105v-356h-200v356h-55z" />
    <glyph glyph-name="f_k" unicode="fk" horiz-adv-x="884" 
d="M585 0h-200v565q-38 11 -70 11q-31 0 -40.5 -9t-9.5 -27v-20h64v-164h-64v-356h-200v356h-55v164h55v24q0 107 54 151.5t151 44.5q49 0 103.5 -10t84.5 -20l31 -10h96v-370h8l69 190h204l-98 -239l108 -281h-212l-73 190h-6v-190z" />
    <glyph glyph-name="f_y" unicode="fy" horiz-adv-x="811" 
d="M803 520l-152 -570q-22 -84 -65.5 -123t-122.5 -39q-32 0 -61 6t-42 12l-14 6l17 126l19 18q26 -4 46 -4q38 0 46 30l4 18h-38l-108 356h-67v-356h-200v356h-55v164h55v24q0 110 53.5 153t151.5 43q21 0 45 -3t37 -5l13 -3l-14 -150l-13 -6q-16 3 -33 3q-40 0 -40 -36
v-20h216l48 -170l11 -100h13l10 100l41 170h199z" />
    <glyph glyph-name="f_f_b" unicode="ffb" horiz-adv-x="1190" 
d="M999 -12q-67 0 -125 60h-4l-48 -48h-117v565q-38 11 -70 11q-31 0 -40.5 -9t-9.5 -27v-20h64v-164h-64v-356h-200v356h-120v-356h-200v356h-55v164h55v24q0 196 200 196q16 0 38.5 -3t36.5 -5l15 -3l-14 -149l-13 -6q-15 2 -28 2q-35 0 -35 -36v-20h120v24
q0 107 54 151.5t151 44.5q49 0 103.5 -10t84.5 -20l31 -10h96v-205h1q50 37 110 37q80 0 119.5 -61t39.5 -204v-27q0 -130 -46.5 -191t-129.5 -61zM975 260v7q0 60 -8.5 80.5t-29.5 20.5l-32 -5v-218q12 -3 26 -3q23 0 33.5 24t10.5 94z" />
    <glyph glyph-name="f_f_h" unicode="ffh" horiz-adv-x="1189" 
d="M905 0h-200v565q-38 11 -70 11q-31 0 -40.5 -9t-9.5 -27v-20h64v-164h-64v-356h-200v356h-120v-356h-200v356h-55v164h55v24q0 196 200 196q16 0 38.5 -3t36.5 -5l15 -3l-14 -149l-13 -6q-15 2 -28 2q-35 0 -35 -36v-20h120v24q0 107 54 151.5t151 44.5q49 0 103.5 -10
t84.5 -20l31 -10h96v-213h2q54 45 121 45q63 0 100 -39.5t37 -103.5v-389h-200v347q0 21 -25 21q-8 0 -17 -2.5t-13 -5.5l-5 -2v-358z" />
    <glyph glyph-name="f_f_j" unicode="ffj" horiz-adv-x="914" 
d="M10 356v164h55v24q0 196 200 196q16 0 38.5 -3t36.5 -5l15 -3l-14 -149l-13 -6q-15 2 -28 2q-35 0 -35 -36v-20h120v24q0 107 59 151.5t171 44.5q55 0 108 -8t79 -16l25 -9l-27 -142l-13 -6q-63 17 -132 17q-70 0 -70 -36v-20h305v-550q0 -91 -38 -136.5t-123 -45.5
q-31 0 -61 7t-44 13l-15 7l15 125l15 13q10 -1 15 -1q36 0 36 43v361h-105v-356h-200v356h-120v-356h-200v356h-55z" />
    <glyph glyph-name="f_f_k" unicode="ffk" horiz-adv-x="1204" 
d="M905 0h-200v565q-38 11 -70 11q-31 0 -40.5 -9t-9.5 -27v-20h64v-164h-64v-356h-200v356h-120v-356h-200v356h-55v164h55v24q0 196 200 196q16 0 38.5 -3t36.5 -5l15 -3l-14 -149l-13 -6q-15 2 -28 2q-35 0 -35 -36v-20h120v24q0 107 54 151.5t151 44.5q49 0 103.5 -10
t84.5 -20l31 -10h96v-370h8l69 190h204l-98 -239l108 -281h-212l-73 190h-6v-190z" />
    <glyph glyph-name="f_f_y" unicode="ffy" horiz-adv-x="1131" 
d="M265 356v-356h-200v356h-55v164h55v24q0 196 200 196q16 0 38.5 -3t36.5 -5l15 -3l-14 -149l-13 -6q-15 2 -28 2q-35 0 -35 -36v-20h120v24q0 110 53.5 153t151.5 43q21 0 45 -3t37 -5l13 -3l-14 -150l-13 -6q-16 3 -33 3q-40 0 -40 -36v-20h216l48 -170l11 -100h13
l10 100l41 170h199l-152 -570q-22 -84 -65.5 -123t-122.5 -39q-32 0 -61 6t-42 12l-14 6l17 126l19 18q26 -4 46 -4q38 0 46 30l4 18h-38l-108 356h-67v-356h-200v356h-120z" />
    <glyph glyph-name="t_t" unicode="tt" horiz-adv-x="728" 
d="M13 356v164h55l60 120h140v-120h142l60 120h140v-120h105v-164h-105v-146q0 -31 11.5 -44.5t39.5 -13.5l41 5l13 -7v-141q-42 -21 -108 -21q-118 0 -157.5 50.5t-39.5 166.5v151h-142v-146q0 -31 11.5 -44.5t39.5 -13.5l31 3l13 -7v-144q-32 -16 -98 -16
q-118 0 -157.5 50.5t-39.5 166.5v151h-55z" />
    <glyph glyph-name="t_y" unicode="ty" horiz-adv-x="876" 
d="M868 520l-152 -570q-22 -84 -65.5 -123t-122.5 -39q-32 0 -61 6t-43 12l-13 6l17 126l19 18q26 -4 46 -4q38 0 46 30l4 18h-38l-108 356h-129v-146q0 -31 11.5 -44.5t39.5 -13.5l41 5l13 -7v-141q-42 -21 -108 -21q-118 0 -157.5 50.5t-39.5 166.5v151h-55v164h55l60 120
h140v-120h278l48 -170l11 -100h13l10 100l41 170h199z" />
    <glyph glyph-name="t_t_y" unicode="tty" horiz-adv-x="1218" 
d="M1210 520l-152 -570q-22 -84 -65.5 -123t-122.5 -39q-32 0 -61 6t-43 12l-13 6l17 126l19 18q26 -4 46 -4q38 0 46 30l4 18h-38l-108 356h-129v-146q0 -31 11.5 -44.5t39.5 -13.5l41 5l13 -7v-141q-42 -21 -108 -21q-118 0 -157.5 50.5t-39.5 166.5v151h-142v-146
q0 -31 11.5 -44.5t39.5 -13.5l31 3l13 -7v-144q-32 -16 -98 -16q-118 0 -157.5 50.5t-39.5 166.5v151h-55v164h55l60 120h140v-120h142l60 120h140v-120h278l48 -170l11 -100h13l10 100l41 170h199z" />
    <glyph glyph-name=".notdef" horiz-adv-x="470" 
d="M117 59h235v616h-235v-616zM59 0v733h353v-733h-353z" />
    <glyph glyph-name=".null" horiz-adv-x="0" 
 />
    <glyph glyph-name="nonmarkingreturn" horiz-adv-x="333" 
 />
    <glyph glyph-name="space" unicode=" " horiz-adv-x="220" 
 />
    <glyph glyph-name="exclam" unicode="!" horiz-adv-x="304" 
d="M141 692h19q50 0 70 -17.5t20 -54.5v-134l-50 -215h-96l-50 215v134q0 37 18.5 54.5t68.5 17.5zM262 96q0 -47 -31.5 -76.5t-78.5 -29.5t-78.5 29.5t-31.5 76.5t31.5 76.5t78.5 29.5t78.5 -29.5t31.5 -76.5z" />
    <glyph glyph-name="quotedbl" unicode="&#x22;" horiz-adv-x="489" 
d="M104 700h58q36 0 50 -13.5t14 -41.5v-49l-53 -212h-80l-53 212v49q0 55 64 55zM327 700h58q36 0 50 -13.5t14 -41.5v-49l-53 -212h-80l-53 212v49q0 55 64 55z" />
    <glyph glyph-name="numbersign" unicode="#" horiz-adv-x="631" 
d="M109 0l28 146h-99l33 164h98l12 60h-100l32 164h100l25 126h106l-25 -126h67l25 126h106l-25 -126h101l-32 -164h-101l-12 -60h103l-33 -164h-102l-28 -146h-106l28 146h-67l-28 -146h-106zM287 370l-12 -60h67l12 60h-67z" />
    <glyph glyph-name="dollar" unicode="$" horiz-adv-x="534" 
d="M45 10q-1 8 -2 22t-3 54t-1 76l16 8q41 -9 89 -15v95q-124 45 -124 190q0 131 124 187v113h104v-91q33 3 50 3v88h104v-95l82 -17l-14 -148l-17 -8q-25 6 -51 9v-97q51 -19 81.5 -64.5t30.5 -112.5q0 -145 -112 -192v-115h-104v89q-19 -1 -50 -1v-88h-104v92
q-28 4 -53 8.5t-35 7.5zM314 193q0 25 -26 30l-40 8v-80q36 1 51 11t15 31zM220 448q0 -25 40 -34l38 -8v82q-78 0 -78 -40z" />
    <glyph glyph-name="percent" unicode="%" horiz-adv-x="834" 
d="M179 650h26q54 0 99 -38.5t45 -112.5v-41q0 -73 -45 -111.5t-99 -38.5h-26q-54 0 -99 38.5t-45 111.5v41q0 74 45 112.5t99 38.5zM212 428v102q0 20 -20 20t-20 -20v-102q0 -20 20 -20t20 20zM151 -12l407 671h131l-407 -671h-131zM629 330h26q54 0 99 -38.5t45 -112.5
v-41q0 -73 -45 -111.5t-99 -38.5h-26q-54 0 -99 38.5t-45 111.5v41q0 74 45 112.5t99 38.5zM662 108v102q0 20 -20 20t-20 -20v-102q0 -20 20 -20t20 20z" />
    <glyph glyph-name="ampersand" unicode="&#x26;" horiz-adv-x="670" 
d="M15 183q0 62 30 104.5t72 60.5v10l-7 8q-48 59 -47 127q0 86 61 132.5t164 46.5q102 0 161 -45.5t59 -127.5q0 -103 -123 -177v-2l24 -27q8 -8 16 -20.5t12 -20.5l4 -9h4q4 18 4 77h170q0 -132 -58 -201l104 -119h-236l-27 30q-57 -42 -149 -42q-113 0 -175.5 53.5
t-62.5 141.5zM268 142q17 0 31 7l-84 96q-10 -15 -10 -40q0 -63 63 -63zM272 450l16 -19q35 29 35 57q0 30 -35 30t-35 -30q0 -16 19 -38z" />
    <glyph glyph-name="quotesingle" unicode="'" horiz-adv-x="266" 
d="M104 700h58q36 0 50 -13.5t14 -41.5v-49l-53 -212h-80l-53 212v49q0 55 64 55z" />
    <glyph glyph-name="parenleft" unicode="(" horiz-adv-x="332" 
d="M302 -100h-126q-6 6 -15 16.5t-32.5 47.5t-41.5 79t-33 109t-15 138q0 78 16 150t39.5 119t46.5 82.5t39 52.5l16 16h126q-4 -7 -11.5 -20t-26 -56t-33 -89t-26 -116t-11.5 -139q0 -98 22 -195.5t44 -146.5z" />
    <glyph glyph-name="parenright" unicode=")" horiz-adv-x="332" 
d="M156 -100h-126q4 7 9.5 19.5t21 53.5t27 84.5t21 107t9.5 125.5q0 69 -11 138t-27 117.5t-32 87.5t-27 58l-11 19h126l17 -17t38 -50.5t47.5 -84.5t37.5 -117.5t17 -150.5q0 -71 -14 -137.5t-34.5 -110.5t-40.5 -77.5t-34 -48.5z" />
    <glyph glyph-name="asterisk" unicode="*" horiz-adv-x="482" 
d="M122 626l80 -73l11 8l-46 98v46q0 21 10.5 28t33.5 7h60q23 0 33.5 -7t10.5 -28v-46l-45 -99l10 -8l80 74l44 15q33 11 46 -31l19 -57q8 -20 4 -33.5t-24 -19.5l-43 -14l-108 12l-5 -12l95 -53l27 -37q12 -19 8 -30t-23 -24l-48 -36q-19 -13 -30.5 -13.5t-25.5 16.5
l-27 37l-22 107h-13l-21 -107l-27 -37q-14 -17 -25.5 -16.5t-30.5 13.5l-48 36q-19 13 -23 24t8 30l27 37l94 54l-3 12l-109 -13l-43 14q-20 6 -24 19.5t4 33.5l19 57q13 42 46 31z" />
    <glyph glyph-name="plus" unicode="+" 
d="M470 231h-150v-151h-140v151h-150v140h150v149h140v-149h150v-140z" />
    <glyph glyph-name="comma" unicode="," horiz-adv-x="288" 
d="M34 96q0 47 31.5 76.5t78.5 29.5t78.5 -29.5t31.5 -76.5q0 -36 -15 -67t-48 -73l-80 -102h-63v22l47 122v4q-61 28 -61 94z" />
    <glyph glyph-name="hyphen" unicode="-" horiz-adv-x="334" 
d="M292 231h-250v140h250v-140z" />
    <glyph glyph-name="period" unicode="." horiz-adv-x="288" 
d="M254 96q0 -47 -31.5 -76.5t-78.5 -29.5t-78.5 29.5t-31.5 76.5t31.5 76.5t78.5 29.5t78.5 -29.5t31.5 -76.5z" />
    <glyph glyph-name="slash" unicode="/" horiz-adv-x="567" 
d="M20 -100l374 840h153l-374 -840h-153z" />
    <glyph glyph-name="zero" unicode="0" horiz-adv-x="540" 
d="M261 672h19q100 0 162.5 -73.5t62.5 -226.5v-83q0 -153 -62.5 -227t-162.5 -74h-19q-100 0 -163 74t-63 227v83q0 153 62.5 226.5t163.5 73.5zM305 201v260q0 47 -35 47t-35 -47v-260q0 -49 35 -49t35 49z" />
    <glyph glyph-name="one" unicode="1" horiz-adv-x="350" 
d="M20 421v95l173 144h117v-660h-200v421h-90z" />
    <glyph glyph-name="two" unicode="2" horiz-adv-x="478" 
d="M452 463v-11q0 -69 -31 -118.5t-116 -122.5l-46 -42v-5h183v-164h-419v129q0 29 7.5 53.5t28 50t34.5 40t47 45.5l55 51q36 34 46.5 52t10.5 37q0 20 -18 35t-59 15q-23 0 -50.5 -5t-43.5 -11l-16 -5l-15 8q-10 73 -16 136q0 2 23.5 11t71 19.5t96.5 10.5
q108 0 167.5 -58t59.5 -151z" />
    <glyph glyph-name="three" unicode="3" horiz-adv-x="454" 
d="M428 209v-11q0 -96 -62 -153t-173 -57q-47 0 -91 10t-65 18.5t-21 10.5l15 136l15 7q65 -18 99 -18q83 0 83 60v5q0 25 -17 38t-63 13h-68v138h90q50 0 50 48v5q0 49 -70 49q-17 0 -41 -4t-39 -8l-16 -3l-14 7q-10 73 -15 137q0 2 20.5 9.5t64 16.5t90.5 9
q102 0 156 -49.5t54 -127.5v-5q0 -79 -49 -124v-3q67 -53 67 -154z" />
    <glyph glyph-name="four" unicode="4" horiz-adv-x="493" 
d="M18 244l147 416h195l-143 -406h51l52 146h116v-146h47v-164h-47v-90h-200v90h-218v154z" />
    <glyph glyph-name="five" unicode="5" horiz-adv-x="472" 
d="M443 240v-10q0 -242 -218 -242q-53 0 -102 10.5t-71 21.5l-23 10l14 133l16 8q61 -19 109 -19q75 0 75 64v4q0 23 -14.5 38.5t-40.5 15.5q-14 0 -27.5 -5t-20.5 -9l-6 -5l-100 29l20 376h349v-164h-158l-4 -77l2 -1q14 4 32 4q82 0 125 -49t43 -133z" />
    <glyph glyph-name="six" unicode="6" horiz-adv-x="525" 
d="M345 508q-54 0 -80 -21t-30 -77h3q39 27 102 27q74 0 119.5 -50.5t45.5 -135.5v-21q0 -109 -57 -175.5t-174 -66.5q-239 0 -239 287v55q0 174 71 258t214 84q34 0 68 -6t50 -12l17 -7q-3 -30 -7.5 -66.5t-7 -58.5t-2.5 -21l-13 -6q-47 13 -80 13zM266 283l-31 -4v-74
q0 -53 35 -53t35 48v39q0 44 -39 44z" />
    <glyph glyph-name="seven" unicode="7" horiz-adv-x="454" 
d="M18 496v164h429v-163l-184 -497h-217l195 485v11h-223z" />
    <glyph glyph-name="eight" unicode="8" horiz-adv-x="530" 
d="M25 180q0 95 67 146v7q-57 49 -57 137q0 98 62.5 150t167.5 52q102 0 163.5 -48.5t61.5 -133.5q0 -43 -17 -78t-46 -54v-4q78 -53 78 -149q0 -217 -240 -217q-103 0 -171.5 47.5t-68.5 144.5zM276 235l-36 15q-25 -28 -25 -60q0 -22 14.5 -35t37.5 -13q22 0 35 12t13 33
q0 31 -39 48zM215 480q0 -28 38 -45l33 -15q29 29 29 58q0 16 -13.5 28t-38.5 12t-36.5 -11.5t-11.5 -26.5z" />
    <glyph glyph-name="nine" unicode="9" horiz-adv-x="530" 
d="M192 152q54 0 78.5 22t24.5 76h-3q-39 -27 -100 -27q-72 0 -119.5 52t-47.5 134v21q0 108 58.5 175t172.5 67q115 0 177 -71.5t62 -215.5v-55q0 -172 -65 -257t-205 -85q-40 0 -78.5 7t-57.5 13l-19 7q3 30 7.5 66.5t7 58.5t2.5 21l13 6q54 -15 92 -15zM264 377l31 4v74
q0 53 -35 53t-35 -48v-39q0 -44 39 -44z" />
    <glyph glyph-name="colon" unicode=":" horiz-adv-x="288" 
d="M254 96q0 -47 -31.5 -76.5t-78.5 -29.5t-78.5 29.5t-31.5 76.5t31.5 76.5t78.5 29.5t78.5 -29.5t31.5 -76.5zM254 394q0 -47 -31.5 -76.5t-78.5 -29.5t-78.5 29.5t-31.5 76.5t31.5 76.5t78.5 29.5t78.5 -29.5t31.5 -76.5z" />
    <glyph glyph-name="semicolon" unicode=";" horiz-adv-x="288" 
d="M34 96q0 47 31.5 76.5t78.5 29.5t78.5 -29.5t31.5 -76.5q0 -36 -15 -67t-48 -73l-80 -102h-63v22l47 122v4q-61 28 -61 94zM254 394q0 -47 -31.5 -76.5t-78.5 -29.5t-78.5 29.5t-31.5 76.5t31.5 76.5t78.5 29.5t78.5 -29.5t31.5 -76.5z" />
    <glyph glyph-name="less" unicode="&#x3c;" 
d="M445 185v-137h-39l-352 193v96l352 195h39v-139l-192 -104v-1z" />
    <glyph glyph-name="equal" unicode="=" 
d="M450 325h-400v140h400v-140zM450 115h-400v140h400v-140z" />
    <glyph glyph-name="greater" unicode="&#x3e;" 
d="M54 395v137h39l352 -193v-96l-352 -195h-39v139l192 104v1z" />
    <glyph glyph-name="question" unicode="?" horiz-adv-x="443" 
d="M428 486v-11q0 -109 -88 -158l-31 -17q-18 -10 -18 -35v-21h-200v91q0 33 12 51.5t43 35.5l57 31q25 13 25 29v2q0 24 -48 24q-25 0 -54.5 -4.5t-45.5 -9.5l-17 -4l-15 8q-10 75 -14 135q8 4 22.5 10.5t63 17.5t100.5 11q108 0 158 -51t50 -135zM301 96
q0 -47 -31.5 -76.5t-78.5 -29.5t-78.5 29.5t-31.5 76.5t31.5 76.5t78.5 29.5t78.5 -29.5t31.5 -76.5z" />
    <glyph glyph-name="at" unicode="@" horiz-adv-x="847" 
d="M581 68q-74 0 -115 41h-6q-49 -41 -116 -41q-65 0 -104.5 44.5t-39.5 117.5q0 65 17 126q24 87 75 131.5t120 44.5q63 0 103 -45l38 33h98l-59 -294q-4 -22 4.5 -34t25.5 -12q39 0 71 45.5t32 127.5v41q0 216 -279 216h-21q-143 0 -223 -81t-80 -213v-60
q0 -131 74 -202.5t217 -71.5h11q89 0 252 23l12 -87q-138 -38 -264 -38h-11q-194 0 -293.5 98t-99.5 278v60q0 181 106 288.5t299 107.5h21q381 0 381 -318v-41q0 -75 -21 -131.5t-56.5 -89t-78 -48.5t-90.5 -16zM396 198q18 0 32 14q0 34 6 59l25 123q-13 4 -23 4
q-23 0 -37.5 -17t-25.5 -69q-9 -42 -9 -70q0 -44 32 -44z" />
    <glyph glyph-name="A" unicode="A" horiz-adv-x="560" 
d="M346 0l-13 86h-107l-12 -86h-204l140 660h260l140 -660h-204zM260 315l-11 -75h62l-11 75l-13 150h-14q-8 -115 -13 -150z" />
    <glyph glyph-name="B" unicode="B" horiz-adv-x="515" 
d="M30 0v660h253q99 0 150.5 -45t51.5 -131v-8q0 -105 -85 -133v-4q100 -28 100 -155v-8q0 -75 -39.5 -125.5t-127.5 -50.5h-303zM257 260h-27v-110h35q35 0 35 44v20q0 46 -43 46zM255 510h-25v-112h29q31 0 31 47v20q0 45 -35 45z" />
    <glyph glyph-name="C" unicode="C" horiz-adv-x="425" 
d="M410 12q-47 -24 -126 -24q-264 0 -264 312v35q0 177 70.5 257t207.5 80q24 0 49.5 -3.5t38.5 -6.5l14 -4l-15 -149l-13 -6q-31 5 -54 5q-48 0 -72 -39.5t-24 -135.5v-21q0 -160 101 -160q9 0 22.5 2.5t22.5 5.5l9 2l13 -6q13 -76 20 -144z" />
    <glyph glyph-name="D" unicode="D" horiz-adv-x="520" 
d="M30 0v660h236q234 0 234 -253v-183q0 -111 -51.5 -167.5t-147.5 -56.5h-271zM246 496h-16v-332h19q12 0 18.5 1.5t15.5 6.5t13 18.5t4 35.5v184q0 86 -54 86z" />
    <glyph glyph-name="E" unicode="E" horiz-adv-x="389" 
d="M30 0v660h339v-164h-139v-88h109v-138h-109v-106h149v-164h-349z" />
    <glyph glyph-name="F" unicode="F" horiz-adv-x="379" 
d="M30 0v660h339v-164h-139v-100h109v-150h-109v-246h-200z" />
    <glyph glyph-name="G" unicode="G" horiz-adv-x="512" 
d="M273 152l9 1v207h200v-360h-104l-26 35q-51 -47 -117 -47q-215 0 -215 317v35q0 175 74 253.5t221 78.5q37 0 73.5 -6t55.5 -12l18 -7l-15 -149l-13 -7q-64 17 -104 17q-60 0 -84 -35t-24 -140v-31q0 -90 12 -120t39 -30z" />
    <glyph glyph-name="H" unicode="H" horiz-adv-x="530" 
d="M300 0v247h-70v-247h-200v660h200v-249h70v249h200v-660h-200z" />
    <glyph glyph-name="I" unicode="I" horiz-adv-x="260" 
d="M30 0v660h200v-660h-200z" />
    <glyph glyph-name="J" unicode="J" horiz-adv-x="331" 
d="M10 1l11 142l12 11q10 -2 24 -2q23 0 34 16.5t11 62.5v429h199v-451q0 -68 -11.5 -112.5t-37 -68t-58 -32t-81.5 -8.5q-21 0 -47 3t-41 7z" />
    <glyph glyph-name="K" unicode="K" horiz-adv-x="556" 
d="M546 0h-213l-89 247h-14v-247h-200v660h200v-249h13l92 249h207l-121 -323z" />
    <glyph glyph-name="L" unicode="L" horiz-adv-x="369" 
d="M30 0v660h200v-496h129v-164h-329z" />
    <glyph glyph-name="M" unicode="M" horiz-adv-x="692" 
d="M311 20l-38 142l-44 192l-8 -2q9 -152 9 -220v-132h-200v660h250l51 -198l12 -68h6q6 46 12 68l51 198h250v-660h-200v132l9 220l-8 2q-32 -154 -44 -192l-38 -142h-70z" />
    <glyph glyph-name="N" unicode="N" horiz-adv-x="584" 
d="M338 0l-79 195q-8 20 -17.5 55t-14.5 60l-5 26l-8 -1l15 -157v-178h-199v660h216l76 -190q9 -22 19 -59t16 -63l6 -26l8 1l-16 159v178h199v-660h-216z" />
    <glyph glyph-name="O" unicode="O" horiz-adv-x="514" 
d="M249 672h16q124 0 176.5 -77.5t52.5 -242.5v-43q0 -165 -52.5 -243t-176.5 -78h-16q-124 0 -176.5 78t-52.5 243v43q0 165 52.5 242.5t176.5 77.5zM292 220v223q0 65 -35 65t-35 -65v-223q0 -68 35 -68t35 68z" />
    <glyph glyph-name="P" unicode="P" horiz-adv-x="505" 
d="M30 0v660h246q107 0 160.5 -52.5t53.5 -164.5v-53q0 -200 -176 -200h-84v-190h-200zM244 496h-14v-168h20q24 0 32 15.5t8 45.5v45q0 62 -46 62z" />
    <glyph glyph-name="Q" unicode="Q" horiz-adv-x="514" 
d="M249 672h16q124 0 176.5 -77.5t52.5 -242.5v-43q0 -189 -69 -264l40 -78l-139 -67l-44 89q-7 -1 -21 -1h-12q-124 0 -176.5 78t-52.5 243v43q0 165 52.5 242.5t176.5 77.5zM292 220v223q0 65 -35 65t-35 -65v-223q0 -68 35 -68t35 68z" />
    <glyph glyph-name="R" unicode="R" horiz-adv-x="535" 
d="M252 496h-22v-126h29q26 0 38.5 11t12.5 39v15q0 30 -11.5 45.5t-46.5 15.5zM520 0h-206l-53 210q-5 22 -23 22h-8v-232h-200v660h260q111 0 165.5 -53.5t54.5 -149.5v-17q0 -122 -81 -167v-5q19 -14 34 -64z" />
    <glyph glyph-name="S" unicode="S" horiz-adv-x="460" 
d="M38 9q-4 37 -5 75t0 57l1 19l16 9q59 -17 118 -17q77 0 77 48q0 26 -31 39l-83 33q-116 47 -116 179q0 221 248 221q36 0 71.5 -5t52.5 -10l17 -5q0 -30 -2 -67.5t-4 -60.5l-3 -22l-17 -8q-48 14 -90 14q-43 0 -58 -12t-15 -33q0 -20 27 -32l85 -36q118 -49 118 -180
q0 -227 -237 -227q-46 0 -88.5 5.5t-61.5 10.5z" />
    <glyph glyph-name="T" unicode="T" horiz-adv-x="390" 
d="M10 496v164h370v-164h-85v-496h-200v496h-85z" />
    <glyph glyph-name="U" unicode="U" horiz-adv-x="530" 
d="M300 660h200v-426q0 -246 -225 -246h-20q-225 0 -225 246v426h200v-460q0 -48 35 -48t35 48v460z" />
    <glyph glyph-name="V" unicode="V" horiz-adv-x="548" 
d="M289 345l45 315h204l-120 -660h-288l-120 660h204l45 -315l10 -135h10q4 90 10 135z" />
    <glyph glyph-name="W" unicode="W" horiz-adv-x="742" 
d="M433 640l39 -220l12 -93h12l3 113l31 220h202l-103 -660h-211l-23 128l-19 143h-10q-10 -95 -19 -143l-23 -128h-211l-103 660h202l31 -220l3 -113h12q6 58 12 93l39 220h124z" />
    <glyph glyph-name="X" unicode="X" horiz-adv-x="558" 
d="M15 660h210l33 -126q4 -15 8 -40t6 -42l2 -17h10q7 65 16 99l33 126h210l-98 -322l103 -338h-210l-44 159q-3 12 -5.5 33t-3.5 36l-1 15h-10q-3 -58 -10 -84l-44 -159h-210l103 338z" />
    <glyph glyph-name="Y" unicode="Y" horiz-adv-x="562" 
d="M10 660h213l39 -145q4 -16 7.5 -44.5t4.5 -49.5l2 -21h10q4 80 14 115l41 145h211l-171 -475v-185h-200v185z" />
    <glyph glyph-name="Z" unicode="Z" horiz-adv-x="419" 
d="M30 496v164h374v-79l-132 -359q-5 -15 -12 -28t-12 -18l-4 -6v-6h160v-164h-389v79l131 356q6 16 13 29.5t11 19.5l4 6v6h-144z" />
    <glyph glyph-name="bracketleft" unicode="[" horiz-adv-x="332" 
d="M50 -120v830h262v-103h-86v-624h86v-103h-262z" />
    <glyph glyph-name="backslash" unicode="\" horiz-adv-x="567" 
d="M173 740l374 -840h-153l-374 840h153z" />
    <glyph glyph-name="bracketright" unicode="]" horiz-adv-x="331" 
d="M281 710v-830h-261v103h85v624h-85v103h261z" />
    <glyph glyph-name="asciicircum" unicode="^" horiz-adv-x="506" 
d="M181 280h-154l166 370h120l166 -370h-154l-68 160h-8z" />
    <glyph glyph-name="underscore" unicode="_" 
d="M500 -70v-54h-500v54h500z" />
    <glyph glyph-name="grave" unicode="`" horiz-adv-x="290" 
d="M31 664v56h168l69 -117l-11 -23h-111z" />
    <glyph glyph-name="a" unicode="a" horiz-adv-x="533" 
d="M72 519q58 13 141 13q138 0 198.5 -48.5t60.5 -151.5v-146q0 -25 22 -29l22 -4l8 -19l-23 -104q-4 -5 -12 -12t-36 -18.5t-59 -11.5q-69 0 -104 49h-8q-47 -49 -119 -49q-68 0 -109.5 42t-41.5 110v20q0 69 43 109t113 47l104 11v3q0 20 -17 29t-67 9q-30 0 -60 -3.5
t-45 -6.5l-15 -4l-18 12q4 41 9.5 79.5t8.5 56.5zM236 138q8 0 17 3t14 7l5 3v79l-37 -12q-23 -7 -23 -38v-14q0 -28 24 -28z" />
    <glyph glyph-name="b" unicode="b" horiz-adv-x="509" 
d="M294 260v7q0 60 -8.5 80.5t-29.5 20.5l-32 -5v-218q12 -3 26 -3q23 0 33.5 24t10.5 94zM318 -12q-67 0 -125 60h-4l-48 -48h-117v700h200v-205h1q50 37 110 37q80 0 119.5 -61t39.5 -204v-27q0 -130 -46.5 -191t-129.5 -61z" />
    <glyph glyph-name="c" unicode="c" horiz-adv-x="374" 
d="M366 11q-50 -23 -121 -23q-109 0 -169.5 59.5t-60.5 197.5v15q0 142 59.5 207t175.5 65q28 0 54 -4t38 -8l12 -3q-6 -97 -16 -149l-14 -6q-24 6 -44 6q-32 0 -48.5 -22.5t-16.5 -77.5v-21q0 -55 17 -75t53 -20q9 0 21 2.5t20 5.5l7 2l14 -6q10 -62 19 -145z" />
    <glyph glyph-name="d" unicode="d" horiz-adv-x="546" 
d="M485 700v-514q0 -25 22 -29l22 -4l8 -19l-23 -104q-4 -5 -12 -12t-35.5 -18.5t-57.5 -11.5q-71 0 -106 49h-8q-47 -49 -111 -49q-81 0 -125 64.5t-44 190.5v24q0 141 53 203t151 62q38 0 66 -6v174h200zM215 267v-7q0 -70 10.5 -94t33.5 -24q6 0 12.5 2t10.5 4l3 3v214
q-12 3 -25 3q-24 0 -34.5 -21t-10.5 -80z" />
    <glyph glyph-name="e" unicode="e" horiz-adv-x="468" 
d="M444 210h-229v-10q0 -24 14.5 -36t58.5 -12q26 0 57.5 5t50.5 11l18 5l14 -8q6 -65 7 -140q-63 -37 -175 -37q-118 0 -181.5 63.5t-63.5 193.5v36q0 119 63 185t161 66h23q191 0 191 -213v-17q0 -16 -2.5 -39t-4.5 -38zM215 353v-45h60v57q0 33 -26 33q-14 0 -24 -11.5
t-10 -33.5z" />
    <glyph glyph-name="f" unicode="f" horiz-adv-x="370" 
d="M10 356v164h55v24q0 110 53.5 153t151.5 43q21 0 45 -3t37 -5l13 -3l-14 -150l-13 -6q-16 3 -33 3q-40 0 -40 -36v-20h95v-164h-95v-356h-200v356h-55z" />
    <glyph glyph-name="g" unicode="g" horiz-adv-x="549" 
d="M16 -90q0 59 61 88v5q-38 23 -38 72q0 34 15.5 62t49.5 64q-89 49 -89 148q0 86 59.5 134.5t162.5 48.5h15q107 0 167 -58h2q35 46 89 46h25v-157l-18 -11q-13 4 -31 4h-12v-7q0 -87 -55.5 -133t-164.5 -46l-48 1q-3 -9 -3 -20q0 -21 23 -21h109q90 0 138 -43.5
t48 -109.5v-17q0 -75 -52.5 -123.5t-165.5 -48.5h-77q-98 0 -154 30.5t-56 86.5v5zM280 -18h-64v-40q0 -46 54 -46q51 0 51 44v5q0 37 -41 37zM275 333v36q0 21 -6.5 30t-23.5 9t-23.5 -9t-6.5 -30v-36q0 -21 6.5 -30t23.5 -9t23.5 9t6.5 30z" />
    <glyph glyph-name="h" unicode="h" horiz-adv-x="508" 
d="M224 0h-200v700h200v-213h2q54 45 121 45q63 0 100 -39.5t37 -103.5v-389h-200v347q0 21 -25 21q-8 0 -16.5 -2.5t-13.5 -5.5l-5 -2v-358z" />
    <glyph glyph-name="i" unicode="i" horiz-adv-x="248" 
d="M224 0h-200v520h200v-520zM12 648q0 44 30.5 66t81.5 22t81.5 -22t30.5 -66t-30.5 -66t-81.5 -22t-81.5 21.5t-30.5 66.5z" />
    <glyph glyph-name="j" unicode="j" horiz-adv-x="245" 
d="M221 520v-550q0 -91 -38 -136.5t-123 -45.5q-31 0 -61 7t-45 13l-14 7l15 125l15 13q10 -1 15 -1q36 0 36 43v525h200zM9 648q0 44 30.5 66t81.5 22t81.5 -22t30.5 -66t-30.5 -66t-81.5 -22t-81.5 21.5t-30.5 66.5z" />
    <glyph glyph-name="k" unicode="k" horiz-adv-x="523" 
d="M224 0h-200v700h200v-370h8l69 190h204l-98 -239l108 -281h-212l-73 190h-6v-190z" />
    <glyph glyph-name="l" unicode="l" horiz-adv-x="316" 
d="M24 170v530h200v-498q0 -50 41 -50l23 3l19 -15v-128q-39 -24 -109 -24q-174 0 -174 182z" />
    <glyph glyph-name="m" unicode="m" horiz-adv-x="758" 
d="M224 362v-362h-200v520h117l57 -59q58 71 140 71q81 0 121 -64q56 64 134 64q65 0 103 -41t38 -106v-385h-200v345q0 23 -26 23l-29 -6v-362h-200v345q0 23 -26 23z" />
    <glyph glyph-name="n" unicode="n" horiz-adv-x="508" 
d="M224 0h-200v520h117l58 -58q64 70 148 70q63 0 100 -39.5t37 -103.5v-389h-200v346q0 22 -25 22q-8 0 -16.5 -2.5t-13.5 -5.5l-5 -2v-358z" />
    <glyph glyph-name="o" unicode="o" horiz-adv-x="490" 
d="M236 532h18q96 0 158.5 -67.5t62.5 -183.5v-42q0 -116 -62.5 -183.5t-158.5 -67.5h-18q-96 0 -158.5 67.5t-62.5 183.5v42q0 116 62.5 183.5t158.5 67.5zM275 190v140q0 38 -30 38t-30 -38v-140q0 -38 30 -38t30 38z" />
    <glyph glyph-name="p" unicode="p" horiz-adv-x="509" 
d="M294 262v5q0 58 -10 79.5t-35 21.5l-25 -3v-220q10 -3 22 -3q17 0 26 6t15.5 33t6.5 81zM224 -200h-200v720h117l53 -55q50 67 129 67q84 0 127.5 -62.5t43.5 -202.5v-27q0 -129 -43.5 -190.5t-119.5 -61.5q-59 0 -105 32h-2v-220z" />
    <glyph glyph-name="q" unicode="q" horiz-adv-x="509" 
d="M215 267v-17q0 -64 11 -86t33 -22q6 0 12.5 2t10.5 4l3 3v214q-12 3 -26 3q-26 0 -35 -23.5t-9 -77.5zM485 -200h-200v212h-2q-40 -24 -99 -24q-80 0 -124.5 64t-44.5 188v20q0 143 51.5 207.5t138.5 64.5q41 0 74 -17.5t49 -33.5l40 39h117v-720z" />
    <glyph glyph-name="r" unicode="r" horiz-adv-x="344" 
d="M224 0h-200v520h117l53 -56h2q13 20 24 32.5t35.5 24t56.5 11.5l28 -2l-13 -182l-22 -11q-19 6 -41 6q-12 0 -22 -2t-14 -4l-4 -2v-335z" />
    <glyph glyph-name="s" unicode="s" horiz-adv-x="463" 
d="M43 8l-10 152l17 8q78 -16 140 -16q59 0 59 18q0 9 -13 11l-65 10q-81 13 -118.5 50.5t-37.5 103.5q0 89 59.5 138t180.5 49q38 0 78 -5t61 -10t21 -6l-13 -150l-17 -9q-69 16 -121 16q-49 0 -49 -16q0 -9 10 -10l61 -10q87 -14 124.5 -49.5t37.5 -102.5q0 -94 -54 -143
t-174 -49q-49 0 -93.5 5t-64.5 10z" />
    <glyph glyph-name="t" unicode="t" horiz-adv-x="386" 
d="M13 356v164h55l60 120h140v-120h105v-164h-105v-146q0 -31 11.5 -44.5t39.5 -13.5l41 5l13 -7v-141q-42 -21 -108 -21q-118 0 -157.5 50.5t-39.5 166.5v151h-55z" />
    <glyph glyph-name="u" unicode="u" horiz-adv-x="545" 
d="M24 520h200v-340q0 -28 27 -28q8 0 16.5 2.5t12.5 5.5l4 2v358h200v-334q0 -25 22 -29l22 -4l8 -19l-22 -103q-4 -5 -12 -12t-36 -19t-60 -12q-70 0 -104 49h-8q-53 -49 -123 -49q-67 0 -107 42t-40 133v357z" />
    <glyph glyph-name="v" unicode="v" horiz-adv-x="528" 
d="M384 0h-240l-136 520h198l44 -209l7 -101h14l7 101l44 209h198z" />
    <glyph glyph-name="w" unicode="w" horiz-adv-x="752" 
d="M370 210l-8 -83l-25 -127h-236l-93 520h190l34 -198l5 -97h15l6 97l37 198h162l37 -198l6 -97h15l5 97l34 198h190l-93 -520h-236l-25 127l-8 83h-12z" />
    <glyph glyph-name="x" unicode="x" horiz-adv-x="526" 
d="M513 520l-90 -258l95 -262h-206l-41 154l-5 27h-6l-5 -27l-41 -154h-206l95 259l-90 261h203l40 -159l4 -25h6l4 25l40 159h203z" />
    <glyph glyph-name="y" unicode="y" horiz-adv-x="536" 
d="M528 520l-152 -570q-22 -84 -65.5 -123t-122.5 -39q-32 0 -61 6t-43 12l-13 6l17 126l19 18q26 -4 46 -4q38 0 46 30l4 18h-38l-157 520h198l48 -170l11 -100h13l10 100l41 170h199z" />
    <glyph glyph-name="z" unicode="z" horiz-adv-x="425" 
d="M410 520v-85l-132 -241l-21 -30l4 -5l34 5h115v-164h-395v110l114 209l25 34l-2 6l-35 -3h-97v164h390z" />
    <glyph glyph-name="braceleft" unicode="{" horiz-adv-x="323" 
d="M303 -19v-96q-30 -5 -73 -5q-84 0 -127.5 37.5t-43.5 123.5q0 44 13.5 97.5t13.5 66.5q0 19 -12.5 29t-29.5 10h-24v103h24q17 0 29.5 9.5t12.5 28.5q0 13 -13.5 66.5t-13.5 97.5q0 86 43.5 123.5t127.5 37.5l73 -5v-96l-37 -2q-31 -1 -31 -38q0 -14 7.5 -73.5t7.5 -95.5
q0 -53 -29.5 -75t-85.5 -26v-7q56 -5 85.5 -27.5t29.5 -74.5q0 -36 -7.5 -95t-7.5 -73q0 -38 25 -39z" />
    <glyph glyph-name="bar" unicode="|" horiz-adv-x="240" 
d="M50 -100v840h140v-840h-140z" />
    <glyph glyph-name="braceright" unicode="}" horiz-adv-x="323" 
d="M20 -115v96l43 2q25 1 25 39q0 14 -7.5 73t-7.5 95q0 52 29.5 74.5t85.5 27.5v7q-56 4 -85.5 26t-29.5 75q0 36 7.5 95.5t7.5 73.5q0 37 -31 38l-37 2v96q40 5 73 5q84 0 127.5 -37.5t43.5 -123.5q0 -44 -13.5 -97.5t-13.5 -66.5q0 -19 12.5 -28.5t29.5 -9.5h24v-103h-24
q-17 0 -29.5 -10t-12.5 -29q0 -13 13.5 -66.5t13.5 -97.5q0 -86 -43.5 -123.5t-127.5 -37.5z" />
    <glyph glyph-name="asciitilde" unicode="~" horiz-adv-x="607" 
d="M465 394h127q0 -111 -34 -169.5t-119 -58.5q-40 0 -78 15.5t-61.5 34.5t-50 34.5t-47.5 15.5q-60 0 -60 -90h-127q0 107 42 167.5t125 60.5q41 0 79.5 -15.5t62.5 -34.5t50.5 -34.5t45.5 -15.5q26 0 35.5 22t9.5 68z" />
    <glyph glyph-name="nbspace" unicode="&#xa0;" horiz-adv-x="220" 
 />
    <glyph glyph-name="exclamdown" unicode="&#xa1;" horiz-adv-x="304" 
d="M163 -202h-19q-50 0 -70 17.5t-20 54.5v134l50 215h96l50 -215v-134q0 -37 -18.5 -54.5t-68.5 -17.5zM42 394q0 47 31.5 76.5t78.5 29.5t78.5 -29.5t31.5 -76.5t-31.5 -76.5t-78.5 -29.5t-78.5 29.5t-31.5 76.5z" />
    <glyph glyph-name="cent" unicode="&#xa2;" horiz-adv-x="397" 
d="M150 -10v120q-130 36 -130 207v16q0 166 130 205v122h140v-109q20 -2 39 -5.5t27 -5.5l9 -3l-15 -149l-14 -6q-32 7 -54 7q-17 0 -28.5 -2.5t-22.5 -16.5t-11 -40v-11q0 -57 65 -57q10 0 25 3l25 5l10 3l14 -7l3 -20q3 -21 8 -57.5t7 -65.5q-36 -17 -87 -23v-110h-140z
" />
    <glyph glyph-name="sterling" unicode="&#xa3;" horiz-adv-x="462" 
d="M33 246v116h49l1 2q-5 7 -19.5 26t-21.5 29.5t-14 29.5t-7 39q0 58 35 96t85.5 52t116.5 14q33 0 71.5 -5t60.5 -9.5t22 -5.5l-14 -150l-16 -7q-41 13 -88 13q-33 0 -53 -12.5t-20 -36.5q0 -12 7 -23t22 -26.5t23 -25.5h109v-116h-85q-18 -47 -54 -71v-11h199v-164h-419
v141q62 51 76 105h-66z" />
    <glyph glyph-name="currency" unicode="&#xa4;" horiz-adv-x="597" 
d="M192 320q0 -44 31.5 -75.5t75.5 -31.5q43 0 75 31.5t32 75.5t-31.5 75.5t-75.5 31.5t-75.5 -31.5t-31.5 -75.5zM10 128l73 72q-31 56 -31 120t31 120l-73 73l96 96l73 -73q59 31 120 31t120 -31l72 73l96 -96l-73 -73q32 -58 32 -120t-32 -120l73 -72l-96 -96l-72 73
q-53 -31 -120 -31t-120 31l-73 -73z" />
    <glyph glyph-name="yen" unicode="&#xa5;" horiz-adv-x="554" 
d="M334 650h210l-102 -284h73v-116h-115l-20 -55h135v-116h-138v-79h-200v79h-138v116h134l-20 55h-114v116h73l-102 284h212l36 -135q4 -16 7.5 -44.5t4.5 -49.5l2 -21h10q4 80 14 115z" />
    <glyph glyph-name="brokenbar" unicode="&#xa6;" horiz-adv-x="240" 
d="M190 380h-140v380h140v-380zM50 280h140v-380h-140v380z" />
    <glyph glyph-name="section" unicode="&#xa7;" horiz-adv-x="449" 
d="M429 308q0 -78 -44 -124v-2q24 -35 24 -76q0 -177 -218 -177q-33 0 -64 3.5t-46 7.5l-15 4q-4 27 -5.5 57.5t-0.5 48.5v17l12 7q66 -16 108 -16q70 0 70 34q0 18 -28 27l-78 23q-53 16 -86 55t-33 96q0 80 43 123v2q-23 32 -23 77q0 91 53.5 134t162.5 43q28 0 58 -4
t45 -8l16 -3q-1 -27 -3.5 -57t-4.5 -46l-3 -16l-12 -7q-43 12 -85 12q-68 0 -68 -34q0 -18 28 -27l78 -23q53 -16 86 -55t33 -96zM240 325l-43 14q-12 -14 -12 -32q0 -22 29 -31l42 -14q13 11 13 32q0 22 -29 31z" />
    <glyph glyph-name="dieresis" unicode="&#xa8;" horiz-adv-x="418" 
d="M27 655q0 32 23 55t56 23t56 -23t23 -55t-23 -55t-56 -23t-56 23t-23 55zM234 655q0 32 23 55t55 23q33 0 56.5 -23t23.5 -55t-23.5 -55t-56.5 -23q-32 0 -55 23t-23 55z" />
    <glyph glyph-name="copyright" unicode="&#xa9;" horiz-adv-x="710" 
d="M45 340q0 135 90 222.5t220 87.5t220 -87.5t90 -222.5t-90 -222.5t-220 -87.5t-220 87.5t-90 222.5zM148 340q0 -92 60 -149.5t147 -57.5t147 57.5t60 149.5t-60 149.5t-147 57.5q-88 0 -147.5 -57.5t-59.5 -149.5zM454 187q-38 -17 -86 -17q-72 0 -113.5 37.5
t-41.5 116.5v21q0 165 157 165q16 0 34 -3t28 -5l10 -3l-9 -87l-7 -3q-19 5 -32 5q-27 0 -41 -15t-14 -55v-13q0 -37 13 -51t41 -14l42 7l7 -3q8 -46 12 -83z" />
    <glyph glyph-name="ordfeminine" unicode="&#xaa;" horiz-adv-x="366" 
d="M173 340l14 4v55q-30 -6 -30 -26v-10q0 -23 16 -23zM59 591q41 11 91 11q90 0 132.5 -32t42.5 -100v-81q0 -13 10 -14l17 -3l7 -18l-15 -68q-23 -32 -77 -32q-51 0 -70 33h-3q-28 -33 -78 -33q-41 0 -69 26.5t-28 67.5v12q0 48 29.5 70t82.5 29l56 7v4q0 18 -57 18
q-17 0 -37 -2t-31 -4l-12 -3q-1 1 -5 3t-5 3q0 30 19 106z" />
    <glyph glyph-name="guillemotleft" unicode="&#xab;" horiz-adv-x="548" 
d="M137 0l-107 220l107 220h131l-59 -220l59 -220h-131zM376 0l-106 220l106 220h132l-59 -220l59 -220h-132z" />
    <glyph glyph-name="logicalnot" unicode="&#xac;" 
d="M450 482v-354h-140v214h-260v140h400z" />
    <glyph glyph-name="registered" unicode="&#xae;" horiz-adv-x="414" 
d="M20 485q0 79 53 133t134 54t134 -54t53 -133t-53 -133t-134 -54t-134 54t-53 133zM86 485q0 -56 31.5 -88.5t89.5 -32.5q59 0 90 32.5t31 88.5q0 55 -33 88t-88 33t-88 -33t-33 -88zM289 399h-67l-17 53h-10v-53h-63v176h83q38 0 58 -17.5t20 -48.5q0 -37 -29 -51z
M207 529h-12v-35h15q18 0 18 16q0 19 -21 19z" />
    <glyph glyph-name="macron" unicode="&#xaf;" horiz-adv-x="350" 
d="M48 594v114h255v-114h-255z" />
    <glyph glyph-name="degree" unicode="&#xb0;" horiz-adv-x="396" 
d="M40 518q0 65 46.5 111t111.5 46q66 0 112 -46t46 -111q0 -66 -46 -112t-112 -46q-65 0 -111.5 46t-46.5 112zM156 518q0 -18 12.5 -30.5t29.5 -12.5t29.5 12.5t12.5 30.5q0 17 -12.5 29t-29.5 12t-29.5 -12t-12.5 -29z" />
    <glyph glyph-name="plusminus" unicode="&#xb1;" 
d="M470 272h-150v-104h-140v104h-150v140h150v108h140v-108h150v-140zM470 -13h-440v140h440v-140z" />
    <glyph glyph-name="twosuperior" unicode="&#xb2;" horiz-adv-x="320" 
d="M298 690q0 -41 -14 -67t-41 -51l-38 -34v-3h88v-115h-273v71q0 31 15 54t53 58l46 42q26 25 26 40q0 24 -40 24q-15 0 -33.5 -3.5t-30.5 -7.5l-11 -3l-9 4q-7 71 -9 100q0 1 16.5 7t48 12t60.5 6q68 0 107 -36t39 -98z" />
    <glyph glyph-name="threesuperior" unicode="&#xb3;" horiz-adv-x="296" 
d="M286 548q0 -134 -161 -134q-28 0 -56.5 5t-42.5 9l-15 5l9 99l8 4q55 -7 77 -7q43 0 43 26q0 22 -38 22h-61v90h68q28 0 28 21q0 22 -39 22q-15 0 -33 -2.5t-29 -5.5l-11 -2l-8 4q-6 63 -9 100q54 20 116 20q71 0 106 -31.5t35 -78.5t-30 -72v-2q43 -33 43 -92z" />
    <glyph glyph-name="acute" unicode="&#xb4;" horiz-adv-x="470" 
d="M411 720v-56l-115 -84h-111l-11 23l68 117h169z" />
    <glyph glyph-name="mu" unicode="&#xb5;" horiz-adv-x="545" 
d="M24 520h200v-340q0 -28 27 -28q8 0 16.5 2.5t12.5 5.5l4 2v358h200v-334q0 -25 22 -29l22 -4l8 -19l-22 -103q-4 -5 -12 -12t-36 -19t-60 -12q-70 0 -104 49h-8q-31 -29 -70 -41v-196h-200v720z" />
    <glyph glyph-name="paragraph" unicode="&#xb6;" horiz-adv-x="538" 
d="M351 -60v605h-50v-605h-115v348h-19q-66 0 -104 48.5t-38 130.5q0 92 42 142.5t124 50.5h331v-115h-56v-605h-115z" />
    <glyph glyph-name="periodcentered" unicode="&#xb7;" horiz-adv-x="300" 
d="M260 300q0 -47 -31.5 -76.5t-78.5 -29.5t-78.5 29.5t-31.5 76.5t31.5 76.5t78.5 29.5t78.5 -29.5t31.5 -76.5z" />
    <glyph glyph-name="cedilla" unicode="&#xb8;" horiz-adv-x="306" 
d="M35 -201l9 71q28 -4 48 -4q33 0 33 16q0 12 -18 12h-50l15 106h91v-39h10q80 0 80 -79q0 -94 -123 -94q-23 0 -46.5 3t-35.5 5z" />
    <glyph glyph-name="onesuperior" unicode="&#xb9;" horiz-adv-x="236" 
d="M16 666v74l110 78h88v-398h-138v246h-60z" />
    <glyph glyph-name="ordmasculine" unicode="&#xba;" horiz-adv-x="360" 
d="M175 602h10q63 0 106 -42.5t43 -116.5v-30q0 -74 -43 -116.5t-106 -42.5h-10q-63 0 -106 42.5t-43 116.5v30q0 74 43 116.5t106 42.5zM199 387v82q0 23 -19 23t-19 -23v-82q0 -23 19 -23t19 23z" />
    <glyph glyph-name="guillemotright" unicode="&#xbb;" horiz-adv-x="549" 
d="M519 220l-107 -220h-132l60 220l-60 220h132zM278 220l-106 -220h-132l60 220l-60 220h132z" />
    <glyph glyph-name="onequarter" unicode="&#xbc;" horiz-adv-x="751" 
d="M94 -12l412 684h131l-412 -684h-131zM16 508v74l110 78h88v-398h-138v246h-60zM432 166l87 230h136l-87 -232h32l32 86h75v-86h39v-115h-39v-49h-138v49h-137v117z" />
    <glyph glyph-name="onehalf" unicode="&#xbd;" horiz-adv-x="782" 
d="M94 -12l412 684h131l-412 -684h-131zM16 508v74l110 78h88v-398h-138v246h-60zM760 270q0 -41 -14 -67t-41 -51l-38 -34v-3h88v-115h-273v71q0 31 15 54t53 58l46 42q26 25 26 40q0 24 -40 24q-15 0 -33.5 -3.5t-30.5 -7.5l-11 -3l-9 4q-7 71 -9 100q0 1 16.5 7t48 12
t60.5 6q68 0 107 -36t39 -98z" />
    <glyph glyph-name="threequarters" unicode="&#xbe;" horiz-adv-x="751" 
d="M110 -12l412 684h131l-412 -684h-131zM286 390q0 -134 -161 -134q-28 0 -56.5 5t-42.5 9l-15 5l9 99l8 4q55 -7 77 -7q43 0 43 26q0 22 -38 22h-61v90h68q28 0 28 21q0 22 -39 22q-15 0 -33 -2.5t-29 -5.5l-11 -2l-8 4q-6 63 -9 100q54 20 116 20q71 0 106 -31.5
t35 -78.5t-30 -72v-2q43 -33 43 -92zM430 166l87 230h136l-87 -232h32l32 86h75v-86h39v-115h-39v-49h-138v49h-137v117z" />
    <glyph glyph-name="questiondown" unicode="&#xbf;" horiz-adv-x="443" 
d="M15 4v11q0 109 88 158l31 17q18 10 18 35v21h200v-91q0 -33 -12 -51.5t-43 -35.5l-57 -31q-25 -13 -25 -29v-2q0 -24 48 -24q25 0 54.5 4.5t46.5 9.5l16 4l15 -8q10 -75 14 -135q-8 -4 -22.5 -10.5t-63 -17.5t-100.5 -11q-108 0 -158 51t-50 135zM142 394q0 47 31.5 76.5
t78.5 29.5t78.5 -29.5t31.5 -76.5t-31.5 -76.5t-78.5 -29.5t-78.5 29.5t-31.5 76.5z" />
    <glyph glyph-name="Agrave" unicode="&#xc0;" horiz-adv-x="560" 
d="M346 0l-13 86h-107l-12 -86h-204l140 660h260l140 -660h-204zM260 315l-11 -75h62l-11 75l-13 150h-14q-8 -115 -13 -150zM146 804v56h168l69 -117l-11 -23h-111z" />
    <glyph glyph-name="Aacute" unicode="&#xc1;" horiz-adv-x="560" 
d="M346 0l-13 86h-107l-12 -86h-204l140 660h260l140 -660h-204zM260 315l-11 -75h62l-11 75l-13 150h-14q-8 -115 -13 -150zM461 860v-56l-115 -84h-111l-11 23l68 117h169z" />
    <glyph glyph-name="Acircumflex" unicode="&#xc2;" horiz-adv-x="560" 
d="M346 0l-13 86h-107l-12 -86h-204l140 660h260l140 -660h-204zM260 315l-11 -75h62l-11 75l-13 150h-14q-8 -115 -13 -150zM364 860l85 -106l-11 -34h-99l-57 47l-57 -47h-98l-11 34l84 106h164z" />
    <glyph glyph-name="Atilde" unicode="&#xc3;" horiz-adv-x="560" 
d="M346 0l-13 86h-107l-12 -86h-204l140 660h260l140 -660h-204zM260 315l-11 -75h62l-11 75l-13 150h-14q-8 -115 -13 -150zM392 889l81 -24q-18 -145 -122 -145q-32 0 -75.5 23.5t-56.5 23.5q-33 0 -51 -47l-81 24q18 145 131 145q32 0 75.5 -23.5t55.5 -23.5
q13 0 22.5 10t20.5 37z" />
    <glyph glyph-name="Adieresis" unicode="&#xc4;" horiz-adv-x="560" 
d="M346 0l-13 86h-107l-12 -86h-204l140 660h260l140 -660h-204zM260 315l-11 -75h62l-11 75l-13 150h-14q-8 -115 -13 -150zM97 795q0 32 23 55t56 23t56 -23t23 -55t-23 -55t-56 -23t-56 23t-23 55zM304 795q0 32 23 55t55 23q33 0 56.5 -23t23.5 -55t-23.5 -55t-56.5 -23
q-32 0 -55 23t-23 55z" />
    <glyph glyph-name="Aring" unicode="&#xc5;" horiz-adv-x="560" 
d="M346 0l-13 86h-107l-12 -86h-204l138 649q-13 23 -13 55q0 53 37 85t107 32q71 0 108 -32t37 -85q0 -30 -12 -53l138 -651h-204zM260 315l-11 -75h62l-11 75l-13 150h-14q-8 -115 -13 -150zM245 704q0 -29 34 -29q35 0 35 29q0 13 -9 21t-26 8q-34 0 -34 -29z" />
    <glyph glyph-name="AE" unicode="&#xc6;" horiz-adv-x="664" 
d="M305 86h-78l-13 -86h-204l141 660h493v-164h-139v-88h109v-139h-109v-106h149v-163h-349v86zM263 310l-11 -70h53v225h-26q-9 -110 -16 -155z" />
    <glyph glyph-name="Ccedilla" unicode="&#xc7;" horiz-adv-x="425" 
d="M161 -201l9 71q28 -4 48 -4q33 0 33 16q0 12 -18 12h-50l14 104q-177 44 -177 302v35q0 177 70.5 257t207.5 80q24 0 49.5 -3.5t38.5 -6.5l14 -4l-15 -149l-13 -6q-31 5 -54 5q-48 0 -72 -39.5t-24 -135.5v-21q0 -160 101 -160q9 0 22.5 2.5t22.5 5.5l9 2l13 -6
q13 -76 20 -144q-45 -23 -121 -24v-27h10q80 0 80 -79q0 -94 -123 -94q-23 0 -46.5 3t-35.5 5z" />
    <glyph glyph-name="Egrave" unicode="&#xc8;" horiz-adv-x="389" 
d="M30 0v660h339v-164h-139v-88h109v-138h-109v-106h149v-164h-349zM45 804v56h168l69 -117l-11 -23h-111z" />
    <glyph glyph-name="Eacute" unicode="&#xc9;" horiz-adv-x="389" 
d="M30 0v660h339v-164h-139v-88h109v-138h-109v-106h149v-164h-349zM354 860v-56l-115 -84h-111l-11 23l68 117h169z" />
    <glyph glyph-name="Ecircumflex" unicode="&#xca;" horiz-adv-x="389" 
d="M30 0v660h339v-164h-139v-88h109v-138h-109v-106h149v-164h-349zM288 860l85 -106l-11 -34h-99l-57 47l-57 -47h-98l-11 34l84 106h164z" />
    <glyph glyph-name="Edieresis" unicode="&#xcb;" horiz-adv-x="389" 
d="M30 0v660h339v-164h-139v-88h109v-138h-109v-106h149v-164h-349zM22 799q0 32 23 55t56 23t56 -23t23 -55t-23 -55t-56 -23t-56 23t-23 55zM229 799q0 32 23 55t55 23q33 0 56.5 -23t23.5 -55t-23.5 -55t-56.5 -23q-32 0 -55 23t-23 55z" />
    <glyph glyph-name="Igrave" unicode="&#xcc;" horiz-adv-x="260" 
d="M30 0v660h200v-660h-200zM-17 804v56h168l69 -117l-11 -23h-111z" />
    <glyph glyph-name="Iacute" unicode="&#xcd;" horiz-adv-x="260" 
d="M30 0v660h200v-660h-200zM264 860v-56l-115 -84h-111l-11 23l68 117h169z" />
    <glyph glyph-name="Icircumflex" unicode="&#xce;" horiz-adv-x="260" 
d="M30 0v660h200v-660h-200zM212 860l85 -106l-11 -34h-99l-57 47l-57 -47h-98l-11 34l84 106h164z" />
    <glyph glyph-name="Idieresis" unicode="&#xcf;" horiz-adv-x="260" 
d="M30 0v660h200v-660h-200zM-53 798q0 32 23 55t56 23t56 -23t23 -55t-23 -55t-56 -23t-56 23t-23 55zM154 798q0 32 23 55t55 23q33 0 56.5 -23t23.5 -55t-23.5 -55t-56.5 -23q-32 0 -55 23t-23 55z" />
    <glyph glyph-name="Eth" unicode="&#xd0;" horiz-adv-x="540" 
d="M5 250v138h45v272h236q234 0 234 -253v-183q0 -111 -51.5 -167.5t-147.5 -56.5h-271v250h-45zM266 496h-16v-108h35v-138h-35v-86h19q12 0 18.5 1.5t15.5 6.5t13 18.5t4 35.5v184q0 86 -54 86z" />
    <glyph glyph-name="Ntilde" unicode="&#xd1;" horiz-adv-x="584" 
d="M338 0l-79 195q-8 20 -17.5 55t-14.5 60l-5 26l-8 -1l15 -157v-178h-199v660h216l76 -190q9 -22 19 -59t16 -63l6 -26l8 1l-16 159v178h199v-660h-216zM416 885l81 -24q-18 -145 -122 -145q-32 0 -75.5 23.5t-56.5 23.5q-33 0 -51 -47l-81 24q18 145 131 145
q32 0 75.5 -23.5t55.5 -23.5q13 0 22.5 10t20.5 37z" />
    <glyph glyph-name="Ograve" unicode="&#xd2;" horiz-adv-x="514" 
d="M249 672h16q124 0 176.5 -77.5t52.5 -242.5v-43q0 -165 -52.5 -243t-176.5 -78h-16q-124 0 -176.5 78t-52.5 243v43q0 165 52.5 242.5t176.5 77.5zM292 220v223q0 65 -35 65t-35 -65v-223q0 -68 35 -68t35 68zM95 804v56h168l69 -117l-11 -23h-111z" />
    <glyph glyph-name="Oacute" unicode="&#xd3;" horiz-adv-x="514" 
d="M249 672h16q124 0 176.5 -77.5t52.5 -242.5v-43q0 -165 -52.5 -243t-176.5 -78h-16q-124 0 -176.5 78t-52.5 243v43q0 165 52.5 242.5t176.5 77.5zM292 220v223q0 65 -35 65t-35 -65v-223q0 -68 35 -68t35 68zM412 860v-56l-115 -84h-111l-11 23l68 117h169z" />
    <glyph glyph-name="Ocircumflex" unicode="&#xd4;" horiz-adv-x="514" 
d="M249 672h16q124 0 176.5 -77.5t52.5 -242.5v-43q0 -165 -52.5 -243t-176.5 -78h-16q-124 0 -176.5 78t-52.5 243v43q0 165 52.5 242.5t176.5 77.5zM292 220v223q0 65 -35 65t-35 -65v-223q0 -68 35 -68t35 68zM338 860l85 -106l-11 -34h-99l-57 47l-57 -47h-98l-11 34
l84 106h164z" />
    <glyph glyph-name="Otilde" unicode="&#xd5;" horiz-adv-x="514" 
d="M249 672h16q124 0 176.5 -77.5t52.5 -242.5v-43q0 -165 -52.5 -243t-176.5 -78h-16q-124 0 -176.5 78t-52.5 243v43q0 165 52.5 242.5t176.5 77.5zM292 220v223q0 65 -35 65t-35 -65v-223q0 -68 35 -68t35 68zM370 885l81 -24q-18 -145 -122 -145q-32 0 -75.5 23.5
t-56.5 23.5q-33 0 -51 -47l-81 24q18 145 131 145q32 0 75.5 -23.5t55.5 -23.5q13 0 22.5 10t20.5 37z" />
    <glyph glyph-name="Odieresis" unicode="&#xd6;" horiz-adv-x="514" 
d="M249 672h16q124 0 176.5 -77.5t52.5 -242.5v-43q0 -165 -52.5 -243t-176.5 -78h-16q-124 0 -176.5 78t-52.5 243v43q0 165 52.5 242.5t176.5 77.5zM292 220v223q0 65 -35 65t-35 -65v-223q0 -68 35 -68t35 68zM74 800q0 32 23 55t56 23t56 -23t23 -55t-23 -55t-56 -23
t-56 23t-23 55zM281 800q0 32 23 55t55 23q33 0 56.5 -23t23.5 -55t-23.5 -55t-56.5 -23q-32 0 -55 23t-23 55z" />
    <glyph glyph-name="multiply" unicode="&#xd7;" 
d="M455 406l-106 -106l106 -106l-99 -99l-106 106l-106 -106l-99 99l106 106l-106 106l99 99l106 -106l106 106z" />
    <glyph glyph-name="Oslash" unicode="&#xd8;" horiz-adv-x="514" 
d="M246 672h16q72 0 120 -27l30 53l87 -50l-46 -79q38 -75 38 -217v-43q0 -165 -52.5 -243t-176.5 -78h-16q-68 0 -115 24l-30 -52l-86 50l43 74q-41 75 -41 225v43q0 165 52.5 242.5t176.5 77.5zM227 377l66 115q-10 26 -39 26q-45 0 -45 -65v-114h5zM299 210v95h-5
l-13 -34l-63 -109q10 -20 36 -20q45 0 45 68z" />
    <glyph glyph-name="Ugrave" unicode="&#xd9;" horiz-adv-x="530" 
d="M300 660h200v-426q0 -246 -225 -246h-20q-225 0 -225 246v426h200v-460q0 -48 35 -48t35 48v460zM98 804v56h168l69 -117l-11 -23h-111z" />
    <glyph glyph-name="Uacute" unicode="&#xda;" horiz-adv-x="530" 
d="M300 660h200v-426q0 -246 -225 -246h-20q-225 0 -225 246v426h200v-460q0 -48 35 -48t35 48v460zM437 860v-56l-115 -84h-111l-11 23l68 117h169z" />
    <glyph glyph-name="Ucircumflex" unicode="&#xdb;" horiz-adv-x="530" 
d="M300 660h200v-426q0 -246 -225 -246h-20q-225 0 -225 246v426h200v-460q0 -48 35 -48t35 48v460zM348 860l85 -106l-11 -34h-99l-57 47l-57 -47h-98l-11 34l84 106h164z" />
    <glyph glyph-name="Udieresis" unicode="&#xdc;" horiz-adv-x="530" 
d="M300 660h200v-426q0 -246 -225 -246h-20q-225 0 -225 246v426h200v-460q0 -48 35 -48t35 48v460zM83 800q0 32 23 55t56 23t56 -23t23 -55t-23 -55t-56 -23t-56 23t-23 55zM290 800q0 32 23 55t55 23q33 0 56.5 -23t23.5 -55t-23.5 -55t-56.5 -23q-32 0 -55 23t-23 55z
" />
    <glyph glyph-name="Yacute" unicode="&#xdd;" horiz-adv-x="562" 
d="M10 660h213l39 -145q4 -16 7.5 -44.5t4.5 -49.5l2 -21h10q4 80 14 115l41 145h211l-171 -475v-185h-200v185zM448 860v-56l-115 -84h-111l-11 23l68 117h169z" />
    <glyph glyph-name="Thorn" unicode="&#xde;" horiz-adv-x="505" 
d="M30 0v660h200v-93h46q107 0 160.5 -52.5t53.5 -164.5v-53q0 -200 -176 -200h-84v-97h-200zM244 403h-14v-168h20q24 0 32 15.5t8 45.5v45q0 62 -46 62z" />
    <glyph glyph-name="germandbls" unicode="&#xdf;" horiz-adv-x="574" 
d="M509 556q0 -37 -7.5 -63.5t-14.5 -37t-25 -33.5q-18 -22 -18 -37q0 -19 15 -28l17 -11q46 -30 67 -68t21 -98q0 -192 -203 -192l-85 4v152l18 11q14 -3 29 -3q46 0 46 40q0 22 -24 36l-12 7q-48 28 -62.5 57.5t-16.5 80.5q-1 64 29 100q2 2 5 6t4.5 5.5t4.5 5t4.5 5.5
t3.5 5.5t3 6t2.5 6t2 7t1 7.5t0.5 8q0 41 -43 41q-47 0 -47 -61v-515h-200v523q0 109 67.5 163t177.5 54q109 0 174.5 -47t65.5 -137z" />
    <glyph glyph-name="agrave" unicode="&#xe0;" horiz-adv-x="533" 
d="M72 519q58 13 141 13q138 0 198.5 -48.5t60.5 -151.5v-146q0 -25 22 -29l22 -4l8 -19l-23 -104q-4 -5 -12 -12t-36 -18.5t-59 -11.5q-69 0 -104 49h-8q-47 -49 -119 -49q-68 0 -109.5 42t-41.5 110v20q0 69 43 109t113 47l104 11v3q0 20 -17 29t-67 9q-30 0 -60 -3.5
t-45 -6.5l-15 -4l-18 12q4 41 9.5 79.5t8.5 56.5zM236 138q8 0 17 3t14 7l5 3v79l-37 -12q-23 -7 -23 -38v-14q0 -28 24 -28zM92 664v56h168l69 -117l-11 -23h-111z" />
    <glyph glyph-name="aacute" unicode="&#xe1;" horiz-adv-x="533" 
d="M72 519q58 13 141 13q138 0 198.5 -48.5t60.5 -151.5v-146q0 -25 22 -29l22 -4l8 -19l-23 -104q-4 -5 -12 -12t-36 -18.5t-59 -11.5q-69 0 -104 49h-8q-47 -49 -119 -49q-68 0 -109.5 42t-41.5 110v20q0 69 43 109t113 47l104 11v3q0 20 -17 29t-67 9q-30 0 -60 -3.5
t-45 -6.5l-15 -4l-18 12q4 41 9.5 79.5t8.5 56.5zM236 138q8 0 17 3t14 7l5 3v79l-37 -12q-23 -7 -23 -38v-14q0 -28 24 -28zM404 720v-56l-115 -84h-111l-11 23l68 117h169z" />
    <glyph glyph-name="acircumflex" unicode="&#xe2;" horiz-adv-x="533" 
d="M72 519q58 13 141 13q138 0 198.5 -48.5t60.5 -151.5v-146q0 -25 22 -29l22 -4l8 -19l-23 -104q-4 -5 -12 -12t-36 -18.5t-59 -11.5q-69 0 -104 49h-8q-47 -49 -119 -49q-68 0 -109.5 42t-41.5 110v20q0 69 43 109t113 47l104 11v3q0 20 -17 29t-67 9q-30 0 -60 -3.5
t-45 -6.5l-15 -4l-18 12q4 41 9.5 79.5t8.5 56.5zM236 138q8 0 17 3t14 7l5 3v79l-37 -12q-23 -7 -23 -38v-14q0 -28 24 -28zM332 720l85 -106l-11 -34h-99l-57 47l-57 -47h-98l-11 34l84 106h164z" />
    <glyph glyph-name="atilde" unicode="&#xe3;" horiz-adv-x="533" 
d="M72 519q58 13 141 13q138 0 198.5 -48.5t60.5 -151.5v-146q0 -25 22 -29l22 -4l8 -19l-23 -104q-4 -5 -12 -12t-36 -18.5t-59 -11.5q-69 0 -104 49h-8q-47 -49 -119 -49q-68 0 -109.5 42t-41.5 110v20q0 69 43 109t113 47l104 11v3q0 20 -17 29t-67 9q-30 0 -60 -3.5
t-45 -6.5l-15 -4l-18 12q4 41 9.5 79.5t8.5 56.5zM236 138q8 0 17 3t14 7l5 3v79l-37 -12q-23 -7 -23 -38v-14q0 -28 24 -28zM353 746l81 -24q-18 -145 -122 -145q-32 0 -75.5 23.5t-56.5 23.5q-33 0 -51 -47l-81 24q18 145 131 145q32 0 75.5 -23.5t55.5 -23.5
q13 0 22.5 10t20.5 37z" />
    <glyph glyph-name="adieresis" unicode="&#xe4;" horiz-adv-x="533" 
d="M72 519q58 13 141 13q138 0 198.5 -48.5t60.5 -151.5v-146q0 -25 22 -29l22 -4l8 -19l-23 -104q-4 -5 -12 -12t-36 -18.5t-59 -11.5q-69 0 -104 49h-8q-47 -49 -119 -49q-68 0 -109.5 42t-41.5 110v20q0 69 43 109t113 47l104 11v3q0 20 -17 29t-67 9q-30 0 -60 -3.5
t-45 -6.5l-15 -4l-18 12q4 41 9.5 79.5t8.5 56.5zM236 138q8 0 17 3t14 7l5 3v79l-37 -12q-23 -7 -23 -38v-14q0 -28 24 -28zM75 659q0 32 23 55t56 23t56 -23t23 -55t-23 -55t-56 -23t-56 23t-23 55zM282 659q0 32 23 55t55 23q33 0 56.5 -23t23.5 -55t-23.5 -55t-56.5 -23
q-32 0 -55 23t-23 55z" />
    <glyph glyph-name="aring" unicode="&#xe5;" horiz-adv-x="533" 
d="M72 519q58 13 141 13q138 0 198.5 -48.5t60.5 -151.5v-146q0 -25 22 -29l22 -4l8 -19l-23 -104q-4 -5 -12 -12t-36 -18.5t-59 -11.5q-69 0 -104 49h-8q-47 -49 -119 -49q-68 0 -109.5 42t-41.5 110v20q0 69 43 109t113 47l104 11v3q0 20 -17 29t-67 9q-30 0 -60 -3.5
t-45 -6.5l-15 -4l-18 12q4 41 9.5 79.5t8.5 56.5zM236 138q8 0 17 3t14 7l5 3v79l-37 -12q-23 -7 -23 -38v-14q0 -28 24 -28zM116 672q0 48 34 77t97 29q64 0 98 -29t34 -77t-34 -77t-98 -29q-63 0 -97 29t-34 77zM216 672q0 -26 31 -26q32 0 32 26t-32 26q-31 0 -31 -26z
" />
    <glyph glyph-name="ae" unicode="&#xe6;" horiz-adv-x="725" 
d="M702 215h-230v-15q0 -24 14.5 -36t58.5 -12q26 0 57.5 5t49.5 11l19 5l14 -8q6 -65 7 -140q-63 -37 -175 -37q-114 0 -175 57h-4q-66 -57 -156 -57q-74 0 -122 40t-48 112v20q0 69 43 106.5t113 42.5l104 7v14q0 20 -17 29t-67 9q-30 0 -60 -3.5t-45 -6.5l-15 -4l-18 12
q4 41 9.5 79.5t8.5 56.5l4 17q58 13 141 13q102 0 167 -35h2q55 35 114 35h23q191 0 191 -213v-17zM472 353v-40h60v52q0 33 -26 33q-14 0 -24 -11.5t-10 -33.5zM243 138q29 0 38 19q-6 27 -9 59l-30 -2q-30 -3 -30 -34v-7q0 -35 31 -35z" />
    <glyph glyph-name="ccedilla" unicode="&#xe7;" horiz-adv-x="374" 
d="M366 11q-44 -20 -106 -23v-27h10q80 0 80 -79q0 -94 -123 -94q-23 0 -46.5 3t-36.5 5l-12 3l9 71q28 -4 48 -4q33 0 33 16q0 12 -18 12h-50l14 102q-153 36 -153 249v15q0 142 59.5 207t175.5 65q28 0 54 -4t38 -8l12 -3q-6 -97 -16 -149l-14 -6q-24 6 -44 6
q-32 0 -48.5 -22.5t-16.5 -77.5v-21q0 -55 17 -75t53 -20q9 0 21 2.5t20 5.5l7 2l14 -6q10 -62 19 -145z" />
    <glyph glyph-name="egrave" unicode="&#xe8;" horiz-adv-x="468" 
d="M444 210h-229v-10q0 -24 14.5 -36t58.5 -12q26 0 57.5 5t50.5 11l18 5l14 -8q6 -65 7 -140q-63 -37 -175 -37q-118 0 -181.5 63.5t-63.5 193.5v36q0 119 63 185t161 66h23q191 0 191 -213v-17q0 -16 -2.5 -39t-4.5 -38zM215 353v-45h60v57q0 33 -26 33q-14 0 -24 -11.5
t-10 -33.5zM83 664v56h168l69 -117l-11 -23h-111z" />
    <glyph glyph-name="eacute" unicode="&#xe9;" horiz-adv-x="468" 
d="M444 210h-229v-10q0 -24 14.5 -36t58.5 -12q26 0 57.5 5t50.5 11l18 5l14 -8q6 -65 7 -140q-63 -37 -175 -37q-118 0 -181.5 63.5t-63.5 193.5v36q0 119 63 185t161 66h23q191 0 191 -213v-17q0 -16 -2.5 -39t-4.5 -38zM215 353v-45h60v57q0 33 -26 33q-14 0 -24 -11.5
t-10 -33.5zM407 720v-56l-115 -84h-111l-11 23l68 117h169z" />
    <glyph glyph-name="ecircumflex" unicode="&#xea;" horiz-adv-x="468" 
d="M444 210h-229v-10q0 -24 14.5 -36t58.5 -12q26 0 57.5 5t50.5 11l18 5l14 -8q6 -65 7 -140q-63 -37 -175 -37q-118 0 -181.5 63.5t-63.5 193.5v36q0 119 63 185t161 66h23q191 0 191 -213v-17q0 -16 -2.5 -39t-4.5 -38zM215 353v-45h60v57q0 33 -26 33q-14 0 -24 -11.5
t-10 -33.5zM325 720l85 -106l-11 -34h-99l-57 47l-57 -47h-98l-11 34l84 106h164z" />
    <glyph glyph-name="edieresis" unicode="&#xeb;" horiz-adv-x="468" 
d="M444 210h-229v-10q0 -24 14.5 -36t58.5 -12q26 0 57.5 5t50.5 11l18 5l14 -8q6 -65 7 -140q-63 -37 -175 -37q-118 0 -181.5 63.5t-63.5 193.5v36q0 119 63 185t161 66h23q191 0 191 -213v-17q0 -16 -2.5 -39t-4.5 -38zM215 353v-45h60v57q0 33 -26 33q-14 0 -24 -11.5
t-10 -33.5zM64 660q0 32 23 55t56 23t56 -23t23 -55t-23 -55t-56 -23t-56 23t-23 55zM271 660q0 32 23 55t55 23q33 0 56.5 -23t23.5 -55t-23.5 -55t-56.5 -23q-32 0 -55 23t-23 55z" />
    <glyph glyph-name="igrave" unicode="&#xec;" horiz-adv-x="253" 
d="M-23 664v56h168l69 -117l-11 -23h-111zM226 0h-200v520h200v-520z" />
    <glyph glyph-name="iacute" unicode="&#xed;" horiz-adv-x="253" 
d="M275 720v-56l-115 -84h-111l-11 23l68 117h169zM226 0h-200v520h200v-520z" />
    <glyph glyph-name="icircumflex" unicode="&#xee;" horiz-adv-x="248" 
d="M224 0h-200v520h200v-520zM206 720l85 -106l-11 -34h-99l-57 47l-57 -47h-98l-11 34l84 106h164z" />
    <glyph glyph-name="idieresis" unicode="&#xef;" horiz-adv-x="253" 
d="M-56 660q0 32 23 55t56 23t56 -23t23 -55t-23 -55t-56 -23t-56 23t-23 55zM151 660q0 32 23 55t55 23q33 0 56.5 -23t23.5 -55t-23.5 -55t-56.5 -23q-32 0 -55 23t-23 55zM226 0h-200v520h200v-520z" />
    <glyph glyph-name="eth" unicode="&#xf0;" horiz-adv-x="490" 
d="M62 598l84 35v3q-29 11 -56 17l-19 4l16 83h18q107 0 191 -44l113 47l38 -91l-57 -24v-5q85 -100 85 -268v-62v-12v-42q0 -116 -62.5 -183.5t-158.5 -67.5h-18q-96 0 -158.5 67.5t-62.5 183.5v42q0 114 61.5 172.5t159.5 58.5h18h13q-8 27 -27 53l-140 -58zM275 190v130
q0 38 -30 38t-30 -38v-130q0 -38 30 -38t30 38z" />
    <glyph glyph-name="ntilde" unicode="&#xf1;" horiz-adv-x="508" 
d="M224 0h-200v520h117l58 -58q64 70 148 70q63 0 100 -39.5t37 -103.5v-389h-200v346q0 22 -25 22q-8 0 -16.5 -2.5t-13.5 -5.5l-5 -2v-358zM358 747l81 -24q-18 -145 -122 -145q-32 0 -75.5 23.5t-56.5 23.5q-33 0 -51 -47l-81 24q18 145 131 145q32 0 75.5 -23.5
t55.5 -23.5q13 0 22.5 10t20.5 37z" />
    <glyph glyph-name="ograve" unicode="&#xf2;" horiz-adv-x="490" 
d="M236 532h18q96 0 158.5 -67.5t62.5 -183.5v-42q0 -116 -62.5 -183.5t-158.5 -67.5h-18q-96 0 -158.5 67.5t-62.5 183.5v42q0 116 62.5 183.5t158.5 67.5zM275 190v140q0 38 -30 38t-30 -38v-140q0 -38 30 -38t30 38zM82 664v56h168l69 -117l-11 -23h-111z" />
    <glyph glyph-name="oacute" unicode="&#xf3;" horiz-adv-x="490" 
d="M236 532h18q96 0 158.5 -67.5t62.5 -183.5v-42q0 -116 -62.5 -183.5t-158.5 -67.5h-18q-96 0 -158.5 67.5t-62.5 183.5v42q0 116 62.5 183.5t158.5 67.5zM275 190v140q0 38 -30 38t-30 -38v-140q0 -38 30 -38t30 38zM412 720v-56l-115 -84h-111l-11 23l68 117h169z" />
    <glyph glyph-name="ocircumflex" unicode="&#xf4;" horiz-adv-x="490" 
d="M236 532h18q96 0 158.5 -67.5t62.5 -183.5v-42q0 -116 -62.5 -183.5t-158.5 -67.5h-18q-96 0 -158.5 67.5t-62.5 183.5v42q0 116 62.5 183.5t158.5 67.5zM275 190v140q0 38 -30 38t-30 -38v-140q0 -38 30 -38t30 38zM327 720l85 -106l-11 -34h-99l-57 47l-57 -47h-98
l-11 34l84 106h164z" />
    <glyph glyph-name="otilde" unicode="&#xf5;" horiz-adv-x="490" 
d="M236 532h18q96 0 158.5 -67.5t62.5 -183.5v-42q0 -116 -62.5 -183.5t-158.5 -67.5h-18q-96 0 -158.5 67.5t-62.5 183.5v42q0 116 62.5 183.5t158.5 67.5zM275 190v140q0 38 -30 38t-30 -38v-140q0 -38 30 -38t30 38zM357 748l81 -24q-18 -145 -122 -145q-32 0 -75.5 23.5
t-56.5 23.5q-33 0 -51 -47l-81 24q18 145 131 145q32 0 75.5 -23.5t55.5 -23.5q13 0 22.5 10t20.5 37z" />
    <glyph glyph-name="odieresis" unicode="&#xf6;" horiz-adv-x="490" 
d="M236 532h18q96 0 158.5 -67.5t62.5 -183.5v-42q0 -116 -62.5 -183.5t-158.5 -67.5h-18q-96 0 -158.5 67.5t-62.5 183.5v42q0 116 62.5 183.5t158.5 67.5zM275 190v140q0 38 -30 38t-30 -38v-140q0 -38 30 -38t30 38zM63 659q0 32 23 55t56 23t56 -23t23 -55t-23 -55
t-56 -23t-56 23t-23 55zM270 659q0 32 23 55t55 23q33 0 56.5 -23t23.5 -55t-23.5 -55t-56.5 -23q-32 0 -55 23t-23 55z" />
    <glyph glyph-name="divide" unicode="&#xf7;" 
d="M167 479q0 37 23.5 60.5t59.5 23.5q37 0 61.5 -23.5t24.5 -60.5t-24.5 -60.5t-61.5 -23.5q-36 0 -59.5 23.5t-23.5 60.5zM167 121q0 37 23.5 60.5t59.5 23.5q37 0 61.5 -23.5t24.5 -60.5t-24.5 -60.5t-61.5 -23.5q-36 0 -59.5 23.5t-23.5 60.5zM450 231h-400v140h400
v-140z" />
    <glyph glyph-name="oslash" unicode="&#xf8;" horiz-adv-x="490" 
d="M236 532h18q52 0 94 -21l37 57l85 -53l-44 -68q49 -65 49 -166v-42q0 -116 -62.5 -183.5t-158.5 -67.5h-18q-49 0 -96 21l-36 -57l-84 53l43 67q-48 67 -48 167v42q0 116 62.5 183.5t158.5 67.5zM288 170v86h-4l-16 -36l-55 -83q11 -10 32 -10q43 0 43 43zM222 301l54 82
q-10 10 -31 10q-43 0 -43 -43v-85h4z" />
    <glyph glyph-name="ugrave" unicode="&#xf9;" horiz-adv-x="545" 
d="M24 520h200v-340q0 -28 27 -28q8 0 16.5 2.5t12.5 5.5l4 2v358h200v-334q0 -25 22 -29l22 -4l8 -19l-22 -103q-4 -5 -12 -12t-36 -19t-60 -12q-70 0 -104 49h-8q-53 -49 -123 -49q-67 0 -107 42t-40 133v357zM88 664v56h168l69 -117l-11 -23h-111z" />
    <glyph glyph-name="uacute" unicode="&#xfa;" horiz-adv-x="545" 
d="M24 520h200v-340q0 -28 27 -28q8 0 16.5 2.5t12.5 5.5l4 2v358h200v-334q0 -25 22 -29l22 -4l8 -19l-22 -103q-4 -5 -12 -12t-36 -19t-60 -12q-70 0 -104 49h-8q-53 -49 -123 -49q-67 0 -107 42t-40 133v357zM424 720v-56l-115 -84h-111l-11 23l68 117h169z" />
    <glyph glyph-name="ucircumflex" unicode="&#xfb;" horiz-adv-x="545" 
d="M24 520h200v-340q0 -28 27 -28q8 0 16.5 2.5t12.5 5.5l4 2v358h200v-334q0 -25 22 -29l22 -4l8 -19l-22 -103q-4 -5 -12 -12t-36 -19t-60 -12q-70 0 -104 49h-8q-53 -49 -123 -49q-67 0 -107 42t-40 133v357zM341 720l85 -106l-11 -34h-99l-57 47l-57 -47h-98l-11 34
l84 106h164z" />
    <glyph glyph-name="udieresis" unicode="&#xfc;" horiz-adv-x="545" 
d="M24 520h200v-340q0 -28 27 -28q8 0 16.5 2.5t12.5 5.5l4 2v358h200v-334q0 -25 22 -29l22 -4l8 -19l-22 -103q-4 -5 -12 -12t-36 -19t-60 -12q-70 0 -104 49h-8q-53 -49 -123 -49q-67 0 -107 42t-40 133v357zM76 660q0 32 23 55t56 23t56 -23t23 -55t-23 -55t-56 -23
t-56 23t-23 55zM283 660q0 32 23 55t55 23q33 0 56.5 -23t23.5 -55t-23.5 -55t-56.5 -23q-32 0 -55 23t-23 55z" />
    <glyph glyph-name="yacute" unicode="&#xfd;" horiz-adv-x="536" 
d="M528 520l-152 -570q-22 -84 -65.5 -123t-122.5 -39q-32 0 -61 6t-43 12l-13 6l17 126l19 18q26 -4 46 -4q38 0 46 30l4 18h-38l-157 520h198l48 -170l11 -100h13l10 100l41 170h199zM452 720v-56l-115 -84h-111l-11 23l68 117h169z" />
    <glyph glyph-name="thorn" unicode="&#xfe;" horiz-adv-x="509" 
d="M224 -200h-200v900h200v-204q43 36 99 36q84 0 127.5 -62.5t43.5 -202.5v-27q0 -129 -43.5 -190.5t-119.5 -61.5q-59 0 -105 32h-2v-220zM294 262v5q0 58 -10 79.5t-35 21.5l-25 -3v-220q10 -3 22 -3q17 0 26 6t15.5 33t6.5 81z" />
    <glyph glyph-name="ydieresis" unicode="&#xff;" horiz-adv-x="536" 
d="M528 520l-152 -570q-22 -84 -65.5 -123t-122.5 -39q-32 0 -61 6t-43 12l-13 6l17 126l19 18q26 -4 46 -4q38 0 46 30l4 18h-38l-157 520h198l48 -170l11 -100h13l10 100l41 170h199zM88 660q0 32 23 55t56 23t56 -23t23 -55t-23 -55t-56 -23t-56 23t-23 55zM295 660
q0 32 23 55t55 23q33 0 56.5 -23t23.5 -55t-23.5 -55t-56.5 -23q-32 0 -55 23t-23 55z" />
    <glyph glyph-name="Amacron" unicode="&#x100;" horiz-adv-x="560" 
d="M346 0l-13 86h-107l-12 -86h-204l140 660h260l140 -660h-204zM260 315l-11 -75h62l-11 75l-13 150h-14q-8 -115 -13 -150zM154 739v114h255v-114h-255z" />
    <glyph glyph-name="amacron" unicode="&#x101;" horiz-adv-x="533" 
d="M72 519q58 13 141 13q138 0 198.5 -48.5t60.5 -151.5v-146q0 -25 22 -29l22 -4l8 -19l-23 -104q-4 -5 -12 -12t-36 -18.5t-59 -11.5q-69 0 -104 49h-8q-47 -49 -119 -49q-68 0 -109.5 42t-41.5 110v20q0 69 43 109t113 47l104 11v3q0 20 -17 29t-67 9q-30 0 -60 -3.5
t-45 -6.5l-15 -4l-18 12q4 41 9.5 79.5t8.5 56.5zM236 138q8 0 17 3t14 7l5 3v79l-37 -12q-23 -7 -23 -38v-14q0 -28 24 -28zM117 599v114h255v-114h-255z" />
    <glyph glyph-name="Abreve" unicode="&#x102;" horiz-adv-x="560" 
d="M346 0l-13 86h-107l-12 -86h-204l140 660h260l140 -660h-204zM260 315l-11 -75h62l-11 75l-13 150h-14q-8 -115 -13 -150zM325 859h116q0 -70 -35 -111.5t-126 -41.5q-90 0 -124 41.5t-34 111.5h114q0 -5 2.5 -12.5t13.5 -16.5t28 -9q18 0 29 9t13.5 16.5t2.5 12.5z" />
    <glyph glyph-name="abreve" unicode="&#x103;" horiz-adv-x="533" 
d="M72 519q58 13 141 13q138 0 198.5 -48.5t60.5 -151.5v-146q0 -25 22 -29l22 -4l8 -19l-23 -104q-4 -5 -12 -12t-36 -18.5t-59 -11.5q-69 0 -104 49h-8q-47 -49 -119 -49q-68 0 -109.5 42t-41.5 110v20q0 69 43 109t113 47l104 11v3q0 20 -17 29t-67 9q-30 0 -60 -3.5
t-45 -6.5l-15 -4l-18 12q4 41 9.5 79.5t8.5 56.5zM236 138q8 0 17 3t14 7l5 3v79l-37 -12q-23 -7 -23 -38v-14q0 -28 24 -28zM287 719h116q0 -70 -35 -111.5t-126 -41.5q-90 0 -124 41.5t-34 111.5h114q0 -5 2.5 -12.5t13.5 -16.5t28 -9q18 0 29 9t13.5 16.5t2.5 12.5z" />
    <glyph glyph-name="Aogonek" unicode="&#x104;" horiz-adv-x="560" 
d="M346 0l-13 86h-107l-12 -86h-204l140 660h260l140 -660q-43 -73 -43 -96q0 -25 34 -25l29 2l8 -81q-29 -12 -77 -12q-121 0 -121 83q0 70 80 127v2h-114zM260 315l-11 -75h62l-11 75l-13 150h-14q-8 -115 -13 -150z" />
    <glyph glyph-name="aogonek" unicode="&#x105;" horiz-adv-x="533" 
d="M72 519q58 13 141 13q138 0 198.5 -48.5t60.5 -151.5v-146q0 -25 22 -29l22 -4l8 -19l-23 -104q-16 -17 -45 -30q-43 -70 -43 -96q0 -25 34 -25l29 2l8 -81q-29 -12 -77 -12q-121 0 -121 83q0 66 69 120v2q-41 11 -65 44h-8q-47 -49 -119 -49q-68 0 -109.5 42t-41.5 110
v20q0 69 43 109t113 47l104 11v3q0 20 -17 29t-67 9q-30 0 -60 -3.5t-45 -6.5l-15 -4l-18 12q4 41 9.5 79.5t8.5 56.5zM236 138q8 0 17 3t14 7l5 3v79l-37 -12q-23 -7 -23 -38v-14q0 -28 24 -28z" />
    <glyph glyph-name="Cacute" unicode="&#x106;" horiz-adv-x="425" 
d="M410 12q-47 -24 -126 -24q-264 0 -264 312v35q0 177 70.5 257t207.5 80q24 0 49.5 -3.5t38.5 -6.5l14 -4l-15 -149l-13 -6q-31 5 -54 5q-48 0 -72 -39.5t-24 -135.5v-21q0 -160 101 -160q9 0 22.5 2.5t22.5 5.5l9 2l13 -6q13 -76 20 -144zM410 860v-56l-115 -84h-111
l-11 23l68 117h169z" />
    <glyph glyph-name="cacute" unicode="&#x107;" horiz-adv-x="374" 
d="M366 11q-50 -23 -121 -23q-109 0 -169.5 59.5t-60.5 197.5v15q0 142 59.5 207t175.5 65q28 0 54 -4t38 -8l12 -3q-6 -97 -16 -149l-14 -6q-24 6 -44 6q-32 0 -48.5 -22.5t-16.5 -77.5v-21q0 -55 17 -75t53 -20q9 0 21 2.5t20 5.5l7 2l14 -6q10 -62 19 -145zM372 720v-56
l-115 -84h-111l-11 23l68 117h169z" />
    <glyph glyph-name="Ccircumflex" unicode="&#x108;" horiz-adv-x="425" 
d="M410 12q-47 -24 -126 -24q-264 0 -264 312v35q0 177 70.5 257t207.5 80q24 0 49.5 -3.5t38.5 -6.5l14 -4l-15 -149l-13 -6q-31 5 -54 5q-48 0 -72 -39.5t-24 -135.5v-21q0 -160 101 -160q9 0 22.5 2.5t22.5 5.5l9 2l13 -6q13 -76 20 -144zM331 860l85 -106l-11 -34h-99
l-57 47l-57 -47h-98l-11 34l84 106h164z" />
    <glyph glyph-name="ccircumflex" unicode="&#x109;" horiz-adv-x="374" 
d="M366 11q-50 -23 -121 -23q-109 0 -169.5 59.5t-60.5 197.5v15q0 142 59.5 207t175.5 65q28 0 54 -4t38 -8l12 -3q-6 -97 -16 -149l-14 -6q-24 6 -44 6q-32 0 -48.5 -22.5t-16.5 -77.5v-21q0 -55 17 -75t53 -20q9 0 21 2.5t20 5.5l7 2l14 -6q10 -62 19 -145zM297 720
l85 -106l-11 -34h-99l-57 47l-57 -47h-98l-11 34l84 106h164z" />
    <glyph glyph-name="Cdotaccent" unicode="&#x10a;" horiz-adv-x="425" 
d="M410 12q-47 -24 -126 -24q-264 0 -264 312v35q0 177 70.5 257t207.5 80q24 0 49.5 -3.5t38.5 -6.5l14 -4l-15 -149l-13 -6q-31 5 -54 5q-48 0 -72 -39.5t-24 -135.5v-21q0 -160 101 -160q9 0 22.5 2.5t22.5 5.5l9 2l13 -6q13 -76 20 -144zM169 801q0 35 24.5 59.5
t59.5 24.5t60 -24.5t25 -59.5t-25 -59.5t-60 -24.5t-59.5 24.5t-24.5 59.5z" />
    <glyph glyph-name="cdotaccent" unicode="&#x10b;" horiz-adv-x="374" 
d="M366 11q-50 -23 -121 -23q-109 0 -169.5 59.5t-60.5 197.5v15q0 142 59.5 207t175.5 65q28 0 54 -4t38 -8l12 -3q-6 -97 -16 -149l-14 -6q-24 6 -44 6q-32 0 -48.5 -22.5t-16.5 -77.5v-21q0 -55 17 -75t53 -20q9 0 21 2.5t20 5.5l7 2l14 -6q10 -62 19 -145zM132 659
q0 35 24.5 59.5t59.5 24.5t60 -24.5t25 -59.5t-25 -59.5t-60 -24.5t-59.5 24.5t-24.5 59.5z" />
    <glyph glyph-name="Ccaron" unicode="&#x10c;" horiz-adv-x="425" 
d="M410 12q-47 -24 -126 -24q-264 0 -264 312v35q0 177 70.5 257t207.5 80q24 0 49.5 -3.5t38.5 -6.5l14 -4l-15 -149l-13 -6q-31 5 -54 5q-48 0 -72 -39.5t-24 -135.5v-21q0 -160 101 -160q9 0 22.5 2.5t22.5 5.5l9 2l13 -6q13 -76 20 -144zM177 720l-85 106l11 34h98
l58 -47l56 47h99l11 -34l-84 -106h-164z" />
    <glyph glyph-name="ccaron" unicode="&#x10d;" horiz-adv-x="374" 
d="M366 11q-50 -23 -121 -23q-109 0 -169.5 59.5t-60.5 197.5v15q0 142 59.5 207t175.5 65q28 0 54 -4t38 -8l12 -3q-6 -97 -16 -149l-14 -6q-24 6 -44 6q-32 0 -48.5 -22.5t-16.5 -77.5v-21q0 -55 17 -75t53 -20q9 0 21 2.5t20 5.5l7 2l14 -6q10 -62 19 -145zM145 580
l-85 106l11 34h98l58 -47l56 47h99l11 -34l-84 -106h-164z" />
    <glyph glyph-name="Dcaron" unicode="&#x10e;" horiz-adv-x="520" 
d="M30 0v660h236q234 0 234 -253v-183q0 -111 -51.5 -167.5t-147.5 -56.5h-271zM246 496h-16v-332h19q12 0 18.5 1.5t15.5 6.5t13 18.5t4 35.5v184q0 86 -54 86zM156 720l-85 106l11 34h98l58 -47l56 47h99l11 -34l-84 -106h-164z" />
    <glyph glyph-name="dcaron" unicode="&#x10f;" horiz-adv-x="741" 
d="M485 700v-514q0 -25 22 -29l22 -4l8 -19l-23 -104q-4 -5 -12 -12t-35.5 -18.5t-57.5 -11.5q-71 0 -106 49h-8q-47 -49 -111 -49q-81 0 -125 64.5t-44 190.5v24q0 141 53 203t151 62q38 0 66 -6v174h200zM215 267v-7q0 -70 10.5 -94t33.5 -24q6 0 12.5 2t10.5 4l3 3v214
q-12 3 -25 3q-24 0 -34.5 -21t-10.5 -80zM508 610q0 47 31.5 76.5t78.5 29.5t78.5 -29.5t31.5 -76.5q0 -36 -15 -67t-48 -73l-80 -102h-63v22l47 122v4q-61 28 -61 94z" />
    <glyph glyph-name="Dmacron" unicode="&#x110;" horiz-adv-x="540" 
d="M5 250v138h45v272h236q234 0 234 -253v-183q0 -111 -51.5 -167.5t-147.5 -56.5h-271v250h-45zM266 496h-16v-108h35v-138h-35v-86h19q12 0 18.5 1.5t15.5 6.5t13 18.5t4 35.5v184q0 86 -54 86z" />
    <glyph glyph-name="dmacron" unicode="&#x111;" horiz-adv-x="546" 
d="M154 550v100h131v50h200v-50h40v-100h-40v-364q0 -25 22 -29l22 -4l8 -19l-23 -104q-4 -5 -12 -12t-35.5 -18.5t-57.5 -11.5q-71 0 -106 49h-8q-47 -49 -111 -49q-81 0 -125 64.5t-44 190.5v24q0 245 204 245q38 0 66 -6v44h-131zM215 257v-7q0 -65 10 -86.5t34 -21.5
q6 0 12.5 2t10.5 4l3 3v194q-12 3 -25 3q-23 0 -34 -20t-11 -71z" />
    <glyph glyph-name="Emacron" unicode="&#x112;" horiz-adv-x="389" 
d="M30 0v660h339v-164h-139v-88h109v-138h-109v-106h149v-164h-349zM79 741v114h255v-114h-255z" />
    <glyph glyph-name="emacron" unicode="&#x113;" horiz-adv-x="468" 
d="M444 210h-229v-10q0 -24 14.5 -36t58.5 -12q26 0 57.5 5t50.5 11l18 5l14 -8q6 -65 7 -140q-63 -37 -175 -37q-118 0 -181.5 63.5t-63.5 193.5v36q0 119 63 185t161 66h23q191 0 191 -213v-17q0 -16 -2.5 -39t-4.5 -38zM215 353v-45h60v57q0 33 -26 33q-14 0 -24 -11.5
t-10 -33.5zM119 601v114h255v-114h-255z" />
    <glyph glyph-name="Ebreve" unicode="&#x114;" horiz-adv-x="389" 
d="M30 0v660h339v-164h-139v-88h109v-138h-109v-106h149v-164h-349zM247 861h116q0 -70 -35 -111.5t-126 -41.5q-90 0 -124 41.5t-34 111.5h114q0 -5 2.5 -12.5t13.5 -16.5t28 -9q18 0 29 9t13.5 16.5t2.5 12.5z" />
    <glyph glyph-name="ebreve" unicode="&#x115;" horiz-adv-x="468" 
d="M444 210h-229v-10q0 -24 14.5 -36t58.5 -12q26 0 57.5 5t50.5 11l18 5l14 -8q6 -65 7 -140q-63 -37 -175 -37q-118 0 -181.5 63.5t-63.5 193.5v36q0 119 63 185t161 66h23q191 0 191 -213v-17q0 -16 -2.5 -39t-4.5 -38zM215 353v-45h60v57q0 33 -26 33q-14 0 -24 -11.5
t-10 -33.5zM286 720h116q0 -70 -35 -111.5t-126 -41.5q-90 0 -124 41.5t-34 111.5h114q0 -5 2.5 -12.5t13.5 -16.5t28 -9q18 0 29 9t13.5 16.5t2.5 12.5z" />
    <glyph glyph-name="Edotaccent" unicode="&#x116;" horiz-adv-x="389" 
d="M30 0v660h339v-164h-139v-88h109v-138h-109v-106h149v-164h-349zM119 801q0 35 24.5 59.5t59.5 24.5t60 -24.5t25 -59.5t-25 -59.5t-60 -24.5t-59.5 24.5t-24.5 59.5z" />
    <glyph glyph-name="edotaccent" unicode="&#x117;" horiz-adv-x="468" 
d="M444 210h-229v-10q0 -24 14.5 -36t58.5 -12q26 0 57.5 5t50.5 11l18 5l14 -8q6 -65 7 -140q-63 -37 -175 -37q-118 0 -181.5 63.5t-63.5 193.5v36q0 119 63 185t161 66h23q191 0 191 -213v-17q0 -16 -2.5 -39t-4.5 -38zM215 353v-45h60v57q0 33 -26 33q-14 0 -24 -11.5
t-10 -33.5zM163 661q0 35 24.5 59.5t59.5 24.5t60 -24.5t25 -59.5t-25 -59.5t-60 -24.5t-59.5 24.5t-24.5 59.5z" />
    <glyph glyph-name="Eogonek" unicode="&#x118;" horiz-adv-x="389" 
d="M30 0v660h339v-164h-139v-88h109v-138h-109v-106h149v-164q-43 -73 -43 -96q0 -25 34 -25l29 2l8 -81q-29 -12 -77 -12q-121 0 -121 83q0 71 79 127v2h-258z" />
    <glyph glyph-name="eogonek" unicode="&#x119;" horiz-adv-x="468" 
d="M444 210h-229v-10q0 -24 14.5 -36t58.5 -12q26 0 57.5 5t50.5 11l18 5l14 -8q6 -65 7 -140q-26 -15 -69 -25q-43 -73 -43 -96q0 -25 34 -25l29 2l8 -81q-29 -12 -77 -12q-121 0 -121 83q0 63 65 116v1h-1q-118 0 -181.5 63.5t-63.5 193.5v36q0 119 63 185t161 66h23
q191 0 191 -213v-17q0 -16 -2.5 -39t-4.5 -38zM215 353v-45h60v57q0 33 -26 33q-14 0 -24 -11.5t-10 -33.5z" />
    <glyph glyph-name="Ecaron" unicode="&#x11a;" horiz-adv-x="389" 
d="M30 0v660h339v-164h-139v-88h109v-138h-109v-106h149v-164h-349zM122 720l-85 106l11 34h98l58 -47l56 47h99l11 -34l-84 -106h-164z" />
    <glyph glyph-name="ecaron" unicode="&#x11b;" horiz-adv-x="468" 
d="M444 210h-229v-10q0 -24 14.5 -36t58.5 -12q26 0 57.5 5t50.5 11l18 5l14 -8q6 -65 7 -140q-63 -37 -175 -37q-118 0 -181.5 63.5t-63.5 193.5v36q0 119 63 185t161 66h23q191 0 191 -213v-17q0 -16 -2.5 -39t-4.5 -38zM215 353v-45h60v57q0 33 -26 33q-14 0 -24 -11.5
t-10 -33.5zM164 580l-85 106l11 34h98l58 -47l56 47h99l11 -34l-84 -106h-164z" />
    <glyph glyph-name="Gcircumflex" unicode="&#x11c;" horiz-adv-x="512" 
d="M273 152l9 1v207h200v-360h-104l-26 35q-51 -47 -117 -47q-215 0 -215 317v35q0 175 74 253.5t221 78.5q37 0 73.5 -6t55.5 -12l18 -7l-15 -149l-13 -7q-64 17 -104 17q-60 0 -84 -35t-24 -140v-31q0 -90 12 -120t39 -30zM360 860l85 -106l-11 -34h-99l-57 47l-57 -47
h-98l-11 34l84 106h164z" />
    <glyph glyph-name="gcircumflex" unicode="&#x11d;" horiz-adv-x="549" 
d="M16 -90q0 59 61 88v5q-38 23 -38 72q0 34 15.5 62t49.5 64q-89 49 -89 148q0 86 59.5 134.5t162.5 48.5h15q107 0 167 -58h2q35 46 89 46h25v-157l-18 -11q-13 4 -31 4h-12v-7q0 -87 -55.5 -133t-164.5 -46l-48 1q-3 -9 -3 -20q0 -21 23 -21h109q90 0 138 -43.5
t48 -109.5v-17q0 -75 -52.5 -123.5t-165.5 -48.5h-77q-98 0 -154 30.5t-56 86.5v5zM280 -18h-64v-40q0 -46 54 -46q51 0 51 44v5q0 37 -41 37zM275 333v36q0 21 -6.5 30t-23.5 9t-23.5 -9t-6.5 -30v-36q0 -21 6.5 -30t23.5 -9t23.5 9t6.5 30zM329 720l85 -106l-11 -34h-99
l-57 47l-57 -47h-98l-11 34l84 106h164z" />
    <glyph glyph-name="Gbreve" unicode="&#x11e;" horiz-adv-x="512" 
d="M273 152l9 1v207h200v-360h-104l-26 35q-51 -47 -117 -47q-215 0 -215 317v35q0 175 74 253.5t221 78.5q37 0 73.5 -6t55.5 -12l18 -7l-15 -149l-13 -7q-64 17 -104 17q-60 0 -84 -35t-24 -140v-31q0 -90 12 -120t39 -30zM311 859h116q0 -70 -35 -111.5t-126 -41.5
q-90 0 -124 41.5t-34 111.5h114q0 -5 2.5 -12.5t13.5 -16.5t28 -9q18 0 29 9t13.5 16.5t2.5 12.5z" />
    <glyph glyph-name="gbreve" unicode="&#x11f;" horiz-adv-x="549" 
d="M16 -90q0 59 61 88v5q-38 23 -38 72q0 34 15.5 62t49.5 64q-89 49 -89 148q0 86 59.5 134.5t162.5 48.5h15q107 0 167 -58h2q35 46 89 46h25v-157l-18 -11q-13 4 -31 4h-12v-7q0 -87 -55.5 -133t-164.5 -46l-48 1q-3 -9 -3 -20q0 -21 23 -21h109q90 0 138 -43.5
t48 -109.5v-17q0 -75 -52.5 -123.5t-165.5 -48.5h-77q-98 0 -154 30.5t-56 86.5v5zM280 -18h-64v-40q0 -46 54 -46q51 0 51 44v5q0 37 -41 37zM275 333v36q0 21 -6.5 30t-23.5 9t-23.5 -9t-6.5 -30v-36q0 -21 6.5 -30t23.5 -9t23.5 9t6.5 30zM289 719h116q0 -70 -35 -111.5
t-126 -41.5q-90 0 -124 41.5t-34 111.5h114q0 -5 2.5 -12.5t13.5 -16.5t28 -9q18 0 29 9t13.5 16.5t2.5 12.5z" />
    <glyph glyph-name="Gdotaccent" unicode="&#x120;" horiz-adv-x="512" 
d="M273 152l9 1v207h200v-360h-104l-26 35q-51 -47 -117 -47q-215 0 -215 317v35q0 175 74 253.5t221 78.5q37 0 73.5 -6t55.5 -12l18 -7l-15 -149l-13 -7q-64 17 -104 17q-60 0 -84 -35t-24 -140v-31q0 -90 12 -120t39 -30zM199 801q0 35 24.5 59.5t59.5 24.5t60 -24.5
t25 -59.5t-25 -59.5t-60 -24.5t-59.5 24.5t-24.5 59.5z" />
    <glyph glyph-name="gdotaccent" unicode="&#x121;" horiz-adv-x="549" 
d="M16 -90q0 59 61 88v5q-38 23 -38 72q0 34 15.5 62t49.5 64q-89 49 -89 148q0 86 59.5 134.5t162.5 48.5h15q107 0 167 -58h2q35 46 89 46h25v-157l-18 -11q-13 4 -31 4h-12v-7q0 -87 -55.5 -133t-164.5 -46l-48 1q-3 -9 -3 -20q0 -21 23 -21h109q90 0 138 -43.5
t48 -109.5v-17q0 -75 -52.5 -123.5t-165.5 -48.5h-77q-98 0 -154 30.5t-56 86.5v5zM280 -18h-64v-40q0 -46 54 -46q51 0 51 44v5q0 37 -41 37zM275 333v36q0 21 -6.5 30t-23.5 9t-23.5 -9t-6.5 -30v-36q0 -21 6.5 -30t23.5 -9t23.5 9t6.5 30zM162 661q0 35 24.5 59.5
t59.5 24.5t60 -24.5t25 -59.5t-25 -59.5t-60 -24.5t-59.5 24.5t-24.5 59.5z" />
    <glyph glyph-name="Gcommaaccent" unicode="&#x122;" horiz-adv-x="512" 
d="M273 152l9 1v207h200v-360h-104l-26 35q-51 -47 -117 -47q-215 0 -215 317v35q0 175 74 253.5t221 78.5q37 0 73.5 -6t55.5 -12l18 -7l-15 -149l-13 -7q-64 17 -104 17q-60 0 -84 -35t-24 -140v-31q0 -90 12 -120t39 -30zM188 -156q0 47 31.5 76.5t78.5 29.5t78.5 -29.5
t31.5 -76.5q0 -36 -15 -67t-48 -73l-80 -102h-63v22l47 122v4q-61 28 -61 94z" />
    <glyph glyph-name="gcommaaccent" unicode="&#x123;" horiz-adv-x="549" 
d="M16 -90q0 59 61 88v5q-38 23 -38 72q0 34 15.5 62t49.5 64q-89 49 -89 148q0 86 59.5 134.5t162.5 48.5h15q107 0 167 -58h2q35 46 89 46h25v-157l-18 -11q-13 4 -31 4h-12v-7q0 -87 -55.5 -133t-164.5 -46l-48 1q-3 -9 -3 -20q0 -21 23 -21h109q90 0 138 -43.5
t48 -109.5v-17q0 -75 -52.5 -123.5t-165.5 -48.5h-77q-98 0 -154 30.5t-56 86.5v5zM280 -18h-64v-40q0 -46 54 -46q51 0 51 44v5q0 37 -41 37zM275 333v36q0 21 -6.5 30t-23.5 9t-23.5 -9t-6.5 -30v-36q0 -21 6.5 -30t23.5 -9t23.5 9t6.5 30zM357 668q0 -47 -31.5 -76.5
t-78.5 -29.5t-78.5 29.5t-31.5 76.5q0 36 15 67t48 73l80 102h63v-22l-47 -122v-4q61 -28 61 -94z" />
    <glyph glyph-name="Imacron" unicode="&#x12a;" horiz-adv-x="260" 
d="M30 0v660h200v-660h-200zM3 741v114h255v-114h-255z" />
    <glyph glyph-name="imacron" unicode="&#x12b;" horiz-adv-x="253" 
d="M-1 601v114h255v-114h-255zM226 0h-200v520h200v-520z" />
    <glyph glyph-name="Iogonek" unicode="&#x12e;" horiz-adv-x="260" 
d="M30 0v660h200v-660q-43 -73 -43 -96q0 -25 34 -25l29 2l8 -81q-29 -12 -77 -12q-121 0 -121 83q0 71 79 127v2h-109z" />
    <glyph glyph-name="iogonek" unicode="&#x12f;" horiz-adv-x="253" 
d="M246 -119l8 -81q-29 -12 -77 -12q-121 0 -121 83q0 69 77 126v3h-107v520h200v-520q-43 -73 -43 -96q0 -25 34 -25zM14 648q0 44 30.5 66t81.5 22t81.5 -22t30.5 -66t-30.5 -66t-81.5 -22t-81.5 21.5t-30.5 66.5z" />
    <glyph glyph-name="Idotaccent" unicode="&#x130;" horiz-adv-x="260" 
d="M30 0v660h200v-660h-200zM47 800q0 35 24.5 59.5t59.5 24.5t60 -24.5t25 -59.5t-25 -59.5t-60 -24.5t-59.5 24.5t-24.5 59.5z" />
    <glyph glyph-name="dotlessi" unicode="&#x131;" horiz-adv-x="248" 
d="M224 0h-200v520h200v-520z" />
    <glyph glyph-name="Jcircumflex" unicode="&#x134;" horiz-adv-x="331" 
d="M10 1l11 142l12 11q10 -2 24 -2q23 0 34 16.5t11 62.5v429h199v-451q0 -68 -11.5 -112.5t-37 -68t-58 -32t-81.5 -8.5q-21 0 -47 3t-41 7zM287 860l85 -106l-11 -34h-99l-57 47l-57 -47h-98l-11 34l84 106h164z" />
    <glyph glyph-name="jcircumflex" unicode="&#x135;" horiz-adv-x="247" 
d="M220 520v-558q0 -89 -35.5 -131.5t-116.5 -42.5q-30 0 -62 6t-49 12l-17 7l14 123l19 19q11 -3 20 -3q28 0 28 29v539h199zM202 720l85 -106l-11 -34h-99l-57 47l-57 -47h-98l-11 34l84 106h164z" />
    <glyph glyph-name="Kcommaaccent" unicode="&#x136;" horiz-adv-x="556" 
d="M546 0h-213l-89 247h-14v-247h-200v660h200v-249h13l92 249h207l-121 -323zM176 -156q0 47 31.5 76.5t78.5 29.5t78.5 -29.5t31.5 -76.5q0 -36 -15 -67t-48 -73l-80 -102h-63v22l47 122v4q-61 28 -61 94z" />
    <glyph glyph-name="kcommaaccent" unicode="&#x137;" horiz-adv-x="523" 
d="M224 0h-200v700h200v-370h8l69 190h204l-98 -239l108 -281h-212l-73 190h-6v-190zM160 -156q0 47 31.5 76.5t78.5 29.5t78.5 -29.5t31.5 -76.5q0 -36 -15 -67t-48 -73l-80 -102h-63v22l47 122v4q-61 28 -61 94z" />
    <glyph glyph-name="Lacute" unicode="&#x139;" horiz-adv-x="369" 
d="M30 0v660h200v-496h129v-164h-329zM291 860v-56l-115 -84h-111l-11 23l68 117h169z" />
    <glyph glyph-name="lacute" unicode="&#x13a;" horiz-adv-x="316" 
d="M24 170v530h200v-498q0 -50 41 -50l23 3l19 -15v-128q-39 -24 -109 -24q-174 0 -174 182zM269 880v-56l-115 -84h-111l-11 23l68 117h169z" />
    <glyph glyph-name="Lcommaaccent" unicode="&#x13b;" horiz-adv-x="369" 
d="M30 0v660h200v-496h129v-164h-329zM96 -140q0 42 28 68.5t71 26.5q42 0 70.5 -26.5t28.5 -68.5q0 -55 -57 -126l-72 -92h-56v20l42 109v4q-55 25 -55 85z" />
    <glyph glyph-name="lcommaaccent" unicode="&#x13c;" horiz-adv-x="316" 
d="M24 170v530h200v-498q0 -50 41 -50l23 3l19 -15v-128q-39 -24 -109 -24q-174 0 -174 182zM63 -156q0 47 31.5 76.5t78.5 29.5t78.5 -29.5t31.5 -76.5q0 -36 -15 -67t-48 -73l-80 -102h-63v22l47 122v4q-61 28 -61 94z" />
    <glyph glyph-name="Lcaron" unicode="&#x13d;" horiz-adv-x="446" 
d="M30 0v660h200v-496h129v-164h-329zM260 601q0 38 25 61.5t63 23.5t63 -23.5t25 -61.5q0 -48 -50 -112l-64 -81h-51v17l38 98v3q-49 23 -49 75z" />
    <glyph glyph-name="lcaron" unicode="&#x13e;" horiz-adv-x="499" 
d="M24 170v530h200v-498q0 -50 41 -50l23 3l19 -15v-128q-39 -24 -109 -24q-174 0 -174 182zM266 615q0 47 31.5 76.5t78.5 29.5t78.5 -29.5t31.5 -76.5q0 -36 -15 -67t-48 -73l-80 -102h-63v22l47 122v4q-61 28 -61 94z" />
    <glyph glyph-name="Ldot" unicode="&#x13f;" horiz-adv-x="465" 
d="M30 0v660h200v-496h129v-164h-329zM454 339q0 -43 -28 -69t-71 -26t-71 26t-28 69t28 69t71 26t71 -26t28 -69z" />
    <glyph glyph-name="ldot" unicode="&#x140;" horiz-adv-x="494" 
d="M24 170v530h200v-498q0 -50 41 -50l23 3l19 -15v-128q-39 -24 -109 -24q-174 0 -174 182zM479 356q0 -47 -31.5 -76.5t-78.5 -29.5t-78.5 29.5t-31.5 76.5t31.5 76.5t78.5 29.5t78.5 -29.5t31.5 -76.5z" />
    <glyph glyph-name="Lslash" unicode="&#x141;" horiz-adv-x="389" 
d="M5 157v132l45 26v345h200v-229l85 49v-132l-85 -49v-135h129v-164h-329v183z" />
    <glyph glyph-name="lslash" unicode="&#x142;" horiz-adv-x="342" 
d="M10 147v135l40 23v395h200v-280l65 38v-135l-65 -38v-83q0 -50 41 -50l23 3l19 -15v-128q-39 -24 -109 -24q-174 0 -174 180l-2 1z" />
    <glyph glyph-name="Nacute" unicode="&#x143;" horiz-adv-x="584" 
d="M338 0l-79 195q-8 20 -17.5 55t-14.5 60l-5 26l-8 -1l15 -157v-178h-199v660h216l76 -190q9 -22 19 -59t16 -63l6 -26l8 1l-16 159v178h199v-660h-216zM473 860v-56l-115 -84h-111l-11 23l68 117h169z" />
    <glyph glyph-name="nacute" unicode="&#x144;" horiz-adv-x="508" 
d="M224 0h-200v520h117l58 -58q64 70 148 70q63 0 100 -39.5t37 -103.5v-389h-200v346q0 22 -25 22q-8 0 -16.5 -2.5t-13.5 -5.5l-5 -2v-358zM409 720v-56l-115 -84h-111l-11 23l68 117h169z" />
    <glyph glyph-name="Ncommaaccent" unicode="&#x145;" horiz-adv-x="584" 
d="M338 0l-79 195q-8 20 -17.5 55t-14.5 60l-5 26l-8 -1l15 -157v-178h-199v660h216l76 -190q9 -22 19 -59t16 -63l6 -26l8 1l-16 159v178h199v-660h-216zM183 -140q0 42 28 68.5t71 26.5q42 0 70.5 -26.5t28.5 -68.5q0 -55 -57 -126l-72 -92h-56v20l42 109v4q-55 25 -55 85
z" />
    <glyph glyph-name="ncommaaccent" unicode="&#x146;" horiz-adv-x="508" 
d="M224 0h-200v520h117l58 -58q64 70 148 70q63 0 100 -39.5t37 -103.5v-389h-200v346q0 22 -25 22q-8 0 -16.5 -2.5t-13.5 -5.5l-5 -2v-358zM143 -156q0 47 31.5 76.5t78.5 29.5t78.5 -29.5t31.5 -76.5q0 -36 -15 -67t-48 -73l-80 -102h-63v22l47 122v4q-61 28 -61 94z" />
    <glyph glyph-name="Ncaron" unicode="&#x147;" horiz-adv-x="584" 
d="M338 0l-79 195q-8 20 -17.5 55t-14.5 60l-5 26l-8 -1l15 -157v-178h-199v660h216l76 -190q9 -22 19 -59t16 -63l6 -26l8 1l-16 159v178h199v-660h-216zM210 720l-85 106l11 34h98l58 -47l56 47h99l11 -34l-84 -106h-164z" />
    <glyph glyph-name="ncaron" unicode="&#x148;" horiz-adv-x="508" 
d="M224 0h-200v520h117l58 -58q64 70 148 70q63 0 100 -39.5t37 -103.5v-389h-200v346q0 22 -25 22q-8 0 -16.5 -2.5t-13.5 -5.5l-5 -2v-358zM170 580l-85 106l11 34h98l58 -47l56 47h99l11 -34l-84 -106h-164z" />
    <glyph glyph-name="Omacron" unicode="&#x14c;" horiz-adv-x="514" 
d="M249 672h16q124 0 176.5 -77.5t52.5 -242.5v-43q0 -165 -52.5 -243t-176.5 -78h-16q-124 0 -176.5 78t-52.5 243v43q0 165 52.5 242.5t176.5 77.5zM292 220v223q0 65 -35 65t-35 -65v-223q0 -68 35 -68t35 68zM129 741v114h255v-114h-255z" />
    <glyph glyph-name="omacron" unicode="&#x14d;" horiz-adv-x="490" 
d="M236 532h18q96 0 158.5 -67.5t62.5 -183.5v-42q0 -116 -62.5 -183.5t-158.5 -67.5h-18q-96 0 -158.5 67.5t-62.5 183.5v42q0 116 62.5 183.5t158.5 67.5zM275 190v140q0 38 -30 38t-30 -38v-140q0 -38 30 -38t30 38zM118 601v114h255v-114h-255z" />
    <glyph glyph-name="Obreve" unicode="&#x14e;" horiz-adv-x="514" 
d="M249 672h16q124 0 176.5 -77.5t52.5 -242.5v-43q0 -165 -52.5 -243t-176.5 -78h-16q-124 0 -176.5 78t-52.5 243v43q0 165 52.5 242.5t176.5 77.5zM292 220v223q0 65 -35 65t-35 -65v-223q0 -68 35 -68t35 68zM301 861h116q0 -70 -35 -111.5t-126 -41.5q-90 0 -124 41.5
t-34 111.5h114q0 -5 2.5 -12.5t13.5 -16.5t28 -9q18 0 29 9t13.5 16.5t2.5 12.5z" />
    <glyph glyph-name="obreve" unicode="&#x14f;" horiz-adv-x="490" 
d="M236 532h18q96 0 158.5 -67.5t62.5 -183.5v-42q0 -116 -62.5 -183.5t-158.5 -67.5h-18q-96 0 -158.5 67.5t-62.5 183.5v42q0 116 62.5 183.5t158.5 67.5zM275 190v140q0 38 -30 38t-30 -38v-140q0 -38 30 -38t30 38zM289 719h116q0 -70 -35 -111.5t-126 -41.5
q-90 0 -124 41.5t-34 111.5h114q0 -5 2.5 -12.5t13.5 -16.5t28 -9q18 0 29 9t13.5 16.5t2.5 12.5z" />
    <glyph glyph-name="Ohungarumlaut" unicode="&#x150;" horiz-adv-x="514" 
d="M249 672h16q124 0 176.5 -77.5t52.5 -242.5v-43q0 -165 -52.5 -243t-176.5 -78h-16q-124 0 -176.5 78t-52.5 243v43q0 165 52.5 242.5t176.5 77.5zM292 220v223q0 65 -35 65t-35 -65v-223q0 -68 35 -68t35 68zM481 859v-56l-115 -84h-63l-11 23l57 117h132zM295 859v-56
l-115 -84h-63l-11 23l57 117h132z" />
    <glyph glyph-name="ohungarumlaut" unicode="&#x151;" horiz-adv-x="490" 
d="M236 532h18q96 0 158.5 -67.5t62.5 -183.5v-42q0 -116 -62.5 -183.5t-158.5 -67.5h-18q-96 0 -158.5 67.5t-62.5 183.5v42q0 116 62.5 183.5t158.5 67.5zM275 190v140q0 38 -30 38t-30 -38v-140q0 -38 30 -38t30 38zM473 720v-56l-115 -84h-63l-11 23l57 117h132z
M287 720v-56l-115 -84h-63l-11 23l57 117h132z" />
    <glyph glyph-name="OE" unicode="&#x152;" horiz-adv-x="651" 
d="M249 672h16q49 0 86 -12h280v-164h-145l-4 -3q7 -35 10 -85h109v-138h-108q-3 -64 -11 -102l5 -4h154v-164h-290q-37 -12 -86 -12h-16q-124 0 -176.5 78t-52.5 243v43q0 165 52.5 242.5t176.5 77.5zM292 220v223q0 65 -35 65t-35 -65v-223q0 -68 35 -68t35 68z" />
    <glyph glyph-name="oe" unicode="&#x153;" horiz-adv-x="728" 
d="M704 210h-229v-10q0 -24 14.5 -36t58.5 -12q26 0 57.5 5t50.5 11l18 5l14 -8q6 -65 7 -140q-63 -37 -175 -37q-88 0 -144 36h-3q-49 -36 -119 -36h-18q-96 0 -158.5 67.5t-62.5 183.5v42q0 116 62.5 183.5t158.5 67.5h18q67 0 119 -36h3q51 36 123 36h23q191 0 191 -213
v-17q0 -16 -2.5 -39t-4.5 -38zM275 190v140q0 38 -30 38t-30 -38v-140q0 -38 30 -38t30 38zM475 353v-45h60v57q0 33 -26 33q-14 0 -24 -11.5t-10 -33.5z" />
    <glyph glyph-name="Racute" unicode="&#x154;" horiz-adv-x="535" 
d="M252 496h-22v-126h29q26 0 38.5 11t12.5 39v15q0 30 -11.5 45.5t-46.5 15.5zM520 0h-206l-53 210q-5 22 -23 22h-8v-232h-200v660h260q111 0 165.5 -53.5t54.5 -149.5v-17q0 -122 -81 -167v-5q19 -14 34 -64zM399 860v-56l-115 -84h-111l-11 23l68 117h169z" />
    <glyph glyph-name="racute" unicode="&#x155;" horiz-adv-x="344" 
d="M224 0h-200v520h117l53 -56h2q13 20 24 32.5t35.5 24t56.5 11.5l28 -2l-13 -182l-22 -11q-19 6 -41 6q-12 0 -22 -2t-14 -4l-4 -2v-335zM337 720v-56l-115 -84h-111l-11 23l68 117h169z" />
    <glyph glyph-name="Rcommaaccent" unicode="&#x156;" horiz-adv-x="535" 
d="M252 496h-22v-126h29q26 0 38.5 11t12.5 39v15q0 30 -11.5 45.5t-46.5 15.5zM520 0h-206l-53 210q-5 22 -23 22h-8v-232h-200v660h260q111 0 165.5 -53.5t54.5 -149.5v-17q0 -122 -81 -167v-5q19 -14 34 -64zM175 -140q0 42 28 68.5t71 26.5q42 0 70.5 -26.5t28.5 -68.5
q0 -55 -57 -126l-72 -92h-56v20l42 109v4q-55 25 -55 85z" />
    <glyph glyph-name="rcommaaccent" unicode="&#x157;" horiz-adv-x="344" 
d="M224 0h-200v520h117l53 -56h2q13 20 24 32.5t35.5 24t56.5 11.5l28 -2l-13 -182l-22 -11q-19 6 -41 6q-12 0 -22 -2t-14 -4l-4 -2v-335zM26 -156q0 47 31.5 76.5t78.5 29.5t78.5 -29.5t31.5 -76.5q0 -36 -15 -67t-48 -73l-80 -102h-63v22l47 122v4q-61 28 -61 94z" />
    <glyph glyph-name="Rcaron" unicode="&#x158;" horiz-adv-x="535" 
d="M252 496h-22v-126h29q26 0 38.5 11t12.5 39v15q0 30 -11.5 45.5t-46.5 15.5zM520 0h-206l-53 210q-5 22 -23 22h-8v-232h-200v660h260q111 0 165.5 -53.5t54.5 -149.5v-17q0 -122 -81 -167v-5q19 -14 34 -64zM177 720l-85 106l11 34h98l58 -47l56 47h99l11 -34l-84 -106
h-164z" />
    <glyph glyph-name="rcaron" unicode="&#x159;" horiz-adv-x="344" 
d="M224 0h-200v520h117l53 -56h2q13 20 24 32.5t35.5 24t56.5 11.5l28 -2l-13 -182l-22 -11q-19 6 -41 6q-12 0 -22 -2t-14 -4l-4 -2v-335zM94 580l-85 106l11 34h98l58 -47l56 47h99l11 -34l-84 -106h-164z" />
    <glyph glyph-name="Sacute" unicode="&#x15a;" horiz-adv-x="460" 
d="M38 9q-4 37 -5 75t0 57l1 19l16 9q59 -17 118 -17q77 0 77 48q0 26 -31 39l-83 33q-116 47 -116 179q0 221 248 221q36 0 71.5 -5t52.5 -10l17 -5q0 -30 -2 -67.5t-4 -60.5l-3 -22l-17 -8q-48 14 -90 14q-43 0 -58 -12t-15 -33q0 -20 27 -32l85 -36q118 -49 118 -180
q0 -227 -237 -227q-46 0 -88.5 5.5t-61.5 10.5zM404 860v-56l-115 -84h-111l-11 23l68 117h169z" />
    <glyph glyph-name="sacute" unicode="&#x15b;" horiz-adv-x="463" 
d="M43 8l-10 152l17 8q78 -16 140 -16q59 0 59 18q0 9 -13 11l-65 10q-81 13 -118.5 50.5t-37.5 103.5q0 89 59.5 138t180.5 49q38 0 78 -5t61 -10t21 -6l-13 -150l-17 -9q-69 16 -121 16q-49 0 -49 -16q0 -9 10 -10l61 -10q87 -14 124.5 -49.5t37.5 -102.5q0 -94 -54 -143
t-174 -49q-49 0 -93.5 5t-64.5 10zM383 720v-56l-115 -84h-111l-11 23l68 117h169z" />
    <glyph glyph-name="Scircumflex" unicode="&#x15c;" horiz-adv-x="460" 
d="M38 9q-4 37 -5 75t0 57l1 19l16 9q59 -17 118 -17q77 0 77 48q0 26 -31 39l-83 33q-116 47 -116 179q0 221 248 221q36 0 71.5 -5t52.5 -10l17 -5q0 -30 -2 -67.5t-4 -60.5l-3 -22l-17 -8q-48 14 -90 14q-43 0 -58 -12t-15 -33q0 -20 27 -32l85 -36q118 -49 118 -180
q0 -227 -237 -227q-46 0 -88.5 5.5t-61.5 10.5zM314 860l85 -106l-11 -34h-99l-57 47l-57 -47h-98l-11 34l84 106h164z" />
    <glyph glyph-name="scircumflex" unicode="&#x15d;" horiz-adv-x="463" 
d="M43 8l-10 152l17 8q78 -16 140 -16q59 0 59 18q0 9 -13 11l-65 10q-81 13 -118.5 50.5t-37.5 103.5q0 89 59.5 138t180.5 49q38 0 78 -5t61 -10t21 -6l-13 -150l-17 -9q-69 16 -121 16q-49 0 -49 -16q0 -9 10 -10l61 -10q87 -14 124.5 -49.5t37.5 -102.5q0 -94 -54 -143
t-174 -49q-49 0 -93.5 5t-64.5 10zM312 720l85 -106l-11 -34h-99l-57 47l-57 -47h-98l-11 34l84 106h164z" />
    <glyph glyph-name="Scedilla" unicode="&#x15e;" horiz-adv-x="460" 
d="M137 -201l9 71q28 -4 48 -4q33 0 33 16q0 12 -18 12h-50l13 95q-36 2 -69.5 7t-48.5 9l-16 4q-4 37 -5 75t0 57l1 19l16 9q59 -17 118 -17q77 0 77 48q0 26 -31 39l-83 33q-116 47 -116 179q0 221 248 221q36 0 71.5 -5t52.5 -10l17 -5q0 -30 -2 -67.5t-4 -60.5l-3 -22
l-17 -8q-48 14 -90 14q-43 0 -58 -12t-15 -33q0 -20 27 -32l85 -36q118 -49 118 -180q0 -199 -180 -223v-31h10q80 0 80 -79q0 -94 -123 -94q-23 0 -46.5 3t-35.5 5z" />
    <glyph glyph-name="scedilla" unicode="&#x15f;" horiz-adv-x="463" 
d="M43 8l-10 152l17 8q78 -16 140 -16q59 0 59 18q0 9 -13 11l-65 10q-81 13 -118.5 50.5t-37.5 103.5q0 89 59.5 138t180.5 49q38 0 78 -5t61 -10t21 -6l-13 -150l-17 -9q-69 16 -121 16q-49 0 -49 -16q0 -9 10 -10l61 -10q87 -14 124.5 -49.5t37.5 -102.5
q0 -167 -171 -188v-31h10q80 0 80 -79q0 -94 -123 -94q-23 0 -46.5 3t-35.5 5l-13 3l9 71q28 -4 48 -4q33 0 33 16q0 12 -18 12h-50l13 95q-40 1 -75 6t-51 9z" />
    <glyph glyph-name="Scaron" unicode="&#x160;" horiz-adv-x="460" 
d="M38 9q-4 37 -5 75t0 57l1 19l16 9q59 -17 118 -17q77 0 77 48q0 26 -31 39l-83 33q-116 47 -116 179q0 221 248 221q36 0 71.5 -5t52.5 -10l17 -5q0 -30 -2 -67.5t-4 -60.5l-3 -22l-17 -8q-48 14 -90 14q-43 0 -58 -12t-15 -33q0 -20 27 -32l85 -36q118 -49 118 -180
q0 -227 -237 -227q-46 0 -88.5 5.5t-61.5 10.5zM144 720l-85 106l11 34h98l58 -47l56 47h99l11 -34l-84 -106h-164z" />
    <glyph glyph-name="scaron" unicode="&#x161;" horiz-adv-x="463" 
d="M43 8l-10 152l17 8q78 -16 140 -16q59 0 59 18q0 9 -13 11l-65 10q-81 13 -118.5 50.5t-37.5 103.5q0 89 59.5 138t180.5 49q38 0 78 -5t61 -10t21 -6l-13 -150l-17 -9q-69 16 -121 16q-49 0 -49 -16q0 -9 10 -10l61 -10q87 -14 124.5 -49.5t37.5 -102.5q0 -94 -54 -143
t-174 -49q-49 0 -93.5 5t-64.5 10zM151 580l-85 106l11 34h98l58 -47l56 47h99l11 -34l-84 -106h-164z" />
    <glyph glyph-name="Tcommaaccent" unicode="&#x162;" horiz-adv-x="390" 
d="M10 496v164h370v-164h-85v-496h-200v496h-85zM95 -140q0 42 28 68.5t71 26.5q42 0 70.5 -26.5t28.5 -68.5q0 -55 -57 -126l-72 -92h-56v20l42 109v4q-55 25 -55 85z" />
    <glyph glyph-name="Tcommaaccent" unicode="&#x21a;" horiz-adv-x="390" 
d="M10 496v164h370v-164h-85v-496h-200v496h-85zM95 -140q0 42 28 68.5t71 26.5q42 0 70.5 -26.5t28.5 -68.5q0 -55 -57 -126l-72 -92h-56v20l42 109v4q-55 25 -55 85z" />
    <glyph glyph-name="tcommaaccent" unicode="&#x163;" horiz-adv-x="386" 
d="M13 356v164h55l60 120h140v-120h105v-164h-105v-146q0 -31 11.5 -44.5t39.5 -13.5l41 5l13 -7v-141q-42 -21 -108 -21q-118 0 -157.5 50.5t-39.5 166.5v151h-55zM123 -156q0 47 31.5 76.5t78.5 29.5t78.5 -29.5t31.5 -76.5q0 -36 -15 -67t-48 -73l-80 -102h-63v22l47 122
v4q-61 28 -61 94z" />
    <glyph glyph-name="tcommaaccent" unicode="&#x21b;" horiz-adv-x="386" 
d="M13 356v164h55l60 120h140v-120h105v-164h-105v-146q0 -31 11.5 -44.5t39.5 -13.5l41 5l13 -7v-141q-42 -21 -108 -21q-118 0 -157.5 50.5t-39.5 166.5v151h-55zM123 -156q0 47 31.5 76.5t78.5 29.5t78.5 -29.5t31.5 -76.5q0 -36 -15 -67t-48 -73l-80 -102h-63v22l47 122
v4q-61 28 -61 94z" />
    <glyph glyph-name="Tcaron" unicode="&#x164;" horiz-adv-x="390" 
d="M10 496v164h370v-164h-85v-496h-200v496h-85zM114 720l-85 106l11 34h98l58 -47l56 47h99l11 -34l-84 -106h-164z" />
    <glyph glyph-name="tcaron" unicode="&#x165;" horiz-adv-x="386" 
d="M13 356v164h55l60 120h140v-120h105v-164h-105v-146q0 -31 11.5 -44.5t39.5 -13.5l41 5l13 -7v-141q-42 -21 -108 -21q-118 0 -157.5 50.5t-39.5 166.5v151h-55zM305 800q0 47 31.5 76.5t78.5 29.5t78.5 -29.5t31.5 -76.5q0 -36 -15 -67t-48 -73l-80 -102h-63v22l47 122
v4q-61 28 -61 94z" />
    <glyph glyph-name="Utilde" unicode="&#x168;" horiz-adv-x="530" 
d="M300 660h200v-426q0 -246 -225 -246h-20q-225 0 -225 246v426h200v-460q0 -48 35 -48t35 48v460zM378 890l81 -24q-18 -145 -122 -145q-32 0 -75.5 23.5t-56.5 23.5q-33 0 -51 -47l-81 24q18 145 131 145q32 0 75.5 -23.5t55.5 -23.5q13 0 22.5 10t20.5 37z" />
    <glyph glyph-name="utilde" unicode="&#x169;" horiz-adv-x="545" 
d="M24 520h200v-340q0 -28 27 -28q8 0 16.5 2.5t12.5 5.5l4 2v358h200v-334q0 -25 22 -29l22 -4l8 -19l-22 -103q-4 -5 -12 -12t-36 -19t-60 -12q-70 0 -104 49h-8q-53 -49 -123 -49q-67 0 -107 42t-40 133v357zM368 748l81 -24q-18 -145 -122 -145q-32 0 -75.5 23.5
t-56.5 23.5q-33 0 -51 -47l-81 24q18 145 131 145q32 0 75.5 -23.5t55.5 -23.5q13 0 22.5 10t20.5 37z" />
    <glyph glyph-name="Umacron" unicode="&#x16a;" horiz-adv-x="530" 
d="M300 660h200v-426q0 -246 -225 -246h-20q-225 0 -225 246v426h200v-460q0 -48 35 -48t35 48v460zM136 738v114h255v-114h-255z" />
    <glyph glyph-name="umacron" unicode="&#x16b;" horiz-adv-x="545" 
d="M24 520h200v-340q0 -28 27 -28q8 0 16.5 2.5t12.5 5.5l4 2v358h200v-334q0 -25 22 -29l22 -4l8 -19l-22 -103q-4 -5 -12 -12t-36 -19t-60 -12q-70 0 -104 49h-8q-53 -49 -123 -49q-67 0 -107 42t-40 133v357zM131 600v114h255v-114h-255z" />
    <glyph glyph-name="Ubreve" unicode="&#x16c;" horiz-adv-x="530" 
d="M300 660h200v-426q0 -246 -225 -246h-20q-225 0 -225 246v426h200v-460q0 -48 35 -48t35 48v460zM306 861h116q0 -70 -35 -111.5t-126 -41.5q-90 0 -124 41.5t-34 111.5h114q0 -5 2.5 -12.5t13.5 -16.5t28 -9q18 0 29 9t13.5 16.5t2.5 12.5z" />
    <glyph glyph-name="ubreve" unicode="&#x16d;" horiz-adv-x="545" 
d="M24 520h200v-340q0 -28 27 -28q8 0 16.5 2.5t12.5 5.5l4 2v358h200v-334q0 -25 22 -29l22 -4l8 -19l-22 -103q-4 -5 -12 -12t-36 -19t-60 -12q-70 0 -104 49h-8q-53 -49 -123 -49q-67 0 -107 42t-40 133v357zM302 719h116q0 -70 -35 -111.5t-126 -41.5q-90 0 -124 41.5
t-34 111.5h114q0 -5 2.5 -12.5t13.5 -16.5t28 -9q18 0 29 9t13.5 16.5t2.5 12.5z" />
    <glyph glyph-name="Uring" unicode="&#x16e;" horiz-adv-x="530" 
d="M300 660h200v-426q0 -246 -225 -246h-20q-225 0 -225 246v426h200v-460q0 -48 35 -48t35 48v460zM130 804q0 48 34 77t97 29q64 0 98 -29t34 -77t-34 -77t-98 -29q-63 0 -97 29t-34 77zM230 804q0 -26 31 -26q32 0 32 26t-32 26q-31 0 -31 -26z" />
    <glyph glyph-name="uring" unicode="&#x16f;" horiz-adv-x="545" 
d="M24 520h200v-340q0 -28 27 -28q8 0 16.5 2.5t12.5 5.5l4 2v358h200v-334q0 -25 22 -29l22 -4l8 -19l-22 -103q-4 -5 -12 -12t-36 -19t-60 -12q-70 0 -104 49h-8q-53 -49 -123 -49q-67 0 -107 42t-40 133v357zM126 664q0 48 34 77t97 29q64 0 98 -29t34 -77t-34 -77
t-98 -29q-63 0 -97 29t-34 77zM226 664q0 -26 31 -26q32 0 32 26t-32 26q-31 0 -31 -26z" />
    <glyph glyph-name="Uhungarumlaut" unicode="&#x170;" horiz-adv-x="530" 
d="M300 660h200v-426q0 -246 -225 -246h-20q-225 0 -225 246v426h200v-460q0 -48 35 -48t35 48v460zM478 860v-56l-115 -84h-63l-11 23l57 117h132zM292 860v-56l-115 -84h-63l-11 23l57 117h132z" />
    <glyph glyph-name="uhungarumlaut" unicode="&#x171;" horiz-adv-x="545" 
d="M24 520h200v-340q0 -28 27 -28q8 0 16.5 2.5t12.5 5.5l4 2v358h200v-334q0 -25 22 -29l22 -4l8 -19l-22 -103q-4 -5 -12 -12t-36 -19t-60 -12q-70 0 -104 49h-8q-53 -49 -123 -49q-67 0 -107 42t-40 133v357zM472 720v-56l-115 -84h-63l-11 23l57 117h132zM286 720v-56
l-115 -84h-63l-11 23l57 117h132z" />
    <glyph glyph-name="Uogonek" unicode="&#x172;" horiz-adv-x="530" 
d="M300 660h200v-426q0 -193 -138 -234q-43 -73 -43 -96q0 -25 34 -25l29 2l8 -81q-29 -12 -77 -12q-121 0 -121 83q0 63 64 116v1h-1q-225 0 -225 246v426h200v-460q0 -48 35 -48t35 48v460z" />
    <glyph glyph-name="uogonek" unicode="&#x173;" horiz-adv-x="545" 
d="M24 520h200v-340q0 -28 27 -28q8 0 16.5 2.5t12.5 5.5l4 2v358h200v-334q0 -25 22 -29l22 -4l8 -19l-22 -103q-17 -19 -46 -31q-43 -73 -43 -96q0 -25 34 -25l29 2l8 -81q-29 -12 -77 -12q-121 0 -121 83q0 67 70 120v2q-45 12 -66 44h-8q-53 -49 -123 -49q-67 0 -107 42
t-40 133v357z" />
    <glyph glyph-name="Wcircumflex" unicode="&#x174;" horiz-adv-x="742" 
d="M433 640l39 -220l12 -93h12l3 113l31 220h202l-103 -660h-211l-23 128l-19 143h-10q-10 -95 -19 -143l-23 -128h-211l-103 660h202l31 -220l3 -113h12q6 58 12 93l39 220h124zM453 860l85 -106l-11 -34h-99l-57 47l-57 -47h-98l-11 34l84 106h164z" />
    <glyph glyph-name="wcircumflex" unicode="&#x175;" horiz-adv-x="752" 
d="M370 210l-8 -83l-25 -127h-236l-93 520h190l34 -198l5 -97h15l6 97l37 198h162l37 -198l6 -97h15l5 97l34 198h190l-93 -520h-236l-25 127l-8 83h-12zM458 720l85 -106l-11 -34h-99l-57 47l-57 -47h-98l-11 34l84 106h164z" />
    <glyph glyph-name="Ycircumflex" unicode="&#x176;" horiz-adv-x="562" 
d="M10 660h213l39 -145q4 -16 7.5 -44.5t4.5 -49.5l2 -21h10q4 80 14 115l41 145h211l-171 -475v-185h-200v185zM361 860l85 -106l-11 -34h-99l-57 47l-57 -47h-98l-11 34l84 106h164z" />
    <glyph glyph-name="ycircumflex" unicode="&#x177;" horiz-adv-x="536" 
d="M528 520l-152 -570q-22 -84 -65.5 -123t-122.5 -39q-32 0 -61 6t-43 12l-13 6l17 126l19 18q26 -4 46 -4q38 0 46 30l4 18h-38l-157 520h198l48 -170l11 -100h13l10 100l41 170h199zM355 720l85 -106l-11 -34h-99l-57 47l-57 -47h-98l-11 34l84 106h164z" />
    <glyph glyph-name="Ydieresis" unicode="&#x178;" horiz-adv-x="562" 
d="M10 660h213l39 -145q4 -16 7.5 -44.5t4.5 -49.5l2 -21h10q4 80 14 115l41 145h211l-171 -475v-185h-200v185zM98 802q0 32 23 55t56 23t56 -23t23 -55t-23 -55t-56 -23t-56 23t-23 55zM305 802q0 32 23 55t55 23q33 0 56.5 -23t23.5 -55t-23.5 -55t-56.5 -23
q-32 0 -55 23t-23 55z" />
    <glyph glyph-name="Zacute" unicode="&#x179;" horiz-adv-x="419" 
d="M30 496v164h374v-79l-132 -359q-5 -15 -12 -28t-12 -18l-4 -6v-6h160v-164h-389v79l131 356q6 16 13 29.5t11 19.5l4 6v6h-144zM379 860v-56l-115 -84h-111l-11 23l68 117h169z" />
    <glyph glyph-name="zacute" unicode="&#x17a;" horiz-adv-x="425" 
d="M410 520v-85l-132 -241l-21 -30l4 -5l34 5h115v-164h-395v110l114 209l25 34l-2 6l-35 -3h-97v164h390zM369 720v-56l-115 -84h-111l-11 23l68 117h169z" />
    <glyph glyph-name="Zdotaccent" unicode="&#x17b;" horiz-adv-x="419" 
d="M30 496v164h374v-79l-132 -359q-5 -15 -12 -28t-12 -18l-4 -6v-6h160v-164h-389v79l131 356q6 16 13 29.5t11 19.5l4 6v6h-144zM150 801q0 35 24.5 59.5t59.5 24.5t60 -24.5t25 -59.5t-25 -59.5t-60 -24.5t-59.5 24.5t-24.5 59.5z" />
    <glyph glyph-name="zdotaccent" unicode="&#x17c;" horiz-adv-x="425" 
d="M410 520v-85l-132 -241l-21 -30l4 -5l34 5h115v-164h-395v110l114 209l25 34l-2 6l-35 -3h-97v164h390zM138 661q0 35 24.5 59.5t59.5 24.5t60 -24.5t25 -59.5t-25 -59.5t-60 -24.5t-59.5 24.5t-24.5 59.5z" />
    <glyph glyph-name="Zcaron" unicode="&#x17d;" horiz-adv-x="419" 
d="M30 496v164h374v-79l-132 -359q-5 -15 -12 -28t-12 -18l-4 -6v-6h160v-164h-389v79l131 356q6 16 13 29.5t11 19.5l4 6v6h-144zM146 720l-85 106l11 34h98l58 -47l56 47h99l11 -34l-84 -106h-164z" />
    <glyph glyph-name="zcaron" unicode="&#x17e;" horiz-adv-x="425" 
d="M410 520v-85l-132 -241l-21 -30l4 -5l34 5h115v-164h-395v110l114 209l25 34l-2 6l-35 -3h-97v164h390zM142 580l-85 106l11 34h98l58 -47l56 47h99l11 -34l-84 -106h-164z" />
    <glyph glyph-name="florin" unicode="&#x192;" horiz-adv-x="408" 
d="M14 278v116h80l9 72q14 116 62 156t150 40q21 0 43 -2t34 -4l12 -3l-7 -153l-14 -6q-18 4 -35 4q-43 0 -46 -40l-6 -64h75v-116h-88l-28 -270q-12 -116 -62 -157t-152 -41q-20 0 -41.5 2t-33.5 4l-12 3l8 153l14 6q17 -4 34 -4q42 0 45 44l28 260h-69z" />
    <glyph glyph-name="AEacute" unicode="&#x1fc;" horiz-adv-x="664" 
d="M305 86h-78l-13 -86h-204l141 660h493v-164h-139v-88h109v-139h-109v-106h149v-163h-349v86zM263 310l-11 -70h53v225h-26q-9 -110 -16 -155zM532 860v-56l-115 -84h-111l-11 23l68 117h169z" />
    <glyph glyph-name="aeacute" unicode="&#x1fd;" horiz-adv-x="725" 
d="M702 215h-230v-15q0 -24 14.5 -36t58.5 -12q26 0 57.5 5t49.5 11l19 5l14 -8q6 -65 7 -140q-63 -37 -175 -37q-114 0 -175 57h-4q-66 -57 -156 -57q-74 0 -122 40t-48 112v20q0 69 43 106.5t113 42.5l104 7v14q0 20 -17 29t-67 9q-30 0 -60 -3.5t-45 -6.5l-15 -4l-18 12
q4 41 9.5 79.5t8.5 56.5l4 17q58 13 141 13q102 0 167 -35h2q55 35 114 35h23q191 0 191 -213v-17zM472 353v-40h60v52q0 33 -26 33q-14 0 -24 -11.5t-10 -33.5zM243 138q29 0 38 19q-6 27 -9 59l-30 -2q-30 -3 -30 -34v-7q0 -35 31 -35zM534 720v-56l-115 -84h-111l-11 23
l68 117h169z" />
    <glyph glyph-name="Oslashacute" unicode="&#x1fe;" horiz-adv-x="514" 
d="M422 860v-56l-115 -84h-111l-11 23l68 117h169zM246 672h16q72 0 120 -27l30 53l87 -50l-46 -79q38 -75 38 -217v-43q0 -165 -52.5 -243t-176.5 -78h-16q-68 0 -115 24l-30 -52l-86 50l43 74q-41 75 -41 225v43q0 165 52.5 242.5t176.5 77.5zM227 377l66 115
q-10 26 -39 26q-45 0 -45 -65v-114h5zM299 210v95h-5l-13 -34l-63 -109q10 -20 36 -20q45 0 45 68z" />
    <glyph glyph-name="oslashacute" unicode="&#x1ff;" horiz-adv-x="490" 
d="M408 720v-56l-115 -84h-111l-11 23l68 117h169zM236 532h18q52 0 94 -21l37 57l85 -53l-44 -68q49 -65 49 -166v-42q0 -116 -62.5 -183.5t-158.5 -67.5h-18q-49 0 -96 21l-36 -57l-84 53l43 67q-48 67 -48 167v42q0 116 62.5 183.5t158.5 67.5zM288 170v86h-4l-16 -36
l-55 -83q11 -10 32 -10q43 0 43 43zM222 301l54 82q-10 10 -31 10q-43 0 -43 -43v-85h4z" />
    <glyph glyph-name="Adblgrave" unicode="&#x200;" horiz-adv-x="560" 
d="M346 0l-13 86h-107l-12 -86h-204l140 660h260l140 -660h-204zM260 315l-11 -75h62l-11 75l-13 150h-14q-8 -115 -13 -150zM53 803v56h132l57 -117l-11 -23h-63zM237 803v56h132l56 -117l-10 -23h-63z" />
    <glyph glyph-name="adblgrave" unicode="&#x201;" horiz-adv-x="533" 
d="M72 519q58 13 141 13q138 0 198.5 -48.5t60.5 -151.5v-146q0 -25 22 -29l22 -4l8 -19l-23 -104q-4 -5 -12 -12t-36 -18.5t-59 -11.5q-69 0 -104 49h-8q-47 -49 -119 -49q-68 0 -109.5 42t-41.5 110v20q0 69 43 109t113 47l104 11v3q0 20 -17 29t-67 9q-30 0 -60 -3.5
t-45 -6.5l-15 -4l-18 12q4 41 9.5 79.5t8.5 56.5zM236 138q8 0 17 3t14 7l5 3v79l-37 -12q-23 -7 -23 -38v-14q0 -28 24 -28zM41 664v56h132l57 -117l-11 -23h-63zM225 664v56h132l56 -117l-10 -23h-63z" />
    <glyph glyph-name="Ainvertedbreve" unicode="&#x202;" horiz-adv-x="560" 
d="M346 0l-13 86h-107l-12 -86h-204l140 660h260l140 -660h-204zM260 315l-11 -75h62l-11 75l-13 150h-14q-8 -115 -13 -150zM235 717h-114q0 70 34.5 111.5t125.5 41.5q90 0 124.5 -41.5t34.5 -111.5h-116q0 6 -2.5 13.5t-13 16.5t-27.5 9q-18 0 -29.5 -9t-14 -17t-2.5 -13
z" />
    <glyph glyph-name="ainvertedbreve" unicode="&#x203;" horiz-adv-x="533" 
d="M72 519q58 13 141 13q138 0 198.5 -48.5t60.5 -151.5v-146q0 -25 22 -29l22 -4l8 -19l-23 -104q-4 -5 -12 -12t-36 -18.5t-59 -11.5q-69 0 -104 49h-8q-47 -49 -119 -49q-68 0 -109.5 42t-41.5 110v20q0 69 43 109t113 47l104 11v3q0 20 -17 29t-67 9q-30 0 -60 -3.5
t-45 -6.5l-15 -4l-18 12q4 41 9.5 79.5t8.5 56.5zM236 138q8 0 17 3t14 7l5 3v79l-37 -12q-23 -7 -23 -38v-14q0 -28 24 -28zM203 580h-114q0 70 34.5 111.5t125.5 41.5q90 0 124.5 -41.5t34.5 -111.5h-116q0 6 -2.5 13.5t-13 16.5t-27.5 9q-18 0 -29.5 -9t-14 -17t-2.5 -13
z" />
    <glyph glyph-name="Edblgrave" unicode="&#x204;" horiz-adv-x="389" 
d="M30 0v660h339v-164h-139v-88h109v-138h-109v-106h149v-164h-349zM-8 803v56h132l57 -117l-11 -23h-63zM176 803v56h132l56 -117l-10 -23h-63z" />
    <glyph glyph-name="edblgrave" unicode="&#x205;" horiz-adv-x="468" 
d="M444 210h-229v-10q0 -24 14.5 -36t58.5 -12q26 0 57.5 5t50.5 11l18 5l14 -8q6 -65 7 -140q-63 -37 -175 -37q-118 0 -181.5 63.5t-63.5 193.5v36q0 119 63 185t161 66h23q191 0 191 -213v-17q0 -16 -2.5 -39t-4.5 -38zM215 353v-45h60v57q0 33 -26 33q-14 0 -24 -11.5
t-10 -33.5zM34 664v56h132l57 -117l-11 -23h-63zM218 664v56h132l56 -117l-10 -23h-63z" />
    <glyph glyph-name="Einvertedbreve" unicode="&#x206;" horiz-adv-x="389" 
d="M30 0v660h339v-164h-139v-88h109v-138h-109v-106h149v-164h-349zM161 715h-114q0 70 34.5 111.5t125.5 41.5q90 0 124.5 -41.5t34.5 -111.5h-116q0 6 -2.5 13.5t-13 16.5t-27.5 9q-18 0 -29.5 -9t-14 -17t-2.5 -13z" />
    <glyph glyph-name="einvertedbreve" unicode="&#x207;" horiz-adv-x="468" 
d="M444 210h-229v-10q0 -24 14.5 -36t58.5 -12q26 0 57.5 5t50.5 11l18 5l14 -8q6 -65 7 -140q-63 -37 -175 -37q-118 0 -181.5 63.5t-63.5 193.5v36q0 119 63 185t161 66h23q191 0 191 -213v-17q0 -16 -2.5 -39t-4.5 -38zM215 353v-45h60v57q0 33 -26 33q-14 0 -24 -11.5
t-10 -33.5zM198 580h-114q0 70 34.5 111.5t125.5 41.5q90 0 124.5 -41.5t34.5 -111.5h-116q0 6 -2.5 13.5t-13 16.5t-27.5 9q-18 0 -29.5 -9t-14 -17t-2.5 -13z" />
    <glyph glyph-name="Idblgrave" unicode="&#x208;" horiz-adv-x="260" 
d="M30 0v660h200v-660h-200zM-105 803v56h132l57 -117l-11 -23h-63zM79 803v56h132l56 -117l-10 -23h-63z" />
    <glyph glyph-name="idblgrave" unicode="&#x209;" horiz-adv-x="253" 
d="M-91 664v56h132l57 -117l-11 -23h-63zM93 664v56h132l56 -117l-10 -23h-63zM226 0h-200v520h200v-520z" />
    <glyph glyph-name="Iinvertedbreve" unicode="&#x20a;" horiz-adv-x="260" 
d="M30 0v660h200v-660h-200zM85 719h-114q0 70 34.5 111.5t125.5 41.5q90 0 124.5 -41.5t34.5 -111.5h-116q0 6 -2.5 13.5t-13 16.5t-27.5 9q-18 0 -29.5 -9t-14 -17t-2.5 -13z" />
    <glyph glyph-name="iinvertedbreve" unicode="&#x20b;" horiz-adv-x="248" 
d="M224 0h-200v520h200v-520zM78 580h-114q0 70 34.5 111.5t125.5 41.5q90 0 124.5 -41.5t34.5 -111.5h-116q0 6 -2.5 13.5t-13 16.5t-27.5 9q-18 0 -29.5 -9t-14 -17t-2.5 -13z" />
    <glyph glyph-name="Odblgrave" unicode="&#x20c;" horiz-adv-x="514" 
d="M249 672h16q124 0 176.5 -77.5t52.5 -242.5v-43q0 -165 -52.5 -243t-176.5 -78h-16q-124 0 -176.5 78t-52.5 243v43q0 165 52.5 242.5t176.5 77.5zM292 220v223q0 65 -35 65t-35 -65v-223q0 -68 35 -68t35 68zM29 803v56h132l57 -117l-11 -23h-63zM213 803v56h132
l56 -117l-10 -23h-63z" />
    <glyph glyph-name="odblgrave" unicode="&#x20d;" horiz-adv-x="490" 
d="M236 532h18q96 0 158.5 -67.5t62.5 -183.5v-42q0 -116 -62.5 -183.5t-158.5 -67.5h-18q-96 0 -158.5 67.5t-62.5 183.5v42q0 116 62.5 183.5t158.5 67.5zM275 190v140q0 38 -30 38t-30 -38v-140q0 -38 30 -38t30 38zM35 664v56h132l57 -117l-11 -23h-63zM219 664v56h132
l56 -117l-10 -23h-63z" />
    <glyph glyph-name="Oinvertedbreve" unicode="&#x20e;" horiz-adv-x="514" 
d="M249 672h16q124 0 176.5 -77.5t52.5 -242.5v-43q0 -165 -52.5 -243t-176.5 -78h-16q-124 0 -176.5 78t-52.5 243v43q0 165 52.5 242.5t176.5 77.5zM292 220v223q0 65 -35 65t-35 -65v-223q0 -68 35 -68t35 68zM217 719h-114q0 70 34.5 111.5t125.5 41.5q90 0 124.5 -41.5
t34.5 -111.5h-116q0 6 -2.5 13.5t-13 16.5t-27.5 9q-18 0 -29.5 -9t-14 -17t-2.5 -13z" />
    <glyph glyph-name="oinvertedbreve" unicode="&#x20f;" horiz-adv-x="490" 
d="M236 532h18q96 0 158.5 -67.5t62.5 -183.5v-42q0 -116 -62.5 -183.5t-158.5 -67.5h-18q-96 0 -158.5 67.5t-62.5 183.5v42q0 116 62.5 183.5t158.5 67.5zM275 190v140q0 38 -30 38t-30 -38v-140q0 -38 30 -38t30 38zM200 580h-114q0 70 34.5 111.5t125.5 41.5
q90 0 124.5 -41.5t34.5 -111.5h-116q0 6 -2.5 13.5t-13 16.5t-27.5 9q-18 0 -29.5 -9t-14 -17t-2.5 -13z" />
    <glyph glyph-name="Rdblgrave" unicode="&#x210;" horiz-adv-x="535" 
d="M252 496h-22v-126h29q26 0 38.5 11t12.5 39v15q0 30 -11.5 45.5t-46.5 15.5zM520 0h-206l-53 210q-5 22 -23 22h-8v-232h-200v660h260q111 0 165.5 -53.5t54.5 -149.5v-17q0 -122 -81 -167v-5q19 -14 34 -64zM30 803v56h132l57 -117l-11 -23h-63zM214 803v56h132l56 -117
l-10 -23h-63z" />
    <glyph glyph-name="rdblgrave" unicode="&#x211;" horiz-adv-x="344" 
d="M224 0h-200v520h117l53 -56h2q13 20 24 32.5t35.5 24t56.5 11.5l28 -2l-13 -182l-22 -11q-19 6 -41 6q-12 0 -22 -2t-14 -4l-4 -2v-335zM-20 664v56h132l57 -117l-11 -23h-63zM164 664v56h132l56 -117l-10 -23h-63z" />
    <glyph glyph-name="Rinvertedbreve" unicode="&#x212;" horiz-adv-x="535" 
d="M252 496h-22v-126h29q26 0 38.5 11t12.5 39v15q0 30 -11.5 45.5t-46.5 15.5zM520 0h-206l-53 210q-5 22 -23 22h-8v-232h-200v660h260q111 0 165.5 -53.5t54.5 -149.5v-17q0 -122 -81 -167v-5q19 -14 34 -64zM201 719h-114q0 70 34.5 111.5t125.5 41.5q90 0 124.5 -41.5
t34.5 -111.5h-116q0 6 -2.5 13.5t-13 16.5t-27.5 9q-18 0 -29.5 -9t-14 -17t-2.5 -13z" />
    <glyph glyph-name="rinvertedbreve" unicode="&#x213;" horiz-adv-x="344" 
d="M224 0h-200v520h117l53 -56h2q13 20 24 32.5t35.5 24t56.5 11.5l28 -2l-13 -182l-22 -11q-19 6 -41 6q-12 0 -22 -2t-14 -4l-4 -2v-335zM135 580h-114q0 70 34.5 111.5t125.5 41.5q90 0 124.5 -41.5t34.5 -111.5h-116q0 6 -2.5 13.5t-13 16.5t-27.5 9q-18 0 -29.5 -9
t-14 -17t-2.5 -13z" />
    <glyph glyph-name="Udblgrave" unicode="&#x214;" horiz-adv-x="530" 
d="M300 660h200v-426q0 -246 -225 -246h-20q-225 0 -225 246v426h200v-460q0 -48 35 -48t35 48v460zM36 804v56h132l57 -117l-11 -23h-63zM220 804v56h132l56 -117l-10 -23h-63z" />
    <glyph glyph-name="udblgrave" unicode="&#x215;" horiz-adv-x="545" 
d="M24 520h200v-340q0 -28 27 -28q8 0 16.5 2.5t12.5 5.5l4 2v358h200v-334q0 -25 22 -29l22 -4l8 -19l-22 -103q-4 -5 -12 -12t-36 -19t-60 -12q-70 0 -104 49h-8q-53 -49 -123 -49q-67 0 -107 42t-40 133v357zM44 664v56h132l57 -117l-11 -23h-63zM228 664v56h132l56 -117
l-10 -23h-63z" />
    <glyph glyph-name="Uinvertedbreve" unicode="&#x216;" horiz-adv-x="530" 
d="M300 660h200v-426q0 -246 -225 -246h-20q-225 0 -225 246v426h200v-460q0 -48 35 -48t35 48v460zM219 719h-114q0 70 34.5 111.5t125.5 41.5q90 0 124.5 -41.5t34.5 -111.5h-116q0 6 -2.5 13.5t-13 16.5t-27.5 9q-18 0 -29.5 -9t-14 -17t-2.5 -13z" />
    <glyph glyph-name="uinvertedbreve" unicode="&#x217;" horiz-adv-x="545" 
d="M24 520h200v-340q0 -28 27 -28q8 0 16.5 2.5t12.5 5.5l4 2v358h200v-334q0 -25 22 -29l22 -4l8 -19l-22 -103q-4 -5 -12 -12t-36 -19t-60 -12q-70 0 -104 49h-8q-53 -49 -123 -49q-67 0 -107 42t-40 133v357zM210 580h-114q0 70 34.5 111.5t125.5 41.5q90 0 124.5 -41.5
t34.5 -111.5h-116q0 6 -2.5 13.5t-13 16.5t-27.5 9q-18 0 -29.5 -9t-14 -17t-2.5 -13z" />
    <glyph glyph-name="Scommaaccent" unicode="&#x218;" horiz-adv-x="460" 
d="M38 9q-4 37 -5 75t0 57l1 19l16 9q59 -17 118 -17q77 0 77 48q0 26 -31 39l-83 33q-116 47 -116 179q0 221 248 221q36 0 71.5 -5t52.5 -10l17 -5q0 -30 -2 -67.5t-4 -60.5l-3 -22l-17 -8q-48 14 -90 14q-43 0 -58 -12t-15 -33q0 -20 27 -32l85 -36q118 -49 118 -180
q0 -227 -237 -227q-46 0 -88.5 5.5t-61.5 10.5zM140 -140q0 42 28 68.5t71 26.5q42 0 70.5 -26.5t28.5 -68.5q0 -33 -13.5 -60t-43.5 -66l-72 -92h-56v20l42 110v3q-55 25 -55 85z" />
    <glyph glyph-name="scommaaccent" unicode="&#x219;" horiz-adv-x="463" 
d="M43 8l-10 152l17 8q78 -16 140 -16q59 0 59 18q0 9 -13 11l-65 10q-81 13 -118.5 50.5t-37.5 103.5q0 89 59.5 138t180.5 49q38 0 78 -5t61 -10t21 -6l-13 -150l-17 -9q-69 16 -121 16q-49 0 -49 -16q0 -9 10 -10l61 -10q87 -14 124.5 -49.5t37.5 -102.5q0 -94 -54 -143
t-174 -49q-49 0 -93.5 5t-64.5 10zM136 -156q0 47 31.5 76.5t78.5 29.5t78.5 -29.5t31.5 -76.5q0 -36 -15 -67t-48 -73l-80 -102h-63v22l47 122v4q-61 28 -61 94z" />
    <glyph glyph-name="circumflex" unicode="&#x2c6;" horiz-adv-x="833" 
d="M482 720l85 -106l-11 -34h-99l-57 47l-57 -47h-98l-11 34l84 106h164z" />
    <glyph glyph-name="caron" unicode="&#x2c7;" horiz-adv-x="833" 
d="M319 580l-85 106l11 34h98l58 -47l56 47h99l11 -34l-84 -106h-164z" />
    <glyph glyph-name="breve" unicode="&#x2d8;" horiz-adv-x="406" 
d="M247 719h116q0 -70 -35 -111.5t-126 -41.5q-90 0 -124 41.5t-34 111.5h114q0 -5 2.5 -12.5t13.5 -16.5t28 -9q18 0 29 9t13.5 16.5t2.5 12.5z" />
    <glyph glyph-name="dotaccent" unicode="&#x2d9;" horiz-adv-x="230" 
d="M31 656q0 35 24.5 59.5t59.5 24.5t60 -24.5t25 -59.5t-25 -59.5t-60 -24.5t-59.5 24.5t-24.5 59.5z" />
    <glyph glyph-name="ring" unicode="&#x2da;" horiz-adv-x="270" 
d="M4 664q0 48 34 77t97 29q64 0 98 -29t34 -77t-34 -77t-98 -29q-63 0 -97 29t-34 77zM104 664q0 -26 31 -26q32 0 32 26t-32 26q-31 0 -31 -26z" />
    <glyph glyph-name="ogonek" unicode="&#x2db;" horiz-adv-x="306" 
d="M224 -119l8 -81q-29 -12 -77 -12q-121 0 -121 83q0 72 82 129h88q-43 -73 -43 -96q0 -25 34 -25z" />
    <glyph glyph-name="tilde" unicode="&#x2dc;" horiz-adv-x="476" 
d="M350 745l81 -24q-18 -145 -122 -145q-32 0 -75.5 23.5t-56.5 23.5q-33 0 -51 -47l-81 24q18 145 131 145q32 0 75.5 -23.5t55.5 -23.5q13 0 22.5 10t20.5 37z" />
    <glyph glyph-name="hungarumlaut" unicode="&#x2dd;" horiz-adv-x="470" 
d="M463 720v-56l-115 -84h-63l-11 23l57 117h132zM277 720v-56l-115 -84h-63l-11 23l57 117h132z" />
    <glyph glyph-name="invertedbreve" unicode="&#x311;" horiz-adv-x="406" 
d="M158 580h-114q0 70 34.5 111.5t125.5 41.5q90 0 124.5 -41.5t34.5 -111.5h-116q0 6 -2.5 13.5t-13 16.5t-27.5 9q-18 0 -29.5 -9t-14 -17t-2.5 -13z" />
    <glyph glyph-name="pi" unicode="&#x3c0;" horiz-adv-x="666" 
d="M363 170v186h-70v-356h-200v356h-83v164h636v-164h-83v-154q0 -50 41 -50l23 3l19 -15v-128q-39 -24 -109 -24q-174 0 -174 182z" />
    <glyph glyph-name="bahtthai" unicode="&#xe3f;" horiz-adv-x="525" 
d="M257 256h-27v-108h35q35 0 35 43v20q0 45 -43 45zM255 502h-25v-110h29q31 0 31 46v20q0 44 -35 44zM30 0v650h131v90h140v-91q91 -4 137.5 -48t46.5 -124v-8q0 -104 -85 -131v-4q100 -28 100 -153v-8q0 -73 -39.5 -123t-127.5 -50h-32v-100h-140v100h-131z" />
    <glyph glyph-name="Wgrave" unicode="&#x1e80;" horiz-adv-x="742" 
d="M433 640l39 -220l12 -93h12l3 113l31 220h202l-103 -660h-211l-23 128l-19 143h-10q-10 -95 -19 -143l-23 -128h-211l-103 660h202l31 -220l3 -113h12q6 58 12 93l39 220h124zM212 804v56h168l69 -117l-11 -23h-111z" />
    <glyph glyph-name="wgrave" unicode="&#x1e81;" horiz-adv-x="752" 
d="M370 210l-8 -83l-25 -127h-236l-93 520h190l34 -198l5 -97h15l6 97l37 198h162l37 -198l6 -97h15l5 97l34 198h190l-93 -520h-236l-25 127l-8 83h-12zM212 664v56h168l69 -117l-11 -23h-111z" />
    <glyph glyph-name="Wacute" unicode="&#x1e82;" horiz-adv-x="742" 
d="M433 640l39 -220l12 -93h12l3 113l31 220h202l-103 -660h-211l-23 128l-19 143h-10q-10 -95 -19 -143l-23 -128h-211l-103 660h202l31 -220l3 -113h12q6 58 12 93l39 220h124zM530 860v-56l-115 -84h-111l-11 23l68 117h169z" />
    <glyph glyph-name="wacute" unicode="&#x1e83;" horiz-adv-x="752" 
d="M370 210l-8 -83l-25 -127h-236l-93 520h190l34 -198l5 -97h15l6 97l37 198h162l37 -198l6 -97h15l5 97l34 198h190l-93 -520h-236l-25 127l-8 83h-12zM542 720v-56l-115 -84h-111l-11 23l68 117h169z" />
    <glyph glyph-name="Wdieresis" unicode="&#x1e84;" horiz-adv-x="742" 
d="M433 640l39 -220l12 -93h12l3 113l31 220h202l-103 -660h-211l-23 128l-19 143h-10q-10 -95 -19 -143l-23 -128h-211l-103 660h202l31 -220l3 -113h12q6 58 12 93l39 220h124zM187 800q0 32 23 55t56 23t56 -23t23 -55t-23 -55t-56 -23t-56 23t-23 55zM394 800
q0 32 23 55t55 23q33 0 56.5 -23t23.5 -55t-23.5 -55t-56.5 -23q-32 0 -55 23t-23 55z" />
    <glyph glyph-name="wdieresis" unicode="&#x1e85;" horiz-adv-x="752" 
d="M370 210l-8 -83l-25 -127h-236l-93 520h190l34 -198l5 -97h15l6 97l37 198h162l37 -198l6 -97h15l5 97l34 198h190l-93 -520h-236l-25 127l-8 83h-12zM194 660q0 32 23 55t56 23t56 -23t23 -55t-23 -55t-56 -23t-56 23t-23 55zM401 660q0 32 23 55t55 23q33 0 56.5 -23
t23.5 -55t-23.5 -55t-56.5 -23q-32 0 -55 23t-23 55z" />
    <glyph glyph-name="Ygrave" unicode="&#x1ef2;" horiz-adv-x="562" 
d="M10 660h213l39 -145q4 -16 7.5 -44.5t4.5 -49.5l2 -21h10q4 80 14 115l41 145h211l-171 -475v-185h-200v185zM111 804v56h168l69 -117l-11 -23h-111z" />
    <glyph glyph-name="ygrave" unicode="&#x1ef3;" horiz-adv-x="536" 
d="M528 520l-152 -570q-22 -84 -65.5 -123t-122.5 -39q-32 0 -61 6t-43 12l-13 6l17 126l19 18q26 -4 46 -4q38 0 46 30l4 18h-38l-157 520h198l48 -170l11 -100h13l10 100l41 170h199zM93 664v56h168l69 -117l-11 -23h-111z" />
    <glyph glyph-name="endash" unicode="&#x2013;" 
d="M450 231h-400v140h400v-140z" />
    <glyph glyph-name="emdash" unicode="&#x2014;" horiz-adv-x="740" 
d="M695 231h-650v140h650v-140z" />
    <glyph glyph-name="quoteleft" unicode="&#x2018;" horiz-adv-x="300" 
d="M260 458q0 -47 -31.5 -76.5t-78.5 -29.5t-78.5 29.5t-31.5 76.5q0 36 15 67t48 73l80 102h63v-22l-47 -122v-4q61 -28 61 -94z" />
    <glyph glyph-name="quoteright" unicode="&#x2019;" horiz-adv-x="300" 
d="M40 594q0 47 31.5 76.5t78.5 29.5t78.5 -29.5t31.5 -76.5q0 -36 -15 -67t-48 -73l-80 -102h-63v22l47 122v4q-61 28 -61 94z" />
    <glyph glyph-name="quotesinglbase" unicode="&#x201a;" horiz-adv-x="300" 
d="M40 96q0 47 31.5 76.5t78.5 29.5t78.5 -29.5t31.5 -76.5q0 -36 -15 -67t-48 -73l-80 -102h-63v22l47 122v4q-61 28 -61 94z" />
    <glyph glyph-name="quotedblleft" unicode="&#x201c;" horiz-adv-x="560" 
d="M520 458q0 -47 -31.5 -76.5t-78.5 -29.5t-78.5 29.5t-31.5 76.5q0 36 15 67t48 73l80 102h63v-22l-47 -122v-4q61 -28 61 -94zM260 458q0 -47 -31.5 -76.5t-78.5 -29.5t-78.5 29.5t-31.5 76.5q0 36 15 67t48 73l80 102h63v-22l-47 -122v-4q61 -28 61 -94z" />
    <glyph glyph-name="quotedblright" unicode="&#x201d;" horiz-adv-x="560" 
d="M40 594q0 47 31.5 76.5t78.5 29.5t78.5 -29.5t31.5 -76.5q0 -36 -15 -67t-48 -73l-80 -102h-63v22l47 122v4q-61 28 -61 94zM300 594q0 47 31.5 76.5t78.5 29.5t78.5 -29.5t31.5 -76.5q0 -36 -15 -67t-48 -73l-80 -102h-63v22l47 122v4q-61 28 -61 94z" />
    <glyph glyph-name="quotedblbase" unicode="&#x201e;" horiz-adv-x="560" 
d="M40 96q0 47 31.5 76.5t78.5 29.5t78.5 -29.5t31.5 -76.5q0 -36 -15 -67t-48 -73l-80 -102h-63v22l47 122v4q-61 28 -61 94zM300 96q0 47 31.5 76.5t78.5 29.5t78.5 -29.5t31.5 -76.5q0 -36 -15 -67t-48 -73l-80 -102h-63v22l47 122v4q-61 28 -61 94z" />
    <glyph glyph-name="dagger" unicode="&#x2020;" horiz-adv-x="522" 
d="M489 444v-58q0 -30 -9 -40.5t-36 -10.5h-58l-80 35l-1 -1l24 -66v-105l-22 -248h-90l-24 248v105l24 66l-1 1l-79 -35h-58q-26 0 -36 11.5t-10 39.5v58q0 30 9.5 41t36.5 11h58l79 -37l1 1l-36 103v51q0 27 12 36.5t40 9.5h55q30 0 41.5 -9t11.5 -37v-51l-36 -103l1 -1
l80 37h58q27 0 36 -12t9 -40z" />
    <glyph glyph-name="daggerdbl" unicode="&#x2021;" horiz-adv-x="523" 
d="M193 322l23 55l-1 2l-70 -35h-70q-23 0 -32.5 12.5t-9.5 38.5v59q0 20 1.5 28.5t11 16t29.5 7.5h70l70 -36l1 1l-35 104v43q0 24 12.5 33t39.5 9h55q27 0 40 -7.5t13 -34.5v-43l-36 -104l2 -1l71 36h70q23 0 32 -12.5t9 -39.5v-59q0 -19 -1 -27t-10.5 -16t-29.5 -8h-70
l-71 35l-2 -2l24 -55v-34l-24 -57l2 -1l71 36h70q23 0 32 -12.5t9 -39.5v-59q0 -19 -1 -27t-10.5 -16t-29.5 -8h-70l-71 35l-2 -2l36 -102v-42q0 -25 -12.5 -34t-39.5 -9h-55q-28 0 -40.5 8.5t-12.5 34.5v42l35 102l-1 2l-70 -35h-70q-23 0 -32.5 12.5t-9.5 38.5v59
q0 20 1.5 28.5t11 16t29.5 7.5h70l70 -36l1 1l-23 57v34z" />
    <glyph glyph-name="bullet" unicode="&#x2022;" horiz-adv-x="398" 
d="M354 330q0 -66 -44.5 -107.5t-110.5 -41.5t-110.5 41.5t-44.5 107.5t44.5 107.5t110.5 41.5t110.5 -41.5t44.5 -107.5z" />
    <glyph glyph-name="ellipsis" unicode="&#x2026;" horiz-adv-x="940" 
d="M290 96q0 -47 -31.5 -76.5t-78.5 -29.5t-78.5 29.5t-31.5 76.5t31.5 76.5t78.5 29.5t78.5 -29.5t31.5 -76.5zM580 96q0 -47 -31.5 -76.5t-78.5 -29.5t-78.5 29.5t-31.5 76.5t31.5 76.5t78.5 29.5t78.5 -29.5t31.5 -76.5zM870 96q0 -47 -31.5 -76.5t-78.5 -29.5
t-78.5 29.5t-31.5 76.5t31.5 76.5t78.5 29.5t78.5 -29.5t31.5 -76.5z" />
    <glyph glyph-name="perthousand" unicode="&#x2030;" horiz-adv-x="1178" 
d="M179 650h26q54 0 99 -38.5t45 -112.5v-41q0 -73 -45 -111.5t-99 -38.5h-26q-54 0 -99 38.5t-45 111.5v41q0 74 45 112.5t99 38.5zM212 428v102q0 20 -20 20t-20 -20v-102q0 -20 20 -20t20 20zM151 -12l407 671h131l-407 -671h-131zM629 330h26q54 0 99 -38.5t45 -112.5
v-41q0 -73 -45 -111.5t-99 -38.5h-26q-54 0 -99 38.5t-45 111.5v41q0 74 45 112.5t99 38.5zM662 108v102q0 20 -20 20t-20 -20v-102q0 -20 20 -20t20 20zM973 330h26q54 0 99 -38.5t45 -112.5v-41q0 -73 -45 -111.5t-99 -38.5h-26q-54 0 -99 38.5t-45 111.5v41
q0 74 45 112.5t99 38.5zM1006 108v102q0 20 -20 20t-20 -20v-102q0 -20 20 -20t20 20z" />
    <glyph glyph-name="guilsinglleft" unicode="&#x2039;" horiz-adv-x="308" 
d="M137 0l-107 220l107 220h131l-59 -220l59 -220h-131z" />
    <glyph glyph-name="guilsinglright" unicode="&#x203a;" horiz-adv-x="308" 
d="M278 220l-106 -220h-132l60 220l-60 220h132z" />
    <glyph glyph-name="fraction" unicode="&#x2044;" horiz-adv-x="549" 
d="M3 -12l412 684h131l-412 -684h-131z" />
    <glyph glyph-name="zerosuperior" unicode="&#x2070;" horiz-adv-x="356" 
d="M172 824h12q70 0 111 -44.5t41 -135.5v-50q0 -91 -41 -135.5t-111 -44.5h-12q-70 0 -111 44.5t-41 135.5v50q0 91 41 135.5t111 44.5zM198 565v107q0 37 -20 37t-20 -37v-107q0 -36 20 -36t20 36z" />
    <glyph glyph-name="foursuperior" unicode="&#x2074;" horiz-adv-x="330" 
d="M10 586l87 230h136l-87 -232h32l32 86h75v-86h39v-115h-39v-49h-138v49h-137v117z" />
    <glyph glyph-name="fivesuperior" unicode="&#x2075;" horiz-adv-x="299" 
d="M283 564v-20q0 -65 -37 -97.5t-100 -32.5q-34 0 -65 6t-45 12l-13 6q2 42 7 88l8 4q37 -12 65 -12q42 0 42 33v2q0 29 -31 29q-8 0 -16 -2t-12 -4l-4 -2l-60 12l12 232h225v-115h-104l-1 -38l3 -1q17 6 33 6q44 0 68.5 -27.5t24.5 -78.5z" />
    <glyph glyph-name="sixsuperior" unicode="&#x2076;" horiz-adv-x="350" 
d="M229 709q-38 0 -56 -10.5t-22 -38.5l2 -2q31 18 73 18q46 0 74.5 -31t28.5 -80v-12q0 -64 -41.5 -101.5t-112.5 -37.5t-113 45t-42 129v27q0 103 50.5 156t144.5 53q20 0 41.5 -3.5t32.5 -6.5l11 -4l-10 -104l-7 -4q-32 7 -54 7zM175 579l-27 -5v-20q0 -35 28 -35
q25 0 25 26v9q0 25 -26 25z" />
    <glyph glyph-name="sevensuperior" unicode="&#x2077;" horiz-adv-x="285" 
d="M6 701v115h273v-112l-105 -284h-149l107 267v14h-126z" />
    <glyph glyph-name="eightsuperior" unicode="&#x2078;" horiz-adv-x="362" 
d="M19 530q0 52 38 82v4q-36 31 -36 83q0 60 43.5 92.5t116.5 32.5q71 0 114.5 -30.5t43.5 -81.5q0 -53 -40 -79v-3q44 -33 44 -86q0 -130 -162 -130q-74 0 -118 29t-44 87zM188 560l-34 11q-8 -17 -8 -31q0 -31 35 -31q36 0 36 25q0 16 -29 26zM149 704q0 -15 20 -21
l33 -11q11 16 11 31q0 26 -32 26t-32 -25z" />
    <glyph glyph-name="ninesuperior" unicode="&#x2079;" horiz-adv-x="350" 
d="M120 529q38 0 57 11t21 38l-2 2q-31 -18 -70 -18q-48 0 -77 31t-29 80v12q0 64 41.5 101.5t112.5 37.5q74 0 114.5 -44.5t40.5 -129.5v-27q0 -107 -48 -158t-145 -51q-20 0 -42 3.5t-34 6.5l-11 4l10 104l7 4q32 -7 54 -7zM174 659l27 5v20q0 35 -26 35q-12 0 -19.5 -7.5
t-7.5 -20.5v-6q0 -26 26 -26z" />
    <glyph glyph-name="parenleftsuperior" unicode="&#x207d;" horiz-adv-x="186" 
d="M130 600q0 -100 44 -216h-83q-27 33 -51.5 89.5t-24.5 126.5q0 122 76 234h83q-44 -115 -44 -234z" />
    <glyph glyph-name="parenrightsuperior" unicode="&#x207e;" horiz-adv-x="186" 
d="M56 600q0 119 -44 234h83q76 -112 76 -234q0 -70 -24.5 -126.5t-51.5 -89.5h-83q44 116 44 216z" />
    <glyph glyph-name="zeroinferior" unicode="&#x2080;" horiz-adv-x="356" 
d="M172 324h12q70 0 111 -44.5t41 -135.5v-50q0 -91 -41 -135.5t-111 -44.5h-12q-70 0 -111 44.5t-41 135.5v50q0 91 41 135.5t111 44.5zM198 65v107q0 37 -20 37t-20 -37v-107q0 -36 20 -36t20 36z" />
    <glyph glyph-name="oneinferior" unicode="&#x2081;" horiz-adv-x="236" 
d="M16 166v74l110 78h88v-398h-138v246h-60z" />
    <glyph glyph-name="twoinferior" unicode="&#x2082;" horiz-adv-x="320" 
d="M298 190q0 -41 -14 -67t-41 -51l-38 -34v-3h88v-115h-273v71q0 31 15 54t53 58l46 42q26 25 26 40q0 24 -40 24q-15 0 -33.5 -3.5t-30.5 -7.5l-11 -3l-9 4q-7 71 -9 100q0 1 16.5 7t48 12t60.5 6q68 0 107 -36t39 -98z" />
    <glyph glyph-name="threeinferior" unicode="&#x2083;" horiz-adv-x="296" 
d="M286 48q0 -134 -161 -134q-28 0 -56.5 5t-42.5 9l-15 5l9 99l8 4q55 -7 77 -7q43 0 43 26q0 22 -38 22h-61v90h68q28 0 28 21q0 22 -39 22q-15 0 -33 -2.5t-29 -5.5l-11 -2l-8 4q-6 63 -9 100q54 20 116 20q71 0 106 -31.5t35 -78.5t-30 -72v-2q43 -33 43 -92z" />
    <glyph glyph-name="fourinferior" unicode="&#x2084;" horiz-adv-x="330" 
d="M10 86l87 230h136l-87 -232h32l32 86h75v-86h39v-115h-39v-49h-138v49h-137v117z" />
    <glyph glyph-name="fiveinferior" unicode="&#x2085;" horiz-adv-x="299" 
d="M283 64v-20q0 -65 -37 -97.5t-100 -32.5q-34 0 -65 6t-45 12l-13 6q2 42 7 88l8 4q37 -12 65 -12q42 0 42 33v2q0 29 -31 29q-8 0 -16 -2t-12 -4l-4 -2l-60 12l12 232h225v-115h-104l-1 -38l3 -1q17 6 33 6q44 0 68.5 -27.5t24.5 -78.5z" />
    <glyph glyph-name="sixinferior" unicode="&#x2086;" horiz-adv-x="350" 
d="M229 209q-38 0 -56 -10.5t-22 -38.5l2 -2q31 18 73 18q46 0 74.5 -31t28.5 -80v-12q0 -64 -41.5 -101.5t-112.5 -37.5t-113 45t-42 129v27q0 103 50.5 156t144.5 53q20 0 41.5 -3.5t32.5 -6.5l11 -4l-10 -104l-7 -4q-32 7 -54 7zM175 79l-27 -5v-20q0 -35 28 -35
q25 0 25 26v9q0 25 -26 25z" />
    <glyph glyph-name="seveninferior" unicode="&#x2087;" horiz-adv-x="285" 
d="M6 201v115h273v-112l-105 -284h-149l107 267v14h-126z" />
    <glyph glyph-name="eightinferior" unicode="&#x2088;" horiz-adv-x="362" 
d="M19 30q0 52 38 82v4q-36 31 -36 83q0 60 43.5 92.5t116.5 32.5q71 0 114.5 -30.5t43.5 -81.5q0 -53 -40 -79v-3q44 -33 44 -86q0 -130 -162 -130q-74 0 -118 29t-44 87zM188 60l-34 11q-8 -17 -8 -31q0 -31 35 -31q36 0 36 25q0 16 -29 26zM149 204q0 -15 20 -21l33 -11
q11 16 11 31q0 26 -32 26t-32 -25z" />
    <glyph glyph-name="nineinferior" unicode="&#x2089;" horiz-adv-x="350" 
d="M120 29q38 0 57 11t21 38l-2 2q-31 -18 -70 -18q-48 0 -77 31t-29 80v12q0 64 41.5 101.5t112.5 37.5q74 0 114.5 -44.5t40.5 -129.5v-27q0 -107 -48 -158t-145 -51q-20 0 -42 3.5t-34 6.5l-11 4l10 104l7 4q32 -7 54 -7zM174 159l27 5v20q0 35 -26 35q-12 0 -19.5 -7.5
t-7.5 -20.5v-6q0 -26 26 -26z" />
    <glyph glyph-name="parenleftinferior" unicode="&#x208d;" horiz-adv-x="186" 
d="M130 100q0 -100 44 -216h-83q-27 33 -51.5 89.5t-24.5 126.5q0 122 76 234h83q-44 -115 -44 -234z" />
    <glyph glyph-name="parenrightinferior" unicode="&#x208e;" horiz-adv-x="186" 
d="M56 100q0 119 -44 234h83q76 -112 76 -234q0 -70 -24.5 -126.5t-51.5 -89.5h-83q44 116 44 216z" />
    <glyph glyph-name="colonmonetary" unicode="&#x20a1;" horiz-adv-x="588" 
d="M184 -86q14 73 15 83q-78 22 -126 97t-48 189v49q0 158 73.5 237.5t225.5 80.5q3 15 8 45t8 45l100 -19l-14 -80l42 -9l16 81l99 -18q-66 -352 -100 -527l27 7l13 -7q6 -68 11 -147q-39 -14 -82 -21l-26 -132q-16 3 -49 9t-50 10l19 101h-46l-17 -94zM358 151l19 1
l60 322q-17 6 -41 8l-64 -329q11 -2 26 -2zM225 359v-91q0 -24 2.5 -43t4.5 -27l3 -7l6 1q2 30 7 55l42 236q-65 -16 -65 -124z" />
    <glyph glyph-name="cruzeiro" unicode="&#x20a2;" horiz-adv-x="533" 
d="M517 25l-8 -3q-8 -4 -24.5 -9.5t-37 -11t-49.5 -9.5t-58 -4q-52 0 -95.5 8.5t-84 30t-69 55.5t-45 87t-16.5 121v35q0 171 80.5 248t239.5 77q37 0 77 -5.5t61 -10.5l21 -6l-24 -150l-13 -6q-58 14 -102 14q-78 0 -109 -37.5t-31 -125.5v-21q0 -67 13.5 -101.5
t46.5 -43.5v223h98l32 -36h2q25 46 74 46l22 -2l-10 -141l-18 -9q-2 1 -4.5 2t-12.5 2.5t-20 0.5v-82l31 12l13 -7q13 -76 20 -141z" />
    <glyph glyph-name="franc" unicode="&#x20a3;" horiz-adv-x="434" 
d="M20 95v116h55v439h339v-164h-139v-77h109v-150h-109v-48h60v-116h-60v-95h-200v95h-55z" />
    <glyph glyph-name="naira" unicode="&#x20a6;" horiz-adv-x="674" 
d="M383 0l-79 192q-8 19 -17 54t-15 60l-5 25l-8 -1l15 -155v-175h-199v166h-60v116h60v75h-60v116h60v177h216l76 -187q9 -22 19 -58.5t16 -62.5l6 -25l8 1l-16 157v175h199v-177h60v-116h-60v-75h60v-116h-60v-166h-216z" />
    <glyph glyph-name="peseta" unicode="&#x20a7;" horiz-adv-x="580" 
d="M10 320v116h50v214h246q107 0 160.5 -51.5t53.5 -162.5h50v-116h-50q-4 -188 -176 -188h-84v-132h-200v320h-50zM260 264h20q38 0 40 56h-60v-56zM274 492h-14v-56h60q-2 56 -46 56z" />
    <glyph glyph-name="rupee" unicode="&#x20a8;" horiz-adv-x="621" 
d="M30 344l33 116h207q-2 52 -57 52h-182l39 138h520l-34 -116h-97q-1 -1 -1 -2q12 -39 12 -72h121l-34 -116h-90q-14 -86 -78 -125v-4q30 -17 49 -65l60 -150h-211l-54 121q-14 31 -48 31h-118v138h151q46 0 51 54h-239z" />
    <glyph glyph-name="won" unicode="&#x20a9;" horiz-adv-x="818" 
d="M471 630l39 -216l12 -92h12l3 111l31 217h202l-28 -177h58v-116h-76l-12 -75h88v-116h-107l-26 -166h-211l-23 126l-19 141h-10q-10 -94 -19 -141l-23 -126h-211l-26 166h-107v116h88l-12 75h-76v116h58l-28 177h202l31 -217l3 -111h12q6 57 12 92l39 216h124z" />
    <glyph glyph-name="sheqel" unicode="&#x20aa;" horiz-adv-x="880" 
d="M620 199h-160v101q0 34 -12.5 45t-42.5 11h-185v-356h-200v520h426q89 0 131.5 -36t42.5 -130v-155zM660 520h200v-354q0 -93 -44 -129.5t-134 -36.5h-422v321h160v-157h189q29 0 40 12.5t11 43.5v300z" />
    <glyph glyph-name="Euro" unicode="&#x20ac;" horiz-adv-x="510" 
d="M8 332l46 116h35q41 202 276 202q32 0 63 -4t46 -8l16 -3l-21 -148l-12 -6q-37 7 -73 7q-43 0 -61.5 -10t-26.5 -30h167q-3 -18 -8.5 -57t-8.5 -59h-164v-30h160l-17 -116h-130q9 -36 87 -36q13 0 31 3t29 6l11 3l12 -6q13 -81 20 -147q-64 -21 -145 -21
q-110 0 -173.5 46t-80.5 152h-78l46 116h26v30h-72z" />
    <glyph glyph-name="litre" unicode="&#x2113;" horiz-adv-x="481" 
d="M284 -12q-197 0 -221 187l-2 1l-34 -7l-27 109l63 22v175q0 96 51.5 146.5t148.5 50.5q193 0 193 -199q0 -53 -7.5 -90t-29 -71t-64 -57.5t-107.5 -37.5q0 -35 15.5 -50t53.5 -15q15 0 35.5 3t33.5 6l14 3l13 -6v-144q-50 -26 -129 -26zM248 489v-121l2 -1q48 21 48 76
v46q0 31 -25 31t-25 -31z" />
    <glyph glyph-name="trademark" unicode="&#x2122;" horiz-adv-x="577" 
d="M20 581v79h190v-79h-44v-251h-102v251h-44zM425 660h132v-330h-102v86l4 68l-10 1l-7 -45l-25 -102h-40l-24 102l-6 45l-11 -1l3 -68v-86h-102v330h132l11 -50l15 -75h4q10 54 15 75z" />
    <glyph glyph-name="Omega" unicode="&#x2126;" horiz-adv-x="550" 
d="M298 0v240q27 17 27 60v152q0 57 -50 57t-50 -57v-152q0 -19 6.5 -34t13.5 -20l7 -6v-240h-226v164h98v20q-99 40 -99 203v22q0 132 58 197.5t182 65.5h20q124 0 182 -65.5t58 -197.5v-22q0 -162 -99 -203v-20h98v-164h-226z" />
    <glyph glyph-name="estimated" unicode="&#x212e;" horiz-adv-x="855" 
d="M671 343v188q0 13 -10 23q-97 97 -232 97q-137 0 -234 -100q-9 -11 -9 -24v-184q0 -5 5 -5h475q5 0 5 5zM810 319h-619q-5 0 -5 -4v-187q0 -12 8 -22q95 -101 235 -101q149 0 246 113h56q-52 -62 -132 -98t-171 -36q-159 0 -271 100.5t-112 243.5q0 142 112.5 243
t270.5 101t270 -100.5t112 -243.5v-9z" />
    <glyph glyph-name="onethird" unicode="&#x2153;" horiz-adv-x="771" 
d="M94 -12l412 684h131l-412 -684h-131zM16 508v74l110 78h88v-398h-138v246h-60zM762 128q0 -134 -161 -134q-28 0 -56.5 4.5t-42.5 9.5l-15 5l9 99l8 4q55 -7 77 -7q43 0 43 26q0 22 -38 22h-61v90h68q28 0 28 21q0 22 -39 22q-15 0 -33 -2.5t-29 -5.5l-11 -2l-8 4
q-6 63 -9 100q54 20 116 20q71 0 106 -31.5t35 -78.5t-30 -72v-2q43 -33 43 -92z" />
    <glyph glyph-name="twothirds" unicode="&#x2154;" horiz-adv-x="830" 
d="M151 -12l412 684h131l-412 -684h-131zM298 532q0 -41 -14 -67t-41 -51l-38 -34v-3h88v-115h-273v71q0 31 15 54t53 58l46 42q26 25 26 40q0 24 -40 24q-15 0 -33.5 -3.5t-30.5 -7.5l-11 -3l-9 4q-7 71 -9 100q0 1 16.5 7t48 12t60.5 6q68 0 107 -36t39 -98zM820 128
q0 -134 -161 -134q-28 0 -56.5 4.5t-42.5 9.5l-15 5l9 99l8 4q55 -7 77 -7q43 0 43 26q0 22 -38 22h-61v90h68q28 0 28 21q0 22 -39 22q-15 0 -33 -2.5t-29 -5.5l-11 -2l-8 4q-6 63 -9 100q54 20 116 20q71 0 106 -31.5t35 -78.5t-30 -72v-2q43 -33 43 -92z" />
    <glyph glyph-name="oneeighth" unicode="&#x215b;" horiz-adv-x="795" 
d="M94 -12l412 684h131l-412 -684h-131zM16 508v74l110 78h88v-398h-138v246h-60zM452 110q0 52 38 82v4q-36 31 -36 83q0 60 43.5 92.5t116.5 32.5q71 0 114.5 -30.5t43.5 -81.5q0 -53 -40 -79v-3q44 -33 44 -86q0 -130 -162 -130q-74 0 -118 29t-44 87zM621 140l-34 11
q-8 -17 -8 -31q0 -31 35 -31q36 0 36 25q0 16 -29 26zM582 284q0 -15 20 -21l33 -11q11 16 11 31q0 26 -32 26t-32 -25z" />
    <glyph glyph-name="threeeighths" unicode="&#x215c;" horiz-adv-x="810" 
d="M109 -12l412 684h131l-412 -684h-131zM286 390q0 -134 -161 -134q-28 0 -56.5 5t-42.5 9l-15 5l9 99l8 4q55 -7 77 -7q43 0 43 26q0 22 -38 22h-61v90h68q28 0 28 21q0 22 -39 22q-15 0 -33 -2.5t-29 -5.5l-11 -2l-8 4q-6 63 -9 100q54 20 116 20q71 0 106 -31.5
t35 -78.5t-30 -72v-2q43 -33 43 -92zM464 110q0 52 38 82v4q-36 31 -36 83q0 60 43.5 92.5t116.5 32.5q71 0 114.5 -30.5t43.5 -81.5q0 -53 -40 -79v-3q44 -33 44 -86q0 -130 -162 -130q-74 0 -118 29t-44 87zM633 140l-34 11q-8 -17 -8 -31q0 -31 35 -31q36 0 36 25
q0 16 -29 26zM594 284q0 -15 20 -21l33 -11q11 16 11 31q0 26 -32 26t-32 -25z" />
    <glyph glyph-name="fiveeighths" unicode="&#x215d;" horiz-adv-x="811" 
d="M107 -12l412 684h131l-412 -684h-131zM283 406v-20q0 -65 -37 -97.5t-100 -32.5q-34 0 -65 6t-45 12l-13 6q2 42 7 88l8 4q37 -12 65 -12q42 0 42 33v2q0 29 -31 29q-8 0 -16 -2t-12 -4l-4 -2l-60 12l12 232h225v-115h-104l-1 -38l3 -1q17 6 33 6q44 0 68.5 -27.5
t24.5 -78.5zM465 110q0 52 38 82v4q-36 31 -36 83q0 60 43.5 92.5t116.5 32.5q71 0 114.5 -30.5t43.5 -81.5q0 -53 -40 -79v-3q44 -33 44 -86q0 -130 -162 -130q-74 0 -118 29t-44 87zM634 140l-34 11q-8 -17 -8 -31q0 -31 35 -31q36 0 36 25q0 16 -29 26zM595 284
q0 -15 20 -21l33 -11q11 16 11 31q0 26 -32 26t-32 -25z" />
    <glyph glyph-name="seveneighths" unicode="&#x215e;" horiz-adv-x="746" 
d="M46 -12l412 684h131l-412 -684h-131zM6 543v115h273v-112l-105 -284h-149l107 267v14h-126zM400 110q0 52 38 82v4q-36 31 -36 83q0 60 43.5 92.5t116.5 32.5q71 0 114.5 -30.5t43.5 -81.5q0 -53 -40 -79v-3q44 -33 44 -86q0 -130 -162 -130q-74 0 -118 29t-44 87z
M569 140l-34 11q-8 -17 -8 -31q0 -31 35 -31q36 0 36 25q0 16 -29 26zM530 284q0 -15 20 -21l33 -11q11 16 11 31q0 26 -32 26t-32 -25z" />
    <glyph glyph-name="partialdiff" unicode="&#x2202;" horiz-adv-x="490" 
d="M236 522h13l1 1q-36 62 -149 107l-10 4l32 108l14 -1q38 -3 76 -12.5t87.5 -37t86.5 -67.5t62.5 -111.5t25.5 -162.5v-111q0 -116 -62.5 -183.5t-158.5 -67.5h-18q-96 0 -158.5 67.5t-62.5 183.5v42q0 115 62 178t159 63zM275 190v140q0 38 -30 38t-30 -38v-140
q0 -38 30 -38t30 38z" />
    <glyph glyph-name="Delta" unicode="&#x2206;" horiz-adv-x="570" 
d="M550 168v-168h-530v168l147 492h236zM254 280l-28 -116h118l-28 116l-17 145h-28z" />
    <glyph glyph-name="product" unicode="&#x220f;" horiz-adv-x="530" 
d="M300 0v496h-70v-496h-200v660h470v-660h-200z" />
    <glyph glyph-name="summation" unicode="&#x2211;" horiz-adv-x="409" 
d="M333 342l-55 -132q-4 -11 -11 -21.5t-12 -14.5l-5 -5v-5h144v-164h-379v90l107 236l-107 186v148h369v-164h-150v-9q23 -17 37 -41z" />
    <glyph glyph-name="minus" unicode="&#x2212;" 
d="M450 231h-400v140h400v-140z" />
    <glyph glyph-name="radical" unicode="&#x221a;" horiz-adv-x="582" 
d="M281 107l138 653h143l-183 -860h-224l-52 330h-93v140h211l42 -263l3 -57h10z" />
    <glyph glyph-name="infinity" unicode="&#x221e;" horiz-adv-x="792" 
d="M573 482q43 0 75 -8t62 -29t46 -64.5t16 -107.5q0 -65 -15.5 -108.5t-45.5 -64.5t-62 -29t-76 -8q-58 0 -95 25.5t-80 81.5h-5q-44 -58 -79.5 -82.5t-94.5 -24.5q-43 0 -75 8t-62 29t-46 64.5t-16 108.5q0 64 16 107.5t46 64.5t62 29t75 8q40 0 72 -15.5t50 -33.5t52 -58
h5q37 44 53 60.5t48 31.5t74 15zM219 203q46 0 94 62l7 9l-7 8q-30 35 -49 47.5t-45 12.5q-17 0 -28 -3.5t-21 -19.5t-10 -46t10 -46.5t21 -20t28 -3.5zM573 342q-27 1 -44.5 -11t-49.5 -49l-7 -8l7 -9q27 -35 46.5 -48.5t47.5 -13.5q12 0 20.5 2t18.5 8.5t15.5 21.5t5.5 38
q0 43 -17 56t-43 13z" />
    <glyph glyph-name="integral" unicode="&#x222b;" horiz-adv-x="284" 
d="M194 622v-664q0 -93 -33.5 -131.5t-124.5 -38.5q-21 0 -40 3t-28 5l-9 3v77l12 15h37q46 0 46 45v664q0 93 33.5 131.5t124.5 38.5q21 0 40 -3t28 -5l9 -3v-77l-13 -15h-36q-46 0 -46 -45z" />
    <glyph glyph-name="approxequal" unicode="&#x2248;" 
d="M149 349q-38 0 -95 -38q-4 -2 -4 -1v133q51 45 112 45q43 0 96 -28t94 -28q23 0 47.5 9t37.5 18l13 9v-130q-51 -45 -111 -45q-46 0 -99 28t-91 28zM149 149q-38 0 -95 -38q-4 -2 -4 -1v133q55 45 112 45q43 0 90 -28t87 -28q23 0 50.5 9t44.5 18l16 9v-130
q-48 -45 -111 -45q-46 0 -99 28t-91 28z" />
    <glyph glyph-name="notequal" unicode="&#x2260;" 
d="M450 115h-214l-40 -95h-126l40 95h-60v140h121l30 70h-151v140h215l39 95h127l-39 -95h58v-140h-123l-30 -70h153v-140z" />
    <glyph glyph-name="lessequal" unicode="&#x2264;" 
d="M445 0h-390v140h390v-140zM445 299v-141h-29l-361 160v116l361 160h29v-141l-188 -77v-2z" />
    <glyph glyph-name="greaterequal" unicode="&#x2265;" 
d="M445 0h-390v140h390v-140zM55 454v140h29l361 -159v-116l-361 -161h-29v142l187 76v2z" />
    <glyph glyph-name="lozenge" unicode="&#x25ca;" horiz-adv-x="535" 
d="M511 316l-161 -356h-164l-161 356l161 356h164zM178 316l89 -198h2l89 198l-89 195h-2z" />
    <glyph glyph-name="zero.tb" unicode="&#xf639;" 
d="M241 672h19q100 0 162.5 -73.5t62.5 -226.5v-83q0 -153 -62.5 -227t-162.5 -74h-19q-100 0 -163 74t-63 227v83q0 153 62.5 226.5t163.5 73.5zM285 201v260q0 47 -35 47t-35 -47v-260q0 -49 35 -49t35 49z" />
    <glyph glyph-name="two.tb" unicode="&#xf63a;" 
d="M468 463v-11q0 -69 -31 -118.5t-116 -122.5l-46 -42v-5h183v-164h-419v129q0 29 7.5 53.5t28 50t34.5 40t47 45.5l55 51q36 34 46.5 52t10.5 37q0 20 -18 35t-59 15q-23 0 -50.5 -5t-43.5 -11l-16 -5l-15 8q-10 73 -16 136q0 2 23.5 11t71 19.5t96.5 10.5
q108 0 167.5 -58t59.5 -151z" />
    <glyph glyph-name="three.tb" unicode="&#xf63b;" 
d="M464 209v-11q0 -96 -62 -153t-173 -57q-47 0 -91 10t-65 18.5t-21 10.5l15 136l15 7q65 -18 99 -18q83 0 83 60v5q0 25 -17 38t-63 13h-68v138h90q50 0 50 48v5q0 49 -70 49q-17 0 -41 -4t-39 -8l-16 -3l-14 7q-10 73 -15 137q0 2 20.5 9.5t64 16.5t90.5 9
q102 0 156 -49.5t54 -127.5v-5q0 -79 -49 -124v-3q67 -53 67 -154z" />
    <glyph glyph-name="four.tb" unicode="&#xf63c;" 
d="M25 244l147 416h195l-143 -406h51l52 146h116v-146h47v-164h-47v-90h-200v90h-218v154z" />
    <glyph glyph-name="five.tb" unicode="&#xf63d;" 
d="M464 240v-10q0 -242 -218 -242q-53 0 -102 10.5t-72 21.5l-22 10l14 133l16 8q61 -19 109 -19q75 0 75 64v4q0 23 -14.5 38.5t-40.5 15.5q-14 0 -27.5 -5t-19.5 -9l-7 -5l-100 29l20 376h349v-164h-158l-4 -77l2 -1q14 4 32 4q82 0 125 -49t43 -133z" />
    <glyph glyph-name="six.tb" unicode="&#xf63e;" 
d="M325 508q-54 0 -80 -21t-30 -77h3q39 27 102 27q74 0 119.5 -50.5t45.5 -135.5v-21q0 -109 -57 -175.5t-174 -66.5q-239 0 -239 287v55q0 174 71 258t214 84q34 0 68 -6t50 -12l17 -7q-3 -30 -7.5 -66.5t-7 -58.5t-2.5 -21l-13 -6q-47 13 -80 13zM246 283l-31 -4v-74
q0 -53 35 -53t35 48v39q0 44 -39 44z" />
    <glyph glyph-name="seven.tb" unicode="&#xf63f;" 
d="M34 496v164h429v-163l-184 -497h-217l195 485v11h-223z" />
    <glyph glyph-name="eight.tb" unicode="&#xf640;" 
d="M10 180q0 95 67 146v7q-57 49 -57 137q0 98 62.5 150t167.5 52q102 0 163.5 -48.5t61.5 -133.5q0 -43 -17 -78t-46 -54v-4q78 -53 78 -149q0 -217 -240 -217q-103 0 -171.5 47.5t-68.5 144.5zM261 235l-36 15q-25 -28 -25 -60q0 -22 14.5 -35t37.5 -13q22 0 35 12t13 33
q0 31 -39 48zM200 480q0 -28 38 -45l33 -15q29 29 29 58q0 16 -13.5 28t-38.5 12t-36.5 -11.5t-11.5 -26.5z" />
    <glyph glyph-name="nine.tb" unicode="&#xf641;" 
d="M182 152q54 0 78.5 22t24.5 76h-3q-39 -27 -100 -27q-72 0 -119.5 52t-47.5 134v21q0 108 58.5 175t172.5 67q115 0 177 -71.5t62 -215.5v-55q0 -172 -65 -257t-205 -85q-40 0 -78.5 7t-57.5 13l-19 7q3 30 7.5 66.5t7 58.5t2.5 21l13 6q54 -15 92 -15zM254 377l31 4v74
q0 53 -35 53t-35 -48v-39q0 -44 39 -44z" />
    <glyph glyph-name="zero.ot" unicode="&#xf643;" 
d="M240 532h20q97 0 161 -68t64 -193v-22q0 -125 -64 -193t-161 -68h-20q-97 0 -161 68t-64 193v22q0 125 64 193t161 68zM285 222v76q0 39 -8.5 54.5t-26.5 15.5t-26.5 -15.5t-8.5 -54.5v-76q0 -39 8.5 -54.5t26.5 -15.5t26.5 15.5t8.5 54.5z" />
    <glyph glyph-name="one.ot" unicode="&#xf644;" 
d="M65 304v87l183 129h117v-356h90v-164h-400v164h110v140h-100z" />
    <glyph glyph-name="two.ot" unicode="&#xf645;" 
d="M459 350q0 -55 -26 -91t-75 -73l-31 -22l3 -6l37 6h92v-164h-418v147l166 128q31 24 41.5 35.5t10.5 25.5q0 32 -66 32q-26 0 -54 -5t-43 -10l-15 -5l-15 7q-10 73 -15 136q0 2 23 11.5t69.5 19.5t95.5 10q104 0 162 -46.5t58 -135.5z" />
    <glyph glyph-name="three.ot" unicode="&#xf646;" 
d="M464 76v-11q0 -95 -62 -151t-173 -56q-47 0 -91 9.5t-65 18t-21 10.5l15 136l15 7q65 -17 99 -17q83 0 83 57v5q0 24 -17 37t-63 13h-68v138h90q50 0 50 45v5q0 46 -70 46q-17 0 -41 -3.5t-39 -6.5l-16 -4l-14 7q-10 73 -15 137q70 34 175 34q102 0 156 -48.5t54 -125.5
v-5q0 -78 -49 -123v-2q67 -53 67 -152z" />
    <glyph glyph-name="four.ot" unicode="&#xf647;" 
d="M155 520h195l-125 -356h51l56 157h112v-157h47v-164h-47v-130h-200v130h-218v154z" />
    <glyph glyph-name="five.ot" unicode="&#xf648;" 
d="M464 106v-10q0 -238 -218 -238q-53 0 -102 10.5t-72 21.5l-22 10l14 134l16 8q61 -20 109 -20q75 0 75 60v4q0 48 -53 48q-13 0 -27 -4.5t-22 -9.5l-7 -5l-100 29l20 376h349v-164h-158l-4 -77l2 -1q16 4 34 4q80 0 123 -47t43 -129z" />
    <glyph glyph-name="six.ot" unicode="&#xf649;" 
d="M321 488q-52 0 -77 -20t-29 -70h3q39 27 102 27q74 0 119.5 -50.5t45.5 -133.5v-21q0 -106 -57 -169t-174 -63q-239 0 -239 287v35q0 342 285 342q34 0 68 -6t50 -12l17 -7q-3 -30 -7.5 -66.5t-7 -58.5t-2.5 -21l-13 -6q-43 13 -84 13zM246 271l-31 -4v-62q0 -53 35 -53
t35 48v27q0 44 -39 44z" />
    <glyph glyph-name="seven.ot" unicode="&#xf64a;" 
d="M34 356v164h429v-163l-180 -487h-217l191 475v11h-223z" />
    <glyph glyph-name="eight.ot" unicode="&#xf64b;" 
d="M10 174q0 93 67 142v7q-57 48 -57 133q0 95 62.5 145.5t167.5 50.5q102 0 163.5 -47.5t61.5 -129.5q0 -41 -17 -75.5t-46 -52.5v-4q78 -51 78 -144q0 -211 -240 -211q-103 0 -171.5 46t-68.5 140zM261 228l-36 13q-25 -22 -25 -53q0 -21 14.5 -33.5t37.5 -12.5
q22 0 35 11t13 31q0 30 -39 44zM200 464q0 -26 38 -42l33 -14q29 29 29 53q0 16 -13.5 26.5t-38.5 10.5t-36.5 -10t-11.5 -24z" />
    <glyph glyph-name="nine.ot" unicode="&#xf64c;" 
d="M182 22q54 0 78.5 22t24.5 76h-3q-38 -26 -100 -26q-72 0 -119.5 51.5t-47.5 133.5v21q0 100 59 166t172 66q114 0 176.5 -70.5t62.5 -206.5v-55q0 -163 -66 -252.5t-204 -89.5q-40 0 -79 7t-58 13l-18 7q3 30 7.5 66.5t7 58.5t2.5 21l13 6q54 -15 92 -15zM254 248l31 4
v63q0 53 -35 53t-35 -48v-28q0 -44 39 -44z" />
    <glyph glyph-name="zero.denominator" unicode="&#xf655;" horiz-adv-x="356" 
d="M172 404h12q70 0 111 -44.5t41 -135.5v-50q0 -91 -41 -135.5t-111 -44.5h-12q-70 0 -111 44.5t-41 135.5v50q0 91 41 135.5t111 44.5zM198 145v107q0 37 -20 37t-20 -37v-107q0 -36 20 -36t20 36z" />
    <glyph glyph-name="one.denominator" unicode="&#xf656;" horiz-adv-x="236" 
d="M16 246v74l110 78h88v-398h-138v246h-60z" />
    <glyph glyph-name="two.denominator" unicode="&#xf657;" horiz-adv-x="320" 
d="M298 270q0 -41 -14 -67t-41 -51l-38 -34v-3h88v-115h-273v71q0 31 15 54t53 58l46 42q26 25 26 40q0 24 -40 24q-15 0 -33.5 -3.5t-30.5 -7.5l-11 -3l-9 4q-7 71 -9 100q0 1 16.5 7t48 12t60.5 6q68 0 107 -36t39 -98z" />
    <glyph glyph-name="three.denominator" unicode="&#xf658;" horiz-adv-x="296" 
d="M286 128q0 -134 -161 -134q-28 0 -56.5 4.5t-42.5 9.5l-15 5l9 99l8 4q55 -7 77 -7q43 0 43 26q0 22 -38 22h-61v90h68q28 0 28 21q0 22 -39 22q-15 0 -33 -2.5t-29 -5.5l-11 -2l-8 4q-6 63 -9 100q54 20 116 20q71 0 106 -31.5t35 -78.5t-30 -72v-2q43 -33 43 -92z" />
    <glyph glyph-name="four.denominator" unicode="&#xf659;" horiz-adv-x="330" 
d="M10 166l87 230h136l-87 -232h32l32 86h75v-86h39v-115h-39v-49h-138v49h-137v117z" />
    <glyph glyph-name="five.denominator" unicode="&#xf65a;" horiz-adv-x="299" 
d="M283 144v-20q0 -65 -37 -97.5t-100 -32.5q-34 0 -65 6t-45 12l-13 6q2 42 7 88l8 4q37 -12 65 -12q42 0 42 33v2q0 29 -31 29q-8 0 -16 -2t-12 -4l-4 -2l-60 12l12 232h225v-115h-104l-1 -38l3 -1q17 6 33 6q44 0 68.5 -27.5t24.5 -78.5z" />
    <glyph glyph-name="six.denominator" unicode="&#xf65b;" horiz-adv-x="350" 
d="M229 289q-38 0 -56 -10.5t-22 -38.5l2 -2q31 18 73 18q46 0 74.5 -31t28.5 -80v-12q0 -64 -41.5 -101.5t-112.5 -37.5t-113 45t-42 129v27q0 103 50.5 156t144.5 53q20 0 41.5 -3.5t32.5 -6.5l11 -4l-10 -104l-7 -4q-32 7 -54 7zM175 159l-27 -5v-20q0 -35 28 -35
q25 0 25 26v9q0 25 -26 25z" />
    <glyph glyph-name="seven.denominator" unicode="&#xf65c;" horiz-adv-x="285" 
d="M6 281v115h273v-112l-105 -284h-149l107 267v14h-126z" />
    <glyph glyph-name="eight.denominator" unicode="&#xf65d;" horiz-adv-x="362" 
d="M19 110q0 52 38 82v4q-36 31 -36 83q0 60 43.5 92.5t116.5 32.5q71 0 114.5 -30.5t43.5 -81.5q0 -53 -40 -79v-3q44 -33 44 -86q0 -130 -162 -130q-74 0 -118 29t-44 87zM188 140l-34 11q-8 -17 -8 -31q0 -31 35 -31q36 0 36 25q0 16 -29 26zM149 284q0 -15 20 -21
l33 -11q11 16 11 31q0 26 -32 26t-32 -25z" />
    <glyph glyph-name="nine.denominator" unicode="&#xf65e;" horiz-adv-x="350" 
d="M120 109q38 0 57 11t21 38l-2 2q-31 -18 -70 -18q-48 0 -77 31t-29 80v12q0 64 41.5 101.5t112.5 37.5q74 0 114.5 -44.5t40.5 -129.5v-27q0 -107 -48 -158t-145 -51q-20 0 -42 3.5t-34 6.5l-11 4l10 104l7 4q32 -7 54 -7zM174 239l27 5v20q0 35 -26 35q-12 0 -19.5 -7.5
t-7.5 -20.5v-6q0 -26 26 -26z" />
    <glyph glyph-name="zero.numerator" unicode="&#xf661;" horiz-adv-x="356" 
d="M172 666h12q70 0 111 -44.5t41 -135.5v-50q0 -91 -41 -135.5t-111 -44.5h-12q-70 0 -111 44.5t-41 135.5v50q0 91 41 135.5t111 44.5zM198 407v107q0 37 -20 37t-20 -37v-107q0 -36 20 -36t20 36z" />
    <glyph glyph-name="one.numerator" unicode="&#xf662;" horiz-adv-x="236" 
d="M16 508v74l110 78h88v-398h-138v246h-60z" />
    <glyph glyph-name="two.numerator" unicode="&#xf663;" horiz-adv-x="320" 
d="M298 532q0 -41 -14 -67t-41 -51l-38 -34v-3h88v-115h-273v71q0 31 15 54t53 58l46 42q26 25 26 40q0 24 -40 24q-15 0 -33.5 -3.5t-30.5 -7.5l-11 -3l-9 4q-7 71 -9 100q0 1 16.5 7t48 12t60.5 6q68 0 107 -36t39 -98z" />
    <glyph glyph-name="three.numerator" unicode="&#xf664;" horiz-adv-x="296" 
d="M286 390q0 -134 -161 -134q-28 0 -56.5 5t-42.5 9l-15 5l9 99l8 4q55 -7 77 -7q43 0 43 26q0 22 -38 22h-61v90h68q28 0 28 21q0 22 -39 22q-15 0 -33 -2.5t-29 -5.5l-11 -2l-8 4q-6 63 -9 100q54 20 116 20q71 0 106 -31.5t35 -78.5t-30 -72v-2q43 -33 43 -92z" />
    <glyph glyph-name="four.numerator" unicode="&#xf665;" horiz-adv-x="330" 
d="M10 428l87 230h136l-87 -232h32l32 86h75v-86h39v-115h-39v-49h-138v49h-137v117z" />
    <glyph glyph-name="five.numerator" unicode="&#xf666;" horiz-adv-x="299" 
d="M283 406v-20q0 -65 -37 -97.5t-100 -32.5q-34 0 -65 6t-45 12l-13 6q2 42 7 88l8 4q37 -12 65 -12q42 0 42 33v2q0 29 -31 29q-8 0 -16 -2t-12 -4l-4 -2l-60 12l12 232h225v-115h-104l-1 -38l3 -1q17 6 33 6q44 0 68.5 -27.5t24.5 -78.5z" />
    <glyph glyph-name="six.numerator" unicode="&#xf667;" horiz-adv-x="350" 
d="M229 551q-38 0 -56 -10.5t-22 -38.5l2 -2q31 18 73 18q46 0 74.5 -31t28.5 -80v-12q0 -64 -41.5 -101.5t-112.5 -37.5t-113 45t-42 129v27q0 103 50.5 156t144.5 53q20 0 41.5 -3.5t32.5 -6.5l11 -4l-10 -104l-7 -4q-32 7 -54 7zM175 421l-27 -5v-20q0 -35 28 -35
q25 0 25 26v9q0 25 -26 25z" />
    <glyph glyph-name="seven.numerator" unicode="&#xf668;" horiz-adv-x="285" 
d="M6 543v115h273v-112l-105 -284h-149l107 267v14h-126z" />
    <glyph glyph-name="eight.numerator" unicode="&#xf669;" horiz-adv-x="362" 
d="M19 372q0 52 38 82v4q-36 31 -36 83q0 60 43.5 92.5t116.5 32.5q71 0 114.5 -30.5t43.5 -81.5q0 -53 -40 -79v-3q44 -33 44 -86q0 -130 -162 -130q-74 0 -118 29t-44 87zM188 402l-34 11q-8 -17 -8 -31q0 -31 35 -31q36 0 36 25q0 16 -29 26zM149 546q0 -15 20 -21
l33 -11q11 16 11 31q0 26 -32 26t-32 -25z" />
    <glyph glyph-name="nine.numerator" unicode="&#xf66a;" horiz-adv-x="350" 
d="M120 371q38 0 57 11t21 38l-2 2q-31 -18 -70 -18q-48 0 -77 31t-29 80v12q0 64 41.5 101.5t112.5 37.5q74 0 114.5 -44.5t40.5 -129.5v-27q0 -107 -48 -158t-145 -51q-20 0 -42 3.5t-34 6.5l-11 4l10 104l7 4q32 -7 54 -7zM174 501l27 5v20q0 35 -26 35q-12 0 -19.5 -7.5
t-7.5 -20.5v-6q0 -26 26 -26z" />
    <glyph glyph-name="Abreve.sc" unicode="&#xf66d;" horiz-adv-x="556" 
d="M347 0l-13 73h-112l-13 -73h-201l130 550h280l130 -550h-201zM254 250l-7 -37h61l-6 37l-18 150h-12q-14 -130 -18 -150zM323 761h116q0 -70 -35 -111.5t-126 -41.5q-90 0 -124 41.5t-34 111.5h114q0 -5 2.5 -12.5t13.5 -16.5t28 -9q18 0 29 9t13.5 16.5t2.5 12.5z" />
    <glyph glyph-name="Amacron.sc" unicode="&#xf66e;" horiz-adv-x="556" 
d="M347 0l-13 73h-112l-13 -73h-201l130 550h280l130 -550h-201zM254 250l-7 -37h61l-6 37l-18 150h-12q-14 -130 -18 -150zM150 612v114h255v-114h-255z" />
    <glyph glyph-name="Aogonek.sc" unicode="&#xf66f;" horiz-adv-x="556" 
d="M347 0l-13 73h-112l-13 -73h-201l130 550h280l130 -550q-43 -73 -43 -96q0 -25 34 -25l29 2l8 -81q-29 -12 -77 -12q-121 0 -121 83q0 71 79 127v2h-110zM254 250l-7 -37h61l-6 37l-18 150h-12q-14 -130 -18 -150z" />
    <glyph glyph-name="Cacute.sc" unicode="&#xf671;" horiz-adv-x="395" 
d="M388 10q-55 -22 -131 -22q-118 0 -180 66t-62 196v29q0 283 259 283q25 0 51.5 -4t40.5 -8l14 -3l-19 -148l-13 -5q-19 4 -42 4q-89 0 -89 -121v-17q0 -108 83 -108q11 0 25.5 2t22.5 4l9 2l12 -6q13 -91 19 -144zM395 749v-56l-115 -84h-111l-11 23l68 117h169z" />
    <glyph glyph-name="Ccaron.sc" unicode="&#xf672;" horiz-adv-x="395" 
d="M388 10q-55 -22 -131 -22q-118 0 -180 66t-62 196v29q0 283 259 283q25 0 51.5 -4t40.5 -8l14 -3l-19 -148l-13 -5q-19 4 -42 4q-89 0 -89 -121v-17q0 -108 83 -108q11 0 25.5 2t22.5 4l9 2l12 -6q13 -91 19 -144zM152 609l-85 106l11 34h98l58 -47l56 47h99l11 -34
l-84 -106h-164z" />
    <glyph glyph-name="Ccircumflex.sc" unicode="&#xf673;" horiz-adv-x="395" 
d="M388 10q-55 -22 -131 -22q-118 0 -180 66t-62 196v29q0 283 259 283q25 0 51.5 -4t40.5 -8l14 -3l-19 -148l-13 -5q-19 4 -42 4q-89 0 -89 -121v-17q0 -108 83 -108q11 0 25.5 2t22.5 4l9 2l12 -6q13 -91 19 -144zM316 749l85 -106l-11 -34h-99l-57 47l-57 -47h-98
l-11 34l84 106h164z" />
    <glyph glyph-name="Cdotaccent.sc" unicode="&#xf674;" horiz-adv-x="395" 
d="M388 10q-55 -22 -131 -22q-118 0 -180 66t-62 196v29q0 283 259 283q25 0 51.5 -4t40.5 -8l14 -3l-19 -148l-13 -5q-19 4 -42 4q-89 0 -89 -121v-17q0 -108 83 -108q11 0 25.5 2t22.5 4l9 2l12 -6q13 -91 19 -144zM153 691q0 35 24.5 59.5t59.5 24.5t60 -24.5t25 -59.5
t-25 -59.5t-60 -24.5t-59.5 24.5t-24.5 59.5z" />
    <glyph glyph-name="Dcaron.sc" unicode="&#xf675;" horiz-adv-x="517" 
d="M32 0v550h239q108 0 169.5 -54t61.5 -161v-145q0 -87 -48.5 -138.5t-135.5 -51.5h-286zM240 386h-8v-222h21q16 0 24.5 2t16.5 15t8 39v90q0 43 -14.5 59.5t-47.5 16.5zM167 610l-85 106l11 34h98l58 -47l56 47h99l11 -34l-84 -106h-164z" />
    <glyph glyph-name="Dmacron.sc" unicode="&#xf676;" horiz-adv-x="535" 
d="M10 213v128h35v209h239q108 0 172 -54.5t64 -160.5v-145q0 -87 -51 -138.5t-138 -51.5h-286v213h-35zM263 396h-18v-55h37v-128h-37v-59h25q26 0 38 12.5t12 43.5v114q0 40 -13.5 56t-43.5 16z" />
    <glyph glyph-name="Ebreve.sc" unicode="&#xf677;" horiz-adv-x="389" 
d="M32 0v550h339v-164h-139v-40h109v-138h-109v-44h149v-164h-349zM246 764h116q0 -70 -35 -111.5t-126 -41.5q-90 0 -124 41.5t-34 111.5h114q0 -5 2.5 -12.5t13.5 -16.5t28 -9q18 0 29 9t13.5 16.5t2.5 12.5z" />
    <glyph glyph-name="Ecaron.sc" unicode="&#xf678;" horiz-adv-x="389" 
d="M32 0v550h339v-164h-139v-40h109v-138h-109v-44h149v-164h-349zM131 609l-85 106l11 34h98l58 -47l56 47h99l11 -34l-84 -106h-164z" />
    <glyph glyph-name="Edotaccent.sc" unicode="&#xf679;" horiz-adv-x="389" 
d="M32 0v550h339v-164h-139v-40h109v-138h-109v-44h149v-164h-349zM123 694q0 35 24.5 59.5t59.5 24.5t60 -24.5t25 -59.5t-25 -59.5t-60 -24.5t-59.5 24.5t-24.5 59.5z" />
    <glyph glyph-name="Emacron.sc" unicode="&#xf67a;" horiz-adv-x="389" 
d="M32 0v550h339v-164h-139v-40h109v-138h-109v-44h149v-164h-349zM71 615v114h255v-114h-255z" />
    <glyph glyph-name="Eogonek.sc" unicode="&#xf67c;" horiz-adv-x="389" 
d="M32 0v550h339v-164h-139v-40h109v-138h-109v-44h149v-164q-43 -73 -43 -96q0 -25 34 -25l29 2l8 -81q-29 -12 -77 -12q-121 0 -121 83q0 70 80 127v2h-259z" />
    <glyph glyph-name="Gbreve.sc" unicode="&#xf67d;" horiz-adv-x="498" 
d="M265 152l10 1v147h199v-300h-105q-20 22 -25 29h1q-2 -1 -11 -7t-11.5 -7.5t-10.5 -6t-11.5 -6t-11 -4.5t-12.5 -4t-13 -3t-15.5 -2.5t-16.5 -0.5q-217 0 -217 266v29q0 148 73 213.5t217 65.5q36 0 73 -5t56 -10l19 -5l-14 -150l-13 -5q-55 11 -91 11q-66 0 -93 -26.5
t-27 -94.5v-29q0 -96 50 -96zM302 765h116q0 -70 -35 -111.5t-126 -41.5q-90 0 -124 41.5t-34 111.5h114q0 -5 2.5 -12.5t13.5 -16.5t28 -9q18 0 29 9t13.5 16.5t2.5 12.5z" />
    <glyph glyph-name="Gcircumflex.sc" unicode="&#xf67e;" horiz-adv-x="498" 
d="M265 152l10 1v147h199v-300h-105q-20 22 -25 29h1q-2 -1 -11 -7t-11.5 -7.5t-10.5 -6t-11.5 -6t-11 -4.5t-12.5 -4t-13 -3t-15.5 -2.5t-16.5 -0.5q-217 0 -217 266v29q0 148 73 213.5t217 65.5q36 0 73 -5t56 -10l19 -5l-14 -150l-13 -5q-55 11 -91 11q-66 0 -93 -26.5
t-27 -94.5v-29q0 -96 50 -96zM337 749l85 -106l-11 -34h-99l-57 47l-57 -47h-98l-11 34l84 106h164z" />
    <glyph glyph-name="Gcommaaccent.sc" unicode="&#xf67f;" horiz-adv-x="498" 
d="M265 152l10 1v147h199v-300h-105q-20 22 -25 29h1q-2 -1 -11 -7t-11.5 -7.5t-10.5 -6t-11.5 -6t-11 -4.5t-12.5 -4t-13 -3t-15.5 -2.5t-16.5 -0.5q-217 0 -217 266v29q0 148 73 213.5t217 65.5q36 0 73 -5t56 -10l19 -5l-14 -150l-13 -5q-55 11 -91 11q-66 0 -93 -26.5
t-27 -94.5v-29q0 -96 50 -96zM166 -140q0 42 28 68.5t71 26.5q42 0 70.5 -26.5t28.5 -68.5q0 -33 -13.5 -60t-43.5 -66l-72 -92h-56v20l42 110v3q-55 25 -55 85z" />
    <glyph glyph-name="Gdotaccent.sc" unicode="&#xf680;" horiz-adv-x="498" 
d="M265 152l10 1v147h199v-300h-105q-20 22 -25 29h1q-2 -1 -11 -7t-11.5 -7.5t-10.5 -6t-11.5 -6t-11 -4.5t-12.5 -4t-13 -3t-15.5 -2.5t-16.5 -0.5q-217 0 -217 266v29q0 148 73 213.5t217 65.5q36 0 73 -5t56 -10l19 -5l-14 -150l-13 -5q-55 11 -91 11q-66 0 -93 -26.5
t-27 -94.5v-29q0 -96 50 -96zM183 693q0 35 24.5 59.5t59.5 24.5t60 -24.5t25 -59.5t-25 -59.5t-60 -24.5t-59.5 24.5t-24.5 59.5z" />
    <glyph glyph-name="Imacron.sc" unicode="&#xf685;" horiz-adv-x="264" 
d="M32 0v550h200v-550h-200zM5 615v114h255v-114h-255z" />
    <glyph glyph-name="Iogonek.sc" unicode="&#xf686;" horiz-adv-x="264" 
d="M32 0v550h200v-550q-43 -73 -43 -96q0 -25 34 -25l29 2l8 -81q-29 -12 -77 -12q-121 0 -121 83q0 71 79 127v2h-109z" />
    <glyph glyph-name="Jcircumflex.sc" unicode="&#xf688;" horiz-adv-x="338" 
d="M8 1l13 146l12 8q16 -3 34 -3q25 0 32 14t7 57v327h200v-357q0 -109 -47.5 -157t-146.5 -48q-22 0 -48 3t-41 7zM290 749l85 -106l-11 -34h-99l-57 47l-57 -47h-98l-11 34l84 106h164z" />
    <glyph glyph-name="Kcommaaccent.sc" unicode="&#xf689;" horiz-adv-x="549" 
d="M541 0h-216l-80 203h-13v-203h-200v550h200v-207h12l81 207h208l-109 -263zM176 -140q0 42 28 68.5t71 26.5q42 0 70.5 -26.5t28.5 -68.5q0 -55 -57 -126l-72 -92h-56v20l42 109v4q-55 25 -55 85z" />
    <glyph glyph-name="Lacute.sc" unicode="&#xf68a;" horiz-adv-x="367" 
d="M32 0v550h200v-386h125v-164h-325zM287 750v-56l-115 -84h-111l-11 23l68 117h169z" />
    <glyph glyph-name="Lcaron.sc" unicode="&#xf68b;" horiz-adv-x="453" 
d="M32 0v550h200v-386h125v-164h-325zM269 472q0 38 25 61.5t63 23.5t63 -23.5t25 -61.5q0 -48 -50 -112l-64 -81h-51v17l38 98v3q-49 23 -49 75z" />
    <glyph glyph-name="Lcommaaccent.sc" unicode="&#xf68c;" horiz-adv-x="367" 
d="M32 0v550h200v-386h125v-164h-325zM86 -140q0 42 28 68.5t71 26.5q42 0 70.5 -26.5t28.5 -68.5q0 -55 -57 -126l-72 -92h-56v20l42 109v4q-55 25 -55 85z" />
    <glyph glyph-name="Ldot.sc" unicode="&#xf68d;" horiz-adv-x="507" 
d="M32 0v550h200v-386h125v-164h-325zM497 356q0 -47 -31.5 -76.5t-78.5 -29.5t-78.5 29.5t-31.5 76.5t31.5 76.5t78.5 29.5t78.5 -29.5t31.5 -76.5z" />
    <glyph glyph-name="Nacute.sc" unicode="&#xf68e;" horiz-adv-x="577" 
d="M329 0l-75 174q-4 10 -10.5 34t-11 42.5t-4.5 19.5l-10 -2l14 -122v-146h-200v550h216l75 -176l24 -90l10 2l-12 108v156h200v-550h-216zM472 750v-56l-115 -84h-111l-11 23l68 117h169z" />
    <glyph glyph-name="Ncaron.sc" unicode="&#xf68f;" horiz-adv-x="577" 
d="M329 0l-75 174q-4 10 -10.5 34t-11 42.5t-4.5 19.5l-10 -2l14 -122v-146h-200v550h216l75 -176l24 -90l10 2l-12 108v156h200v-550h-216zM221 610l-85 106l11 34h98l58 -47l56 47h99l11 -34l-84 -106h-164z" />
    <glyph glyph-name="Ncommaaccent.sc" unicode="&#xf690;" horiz-adv-x="577" 
d="M329 0l-75 174q-4 10 -10.5 34t-11 42.5t-4.5 19.5l-10 -2l14 -122v-146h-200v550h216l75 -176l24 -90l10 2l-12 108v156h200v-550h-216zM179 -140q0 42 28 68.5t71 26.5q42 0 70.5 -26.5t28.5 -68.5q0 -55 -57 -126l-72 -92h-56v20l42 109v4q-55 25 -55 85z" />
    <glyph glyph-name="Obreve.sc" unicode="&#xf691;" horiz-adv-x="494" 
d="M237 562h20q222 0 222 -270v-35q0 -269 -222 -269h-20q-222 0 -222 269v35q0 270 222 270zM277 182v186q0 40 -30 40t-30 -40v-186q0 -40 30 -40t30 40zM291 763h116q0 -70 -35 -111.5t-126 -41.5q-90 0 -124 41.5t-34 111.5h114q0 -5 2.5 -12.5t13.5 -16.5t28 -9
q18 0 29 9t13.5 16.5t2.5 12.5z" />
    <glyph glyph-name="Ohungarumlaut.sc" unicode="&#xf692;" horiz-adv-x="494" 
d="M237 562h20q222 0 222 -270v-35q0 -269 -222 -269h-20q-222 0 -222 269v35q0 270 222 270zM277 182v186q0 40 -30 40t-30 -40v-186q0 -40 30 -40t30 40zM481 749v-56l-115 -84h-63l-11 23l57 117h132zM295 749v-56l-115 -84h-63l-11 23l57 117h132z" />
    <glyph glyph-name="Omacron.sc" unicode="&#xf693;" horiz-adv-x="494" 
d="M237 562h20q222 0 222 -270v-35q0 -269 -222 -269h-20q-222 0 -222 269v35q0 270 222 270zM277 182v186q0 40 -30 40t-30 -40v-186q0 -40 30 -40t30 40zM120 619v114h255v-114h-255z" />
    <glyph glyph-name="Oslashacute.sc" unicode="&#xf694;" horiz-adv-x="494" 
d="M409 749v-56l-115 -84h-111l-11 23l68 117h169zM237 562h20q56 0 98 -18l32 51l87 -51l-40 -64q45 -68 45 -188v-35q0 -269 -222 -269h-20q-49 0 -94 15l-32 -51l-86 51l38 62q-48 65 -48 192v35q0 270 222 270zM230 319l51 83q-10 16 -34 16q-40 0 -40 -40v-97h4
q11 25 19 38zM287 172v95h-4q-12 -37 -23 -55l-43 -70q11 -10 30 -10q40 0 40 40z" />
    <glyph glyph-name="Racute.sc" unicode="&#xf695;" horiz-adv-x="520" 
d="M251 386h-19v-95h17q29 0 41 6.5t12 32.5v9q0 26 -12.5 36.5t-38.5 10.5zM512 0h-208l-41 133q-7 20 -23 20h-8v-153h-200v550h246q115 0 169.5 -51.5t54.5 -138.5v-20q0 -97 -80 -132v-4q33 -19 48 -67zM395 749v-56l-115 -84h-111l-11 23l68 117h169z" />
    <glyph glyph-name="Rcaron.sc" unicode="&#xf696;" horiz-adv-x="520" 
d="M251 386h-19v-95h17q29 0 41 6.5t12 32.5v9q0 26 -12.5 36.5t-38.5 10.5zM512 0h-208l-41 133q-7 20 -23 20h-8v-153h-200v550h246q115 0 169.5 -51.5t54.5 -138.5v-20q0 -97 -80 -132v-4q33 -19 48 -67zM155 610l-85 106l11 34h98l58 -47l56 47h99l11 -34l-84 -106h-164
z" />
    <glyph glyph-name="Rcommaaccent.sc" unicode="&#xf697;" horiz-adv-x="520" 
d="M251 386h-19v-95h17q29 0 41 6.5t12 32.5v9q0 26 -12.5 36.5t-38.5 10.5zM512 0h-208l-41 133q-7 20 -23 20h-8v-153h-200v550h246q115 0 169.5 -51.5t54.5 -138.5v-20q0 -97 -80 -132v-4q33 -19 48 -67zM175 -140q0 42 28 68.5t71 26.5q42 0 70.5 -26.5t28.5 -68.5
q0 -55 -57 -126l-72 -92h-56v20l42 109v4q-55 25 -55 85z" />
    <glyph glyph-name="Sacute.sc" unicode="&#xf698;" horiz-adv-x="455" 
d="M39 5q-4 35 -5 73t0 58v21l16 8q66 -13 128 -13q37 0 49.5 5.5t12.5 17.5q0 13 -26 19l-85 23q-52 14 -83 52t-31 103q0 94 59.5 142t193.5 48q29 0 61.5 -4.5t51 -8.5t18.5 -5q0 -35 -3.5 -72t-7.5 -57l-3 -20l-17 -8q-51 11 -91 11q-62 0 -62 -25q0 -11 16 -16l82 -21
q127 -32 127 -154q0 -96 -57.5 -145t-186.5 -49q-35 0 -74.5 4t-61.5 8zM382 750v-56l-115 -84h-111l-11 23l68 117h169z" />
    <glyph glyph-name="Scedilla.sc" unicode="&#xf699;" horiz-adv-x="455" 
d="M144 -201l9 71q28 -4 48 -4q33 0 33 16q0 12 -18 12h-50l13 94q-32 1 -67 5t-54 8l-19 4q-4 35 -5 73t0 58v21l16 8q66 -13 128 -13q37 0 49.5 5.5t12.5 17.5q0 13 -26 19l-85 23q-52 14 -83 52t-31 103q0 94 59.5 142t193.5 48q29 0 61.5 -4.5t51 -8.5t18.5 -5
q0 -35 -3.5 -72t-7.5 -57l-3 -20l-17 -8q-51 11 -91 11q-62 0 -62 -25q0 -11 16 -16l82 -21q127 -32 127 -154q0 -81 -40 -128.5t-128 -60.5v-32h10q80 0 80 -79q0 -94 -123 -94q-23 0 -46.5 3t-36.5 5z" />
    <glyph glyph-name="Scircumflex.sc" unicode="&#xf69a;" horiz-adv-x="455" 
d="M39 5q-4 35 -5 73t0 58v21l16 8q66 -13 128 -13q37 0 49.5 5.5t12.5 17.5q0 13 -26 19l-85 23q-52 14 -83 52t-31 103q0 94 59.5 142t193.5 48q29 0 61.5 -4.5t51 -8.5t18.5 -5q0 -35 -3.5 -72t-7.5 -57l-3 -20l-17 -8q-51 11 -91 11q-62 0 -62 -25q0 -11 16 -16l82 -21
q127 -32 127 -154q0 -96 -57.5 -145t-186.5 -49q-35 0 -74.5 4t-61.5 8zM302 750l85 -106l-11 -34h-99l-57 47l-57 -47h-98l-11 34l84 106h164z" />
    <glyph glyph-name="Scommaaccent.sc" unicode="&#xf69b;" horiz-adv-x="455" 
d="M39 5q-4 35 -5 73t0 58v21l16 8q66 -13 128 -13q37 0 49.5 5.5t12.5 17.5q0 13 -26 19l-85 23q-52 14 -83 52t-31 103q0 94 59.5 142t193.5 48q29 0 61.5 -4.5t51 -8.5t18.5 -5q0 -35 -3.5 -72t-7.5 -57l-3 -20l-17 -8q-51 11 -91 11q-62 0 -62 -25q0 -11 16 -16l82 -21
q127 -32 127 -154q0 -96 -57.5 -145t-186.5 -49q-35 0 -74.5 4t-61.5 8zM127 -140q0 42 28 68.5t71 26.5q42 0 70.5 -26.5t28.5 -68.5q0 -55 -57 -126l-72 -92h-56v20l42 109v4q-55 25 -55 85z" />
    <glyph glyph-name="Tcaron.sc" unicode="&#xf69d;" horiz-adv-x="386" 
d="M8 386v164h370v-164h-85v-386h-200v386h-85zM114 610l-85 106l11 34h98l58 -47l56 47h99l11 -34l-84 -106h-164z" />
    <glyph glyph-name="Tcommaaccent.sc" unicode="&#xf69e;" horiz-adv-x="386" 
d="M8 386v164h370v-164h-85v-386h-200v386h-85zM95 -140q0 42 28 68.5t71 26.5q42 0 70.5 -26.5t28.5 -68.5q0 -55 -57 -126l-72 -92h-56v20l42 109v4q-55 25 -55 85z" />
    <glyph glyph-name="Ubreve.sc" unicode="&#xf69f;" horiz-adv-x="524" 
d="M292 550h200v-350q0 -105 -56.5 -158.5t-163.5 -53.5h-20q-107 0 -163.5 53.5t-56.5 158.5v350h200v-362q0 -36 30 -36t30 36v362zM306 763h116q0 -70 -35 -111.5t-126 -41.5q-90 0 -124 41.5t-34 111.5h114q0 -5 2.5 -12.5t13.5 -16.5t28 -9q18 0 29 9t13.5 16.5
t2.5 12.5z" />
    <glyph glyph-name="Uhungarumlaut.sc" unicode="&#xf6a0;" horiz-adv-x="524" 
d="M292 550h200v-350q0 -105 -56.5 -158.5t-163.5 -53.5h-20q-107 0 -163.5 53.5t-56.5 158.5v350h200v-362q0 -36 30 -36t30 36v362zM481 749v-56l-115 -84h-63l-11 23l57 117h132zM295 749v-56l-115 -84h-63l-11 23l57 117h132z" />
    <glyph glyph-name="Umacron.sc" unicode="&#xf6a1;" horiz-adv-x="524" 
d="M292 550h200v-350q0 -105 -56.5 -158.5t-163.5 -53.5h-20q-107 0 -163.5 53.5t-56.5 158.5v350h200v-362q0 -36 30 -36t30 36v362zM135 617v114h255v-114h-255z" />
    <glyph glyph-name="Uogonek.sc" unicode="&#xf6a2;" horiz-adv-x="524" 
d="M292 550h200v-350q0 -160 -130 -200q-43 -73 -43 -96q0 -25 34 -25l29 2l8 -81q-29 -12 -77 -12q-121 0 -121 83q0 63 63 115v2h-3q-107 0 -163.5 53.5t-56.5 158.5v350h200v-362q0 -36 30 -36t30 36v362z" />
    <glyph glyph-name="Uring.sc" unicode="&#xf6a3;" horiz-adv-x="524" 
d="M292 550h200v-350q0 -105 -56.5 -158.5t-163.5 -53.5h-20q-107 0 -163.5 53.5t-56.5 158.5v350h200v-362q0 -36 30 -36t30 36v362zM131 718q0 48 34 77t97 29q64 0 98 -29t34 -77t-34 -77t-98 -29q-63 0 -97 29t-34 77zM231 718q0 -26 31 -26q32 0 32 26t-32 26
q-31 0 -31 -26z" />
    <glyph glyph-name="Utilde.sc" unicode="&#xf6a4;" horiz-adv-x="524" 
d="M292 550h200v-350q0 -105 -56.5 -158.5t-163.5 -53.5h-20q-107 0 -163.5 53.5t-56.5 158.5v350h200v-362q0 -36 30 -36t30 36v362zM374 780l81 -24q-18 -145 -122 -145q-32 0 -75.5 23.5t-56.5 23.5q-33 0 -51 -47l-81 24q18 145 131 145q32 0 75.5 -23.5t55.5 -23.5
q13 0 22.5 10t20.5 37z" />
    <glyph glyph-name="Wacute.sc" unicode="&#xf6a5;" horiz-adv-x="728" 
d="M319 0h-217l-94 550h201l30 -186l-4 -102h13q8 53 16 89l41 182h118l41 -182l15 -89h12q-2 82 -2 102l28 186h203l-94 -550h-217l-27 128l-13 107h-10q-9 -89 -13 -107zM544 750v-56l-115 -84h-111l-11 23l68 117h169z" />
    <glyph glyph-name="Wcircumflex.sc" unicode="&#xf6a6;" horiz-adv-x="728" 
d="M319 0h-217l-94 550h201l30 -186l-4 -102h13q8 53 16 89l41 182h118l41 -182l15 -89h12q-2 82 -2 102l28 186h203l-94 -550h-217l-27 128l-13 107h-10q-9 -89 -13 -107zM446 750l85 -106l-11 -34h-99l-57 47l-57 -47h-98l-11 34l84 106h164z" />
    <glyph glyph-name="Wdieresis.sc" unicode="&#xf6a7;" horiz-adv-x="728" 
d="M319 0h-217l-94 550h201l30 -186l-4 -102h13q8 53 16 89l41 182h118l41 -182l15 -89h12q-2 82 -2 102l28 186h203l-94 -550h-217l-27 128l-13 107h-10q-9 -89 -13 -107zM181 691q0 32 23 55t56 23t56 -23t23 -55t-23 -55t-56 -23t-56 23t-23 55zM388 691q0 32 23 55
t55 23q33 0 56.5 -23t23.5 -55t-23.5 -55t-56.5 -23q-32 0 -55 23t-23 55z" />
    <glyph glyph-name="Wgrave.sc" unicode="&#xf6a8;" horiz-adv-x="728" 
d="M319 0h-217l-94 550h201l30 -186l-4 -102h13q8 53 16 89l41 182h118l41 -182l15 -89h12q-2 82 -2 102l28 186h203l-94 -550h-217l-27 128l-13 107h-10q-9 -89 -13 -107zM196 693v56h168l69 -117l-11 -23h-111z" />
    <glyph glyph-name="Ycircumflex.sc" unicode="&#xf6a9;" horiz-adv-x="526" 
d="M8 550h207l23 -79q5 -18 10 -50t8 -55l2 -23h10q8 87 20 128l23 79h207l-155 -380v-170h-200v170zM345 749l85 -106l-11 -34h-99l-57 47l-57 -47h-98l-11 34l84 106h164z" />
    <glyph glyph-name="Ygrave.sc" unicode="&#xf6aa;" horiz-adv-x="526" 
d="M8 550h207l23 -79q5 -18 10 -50t8 -55l2 -23h10q8 87 20 128l23 79h207l-155 -380v-170h-200v170zM98 693v56h168l69 -117l-11 -23h-111z" />
    <glyph glyph-name="Zacute.sc" unicode="&#xf6ab;" horiz-adv-x="423" 
d="M25 386v164h383v-80l-114 -246q-8 -16 -17 -30t-14 -20l-5 -5v-5h150v-164h-393v80l107 230q8 16 19.5 33t18.5 26l8 9v8h-143zM388 749v-56l-115 -84h-111l-11 23l68 117h169z" />
    <glyph glyph-name="Zdotaccent.sc" unicode="&#xf6ac;" horiz-adv-x="423" 
d="M25 386v164h383v-80l-114 -246q-8 -16 -17 -30t-14 -20l-5 -5v-5h150v-164h-393v80l107 230q8 16 19.5 33t18.5 26l8 9v8h-143zM143 691q0 35 24.5 59.5t59.5 24.5t60 -24.5t25 -59.5t-25 -59.5t-60 -24.5t-59.5 24.5t-24.5 59.5z" />
    <glyph glyph-name="Idotaccent.sc" unicode="&#xf6ad;" horiz-adv-x="264" 
d="M32 0v550h200v-550h-200zM47 686q0 35 24.5 59.5t59.5 24.5t60 -24.5t25 -59.5t-25 -59.5t-60 -24.5t-59.5 24.5t-24.5 59.5z" />
    <glyph glyph-name="Germandbls.sc" unicode="&#xf6be;" horiz-adv-x="897" 
d="M481 5q-4 35 -5 73t0 58v21l16 8q66 -13 128 -13q37 0 49.5 5.5t12.5 17.5q0 13 -26 19l-85 23q-52 14 -83 52t-31 103q0 94 59.5 142t193.5 48q29 0 61.5 -4.5t51 -8.5t18.5 -5q0 -35 -3.5 -72t-7.5 -57l-3 -20l-17 -8q-51 11 -91 11q-62 0 -62 -25q0 -11 16 -16l82 -21
q127 -32 127 -154q0 -96 -57.5 -145t-186.5 -49q-35 0 -74.5 4t-61.5 8zM39 5q-4 35 -5 73t0 58v21l16 8q66 -13 128 -13q37 0 49.5 5.5t12.5 17.5q0 13 -26 19l-85 23q-52 14 -83 52t-31 103q0 94 59.5 142t193.5 48q29 0 61.5 -4.5t51 -8.5t18.5 -5q0 -35 -3.5 -72
t-7.5 -57l-3 -20l-17 -8q-51 11 -91 11q-62 0 -62 -25q0 -11 16 -16l82 -21q127 -32 127 -154q0 -96 -57.5 -145t-186.5 -49q-35 0 -74.5 4t-61.5 8z" />
    <glyph glyph-name="commaaccent" unicode="&#xf6c3;" horiz-adv-x="220" 
d="M0 -156q0 47 31.5 76.5t78.5 29.5t78.5 -29.5t31.5 -76.5q0 -36 -15 -67t-48 -73l-80 -102h-63v22l47 122v4q-61 28 -61 94z" />
    <glyph glyph-name="dblgrave" unicode="&#xf6d6;" horiz-adv-x="470" 
d="M23 664v56h132l57 -117l-11 -23h-63zM207 664v56h132l56 -117l-10 -23h-63z" />
    <glyph glyph-name="one.tb" unicode="&#xf6dc;" 
d="M65 444v87l183 129h117v-496h90v-164h-400v164h110v280h-100z" />
    <glyph glyph-name="rupiah" unicode="&#xf6dd;" horiz-adv-x="1052" 
d="M242 488h-12v-125h19q51 0 51 49v18q0 58 -58 58zM510 0h-206l-51 207q-3 12 -6.5 16t-10.5 4h-6v-227h-200v650h250q110 0 165 -54.5t55 -145.5v-17q0 -120 -81 -164v-5q19 -14 34 -63zM832 262v5q0 58 -10 79.5t-35 21.5l-25 -3v-220q10 -3 22 -3q17 0 26 6t15.5 33
t6.5 81zM762 -200h-200v720h117l53 -55q50 67 129 67q84 0 127.5 -62.5t43.5 -202.5v-27q0 -129 -43.5 -190.5t-119.5 -61.5q-59 0 -105 32h-2v-220z" />
    <glyph glyph-name="Lslash.sc" unicode="&#xf6f9;" horiz-adv-x="373" 
d="M5 133v132l33 19v266h200v-150l71 41v-132l-71 -41v-104h125v-164h-325v152z" />
    <glyph glyph-name="OE.sc" unicode="&#xf6fa;" horiz-adv-x="634" 
d="M237 562h20q47 0 83 -12h276v-164h-143l-2 -2q4 -23 5 -38h110v-138h-109q-2 -15 -6 -43l2 -1h153v-164h-285q-36 -12 -84 -12h-20q-222 0 -222 269v35q0 270 222 270zM277 182v186q0 40 -30 40t-30 -40v-186q0 -40 30 -40t30 40z" />
    <glyph glyph-name="Scaron.sc" unicode="&#xf6fd;" horiz-adv-x="455" 
d="M39 5q-4 35 -5 73t0 58v21l16 8q66 -13 128 -13q37 0 49.5 5.5t12.5 17.5q0 13 -26 19l-85 23q-52 14 -83 52t-31 103q0 94 59.5 142t193.5 48q29 0 61.5 -4.5t51 -8.5t18.5 -5q0 -35 -3.5 -72t-7.5 -57l-3 -20l-17 -8q-51 11 -91 11q-62 0 -62 -25q0 -11 16 -16l82 -21
q127 -32 127 -154q0 -96 -57.5 -145t-186.5 -49q-35 0 -74.5 4t-61.5 8zM142 610l-85 106l11 34h98l58 -47l56 47h99l11 -34l-84 -106h-164z" />
    <glyph glyph-name="Zcaron.sc" unicode="&#xf6ff;" horiz-adv-x="423" 
d="M25 386v164h383v-80l-114 -246q-8 -16 -17 -30t-14 -20l-5 -5v-5h150v-164h-393v80l107 230q8 16 19.5 33t18.5 26l8 9v8h-143zM143 609l-85 106l11 34h98l58 -47l56 47h99l11 -34l-84 -106h-164z" />
    <glyph glyph-name="exclam.sc" unicode="&#xf721;" horiz-adv-x="284" 
d="M32 91q0 47 31 74t79 27t79 -27t31 -74t-31 -74t-79 -27t-79 27t-31 74zM130 582h24q51 0 69.5 -17.5t18.5 -54.5v-120l-45 -143h-110l-45 143v120q0 36 19.5 54t68.5 18z" />
    <glyph glyph-name="ampersand.sc" unicode="&#xf726;" horiz-adv-x="669" 
d="M664 0h-233l-22 22q-62 -34 -159 -34q-108 0 -169 47t-61 119q0 99 94 150v9q-44 47 -44 97q0 67 57.5 109.5t162.5 42.5t162 -42.5t57 -109.5q0 -86 -115 -139v-4l20 -20q8 -8 14 -16.5t8 -12.5l3 -5l6 2q-2 21 -2 35v17h175q0 -119 -50 -172zM210 174q0 -38 50 -38
l31 2l-67 67q-14 -11 -14 -31zM265 404q0 -9 15 -24l24 -23q25 16 25 39q0 28 -34 28q-30 0 -30 -20z" />
    <glyph glyph-name="zerooldstyle" unicode="&#xf730;" horiz-adv-x="546" 
d="M263 532h20q101 0 173 -64.5t72 -194.5v-25q0 -130 -72 -195t-173 -65h-19q-102 0 -174 65t-72 195v25q0 130 72 194.5t173 64.5zM328 233v56q0 79 -55 79t-55 -79v-56q0 -41 15 -61t40 -20q55 0 55 81z" />
    <glyph glyph-name="oneoldstyle" unicode="&#xf731;" horiz-adv-x="354" 
d="M20 281v95l173 144h117v-520h-200v281h-90z" />
    <glyph glyph-name="twooldstyle" unicode="&#xf732;" horiz-adv-x="472" 
d="M442 350q0 -55 -26 -91t-75 -73l-31 -22l3 -6l37 6h92v-164h-418v147l166 128q31 24 41.5 35.5t10.5 25.5q0 32 -66 32q-26 0 -54 -5t-43 -10l-15 -5l-15 7q-10 73 -15 136q0 2 23 11.5t69.5 19.5t95.5 10q104 0 162 -46.5t58 -135.5z" />
    <glyph glyph-name="threeoldstyle" unicode="&#xf733;" horiz-adv-x="454" 
d="M428 76v-11q0 -95 -62 -151t-173 -56q-47 0 -91 9.5t-65 18t-21 10.5l15 136l15 7q65 -17 99 -17q83 0 83 57v5q0 24 -17 37t-63 13h-68v138h90q50 0 50 45v5q0 46 -70 46q-17 0 -41 -3.5t-39 -6.5l-16 -4l-14 7q-10 73 -15 137q70 34 175 34q102 0 156 -48.5t54 -125.5
v-5q0 -78 -49 -123v-2q67 -53 67 -152z" />
    <glyph glyph-name="fouroldstyle" unicode="&#xf734;" horiz-adv-x="493" 
d="M147 520h195l-125 -356h51l56 157h112v-157h47v-164h-47v-130h-200v130h-218v154z" />
    <glyph glyph-name="fiveoldstyle" unicode="&#xf735;" horiz-adv-x="472" 
d="M443 106v-10q0 -238 -218 -238q-53 0 -102 10.5t-71 21.5l-23 10l14 134l16 8q61 -20 109 -20q75 0 75 60v4q0 48 -53 48q-13 0 -27 -4.5t-21 -9.5l-8 -5l-100 29l20 376h349v-164h-158l-4 -77l2 -1q16 4 34 4q80 0 123 -47t43 -129z" />
    <glyph glyph-name="sixoldstyle" unicode="&#xf736;" horiz-adv-x="517" 
d="M331 488q-52 0 -77 -20t-29 -70h3q39 27 102 27q74 0 119.5 -50.5t45.5 -133.5v-21q0 -106 -57 -169t-174 -63q-239 0 -239 287v35q0 342 285 342q34 0 68 -6t50 -12l17 -7q-3 -30 -7.5 -66.5t-7 -58.5t-2.5 -21l-13 -6q-43 13 -84 13zM256 271l-31 -4v-62q0 -53 35 -53
t35 48v27q0 44 -39 44z" />
    <glyph glyph-name="sevenoldstyle" unicode="&#xf737;" horiz-adv-x="454" 
d="M18 356v164h429v-163l-180 -487h-217l191 475v11h-223z" />
    <glyph glyph-name="eightoldstyle" unicode="&#xf738;" horiz-adv-x="550" 
d="M35 174q0 93 67 142v7q-57 48 -57 133q0 95 62.5 145.5t167.5 50.5q102 0 163.5 -47.5t61.5 -129.5q0 -41 -17 -75.5t-46 -52.5v-4q78 -51 78 -144q0 -211 -240 -211q-103 0 -171.5 46t-68.5 140zM286 228l-36 13q-25 -22 -25 -53q0 -21 14.5 -33.5t37.5 -12.5
q22 0 35 11t13 31q0 30 -39 44zM225 464q0 -26 38 -42l33 -14q29 29 29 53q0 16 -13.5 26.5t-38.5 10.5t-36.5 -10t-11.5 -24z" />
    <glyph glyph-name="nineoldstyle" unicode="&#xf739;" horiz-adv-x="517" 
d="M189 22q54 0 78.5 22t24.5 76h-3q-38 -26 -100 -26q-72 0 -119.5 51.5t-47.5 133.5v21q0 100 59 166t172 66q114 0 176.5 -70.5t62.5 -206.5v-55q0 -163 -66 -252.5t-204 -89.5q-40 0 -79 7t-57 13l-19 7q3 30 7.5 66.5t7 58.5t2.5 21l13 6q54 -15 92 -15zM261 248l31 4
v63q0 53 -35 53t-35 -48v-28q0 -44 39 -44z" />
    <glyph glyph-name="question.sc" unicode="&#xf73f;" horiz-adv-x="439" 
d="M413 412v-13q0 -98 -72 -128l-33 -14q-23 -10 -23 -26v-9h-200v60q0 31 10 44.5t43 27.5l18 8q16 8 45 12q12 2 12 11q0 13 -41 13q-25 0 -52 -4t-41 -8l-14 -5l-15 4q-10 70 -16 142q81 35 180 35q106 0 152.5 -38.5t46.5 -111.5zM76 91q0 47 31 74t79 27t79 -27t31 -74
t-31 -74t-79 -27t-79 27t-31 74z" />
    <glyph glyph-name="A.sc" unicode="&#xf761;" horiz-adv-x="556" 
d="M347 0l-13 73h-112l-13 -73h-201l130 550h280l130 -550h-201zM254 250l-7 -37h61l-6 37l-18 150h-12q-14 -130 -18 -150z" />
    <glyph glyph-name="B.sc" unicode="&#xf762;" horiz-adv-x="517" 
d="M32 0v550h249q96 0 148.5 -39t52.5 -106v-6q0 -87 -81 -114v-3q53 -12 77 -47t24 -81v-6q0 -64 -42 -106t-127 -42h-301zM261 218h-29v-80h45q25 0 25 31v13q0 36 -41 36zM259 412h-27v-82h31q29 0 29 35v13q0 34 -33 34z" />
    <glyph glyph-name="C.sc" unicode="&#xf763;" horiz-adv-x="395" 
d="M388 10q-55 -22 -131 -22q-118 0 -180 66t-62 196v29q0 283 259 283q25 0 51.5 -4t40.5 -8l14 -3l-19 -148l-13 -5q-19 4 -42 4q-89 0 -89 -121v-17q0 -108 83 -108q11 0 25.5 2t22.5 4l9 2l12 -6q13 -91 19 -144z" />
    <glyph glyph-name="D.sc" unicode="&#xf764;" horiz-adv-x="517" 
d="M32 0v550h239q108 0 169.5 -54t61.5 -161v-145q0 -87 -48.5 -138.5t-135.5 -51.5h-286zM240 386h-8v-222h21q16 0 24.5 2t16.5 15t8 39v90q0 43 -14.5 59.5t-47.5 16.5z" />
    <glyph glyph-name="E.sc" unicode="&#xf765;" horiz-adv-x="389" 
d="M32 0v550h339v-164h-139v-40h109v-138h-109v-44h149v-164h-349z" />
    <glyph glyph-name="F.sc" unicode="&#xf766;" horiz-adv-x="379" 
d="M32 0v550h339v-164h-139v-64h110v-152h-110v-170h-200z" />
    <glyph glyph-name="G.sc" unicode="&#xf767;" horiz-adv-x="498" 
d="M265 152l10 1v147h199v-300h-105q-20 22 -25 29h1q-2 -1 -11 -7t-11.5 -7.5t-10.5 -6t-11.5 -6t-11 -4.5t-12.5 -4t-13 -3t-15.5 -2.5t-16.5 -0.5q-217 0 -217 266v29q0 148 73 213.5t217 65.5q36 0 73 -5t56 -10l19 -5l-14 -150l-13 -5q-55 11 -91 11q-66 0 -93 -26.5
t-27 -94.5v-29q0 -96 50 -96z" />
    <glyph glyph-name="H.sc" unicode="&#xf768;" horiz-adv-x="534" 
d="M302 0v187h-70v-187h-200v550h200v-199h70v199h200v-550h-200z" />
    <glyph glyph-name="I.sc" unicode="&#xf769;" horiz-adv-x="264" 
d="M32 0v550h200v-550h-200z" />
    <glyph glyph-name="J.sc" unicode="&#xf76a;" horiz-adv-x="338" 
d="M8 1l13 146l12 8q16 -3 34 -3q25 0 32 14t7 57v327h200v-357q0 -109 -47.5 -157t-146.5 -48q-22 0 -48 3t-41 7z" />
    <glyph glyph-name="K.sc" unicode="&#xf76b;" horiz-adv-x="549" 
d="M541 0h-216l-80 203h-13v-203h-200v550h200v-207h12l81 207h208l-109 -263z" />
    <glyph glyph-name="L.sc" unicode="&#xf76c;" horiz-adv-x="367" 
d="M32 0v550h200v-386h125v-164h-325z" />
    <glyph glyph-name="M.sc" unicode="&#xf76d;" horiz-adv-x="690" 
d="M401 550h257v-550h-200v130l8 160l-10 2q-21 -97 -30 -127l-44 -148h-75l-43 148l-30 127l-10 -2q7 -120 7 -160v-130h-199v550h257l35 -121l18 -85h6q10 56 18 85z" />
    <glyph glyph-name="N.sc" unicode="&#xf76e;" horiz-adv-x="577" 
d="M329 0l-75 174q-4 10 -10.5 34t-11 42.5t-4.5 19.5l-10 -2l14 -122v-146h-200v550h216l75 -176l24 -90l10 2l-12 108v156h200v-550h-216z" />
    <glyph glyph-name="O.sc" unicode="&#xf76f;" horiz-adv-x="494" 
d="M237 562h20q222 0 222 -270v-35q0 -269 -222 -269h-20q-222 0 -222 269v35q0 270 222 270zM277 182v186q0 40 -30 40t-30 -40v-186q0 -40 30 -40t30 40z" />
    <glyph glyph-name="P.sc" unicode="&#xf770;" horiz-adv-x="507" 
d="M32 0v550h246q105 0 159.5 -50t54.5 -145v-60q0 -86 -47.5 -132.5t-131.5 -46.5h-81v-116h-200zM243 386h-11v-132h15q45 0 45 51v30q0 51 -49 51z" />
    <glyph glyph-name="Q.sc" unicode="&#xf771;" horiz-adv-x="494" 
d="M237 562h20q222 0 222 -270v-35q0 -147 -65 -213l40 -80l-136 -64l-44 89q-6 -1 -17 -1h-20q-222 0 -222 269v35q0 270 222 270zM277 182v186q0 40 -30 40t-30 -40v-186q0 -40 30 -40t30 40z" />
    <glyph glyph-name="R.sc" unicode="&#xf772;" horiz-adv-x="520" 
d="M251 386h-19v-95h17q29 0 41 6.5t12 32.5v9q0 26 -12.5 36.5t-38.5 10.5zM512 0h-208l-41 133q-7 20 -23 20h-8v-153h-200v550h246q115 0 169.5 -51.5t54.5 -138.5v-20q0 -97 -80 -132v-4q33 -19 48 -67z" />
    <glyph glyph-name="S.sc" unicode="&#xf773;" horiz-adv-x="455" 
d="M39 5q-4 35 -5 73t0 58v21l16 8q66 -13 128 -13q37 0 49.5 5.5t12.5 17.5q0 13 -26 19l-85 23q-52 14 -83 52t-31 103q0 94 59.5 142t193.5 48q29 0 61.5 -4.5t51 -8.5t18.5 -5q0 -35 -3.5 -72t-7.5 -57l-3 -20l-17 -8q-51 11 -91 11q-62 0 -62 -25q0 -11 16 -16l82 -21
q127 -32 127 -154q0 -96 -57.5 -145t-186.5 -49q-35 0 -74.5 4t-61.5 8z" />
    <glyph glyph-name="T.sc" unicode="&#xf774;" horiz-adv-x="386" 
d="M8 386v164h370v-164h-85v-386h-200v386h-85z" />
    <glyph glyph-name="U.sc" unicode="&#xf775;" horiz-adv-x="524" 
d="M292 550h200v-350q0 -105 -56.5 -158.5t-163.5 -53.5h-20q-107 0 -163.5 53.5t-56.5 158.5v350h200v-362q0 -36 30 -36t30 36v362z" />
    <glyph glyph-name="V.sc" unicode="&#xf776;" horiz-adv-x="552" 
d="M304 335l37 215h203l-107 -550h-322l-107 550h203l37 -215l24 -183h8q12 113 24 183z" />
    <glyph glyph-name="W.sc" unicode="&#xf777;" horiz-adv-x="728" 
d="M319 0h-217l-94 550h201l30 -186l-4 -102h13q8 53 16 89l41 182h118l41 -182l15 -89h12q-2 82 -2 102l28 186h203l-94 -550h-217l-27 128l-13 107h-10q-9 -89 -13 -107z" />
    <glyph glyph-name="X.sc" unicode="&#xf778;" horiz-adv-x="542" 
d="M13 550h210l25 -86q4 -15 9 -45t7 -52l3 -22h8q9 85 19 119l25 86h210l-92 -268l97 -282h-212l-36 130q-3 12 -6 32t-4 34l-1 14h-8q-4 -54 -11 -80l-36 -130h-212l97 282z" />
    <glyph glyph-name="Y.sc" unicode="&#xf779;" horiz-adv-x="526" 
d="M8 550h207l23 -79q5 -18 10 -50t8 -55l2 -23h10q8 87 20 128l23 79h207l-155 -380v-170h-200v170z" />
    <glyph glyph-name="Z.sc" unicode="&#xf77a;" horiz-adv-x="423" 
d="M25 386v164h383v-80l-114 -246q-8 -16 -17 -30t-14 -20l-5 -5v-5h150v-164h-393v80l107 230q8 16 19.5 33t18.5 26l8 9v8h-143z" />
    <glyph glyph-name="exclamdown.sc" unicode="&#xf7a1;" horiz-adv-x="284" 
d="M252 399q0 -47 -31 -74t-79 -27t-79 27t-31 74t31 74t79 27t79 -27t31 -74zM154 -92h-24q-51 0 -69.5 17.5t-18.5 54.5v120l45 143h110l45 -143v-120q0 -36 -19.5 -54t-68.5 -18z" />
    <glyph glyph-name="questiondown.sc" unicode="&#xf7bf;" horiz-adv-x="439" 
d="M26 78v13q0 98 72 128l33 14q23 10 23 26v9h200v-60q0 -31 -10 -44.5t-43 -27.5l-18 -8q-17 -8 -45 -12q-12 -2 -12 -11q0 -13 41 -13q25 0 52 4t41 8l14 5l15 -4q10 -70 16 -142q-81 -35 -180 -35q-106 0 -152.5 38.5t-46.5 111.5zM363 399q0 -47 -31 -74t-79 -27
t-79 27t-31 74t31 74t79 27t79 -27t31 -74z" />
    <glyph glyph-name="Agrave.sc" unicode="&#xf7e0;" horiz-adv-x="556" 
d="M347 0l-13 73h-112l-13 -73h-201l130 550h280l130 -550h-201zM254 250l-7 -37h61l-6 37l-18 150h-12q-14 -130 -18 -150zM120 693v56h168l69 -117l-11 -23h-111z" />
    <glyph glyph-name="Aacute.sc" unicode="&#xf7e1;" horiz-adv-x="556" 
d="M347 0l-13 73h-112l-13 -73h-201l130 550h280l130 -550h-201zM254 250l-7 -37h61l-6 37l-18 150h-12q-14 -130 -18 -150zM464 750v-56l-115 -84h-111l-11 23l68 117h169z" />
    <glyph glyph-name="Acircumflex.sc" unicode="&#xf7e2;" horiz-adv-x="556" 
d="M347 0l-13 73h-112l-13 -73h-201l130 550h280l130 -550h-201zM254 250l-7 -37h61l-6 37l-18 150h-12q-14 -130 -18 -150zM361 749l85 -106l-11 -34h-99l-57 47l-57 -47h-98l-11 34l84 106h164z" />
    <glyph glyph-name="Atilde.sc" unicode="&#xf7e3;" horiz-adv-x="556" 
d="M347 0l-13 73h-112l-13 -73h-201l130 550h280l130 -550h-201zM254 250l-7 -37h61l-6 37l-18 150h-12q-14 -130 -18 -150zM389 780l81 -24q-18 -145 -122 -145q-32 0 -75.5 23.5t-56.5 23.5q-33 0 -51 -47l-81 24q18 145 131 145q32 0 75.5 -23.5t55.5 -23.5q13 0 22.5 10
t20.5 37z" />
    <glyph glyph-name="Adieresis.sc" unicode="&#xf7e4;" horiz-adv-x="556" 
d="M347 0l-13 73h-112l-13 -73h-201l130 550h280l130 -550h-201zM254 250l-7 -37h61l-6 37l-18 150h-12q-14 -130 -18 -150zM95 689q0 32 23 55t56 23t56 -23t23 -55t-23 -55t-56 -23t-56 23t-23 55zM302 689q0 32 23 55t55 23q33 0 56.5 -23t23.5 -55t-23.5 -55t-56.5 -23
q-32 0 -55 23t-23 55z" />
    <glyph glyph-name="Aring.sc" unicode="&#xf7e5;" horiz-adv-x="556" 
d="M347 0l-13 73h-112l-13 -73h-201l130 550h280l130 -550h-201zM254 250l-7 -37h61l-6 37l-18 150h-12q-14 -130 -18 -150zM146 710q0 48 34 77t97 29q64 0 98 -29t34 -77t-34 -77t-98 -29q-63 0 -97 29t-34 77zM246 710q0 -26 31 -26q32 0 32 26t-32 26q-31 0 -31 -26z
" />
    <glyph glyph-name="AE.sc" unicode="&#xf7e6;" horiz-adv-x="660" 
d="M303 73h-81l-13 -73h-201l130 550h504v-164h-139v-40h109v-138h-109v-44h149v-164h-349v73zM255 250l-7 -37h55v173h-30q-10 -90 -18 -136z" />
    <glyph glyph-name="Ccedilla.sc" unicode="&#xf7e7;" horiz-adv-x="395" 
d="M143 -201l9 71q28 -4 48 -4q33 0 33 16q0 12 -18 12h-50l14 103q-164 38 -164 253v29q0 283 259 283q25 0 51.5 -4t40.5 -8l14 -3l-19 -148l-13 -5q-19 4 -42 4q-89 0 -89 -121v-17q0 -108 83 -108q11 0 25.5 2t22.5 4l9 2l12 -6q13 -91 19 -144q-49 -19 -117 -22v-27h10
q80 0 80 -79q0 -94 -123 -94q-23 0 -46.5 3t-35.5 5z" />
    <glyph glyph-name="Egrave.sc" unicode="&#xf7e8;" horiz-adv-x="389" 
d="M32 0v550h339v-164h-139v-40h109v-138h-109v-44h149v-164h-349zM43 694v56h168l69 -117l-11 -23h-111z" />
    <glyph glyph-name="Eacute.sc" unicode="&#xf7e9;" horiz-adv-x="389" 
d="M32 0v550h339v-164h-139v-40h109v-138h-109v-44h149v-164h-349zM355 750v-56l-115 -84h-111l-11 23l68 117h169z" />
    <glyph glyph-name="Ecircumflex.sc" unicode="&#xf7ea;" horiz-adv-x="389" 
d="M32 0v550h339v-164h-139v-40h109v-138h-109v-44h149v-164h-349zM287 749l85 -106l-11 -34h-99l-57 47l-57 -47h-98l-11 34l84 106h164z" />
    <glyph glyph-name="Edieresis.sc" unicode="&#xf7eb;" horiz-adv-x="389" 
d="M32 0v550h339v-164h-139v-40h109v-138h-109v-44h149v-164h-349zM23 691q0 32 23 55t56 23t56 -23t23 -55t-23 -55t-56 -23t-56 23t-23 55zM230 691q0 32 23 55t55 23q33 0 56.5 -23t23.5 -55t-23.5 -55t-56.5 -23q-32 0 -55 23t-23 55z" />
    <glyph glyph-name="Igrave.sc" unicode="&#xf7ec;" horiz-adv-x="264" 
d="M32 0v550h200v-550h-200zM-8 693v56h168l69 -117l-11 -23h-111z" />
    <glyph glyph-name="Iacute.sc" unicode="&#xf7ed;" horiz-adv-x="264" 
d="M32 0v550h200v-550h-200zM286 750v-56l-115 -84h-111l-11 23l68 117h169z" />
    <glyph glyph-name="Icircumflex.sc" unicode="&#xf7ee;" horiz-adv-x="264" 
d="M32 0v550h200v-550h-200zM213 749l85 -106l-11 -34h-99l-57 47l-57 -47h-98l-11 34l84 106h164z" />
    <glyph glyph-name="Idieresis.sc" unicode="&#xf7ef;" horiz-adv-x="264" 
d="M32 0v550h200v-550h-200zM-50 691q0 32 23 55t56 23t56 -23t23 -55t-23 -55t-56 -23t-56 23t-23 55zM157 691q0 32 23 55t55 23q33 0 56.5 -23t23.5 -55t-23.5 -55t-56.5 -23q-32 0 -55 23t-23 55z" />
    <glyph glyph-name="Eth.sc" unicode="&#xf7f0;" horiz-adv-x="535" 
d="M10 213v128h35v209h239q108 0 172 -54.5t64 -160.5v-145q0 -87 -51 -138.5t-138 -51.5h-286v213h-35zM263 396h-18v-55h37v-128h-37v-59h25q26 0 38 12.5t12 43.5v114q0 40 -13.5 56t-43.5 16z" />
    <glyph glyph-name="Ntilde.sc" unicode="&#xf7f1;" horiz-adv-x="577" 
d="M329 0l-75 174q-4 10 -10.5 34t-11 42.5t-4.5 19.5l-10 -2l14 -122v-146h-200v550h216l75 -176l24 -90l10 2l-12 108v156h200v-550h-216zM416 779l81 -24q-18 -145 -122 -145q-32 0 -75.5 23.5t-56.5 23.5q-33 0 -51 -47l-81 24q18 145 131 145q32 0 75.5 -23.5
t55.5 -23.5q13 0 22.5 10t20.5 37z" />
    <glyph glyph-name="Ograve.sc" unicode="&#xf7f2;" horiz-adv-x="494" 
d="M237 562h20q222 0 222 -270v-35q0 -269 -222 -269h-20q-222 0 -222 269v35q0 270 222 270zM277 182v186q0 40 -30 40t-30 -40v-186q0 -40 30 -40t30 40zM94 694v56h168l69 -117l-11 -23h-111z" />
    <glyph glyph-name="Oacute.sc" unicode="&#xf7f3;" horiz-adv-x="494" 
d="M237 562h20q222 0 222 -270v-35q0 -269 -222 -269h-20q-222 0 -222 269v35q0 270 222 270zM277 182v186q0 40 -30 40t-30 -40v-186q0 -40 30 -40t30 40zM408 750v-56l-115 -84h-111l-11 23l68 117h169z" />
    <glyph glyph-name="Ocircumflex.sc" unicode="&#xf7f4;" horiz-adv-x="494" 
d="M237 562h20q222 0 222 -270v-35q0 -269 -222 -269h-20q-222 0 -222 269v35q0 270 222 270zM277 182v186q0 40 -30 40t-30 -40v-186q0 -40 30 -40t30 40zM337 750l85 -106l-11 -34h-99l-57 47l-57 -47h-98l-11 34l84 106h164z" />
    <glyph glyph-name="Otilde.sc" unicode="&#xf7f5;" horiz-adv-x="494" 
d="M237 562h20q222 0 222 -270v-35q0 -269 -222 -269h-20q-222 0 -222 269v35q0 270 222 270zM277 182v186q0 40 -30 40t-30 -40v-186q0 -40 30 -40t30 40zM365 779l81 -24q-18 -145 -122 -145q-32 0 -75.5 23.5t-56.5 23.5q-33 0 -51 -47l-81 24q18 145 131 145
q32 0 75.5 -23.5t55.5 -23.5q13 0 22.5 10t20.5 37z" />
    <glyph glyph-name="Odieresis.sc" unicode="&#xf7f6;" horiz-adv-x="494" 
d="M237 562h20q222 0 222 -270v-35q0 -269 -222 -269h-20q-222 0 -222 269v35q0 270 222 270zM277 182v186q0 40 -30 40t-30 -40v-186q0 -40 30 -40t30 40zM65 689q0 32 23 55t56 23t56 -23t23 -55t-23 -55t-56 -23t-56 23t-23 55zM272 689q0 32 23 55t55 23q33 0 56.5 -23
t23.5 -55t-23.5 -55t-56.5 -23q-32 0 -55 23t-23 55z" />
    <glyph glyph-name="AEacute.sc" unicode="&#xf7f7;" horiz-adv-x="660" 
d="M303 73h-81l-13 -73h-201l130 550h504v-164h-139v-40h109v-138h-109v-44h149v-164h-349v73zM255 250l-7 -37h55v173h-30q-10 -90 -18 -136zM534 749v-56l-115 -84h-111l-11 23l68 117h169z" />
    <glyph glyph-name="Oslash.sc" unicode="&#xf7f8;" horiz-adv-x="494" 
d="M237 562h20q56 0 98 -18l32 51l87 -51l-40 -64q45 -68 45 -188v-35q0 -269 -222 -269h-20q-49 0 -94 15l-32 -51l-86 51l38 62q-48 65 -48 192v35q0 270 222 270zM230 319l51 83q-10 16 -34 16q-40 0 -40 -40v-97h4q11 25 19 38zM287 172v95h-4q-12 -37 -23 -55l-43 -70
q11 -10 30 -10q40 0 40 40z" />
    <glyph glyph-name="Ugrave.sc" unicode="&#xf7f9;" horiz-adv-x="524" 
d="M292 550h200v-350q0 -105 -56.5 -158.5t-163.5 -53.5h-20q-107 0 -163.5 53.5t-56.5 158.5v350h200v-362q0 -36 30 -36t30 36v362zM91 693v56h168l69 -117l-11 -23h-111z" />
    <glyph glyph-name="Uacute.sc" unicode="&#xf7fa;" horiz-adv-x="524" 
d="M292 550h200v-350q0 -105 -56.5 -158.5t-163.5 -53.5h-20q-107 0 -163.5 53.5t-56.5 158.5v350h200v-362q0 -36 30 -36t30 36v362zM431 750v-56l-115 -84h-111l-11 23l68 117h169z" />
    <glyph glyph-name="Ucircumflex.sc" unicode="&#xf7fb;" horiz-adv-x="524" 
d="M292 550h200v-350q0 -105 -56.5 -158.5t-163.5 -53.5h-20q-107 0 -163.5 53.5t-56.5 158.5v350h200v-362q0 -36 30 -36t30 36v362zM344 750l85 -106l-11 -34h-99l-57 47l-57 -47h-98l-11 34l84 106h164z" />
    <glyph glyph-name="Udieresis.sc" unicode="&#xf7fc;" horiz-adv-x="524" 
d="M292 550h200v-350q0 -105 -56.5 -158.5t-163.5 -53.5h-20q-107 0 -163.5 53.5t-56.5 158.5v350h200v-362q0 -36 30 -36t30 36v362zM79 693q0 32 23 55t56 23t56 -23t23 -55t-23 -55t-56 -23t-56 23t-23 55zM286 693q0 32 23 55t55 23q33 0 56.5 -23t23.5 -55t-23.5 -55
t-56.5 -23q-32 0 -55 23t-23 55z" />
    <glyph glyph-name="Yacute.sc" unicode="&#xf7fd;" horiz-adv-x="526" 
d="M8 550h207l23 -79q5 -18 10 -50t8 -55l2 -23h10q8 87 20 128l23 79h207l-155 -380v-170h-200v170zM435 750v-56l-115 -84h-111l-11 23l68 117h169z" />
    <glyph glyph-name="Thorn.sc" unicode="&#xf7fe;" horiz-adv-x="507" 
d="M32 0v550h200v-56h46q105 0 159.5 -50t54.5 -145v-60q0 -86 -47.5 -132.5t-131.5 -46.5h-81v-60h-200zM243 330h-11v-132h15q45 0 45 51v30q0 51 -49 51z" />
    <glyph glyph-name="Ydieresis.sc" unicode="&#xf7ff;" horiz-adv-x="526" 
d="M8 550h207l23 -79q5 -18 10 -50t8 -55l2 -23h10q8 87 20 128l23 79h207l-155 -380v-170h-200v170zM81 691q0 32 23 55t56 23t56 -23t23 -55t-23 -55t-56 -23t-56 23t-23 55zM288 691q0 32 23 55t55 23q33 0 56.5 -23t23.5 -55t-23.5 -55t-56.5 -23q-32 0 -55 23t-23 55z
" />
    <glyph glyph-name="s_t" unicode="&#xfb06;" horiz-adv-x="820" 
d="M43 8l-10 152l17 8q78 -16 140 -16q59 0 59 18q0 9 -13 11l-65 10q-81 13 -118.5 50.5t-37.5 103.5q0 89 59.5 138t180.5 49h14l2 4q-17 23 -17 64q0 68 55 111.5t155 43.5h29q103 0 156 -48.5t53 -126.5v-60h105v-164h-105v-146q0 -31 11.5 -44.5t39.5 -13.5l41 5l13 -7
v-141q-42 -21 -108 -21q-118 0 -157.5 50.5t-39.5 166.5v151h-45v164h55v39q0 42 -53 42q-54 -1 -54 -52q0 -2 9 -38h1l-13 -150l-17 -9q-69 16 -121 16q-49 0 -49 -16q0 -9 10 -10l61 -10q87 -14 124.5 -49.5t37.5 -102.5q0 -94 -54 -143t-174 -49q-49 0 -93.5 5t-64.5 10z
" />
    <glyph glyph-name="c_t" unicode="&#xfb1e;" horiz-adv-x="755" 
d="M366 11q-50 -23 -121 -23q-109 0 -169.5 59.5t-60.5 197.5v15q0 247 191 269l2 6q-19 25 -19 65q0 68 55 111.5t155 43.5h29q103 0 156 -48.5t53 -126.5v-60h105v-164h-105v-146q0 -31 11.5 -44.5t39.5 -13.5l41 5l13 -7v-141q-42 -21 -108 -21q-118 0 -157.5 50.5
t-39.5 166.5v151h-45v164h55v39q0 41 -48 42q-32 0 -44.5 -14.5t-12.5 -49.5v-160l-17 -15q-25 6 -45 6q-32 0 -48.5 -22.5t-16.5 -77.5v-21q0 -55 17 -75t53 -20q9 0 21 2.5t20 5.5l7 2l14 -6q10 -62 19 -145z" />
    <glyph glyph-name="f_t_y" unicode="&#xfb34;" horiz-adv-x="1193" 
d="M265 356v-356h-200v356h-55v164h55v24q0 196 200 196q16 0 38.5 -3t36.5 -5l15 -3l-14 -149l-13 -6q-15 2 -28 2q-35 0 -35 -36v-20h120l60 120h140v-120h278l48 -170l11 -100h13l10 100l41 170h199l-152 -570q-22 -84 -65.5 -123t-122.5 -39q-32 0 -61 6t-42 12l-14 6
l17 126l19 18q26 -4 46 -4q38 0 46 30l4 18h-38l-108 356h-129v-146q0 -31 11.5 -44.5t39.5 -13.5l41 5l13 -7v-141q-42 -21 -108 -21q-118 0 -157.5 50.5t-39.5 166.5v151h-120z" />
    <glyph glyph-name="Adblgrave.sc" unicode="&#xfff0;" horiz-adv-x="556" 
d="M347 0l-13 73h-112l-13 -73h-201l130 550h280l130 -550h-201zM254 250l-7 -37h61l-6 37l-18 150h-12q-14 -130 -18 -150zM55 694v56h132l57 -117l-11 -23h-63zM239 694v56h132l56 -117l-10 -23h-63z" />
    <glyph glyph-name="Ainvertedbreve.sc" unicode="&#xfff1;" horiz-adv-x="556" 
d="M347 0l-13 73h-112l-13 -73h-201l130 550h280l130 -550h-201zM254 250l-7 -37h61l-6 37l-18 150h-12q-14 -130 -18 -150zM232 610h-114q0 70 34.5 111.5t125.5 41.5q90 0 124.5 -41.5t34.5 -111.5h-116q0 6 -2.5 13.5t-13 16.5t-27.5 9q-18 0 -29.5 -9t-14 -17t-2.5 -13z
" />
    <glyph glyph-name="Edblgrave.sc" unicode="&#xfff2;" horiz-adv-x="389" 
d="M32 0v550h339v-164h-139v-40h109v-138h-109v-44h149v-164h-349zM-3 693v56h132l57 -117l-11 -23h-63zM181 693v56h132l56 -117l-10 -23h-63z" />
    <glyph glyph-name="Einvertedbreve.sc" unicode="&#xfff3;" horiz-adv-x="389" 
d="M32 0v550h339v-164h-139v-40h109v-138h-109v-44h149v-164h-349zM160 610h-114q0 70 34.5 111.5t125.5 41.5q90 0 124.5 -41.5t34.5 -111.5h-116q0 6 -2.5 13.5t-13 16.5t-27.5 9q-18 0 -29.5 -9t-14 -17t-2.5 -13z" />
    <glyph glyph-name="Idblgrave.sc" unicode="&#xfff4;" horiz-adv-x="264" 
d="M32 0v550h200v-550h-200zM-81 694v56h132l57 -117l-11 -23h-63zM103 694v56h132l56 -117l-10 -23h-63z" />
    <glyph glyph-name="Iinvertedbreve.sc" unicode="&#xfff5;" horiz-adv-x="264" 
d="M32 0v550h200v-550h-200zM87 610h-114q0 70 34.5 111.5t125.5 41.5q90 0 124.5 -41.5t34.5 -111.5h-116q0 6 -2.5 13.5t-13 16.5t-27.5 9q-18 0 -29.5 -9t-14 -17t-2.5 -13z" />
    <glyph glyph-name="Odblgrave.sc" unicode="&#xfff6;" horiz-adv-x="494" 
d="M237 562h20q222 0 222 -270v-35q0 -269 -222 -269h-20q-222 0 -222 269v35q0 270 222 270zM277 182v186q0 40 -30 40t-30 -40v-186q0 -40 30 -40t30 40zM28 694v56h132l57 -117l-11 -23h-63zM212 694v56h132l56 -117l-10 -23h-63z" />
    <glyph glyph-name="Oinvertedbreve.sc" unicode="&#xfff7;" horiz-adv-x="494" 
d="M237 562h20q222 0 222 -270v-35q0 -269 -222 -269h-20q-222 0 -222 269v35q0 270 222 270zM277 182v186q0 40 -30 40t-30 -40v-186q0 -40 30 -40t30 40zM202 609h-114q0 70 34.5 111.5t125.5 41.5q90 0 124.5 -41.5t34.5 -111.5h-116q0 6 -2.5 13.5t-13 16.5t-27.5 9
q-18 0 -29.5 -9t-14 -17t-2.5 -13z" />
    <glyph glyph-name="Rdblgrave.sc" unicode="&#xfff8;" horiz-adv-x="520" 
d="M251 386h-19v-95h17q29 0 41 6.5t12 32.5v9q0 26 -12.5 36.5t-38.5 10.5zM512 0h-208l-41 133q-7 20 -23 20h-8v-153h-200v550h246q115 0 169.5 -51.5t54.5 -138.5v-20q0 -97 -80 -132v-4q33 -19 48 -67zM13 693v56h132l57 -117l-11 -23h-63zM197 693v56h132l56 -117
l-10 -23h-63z" />
    <glyph glyph-name="Rinvertedbreve.sc" unicode="&#xfff9;" horiz-adv-x="520" 
d="M251 386h-19v-95h17q29 0 41 6.5t12 32.5v9q0 26 -12.5 36.5t-38.5 10.5zM512 0h-208l-41 133q-7 20 -23 20h-8v-153h-200v550h246q115 0 169.5 -51.5t54.5 -138.5v-20q0 -97 -80 -132v-4q33 -19 48 -67zM197 609h-114q0 70 34.5 111.5t125.5 41.5q90 0 124.5 -41.5
t34.5 -111.5h-116q0 6 -2.5 13.5t-13 16.5t-27.5 9q-18 0 -29.5 -9t-14 -17t-2.5 -13z" />
    <glyph glyph-name="Udblgrave.sc" unicode="&#xfffa;" horiz-adv-x="524" 
d="M292 550h200v-350q0 -105 -56.5 -158.5t-163.5 -53.5h-20q-107 0 -163.5 53.5t-56.5 158.5v350h200v-362q0 -36 30 -36t30 36v362zM40 693v56h132l57 -117l-11 -23h-63zM224 693v56h132l56 -117l-10 -23h-63z" />
    <glyph glyph-name="Uinvertedbreve.sc" unicode="&#xfffb;" horiz-adv-x="524" 
d="M292 550h200v-350q0 -105 -56.5 -158.5t-163.5 -53.5h-20q-107 0 -163.5 53.5t-56.5 158.5v350h200v-362q0 -36 30 -36t30 36v362zM217 610h-114q0 70 34.5 111.5t125.5 41.5q90 0 124.5 -41.5t34.5 -111.5h-116q0 6 -2.5 13.5t-13 16.5t-27.5 9q-18 0 -29.5 -9t-14 -17
t-2.5 -13z" />
    </font>
</defs>
</svg>
