<?xml version="1.0" standalone="no"?>
<!DOCTYPE svg PUBLIC "-//W3C//DTD SVG 1.1//EN" "http://www.w3.org/Graphics/SVG/1.1/DTD/svg11.dtd" >
<svg xmlns="http://www.w3.org/2000/svg" xmlns:xlink="http://www.w3.org/1999/xlink" version="1.1">
<metadata>
Created by FontForge 20170731 at Thu Jun 14 06:12:12 2012
 By Aleksey,,,
Copyright (c) 2012 by Nikola &#38; Zoran Kostic. All rights reserved.
</metadata>
<defs>
<font id="Breakers-Thin" horiz-adv-x="500" >
  <font-face 
    font-family="Breakers"
    font-weight="250"
    font-stretch="normal"
    units-per-em="1000"
    panose-1="2 0 0 0 0 0 0 0 0 0"
    ascent="800"
    descent="-200"
    x-height="520"
    cap-height="660"
    bbox="-116 -215 1010 910"
    underline-thickness="50"
    underline-position="-150"
    unicode-range="U+0020-FFFB"
  />
<missing-glyph horiz-adv-x="470" 
d="M117 59h235v616h-235v-616zM59 0v733h353v-733h-353z" />
    <glyph glyph-name="f_f" unicode="ff" horiz-adv-x="585" 
d="M130 490v-490h-30v490h-80v30h80v60q0 84 27.5 122t102.5 38l75 -8l-2 -22l-7 -6q-49 6 -66 6q-61 0 -80.5 -27.5t-19.5 -102.5v-60h240v60q0 84 27.5 122t102.5 38l75 -8l-2 -22l-7 -6q-49 6 -66 6q-61 0 -80.5 -27.5t-19.5 -102.5v-60h175v-30h-175v-490h-30v490h-240z
" />
    <glyph glyph-name="fi" unicode="fi" horiz-adv-x="460" 
d="M350 0v490h-220v-490h-30v490h-80v30h80v60q0 84 27.5 122t102.5 38q31 0 63.5 -6t49.5 -12l17 -7l-2 -21l-11 -6q-61 22 -117 22q-61 0 -80.5 -27.5t-19.5 -102.5v-60h250v-520h-30z" />
    <glyph glyph-name="fl" unicode="fl" horiz-adv-x="523" 
d="M20 490v30h80v60q0 84 28 122t112 38q36 0 76 -7.5t62 -14.5l22 -8v-605q0 -47 14.5 -67t45.5 -20l32 3l6 -5v-23q-13 -5 -38 -5q-90 0 -90 117v584q-65 21 -130 21q-69 0 -89.5 -27t-20.5 -103v-60h155v-30h-155v-490h-30v490h-80z" />
    <glyph glyph-name="f_f_i" unicode="ffi" horiz-adv-x="730" 
d="M130 490v-490h-30v490h-80v30h80v60q0 84 27.5 122t102.5 38l75 -8l-2 -22l-7 -6q-49 6 -66 6q-61 0 -80.5 -27.5t-19.5 -102.5v-60h240v60q0 84 27.5 122t102.5 38q31 0 63.5 -6t49.5 -12l17 -7l-2 -21l-11 -6q-61 22 -117 22q-61 0 -80.5 -27.5t-19.5 -102.5v-60h250
v-520h-30v490h-220v-490h-30v490h-240z" />
    <glyph glyph-name="f_f_l" unicode="ffl" horiz-adv-x="793" 
d="M130 490v-490h-30v490h-80v30h80v60q0 84 27.5 122t102.5 38l75 -8l-2 -22l-7 -6q-49 6 -66 6q-61 0 -80.5 -27.5t-19.5 -102.5v-60h240v60q0 84 28 122t112 38q36 0 76 -7.5t62 -14.5l22 -8v-605q0 -47 14.5 -67t45.5 -20l32 3l6 -5v-23q-13 -5 -38 -5q-90 0 -90 117
v584q-65 21 -130 21q-69 0 -89.5 -27t-20.5 -103v-60h155v-30h-155v-490h-30v490h-240z" />
    <glyph glyph-name="f_t" unicode="ft" horiz-adv-x="545" 
d="M130 490v-490h-30v490h-80v30h80v60q0 84 27.5 122t102.5 38q15 0 31 -2t25 -4l9 -1l-2 -22l-7 -6q-34 5 -56 5q-61 0 -80.5 -27.5t-19.5 -102.5v-60h220v120h30v-120h140v-30h-140v-375q0 -55 21.5 -76t60.5 -21l51 6l7 -5v-23q-28 -8 -58 -8q-112 0 -112 127v375h-220z
" />
    <glyph glyph-name="f_f_t" unicode="fft" horiz-adv-x="815" 
d="M400 490v-490h-30v490h-240v-490h-30v490h-80v30h80v60q0 84 27.5 122t102.5 38l75 -8l-2 -22l-7 -6q-49 6 -66 6q-61 0 -80.5 -27.5t-19.5 -102.5v-60h240v60q0 84 27.5 122t102.5 38q15 0 31 -2t25 -4l9 -1l-2 -22l-7 -6q-34 5 -56 5q-61 0 -80.5 -27.5t-19.5 -102.5
v-60h220v120h30v-120h140v-30h-140v-375q0 -55 21.5 -76t60.5 -21l51 6l7 -5v-23q-28 -8 -58 -8q-112 0 -112 127v375h-220z" />
    <glyph glyph-name="f_b" unicode="fb" horiz-adv-x="795" 
d="M20 490v30h80v60q0 84 28 122t112 38q36 0 76 -7.5t62 -14.5l22 -8v-241h1q76 63 164 63q85 0 130 -57t45 -190v-55q0 -125 -48 -183.5t-127 -58.5q-91 0 -164 73h-2l-9 -61h-20v689q-65 21 -130 21q-69 0 -89.5 -27t-20.5 -103v-60h155v-30h-155v-490h-30v490h-80z
M710 230v45q0 127 -36.5 177t-108.5 50q-40 0 -81.5 -15t-62.5 -31l-21 -15v-345q8 -9 22 -22t57 -34.5t86 -21.5q145 0 145 212z" />
    <glyph glyph-name="f_h" unicode="fh" horiz-adv-x="805" 
d="M400 0h-30v689q-65 21 -130 21q-69 0 -89.5 -27t-20.5 -103v-60h155v-30h-155v-490h-30v490h-80v30h80v60q0 84 28 122t112 38q36 0 76 -7.5t62 -14.5l22 -8v-251h2q88 73 183 73q69 0 107 -42t38 -120v-370h-30v365q0 137 -115 137q-96 0 -185 -76v-426z" />
    <glyph glyph-name="f_j" unicode="fj" horiz-adv-x="460" 
d="M20 490v30h80v60q0 84 27.5 122t102.5 38q31 0 63.5 -6t49.5 -12l17 -7l-2 -21l-11 -6q-61 22 -117 22q-61 0 -80.5 -27.5t-19.5 -102.5v-60h250v-595q0 -137 -100 -137q-11 0 -25 2t-22 4l-8 3l4 24l7 4q24 -7 44 -7q35 0 52.5 24t17.5 83v565h-220v-490h-30v490h-80z
" />
    <glyph glyph-name="f_k" unicode="fk" horiz-adv-x="718" 
d="M400 0h-30v689q-65 21 -130 21q-69 0 -89.5 -27t-20.5 -103v-60h155v-30h-155v-490h-30v490h-80v30h80v60q0 84 28 122t112 38q36 0 76 -7.5t62 -14.5l22 -8v-430h48l202 240h38l-213 -254l223 -266h-38l-210 250h-50v-250z" />
    <glyph glyph-name="f_y" unicode="fy" horiz-adv-x="691" 
d="M20 490v30h80v60q0 84 27.5 122t102.5 38l75 -8l-2 -22l-7 -6q-49 6 -66 6q-61 0 -80.5 -27.5t-19.5 -102.5v-60h185l143 -393l26 -91h4l24 91l128 393h31l-198 -615q-20 -62 -43.5 -89.5t-67.5 -27.5l-38 5l4 23l6 5q10 -3 28 -3q31 0 47.5 20.5t36.5 81.5l26 80
l-178 490h-164v-490h-30v490h-80z" />
    <glyph glyph-name="f_f_b" unicode="ffb" horiz-adv-x="1065" 
d="M130 490v-490h-30v490h-80v30h80v60q0 84 27.5 122t102.5 38l75 -8l-2 -22l-7 -6q-49 6 -66 6q-61 0 -80.5 -27.5t-19.5 -102.5v-60h240v60q0 84 28 122t112 38q36 0 76 -7.5t62 -14.5l22 -8v-241h1q76 63 164 63q85 0 130 -57t45 -190v-55q0 -125 -48 -183.5t-127 -58.5
q-91 0 -164 73h-2l-9 -61h-20v689q-65 21 -130 21q-69 0 -89.5 -27t-20.5 -103v-60h155v-30h-155v-490h-30v490h-240zM980 230v45q0 127 -36.5 177t-108.5 50q-40 0 -81.5 -15t-62.5 -31l-21 -15v-345q8 -9 22 -22t57 -34.5t86 -21.5q145 0 145 212z" />
    <glyph glyph-name="f_f_h" unicode="ffh" horiz-adv-x="1075" 
d="M130 490v-490h-30v490h-80v30h80v60q0 84 27.5 122t102.5 38l75 -8l-2 -22l-7 -6q-49 6 -66 6q-61 0 -80.5 -27.5t-19.5 -102.5v-60h240v60q0 84 28 122t112 38q36 0 76 -7.5t62 -14.5l22 -8v-251h2q88 73 183 73q69 0 107 -42t38 -120v-370h-30v365q0 137 -115 137
q-96 0 -185 -76v-426h-30v689q-65 21 -130 21q-69 0 -89.5 -27t-20.5 -103v-60h155v-30h-155v-490h-30v490h-240z" />
    <glyph glyph-name="f_f_j" unicode="ffj" horiz-adv-x="730" 
d="M130 490v-490h-30v490h-80v30h80v60q0 84 27.5 122t102.5 38l75 -8l-2 -22l-7 -6q-49 6 -66 6q-61 0 -80.5 -27.5t-19.5 -102.5v-60h240v60q0 84 27.5 122t102.5 38q31 0 63.5 -6t49.5 -12l17 -7l-2 -21l-11 -6q-61 22 -117 22q-61 0 -80.5 -27.5t-19.5 -102.5v-60h250
v-595q0 -137 -100 -137q-11 0 -25 2t-22 4l-8 3l4 24l7 4q24 -7 44 -7q35 0 52.5 24t17.5 83v565h-220v-490h-30v490h-240z" />
    <glyph glyph-name="f_f_k" unicode="ffk" horiz-adv-x="988" 
d="M130 490v-490h-30v490h-80v30h80v60q0 84 27.5 122t102.5 38l75 -8l-2 -22l-7 -6q-49 6 -66 6q-61 0 -80.5 -27.5t-19.5 -102.5v-60h240v60q0 84 28 122t112 38q36 0 76 -7.5t62 -14.5l22 -8v-430h48l202 240h38l-213 -254l223 -266h-38l-210 250h-50v-250h-30v689
q-65 21 -130 21q-69 0 -89.5 -27t-20.5 -103v-60h155v-30h-155v-490h-30v490h-240z" />
    <glyph glyph-name="f_f_y" unicode="ffy" horiz-adv-x="961" 
d="M130 490v-490h-30v490h-80v30h80v60q0 84 27.5 122t102.5 38l75 -8l-2 -22l-7 -6q-49 6 -66 6q-61 0 -80.5 -27.5t-19.5 -102.5v-60h240v60q0 84 27.5 122t102.5 38l75 -8l-2 -22l-7 -6q-49 6 -66 6q-61 0 -80.5 -27.5t-19.5 -102.5v-60h185l143 -393l26 -91h4l24 91
l128 393h31l-198 -615q-20 -62 -43.5 -89.5t-67.5 -27.5l-38 5l4 23l6 5q10 -3 28 -3q31 0 47.5 20.5t36.5 81.5l26 80l-178 490h-164v-490h-30v490h-240z" />
    <glyph glyph-name="t_t" unicode="tt" horiz-adv-x="570" 
d="M25 490v30h80v120h30v-120h240v120h30v-120h140v-30h-140v-375q0 -55 21.5 -76t60.5 -21l51 6l7 -5v-23q-28 -8 -58 -8q-112 0 -112 127v375h-240v-375q0 -55 21.5 -76t60.5 -21l51 6l7 -5v-23q-28 -8 -58 -8q-112 0 -112 127v375h-80z" />
    <glyph glyph-name="t_y" unicode="ty" horiz-adv-x="696" 
d="M25 490v30h80v120h30v-120h185l143 -393l26 -91h4l24 91l128 393h31l-198 -615q-20 -62 -43.5 -89.5t-67.5 -27.5l-38 5l4 23l6 5q10 -3 28 -3q31 0 47.5 20.5t36.5 81.5l26 80l-178 490h-164v-375q0 -55 21.5 -76t60.5 -21l51 6l7 -5v-23q-28 -8 -58 -8q-112 0 -112 127
v375h-80z" />
    <glyph glyph-name="t_t_y" unicode="tty" horiz-adv-x="966" 
d="M135 490v-375q0 -55 21.5 -76t60.5 -21l51 6l7 -5v-23q-28 -8 -58 -8q-112 0 -112 127v375h-80v30h80v120h30v-120h240v120h30v-120h185l143 -393l26 -91h4l24 91l128 393h31l-198 -615q-20 -62 -43.5 -89.5t-67.5 -27.5l-38 5l4 23l6 5q10 -3 28 -3q31 0 47.5 20.5
t36.5 81.5l26 80l-178 490h-164v-375q0 -55 21.5 -76t60.5 -21l51 6l7 -5v-23q-28 -8 -58 -8q-112 0 -112 127v375h-240z" />
    <glyph glyph-name=".notdef" horiz-adv-x="470" 
d="M117 59h235v616h-235v-616zM59 0v733h353v-733h-353z" />
    <glyph glyph-name=".null" horiz-adv-x="0" 
 />
    <glyph glyph-name="nonmarkingreturn" horiz-adv-x="333" 
 />
    <glyph glyph-name="space" unicode=" " horiz-adv-x="220" 
 />
    <glyph glyph-name="exclam" unicode="!" horiz-adv-x="216" 
d="M105 692h6q15 0 15 -17v-105l-9 -385h-18l-9 385v105q0 17 15 17zM80 22q0 33 28 33t28 -33q0 -32 -28 -32t-28 32z" />
    <glyph glyph-name="quotedbl" unicode="&#x22;" horiz-adv-x="226" 
d="M65 700h5q12 0 16.5 -5t4.5 -18v-25l-12 -117h-23l-11 117v25q0 23 20 23zM155 700h5q12 0 16.5 -5t4.5 -18v-25l-12 -117h-23l-11 117v25q0 23 20 23z" />
    <glyph glyph-name="numbersign" unicode="#" horiz-adv-x="630" 
d="M98 460l6 30h125l33 170h30l-33 -170h170l33 170h30l-33 -170h125l-6 -30h-125l-47 -240h126l-6 -30h-126l-37 -190h-30l37 190h-170l-37 -190h-30l37 190h-124l6 30h124l47 240h-125zM253 460l-47 -240h170l47 240h-170z" />
    <glyph glyph-name="dollar" unicode="$" horiz-adv-x="480" 
d="M170 -100v90q-56 4 -99 18l-1 25l11 4q40 -12 89 -17v314q-62 19 -91 57t-29 99q0 120 120 152v98h30v-92q34 4 57 4q15 0 23 -1v89h30v-91q22 -2 43 -6t31 -7l11 -2l-1 -24l-8 -5q-33 9 -76 14v-289q120 -43 120 -162q0 -65 -26.5 -108.5t-93.5 -60.5v-99h-30v93
q-33 -5 -65 -5h-15v-88h-30zM270 310l-70 16v-308h15q40 0 65 4v285zM205 356l70 -16q1 -1 2 -1q2 -1 3 -1v283q-8 1 -23 1q-34 0 -57 -4v-261q1 -1 5 -1zM400 168q0 94 -90 130v-269q48 15 69 48.5t21 90.5zM80 490q0 -92 90 -124v245q-90 -28 -90 -121z" />
    <glyph glyph-name="percent" unicode="%" horiz-adv-x="680" 
d="M164 650h3q50 0 81.5 -37.5t31.5 -113.5v-41q0 -75 -31.5 -112.5t-81.5 -37.5h-3q-50 0 -82 37.5t-32 112.5v41q0 76 32 113.5t82 37.5zM250 455v48q0 49 -19.5 83t-65.5 34q-85 0 -85 -117v-48q0 -117 85 -117q46 0 65.5 34t19.5 83zM122 -12l406 671h36l-406 -671h-36z
M514 330h3q50 0 81.5 -37.5t31.5 -113.5v-41q0 -75 -31.5 -112.5t-81.5 -37.5h-3q-50 0 -82 37.5t-32 112.5v41q0 76 32 113.5t82 37.5zM600 135v48q0 49 -19.5 83t-65.5 34q-85 0 -85 -117v-48q0 -117 85 -117q46 0 65.5 34t19.5 83z" />
    <glyph glyph-name="ampersand" unicode="&#x26;" horiz-adv-x="575" 
d="M460 320v-55q0 -86 -30 -149l105 -116h-41l-80 87q-64 -99 -184 -99q-85 0 -132.5 42.5t-47.5 114.5q0 52 31.5 93t109.5 95v2l-18 20q-51 57 -72 94t-21 86q0 62 41 99.5t114 37.5q68 0 111.5 -39t43.5 -103q0 -55 -30.5 -97t-119.5 -103v-4l155 -171l12 -16h2
q21 55 21 121v60h30zM230 18q107 0 163 93l-180 200l-10 -7q-70 -49 -96.5 -83.5t-26.5 -75.5q0 -61 41.5 -94t108.5 -33zM110 535q0 -41 18.5 -73t68.5 -88l20 -23l3 2q84 58 112 93.5t28 83.5q0 57 -37 84.5t-88 27.5q-53 0 -89 -27t-36 -80z" />
    <glyph glyph-name="quotesingle" unicode="'" horiz-adv-x="136" 
d="M65 700h5q12 0 16.5 -5t4.5 -18v-25l-12 -117h-23l-11 117v25q0 23 20 23z" />
    <glyph glyph-name="parenleft" unicode="(" horiz-adv-x="240" 
d="M190 -100h-34q-4 7 -10.5 20.5t-23 56.5t-29 86.5t-23 106t-10.5 120.5q0 67 12 135t29 117t34 88.5t29 59.5l12 20h34q-5 -7 -13 -20.5t-28.5 -57.5t-36.5 -90.5t-29 -115.5t-13 -136q0 -60 10.5 -122.5t25 -108.5t29 -83t25.5 -56z" />
    <glyph glyph-name="parenright" unicode=")" horiz-adv-x="240" 
d="M84 -100h-34q4 7 11 20t24 55t30 85t24 106.5t11 123.5q0 67 -12.5 135t-30 117t-35 88.5t-30.5 59.5l-12 20h34q5 -7 12.5 -21t27.5 -58t35.5 -90t28 -115t12.5 -136q0 -92 -24 -189.5t-48 -148.5z" />
    <glyph glyph-name="asterisk" unicode="*" horiz-adv-x="475" 
d="M18 579l1 4q4 13 8.5 14.5t15.5 -3.5l27 -9l133 -51l14 -5l8 7v14l-8 142v28q0 13 2.5 16.5t15.5 3.5h4q13 0 15.5 -3t2.5 -13v-4v-28l-8 -142v-14l8 -7l14 5l133 51l27 9q12 5 16 3t7 -12l2 -6q2 -4 2.5 -7t0.5 -5.5t-0.5 -3.5t-2 -2t-3 -1.5t-5 -1.5t-5.5 -2l-27 -9
l-137 -36l-13 -4l-4 -12l8 -10l90 -111l17 -23q7 -9 7 -13.5t-10 -11.5l-4 -3q-14 -7 -15.5 -6.5t-10.5 11.5l-16 23l-77 119l-8 12h-12l-8 -11l-77 -120l-16 -23q-8 -11 -11.5 -11.5t-15.5 6.5l-3 2q-11 10 -11 13t8 14l17 23l90 110l8 11l-4 11l-13 4l-137 36l-27 9
q-12 4 -14 7t1 16z" />
    <glyph glyph-name="plus" unicode="+" 
d="M470 285h-205v-205h-30v205h-205v30h205v205h30v-205h205v-30z" />
    <glyph glyph-name="comma" unicode="," horiz-adv-x="176" 
d="M60 22q0 33 28 33t28 -33q0 -19 -14 -62l-22 -70h-20v10l17 88q-17 8 -17 34z" />
    <glyph glyph-name="hyphen" unicode="-" horiz-adv-x="334" 
d="M292 285h-250v30h250v-30z" />
    <glyph glyph-name="period" unicode="." horiz-adv-x="176" 
d="M60 22q0 33 28 33t28 -33q0 -32 -28 -32t-28 32z" />
    <glyph glyph-name="slash" unicode="/" horiz-adv-x="446" 
d="M20 -100l374 840h32l-374 -840h-32z" />
    <glyph glyph-name="zero" unicode="0" horiz-adv-x="540" 
d="M269 672h2q97 0 153 -77.5t56 -223.5v-82q0 -146 -56 -223.5t-153 -77.5h-2q-97 0 -153 77.5t-56 223.5v82q0 146 56 223.5t153 77.5zM450 282v97q0 131 -49 197t-131 66t-131 -66t-49 -197v-97q0 -132 49 -198t131 -66t131 66t49 198z" />
    <glyph glyph-name="one" unicode="1" horiz-adv-x="300" 
d="M20 520v26l160 114h20v-660h-30v611l-4 2l-136 -93h-10z" />
    <glyph glyph-name="two" unicode="2" horiz-adv-x="478" 
d="M428 485v-5q0 -79 -39 -125.5t-116 -90.5l-94 -53q-55 -31 -78 -66t-23 -85v-30h340v-30h-370v60q0 57 27 100t90 79l91 51q76 43 109 84.5t33 105.5v5q0 69 -41 113t-126 44q-33 0 -73.5 -10t-63.5 -20l-24 -9l-7 2q-3 14 -4 24q77 43 172 43q96 0 146.5 -52t50.5 -135z
" />
    <glyph glyph-name="three" unicode="3" horiz-adv-x="454" 
d="M404 185v-5q0 -82 -57 -137t-156 -55q-39 0 -76.5 6t-56.5 12l-18 6l2 23l9 5q67 -22 140 -22q89 0 136 48t47 114v5q0 66 -48.5 104.5t-131.5 38.5h-90v30h90q66 0 113 43t47 101v5q0 58 -41.5 96.5t-114.5 38.5q-30 0 -63.5 -8t-52.5 -16l-18 -7l-11 3q-3 11 -4 21
q61 37 149 37q92 0 139 -49t47 -116v-5q0 -56 -31.5 -96.5t-72.5 -56.5v-3q49 -14 86.5 -54t37.5 -107z" />
    <glyph glyph-name="four" unicode="4" horiz-adv-x="480" 
d="M30 170l222 490h33l-222 -490h282v230h30v-230h95v-30h-95v-140h-30v140h-315v30z" />
    <glyph glyph-name="five" unicode="5" horiz-adv-x="472" 
d="M414 226v-26q0 -98 -46.5 -155t-143.5 -57q-40 0 -78.5 8t-57.5 16l-18 9l3 23l9 4q68 -30 142 -30q81 0 120.5 48t39.5 134v26q0 156 -150 156q-33 0 -69 -11t-55 -22l-19 -11l-25 7l18 315h290v-30h-262l-15 -256q63 38 137 38q86 0 133 -45.5t47 -140.5z" />
    <glyph glyph-name="six" unicode="6" horiz-adv-x="520" 
d="M90 350v-11q35 30 84.5 52t100.5 22q92 0 138.5 -52t46.5 -136v-25q0 -96 -49.5 -154t-140.5 -58q-99 0 -154.5 72t-55.5 215v65q0 332 240 332q27 0 54.5 -5t41.5 -10l15 -5l-2 -24l-8 -5q-51 19 -101 19q-210 0 -210 -292zM275 383q-94 0 -185 -79v-39
q0 -131 50.5 -189t129.5 -58q72 0 116 46.5t44 130.5v35q0 74 -42 113.5t-113 39.5z" />
    <glyph glyph-name="seven" unicode="7" horiz-adv-x="430" 
d="M30 630v30h380v-30l-306 -630h-34l304 625v5h-344z" />
    <glyph glyph-name="eight" unicode="8" 
d="M50 155q0 66 34 113t112 84v3q-29 14 -47 25t-40 30.5t-33 47t-11 62.5q0 68 50 110t135 42q87 0 136 -40t49 -112q0 -61 -31.5 -102.5t-100.5 -77.5v-5q71 -36 109 -76t38 -104q0 -82 -56 -124.5t-144 -42.5t-144 42.5t-56 124.5zM283 312l-52 26q-82 -37 -116.5 -81
t-34.5 -102q0 -64 44 -100.5t126 -36.5t126 36.5t44 100.5q0 47 -27.5 81.5t-109.5 75.5zM95 520q0 -45 26.5 -76.5t99.5 -67.5l45 -23q73 35 106 72t33 95q0 55 -41 88.5t-114 33.5t-114 -33.5t-41 -88.5z" />
    <glyph glyph-name="nine" unicode="9" horiz-adv-x="520" 
d="M220 18q210 0 210 292v1q-82 -64 -185 -64q-92 0 -138.5 52t-46.5 136v25q0 95 54 153.5t146 58.5q200 0 200 -287v-65q0 -332 -240 -332q-27 0 -54.5 5t-41.5 10l-15 5l2 24l8 5q51 -19 101 -19zM245 277q105 0 185 68v50q0 247 -170 247q-74 0 -122 -47t-48 -130v-35
q0 -74 42 -113.5t113 -39.5z" />
    <glyph glyph-name="colon" unicode=":" horiz-adv-x="176" 
d="M60 22q0 33 28 33t28 -33q0 -32 -28 -32t-28 32zM60 437q0 33 28 33t28 -33q0 -32 -28 -32t-28 32z" />
    <glyph glyph-name="semicolon" unicode=";" horiz-adv-x="176" 
d="M60 437q0 33 28 33t28 -33q0 -32 -28 -32t-28 32zM60 22q0 33 28 33t28 -33q0 -19 -14 -62l-22 -70h-20v10l17 88q-17 8 -17 34z" />
    <glyph glyph-name="less" unicode="&#x3c;" 
d="M421 74v-26h-15l-327 226v30l327 228h15v-27l-310 -216z" />
    <glyph glyph-name="equal" unicode="=" 
d="M450 350h-400v30h400v-30zM450 200h-400v30h400v-30z" />
    <glyph glyph-name="greater" unicode="&#x3e;" 
d="M79 506v26h15l327 -226v-30l-327 -228h-15v27l310 216z" />
    <glyph glyph-name="question" unicode="?" horiz-adv-x="412" 
d="M362 521v-5q0 -53 -24.5 -89t-80.5 -81q-53 -43 -67 -64.5t-14 -61.5v-55h-30v55q0 50 16 75.5t81 77.5q48 38 68.5 69t20.5 74v5q0 54 -38.5 87.5t-113.5 33.5q-26 0 -54 -4t-42 -8l-15 -5l-8 4q-2 8 -3 23q0 1 16 5.5t46.5 9.5t59.5 5q90 0 136 -42t46 -109zM133 22
q0 33 28 33t28 -33q0 -32 -28 -32t-28 32z" />
    <glyph glyph-name="at" unicode="@" horiz-adv-x="835" 
d="M426 502q-45 0 -79.5 -30.5t-52.5 -75.5t-26.5 -87.5t-8.5 -76.5q0 -69 23.5 -101.5t57.5 -32.5q43 0 97 66.5t108 201.5l20 91q-70 45 -139 45zM601 68q-55 1 -76 38.5t-10 99.5l6 30l9 32l-4 2q-35 -92 -85 -147t-101 -55q-50 0 -80.5 42.5t-30.5 121.5q0 39 10 86
t31 97t62 83.5t94 33.5q69 0 145 -46l18 34h20l-60 -300q-12 -65 1 -93.5t51 -28.5q61 0 107.5 77t46.5 195v34q0 130 -90 204t-237 74h-21q-145 0 -236 -101.5t-91 -262.5v-66q0 -159 90 -250.5t237 -91.5h11q115 0 239 27l3 -23q-114 -34 -242 -34h-11q-162 0 -259.5 99.5
t-97.5 272.5v66q0 175 99 284.5t258 109.5h21q162 0 259.5 -81.5t97.5 -226.5v-34q0 -131 -52 -216.5t-132 -85.5z" />
    <glyph glyph-name="A" unicode="A" horiz-adv-x="493" 
d="M15 0l214 660h35l214 -660h-33l-68 210h-262l-67 -210h-33zM238 590l-113 -350h242l-112 350l-7 35h-3q-4 -25 -7 -35z" />
    <glyph glyph-name="B" unicode="B" horiz-adv-x="478" 
d="M80 0v660h142q198 0 198 -176v-8q0 -51 -15 -84.5t-56 -52.5v-4q91 -27 91 -151v-8q0 -75 -40 -125.5t-128 -50.5h-192zM280 320h-170v-290h162q71 0 104.5 39t33.5 96v25q0 130 -130 130zM222 630h-112v-280h170q52 0 81 31t29 84v22q0 143 -168 143z" />
    <glyph glyph-name="C" unicode="C" horiz-adv-x="433" 
d="M404 8q-54 -20 -113 -20q-233 0 -233 312v35q0 337 225 337q25 0 50 -3.5t37 -6.5l13 -4l-3 -22l-8 -5q-42 11 -89 11q-195 0 -195 -309v-21q0 -152 49 -223t154 -71q24 0 49.5 4t38.5 8l13 5l9 -3q3 -19 3 -24z" />
    <glyph glyph-name="D" unicode="D" horiz-adv-x="538" 
d="M80 0v660h172q106 0 167 -68.5t61 -201.5v-155q0 -113 -51 -174t-147 -61h-202zM252 630h-142v-600h172q81 0 124.5 52t43.5 153v155q0 122 -53 181t-145 59z" />
    <glyph glyph-name="E" unicode="E" horiz-adv-x="399" 
d="M80 0v660h290v-30h-260v-270h230v-30h-230v-300h270v-30h-300z" />
    <glyph glyph-name="F" unicode="F" horiz-adv-x="389" 
d="M80 0v660h290v-30h-260v-270h230v-30h-230v-330h-30z" />
    <glyph glyph-name="G" unicode="G" horiz-adv-x="512" 
d="M277 18q39 0 75.5 15.5t53.5 30.5l17 16v280h30v-360h-20l-8 45q-24 -24 -64 -40.5t-84 -16.5q-45 0 -82 15.5t-69 50.5t-50 99t-18 152v35q0 184 63 258t182 74q29 0 61.5 -5t51.5 -10l18 -5l-2 -23l-7 -5q-65 18 -122 18q-110 0 -162.5 -67.5t-52.5 -239.5v-30
q0 -154 52 -220.5t137 -66.5z" />
    <glyph glyph-name="H" unicode="H" horiz-adv-x="570" 
d="M460 0v320h-350v-320h-30v660h30v-310h350v310h30v-660h-30z" />
    <glyph glyph-name="I" unicode="I" horiz-adv-x="190" 
d="M80 0v660h30v-660h-30z" />
    <glyph glyph-name="J" unicode="J" horiz-adv-x="331" 
d="M30 -1l2 23l9 5q29 -9 70 -9q59 0 84.5 39.5t25.5 132.5v470h30v-475q0 -98 -32 -147.5t-108 -49.5q-21 0 -41.5 2.5t-29.5 5.5z" />
    <glyph glyph-name="K" unicode="K" horiz-adv-x="446" 
d="M436 0h-36l-214 320h-76v-320h-30v660h30v-310h77l208 310h36l-219 -327z" />
    <glyph glyph-name="L" unicode="L" horiz-adv-x="370" 
d="M80 0v660h30v-630h250v-30h-280z" />
    <glyph glyph-name="M" unicode="M" horiz-adv-x="720" 
d="M610 660h30v-660h-30v510l3 84l-3 1q-14 -44 -23 -65l-215 -510h-25l-215 510l-22 65l-3 -1q3 -59 3 -84v-510h-30v660h30l215 -510l33 -86h3q15 45 33 86z" />
    <glyph glyph-name="N" unicode="N" horiz-adv-x="612" 
d="M502 0l-368 568l-25 49l-4 -1l5 -76v-540h-30v660h30l372 -574l21 -42l3 1l-4 75v540h30v-660h-30z" />
    <glyph glyph-name="O" unicode="O" horiz-adv-x="526" 
d="M260 672h6q202 0 202 -322v-40q0 -322 -202 -322h-6q-202 0 -202 322v40q0 322 202 322zM266 642h-6q-90 0 -131 -71.5t-41 -220.5v-40q0 -149 41 -220.5t131 -71.5h6q90 0 131 71.5t41 220.5v40q0 149 -41 220.5t-131 71.5z" />
    <glyph glyph-name="P" unicode="P" horiz-adv-x="448" 
d="M80 0v660h142q198 0 198 -210v-25q0 -87 -50 -131t-138 -44h-122v-250h-30zM222 630h-112v-350h122q158 0 158 145v25q0 93 -40 136.5t-128 43.5z" />
    <glyph glyph-name="Q" unicode="Q" horiz-adv-x="526" 
d="M411 -98l-58 105q-40 -19 -87 -19h-6q-202 0 -202 322v40q0 322 202 322h6q202 0 202 -322v-40q0 -217 -89 -287l59 -107zM266 642h-6q-90 0 -131 -71.5t-41 -220.5v-40q0 -149 41 -220.5t131 -71.5h6q90 0 131 71.5t41 220.5v40q0 149 -41 220.5t-131 71.5z" />
    <glyph glyph-name="R" unicode="R" horiz-adv-x="478" 
d="M440 470v-10q0 -65 -33.5 -107t-96.5 -56v-2q5 -5 16 -25l124 -270h-32l-123 264q-8 16 -16 20.5t-28 5.5h-9h-132v-290h-30v660h142q218 0 218 -190zM222 630h-112v-310h132q168 0 168 140v10q0 86 -47.5 123t-140.5 37z" />
    <glyph glyph-name="S" unicode="S" horiz-adv-x="480" 
d="M80 8l-1 25l10 4q56 -19 126 -19q175 0 175 162q0 53 -28.5 86.5t-95.5 52.5l-66 19q-72 20 -106 58t-34 104q0 77 45.5 124.5t144.5 47.5q27 0 56.5 -3.5t45.5 -6.5l16 -4l-1 -24l-7 -5q-49 13 -110 13q-160 0 -160 -142q0 -55 28.5 -85.5t89.5 -47.5l64 -18
q148 -40 148 -169q0 -84 -47.5 -138t-157.5 -54q-16 0 -32 1t-29 3t-24.5 4t-20 4t-14.5 3.5t-11 2.5z" />
    <glyph glyph-name="T" unicode="T" horiz-adv-x="400" 
d="M15 630v30h370v-30h-170v-630h-30v630h-170z" />
    <glyph glyph-name="U" unicode="U" horiz-adv-x="540" 
d="M440 660h30v-426q0 -246 -195 -246h-10q-195 0 -195 246v426h30v-426q0 -116 42.5 -166t127.5 -50t127.5 50t42.5 166v426z" />
    <glyph glyph-name="V" unicode="V" horiz-adv-x="493" 
d="M478 660l-214 -660h-35l-214 660h33l187 -581l10 -44h3q4 25 10 44l187 581h33z" />
    <glyph glyph-name="W" unicode="W" horiz-adv-x="700" 
d="M522 0h-31l-131 534l-8 56h-4q-4 -39 -8 -56l-131 -534h-31l-163 660h32l128 -520l17 -87h5q3 37 13 77l124 510h32l124 -510l13 -77h5l17 87l128 520h32z" />
    <glyph glyph-name="X" unicode="X" horiz-adv-x="449" 
d="M223 358h2q5 19 11 30l154 272h34l-182 -322l192 -338h-34l-159 279l-16 35h-2q-8 -23 -15 -35l-159 -279h-34l191 338l-181 322h34l153 -272z" />
    <glyph glyph-name="Y" unicode="Y" horiz-adv-x="476" 
d="M15 660h34l161 -325l26 -64h4q9 29 26 63l161 326h34l-208 -420v-240h-30v240z" />
    <glyph glyph-name="Z" unicode="Z" horiz-adv-x="418" 
d="M56 630v30h323v-28l-285 -562l-21 -37v-3h306v-30h-340v28l285 562l21 37v3h-289z" />
    <glyph glyph-name="bracketleft" unicode="[" horiz-adv-x="250" 
d="M80 -120v830h140v-30h-110v-770h110v-30h-140z" />
    <glyph glyph-name="backslash" unicode="\" horiz-adv-x="446" 
d="M52 740l374 -840h-32l-374 840h32z" />
    <glyph glyph-name="bracketright" unicode="]" horiz-adv-x="250" 
d="M170 710v-830h-140v30h110v770h-110v30h140z" />
    <glyph glyph-name="asciicircum" unicode="^" horiz-adv-x="483" 
d="M75 280h-35l190 370h23l190 -370h-35l-165 323h-3z" />
    <glyph glyph-name="underscore" unicode="_" 
d="M500 -70v-30h-500v30h500z" />
    <glyph glyph-name="grave" unicode="`" horiz-adv-x="290" 
d="M87 700v20h33l105 -130l-5 -10h-20z" />
    <glyph glyph-name="a" unicode="a" horiz-adv-x="514" 
d="M385 325v5q0 90 -32.5 131t-122.5 41q-32 0 -67 -5.5t-55 -10.5l-19 -6l-6 6l4 24q63 22 143 22q102 0 143.5 -47.5t41.5 -152.5v-227q0 -47 14 -66.5t43 -23.5l14 -2l3 -5l-5 -19q-3 -1 -9 -1q-87 0 -90 107h-2q-71 -107 -183 -107q-70 0 -112.5 44t-42.5 108v5
q0 140 170 160zM200 18q63 0 106 34t79 90v153l-170 -20q-140 -16 -140 -130v-5q0 -53 35.5 -87.5t89.5 -34.5z" />
    <glyph glyph-name="b" unicode="b" horiz-adv-x="505" 
d="M420 230v45q0 127 -36.5 177t-108.5 50q-40 0 -81.5 -15t-62.5 -31l-21 -15v-345q8 -9 22 -22t57 -34.5t86 -21.5q145 0 145 212zM275 -12q-91 0 -164 73h-2l-9 -61h-20v700h30v-231h1q76 63 164 63q85 0 130 -57t45 -190v-55q0 -125 -48 -183.5t-127 -58.5z" />
    <glyph glyph-name="c" unicode="c" horiz-adv-x="396" 
d="M365 33l4 -22q-49 -23 -114 -23q-102 0 -151 58t-49 199v15q0 149 50 210.5t155 61.5q24 0 49 -4t37 -8l13 -3l-4 -22l-5 -5q-45 12 -90 12q-43 0 -72.5 -9.5t-54 -34.5t-36.5 -74t-12 -124v-15q0 -73 13.5 -121t40.5 -70t53 -29t63 -7q46 0 103 19z" />
    <glyph glyph-name="d" unicode="d" horiz-adv-x="524" 
d="M395 700h30v-595q0 -47 14 -66.5t43 -23.5l14 -2l3 -5l-5 -19q-3 -1 -9 -1q-85 0 -90 104h-2q-68 -104 -173 -104q-74 0 -119.5 58.5t-45.5 183.5v55q0 247 190 247q82 0 149 -61h1v229zM85 275v-45q0 -99 33 -155.5t102 -56.5q94 0 175 119v304q-7 7 -19.5 17t-51.5 27
t-79 17q-74 0 -117 -51t-43 -176z" />
    <glyph glyph-name="e" unicode="e" horiz-adv-x="480" 
d="M421 245h-336q0 -122 50 -174.5t130 -52.5q25 0 49 4.5t37.5 9.5t26.5 10.5t16 6.5l8 -4l3 -21q-6 -4 -19 -11t-48 -16t-73 -9q-100 0 -155 63.5t-55 193.5v35q0 117 52.5 184.5t137.5 67.5h10q78 0 124 -50.5t46 -151.5v-16zM85 281v-6h310v55q0 95 -40.5 133.5
t-99.5 38.5h-10q-68 0 -114 -55t-46 -166z" />
    <glyph glyph-name="f" unicode="f" horiz-adv-x="315" 
d="M20 490v30h80v60q0 84 27.5 122t102.5 38l75 -8l-2 -22l-7 -6q-49 6 -66 6q-61 0 -80.5 -27.5t-19.5 -102.5v-60h175v-30h-175v-490h-30v490h-80z" />
    <glyph glyph-name="g" unicode="g" horiz-adv-x="475" 
d="M448 520h12v-25l-5 -5h-7q-49 0 -80 -31q27 -42 27 -99q0 -82 -44.5 -126t-125.5 -44h-10q-45 0 -79 15q-41 -48 -41 -85q0 -28 18 -44t52 -16h117q76 0 114.5 -34.5t38.5 -89.5v-6q0 -58 -47.5 -100t-147.5 -42h-25q-88 0 -134 36t-46 94v2q0 72 75 121q-45 23 -45 79
q0 44 48 97q-68 44 -68 143q0 74 46.5 123t123.5 49h10q80 0 127 -52q38 40 96 40zM365 357v5q0 59 -37 99.5t-108 40.5t-108 -40.5t-37 -99.5v-5q0 -63 36.5 -100t108.5 -37q145 0 145 137zM165 30q-11 0 -16 1q-84 -43 -84 -111q0 -47 39 -74.5t116 -27.5h15
q83 0 126.5 30.5t43.5 81.5v6q0 42 -29 68t-94 26h-117z" />
    <glyph glyph-name="h" unicode="h" horiz-adv-x="515" 
d="M110 0h-30v700h30v-241h2q88 73 183 73q69 0 107 -42t38 -120v-370h-30v365q0 137 -115 137q-96 0 -185 -76v-426z" />
    <glyph glyph-name="i" unicode="i" horiz-adv-x="190" 
d="M80 0v520h30v-520h-30zM69 642q0 30 26 30t26 -30t-26 -30t-26 30z" />
    <glyph glyph-name="j" unicode="j" horiz-adv-x="190" 
d="M110 520v-595q0 -137 -100 -137q-11 0 -25 2t-22 4l-8 3l4 24l7 4q24 -7 44 -7q35 0 52.5 24t17.5 83v595h30zM69 642q0 30 26 30t26 -30t-26 -30t-26 30z" />
    <glyph glyph-name="k" unicode="k" horiz-adv-x="428" 
d="M110 0h-30v700h30v-420h48l202 240h38l-213 -254l223 -266h-38l-210 250h-50v-250z" />
    <glyph glyph-name="l" unicode="l" horiz-adv-x="233" 
d="M80 700h30v-595q0 -47 14.5 -67t45.5 -20l32 3l6 -5v-23q-13 -5 -38 -5q-90 0 -90 117v595z" />
    <glyph glyph-name="m" unicode="m" horiz-adv-x="765" 
d="M110 0h-30v520h20l9 -61q81 73 166 73q91 0 116 -81q83 81 174 81q58 0 91.5 -36t33.5 -106v-390h-30v385q0 117 -95 117q-86 0 -168 -79q3 -15 3 -33v-390h-30v385q0 117 -95 117q-86 0 -165 -76v-426z" />
    <glyph glyph-name="n" unicode="n" horiz-adv-x="515" 
d="M110 0h-30v520h20l9 -63q90 75 186 75q69 0 107 -42t38 -120v-370h-30v365q0 137 -115 137q-96 0 -185 -76v-426z" />
    <glyph glyph-name="o" unicode="o" 
d="M247 532h6q93 0 142.5 -65.5t49.5 -185.5v-42q0 -120 -49.5 -185.5t-142.5 -65.5h-6q-93 0 -142.5 65.5t-49.5 185.5v42q0 120 49.5 185.5t142.5 65.5zM415 239v42q0 102 -40 161.5t-125 59.5t-125 -59.5t-40 -161.5v-42q0 -103 40 -162t125 -59t125 59t40 162z" />
    <glyph glyph-name="p" unicode="p" horiz-adv-x="505" 
d="M420 230v45q0 127 -39 177t-111 50q-40 0 -80 -15t-60 -31l-20 -15v-345q8 -9 22 -22t57 -34.5t86 -21.5q145 0 145 212zM110 -200h-30v720h20l7 -50q77 62 163 62q180 0 180 -247v-55q0 -125 -48 -183.5t-127 -58.5q-91 0 -162 71h-3v-259z" />
    <glyph glyph-name="q" unicode="q" horiz-adv-x="505" 
d="M85 265v-35q0 -99 33 -155.5t102 -56.5q94 0 175 119v300q-6 7 -17.5 18t-49.5 29t-78 18q-74 0 -119.5 -55.5t-45.5 -181.5zM425 -200h-30v292h-3q-68 -104 -172 -104q-74 0 -119.5 58.5t-45.5 183.5v45q0 131 54 194t141 63q84 0 148 -61l7 49h20v-720z" />
    <glyph glyph-name="r" unicode="r" horiz-adv-x="290" 
d="M110 0h-30v520h20l9 -63h2q44 75 134 75l26 -2l-2 -24l-5 -5q-13 1 -20 1q-45 0 -80 -24.5t-54 -69.5v-408z" />
    <glyph glyph-name="s" unicode="s" horiz-adv-x="421" 
d="M67 1l-2 23l8 7q53 -13 119 -13q154 0 154 119q0 42 -26 69.5t-88 42.5l-57 14q-63 15 -95.5 44t-33.5 83q-2 60 39 101t140 41q21 0 48 -3t43 -7l17 -3l-2 -24l-8 -5q-57 12 -98 12q-80 0 -114.5 -29t-34.5 -83q0 -41 25.5 -62.5t79.5 -35.5l59 -15q136 -34 136 -139
q0 -72 -48 -111t-136 -39q-32 0 -63.5 3t-46.5 7z" />
    <glyph glyph-name="t" unicode="t" horiz-adv-x="300" 
d="M25 490v30h80v120h30v-120h140v-30h-140v-375q0 -55 21.5 -76t60.5 -21l51 6l7 -5v-23q-28 -8 -58 -8q-112 0 -112 127v375h-80z" />
    <glyph glyph-name="u" unicode="u" horiz-adv-x="539" 
d="M410 520h30v-415q0 -47 14 -66.5t43 -23.5l14 -2l3 -5l-5 -19q-3 -1 -9 -1q-87 0 -90 107h-2q-69 -107 -183 -107q-71 0 -108 43t-37 119v370h30v-365q0 -137 115 -137q112 0 185 123v379z" />
    <glyph glyph-name="v" unicode="v" horiz-adv-x="417" 
d="M228 0h-40l-168 520h30l123 -378l33 -112h4l33 112l124 378h30z" />
    <glyph glyph-name="w" unicode="w" horiz-adv-x="652" 
d="M502 0h-44l-115 408l-14 67h-6l-14 -67l-115 -408h-44l-130 520h31l95 -378l26 -112h4l28 112l107 378h30l107 -378l28 -112h4l26 112l95 378h31z" />
    <glyph glyph-name="x" unicode="x" horiz-adv-x="399" 
d="M374 520l-157 -256l162 -264h-35l-125 205l-18 35h-2l-18 -35l-126 -205h-35l162 264l-156 256h35l125 -206l13 -29h2l12 29l126 206h35z" />
    <glyph glyph-name="y" unicode="y" horiz-adv-x="428" 
d="M20 520h32l143 -393l26 -91h4l24 91l128 393h31l-198 -615q-20 -62 -43.5 -89.5t-67.5 -27.5l-38 5l4 23l6 5q10 -3 28 -3q31 0 47.5 20.5t36.5 81.5l26 80z" />
    <glyph glyph-name="z" unicode="z" horiz-adv-x="413" 
d="M378 520v-20l-281 -440l-22 -27l1 -4l37 1h265v-30h-343v20l281 440l21 27l-1 4l-32 -1h-249v30h323z" />
    <glyph glyph-name="braceleft" unicode="{" horiz-adv-x="290" 
d="M50 310h24q32 0 49 20.5t17 54.5q0 25 -25 94t-25 111q0 56 29.5 88t91.5 32l49 -5v-30q-23 5 -49 5q-91 0 -91 -90q0 -33 25 -104.5t25 -100.5q0 -69 -58 -89v-2q58 -20 58 -89q0 -29 -25 -100.5t-25 -104.5q0 -90 91 -90l49 5v-30q-24 -5 -49 -5q-62 0 -91.5 32
t-29.5 88q0 42 25 111t25 94q0 34 -17 54.5t-49 20.5h-24v30z" />
    <glyph glyph-name="bar" unicode="|" horiz-adv-x="240" 
d="M105 -100v840h30v-840h-30z" />
    <glyph glyph-name="braceright" unicode="}" horiz-adv-x="290" 
d="M240 280h-24q-32 0 -49 -20.5t-17 -54.5q0 -25 25 -94t25 -111q0 -56 -29.5 -88t-91.5 -32l-49 5v30q23 -5 49 -5q91 0 91 90q0 33 -25 104.5t-25 100.5q0 69 58 89v2q-58 20 -58 89q0 29 25 100.5t25 104.5q0 90 -91 90l-49 -5v30q24 5 49 5q62 0 91.5 -32t29.5 -88
q0 -42 -25 -111t-25 -94q0 -34 17 -54.5t49 -20.5h24v-30z" />
    <glyph glyph-name="asciitilde" unicode="~" horiz-adv-x="634" 
d="M547 370h30q0 -89 -34 -134.5t-96 -45.5q-30 0 -58 16.5t-50.5 40t-44 47t-47 40t-50.5 16.5q-110 0 -110 -150h-30q0 87 39.5 133.5t100.5 46.5q30 0 58.5 -16.5t51 -40t44.5 -47t46.5 -40t49.5 -16.5q100 0 100 150z" />
    <glyph glyph-name="nbspace" unicode="&#xa0;" horiz-adv-x="220" 
 />
    <glyph glyph-name="exclamdown" unicode="&#xa1;" horiz-adv-x="216" 
d="M111 -202h-6q-15 0 -15 17v105l9 385h18l9 -385v-105q0 -17 -15 -17zM136 468q0 -33 -28 -33t-28 33q0 32 28 32t28 -32z" />
    <glyph glyph-name="cent" unicode="&#xa2;" horiz-adv-x="394" 
d="M221 -10v109q-83 8 -127 63.5t-44 152.5v15q0 203 171 220v110h30v-108h4q24 0 49 -4t38 -8l12 -3l-4 -22l-5 -5q-45 12 -90 12q-84 0 -129.5 -43t-45.5 -149v-15q0 -187 170 -187q46 0 103 19l7 -4l4 -22q-49 -23 -113 -23v-108h-30z" />
    <glyph glyph-name="sterling" unicode="&#xa3;" horiz-adv-x="420" 
d="M40 270v30h92q-8 20 -49.5 89.5t-41.5 110.5q0 68 54 109t145 41q32 0 64.5 -5t49.5 -9l16 -5l-4 -24l-8 -4q-62 17 -118 17q-80 0 -124.5 -32.5t-44.5 -87.5q0 -36 40.5 -102.5t51.5 -97.5h177v-30h-169q4 -24 4 -35q0 -108 -89 -200v-5h314v-30h-370v20q5 4 12.5 11
t27.5 30t35 46.5t27.5 58.5t12.5 69q0 13 -4 35h-101z" />
    <glyph glyph-name="currency" unicode="&#xa4;" horiz-adv-x="602" 
d="M121 320q0 -74 53 -127t127 -53t127 53t53 127t-53 127t-127 53t-127 -53t-53 -127zM552 550l-93 -93q52 -60 52 -137q0 -78 -52 -138l93 -92l-21 -21l-93 92q-59 -51 -137 -51q-79 0 -138 51l-92 -92l-21 21l92 92q-51 59 -51 138q0 78 51 137l-92 93l21 21l92 -93
q60 52 138 52q77 0 137 -52l93 93z" />
    <glyph glyph-name="yen" unicode="&#xa5;" horiz-adv-x="476" 
d="M35 130v30h188v80l-5 10h-183v30h168l-183 370h34l156 -315l26 -60h4l26 59l156 316h34l-183 -370h167v-30h-182l-5 -10v-80h187v-30h-187v-130h-30v130h-188z" />
    <glyph glyph-name="brokenbar" unicode="&#xa6;" horiz-adv-x="240" 
d="M135 380h-30v380h30v-380zM105 280h30v-380h-30v380z" />
    <glyph glyph-name="section" unicode="&#xa7;" horiz-adv-x="428" 
d="M181 436l38 -5q1 -13 -7 -13q-61 0 -96.5 -33.5t-35.5 -84.5q0 -81 95 -107l65 -17q57 -15 87.5 -43t30.5 -78q0 -56 -41 -91.5t-124 -35.5q-23 0 -45.5 2.5t-33.5 5.5l-12 2l2 25l7 4q48 -9 82 -9q135 0 135 97q0 36 -23 57t-74 35l-63 17q-118 32 -118 136
q0 57 38 96.5t93 39.5zM247 164l-38 5q-1 13 7 13q61 0 96.5 33.5t35.5 84.5q0 81 -95 107l-65 17q-57 15 -87.5 43t-30.5 78q0 56 41 91.5t124 35.5q23 0 45.5 -2.5t33.5 -5.5l12 -2l-2 -25l-7 -4q-48 9 -82 9q-135 0 -135 -97q0 -36 23 -57t74 -35l63 -17
q118 -32 118 -136q0 -57 -38 -96.5t-93 -39.5z" />
    <glyph glyph-name="dieresis" unicode="&#xa8;" horiz-adv-x="418" 
d="M102 650q0 33 28 33t28 -33q0 -32 -28 -32t-28 32zM260 650q0 33 28 33t28 -33q0 -32 -28 -32t-28 32z" />
    <glyph glyph-name="copyright" unicode="&#xa9;" horiz-adv-x="720" 
d="M50 340q0 128 91 219t219 91t219 -91t91 -219t-91 -219t-219 -91t-219 91t-91 219zM80 340q0 -115 82.5 -197.5t197.5 -82.5q116 0 198 82t82 198t-82 198t-198 82q-115 0 -197.5 -82t-82.5 -198zM459 190q-40 -20 -88 -20q-62 0 -98.5 38t-36.5 116v21q0 82 36.5 123.5
t102.5 41.5q15 0 33 -3t28 -5l11 -3l-2 -26l-7 -3q-34 10 -63 10q-109 0 -109 -136v-13q0 -131 105 -131q16 0 35.5 5t31.5 9l11 5l7 -3q2 -13 3 -26z" />
    <glyph glyph-name="ordfeminine" unicode="&#xaa;" horiz-adv-x="366" 
d="M50 358q0 92 112 106l101 12q0 49 -19.5 72.5t-72.5 23.5q-19 0 -41 -4t-35 -8l-13 -3l-8 9l4 21q42 15 93 15q67 0 94.5 -30.5t27.5 -94.5v-147q0 -24 7 -34t23 -12l17 -2l3 -7l-4 -19q-8 -2 -16 -2q-53 0 -59 58h-4q-43 -58 -107 -58q-47 0 -75 29t-28 75zM153 284
q61 0 110 74v88l-99 -12q-45 -6 -64.5 -24.5t-19.5 -51.5q0 -36 20 -55t53 -19z" />
    <glyph glyph-name="guillemotleft" unicode="&#xab;" horiz-adv-x="388" 
d="M158 0l-118 220l118 220h30l-108 -220l108 -220h-30zM308 0l-118 220l118 220h30l-108 -220l108 -220h-30z" />
    <glyph glyph-name="logicalnot" unicode="&#xac;" 
d="M450 316v-165h-30v135h-370v30h400z" />
    <glyph glyph-name="registered" unicode="&#xae;" horiz-adv-x="415" 
d="M20 485q0 78 54.5 132.5t132.5 54.5t132.5 -54.5t54.5 -132.5t-54.5 -132.5t-132.5 -54.5t-132.5 54.5t-54.5 132.5zM50 485q0 -66 45.5 -111.5t111.5 -45.5t111.5 45.5t45.5 111.5t-45.5 111.5t-111.5 45.5t-111.5 -45.5t-45.5 -111.5zM282 386h-33l-27 66h-1h-53v-66
h-30v201h73q37 0 56 -18.5t19 -50.5q0 -44 -34 -60zM211 557h-43v-75h53q35 0 35 36q0 39 -45 39z" />
    <glyph glyph-name="macron" unicode="&#xaf;" horiz-adv-x="350" 
d="M60 630v30h230v-30h-230z" />
    <glyph glyph-name="degree" unicode="&#xb0;" horiz-adv-x="394" 
d="M52 516q0 61 42.5 103.5t102.5 42.5t102.5 -42.5t42.5 -103.5q0 -59 -42.5 -101.5t-102.5 -42.5t-102.5 42.5t-42.5 101.5zM82 516q0 -46 34.5 -80t80.5 -34t80.5 34t34.5 80q0 47 -34 81.5t-81 34.5t-81 -34.5t-34 -81.5z" />
    <glyph glyph-name="plusminus" unicode="&#xb1;" 
d="M470 50h-440v30h440v-30zM470 305h-205v-185h-30v185h-205v30h205v185h30v-185h205v-30z" />
    <glyph glyph-name="twosuperior" unicode="&#xb2;" horiz-adv-x="320" 
d="M275 712q0 -40 -22 -72t-84 -78l-28 -22q-46 -34 -56 -47t-10 -33v-10h194v-30h-224v40q0 29 13.5 47.5t63.5 56.5l29 22q59 45 76.5 69.5t17.5 56.5q0 36 -23.5 59t-70.5 23q-19 0 -41.5 -5t-35.5 -11l-12 -5l-9 4q-1 5 -1 23q47 24 99 24q60 0 92 -31.5t32 -80.5z" />
    <glyph glyph-name="threesuperior" unicode="&#xb3;" horiz-adv-x="296" 
d="M261 534q0 -54 -34.5 -87t-100.5 -33q-25 0 -48 4t-33 8l-10 3l2 24l8 4q41 -13 81 -13q52 0 78.5 24.5t26.5 65.5q0 34 -23 54.5t-65 20.5h-70v30h70q35 0 55.5 22t20.5 59q0 33 -23 53.5t-64 20.5q-17 0 -37 -4.5t-31 -9.5l-12 -4l-8 4q-1 6 -4 22q41 22 92 22
q56 0 86.5 -29.5t30.5 -74.5q0 -64 -48 -91v-2q60 -24 60 -93z" />
    <glyph glyph-name="acute" unicode="&#xb4;" horiz-adv-x="470" 
d="M348 720v-20l-113 -120h-20l-5 10l105 130h33z" />
    <glyph glyph-name="mu" unicode="&#xb5;" horiz-adv-x="529" 
d="M75 -200v720h30v-365q0 -137 115 -137q112 0 185 123v379h30v-415q0 -47 14 -66.5t43 -23.5l14 -2l3 -5l-5 -19l-6 -1h-3q-87 0 -90 107h-2q-69 -107 -183 -107q-77 0 -115 54v-242h-30z" />
    <glyph glyph-name="paragraph" unicode="&#xb6;" horiz-adv-x="526" 
d="M376 -60v690h-120v-690h-30v372h-24q-68 0 -110 44t-42 123q0 181 166 181h270v-30h-80v-690h-30z" />
    <glyph glyph-name="periodcentered" unicode="&#xb7;" horiz-adv-x="256" 
d="M100 300q0 33 28 33t28 -33q0 -32 -28 -32t-28 32z" />
    <glyph glyph-name="cedilla" unicode="&#xb8;" horiz-adv-x="306" 
d="M65 -204l4 30q38 -8 67 -8q31 0 46.5 13t15.5 34q0 35 -43 35h-62l13 100h30l-7 -70h27q72 0 72 -65q0 -36 -24.5 -56.5t-67.5 -20.5q-16 0 -34 2t-28 4z" />
    <glyph glyph-name="onesuperior" unicode="&#xb9;" horiz-adv-x="267" 
d="M41 715v26l106 77h20v-398h-30v349l-4 2l-82 -56h-10z" />
    <glyph glyph-name="ordmasculine" unicode="&#xba;" horiz-adv-x="360" 
d="M175 602h10q56 0 90.5 -41t34.5 -116v-34q0 -75 -34.5 -116t-90.5 -41h-10q-56 0 -90.5 41t-34.5 116v34q0 75 34.5 116t90.5 41zM280 411v34q0 62 -26 94.5t-74 32.5t-74 -32.5t-26 -94.5v-34q0 -62 26 -94.5t74 -32.5t74 32.5t26 94.5z" />
    <glyph glyph-name="guillemotright" unicode="&#xbb;" horiz-adv-x="388" 
d="M230 440l118 -220l-118 -220h-30l108 220l-108 220h30zM80 440l118 -220l-118 -220h-30l108 220l-108 220h30z" />
    <glyph glyph-name="onequarter" unicode="&#xbc;" horiz-adv-x="689" 
d="M41 557v26l106 77h20v-398h-30v349l-4 2l-82 -56h-10zM94 -12l412 684h35l-412 -684h-35zM393 125l112 271h33l-112 -271h140v125h30v-125h63v-30h-63v-95h-30v95h-173v30z" />
    <glyph glyph-name="onehalf" unicode="&#xbd;" horiz-adv-x="720" 
d="M41 557v26l106 77h20v-398h-30v349l-4 2l-82 -56h-10zM673 292q0 -40 -22 -72t-84 -78l-28 -22q-46 -34 -56 -47t-10 -33v-10h194v-30h-224v40q0 29 13.5 47.5t63.5 56.5l29 22q59 45 76.5 69.5t17.5 56.5q0 36 -23.5 59t-70.5 23q-19 0 -41.5 -5t-35.5 -11l-12 -5l-9 4
q-1 5 -1 23q47 24 99 24q60 0 92 -31.5t32 -80.5zM94 -12l412 684h35l-412 -684h-35z" />
    <glyph glyph-name="threequarters" unicode="&#xbe;" horiz-adv-x="751" 
d="M261 376q0 -54 -34.5 -87t-100.5 -33q-25 0 -48 4t-33 8l-10 3l2 24l8 4q41 -13 81 -13q52 0 78.5 24.5t26.5 65.5q0 34 -23 54.5t-65 20.5h-70v30h70q35 0 55.5 22t20.5 59q0 33 -23 53.5t-64 20.5q-17 0 -37 -4.5t-31 -9.5l-12 -4l-8 4q-1 6 -4 22q41 22 92 22
q56 0 86.5 -29.5t30.5 -74.5q0 -64 -48 -91v-2q60 -24 60 -93zM160 -12l412 684h35l-412 -684h-35zM455 125l112 271h33l-112 -271h140v125h30v-125h63v-30h-63v-95h-30v95h-173v30z" />
    <glyph glyph-name="questiondown" unicode="&#xbf;" horiz-adv-x="412" 
d="M279 468q0 -33 -28 -33t-28 33q0 32 28 32t28 -32zM50 -31v5q0 53 24.5 89t80.5 81q53 43 67 64.5t14 61.5v55h30v-55q0 -50 -16 -75.5t-81 -77.5q-48 -38 -68.5 -69t-20.5 -74v-5q0 -54 38.5 -87.5t113.5 -33.5q26 0 54 4t42 8l15 5l8 -4q2 -8 3 -23q0 -1 -16 -5.5
t-46.5 -9.5t-59.5 -5q-90 0 -136 42t-46 109z" />
    <glyph glyph-name="Agrave" unicode="&#xc0;" horiz-adv-x="493" 
d="M15 0l214 660h35l214 -660h-33l-68 210h-262l-67 -210h-33zM238 590l-113 -350h242l-112 350l-7 35h-3q-4 -25 -7 -35zM135 840v20h33l105 -130l-5 -10h-20z" />
    <glyph glyph-name="Aacute" unicode="&#xc1;" horiz-adv-x="493" 
d="M365 860v-20l-113 -120h-20l-5 10l105 130h33zM15 0l214 660h35l214 -660h-33l-68 210h-262l-67 -210h-33zM238 590l-113 -350h242l-112 350l-7 35h-3q-4 -25 -7 -35z" />
    <glyph glyph-name="Acircumflex" unicode="&#xc2;" horiz-adv-x="493" 
d="M15 0l214 660h35l214 -660h-33l-68 210h-262l-67 -210h-33zM238 590l-113 -350h242l-112 350l-7 35h-3q-4 -25 -7 -35zM352 720l-104 105l-104 -105h-20l-5 10l115 130h28l115 -130l-5 -10h-20z" />
    <glyph glyph-name="Atilde" unicode="&#xc3;" horiz-adv-x="493" 
d="M15 0l214 660h35l214 -660h-33l-68 210h-262l-67 -210h-33zM238 590l-113 -350h242l-112 350l-7 35h-3q-4 -25 -7 -35zM389 837l29 -10q-18 -56 -41 -80t-57 -24q-24 0 -48 20.5t-45.5 41.5t-38.5 21q-23 0 -37.5 -18t-31.5 -66l-29 10q18 57 41 80.5t57 23.5
q24 0 48 -21t45.5 -41.5t38.5 -20.5q25 0 38 17.5t31 66.5z" />
    <glyph glyph-name="Adieresis" unicode="&#xc4;" horiz-adv-x="493" 
d="M15 0l214 660h35l214 -660h-33l-68 210h-262l-67 -210h-33zM238 590l-113 -350h242l-112 350l-7 35h-3q-4 -25 -7 -35zM139 790q0 33 28 33t28 -33q0 -32 -28 -32t-28 32zM297 790q0 33 28 33t28 -33q0 -32 -28 -32t-28 32z" />
    <glyph glyph-name="Aring" unicode="&#xc5;" horiz-adv-x="533" 
d="M202 720q0 -27 19 -46t46 -19t46 19t19 46t-19 46t-46 19t-46 -19t-19 -46zM258 590l-113 -350h242l-112 350l-6 35h-5zM35 0l204 629q-30 9 -48.5 34t-18.5 57q0 39 28 67t67 28t67 -28t28 -67q0 -32 -19 -57.5t-49 -33.5l204 -629h-33l-68 210h-262l-67 -210h-33z" />
    <glyph glyph-name="AE" unicode="&#xc6;" horiz-adv-x="609" 
d="M290 0v210h-171l-71 -210h-33l224 660h341v-30h-260v-270h230v-30h-230v-300h270v-30h-300zM248 590l-119 -350h161v390h-30z" />
    <glyph glyph-name="Ccedilla" unicode="&#xc7;" horiz-adv-x="433" 
d="M215 -204l4 30q38 -8 67 -8q31 0 46.5 13t15.5 34q0 35 -43 35h-62l11 90q-196 22 -196 310v35q0 337 225 337q25 0 50 -3.5t37 -6.5l13 -4l-3 -22l-8 -5q-42 11 -89 11q-195 0 -195 -309v-21q0 -152 49 -223t154 -71q24 0 49.5 4t38.5 8l13 5l9 -3q3 -19 3 -24
q-54 -20 -113 -20h-6l-6 -58h27q72 0 72 -65q0 -36 -24.5 -56.5t-67.5 -20.5q-16 0 -34 2t-28 4z" />
    <glyph glyph-name="Egrave" unicode="&#xc8;" horiz-adv-x="399" 
d="M80 0v660h290v-30h-260v-270h230v-30h-230v-300h270v-30h-300zM115 840v20h33l105 -130l-5 -10h-20z" />
    <glyph glyph-name="Eacute" unicode="&#xc9;" horiz-adv-x="399" 
d="M80 0v660h290v-30h-260v-270h230v-30h-230v-300h270v-30h-300zM338 860v-20l-113 -120h-20l-5 10l105 130h33z" />
    <glyph glyph-name="Ecircumflex" unicode="&#xca;" horiz-adv-x="399" 
d="M80 0v660h290v-30h-260v-270h230v-30h-230v-300h270v-30h-300zM324 720l-104 105l-104 -105h-20l-5 10l115 130h28l115 -130l-5 -10h-20z" />
    <glyph glyph-name="Edieresis" unicode="&#xcb;" horiz-adv-x="399" 
d="M80 0v660h290v-30h-260v-270h230v-30h-230v-300h270v-30h-300zM123 772q0 33 28 33t28 -33q0 -32 -28 -32t-28 32zM281 772q0 33 28 33t28 -33q0 -32 -28 -32t-28 32z" />
    <glyph glyph-name="Igrave" unicode="&#xcc;" horiz-adv-x="190" 
d="M80 0v660h30v-660h-30zM-10 840v20h33l105 -130l-5 -10h-20z" />
    <glyph glyph-name="Iacute" unicode="&#xcd;" horiz-adv-x="190" 
d="M80 0v660h30v-660h-30zM213 860v-20l-113 -120h-20l-5 10l105 130h33z" />
    <glyph glyph-name="Icircumflex" unicode="&#xce;" horiz-adv-x="190" 
d="M80 0v660h30v-660h-30zM199 720l-104 105l-104 -105h-20l-5 10l115 130h28l115 -130l-5 -10h-20z" />
    <glyph glyph-name="Idieresis" unicode="&#xcf;" horiz-adv-x="190" 
d="M80 0v660h30v-660h-30zM-12 774q0 33 28 33t28 -33q0 -32 -28 -32t-28 32zM146 774q0 33 28 33t28 -33q0 -32 -28 -32t-28 32z" />
    <glyph glyph-name="Eth" unicode="&#xd0;" horiz-adv-x="528" 
d="M0 310v30h70v320h172q106 0 167 -68.5t61 -201.5v-155q0 -113 -51 -174t-147 -61h-202v310h-70zM242 630h-142v-290h130v-30h-130v-280h172q81 0 124.5 52t43.5 153v155q0 122 -53 181t-145 59z" />
    <glyph glyph-name="Ntilde" unicode="&#xd1;" horiz-adv-x="612" 
d="M502 0l-368 568l-25 49l-4 -1l5 -76v-540h-30v660h30l372 -574l21 -42l3 1l-4 75v540h30v-660h-30zM451 857l29 -10q-18 -56 -41 -80t-57 -24q-24 0 -48 20.5t-45.5 41.5t-38.5 21q-23 0 -37.5 -18t-31.5 -66l-29 10q18 57 41 80.5t57 23.5q24 0 48 -21t45.5 -41.5
t38.5 -20.5q25 0 38 17.5t31 66.5z" />
    <glyph glyph-name="Ograve" unicode="&#xd2;" horiz-adv-x="526" 
d="M260 672h6q202 0 202 -322v-40q0 -322 -202 -322h-6q-202 0 -202 322v40q0 322 202 322zM266 642h-6q-90 0 -131 -71.5t-41 -220.5v-40q0 -149 41 -220.5t131 -71.5h6q90 0 131 71.5t41 220.5v40q0 149 -41 220.5t-131 71.5zM152 840v20h33l105 -130l-5 -10h-20z" />
    <glyph glyph-name="Oacute" unicode="&#xd3;" horiz-adv-x="526" 
d="M260 672h6q202 0 202 -322v-40q0 -322 -202 -322h-6q-202 0 -202 322v40q0 322 202 322zM266 642h-6q-90 0 -131 -71.5t-41 -220.5v-40q0 -149 41 -220.5t131 -71.5h6q90 0 131 71.5t41 220.5v40q0 149 -41 220.5t-131 71.5zM365 860v-20l-113 -120h-20l-5 10l105 130h33
z" />
    <glyph glyph-name="Ocircumflex" unicode="&#xd4;" horiz-adv-x="526" 
d="M260 672h6q202 0 202 -322v-40q0 -322 -202 -322h-6q-202 0 -202 322v40q0 322 202 322zM266 642h-6q-90 0 -131 -71.5t-41 -220.5v-40q0 -149 41 -220.5t131 -71.5h6q90 0 131 71.5t41 220.5v40q0 149 -41 220.5t-131 71.5zM366 720l-104 105l-104 -105h-20l-5 10
l115 130h28l115 -130l-5 -10h-20z" />
    <glyph glyph-name="Otilde" unicode="&#xd5;" horiz-adv-x="526" 
d="M260 672h6q202 0 202 -322v-40q0 -322 -202 -322h-6q-202 0 -202 322v40q0 322 202 322zM266 642h-6q-90 0 -131 -71.5t-41 -220.5v-40q0 -149 41 -220.5t131 -71.5h6q90 0 131 71.5t41 220.5v40q0 149 -41 220.5t-131 71.5zM402 857l29 -10q-18 -56 -41 -80t-57 -24
q-24 0 -48 20.5t-45.5 41.5t-38.5 21q-23 0 -37.5 -18t-31.5 -66l-29 10q18 57 41 80.5t57 23.5q24 0 48 -21t45.5 -41.5t38.5 -20.5q25 0 38 17.5t31 66.5z" />
    <glyph glyph-name="Odieresis" unicode="&#xd6;" horiz-adv-x="526" 
d="M260 672h6q202 0 202 -322v-40q0 -322 -202 -322h-6q-202 0 -202 322v40q0 322 202 322zM266 642h-6q-90 0 -131 -71.5t-41 -220.5v-40q0 -149 41 -220.5t131 -71.5h6q90 0 131 71.5t41 220.5v40q0 149 -41 220.5t-131 71.5zM155 767q0 33 28 33t28 -33q0 -32 -28 -32
t-28 32zM313 767q0 33 28 33t28 -33q0 -32 -28 -32t-28 32z" />
    <glyph glyph-name="multiply" unicode="&#xd7;" 
d="M416 445l-145 -145l145 -145l-21 -21l-145 145l-145 -145l-21 21l145 145l-145 145l21 21l145 -145l145 145z" />
    <glyph glyph-name="Oslash" unicode="&#xd8;" horiz-adv-x="526" 
d="M260 672h6q76 0 124 -45l34 73l28 -13l-40 -86q56 -78 56 -251v-40q0 -322 -202 -322h-6q-70 0 -116 38l-31 -66l-28 12l36 77q-63 78 -63 261v40q0 322 202 322zM150 111l226 487q-41 44 -110 44h-6q-90 0 -131 -71.5t-41 -220.5v-40q0 -163 47 -231l2 4zM438 350
q0 150 -41 220l-2 -5l-8 -17l-230 -494q39 -36 103 -36h6q90 0 131 71.5t41 220.5v40z" />
    <glyph glyph-name="Ugrave" unicode="&#xd9;" horiz-adv-x="540" 
d="M440 660h30v-426q0 -246 -195 -246h-10q-195 0 -195 246v426h30v-426q0 -116 42.5 -166t127.5 -50t127.5 50t42.5 166v426zM156 840v20h33l105 -130l-5 -10h-20z" />
    <glyph glyph-name="Uacute" unicode="&#xda;" horiz-adv-x="540" 
d="M440 660h30v-426q0 -246 -195 -246h-10q-195 0 -195 246v426h30v-426q0 -116 42.5 -166t127.5 -50t127.5 50t42.5 166v426zM389 860v-20l-113 -120h-20l-5 10l105 130h33z" />
    <glyph glyph-name="Ucircumflex" unicode="&#xdb;" horiz-adv-x="540" 
d="M440 660h30v-426q0 -246 -195 -246h-10q-195 0 -195 246v426h30v-426q0 -116 42.5 -166t127.5 -50t127.5 50t42.5 166v426zM378 720l-104 105l-104 -105h-20l-5 10l115 130h28l115 -130l-5 -10h-20z" />
    <glyph glyph-name="Udieresis" unicode="&#xdc;" horiz-adv-x="540" 
d="M440 660h30v-426q0 -246 -195 -246h-10q-195 0 -195 246v426h30v-426q0 -116 42.5 -166t127.5 -50t127.5 50t42.5 166v426zM166 765q0 33 28 33t28 -33q0 -32 -28 -32t-28 32zM324 765q0 33 28 33t28 -33q0 -32 -28 -32t-28 32z" />
    <glyph glyph-name="Yacute" unicode="&#xdd;" horiz-adv-x="476" 
d="M15 660h34l161 -325l26 -64h4q9 29 26 63l161 326h34l-208 -420v-240h-30v240zM364 860v-20l-113 -120h-20l-5 10l105 130h33z" />
    <glyph glyph-name="Thorn" unicode="&#xde;" horiz-adv-x="458" 
d="M232 500h-122v-350h132q158 0 158 145v25q0 93 -40 136.5t-128 43.5zM80 0v660h30v-130h122q198 0 198 -210v-25q0 -87 -50 -131t-138 -44h-132v-120h-30z" />
    <glyph glyph-name="germandbls" unicode="&#xdf;" horiz-adv-x="545" 
d="M435 575q0 -39 -17.5 -68t-62.5 -60q-34 -23 -43.5 -34t-9.5 -26q0 -14 8 -21.5t35 -21.5l42 -22q53 -28 78 -59t25 -83q0 -94 -46 -143t-149 -49q-20 0 -35.5 0.5t-19.5 1.5h-5v25l5 5q29 -2 55 -2q87 0 126 37.5t39 124.5q0 39 -19.5 64t-68.5 51l-40 21
q-33 17 -46 30.5t-14 38.5q0 8 1.5 15t2.5 12t6 11.5t7.5 9.5t11.5 10t12.5 10t16.5 12t18 13q30 22 43.5 43.5t13.5 53.5q0 135 -145 135q-150 0 -150 -205v-505h-30v510q0 114 47.5 172t132.5 58q79 0 127 -41t48 -124z" />
    <glyph glyph-name="agrave" unicode="&#xe0;" horiz-adv-x="514" 
d="M145 700v20h33l105 -130l-5 -10h-20zM385 325v5q0 90 -32.5 131t-122.5 41q-32 0 -67 -5.5t-55 -10.5l-19 -6l-6 6l4 24q63 22 143 22q102 0 143.5 -47.5t41.5 -152.5v-227q0 -47 14 -66.5t43 -23.5l14 -2l3 -5l-5 -19q-3 -1 -9 -1q-87 0 -90 107h-2q-71 -107 -183 -107
q-70 0 -112.5 44t-42.5 108v5q0 140 170 160zM200 18q63 0 106 34t79 90v153l-170 -20q-140 -16 -140 -130v-5q0 -53 35.5 -87.5t89.5 -34.5z" />
    <glyph glyph-name="aacute" unicode="&#xe1;" horiz-adv-x="514" 
d="M346 720v-20l-113 -120h-20l-5 10l105 130h33zM385 325v5q0 90 -32.5 131t-122.5 41q-32 0 -67 -5.5t-55 -10.5l-19 -6l-6 6l4 24q63 22 143 22q102 0 143.5 -47.5t41.5 -152.5v-227q0 -47 14 -66.5t43 -23.5l14 -2l3 -5l-5 -19q-3 -1 -9 -1q-87 0 -90 107h-2
q-71 -107 -183 -107q-70 0 -112.5 44t-42.5 108v5q0 140 170 160zM200 18q63 0 106 34t79 90v153l-170 -20q-140 -16 -140 -130v-5q0 -53 35.5 -87.5t89.5 -34.5z" />
    <glyph glyph-name="acircumflex" unicode="&#xe2;" horiz-adv-x="514" 
d="M341 580l-104 105l-104 -105h-20l-5 10l115 130h28l115 -130l-5 -10h-20zM385 325v5q0 90 -32.5 131t-122.5 41q-32 0 -67 -5.5t-55 -10.5l-19 -6l-6 6l4 24q63 22 143 22q102 0 143.5 -47.5t41.5 -152.5v-227q0 -47 14 -66.5t43 -23.5l14 -2l3 -5l-5 -19q-3 -1 -9 -1
q-87 0 -90 107h-2q-71 -107 -183 -107q-70 0 -112.5 44t-42.5 108v5q0 140 170 160zM200 18q63 0 106 34t79 90v153l-170 -20q-140 -16 -140 -130v-5q0 -53 35.5 -87.5t89.5 -34.5z" />
    <glyph glyph-name="atilde" unicode="&#xe3;" horiz-adv-x="514" 
d="M395 707l29 -10q-18 -56 -41 -80t-57 -24q-24 0 -48 20.5t-45.5 41.5t-38.5 21q-23 0 -37.5 -18t-31.5 -66l-29 10q18 57 41 80.5t57 23.5q24 0 48 -21t45.5 -41.5t38.5 -20.5q25 0 38 17.5t31 66.5zM385 325v5q0 90 -32.5 131t-122.5 41q-32 0 -67 -5.5t-55 -10.5
l-19 -6l-6 6l4 24q63 22 143 22q102 0 143.5 -47.5t41.5 -152.5v-227q0 -47 14 -66.5t43 -23.5l14 -2l3 -5l-5 -19q-3 -1 -9 -1q-87 0 -90 107h-2q-71 -107 -183 -107q-70 0 -112.5 44t-42.5 108v5q0 140 170 160zM200 18q63 0 106 34t79 90v153l-170 -20
q-140 -16 -140 -130v-5q0 -53 35.5 -87.5t89.5 -34.5z" />
    <glyph glyph-name="adieresis" unicode="&#xe4;" horiz-adv-x="514" 
d="M132 629q0 33 28 33t28 -33q0 -32 -28 -32t-28 32zM290 629q0 33 28 33t28 -33q0 -32 -28 -32t-28 32zM385 325v5q0 90 -32.5 131t-122.5 41q-32 0 -67 -5.5t-55 -10.5l-19 -6l-6 6l4 24q63 22 143 22q102 0 143.5 -47.5t41.5 -152.5v-227q0 -47 14 -66.5t43 -23.5l14 -2
l3 -5l-5 -19q-3 -1 -9 -1q-87 0 -90 107h-2q-71 -107 -183 -107q-70 0 -112.5 44t-42.5 108v5q0 140 170 160zM200 18q63 0 106 34t79 90v153l-170 -20q-140 -16 -140 -130v-5q0 -53 35.5 -87.5t89.5 -34.5z" />
    <glyph glyph-name="aring" unicode="&#xe5;" horiz-adv-x="514" 
d="M146 683q0 39 28 67t67 28t67 -28t28 -67t-28 -67t-67 -28t-67 28t-28 67zM176 683q0 -27 19 -46t46 -19t46 19t19 46t-19 46t-46 19t-46 -19t-19 -46zM385 325v5q0 90 -32.5 131t-122.5 41q-32 0 -67 -5.5t-55 -10.5l-19 -6l-6 6l4 24q63 22 143 22q102 0 143.5 -47.5
t41.5 -152.5v-227q0 -47 14 -66.5t43 -23.5l14 -2l3 -5l-5 -19q-3 -1 -9 -1q-87 0 -90 107h-2q-71 -107 -183 -107q-70 0 -112.5 44t-42.5 108v5q0 140 170 160zM200 18q63 0 106 34t79 90v153l-170 -20q-140 -16 -140 -130v-5q0 -53 35.5 -87.5t89.5 -34.5z" />
    <glyph glyph-name="ae" unicode="&#xe6;" horiz-adv-x="810" 
d="M385 330q0 90 -32.5 131t-122.5 41q-32 0 -67 -5.5t-55 -10.5l-19 -6l-6 6l4 24q63 22 143 22t122 -29.5t55 -91.5h2q22 58 65.5 89.5t100.5 31.5h10q78 0 124 -50.5t46 -151.5v-16l-3 -49h-337v-20q0 -122 50 -174.5t130 -52.5q25 0 49 4.5t37.5 9.5t26.5 10.5t16 6.5
l8 -4l3 -21q-6 -4 -19 -11t-48 -16t-73 -9q-147 0 -192 132h-2q-76 -132 -201 -132q-70 0 -112.5 44t-42.5 108v5q0 70 42 110t128 40h170v35zM200 18q34 0 64.5 12.5t55 35.5t40 43t33.5 48q-8 42 -8 88v20h-170q-140 0 -140 -120v-5q0 -53 35.5 -87.5t89.5 -34.5zM575 502
q-66 0 -111.5 -51.5t-48.5 -155.5h310v35q0 95 -40.5 133.5t-99.5 38.5h-10z" />
    <glyph glyph-name="ccedilla" unicode="&#xe7;" horiz-adv-x="396" 
d="M365 33l4 -22q-49 -23 -114 -23h-6l-6 -58h27q72 0 72 -65q0 -36 -24.5 -56.5t-67.5 -20.5q-16 0 -34 2t-28 4l-9 2l4 30q38 -8 67 -8q31 0 46.5 13t15.5 34q0 35 -43 35h-62l11 90q-82 9 -122.5 68t-40.5 187v15q0 149 50 210.5t155 61.5q24 0 49 -4t37 -8l13 -3l-4 -22
l-5 -5q-45 12 -90 12q-43 0 -72.5 -9.5t-54 -34.5t-36.5 -74t-12 -124v-15q0 -73 13.5 -121t40.5 -70t53 -29t63 -7q46 0 103 19z" />
    <glyph glyph-name="egrave" unicode="&#xe8;" horiz-adv-x="480" 
d="M421 245h-336q0 -122 50 -174.5t130 -52.5q25 0 49 4.5t37.5 9.5t26.5 10.5t16 6.5l8 -4l3 -21q-6 -4 -19 -11t-48 -16t-73 -9q-100 0 -155 63.5t-55 193.5v35q0 117 52.5 184.5t137.5 67.5h10q78 0 124 -50.5t46 -151.5v-16zM85 281v-6h310v55q0 95 -40.5 133.5
t-99.5 38.5h-10q-68 0 -114 -55t-46 -166zM154 700v20h33l105 -130l-5 -10h-20z" />
    <glyph glyph-name="eacute" unicode="&#xe9;" horiz-adv-x="480" 
d="M421 245h-336q0 -122 50 -174.5t130 -52.5q25 0 49 4.5t37.5 9.5t26.5 10.5t16 6.5l8 -4l3 -21q-6 -4 -19 -11t-48 -16t-73 -9q-100 0 -155 63.5t-55 193.5v35q0 117 52.5 184.5t137.5 67.5h10q78 0 124 -50.5t46 -151.5v-16zM85 281v-6h310v55q0 95 -40.5 133.5
t-99.5 38.5h-10q-68 0 -114 -55t-46 -166zM349 720v-20l-113 -120h-20l-5 10l105 130h33z" />
    <glyph glyph-name="ecircumflex" unicode="&#xea;" horiz-adv-x="480" 
d="M421 245h-336q0 -122 50 -174.5t130 -52.5q25 0 49 4.5t37.5 9.5t26.5 10.5t16 6.5l8 -4l3 -21q-6 -4 -19 -11t-48 -16t-73 -9q-100 0 -155 63.5t-55 193.5v35q0 117 52.5 184.5t137.5 67.5h10q78 0 124 -50.5t46 -151.5v-16zM85 281v-6h310v55q0 95 -40.5 133.5
t-99.5 38.5h-10q-68 0 -114 -55t-46 -166zM356 580l-104 105l-104 -105h-20l-5 10l115 130h28l115 -130l-5 -10h-20z" />
    <glyph glyph-name="edieresis" unicode="&#xeb;" horiz-adv-x="480" 
d="M421 245h-336q0 -122 50 -174.5t130 -52.5q25 0 49 4.5t37.5 9.5t26.5 10.5t16 6.5l8 -4l3 -21q-6 -4 -19 -11t-48 -16t-73 -9q-100 0 -155 63.5t-55 193.5v35q0 117 52.5 184.5t137.5 67.5h10q78 0 124 -50.5t46 -151.5v-16zM85 281v-6h310v55q0 95 -40.5 133.5
t-99.5 38.5h-10q-68 0 -114 -55t-46 -166zM150 625q0 33 28 33t28 -33q0 -32 -28 -32t-28 32zM308 625q0 33 28 33t28 -33q0 -32 -28 -32t-28 32z" />
    <glyph glyph-name="igrave" unicode="&#xec;" horiz-adv-x="190" 
d="M-22 700v20h33l105 -130l-5 -10h-20zM80 0v520h30v-520h-30z" />
    <glyph glyph-name="iacute" unicode="&#xed;" horiz-adv-x="190" 
d="M213 720v-20l-113 -120h-20l-5 10l105 130h33zM80 0v520h30v-520h-30z" />
    <glyph glyph-name="icircumflex" unicode="&#xee;" horiz-adv-x="190" 
d="M199 580l-104 105l-104 -105h-20l-5 10l115 130h28l115 -130l-5 -10h-20zM80 0v520h30v-520h-30z" />
    <glyph glyph-name="idieresis" unicode="&#xef;" horiz-adv-x="190" 
d="M-12 622q0 33 28 33t28 -33q0 -32 -28 -32t-28 32zM146 622q0 33 28 33t28 -33q0 -32 -28 -32t-28 32zM80 0v520h30v-520h-30z" />
    <glyph glyph-name="eth" unicode="&#xf0;" 
d="M92 570l-12 28l149 66q-65 30 -149 45l-6 1l6 30q108 -18 186 -59l132 59l12 -28l-112 -50q147 -98 147 -302v-121q0 -120 -49.5 -185.5t-142.5 -65.5h-6q-93 0 -142.5 65.5t-49.5 185.5v30q0 120 49.5 185.5t142.5 65.5h3q107 0 161 -99l2 1q-21 148 -150 224zM415 239
v30q0 98 -44 159.5t-121 61.5q-85 0 -125 -59.5t-40 -161.5v-30q0 -103 40 -162t125 -59t125 59t40 162z" />
    <glyph glyph-name="ntilde" unicode="&#xf1;" horiz-adv-x="515" 
d="M110 0h-30v520h20l9 -63q90 75 186 75q69 0 107 -42t38 -120v-370h-30v365q0 137 -115 137q-96 0 -185 -76v-426zM401 704l29 -10q-18 -56 -41 -80t-57 -24q-19 0 -38.5 13t-33 28.5t-30 28.5t-30.5 13q-23 0 -37.5 -18t-31.5 -66l-29 10q18 57 41 80.5t57 23.5
q24 0 48 -20.5t45.5 -41.5t38.5 -21q25 0 38 17.5t31 66.5z" />
    <glyph glyph-name="ograve" unicode="&#xf2;" 
d="M247 532h6q93 0 142.5 -65.5t49.5 -185.5v-42q0 -120 -49.5 -185.5t-142.5 -65.5h-6q-93 0 -142.5 65.5t-49.5 185.5v42q0 120 49.5 185.5t142.5 65.5zM415 239v42q0 102 -40 161.5t-125 59.5t-125 -59.5t-40 -161.5v-42q0 -103 40 -162t125 -59t125 59t40 162zM143 700
v20h33l105 -130l-5 -10h-20z" />
    <glyph glyph-name="oacute" unicode="&#xf3;" 
d="M247 532h6q93 0 142.5 -65.5t49.5 -185.5v-42q0 -120 -49.5 -185.5t-142.5 -65.5h-6q-93 0 -142.5 65.5t-49.5 185.5v42q0 120 49.5 185.5t142.5 65.5zM415 239v42q0 102 -40 161.5t-125 59.5t-125 -59.5t-40 -161.5v-42q0 -103 40 -162t125 -59t125 59t40 162zM354 720
v-20l-113 -120h-20l-5 10l105 130h33z" />
    <glyph glyph-name="ocircumflex" unicode="&#xf4;" 
d="M247 532h6q93 0 142.5 -65.5t49.5 -185.5v-42q0 -120 -49.5 -185.5t-142.5 -65.5h-6q-93 0 -142.5 65.5t-49.5 185.5v42q0 120 49.5 185.5t142.5 65.5zM415 239v42q0 102 -40 161.5t-125 59.5t-125 -59.5t-40 -161.5v-42q0 -103 40 -162t125 -59t125 59t40 162zM354 580
l-104 105l-104 -105h-20l-5 10l115 130h28l115 -130l-5 -10h-20z" />
    <glyph glyph-name="otilde" unicode="&#xf5;" 
d="M247 532h6q93 0 142.5 -65.5t49.5 -185.5v-42q0 -120 -49.5 -185.5t-142.5 -65.5h-6q-93 0 -142.5 65.5t-49.5 185.5v42q0 120 49.5 185.5t142.5 65.5zM415 239v42q0 102 -40 161.5t-125 59.5t-125 -59.5t-40 -161.5v-42q0 -103 40 -162t125 -59t125 59t40 162zM386 701
l29 -10q-18 -56 -41 -80t-57 -24q-24 0 -48 20.5t-45.5 41.5t-38.5 21q-23 0 -37.5 -18t-31.5 -66l-29 10q18 57 41 80.5t57 23.5q24 0 48 -21t45.5 -41.5t38.5 -20.5q25 0 38 17.5t31 66.5z" />
    <glyph glyph-name="odieresis" unicode="&#xf6;" 
d="M247 532h6q93 0 142.5 -65.5t49.5 -185.5v-42q0 -120 -49.5 -185.5t-142.5 -65.5h-6q-93 0 -142.5 65.5t-49.5 185.5v42q0 120 49.5 185.5t142.5 65.5zM415 239v42q0 102 -40 161.5t-125 59.5t-125 -59.5t-40 -161.5v-42q0 -103 40 -162t125 -59t125 59t40 162zM143 627
q0 33 28 33t28 -33q0 -32 -28 -32t-28 32zM301 627q0 33 28 33t28 -33q0 -32 -28 -32t-28 32z" />
    <glyph glyph-name="divide" unicode="&#xf7;" 
d="M222 475q0 33 28 33t28 -33q0 -32 -28 -32t-28 32zM222 125q0 33 28 33t28 -33q0 -32 -28 -32t-28 32zM450 285h-400v30h400v-30z" />
    <glyph glyph-name="oslash" unicode="&#xf8;" 
d="M247 532h6q75 0 122 -44l38 61l24 -16l-42 -67q50 -65 50 -185v-42q0 -120 -49.5 -185.5t-142.5 -65.5h-6q-77 0 -124 44l-36 -58l-24 16l41 65q-49 66 -49 184v42q0 120 49.5 185.5t142.5 65.5zM415 239v42q0 99 -38 157l-3 -6l-15 -24l-219 -349q41 -41 110 -41
q85 0 125 59t40 162zM136 106l222 356q-42 40 -108 40q-85 0 -125 -59.5t-40 -161.5v-42q0 -101 36 -157l2 3z" />
    <glyph glyph-name="ugrave" unicode="&#xf9;" horiz-adv-x="539" 
d="M410 520h30v-415q0 -47 14 -66.5t43 -23.5l14 -2l3 -5l-5 -19q-3 -1 -9 -1q-87 0 -90 107h-2q-69 -107 -183 -107q-71 0 -108 43t-37 119v370h30v-365q0 -137 115 -137q112 0 185 123v379zM158 700v20h33l105 -130l-5 -10h-20z" />
    <glyph glyph-name="uacute" unicode="&#xfa;" horiz-adv-x="539" 
d="M410 520h30v-415q0 -47 14 -66.5t43 -23.5l14 -2l3 -5l-5 -19q-3 -1 -9 -1q-87 0 -90 107h-2q-69 -107 -183 -107q-71 0 -108 43t-37 119v370h30v-365q0 -137 115 -137q112 0 185 123v379zM371 720v-20l-113 -120h-20l-5 10l105 130h33z" />
    <glyph glyph-name="ucircumflex" unicode="&#xfb;" horiz-adv-x="539" 
d="M410 520h30v-415q0 -47 14 -66.5t43 -23.5l14 -2l3 -5l-5 -19q-3 -1 -9 -1q-87 0 -90 107h-2q-69 -107 -183 -107q-71 0 -108 43t-37 119v370h30v-365q0 -137 115 -137q112 0 185 123v379zM367 580l-104 105l-104 -105h-20l-5 10l115 130h28l115 -130l-5 -10h-20z" />
    <glyph glyph-name="udieresis" unicode="&#xfc;" horiz-adv-x="539" 
d="M410 520h30v-415q0 -47 14 -66.5t43 -23.5l14 -2l3 -5l-5 -19q-3 -1 -9 -1q-87 0 -90 107h-2q-69 -107 -183 -107q-71 0 -108 43t-37 119v370h30v-365q0 -137 115 -137q112 0 185 123v379zM155 622q0 33 28 33t28 -33q0 -32 -28 -32t-28 32zM313 622q0 33 28 33t28 -33
q0 -32 -28 -32t-28 32z" />
    <glyph glyph-name="yacute" unicode="&#xfd;" horiz-adv-x="428" 
d="M20 520h32l143 -393l26 -91h4l24 91l128 393h31l-198 -615q-20 -62 -43.5 -89.5t-67.5 -27.5l-38 5l4 23l6 5q10 -3 28 -3q31 0 47.5 20.5t36.5 81.5l26 80zM334 720v-20l-113 -120h-20l-5 10l105 130h33z" />
    <glyph glyph-name="thorn" unicode="&#xfe;" horiz-adv-x="505" 
d="M420 230v45q0 127 -36.5 177t-108.5 50q-40 0 -81.5 -15t-62.5 -31l-21 -15v-345q8 -9 22 -22t57 -34.5t86 -21.5q145 0 145 212zM110 -200h-30v900h30v-232q74 64 165 64q85 0 130 -57t45 -190v-55q0 -125 -48 -183.5t-127 -58.5q-91 0 -162 71h-3v-259z" />
    <glyph glyph-name="ydieresis" unicode="&#xff;" horiz-adv-x="428" 
d="M20 520h32l143 -393l26 -91h4l24 91l128 393h31l-198 -615q-20 -62 -43.5 -89.5t-67.5 -27.5l-38 5l4 23l6 5q10 -3 28 -3q31 0 47.5 20.5t36.5 81.5l26 80zM118 624q0 33 28 33t28 -33q0 -32 -28 -32t-28 32zM276 624q0 33 28 33t28 -33q0 -32 -28 -32t-28 32z" />
    <glyph glyph-name="Amacron" unicode="&#x100;" horiz-adv-x="493" 
d="M15 0l214 660h35l214 -660h-33l-68 210h-262l-67 -210h-33zM238 590l-113 -350h242l-112 350l-7 35h-3q-4 -25 -7 -35zM133 742v30h230v-30h-230z" />
    <glyph glyph-name="amacron" unicode="&#x101;" horiz-adv-x="514" 
d="M132 600v30h230v-30h-230zM385 325v5q0 90 -32.5 131t-122.5 41q-32 0 -67 -5.5t-55 -10.5l-19 -6l-6 6l4 24q63 22 143 22q102 0 143.5 -47.5t41.5 -152.5v-227q0 -47 14 -66.5t43 -23.5l14 -2l3 -5l-5 -19q-3 -1 -9 -1q-87 0 -90 107h-2q-71 -107 -183 -107
q-70 0 -112.5 44t-42.5 108v5q0 140 170 160zM200 18q63 0 106 34t79 90v153l-170 -20q-140 -16 -140 -130v-5q0 -53 35.5 -87.5t89.5 -34.5z" />
    <glyph glyph-name="Abreve" unicode="&#x102;" horiz-adv-x="493" 
d="M15 0l214 660h35l214 -660h-33l-68 210h-262l-67 -210h-33zM238 590l-113 -350h242l-112 350l-7 35h-3q-4 -25 -7 -35zM341 859h30q0 -59 -32 -94t-92 -35q-59 0 -90.5 35t-31.5 94h30q0 -47 24.5 -73t67.5 -26q44 0 69 26t25 73z" />
    <glyph glyph-name="abreve" unicode="&#x103;" horiz-adv-x="514" 
d="M326 719h30q0 -59 -32 -94t-92 -35q-59 0 -90.5 35t-31.5 94h30q0 -47 24.5 -73t67.5 -26q44 0 69 26t25 73zM385 325v5q0 90 -32.5 131t-122.5 41q-32 0 -67 -5.5t-55 -10.5l-19 -6l-6 6l4 24q63 22 143 22q102 0 143.5 -47.5t41.5 -152.5v-227q0 -47 14 -66.5t43 -23.5
l14 -2l3 -5l-5 -19q-3 -1 -9 -1q-87 0 -90 107h-2q-71 -107 -183 -107q-70 0 -112.5 44t-42.5 108v5q0 140 170 160zM200 18q63 0 106 34t79 90v153l-170 -20q-140 -16 -140 -130v-5q0 -53 35.5 -87.5t89.5 -34.5z" />
    <glyph glyph-name="Aogonek" unicode="&#x104;" horiz-adv-x="493" 
d="M503 -176l5 -26q-22 -10 -52 -10q-41 0 -63.5 22t-22.5 60q0 55 75 130l-68 210h-262l-67 -210h-33l214 660h35l214 -660q-78 -82 -78 -130q0 -52 57 -52zM238 590l-113 -350h242l-112 350l-7 35h-3q-4 -25 -7 -35z" />
    <glyph glyph-name="aogonek" unicode="&#x105;" horiz-adv-x="514" 
d="M385 325v5q0 90 -32.5 131t-122.5 41q-32 0 -67 -5.5t-55 -10.5l-19 -6l-6 6l4 24q63 22 143 22q102 0 143.5 -47.5t41.5 -152.5v-227q0 -47 14 -66.5t43 -23.5l14 -2l3 -5l-5 -19q-69 -71 -69 -119q0 -52 57 -52l46 6l5 -26q-22 -10 -52 -10q-41 0 -63.5 22t-22.5 60
q0 56 61 120v2q-59 16 -61 103h-2q-71 -107 -183 -107q-70 0 -112.5 44t-42.5 108v5q0 140 170 160zM200 18q63 0 106 34t79 90v153l-170 -20q-140 -16 -140 -130v-5q0 -53 35.5 -87.5t89.5 -34.5z" />
    <glyph glyph-name="Cacute" unicode="&#x106;" horiz-adv-x="433" 
d="M404 8q-54 -20 -113 -20q-233 0 -233 312v35q0 337 225 337q25 0 50 -3.5t37 -6.5l13 -4l-3 -22l-8 -5q-42 11 -89 11q-195 0 -195 -309v-21q0 -152 49 -223t154 -71q24 0 49.5 4t38.5 8l13 5l9 -3q3 -19 3 -24zM381 860v-20l-113 -120h-20l-5 10l105 130h33z" />
    <glyph glyph-name="cacute" unicode="&#x107;" horiz-adv-x="396" 
d="M365 33l4 -22q-49 -23 -114 -23q-102 0 -151 58t-49 199v15q0 149 50 210.5t155 61.5q24 0 49 -4t37 -8l13 -3l-4 -22l-5 -5q-45 12 -90 12q-43 0 -72.5 -9.5t-54 -34.5t-36.5 -74t-12 -124v-15q0 -73 13.5 -121t40.5 -70t53 -29t63 -7q46 0 103 19zM345 720v-20
l-113 -120h-20l-5 10l105 130h33z" />
    <glyph glyph-name="Ccircumflex" unicode="&#x108;" horiz-adv-x="433" 
d="M404 8q-54 -20 -113 -20q-233 0 -233 312v35q0 337 225 337q25 0 50 -3.5t37 -6.5l13 -4l-3 -22l-8 -5q-42 11 -89 11q-195 0 -195 -309v-21q0 -152 49 -223t154 -71q24 0 49.5 4t38.5 8l13 5l9 -3q3 -19 3 -24zM363 720l-104 105l-104 -105h-20l-5 10l115 130h28
l115 -130l-5 -10h-20z" />
    <glyph glyph-name="ccircumflex" unicode="&#x109;" horiz-adv-x="396" 
d="M365 33l4 -22q-49 -23 -114 -23q-102 0 -151 58t-49 199v15q0 149 50 210.5t155 61.5q24 0 49 -4t37 -8l13 -3l-4 -22l-5 -5q-45 12 -90 12q-43 0 -72.5 -9.5t-54 -34.5t-36.5 -74t-12 -124v-15q0 -73 13.5 -121t40.5 -70t53 -29t63 -7q46 0 103 19zM346 580l-104 105
l-104 -105h-20l-5 10l115 130h28l115 -130l-5 -10h-20z" />
    <glyph glyph-name="Cdotaccent" unicode="&#x10a;" horiz-adv-x="433" 
d="M404 8q-54 -20 -113 -20q-233 0 -233 312v35q0 337 225 337q25 0 50 -3.5t37 -6.5l13 -4l-3 -22l-8 -5q-42 11 -89 11q-195 0 -195 -309v-21q0 -152 49 -223t154 -71q24 0 49.5 4t38.5 8l13 5l9 -3q3 -19 3 -24zM239 767q0 33 28 33t28 -33q0 -32 -28 -32t-28 32z" />
    <glyph glyph-name="cdotaccent" unicode="&#x10b;" horiz-adv-x="396" 
d="M365 33l4 -22q-49 -23 -114 -23q-102 0 -151 58t-49 199v15q0 149 50 210.5t155 61.5q24 0 49 -4t37 -8l13 -3l-4 -22l-5 -5q-45 12 -90 12q-43 0 -72.5 -9.5t-54 -34.5t-36.5 -74t-12 -124v-15q0 -73 13.5 -121t40.5 -70t53 -29t63 -7q46 0 103 19zM211 632q0 33 28 33
t28 -33q0 -32 -28 -32t-28 32z" />
    <glyph glyph-name="Ccaron" unicode="&#x10c;" horiz-adv-x="433" 
d="M404 8q-54 -20 -113 -20q-233 0 -233 312v35q0 337 225 337q25 0 50 -3.5t37 -6.5l13 -4l-3 -22l-8 -5q-42 11 -89 11q-195 0 -195 -309v-21q0 -152 49 -223t154 -71q24 0 49.5 4t38.5 8l13 5l9 -3q3 -19 3 -24zM136 860h20l104 -106l104 106h20l5 -10l-115 -130h-28
l-115 130z" />
    <glyph glyph-name="ccaron" unicode="&#x10d;" horiz-adv-x="396" 
d="M365 33l4 -22q-49 -23 -114 -23q-102 0 -151 58t-49 199v15q0 149 50 210.5t155 61.5q24 0 49 -4t37 -8l13 -3l-4 -22l-5 -5q-45 12 -90 12q-43 0 -72.5 -9.5t-54 -34.5t-36.5 -74t-12 -124v-15q0 -73 13.5 -121t40.5 -70t53 -29t63 -7q46 0 103 19zM108 720h20l104 -106
l104 106h20l5 -10l-115 -130h-28l-115 130z" />
    <glyph glyph-name="Dcaron" unicode="&#x10e;" horiz-adv-x="538" 
d="M80 0v660h172q106 0 167 -68.5t61 -201.5v-155q0 -113 -51 -174t-147 -61h-202zM252 630h-142v-600h172q81 0 124.5 52t43.5 153v155q0 122 -53 181t-145 59zM109 860h20l104 -106l104 106h20l5 -10l-115 -130h-28l-115 130z" />
    <glyph glyph-name="dcaron" unicode="&#x10f;" horiz-adv-x="524" 
d="M395 700h30v-595q0 -47 14 -66.5t43 -23.5l14 -2l3 -5l-5 -19q-3 -1 -9 -1q-85 0 -90 104h-2q-68 -104 -173 -104q-74 0 -119.5 58.5t-45.5 183.5v55q0 247 190 247q82 0 149 -61h1v229zM85 275v-45q0 -99 33 -155.5t102 -56.5q94 0 175 119v304q-7 7 -19.5 17t-51.5 27
t-79 17q-74 0 -117 -51t-43 -176zM480 683q0 33 28 33t28 -33q0 -19 -14 -62l-22 -70h-20v10l17 88q-17 8 -17 34z" />
    <glyph glyph-name="Dmacron" unicode="&#x110;" horiz-adv-x="528" 
d="M0 310v30h70v320h172q106 0 167 -68.5t61 -201.5v-155q0 -113 -51 -174t-147 -61h-202v310h-70zM242 630h-142v-290h130v-30h-130v-280h172q81 0 124.5 52t43.5 153v155q0 122 -53 181t-145 59z" />
    <glyph glyph-name="dmacron" unicode="&#x111;" horiz-adv-x="524" 
d="M195 600v30h200v70h30v-70h70v-30h-70v-495q0 -47 14 -66.5t43 -23.5l14 -2l3 -5l-5 -19l-6 -1h-3q-85 0 -90 104h-2q-68 -104 -173 -104q-74 0 -119.5 58.5t-45.5 183.5v55q0 247 190 247q85 0 150 -62v130h-200zM85 275v-45q0 -99 33 -155.5t102 -56.5q94 0 175 119
v304q-7 7 -19.5 17t-51.5 27t-79 17q-74 0 -117 -51t-43 -176z" />
    <glyph glyph-name="Emacron" unicode="&#x112;" horiz-adv-x="399" 
d="M80 0v660h290v-30h-260v-270h230v-30h-230v-300h270v-30h-300zM105 735v30h230v-30h-230z" />
    <glyph glyph-name="emacron" unicode="&#x113;" horiz-adv-x="480" 
d="M421 245h-336q0 -122 50 -174.5t130 -52.5q25 0 49 4.5t37.5 9.5t26.5 10.5t16 6.5l8 -4l3 -21q-6 -4 -19 -11t-48 -16t-73 -9q-100 0 -155 63.5t-55 193.5v35q0 117 52.5 184.5t137.5 67.5h10q78 0 124 -50.5t46 -151.5v-16zM85 281v-6h310v55q0 95 -40.5 133.5
t-99.5 38.5h-10q-68 0 -114 -55t-46 -166zM136 594v30h230v-30h-230z" />
    <glyph glyph-name="Ebreve" unicode="&#x114;" horiz-adv-x="399" 
d="M80 0v660h290v-30h-260v-270h230v-30h-230v-300h270v-30h-300zM326 849h30q0 -59 -32 -94t-92 -35q-59 0 -90.5 35t-31.5 94h30q0 -47 24.5 -73t67.5 -26q44 0 69 26t25 73z" />
    <glyph glyph-name="ebreve" unicode="&#x115;" horiz-adv-x="480" 
d="M421 245h-336q0 -122 50 -174.5t130 -52.5q25 0 49 4.5t37.5 9.5t26.5 10.5t16 6.5l8 -4l3 -21q-6 -4 -19 -11t-48 -16t-73 -9q-100 0 -155 63.5t-55 193.5v35q0 117 52.5 184.5t137.5 67.5h10q78 0 124 -50.5t46 -151.5v-16zM85 281v-6h310v55q0 95 -40.5 133.5
t-99.5 38.5h-10q-68 0 -114 -55t-46 -166zM346 711h30q0 -59 -32 -94t-92 -35q-59 0 -90.5 35t-31.5 94h30q0 -47 24.5 -73t67.5 -26q44 0 69 26t25 73z" />
    <glyph glyph-name="Edotaccent" unicode="&#x116;" horiz-adv-x="399" 
d="M80 0v660h290v-30h-260v-270h230v-30h-230v-300h270v-30h-300zM204 762q0 33 28 33t28 -33q0 -32 -28 -32t-28 32z" />
    <glyph glyph-name="edotaccent" unicode="&#x117;" horiz-adv-x="480" 
d="M421 245h-336q0 -122 50 -174.5t130 -52.5q25 0 49 4.5t37.5 9.5t26.5 10.5t16 6.5l8 -4l3 -21q-6 -4 -19 -11t-48 -16t-73 -9q-100 0 -155 63.5t-55 193.5v35q0 117 52.5 184.5t137.5 67.5h10q78 0 124 -50.5t46 -151.5v-16zM85 281v-6h310v55q0 95 -40.5 133.5
t-99.5 38.5h-10q-68 0 -114 -55t-46 -166zM224 622q0 33 28 33t28 -33q0 -32 -28 -32t-28 32z" />
    <glyph glyph-name="Eogonek" unicode="&#x118;" horiz-adv-x="399" 
d="M80 0v660h290v-30h-260v-270h230v-30h-230v-300h270v-30q-80 -80 -80 -130q0 -52 57 -52l46 6l5 -26q-22 -10 -52 -10q-41 0 -63.5 22t-22.5 60q0 60 70 129v1h-260z" />
    <glyph glyph-name="eogonek" unicode="&#x119;" horiz-adv-x="480" 
d="M421 245h-336q0 -122 50 -174.5t130 -52.5q25 0 49 4.5t37.5 9.5t26.5 10.5t16 6.5l8 -4l3 -21q-21 -14 -54 -24q-80 -80 -80 -130q0 -52 57 -52l46 6l5 -26q-22 -10 -52 -10q-41 0 -63.5 22t-22.5 60q0 57 61 119l-1 1q-22 -2 -36 -2q-100 0 -155 63.5t-55 193.5v35
q0 117 52.5 184.5t137.5 67.5h10q78 0 124 -50.5t46 -151.5v-16zM85 281v-6h310v55q0 95 -40.5 133.5t-99.5 38.5h-10q-68 0 -114 -55t-46 -166z" />
    <glyph glyph-name="Ecaron" unicode="&#x11a;" horiz-adv-x="399" 
d="M80 0v660h290v-30h-260v-270h230v-30h-230v-300h270v-30h-300zM105 860h20l104 -106l104 106h20l5 -10l-115 -130h-28l-115 130z" />
    <glyph glyph-name="ecaron" unicode="&#x11b;" horiz-adv-x="480" 
d="M421 245h-336q0 -122 50 -174.5t130 -52.5q25 0 49 4.5t37.5 9.5t26.5 10.5t16 6.5l8 -4l3 -21q-6 -4 -19 -11t-48 -16t-73 -9q-100 0 -155 63.5t-55 193.5v35q0 117 52.5 184.5t137.5 67.5h10q78 0 124 -50.5t46 -151.5v-16zM85 281v-6h310v55q0 95 -40.5 133.5
t-99.5 38.5h-10q-68 0 -114 -55t-46 -166zM126 720h20l104 -106l104 106h20l5 -10l-115 -130h-28l-115 130z" />
    <glyph glyph-name="Gcircumflex" unicode="&#x11c;" horiz-adv-x="512" 
d="M277 18q39 0 75.5 15.5t53.5 30.5l17 16v280h30v-360h-20l-8 45q-24 -24 -64 -40.5t-84 -16.5q-45 0 -82 15.5t-69 50.5t-50 99t-18 152v35q0 184 63 258t182 74q29 0 61.5 -5t51.5 -10l18 -5l-2 -23l-7 -5q-65 18 -122 18q-110 0 -162.5 -67.5t-52.5 -239.5v-30
q0 -154 52 -220.5t137 -66.5zM387 720l-104 105l-104 -105h-20l-5 10l115 130h28l115 -130l-5 -10h-20z" />
    <glyph glyph-name="gcircumflex" unicode="&#x11d;" horiz-adv-x="475" 
d="M325 580l-104 105l-104 -105h-20l-5 10l115 130h28l115 -130l-5 -10h-20zM448 520h12v-25l-5 -5h-7q-49 0 -80 -31q27 -42 27 -99q0 -82 -44.5 -126t-125.5 -44h-10q-45 0 -79 15q-41 -48 -41 -85q0 -28 18 -44t52 -16h117q76 0 114.5 -34.5t38.5 -89.5v-6
q0 -58 -47.5 -100t-147.5 -42h-25q-88 0 -134 36t-46 94v2q0 72 75 121q-45 23 -45 79q0 44 48 97q-68 44 -68 143q0 74 46.5 123t123.5 49h10q80 0 127 -52q38 40 96 40zM365 357v5q0 59 -37 99.5t-108 40.5t-108 -40.5t-37 -99.5v-5q0 -63 36.5 -100t108.5 -37
q145 0 145 137zM165 30q-11 0 -16 1q-84 -43 -84 -111q0 -47 39 -74.5t116 -27.5h15q83 0 126.5 30.5t43.5 81.5v6q0 42 -29 68t-94 26h-117z" />
    <glyph glyph-name="Gbreve" unicode="&#x11e;" horiz-adv-x="512" 
d="M277 18q39 0 75.5 15.5t53.5 30.5l17 16v280h30v-360h-20l-8 45q-24 -24 -64 -40.5t-84 -16.5q-45 0 -82 15.5t-69 50.5t-50 99t-18 152v35q0 184 63 258t182 74q29 0 61.5 -5t51.5 -10l18 -5l-2 -23l-7 -5q-65 18 -122 18q-110 0 -162.5 -67.5t-52.5 -239.5v-30
q0 -154 52 -220.5t137 -66.5zM360 859h30q0 -59 -32 -94t-92 -35q-59 0 -90.5 35t-31.5 94h30q0 -47 24.5 -73t67.5 -26q44 0 69 26t25 73z" />
    <glyph glyph-name="gbreve" unicode="&#x11f;" horiz-adv-x="475" 
d="M313 719h30q0 -59 -32 -94t-92 -35q-59 0 -90.5 35t-31.5 94h30q0 -47 24.5 -73t67.5 -26q44 0 69 26t25 73zM448 520h12v-25l-5 -5h-7q-49 0 -80 -31q27 -42 27 -99q0 -82 -44.5 -126t-125.5 -44h-10q-45 0 -79 15q-41 -48 -41 -85q0 -28 18 -44t52 -16h117
q76 0 114.5 -34.5t38.5 -89.5v-6q0 -58 -47.5 -100t-147.5 -42h-25q-88 0 -134 36t-46 94v2q0 72 75 121q-45 23 -45 79q0 44 48 97q-68 44 -68 143q0 74 46.5 123t123.5 49h10q80 0 127 -52q38 40 96 40zM365 357v5q0 59 -37 99.5t-108 40.5t-108 -40.5t-37 -99.5v-5
q0 -63 36.5 -100t108.5 -37q145 0 145 137zM165 30q-11 0 -16 1q-84 -43 -84 -111q0 -47 39 -74.5t116 -27.5h15q83 0 126.5 30.5t43.5 81.5v6q0 42 -29 68t-94 26h-117z" />
    <glyph glyph-name="Gdotaccent" unicode="&#x120;" horiz-adv-x="512" 
d="M277 18q39 0 75.5 15.5t53.5 30.5l17 16v280h30v-360h-20l-8 45q-24 -24 -64 -40.5t-84 -16.5q-45 0 -82 15.5t-69 50.5t-50 99t-18 152v35q0 184 63 258t182 74q29 0 61.5 -5t51.5 -10l18 -5l-2 -23l-7 -5q-65 18 -122 18q-110 0 -162.5 -67.5t-52.5 -239.5v-30
q0 -154 52 -220.5t137 -66.5zM252 762q0 33 28 33t28 -33q0 -32 -28 -32t-28 32z" />
    <glyph glyph-name="gdotaccent" unicode="&#x121;" horiz-adv-x="475" 
d="M195 624q0 33 28 33t28 -33q0 -32 -28 -32t-28 32zM448 520h12v-25l-5 -5h-7q-49 0 -80 -31q27 -42 27 -99q0 -82 -44.5 -126t-125.5 -44h-10q-45 0 -79 15q-41 -48 -41 -85q0 -28 18 -44t52 -16h117q76 0 114.5 -34.5t38.5 -89.5v-6q0 -58 -47.5 -100t-147.5 -42h-25
q-88 0 -134 36t-46 94v2q0 72 75 121q-45 23 -45 79q0 44 48 97q-68 44 -68 143q0 74 46.5 123t123.5 49h10q80 0 127 -52q38 40 96 40zM365 357v5q0 59 -37 99.5t-108 40.5t-108 -40.5t-37 -99.5v-5q0 -63 36.5 -100t108.5 -37q145 0 145 137zM165 30q-11 0 -16 1
q-84 -43 -84 -111q0 -47 39 -74.5t116 -27.5h15q83 0 126.5 30.5t43.5 81.5v6q0 42 -29 68t-94 26h-117z" />
    <glyph glyph-name="Gcommaaccent" unicode="&#x122;" horiz-adv-x="512" 
d="M277 18q39 0 75.5 15.5t53.5 30.5l17 16v280h30v-360h-20l-8 45q-24 -24 -64 -40.5t-84 -16.5q-45 0 -82 15.5t-69 50.5t-50 99t-18 152v35q0 184 63 258t182 74q29 0 61.5 -5t51.5 -10l18 -5l-2 -23l-7 -5q-65 18 -122 18q-110 0 -162.5 -67.5t-52.5 -239.5v-30
q0 -154 52 -220.5t137 -66.5zM268 -83q0 33 28 33t28 -33q0 -19 -14 -62l-22 -70h-20v10l17 88q-17 8 -17 34z" />
    <glyph glyph-name="gcommaaccent" unicode="&#x123;" horiz-adv-x="475" 
d="M249 604q0 -33 -28 -33t-28 33q0 19 14 62l22 70h20v-10l-17 -88q17 -8 17 -34zM448 520h12v-25l-5 -5h-7q-49 0 -80 -31q27 -42 27 -99q0 -82 -44.5 -126t-125.5 -44h-10q-45 0 -79 15q-41 -48 -41 -85q0 -28 18 -44t52 -16h117q76 0 114.5 -34.5t38.5 -89.5v-6
q0 -58 -47.5 -100t-147.5 -42h-25q-88 0 -134 36t-46 94v2q0 72 75 121q-45 23 -45 79q0 44 48 97q-68 44 -68 143q0 74 46.5 123t123.5 49h10q80 0 127 -52q38 40 96 40zM365 357v5q0 59 -37 99.5t-108 40.5t-108 -40.5t-37 -99.5v-5q0 -63 36.5 -100t108.5 -37
q145 0 145 137zM165 30q-11 0 -16 1q-84 -43 -84 -111q0 -47 39 -74.5t116 -27.5h15q83 0 126.5 30.5t43.5 81.5v6q0 42 -29 68t-94 26h-117z" />
    <glyph glyph-name="Imacron" unicode="&#x12a;" horiz-adv-x="190" 
d="M80 0v660h30v-660h-30zM-20 734v30h230v-30h-230z" />
    <glyph glyph-name="imacron" unicode="&#x12b;" horiz-adv-x="190" 
d="M-20 594v30h230v-30h-230zM80 0v520h30v-520h-30z" />
    <glyph glyph-name="Iogonek" unicode="&#x12e;" horiz-adv-x="190" 
d="M135 -176l5 -26q-22 -10 -52 -10q-41 0 -63.5 22t-22.5 60q0 61 78 130v660h30v-660q-25 -27 -38.5 -43t-26.5 -41t-13 -46q0 -52 57 -52z" />
    <glyph glyph-name="iogonek" unicode="&#x12f;" horiz-adv-x="190" 
d="M135 -176l5 -26q-22 -10 -52 -10q-41 0 -63.5 22t-22.5 60q0 61 78 130v520h30v-520q-78 -82 -78 -130q0 -52 57 -52zM69 642q0 30 26 30t26 -30t-26 -30t-26 30z" />
    <glyph glyph-name="Idotaccent" unicode="&#x130;" horiz-adv-x="190" 
d="M80 0v660h30v-660h-30zM67 772q0 33 28 33t28 -33q0 -32 -28 -32t-28 32z" />
    <glyph glyph-name="dotlessi" unicode="&#x131;" horiz-adv-x="190" 
d="M80 0v520h30v-520h-30z" />
    <glyph glyph-name="Jcircumflex" unicode="&#x134;" horiz-adv-x="331" 
d="M30 -1l2 23l9 5q29 -9 70 -9q59 0 84.5 39.5t25.5 132.5v470h30v-475q0 -98 -32 -147.5t-108 -49.5q-21 0 -41.5 2.5t-29.5 5.5zM340 720l-104 105l-104 -105h-20l-5 10l115 130h28l115 -130l-5 -10h-20z" />
    <glyph glyph-name="jcircumflex" unicode="&#x135;" horiz-adv-x="220" 
d="M140 520v-595q0 -137 -100 -137q-11 0 -25 2t-22 4l-8 3l4 24l7 4q24 -7 44 -7q35 0 52.5 24t17.5 83v595h30zM229 580l-104 105l-104 -105h-20l-5 10l115 130h28l115 -130l-5 -10h-20z" />
    <glyph glyph-name="Kcommaaccent" unicode="&#x136;" horiz-adv-x="446" 
d="M436 0h-36l-214 320h-76v-320h-30v660h30v-310h77l208 310h36l-219 -327zM199 -83q0 33 28 33t28 -33q0 -19 -14 -62l-22 -70h-20v10l17 88q-17 8 -17 34z" />
    <glyph glyph-name="kcommaaccent" unicode="&#x137;" horiz-adv-x="428" 
d="M110 0h-30v700h30v-420h48l202 240h38l-213 -254l223 -266h-38l-210 250h-50v-250zM184 -83q0 33 28 33t28 -33q0 -19 -14 -62l-22 -70h-20v10l17 88q-17 8 -17 34z" />
    <glyph glyph-name="Lacute" unicode="&#x139;" horiz-adv-x="370" 
d="M80 0v660h30v-630h250v-30h-280zM236 860v-20l-113 -120h-20l-5 10l105 130h33z" />
    <glyph glyph-name="lacute" unicode="&#x13a;" horiz-adv-x="233" 
d="M80 700h30v-595q0 -47 14.5 -67t45.5 -20l32 3l6 -5v-23q-13 -5 -38 -5q-90 0 -90 117v595zM213 880v-20l-113 -120h-20l-5 10l105 130h33z" />
    <glyph glyph-name="Lcommaaccent" unicode="&#x13b;" horiz-adv-x="370" 
d="M80 0v660h30v-630h250v-30h-280zM189 -75q0 30 25 30t25 -30q0 -19 -12 -56l-20 -63h-18v9l15 80q-15 6 -15 30z" />
    <glyph glyph-name="lcommaaccent" unicode="&#x13c;" horiz-adv-x="233" 
d="M80 700h30v-595q0 -47 14.5 -67t45.5 -20l32 3l6 -5v-23q-13 -5 -38 -5q-90 0 -90 117v595zM119 -83q0 33 28 33t28 -33q0 -19 -14 -62l-22 -70h-20v10l17 88q-17 8 -17 34z" />
    <glyph glyph-name="Lcaron" unicode="&#x13d;" horiz-adv-x="370" 
d="M80 0v660h30v-630h250v-30h-280zM227 660q0 26 22 26q23 0 23 -26q0 -13 -11 -50l-18 -56h-16v8l14 70q-14 6 -14 28z" />
    <glyph glyph-name="lcaron" unicode="&#x13e;" horiz-adv-x="233" 
d="M80 700h30v-595q0 -47 14.5 -67t45.5 -20l32 3l6 -5v-23q-13 -5 -38 -5q-90 0 -90 117v595zM175 688q0 33 28 33t28 -33q0 -19 -14 -62l-22 -70h-20v10l17 88q-17 8 -17 34z" />
    <glyph glyph-name="Ldot" unicode="&#x13f;" horiz-adv-x="370" 
d="M80 0v660h30v-630h250v-30h-280zM230 339q0 30 25 30t25 -30q0 -29 -25 -29t-25 29z" />
    <glyph glyph-name="ldot" unicode="&#x140;" horiz-adv-x="233" 
d="M80 700h30v-595q0 -47 14.5 -67t45.5 -20l32 3l6 -5v-23q-13 -5 -38 -5q-90 0 -90 117v595zM170 356q0 33 28 33t28 -33q0 -32 -28 -32t-28 32z" />
    <glyph glyph-name="Lslash" unicode="&#x141;" horiz-adv-x="370" 
d="M10 211v34l70 40v375h30v-357l120 70v-34l-120 -70v-239h250v-30h-280v251z" />
    <glyph glyph-name="lslash" unicode="&#x142;" horiz-adv-x="238" 
d="M5 241v34l80 46v379h30v-361l88 51v-34l-88 -51v-200q0 -47 14.5 -67t45.5 -20l32 3l6 -5v-23q-13 -5 -38 -5q-90 0 -90 117v182z" />
    <glyph glyph-name="Nacute" unicode="&#x143;" horiz-adv-x="612" 
d="M502 0l-368 568l-25 49l-4 -1l5 -76v-540h-30v660h30l372 -574l21 -42l3 1l-4 75v540h30v-660h-30zM425 860v-20l-113 -120h-20l-5 10l105 130h33z" />
    <glyph glyph-name="nacute" unicode="&#x144;" horiz-adv-x="515" 
d="M110 0h-30v520h20l9 -63q90 75 186 75q69 0 107 -42t38 -120v-370h-30v365q0 137 -115 137q-96 0 -185 -76v-426zM359 720v-20l-113 -120h-20l-5 10l105 130h33z" />
    <glyph glyph-name="Ncommaaccent" unicode="&#x145;" horiz-adv-x="612" 
d="M502 0l-368 568l-25 49l-4 -1l5 -76v-540h-30v660h30l372 -574l21 -42l3 1l-4 75v540h30v-660h-30zM280 -75q0 30 25 30t25 -30q0 -19 -12 -56l-20 -63h-18v9l15 79q-15 8 -15 31z" />
    <glyph glyph-name="ncommaaccent" unicode="&#x146;" horiz-adv-x="515" 
d="M110 0h-30v520h20l9 -63q90 75 186 75q69 0 107 -42t38 -120v-370h-30v365q0 137 -115 137q-96 0 -185 -76v-426zM231 -83q0 33 28 33t28 -33q0 -19 -14 -62l-22 -70h-20v10l17 88q-17 8 -17 34z" />
    <glyph glyph-name="Ncaron" unicode="&#x147;" horiz-adv-x="612" 
d="M502 0l-368 568l-25 49l-4 -1l5 -76v-540h-30v660h30l372 -574l21 -42l3 1l-4 75v540h30v-660h-30zM194 860h20l104 -106l104 106h20l5 -10l-115 -130h-28l-115 130z" />
    <glyph glyph-name="ncaron" unicode="&#x148;" horiz-adv-x="515" 
d="M110 0h-30v520h20l9 -63q90 75 186 75q69 0 107 -42t38 -120v-370h-30v365q0 137 -115 137q-96 0 -185 -76v-426zM148 720h20l104 -106l104 106h20l5 -10l-115 -130h-28l-115 130z" />
    <glyph glyph-name="Omacron" unicode="&#x14c;" horiz-adv-x="526" 
d="M260 672h6q202 0 202 -322v-40q0 -322 -202 -322h-6q-202 0 -202 322v40q0 322 202 322zM266 642h-6q-90 0 -131 -71.5t-41 -220.5v-40q0 -149 41 -220.5t131 -71.5h6q90 0 131 71.5t41 220.5v40q0 149 -41 220.5t-131 71.5zM147 737v30h230v-30h-230z" />
    <glyph glyph-name="omacron" unicode="&#x14d;" 
d="M247 532h6q93 0 142.5 -65.5t49.5 -185.5v-42q0 -120 -49.5 -185.5t-142.5 -65.5h-6q-93 0 -142.5 65.5t-49.5 185.5v42q0 120 49.5 185.5t142.5 65.5zM415 239v42q0 102 -40 161.5t-125 59.5t-125 -59.5t-40 -161.5v-42q0 -103 40 -162t125 -59t125 59t40 162zM135 594
v30h230v-30h-230z" />
    <glyph glyph-name="Obreve" unicode="&#x14e;" horiz-adv-x="526" 
d="M260 672h6q202 0 202 -322v-40q0 -322 -202 -322h-6q-202 0 -202 322v40q0 322 202 322zM266 642h-6q-90 0 -131 -71.5t-41 -220.5v-40q0 -149 41 -220.5t131 -71.5h6q90 0 131 71.5t41 220.5v40q0 149 -41 220.5t-131 71.5zM356 848h30q0 -59 -32 -94t-92 -35
q-59 0 -90.5 35t-31.5 94h30q0 -47 24.5 -73t67.5 -26q44 0 69 26t25 73z" />
    <glyph glyph-name="obreve" unicode="&#x14f;" 
d="M247 532h6q93 0 142.5 -65.5t49.5 -185.5v-42q0 -120 -49.5 -185.5t-142.5 -65.5h-6q-93 0 -142.5 65.5t-49.5 185.5v42q0 120 49.5 185.5t142.5 65.5zM415 239v42q0 102 -40 161.5t-125 59.5t-125 -59.5t-40 -161.5v-42q0 -103 40 -162t125 -59t125 59t40 162zM343 719
h30q0 -59 -32 -94t-92 -35q-59 0 -90.5 35t-31.5 94h30q0 -47 24.5 -73t67.5 -26q44 0 69 26t25 73z" />
    <glyph glyph-name="Ohungarumlaut" unicode="&#x150;" horiz-adv-x="526" 
d="M260 672h6q202 0 202 -322v-40q0 -322 -202 -322h-6q-202 0 -202 322v40q0 322 202 322zM266 642h-6q-90 0 -131 -71.5t-41 -220.5v-40q0 -149 41 -220.5t131 -71.5h6q90 0 131 71.5t41 220.5v40q0 149 -41 220.5t-131 71.5zM303 859v-20l-103 -120h-20l-5 10l95 130h33z
M431 859v-20l-103 -120h-20l-5 10l95 130h33z" />
    <glyph glyph-name="ohungarumlaut" unicode="&#x151;" 
d="M247 532h6q93 0 142.5 -65.5t49.5 -185.5v-42q0 -120 -49.5 -185.5t-142.5 -65.5h-6q-93 0 -142.5 65.5t-49.5 185.5v42q0 120 49.5 185.5t142.5 65.5zM415 239v42q0 102 -40 161.5t-125 59.5t-125 -59.5t-40 -161.5v-42q0 -103 40 -162t125 -59t125 59t40 162zM298 720
v-20l-103 -120h-20l-5 10l95 130h33zM426 720v-20l-103 -120h-20l-5 10l95 130h33z" />
    <glyph glyph-name="OE" unicode="&#x152;" horiz-adv-x="717" 
d="M260 672h6q40 0 71 -12h351v-30h-290l-5 -6q73 -73 75 -264h190v-30h-190v-20q0 -200 -76 -275l6 -5h300v-30h-361q-31 -12 -71 -12h-6q-202 0 -202 322v40q0 322 202 322zM266 642h-6q-90 0 -131 -71.5t-41 -220.5v-40q0 -149 41 -220.5t131 -71.5h6q88 0 129 67.5
t43 209.5v55q0 149 -41 220.5t-131 71.5z" />
    <glyph glyph-name="oe" unicode="&#x153;" horiz-adv-x="840" 
d="M247 532h6q137 0 177 -140h2q21 67 66 103.5t107 36.5h10q78 0 124 -50.5t46 -151.5v-16l-4 -69h-336q0 -122 50 -174.5t130 -52.5q25 0 49 4.5t37.5 9.5t26.5 10.5t16 6.5l8 -4l3 -21q-6 -4 -19 -11t-48 -16t-73 -9q-150 0 -193 138h-2q-40 -138 -177 -138h-6
q-93 0 -142.5 65.5t-49.5 185.5v42q0 120 49.5 185.5t142.5 65.5zM415 239v6v36v9q-2 98 -42 155t-123 57q-85 0 -125 -59.5t-40 -161.5v-42q0 -103 40 -162t125 -59t125 59t40 162zM445 281v-6h310v55q0 95 -40.5 133.5t-99.5 38.5h-10q-67 0 -112.5 -52t-47.5 -158v-11z
" />
    <glyph glyph-name="Racute" unicode="&#x154;" horiz-adv-x="478" 
d="M440 470v-10q0 -65 -33.5 -107t-96.5 -56v-2q5 -5 16 -25l124 -270h-32l-123 264q-8 16 -16 20.5t-28 5.5h-9h-132v-290h-30v660h142q218 0 218 -190zM222 630h-112v-310h132q168 0 168 140v10q0 86 -47.5 123t-140.5 37zM348 860v-20l-113 -120h-20l-5 10l105 130h33z
" />
    <glyph glyph-name="racute" unicode="&#x155;" horiz-adv-x="290" 
d="M110 0h-30v520h20l9 -63h2q44 75 134 75l26 -2l-2 -24l-5 -5q-13 1 -20 1q-45 0 -80 -24.5t-54 -69.5v-408zM263 720v-20l-113 -120h-20l-5 10l105 130h33z" />
    <glyph glyph-name="Rcommaaccent" unicode="&#x156;" horiz-adv-x="478" 
d="M440 470v-10q0 -65 -33.5 -107t-96.5 -56v-2q5 -5 16 -25l124 -270h-32l-123 264q-8 16 -16 20.5t-28 5.5h-9h-132v-290h-30v660h142q218 0 218 -190zM222 630h-112v-310h132q168 0 168 140v10q0 86 -47.5 123t-140.5 37zM218 -75q0 30 25 30t25 -30q0 -19 -12 -56
l-20 -63h-18v9l15 80q-15 6 -15 30z" />
    <glyph glyph-name="rcommaaccent" unicode="&#x157;" horiz-adv-x="290" 
d="M110 0h-30v520h20l9 -63h2q44 75 134 75l26 -2l-2 -24l-5 -5q-13 1 -20 1q-45 0 -80 -24.5t-54 -69.5v-408zM66 -83q0 33 28 33t28 -33q0 -19 -14 -62l-22 -70h-20v10l17 88q-17 8 -17 34z" />
    <glyph glyph-name="Rcaron" unicode="&#x158;" horiz-adv-x="478" 
d="M440 470v-10q0 -65 -33.5 -107t-96.5 -56v-2q5 -5 16 -25l124 -270h-32l-123 264q-8 16 -16 20.5t-28 5.5h-9h-132v-290h-30v660h142q218 0 218 -190zM222 630h-112v-310h132q168 0 168 140v10q0 86 -47.5 123t-140.5 37zM103 860h20l104 -106l104 106h20l5 -10
l-115 -130h-28l-115 130z" />
    <glyph glyph-name="rcaron" unicode="&#x159;" horiz-adv-x="290" 
d="M110 0h-30v520h20l9 -63h2q44 75 134 75l26 -2l-2 -24l-5 -5q-13 1 -20 1q-45 0 -80 -24.5t-54 -69.5v-408zM31 720h20l104 -106l104 106h20l5 -10l-115 -130h-28l-115 130z" />
    <glyph glyph-name="Sacute" unicode="&#x15a;" horiz-adv-x="480" 
d="M80 8l-1 25l10 4q56 -19 126 -19q175 0 175 162q0 53 -28.5 86.5t-95.5 52.5l-66 19q-72 20 -106 58t-34 104q0 77 45.5 124.5t144.5 47.5q27 0 56.5 -3.5t45.5 -6.5l16 -4l-1 -24l-7 -5q-49 13 -110 13q-160 0 -160 -142q0 -55 28.5 -85.5t89.5 -47.5l64 -18
q148 -40 148 -169q0 -84 -47.5 -138t-157.5 -54q-16 0 -32 1t-29 3t-24.5 4t-20 4t-14.5 3.5t-11 2.5zM353 860v-20l-113 -120h-20l-5 10l105 130h33z" />
    <glyph glyph-name="sacute" unicode="&#x15b;" horiz-adv-x="421" 
d="M67 1l-2 23l8 7q53 -13 119 -13q154 0 154 119q0 42 -26 69.5t-88 42.5l-57 14q-63 15 -95.5 44t-33.5 83q-2 60 39 101t140 41q21 0 48 -3t43 -7l17 -3l-2 -24l-8 -5q-57 12 -98 12q-80 0 -114.5 -29t-34.5 -83q0 -41 25.5 -62.5t79.5 -35.5l59 -15q136 -34 136 -139
q0 -72 -48 -111t-136 -39q-32 0 -63.5 3t-46.5 7zM304 720v-20l-113 -120h-20l-5 10l105 130h33z" />
    <glyph glyph-name="Scircumflex" unicode="&#x15c;" horiz-adv-x="480" 
d="M80 8l-1 25l10 4q56 -19 126 -19q175 0 175 162q0 53 -28.5 86.5t-95.5 52.5l-66 19q-72 20 -106 58t-34 104q0 77 45.5 124.5t144.5 47.5q27 0 56.5 -3.5t45.5 -6.5l16 -4l-1 -24l-7 -5q-49 13 -110 13q-160 0 -160 -142q0 -55 28.5 -85.5t89.5 -47.5l64 -18
q148 -40 148 -169q0 -84 -47.5 -138t-157.5 -54q-16 0 -32 1t-29 3t-24.5 4t-20 4t-14.5 3.5t-11 2.5zM337 720l-104 105l-104 -105h-20l-5 10l115 130h28l115 -130l-5 -10h-20z" />
    <glyph glyph-name="scircumflex" unicode="&#x15d;" horiz-adv-x="421" 
d="M67 1l-2 23l8 7q53 -13 119 -13q154 0 154 119q0 42 -26 69.5t-88 42.5l-57 14q-63 15 -95.5 44t-33.5 83q-2 60 39 101t140 41q21 0 48 -3t43 -7l17 -3l-2 -24l-8 -5q-57 12 -98 12q-80 0 -114.5 -29t-34.5 -83q0 -41 25.5 -62.5t79.5 -35.5l59 -15q136 -34 136 -139
q0 -72 -48 -111t-136 -39q-32 0 -63.5 3t-46.5 7zM310 580l-104 105l-104 -105h-20l-5 10l115 130h28l115 -130l-5 -10h-20z" />
    <glyph glyph-name="Scedilla" unicode="&#x15e;" horiz-adv-x="480" 
d="M177 -204l4 30q38 -8 67 -8q31 0 46.5 13t15.5 34q0 35 -43 35h-62l11 88h-1q-16 0 -32 1t-29 3t-24.5 4t-20 4t-14.5 3.5t-11 2.5l-4 2l-1 25l10 4q56 -19 126 -19q175 0 175 162q0 53 -28.5 86.5t-95.5 52.5l-66 19q-72 20 -106 58t-34 104q0 77 45.5 124.5t144.5 47.5
q27 0 56.5 -3.5t45.5 -6.5l16 -4l-1 -24l-7 -5q-49 13 -110 13q-160 0 -160 -142q0 -55 28.5 -85.5t89.5 -47.5l64 -18q148 -40 148 -169q0 -77 -40.5 -129.5t-132.5 -60.5l-6 -60h27q72 0 72 -65q0 -36 -24.5 -56.5t-67.5 -20.5q-16 0 -34 2t-28 4z" />
    <glyph glyph-name="scedilla" unicode="&#x15f;" horiz-adv-x="421" 
d="M67 1l-2 23l8 7q53 -13 119 -13q154 0 154 119q0 42 -26 69.5t-88 42.5l-57 14q-63 15 -95.5 44t-33.5 83q-2 60 39 101t140 41q21 0 48 -3t43 -7l17 -3l-2 -24l-8 -5q-57 12 -98 12q-80 0 -114.5 -29t-34.5 -83q0 -41 25.5 -62.5t79.5 -35.5l59 -15q136 -34 136 -139
q0 -65 -40 -103t-113 -45l-6 -60h27q72 0 72 -65q0 -36 -24.5 -56.5t-67.5 -20.5q-16 0 -34 2t-28 4l-9 2l4 30q38 -8 67 -8q31 0 46.5 13t15.5 34q0 35 -43 35h-62l11 88q-32 0 -63.5 3t-46.5 7z" />
    <glyph glyph-name="Scaron" unicode="&#x160;" horiz-adv-x="480" 
d="M80 8l-1 25l10 4q56 -19 126 -19q175 0 175 162q0 53 -28.5 86.5t-95.5 52.5l-66 19q-72 20 -106 58t-34 104q0 77 45.5 124.5t144.5 47.5q27 0 56.5 -3.5t45.5 -6.5l16 -4l-1 -24l-7 -5q-49 13 -110 13q-160 0 -160 -142q0 -55 28.5 -85.5t89.5 -47.5l64 -18
q148 -40 148 -169q0 -84 -47.5 -138t-157.5 -54q-16 0 -32 1t-29 3t-24.5 4t-20 4t-14.5 3.5t-11 2.5zM109 860h20l104 -106l104 106h20l5 -10l-115 -130h-28l-115 130z" />
    <glyph glyph-name="scaron" unicode="&#x161;" horiz-adv-x="421" 
d="M67 1l-2 23l8 7q53 -13 119 -13q154 0 154 119q0 42 -26 69.5t-88 42.5l-57 14q-63 15 -95.5 44t-33.5 83q-2 60 39 101t140 41q21 0 48 -3t43 -7l17 -3l-2 -24l-8 -5q-57 12 -98 12q-80 0 -114.5 -29t-34.5 -83q0 -41 25.5 -62.5t79.5 -35.5l59 -15q136 -34 136 -139
q0 -72 -48 -111t-136 -39q-32 0 -63.5 3t-46.5 7zM76 720h20l104 -106l104 106h20l5 -10l-115 -130h-28l-115 130z" />
    <glyph glyph-name="Tcommaaccent" unicode="&#x162;" horiz-adv-x="400" 
d="M15 630v30h370v-30h-170v-630h-30v630h-170zM173 -75q0 30 25 30t25 -30q0 -19 -12 -56l-20 -63h-18v9l15 80q-15 6 -15 30z" />
    <glyph glyph-name="Tcommaaccent" unicode="&#x21a;" horiz-adv-x="400" 
d="M15 630v30h370v-30h-170v-630h-30v630h-170zM173 -75q0 30 25 30t25 -30q0 -19 -12 -56l-20 -63h-18v9l15 80q-15 6 -15 30z" />
    <glyph glyph-name="tcommaaccent" unicode="&#x163;" horiz-adv-x="300" 
d="M25 490v30h80v120h30v-120h140v-30h-140v-375q0 -55 21.5 -76t60.5 -21l51 6l7 -5v-23q-28 -8 -58 -8q-112 0 -112 127v375h-80zM157 -83q0 33 28 33t28 -33q0 -19 -14 -62l-22 -70h-20v10l17 88q-17 8 -17 34z" />
    <glyph glyph-name="tcommaaccent" unicode="&#x21b;" horiz-adv-x="300" 
d="M25 490v30h80v120h30v-120h140v-30h-140v-375q0 -55 21.5 -76t60.5 -21l51 6l7 -5v-23q-28 -8 -58 -8q-112 0 -112 127v375h-80zM157 -83q0 33 28 33t28 -33q0 -19 -14 -62l-22 -70h-20v10l17 88q-17 8 -17 34z" />
    <glyph glyph-name="Tcaron" unicode="&#x164;" horiz-adv-x="400" 
d="M15 630v30h370v-30h-170v-630h-30v630h-170zM76 860h20l104 -106l104 106h20l5 -10l-115 -130h-28l-115 130z" />
    <glyph glyph-name="tcaron" unicode="&#x165;" horiz-adv-x="300" 
d="M25 490v30h80v120h30v-120h140v-30h-140v-375q0 -55 21.5 -76t60.5 -21l51 6l7 -5v-23q-28 -8 -58 -8q-112 0 -112 127v375h-80zM196 674q0 33 28 33t28 -33q0 -19 -14 -62l-22 -70h-20v10l17 88q-17 8 -17 34z" />
    <glyph glyph-name="Utilde" unicode="&#x168;" horiz-adv-x="540" 
d="M440 660h30v-426q0 -246 -195 -246h-10q-195 0 -195 246v426h30v-426q0 -116 42.5 -166t127.5 -50t127.5 50t42.5 166v426zM409 835l29 -10q-18 -56 -41 -80t-57 -24q-24 0 -48 20.5t-45.5 41.5t-38.5 21q-23 0 -37.5 -18t-31.5 -66l-29 10q18 57 41 80.5t57 23.5
q24 0 48 -21t45.5 -41.5t38.5 -20.5q25 0 38 17.5t31 66.5z" />
    <glyph glyph-name="utilde" unicode="&#x169;" horiz-adv-x="539" 
d="M410 520h30v-415q0 -47 14 -66.5t43 -23.5l14 -2l3 -5l-5 -19q-3 -1 -9 -1q-87 0 -90 107h-2q-69 -107 -183 -107q-71 0 -108 43t-37 119v370h30v-365q0 -137 115 -137q112 0 185 123v379zM408 699l29 -10q-18 -56 -41 -80t-57 -24q-24 0 -48 20.5t-45.5 41.5t-38.5 21
q-23 0 -37.5 -18t-31.5 -66l-29 10q18 57 41 80.5t57 23.5q24 0 48 -21t45.5 -41.5t38.5 -20.5q25 0 38 17.5t31 66.5z" />
    <glyph glyph-name="Umacron" unicode="&#x16a;" horiz-adv-x="540" 
d="M440 660h30v-426q0 -246 -195 -246h-10q-195 0 -195 246v426h30v-426q0 -116 42.5 -166t127.5 -50t127.5 50t42.5 166v426zM159 752v30h230v-30h-230z" />
    <glyph glyph-name="umacron" unicode="&#x16b;" horiz-adv-x="539" 
d="M410 520h30v-415q0 -47 14 -66.5t43 -23.5l14 -2l3 -5l-5 -19q-3 -1 -9 -1q-87 0 -90 107h-2q-69 -107 -183 -107q-71 0 -108 43t-37 119v370h30v-365q0 -137 115 -137q112 0 185 123v379zM147 595v30h230v-30h-230z" />
    <glyph glyph-name="Ubreve" unicode="&#x16c;" horiz-adv-x="540" 
d="M440 660h30v-426q0 -246 -195 -246h-10q-195 0 -195 246v426h30v-426q0 -116 42.5 -166t127.5 -50t127.5 50t42.5 166v426zM360 849h30q0 -59 -32 -94t-92 -35q-59 0 -90.5 35t-31.5 94h30q0 -47 24.5 -73t67.5 -26q44 0 69 26t25 73z" />
    <glyph glyph-name="ubreve" unicode="&#x16d;" horiz-adv-x="539" 
d="M410 520h30v-415q0 -47 14 -66.5t43 -23.5l14 -2l3 -5l-5 -19q-3 -1 -9 -1q-87 0 -90 107h-2q-69 -107 -183 -107q-71 0 -108 43t-37 119v370h30v-365q0 -137 115 -137q112 0 185 123v379zM355 719h30q0 -59 -32 -94t-92 -35q-59 0 -90.5 35t-31.5 94h30q0 -47 24.5 -73
t67.5 -26q44 0 69 26t25 73z" />
    <glyph glyph-name="Uring" unicode="&#x16e;" horiz-adv-x="540" 
d="M440 660h30v-426q0 -246 -195 -246h-10q-195 0 -195 246v426h30v-426q0 -116 42.5 -166t127.5 -50t127.5 50t42.5 166v426zM179 815q0 39 28 67t67 28t67 -28t28 -67t-28 -67t-67 -28t-67 28t-28 67zM209 815q0 -27 19 -46t46 -19t46 19t19 46t-19 46t-46 19t-46 -19
t-19 -46z" />
    <glyph glyph-name="uring" unicode="&#x16f;" horiz-adv-x="539" 
d="M410 520h30v-415q0 -47 14 -66.5t43 -23.5l14 -2l3 -5l-5 -19q-3 -1 -9 -1q-87 0 -90 107h-2q-69 -107 -183 -107q-71 0 -108 43t-37 119v370h30v-365q0 -137 115 -137q112 0 185 123v379zM166 675q0 39 28 67t67 28t67 -28t28 -67t-28 -67t-67 -28t-67 28t-28 67z
M196 675q0 -27 19 -46t46 -19t46 19t19 46t-19 46t-46 19t-46 -19t-19 -46z" />
    <glyph glyph-name="Uhungarumlaut" unicode="&#x170;" horiz-adv-x="540" 
d="M440 660h30v-426q0 -246 -195 -246h-10q-195 0 -195 246v426h30v-426q0 -116 42.5 -166t127.5 -50t127.5 50t42.5 166v426zM319 860v-20l-103 -120h-20l-5 10l95 130h33zM447 860v-20l-103 -120h-20l-5 10l95 130h33z" />
    <glyph glyph-name="uhungarumlaut" unicode="&#x171;" horiz-adv-x="539" 
d="M410 520h30v-415q0 -47 14 -66.5t43 -23.5l14 -2l3 -5l-5 -19q-3 -1 -9 -1q-87 0 -90 107h-2q-69 -107 -183 -107q-71 0 -108 43t-37 119v370h30v-365q0 -137 115 -137q112 0 185 123v379zM297 720v-20l-103 -120h-20l-5 10l95 130h33zM425 720v-20l-103 -120h-20l-5 10
l95 130h33z" />
    <glyph glyph-name="Uogonek" unicode="&#x172;" horiz-adv-x="540" 
d="M440 660h30v-426q0 -201 -130 -237q-76 -76 -76 -127q0 -52 57 -52l46 6l5 -26q-22 -10 -52 -10q-41 0 -63.5 22t-22.5 60q0 54 61 118v1q-13 -1 -20 -1h-10q-195 0 -195 246v426h30v-426q0 -116 42.5 -166t127.5 -50t127.5 50t42.5 166v426z" />
    <glyph glyph-name="uogonek" unicode="&#x173;" horiz-adv-x="539" 
d="M410 520h30v-415q0 -47 14 -66.5t43 -23.5l14 -2l3 -5l-5 -19q-69 -71 -69 -119q0 -52 57 -52l46 6l5 -26q-22 -10 -52 -10q-41 0 -63.5 22t-22.5 60q0 56 62 121v1q-60 15 -62 103h-2q-69 -107 -183 -107q-71 0 -108 43t-37 119v370h30v-365q0 -137 115 -137
q112 0 185 123v379z" />
    <glyph glyph-name="Wcircumflex" unicode="&#x174;" horiz-adv-x="700" 
d="M522 0h-31l-131 534l-8 56h-4q-4 -39 -8 -56l-131 -534h-31l-163 660h32l128 -520l17 -87h5q3 37 13 77l124 510h32l124 -510l13 -77h5l17 87l128 520h32zM455 720l-104 105l-104 -105h-20l-5 10l115 130h28l115 -130l-5 -10h-20z" />
    <glyph glyph-name="wcircumflex" unicode="&#x175;" horiz-adv-x="652" 
d="M502 0h-44l-115 408l-14 67h-6l-14 -67l-115 -408h-44l-130 520h31l95 -378l26 -112h4l28 112l107 378h30l107 -378l28 -112h4l26 112l95 378h31zM430 580l-104 105l-104 -105h-20l-5 10l115 130h28l115 -130l-5 -10h-20z" />
    <glyph glyph-name="Ycircumflex" unicode="&#x176;" horiz-adv-x="476" 
d="M15 660h34l161 -325l26 -64h4q9 29 26 63l161 326h34l-208 -420v-240h-30v240zM348 720l-104 105l-104 -105h-20l-5 10l115 130h28l115 -130l-5 -10h-20z" />
    <glyph glyph-name="ycircumflex" unicode="&#x177;" horiz-adv-x="428" 
d="M20 520h32l143 -393l26 -91h4l24 91l128 393h31l-198 -615q-20 -62 -43.5 -89.5t-67.5 -27.5l-38 5l4 23l6 5q10 -3 28 -3q31 0 47.5 20.5t36.5 81.5l26 80zM325 580l-104 105l-104 -105h-20l-5 10l115 130h28l115 -130l-5 -10h-20z" />
    <glyph glyph-name="Ydieresis" unicode="&#x178;" horiz-adv-x="476" 
d="M15 660h34l161 -325l26 -64h4q9 29 26 63l161 326h34l-208 -420v-240h-30v240zM131 755q0 33 28 33t28 -33q0 -32 -28 -32t-28 32zM289 755q0 33 28 33t28 -33q0 -32 -28 -32t-28 32z" />
    <glyph glyph-name="Zacute" unicode="&#x179;" horiz-adv-x="418" 
d="M56 630v30h323v-28l-285 -562l-21 -37v-3h306v-30h-340v28l285 562l21 37v3h-289zM337 860v-20l-113 -120h-20l-5 10l105 130h33z" />
    <glyph glyph-name="zacute" unicode="&#x17a;" horiz-adv-x="413" 
d="M378 520v-20l-281 -440l-22 -27l1 -4l37 1h265v-30h-343v20l281 440l21 27l-1 4l-32 -1h-249v30h323zM337 720v-20l-113 -120h-20l-5 10l105 130h33z" />
    <glyph glyph-name="Zdotaccent" unicode="&#x17b;" horiz-adv-x="418" 
d="M56 630v30h323v-28l-285 -562l-21 -37v-3h306v-30h-340v28l285 562l21 37v3h-289zM206 762q0 33 28 33t28 -33q0 -32 -28 -32t-28 32z" />
    <glyph glyph-name="zdotaccent" unicode="&#x17c;" horiz-adv-x="413" 
d="M378 520v-20l-281 -440l-22 -27l1 -4l37 1h265v-30h-343v20l281 440l21 27l-1 4l-32 -1h-249v30h323zM193 622q0 33 28 33t28 -33q0 -32 -28 -32t-28 32z" />
    <glyph glyph-name="Zcaron" unicode="&#x17d;" horiz-adv-x="418" 
d="M56 630v30h323v-28l-285 -562l-21 -37v-3h306v-30h-340v28l285 562l21 37v3h-289zM103 860h20l104 -106l104 106h20l5 -10l-115 -130h-28l-115 130z" />
    <glyph glyph-name="zcaron" unicode="&#x17e;" horiz-adv-x="413" 
d="M378 520v-20l-281 -440l-22 -27l1 -4l37 1h265v-30h-343v20l281 440l21 27l-1 4l-32 -1h-249v30h323zM98 720h20l104 -106l104 106h20l5 -10l-115 -130h-28l-115 130z" />
    <glyph glyph-name="florin" unicode="&#x192;" horiz-adv-x="278" 
d="M137 502l-14 -132h123v-30h-126l-39 -370q-9 -85 -36.5 -122.5t-99.5 -37.5q-13 0 -28.5 2t-24.5 4l-8 1l2 25l6 4q23 -6 53 -6q57 0 77.5 27.5t28.5 102.5l39 370h-104v30h107l14 132q9 85 36.5 122.5t99.5 37.5q13 0 28.5 -2t24.5 -4l8 -1l-2 -25l-6 -4q-23 6 -53 6
q-57 0 -77.5 -27.5t-28.5 -102.5z" />
    <glyph glyph-name="AEacute" unicode="&#x1fc;" horiz-adv-x="609" 
d="M290 0v210h-171l-71 -210h-33l224 660h341v-30h-260v-270h230v-30h-230v-300h270v-30h-300zM248 590l-119 -350h161v390h-30zM510 860v-20l-113 -120h-20l-5 10l105 130h33z" />
    <glyph glyph-name="aeacute" unicode="&#x1fd;" horiz-adv-x="810" 
d="M385 330q0 90 -32.5 131t-122.5 41q-32 0 -67 -5.5t-55 -10.5l-19 -6l-6 6l4 24q63 22 143 22t122 -29.5t55 -91.5h2q22 58 65.5 89.5t100.5 31.5h10q78 0 124 -50.5t46 -151.5v-16l-3 -49h-337v-20q0 -122 50 -174.5t130 -52.5q25 0 49 4.5t37.5 9.5t26.5 10.5t16 6.5
l8 -4l3 -21q-6 -4 -19 -11t-48 -16t-73 -9q-147 0 -192 132h-2q-76 -132 -201 -132q-70 0 -112.5 44t-42.5 108v5q0 70 42 110t128 40h170v35zM200 18q34 0 64.5 12.5t55 35.5t40 43t33.5 48q-8 42 -8 88v20h-170q-140 0 -140 -120v-5q0 -53 35.5 -87.5t89.5 -34.5zM575 502
q-66 0 -111.5 -51.5t-48.5 -155.5h310v35q0 95 -40.5 133.5t-99.5 38.5h-10zM542 720v-20l-113 -120h-20l-5 10l105 130h33z" />
    <glyph glyph-name="Oslashacute" unicode="&#x1fe;" horiz-adv-x="526" 
d="M378 860v-20l-113 -120h-20l-5 10l105 130h33zM260 672h6q76 0 124 -45l34 73l28 -13l-40 -86q56 -78 56 -251v-40q0 -322 -202 -322h-6q-70 0 -116 38l-31 -66l-28 12l36 77q-63 78 -63 261v40q0 322 202 322zM150 111l226 487q-41 44 -110 44h-6q-90 0 -131 -71.5
t-41 -220.5v-40q0 -163 47 -231l2 4zM438 350q0 150 -41 220l-2 -5l-8 -17l-230 -494q39 -36 103 -36h6q90 0 131 71.5t41 220.5v40z" />
    <glyph glyph-name="oslashacute" unicode="&#x1ff;" 
d="M367 720v-20l-113 -120h-20l-5 10l105 130h33zM247 532h6q75 0 122 -44l38 61l24 -16l-42 -67q50 -65 50 -185v-42q0 -120 -49.5 -185.5t-142.5 -65.5h-6q-77 0 -124 44l-36 -58l-24 16l41 65q-49 66 -49 184v42q0 120 49.5 185.5t142.5 65.5zM415 239v42q0 99 -38 157
l-3 -6l-15 -24l-219 -349q41 -41 110 -41q85 0 125 59t40 162zM136 106l222 356q-42 40 -108 40q-85 0 -125 -59.5t-40 -161.5v-42q0 -101 36 -157l2 3z" />
    <glyph glyph-name="Adblgrave" unicode="&#x200;" horiz-adv-x="493" 
d="M15 0l214 660h35l214 -660h-33l-68 210h-262l-67 -210h-33zM238 590l-113 -350h242l-112 350l-7 35h-3q-4 -25 -7 -35zM206 839v20h33l95 -130l-5 -10h-20zM67 839v20h33l95 -130l-5 -10h-20z" />
    <glyph glyph-name="adblgrave" unicode="&#x201;" horiz-adv-x="514" 
d="M224 700v20h33l95 -130l-5 -10h-20zM85 700v20h33l95 -130l-5 -10h-20zM385 325v5q0 90 -32.5 131t-122.5 41q-32 0 -67 -5.5t-55 -10.5l-19 -6l-6 6l4 24q63 22 143 22q102 0 143.5 -47.5t41.5 -152.5v-227q0 -47 14 -66.5t43 -23.5l14 -2l3 -5l-5 -19q-3 -1 -9 -1
q-87 0 -90 107h-2q-71 -107 -183 -107q-70 0 -112.5 44t-42.5 108v5q0 140 170 160zM200 18q63 0 106 34t79 90v153l-170 -20q-140 -16 -140 -130v-5q0 -53 35.5 -87.5t89.5 -34.5z" />
    <glyph glyph-name="Ainvertedbreve" unicode="&#x202;" horiz-adv-x="493" 
d="M15 0l214 660h35l214 -660h-33l-68 210h-262l-67 -210h-33zM238 590l-113 -350h242l-112 350l-7 35h-3q-4 -25 -7 -35zM154 717h-30q0 59 32 94t92 35q59 0 90.5 -35t31.5 -94h-30q0 47 -24.5 73t-67.5 26q-44 0 -69 -26t-25 -73z" />
    <glyph glyph-name="ainvertedbreve" unicode="&#x203;" horiz-adv-x="514" 
d="M152 580h-30q0 59 32 94t92 35q59 0 90.5 -35t31.5 -94h-30q0 47 -24.5 73t-67.5 26q-44 0 -69 -26t-25 -73zM385 325v5q0 90 -32.5 131t-122.5 41q-32 0 -67 -5.5t-55 -10.5l-19 -6l-6 6l4 24q63 22 143 22q102 0 143.5 -47.5t41.5 -152.5v-227q0 -47 14 -66.5t43 -23.5
l14 -2l3 -5l-5 -19q-3 -1 -9 -1q-87 0 -90 107h-2q-71 -107 -183 -107q-70 0 -112.5 44t-42.5 108v5q0 140 170 160zM200 18q63 0 106 34t79 90v153l-170 -20q-140 -16 -140 -130v-5q0 -53 35.5 -87.5t89.5 -34.5z" />
    <glyph glyph-name="Edblgrave" unicode="&#x204;" horiz-adv-x="399" 
d="M80 0v660h290v-30h-260v-270h230v-30h-230v-300h270v-30h-300zM192 839v20h33l95 -130l-5 -10h-20zM53 839v20h33l95 -130l-5 -10h-20z" />
    <glyph glyph-name="edblgrave" unicode="&#x205;" horiz-adv-x="480" 
d="M421 245h-336q0 -122 50 -174.5t130 -52.5q25 0 49 4.5t37.5 9.5t26.5 10.5t16 6.5l8 -4l3 -21q-6 -4 -19 -11t-48 -16t-73 -9q-100 0 -155 63.5t-55 193.5v35q0 117 52.5 184.5t137.5 67.5h10q78 0 124 -50.5t46 -151.5v-16zM85 281v-6h310v55q0 95 -40.5 133.5
t-99.5 38.5h-10q-68 0 -114 -55t-46 -166zM224 700v20h33l95 -130l-5 -10h-20zM85 700v20h33l95 -130l-5 -10h-20z" />
    <glyph glyph-name="Einvertedbreve" unicode="&#x206;" horiz-adv-x="399" 
d="M80 0v660h290v-30h-260v-270h230v-30h-230v-300h270v-30h-300zM127 715h-30q0 59 32 94t92 35q59 0 90.5 -35t31.5 -94h-30q0 47 -24.5 73t-67.5 26q-44 0 -69 -26t-25 -73z" />
    <glyph glyph-name="einvertedbreve" unicode="&#x207;" horiz-adv-x="480" 
d="M421 245h-336q0 -122 50 -174.5t130 -52.5q25 0 49 4.5t37.5 9.5t26.5 10.5t16 6.5l8 -4l3 -21q-6 -4 -19 -11t-48 -16t-73 -9q-100 0 -155 63.5t-55 193.5v35q0 117 52.5 184.5t137.5 67.5h10q78 0 124 -50.5t46 -151.5v-16zM85 281v-6h310v55q0 95 -40.5 133.5
t-99.5 38.5h-10q-68 0 -114 -55t-46 -166zM155 580h-30q0 59 32 94t92 35q59 0 90.5 -35t31.5 -94h-30q0 47 -24.5 73t-67.5 26q-44 0 -69 -26t-25 -73z" />
    <glyph glyph-name="Idblgrave" unicode="&#x208;" horiz-adv-x="190" 
d="M80 0v660h30v-660h-30zM50 839v20h33l95 -130l-5 -10h-20zM-89 839v20h33l95 -130l-5 -10h-20z" />
    <glyph glyph-name="idblgrave" unicode="&#x209;" horiz-adv-x="190" 
d="M56 700v20h33l95 -130l-5 -10h-20zM-83 700v20h33l95 -130l-5 -10h-20zM80 0v520h30v-520h-30z" />
    <glyph glyph-name="Iinvertedbreve" unicode="&#x20a;" horiz-adv-x="190" 
d="M80 0v660h30v-660h-30zM2 719h-30q0 59 32 94t92 35q59 0 90.5 -35t31.5 -94h-30q0 47 -24.5 73t-67.5 26q-44 0 -69 -26t-25 -73z" />
    <glyph glyph-name="iinvertedbreve" unicode="&#x20b;" horiz-adv-x="190" 
d="M2 580h-30q0 59 32 94t92 35q59 0 90.5 -35t31.5 -94h-30q0 47 -24.5 73t-67.5 26q-44 0 -69 -26t-25 -73zM80 0v520h30v-520h-30z" />
    <glyph glyph-name="Odblgrave" unicode="&#x20c;" horiz-adv-x="526" 
d="M260 672h6q202 0 202 -322v-40q0 -322 -202 -322h-6q-202 0 -202 322v40q0 322 202 322zM266 642h-6q-90 0 -131 -71.5t-41 -220.5v-40q0 -149 41 -220.5t131 -71.5h6q90 0 131 71.5t41 220.5v40q0 149 -41 220.5t-131 71.5zM221 839v20h33l95 -130l-5 -10h-20zM82 839
v20h33l95 -130l-5 -10h-20z" />
    <glyph glyph-name="odblgrave" unicode="&#x20d;" 
d="M247 532h6q93 0 142.5 -65.5t49.5 -185.5v-42q0 -120 -49.5 -185.5t-142.5 -65.5h-6q-93 0 -142.5 65.5t-49.5 185.5v42q0 120 49.5 185.5t142.5 65.5zM415 239v42q0 102 -40 161.5t-125 59.5t-125 -59.5t-40 -161.5v-42q0 -103 40 -162t125 -59t125 59t40 162zM229 700
v20h33l95 -130l-5 -10h-20zM90 700v20h33l95 -130l-5 -10h-20z" />
    <glyph glyph-name="Oinvertedbreve" unicode="&#x20e;" horiz-adv-x="526" 
d="M260 672h6q202 0 202 -322v-40q0 -322 -202 -322h-6q-202 0 -202 322v40q0 322 202 322zM266 642h-6q-90 0 -131 -71.5t-41 -220.5v-40q0 -149 41 -220.5t131 -71.5h6q90 0 131 71.5t41 220.5v40q0 149 -41 220.5t-131 71.5zM167 719h-30q0 59 32 94t92 35q59 0 90.5 -35
t31.5 -94h-30q0 47 -24.5 73t-67.5 26q-44 0 -69 -26t-25 -73z" />
    <glyph glyph-name="oinvertedbreve" unicode="&#x20f;" 
d="M247 532h6q93 0 142.5 -65.5t49.5 -185.5v-42q0 -120 -49.5 -185.5t-142.5 -65.5h-6q-93 0 -142.5 65.5t-49.5 185.5v42q0 120 49.5 185.5t142.5 65.5zM415 239v42q0 102 -40 161.5t-125 59.5t-125 -59.5t-40 -161.5v-42q0 -103 40 -162t125 -59t125 59t40 162zM157 580
h-30q0 59 32 94t92 35q59 0 90.5 -35t31.5 -94h-30q0 47 -24.5 73t-67.5 26q-44 0 -69 -26t-25 -73z" />
    <glyph glyph-name="Rdblgrave" unicode="&#x210;" horiz-adv-x="478" 
d="M440 470v-10q0 -65 -33.5 -107t-96.5 -56v-2q5 -5 16 -25l124 -270h-32l-123 264q-8 16 -16 20.5t-28 5.5h-9h-132v-290h-30v660h142q218 0 218 -190zM222 630h-112v-310h132q168 0 168 140v10q0 86 -47.5 123t-140.5 37zM186 839v20h33l95 -130l-5 -10h-20zM47 839v20
h33l95 -130l-5 -10h-20z" />
    <glyph glyph-name="rdblgrave" unicode="&#x211;" horiz-adv-x="290" 
d="M110 0h-30v520h20l9 -63h2q44 75 134 75l26 -2l-2 -24l-5 -5q-13 1 -20 1q-45 0 -80 -24.5t-54 -69.5v-408zM134 700v20h33l95 -130l-5 -10h-20zM-5 700v20h33l95 -130l-5 -10h-20z" />
    <glyph glyph-name="Rinvertedbreve" unicode="&#x212;" horiz-adv-x="478" 
d="M440 470v-10q0 -65 -33.5 -107t-96.5 -56v-2q5 -5 16 -25l124 -270h-32l-123 264q-8 16 -16 20.5t-28 5.5h-9h-132v-290h-30v660h142q218 0 218 -190zM222 630h-112v-310h132q168 0 168 140v10q0 86 -47.5 123t-140.5 37zM123 719h-30q0 59 32 94t92 35q59 0 90.5 -35
t31.5 -94h-30q0 47 -24.5 73t-67.5 26q-44 0 -69 -26t-25 -73z" />
    <glyph glyph-name="rinvertedbreve" unicode="&#x213;" horiz-adv-x="290" 
d="M110 0h-30v520h20l9 -63h2q44 75 134 75l26 -2l-2 -24l-5 -5q-13 1 -20 1q-45 0 -80 -24.5t-54 -69.5v-408zM73 580h-30q0 59 32 94t92 35q59 0 90.5 -35t31.5 -94h-30q0 47 -24.5 73t-67.5 26q-44 0 -69 -26t-25 -73z" />
    <glyph glyph-name="Udblgrave" unicode="&#x214;" horiz-adv-x="540" 
d="M440 660h30v-426q0 -246 -195 -246h-10q-195 0 -195 246v426h30v-426q0 -116 42.5 -166t127.5 -50t127.5 50t42.5 166v426zM229 840v20h33l95 -130l-5 -10h-20zM90 840v20h33l95 -130l-5 -10h-20z" />
    <glyph glyph-name="udblgrave" unicode="&#x215;" horiz-adv-x="539" 
d="M410 520h30v-415q0 -47 14 -66.5t43 -23.5l14 -2l3 -5l-5 -19q-3 -1 -9 -1q-87 0 -90 107h-2q-69 -107 -183 -107q-71 0 -108 43t-37 119v370h30v-365q0 -137 115 -137q112 0 185 123v379zM234 700v20h33l95 -130l-5 -10h-20zM95 700v20h33l95 -130l-5 -10h-20z" />
    <glyph glyph-name="Uinvertedbreve" unicode="&#x216;" horiz-adv-x="540" 
d="M440 660h30v-426q0 -246 -195 -246h-10q-195 0 -195 246v426h30v-426q0 -116 42.5 -166t127.5 -50t127.5 50t42.5 166v426zM179 719h-30q0 59 32 94t92 35q59 0 90.5 -35t31.5 -94h-30q0 47 -24.5 73t-67.5 26q-44 0 -69 -26t-25 -73z" />
    <glyph glyph-name="uinvertedbreve" unicode="&#x217;" horiz-adv-x="539" 
d="M410 520h30v-415q0 -47 14 -66.5t43 -23.5l14 -2l3 -5l-5 -19q-3 -1 -9 -1q-87 0 -90 107h-2q-69 -107 -183 -107q-71 0 -108 43t-37 119v370h30v-365q0 -137 115 -137q112 0 185 123v379zM173 580h-30q0 59 32 94t92 35q59 0 90.5 -35t31.5 -94h-30q0 47 -24.5 73
t-67.5 26q-44 0 -69 -26t-25 -73z" />
    <glyph glyph-name="Scommaaccent" unicode="&#x218;" horiz-adv-x="480" 
d="M80 8l-1 25l10 4q56 -19 126 -19q175 0 175 162q0 53 -28.5 86.5t-95.5 52.5l-66 19q-72 20 -106 58t-34 104q0 77 45.5 124.5t144.5 47.5q27 0 56.5 -3.5t45.5 -6.5l16 -4l-1 -24l-7 -5q-49 13 -110 13q-160 0 -160 -142q0 -55 28.5 -85.5t89.5 -47.5l64 -18
q148 -40 148 -169q0 -84 -47.5 -138t-157.5 -54q-16 0 -32 1t-29 3t-24.5 4t-20 4t-14.5 3.5t-11 2.5zM223 -75q0 30 25 30t25 -30q0 -19 -12 -56l-20 -63h-18v9l15 79q-15 8 -15 31z" />
    <glyph glyph-name="scommaaccent" unicode="&#x219;" horiz-adv-x="421" 
d="M67 1l-2 23l8 7q53 -13 119 -13q154 0 154 119q0 42 -26 69.5t-88 42.5l-57 14q-63 15 -95.5 44t-33.5 83q-2 60 39 101t140 41q21 0 48 -3t43 -7l17 -3l-2 -24l-8 -5q-57 12 -98 12q-80 0 -114.5 -29t-34.5 -83q0 -41 25.5 -62.5t79.5 -35.5l59 -15q136 -34 136 -139
q0 -72 -48 -111t-136 -39q-32 0 -63.5 3t-46.5 7zM191 -83q0 33 28 33t28 -33q0 -19 -14 -62l-22 -70h-20v10l17 88q-17 8 -17 34z" />
    <glyph glyph-name="circumflex" unicode="&#x2c6;" horiz-adv-x="833" 
d="M504 580l-104 105l-104 -105h-20l-5 10l115 130h28l115 -130l-5 -10h-20z" />
    <glyph glyph-name="caron" unicode="&#x2c7;" horiz-adv-x="833" 
d="M276 720h20l104 -106l104 106h20l5 -10l-115 -130h-28l-115 130z" />
    <glyph glyph-name="breve" unicode="&#x2d8;" horiz-adv-x="406" 
d="M296 719h30q0 -59 -32 -94t-92 -35q-59 0 -90.5 35t-31.5 94h30q0 -47 24.5 -73t67.5 -26q44 0 69 26t25 73z" />
    <glyph glyph-name="dotaccent" unicode="&#x2d9;" horiz-adv-x="230" 
d="M87 650q0 33 28 33t28 -33q0 -32 -28 -32t-28 32z" />
    <glyph glyph-name="ring" unicode="&#x2da;" horiz-adv-x="270" 
d="M40 675q0 39 28 67t67 28t67 -28t28 -67t-28 -67t-67 -28t-67 28t-28 67zM70 675q0 -27 19 -46t46 -19t46 19t19 46t-19 46t-46 19t-46 -19t-19 -46z" />
    <glyph glyph-name="ogonek" unicode="&#x2db;" horiz-adv-x="306" 
d="M203 -176l5 -26q-22 -10 -52 -10q-41 0 -63.5 22t-22.5 60q0 60 70 130h40q-80 -80 -80 -130q0 -52 57 -52z" />
    <glyph glyph-name="tilde" unicode="&#x2dc;" horiz-adv-x="476" 
d="M374 717l29 -10q-18 -56 -41 -80t-57 -24q-24 0 -48 20.5t-45.5 41.5t-38.5 21q-23 0 -37.5 -18t-31.5 -66l-29 10q18 57 41 80.5t57 23.5q24 0 48 -21t45.5 -41.5t38.5 -20.5q25 0 38 17.5t31 66.5z" />
    <glyph glyph-name="hungarumlaut" unicode="&#x2dd;" horiz-adv-x="470" 
d="M262 720v-20l-103 -120h-20l-5 10l95 130h33zM390 720v-20l-103 -120h-20l-5 10l95 130h33z" />
    <glyph glyph-name="invertedbreve" unicode="&#x311;" horiz-adv-x="406" 
d="M110 580h-30q0 59 32 94t92 35q59 0 90.5 -35t31.5 -94h-30q0 47 -24.5 73t-67.5 26q-44 0 -69 -26t-25 -73z" />
    <glyph glyph-name="pi" unicode="&#x3c0;" horiz-adv-x="649" 
d="M30 490v30h580v-30h-130v-385q0 -47 14.5 -67t45.5 -20l32 3l6 -5v-23q-13 -5 -38 -5q-90 0 -90 117v385h-260v-490h-30v490h-130z" />
    <glyph glyph-name="bahtthai" unicode="&#xe3f;" horiz-adv-x="480" 
d="M80 0v650h142h8v90h30v-92q160 -15 160 -169v-8q0 -51 -15 -84.5t-56 -52.5v-4q91 -27 91 -151v-8q0 -72 -40 -121.5t-128 -49.5h-12v-100h-30v100h-150zM280 315h-20v-285h12q71 0 104.5 38t33.5 92v25q0 130 -130 130zM110 315v-285h120v285h-120zM222 620h-112v-275
h120v275h-8zM390 482q0 63 -31.5 96t-98.5 40v-273h20q52 0 81 31t29 84v22z" />
    <glyph glyph-name="Wgrave" unicode="&#x1e80;" horiz-adv-x="700" 
d="M522 0h-31l-131 534l-8 56h-4q-4 -39 -8 -56l-131 -534h-31l-163 660h32l128 -520l17 -87h5q3 37 13 77l124 510h32l124 -510l13 -77h5l17 87l128 520h32zM247 840v20h33l105 -130l-5 -10h-20z" />
    <glyph glyph-name="wgrave" unicode="&#x1e81;" horiz-adv-x="652" 
d="M502 0h-44l-115 408l-14 67h-6l-14 -67l-115 -408h-44l-130 520h31l95 -378l26 -112h4l28 112l107 378h30l107 -378l28 -112h4l26 112l95 378h31zM218 700v20h33l105 -130l-5 -10h-20z" />
    <glyph glyph-name="Wacute" unicode="&#x1e82;" horiz-adv-x="700" 
d="M522 0h-31l-131 534l-8 56h-4q-4 -39 -8 -56l-131 -534h-31l-163 660h32l128 -520l17 -87h5q3 37 13 77l124 510h32l124 -510l13 -77h5l17 87l128 520h32zM464 860v-20l-113 -120h-20l-5 10l105 130h33z" />
    <glyph glyph-name="wacute" unicode="&#x1e83;" horiz-adv-x="652" 
d="M502 0h-44l-115 408l-14 67h-6l-14 -67l-115 -408h-44l-130 520h31l95 -378l26 -112h4l28 112l107 378h30l107 -378l28 -112h4l26 112l95 378h31zM429 720v-20l-113 -120h-20l-5 10l105 130h33z" />
    <glyph glyph-name="Wdieresis" unicode="&#x1e84;" horiz-adv-x="700" 
d="M522 0h-31l-131 534l-8 56h-4q-4 -39 -8 -56l-131 -534h-31l-163 660h32l128 -520l17 -87h5q3 37 13 77l124 510h32l124 -510l13 -77h5l17 87l128 520h32zM244 764q0 33 28 33t28 -33q0 -32 -28 -32t-28 32zM402 764q0 33 28 33t28 -33q0 -32 -28 -32t-28 32z" />
    <glyph glyph-name="wdieresis" unicode="&#x1e85;" horiz-adv-x="652" 
d="M502 0h-44l-115 408l-14 67h-6l-14 -67l-115 -408h-44l-130 520h31l95 -378l26 -112h4l28 112l107 378h30l107 -378l28 -112h4l26 112l95 378h31zM219 624q0 33 28 33t28 -33q0 -32 -28 -32t-28 32zM377 624q0 33 28 33t28 -33q0 -32 -28 -32t-28 32z" />
    <glyph glyph-name="Ygrave" unicode="&#x1ef2;" horiz-adv-x="476" 
d="M15 660h34l161 -325l26 -64h4q9 29 26 63l161 326h34l-208 -420v-240h-30v240zM125 840v20h33l105 -130l-5 -10h-20z" />
    <glyph glyph-name="ygrave" unicode="&#x1ef3;" horiz-adv-x="428" 
d="M20 520h32l143 -393l26 -91h4l24 91l128 393h31l-198 -615q-20 -62 -43.5 -89.5t-67.5 -27.5l-38 5l4 23l6 5q10 -3 28 -3q31 0 47.5 20.5t36.5 81.5l26 80zM104 700v20h33l105 -130l-5 -10h-20z" />
    <glyph glyph-name="endash" unicode="&#x2013;" 
d="M450 285h-400v30h400v-30z" />
    <glyph glyph-name="emdash" unicode="&#x2014;" horiz-adv-x="740" 
d="M695 285h-650v30h650v-30z" />
    <glyph glyph-name="quoteleft" unicode="&#x2018;" horiz-adv-x="146" 
d="M101 568q0 -33 -28 -33t-28 33q0 19 14 62l22 70h20v-10l-17 -88q17 -8 17 -34z" />
    <glyph glyph-name="quoteright" unicode="&#x2019;" horiz-adv-x="146" 
d="M45 667q0 33 28 33t28 -33q0 -19 -14 -62l-22 -70h-20v10l17 88q-17 8 -17 34z" />
    <glyph glyph-name="quotesinglbase" unicode="&#x201a;" horiz-adv-x="146" 
d="M45 22q0 33 28 33t28 -33q0 -19 -14 -62l-22 -70h-20v10l17 88q-17 8 -17 34z" />
    <glyph glyph-name="quotedblleft" unicode="&#x201c;" horiz-adv-x="238" 
d="M193 568q0 -33 -28 -33t-28 33q0 19 14 62l22 70h20v-10l-17 -88q17 -8 17 -34zM101 568q0 -33 -28 -33t-28 33q0 19 14 62l22 70h20v-10l-17 -88q17 -8 17 -34z" />
    <glyph glyph-name="quotedblright" unicode="&#x201d;" horiz-adv-x="238" 
d="M45 667q0 33 28 33t28 -33q0 -19 -14 -62l-22 -70h-20v10l17 88q-17 8 -17 34zM137 667q0 33 28 33t28 -33q0 -19 -14 -62l-22 -70h-20v10l17 88q-17 8 -17 34z" />
    <glyph glyph-name="quotedblbase" unicode="&#x201e;" horiz-adv-x="238" 
d="M45 22q0 33 28 33t28 -33q0 -19 -14 -62l-22 -70h-20v10l17 88q-17 8 -17 34zM137 22q0 33 28 33t28 -33q0 -19 -14 -62l-22 -70h-20v10l17 88q-17 8 -17 34z" />
    <glyph glyph-name="dagger" unicode="&#x2020;" horiz-adv-x="522" 
d="M441 420v-10q0 -8 -2.5 -11.5t-12.5 -3.5h-40l-110 5l5 -110v-80l-5 -260h-30l-5 260v80l5 110l-110 -5h-40q-15 0 -15 15v10q0 8 2.5 11.5t12.5 3.5h40l110 -5l-5 145v75q0 10 9 10h22q9 0 9 -10v-75l-5 -145l110 5h40q15 0 15 -15z" />
    <glyph glyph-name="daggerdbl" unicode="&#x2021;" horiz-adv-x="522" 
d="M241 310l5 100l-110 -5h-40q-15 0 -15 15v10q0 8 2.5 11.5t12.5 3.5h40l110 -5l-5 135v75q0 10 9 10h22q9 0 9 -10v-75l-5 -135l110 5h40q15 0 15 -15v-10q0 -8 -2.5 -11.5t-12.5 -3.5h-40l-110 5l5 -100v-10l-5 -100l110 5h40q15 0 15 -15v-10q0 -8 -2.5 -11.5
t-12.5 -3.5h-40l-110 5l5 -135v-75q0 -10 -9 -10h-22q-9 0 -9 10v75l5 135l-110 -5h-40q-15 0 -15 15v10q0 8 2.5 11.5t12.5 3.5h40l110 -5l-5 100v10z" />
    <glyph glyph-name="bullet" unicode="&#x2022;" horiz-adv-x="300" 
d="M100 330q0 20 14.5 35t35.5 15q20 0 35 -15t15 -35q0 -21 -15 -35.5t-35 -14.5q-21 0 -35.5 14.5t-14.5 35.5z" />
    <glyph glyph-name="ellipsis" unicode="&#x2026;" horiz-adv-x="448" 
d="M60 22q0 33 28 33t28 -33q0 -32 -28 -32t-28 32zM196 22q0 33 28 33t28 -33q0 -32 -28 -32t-28 32zM332 22q0 33 28 33t28 -33q0 -32 -28 -32t-28 32z" />
    <glyph glyph-name="perthousand" unicode="&#x2030;" horiz-adv-x="970" 
d="M164 650h3q50 0 81.5 -37.5t31.5 -113.5v-41q0 -75 -31.5 -112.5t-81.5 -37.5h-3q-50 0 -82 37.5t-32 112.5v41q0 76 32 113.5t82 37.5zM250 455v48q0 49 -19.5 83t-65.5 34q-85 0 -85 -117v-48q0 -117 85 -117q46 0 65.5 34t19.5 83zM122 -12l406 671h36l-406 -671h-36z
M514 330h3q50 0 81.5 -37.5t31.5 -113.5v-41q0 -75 -31.5 -112.5t-81.5 -37.5h-3q-50 0 -82 37.5t-32 112.5v41q0 76 32 113.5t82 37.5zM600 135v48q0 49 -19.5 83t-65.5 34q-85 0 -85 -117v-48q0 -117 85 -117q46 0 65.5 34t19.5 83zM804 330h3q50 0 81.5 -37.5
t31.5 -113.5v-41q0 -75 -31.5 -112.5t-81.5 -37.5h-3q-50 0 -82 37.5t-32 112.5v41q0 76 32 113.5t82 37.5zM890 135v48q0 49 -19.5 83t-65.5 34q-85 0 -85 -117v-48q0 -117 85 -117q46 0 65.5 34t19.5 83z" />
    <glyph glyph-name="guilsinglleft" unicode="&#x2039;" horiz-adv-x="238" 
d="M158 0l-118 220l118 220h30l-108 -220l108 -220h-30z" />
    <glyph glyph-name="guilsinglright" unicode="&#x203a;" horiz-adv-x="238" 
d="M80 440l118 -220l-118 -220h-30l108 220l-108 220h30z" />
    <glyph glyph-name="fraction" unicode="&#x2044;" horiz-adv-x="451" 
d="M3 -12l412 684h35l-412 -684h-35z" />
    <glyph glyph-name="zerosuperior" unicode="&#x2070;" horiz-adv-x="356" 
d="M177 824h2q59 0 95.5 -44.5t36.5 -135.5v-50q0 -91 -36.5 -135.5t-95.5 -44.5h-2q-59 0 -95.5 44.5t-36.5 135.5v50q0 91 36.5 135.5t95.5 44.5zM281 594v50q0 73 -27 111.5t-76 38.5t-76 -38.5t-27 -111.5v-50q0 -73 27 -111.5t76 -38.5t76 38.5t27 111.5z" />
    <glyph glyph-name="foursuperior" unicode="&#x2074;" horiz-adv-x="326" 
d="M30 545l112 271h33l-112 -271h140v125h30v-125h63v-30h-63v-95h-30v95h-173v30z" />
    <glyph glyph-name="fivesuperior" unicode="&#x2075;" horiz-adv-x="299" 
d="M259 560v-10q0 -136 -115 -136q-24 0 -49 5.5t-37 10.5l-13 6l2 24l8 4q49 -20 89 -20q45 0 65 26t20 80v10q0 85 -71 85q-21 0 -41 -6.5t-29 -13.5l-10 -7l-29 8l10 192h176v-30h-147l-7 -137q31 24 77 24q48 0 74.5 -31t26.5 -84z" />
    <glyph glyph-name="sixsuperior" unicode="&#x2076;" horiz-adv-x="350" 
d="M200 794q-63 0 -93 -37.5t-32 -115.5q54 40 110 40q58 0 89 -33t31 -86v-11q0 -60 -33.5 -98.5t-96.5 -38.5q-60 0 -95 43.5t-35 128.5v39q0 199 155 199q16 0 35 -3t30 -6l11 -3l-2 -24l-7 -4q-34 10 -67 10zM185 651q-55 0 -110 -42v-23q0 -142 100 -142q46 0 73 27.5
t27 79.5v11q0 89 -90 89z" />
    <glyph glyph-name="sevensuperior" unicode="&#x2077;" horiz-adv-x="285" 
d="M30 786v30h225v-28l-174 -368h-33l168 357v9h-186z" />
    <glyph glyph-name="eightsuperior" unicode="&#x2078;" horiz-adv-x="362" 
d="M55 516q0 42 18.5 67t59.5 45v2q-68 34 -68 96q0 41 32 69.5t84 28.5q53 0 84.5 -27.5t31.5 -70.5q0 -35 -16 -57.5t-56 -43.5v-4q43 -21 62.5 -44.5t19.5 -60.5q0 -49 -36.5 -75.5t-89.5 -26.5t-89.5 26.5t-36.5 75.5zM194 604l-27 11q-47 -22 -64.5 -44t-17.5 -55
q0 -32 25 -52t71 -20q47 0 71.5 20.5t24.5 51.5q0 28 -18.5 47.5t-64.5 40.5zM95 726q0 -25 12.5 -40.5t53.5 -34.5l31 -14q43 22 59 39.5t16 49.5q0 30 -21.5 49t-64.5 19q-41 0 -63.5 -19.5t-22.5 -48.5z" />
    <glyph glyph-name="ninesuperior" unicode="&#x2079;" horiz-adv-x="350" 
d="M150 444q64 0 93.5 39t31.5 120q-50 -41 -110 -41q-57 0 -88.5 35t-31.5 89v6q0 57 33.5 94.5t96.5 37.5q60 0 95 -41t35 -126v-44q0 -199 -155 -199q-18 0 -37 3t-29 6l-10 3l2 25l7 4q39 -11 67 -11zM165 592q54 0 110 43v22q0 137 -100 137q-46 0 -73 -26t-27 -76v-6
q0 -42 23 -68t67 -26z" />
    <glyph glyph-name="parenleftsuperior" unicode="&#x207d;" horiz-adv-x="182" 
d="M95 600q0 -91 52 -216h-30q-57 103 -57 216q0 66 18.5 132t38.5 102h30q-52 -118 -52 -234z" />
    <glyph glyph-name="parenrightsuperior" unicode="&#x207e;" horiz-adv-x="182" 
d="M87 600q0 116 -52 234h30q20 -36 38.5 -102t18.5 -132q0 -113 -57 -216h-30q52 125 52 216z" />
    <glyph glyph-name="zeroinferior" unicode="&#x2080;" horiz-adv-x="356" 
d="M177 324h2q59 0 95.5 -44.5t36.5 -135.5v-50q0 -91 -36.5 -135.5t-95.5 -44.5h-2q-59 0 -95.5 44.5t-36.5 135.5v50q0 91 36.5 135.5t95.5 44.5zM281 94v50q0 73 -27 111.5t-76 38.5t-76 -38.5t-27 -111.5v-50q0 -73 27 -111.5t76 -38.5t76 38.5t27 111.5z" />
    <glyph glyph-name="oneinferior" unicode="&#x2081;" horiz-adv-x="267" 
d="M41 215v26l106 77h20v-398h-30v349l-4 2l-82 -56h-10z" />
    <glyph glyph-name="twoinferior" unicode="&#x2082;" horiz-adv-x="320" 
d="M275 212q0 -40 -22 -72t-84 -78l-28 -22q-46 -34 -56 -47t-10 -33v-10h194v-30h-224v40q0 29 13.5 47.5t63.5 56.5l29 22q59 45 76.5 69.5t17.5 56.5q0 36 -23.5 59t-70.5 23q-19 0 -41.5 -5t-35.5 -11l-12 -5l-9 4q-1 5 -1 23q47 24 99 24q60 0 92 -31.5t32 -80.5z" />
    <glyph glyph-name="threeinferior" unicode="&#x2083;" horiz-adv-x="296" 
d="M261 34q0 -54 -34.5 -87t-100.5 -33q-25 0 -48 4t-33 8l-10 3l2 24l8 4q41 -13 81 -13q52 0 78.5 24.5t26.5 65.5q0 34 -23 54.5t-65 20.5h-70v30h70q35 0 55.5 22t20.5 59q0 33 -23 53.5t-64 20.5q-17 0 -37 -4.5t-31 -9.5l-12 -4l-8 4q-1 6 -4 22q41 22 92 22
q56 0 86.5 -29.5t30.5 -74.5q0 -64 -48 -91v-2q60 -24 60 -93z" />
    <glyph glyph-name="fourinferior" unicode="&#x2084;" horiz-adv-x="326" 
d="M30 45l112 271h33l-112 -271h140v125h30v-125h63v-30h-63v-95h-30v95h-173v30z" />
    <glyph glyph-name="fiveinferior" unicode="&#x2085;" horiz-adv-x="299" 
d="M259 60v-10q0 -136 -115 -136q-24 0 -49 5.5t-37 10.5l-13 6l2 24l8 4q49 -20 89 -20q45 0 65 26t20 80v10q0 85 -71 85q-21 0 -41 -6.5t-29 -13.5l-10 -7l-29 8l10 192h176v-30h-147l-7 -137q31 24 77 24q48 0 74.5 -31t26.5 -84z" />
    <glyph glyph-name="sixinferior" unicode="&#x2086;" horiz-adv-x="350" 
d="M200 294q-63 0 -93 -37.5t-32 -115.5q54 40 110 40q58 0 89 -33t31 -86v-11q0 -60 -33.5 -98.5t-96.5 -38.5q-60 0 -95 43.5t-35 128.5v39q0 199 155 199q16 0 35 -3t30 -6l11 -3l-2 -24l-7 -4q-34 10 -67 10zM185 151q-55 0 -110 -42v-23q0 -142 100 -142q46 0 73 27.5
t27 79.5v11q0 89 -90 89z" />
    <glyph glyph-name="seveninferior" unicode="&#x2087;" horiz-adv-x="285" 
d="M30 286v30h225v-28l-174 -368h-33l168 357v9h-186z" />
    <glyph glyph-name="eightinferior" unicode="&#x2088;" horiz-adv-x="362" 
d="M55 16q0 42 18.5 67t59.5 45v2q-68 34 -68 96q0 41 32 69.5t84 28.5q53 0 84.5 -27.5t31.5 -70.5q0 -35 -16 -57.5t-56 -43.5v-4q43 -21 62.5 -44.5t19.5 -60.5q0 -49 -36.5 -75.5t-89.5 -26.5t-89.5 26.5t-36.5 75.5zM194 104l-27 11q-47 -22 -64.5 -44t-17.5 -55
q0 -32 25 -52t71 -20q47 0 71.5 20.5t24.5 51.5q0 28 -18.5 47.5t-64.5 40.5zM95 226q0 -25 12.5 -40.5t53.5 -34.5l31 -14q43 22 59 39.5t16 49.5q0 30 -21.5 49t-64.5 19q-41 0 -63.5 -19.5t-22.5 -48.5z" />
    <glyph glyph-name="nineinferior" unicode="&#x2089;" horiz-adv-x="350" 
d="M150 -56q64 0 93.5 39t31.5 120q-50 -41 -110 -41q-57 0 -88.5 35t-31.5 89v6q0 57 33.5 94.5t96.5 37.5q60 0 95 -41t35 -126v-44q0 -199 -155 -199q-18 0 -37 3t-29 6l-10 3l2 25l7 4q39 -11 67 -11zM165 92q54 0 110 43v22q0 137 -100 137q-46 0 -73 -26t-27 -76v-6
q0 -42 23 -68t67 -26z" />
    <glyph glyph-name="parenleftinferior" unicode="&#x208d;" horiz-adv-x="182" 
d="M95 100q0 -91 52 -216h-30q-57 103 -57 216q0 66 18.5 132t38.5 102h30q-52 -118 -52 -234z" />
    <glyph glyph-name="parenrightinferior" unicode="&#x208e;" horiz-adv-x="182" 
d="M87 100q0 116 -52 234h30q20 -36 38.5 -102t18.5 -132q0 -113 -57 -216h-30q52 125 52 216z" />
    <glyph glyph-name="colonmonetary" unicode="&#x20a1;" horiz-adv-x="510" 
d="M137 -86l20 107q-99 66 -99 269v35q0 312 219 324l17 91l31 -6l-16 -84q42 -1 75 -9l15 79l31 -6l-134 -696q23 0 47 4.5t37 8.5l12 4l9 -3q3 -19 3 -24q-54 -20 -113 -20l-19 -100l-30 6l18 96q-41 3 -74 16l-19 -98zM88 302q0 -182 73 -245l3 1l107 560
q-97 -9 -140 -82.5t-43 -212.5v-21zM192 37q32 -15 73 -18l113 593q-26 6 -75 8z" />
    <glyph glyph-name="cruzeiro" unicode="&#x20a2;" horiz-adv-x="479" 
d="M418 392l25 -2l-2 -24l-5 -5q-8 1 -19 1q-40 0 -73 -25.5t-51 -68.5v-250h10q29 0 57.5 5.5t42.5 10.5l14 6l9 -3l3 -24q-56 -25 -126 -25q-37 0 -68.5 6t-65.5 25.5t-57 51.5t-38.5 88t-15.5 131v35q0 92 19.5 158t54.5 101t75.5 50.5t90.5 15.5q30 0 57.5 -4t40.5 -8
l13 -3l-3 -22l-8 -5q-44 12 -100 12q-210 0 -210 -297v-21q0 -134 43.5 -202.5t131.5 -79.5v360h20l9 -64q41 76 126 76z" />
    <glyph glyph-name="franc" unicode="&#x20a3;" horiz-adv-x="410" 
d="M20 170v30h80v450h290v-30h-260v-260h230v-30h-230v-130h180v-30h-180v-170h-30v170h-80z" />
    <glyph glyph-name="naira" unicode="&#x20a6;" horiz-adv-x="632" 
d="M10 370v30h80v250h30l165 -250h227v250h30v-250h80v-30h-80v-100h80v-30h-80v-240h-30l-158 240h-234v-240h-30v240h-80v30h80v100h-80zM120 370v-100h214l-66 100h-148zM305 370l66 -100h141v100h-207zM120 530v-130h128l-107 163l-23 41l-3 -1zM516 48l-4 72v120h-122
l106 -160l16 -33z" />
    <glyph glyph-name="peseta" unicode="&#x20a7;" horiz-adv-x="540" 
d="M20 420v30h80v200h142q100 0 149 -48t49 -152h80v-30h-80v-15q0 -87 -50 -131t-138 -44h-122v-230h-30v420h-80zM242 620h-112v-170h280q0 92 -39.5 131t-128.5 39zM252 260q158 0 158 145v15h-280v-160h122z" />
    <glyph glyph-name="rupee" unicode="&#x20a8;" horiz-adv-x="566" 
d="M70 620l8 30h438l-8 -30h-182q79 -42 82 -150h108l-8 -30h-100v-10q0 -65 -33.5 -107t-96.5 -56v-2q8 -6 18 -26l122 -239h-33l-120 234q-14 26 -55 26h-132v30h132q168 0 168 140v10h-308l8 30h300q-3 81 -51 115.5t-137 34.5h-120z" />
    <glyph glyph-name="won" unicode="&#x20a9;" horiz-adv-x="780" 
d="M10 370v30h107l-62 250h32l62 -250h168l57 230h32l56 -230h168l63 250h32l-63 -250h108v-30h-116l-25 -100h141v-30h-148l-60 -240h-31l-60 240h-162l-60 -240h-31l-61 240h-147v30h140l-25 100h-115zM470 370l25 -100h103l25 100h-153zM157 370l25 -100h103l24 100h-152
zM341 370l-25 -100h148l-25 100h-98zM548 52l17 86l25 102h-88l28 -112l13 -76h5zM237 52q3 37 13 76l27 112h-88l26 -102l17 -86h5zM380 526l-31 -126h82l-31 126l-8 55h-4q-4 -38 -8 -55z" />
    <glyph glyph-name="sheqel" unicode="&#x20aa;" horiz-adv-x="820" 
d="M530 150h-30v204q0 69 -34 102.5t-114 33.5h-242v-490h-30v520h272q178 0 178 -166v-204zM710 520h30v-354q0 -166 -178 -166h-272v370h30v-340h242q80 0 114 33.5t34 102.5v354z" />
    <glyph glyph-name="Euro" unicode="&#x20ac;" horiz-adv-x="498" 
d="M20 355l12 30h77q22 265 238 265q30 0 57.5 -4t39.5 -8l13 -3l-3 -22l-8 -5q-43 12 -99 12q-187 0 -208 -235h282l-4 -30h-280v-32v-21v-27h269l-4 -30h-263q8 -120 56.5 -173.5t144.5 -53.5q24 0 49 4t39 8l13 5l9 -3q3 -19 3 -24q-54 -20 -113 -20q-45 0 -79.5 9.5
t-69.5 35.5t-56.5 79.5t-26.5 132.5h-88l12 30h75v15v35v30h-87z" />
    <glyph glyph-name="litre" unicode="&#x2113;" horiz-adv-x="414" 
d="M119 160v39l-80 -61l-19 23l99 76v283q0 152 110 152q105 0 105 -152q0 -94 -28.5 -147t-102.5 -110l-54 -41v-62q0 -78 21.5 -110t68.5 -32q15 0 30 3t23 6l7 3l6 -3v-26q-23 -13 -66 -13q-63 0 -91.5 42t-28.5 130zM149 520v-260l36 28q68 52 93.5 98.5t25.5 128.5v10
q0 65 -18.5 91t-56.5 26q-40 0 -60 -27t-20 -95z" />
    <glyph glyph-name="trademark" unicode="&#x2122;" horiz-adv-x="574" 
d="M20 630v30h190v-30h-80v-300h-30v300h-80zM508 660h30v-330h-30v180l5 76l-7 1l-21 -57l-75 -180h-25l-76 180l-20 57l-7 -1l5 -76v-180h-30v330h30l93 -220l16 -46h3q11 33 16 46z" />
    <glyph glyph-name="Omega" unicode="&#x2126;" horiz-adv-x="566" 
d="M328 0v113q34 9 58 23.5t46.5 42.5t34 75.5t11.5 114.5v17q0 256 -195 256t-195 -256v-17q0 -67 11.5 -114.5t34 -75.5t46.5 -42.5t58 -23.5v-113h-180v30h150v60q-35 13 -59.5 31t-46.5 49t-33 81t-11 118v22q0 136 56 208.5t166 72.5h6q110 0 166 -72.5t56 -208.5v-22
q0 -90 -21.5 -149t-51.5 -85.5t-77 -44.5v-60h150v-30h-180z" />
    <glyph glyph-name="estimated" unicode="&#x212e;" horiz-adv-x="855" 
d="M671 343v188q0 13 -10 23q-97 97 -232 97q-137 0 -234 -100q-9 -11 -9 -24v-184q0 -5 5 -5h475q5 0 5 5zM810 319h-619q-5 0 -5 -4v-187q0 -12 8 -22q95 -101 235 -101q149 0 246 113h56q-52 -62 -132 -98t-171 -36q-159 0 -271 100.5t-112 243.5q0 142 112.5 243
t270.5 101t270 -100.5t112 -243.5v-9z" />
    <glyph glyph-name="onethird" unicode="&#x2153;" horiz-adv-x="709" 
d="M41 557v26l106 77h20v-398h-30v349l-4 2l-82 -56h-10zM94 -12l412 684h35l-412 -684h-35zM672 114q0 -54 -34.5 -87t-100.5 -33q-25 0 -48 4t-33 8l-10 3l2 24l8 4q41 -13 81 -13q52 0 78.5 24.5t26.5 65.5q0 34 -23 54.5t-65 20.5h-70v30h70q35 0 55.5 22t20.5 59
q0 33 -23 53.5t-64 20.5q-17 0 -37 -4.5t-32 -9.5l-11 -4l-8 4q-1 6 -4 22q41 22 92 22q56 0 86.5 -29.5t30.5 -74.5q0 -64 -48 -91v-2q60 -24 60 -93z" />
    <glyph glyph-name="twothirds" unicode="&#x2154;" horiz-adv-x="830" 
d="M275 554q0 -40 -22 -72t-84 -78l-28 -22q-46 -34 -56 -47t-10 -33v-10h194v-30h-224v40q0 29 13.5 47.5t63.5 56.5l29 22q59 45 76.5 69.5t17.5 56.5q0 36 -23.5 59t-70.5 23q-19 0 -41.5 -5t-35.5 -11l-12 -5l-9 4q-1 5 -1 23q47 24 99 24q60 0 92 -31.5t32 -80.5z
M201 -12l412 684h35l-412 -684h-35zM795 114q0 -54 -34.5 -87t-100.5 -33q-25 0 -48 4t-33 8l-10 3l2 24l8 4q41 -13 81 -13q52 0 78.5 24.5t26.5 65.5q0 34 -23 54.5t-65 20.5h-70v30h70q35 0 55.5 22t20.5 59q0 33 -23 53.5t-64 20.5q-17 0 -37 -4.5t-31 -9.5l-12 -4l-8 4
q-1 6 -4 22q41 22 92 22q56 0 86.5 -29.5t30.5 -74.5q0 -64 -48 -91v-2q60 -24 60 -93z" />
    <glyph glyph-name="oneeighth" unicode="&#x215b;" horiz-adv-x="733" 
d="M41 557v26l106 77h20v-398h-30v349l-4 2l-82 -56h-10zM94 -12l412 684h35l-412 -684h-35zM426 96q0 42 18.5 67t59.5 45v2q-68 34 -68 96q0 41 32 69.5t84 28.5q53 0 84.5 -27.5t31.5 -70.5q0 -35 -16 -57.5t-56 -43.5v-4q43 -21 62.5 -44.5t19.5 -60.5
q0 -49 -36.5 -75.5t-89.5 -26.5t-89.5 26.5t-36.5 75.5zM565 184l-27 11q-47 -22 -64.5 -44t-17.5 -55q0 -32 25 -52t71 -20q47 0 71.5 20.5t24.5 51.5q0 28 -18.5 47.5t-64.5 40.5zM466 306q0 -25 12.5 -40.5t53.5 -34.5l31 -14q43 22 59 39.5t16 49.5q0 30 -21.5 49
t-64.5 19q-41 0 -63.5 -19.5t-22.5 -48.5z" />
    <glyph glyph-name="threeeighths" unicode="&#x215c;" horiz-adv-x="810" 
d="M160 -12l412 684h35l-412 -684h-35zM261 376q0 -54 -34.5 -87t-100.5 -33q-25 0 -48 4t-33 8l-10 3l2 24l8 4q41 -13 81 -13q52 0 78.5 24.5t26.5 65.5q0 34 -23 54.5t-65 20.5h-70v30h70q35 0 55.5 22t20.5 59q0 33 -23 53.5t-64 20.5q-17 0 -37 -4.5t-31 -9.5l-12 -4
l-8 4q-1 6 -4 22q41 22 92 22q56 0 86.5 -29.5t30.5 -74.5q0 -64 -48 -91v-2q60 -24 60 -93zM503 96q0 42 18.5 67t59.5 45v2q-68 34 -68 96q0 41 32 69.5t84 28.5q53 0 84.5 -27.5t31.5 -70.5q0 -35 -16 -57.5t-56 -43.5v-4q43 -21 62.5 -44.5t19.5 -60.5
q0 -49 -36.5 -75.5t-89.5 -26.5t-89.5 26.5t-36.5 75.5zM642 184l-27 11q-47 -22 -64.5 -44t-17.5 -55q0 -32 25 -52t71 -20q47 0 71.5 20.5t24.5 51.5q0 28 -18.5 47.5t-64.5 40.5zM543 306q0 -25 12.5 -40.5t53.5 -34.5l31 -14q43 22 59 39.5t16 49.5q0 30 -21.5 49
t-64.5 19q-41 0 -63.5 -19.5t-22.5 -48.5z" />
    <glyph glyph-name="fiveeighths" unicode="&#x215d;" horiz-adv-x="811" 
d="M503 96q0 42 18.5 67t59.5 45v2q-68 34 -68 96q0 41 32 69.5t84 28.5q53 0 84.5 -27.5t31.5 -70.5q0 -35 -16 -57.5t-56 -43.5v-4q43 -21 62.5 -44.5t19.5 -60.5q0 -49 -36.5 -75.5t-89.5 -26.5t-89.5 26.5t-36.5 75.5zM642 184l-27 11q-47 -22 -64.5 -44t-17.5 -55
q0 -32 25 -52t71 -20q47 0 71.5 20.5t24.5 51.5q0 28 -18.5 47.5t-64.5 40.5zM543 306q0 -25 12.5 -40.5t53.5 -34.5l31 -14q43 22 59 39.5t16 49.5q0 30 -21.5 49t-64.5 19q-41 0 -63.5 -19.5t-22.5 -48.5zM259 402v-10q0 -136 -115 -136q-24 0 -49 5.5t-37 10.5l-13 6
l2 24l8 4q49 -20 89 -20q45 0 65 26t20 80v10q0 85 -71 85q-21 0 -41 -6.5t-29 -13.5l-10 -7l-29 8l10 192h176v-30h-147l-7 -137q31 24 77 24q48 0 74.5 -31t26.5 -84zM161 -12l412 684h35l-412 -684h-35z" />
    <glyph glyph-name="seveneighths" unicode="&#x215e;" horiz-adv-x="737" 
d="M429 96q0 42 18.5 67t59.5 45v2q-68 34 -68 96q0 41 32 69.5t84 28.5q53 0 84.5 -27.5t31.5 -70.5q0 -35 -16 -57.5t-56 -43.5v-4q43 -21 62.5 -44.5t19.5 -60.5q0 -49 -36.5 -75.5t-89.5 -26.5t-89.5 26.5t-36.5 75.5zM568 184l-27 11q-47 -22 -64.5 -44t-17.5 -55
q0 -32 25 -52t71 -20q47 0 71.5 20.5t24.5 51.5q0 28 -18.5 47.5t-64.5 40.5zM469 306q0 -25 12.5 -40.5t53.5 -34.5l31 -14q43 22 59 39.5t16 49.5q0 30 -21.5 49t-64.5 19q-41 0 -63.5 -19.5t-22.5 -48.5zM30 628v30h225v-28l-174 -368h-33l168 357v9h-186zM86 -12
l412 684h35l-412 -684h-35z" />
    <glyph glyph-name="partialdiff" unicode="&#x2202;" horiz-adv-x="490" 
d="M242 520h3q109 0 162 -102l3 1q-30 245 -304 291l-6 1l7 29q333 -47 333 -380v-121q0 -120 -49.5 -185.5t-142.5 -65.5h-6q-93 0 -142.5 65.5t-49.5 185.5v30q0 120 49.5 185.5t142.5 65.5zM410 239v30q0 98 -44 159.5t-121 61.5q-85 0 -125 -59.5t-40 -161.5v-30
q0 -103 40 -162t125 -59t125 59t40 162z" />
    <glyph glyph-name="Delta" unicode="&#x2206;" horiz-adv-x="493" 
d="M30 15l199 645h35l199 -645v-15h-433v15zM238 589l-172 -559h361l-172 559l-6 36h-5z" />
    <glyph glyph-name="product" unicode="&#x220f;" horiz-adv-x="570" 
d="M460 0v630h-350v-630h-30v660h410v-660h-30z" />
    <glyph glyph-name="summation" unicode="&#x2211;" horiz-adv-x="405" 
d="M280 340l-183 -278l-24 -29v-3h293v-30h-327v28l206 312l-206 292v28h317v-30h-283v-3q12 -9 23 -24z" />
    <glyph glyph-name="minus" unicode="&#x2212;" 
d="M450 285h-400v30h400v-30z" />
    <glyph glyph-name="radical" unicode="&#x221a;" horiz-adv-x="535" 
d="M282 10l212 750h31l-243 -860h-29l-111 385h-132v30h155l88 -305l11 -60h6z" />
    <glyph glyph-name="infinity" unicode="&#x221e;" horiz-adv-x="792" 
d="M618 482q66 0 110 -55t44 -153q0 -100 -44 -155.5t-110 -55.5q-60 0 -102.5 30.5t-86.5 100.5l-32 50h-3l-31 -50q-45 -70 -87.5 -100.5t-101.5 -30.5q-66 0 -110 55t-44 153q0 100 44 155.5t110 55.5q58 0 99 -30.5t89 -100.5l32 -48h3l32 48q48 72 88.5 101.5
t100.5 29.5zM618 452q-50 0 -85 -26.5t-78 -90.5l-41 -61l41 -64q75 -117 163 -117q53 0 88.5 48t35.5 133q0 83 -35.5 130.5t-88.5 47.5zM174 93q48 0 86 28.5t77 88.5l41 64l-41 61q-42 62 -78 89.5t-85 27.5q-53 0 -88.5 -48t-35.5 -133q0 -83 35.5 -130.5t88.5 -47.5z
" />
    <glyph glyph-name="integral" unicode="&#x222b;" horiz-adv-x="284" 
d="M108 -82v722q0 130 105 130l51 -5v-24l-9 -5q-20 4 -42 4q-38 0 -56.5 -22.5t-18.5 -77.5v-722q0 -130 -105 -130l-51 5v24l9 5q20 -4 42 -4q38 0 56.5 22.5t18.5 77.5z" />
    <glyph glyph-name="approxequal" unicode="&#x2248;" 
d="M155 385q-58 0 -105 -75v42q19 28 47 45.5t58 17.5q36 0 68.5 -20t62.5 -40t59 -20q27 0 53 18.5t39 37.5l13 19v-42q-13 -22 -43.5 -42.5t-61.5 -20.5q-41 0 -98.5 40t-91.5 40zM155 245q-58 0 -105 -75v42q19 28 47 45.5t58 17.5q36 0 68.5 -20t62.5 -40t59 -20
q27 0 53 18.5t39 37.5l13 19v-42q-13 -22 -43.5 -42.5t-61.5 -20.5q-41 0 -98.5 40t-91.5 40z" />
    <glyph glyph-name="notequal" unicode="&#x2260;" 
d="M116 20h-34l100 180h-132v30h149l67 120h-216v30h233l101 180h34l-101 -180h133v-30h-150l-67 -120h217v-30h-234z" />
    <glyph glyph-name="lessequal" unicode="&#x2264;" 
d="M421 0h-342v30h342v-30zM421 136v-26h-15l-327 226v30l327 228h15v-27l-309 -215v-2z" />
    <glyph glyph-name="greaterequal" unicode="&#x2265;" 
d="M421 0h-342v30h342v-30zM79 568v26h15l327 -226v-30l-327 -228h-15v27l309 215v2z" />
    <glyph glyph-name="lozenge" unicode="&#x25ca;" horiz-adv-x="487" 
d="M437 316l-176 -356h-34l-177 356l177 356h34zM84 316l160 -323l159 323l-159 322z" />
    <glyph glyph-name="zero.tb" unicode="&#xf639;" 
d="M249 672h2q97 0 153 -77.5t56 -223.5v-82q0 -146 -56 -223.5t-153 -77.5h-2q-97 0 -153 77.5t-56 223.5v82q0 146 56 223.5t153 77.5zM430 282v97q0 131 -49 197t-131 66t-131 -66t-49 -197v-97q0 -132 49 -198t131 -66t131 66t49 198z" />
    <glyph glyph-name="two.tb" unicode="&#xf63a;" 
d="M445 485v-5q0 -79 -39 -125.5t-116 -90.5l-94 -53q-55 -31 -78 -66t-23 -85v-30h340v-30h-370v60q0 57 27 100t90 79l91 51q76 43 109 84.5t33 105.5v5q0 69 -41 113t-126 44q-33 0 -73.5 -10t-64.5 -20l-23 -9l-7 2q-3 14 -4 24q77 43 172 43q96 0 146.5 -52t50.5 -135z
" />
    <glyph glyph-name="three.tb" unicode="&#xf63b;" horiz-adv-x="501" 
d="M440 185v-5q0 -82 -57 -137t-156 -55q-39 0 -76.5 6t-56.5 12l-18 6l2 23l9 5q67 -22 140 -22q89 0 136 48t47 114v5q0 66 -48.5 104.5t-131.5 38.5h-90v30h90q66 0 113 43t47 101v5q0 58 -41.5 96.5t-114.5 38.5q-30 0 -63.5 -8t-52.5 -16l-18 -7l-11 3q-3 11 -4 21
q61 37 149 37q92 0 139 -49t47 -116v-5q0 -56 -31.5 -96.5t-72.5 -56.5v-3q49 -14 86.5 -54t37.5 -107z" />
    <glyph glyph-name="four.tb" unicode="&#xf63c;" 
d="M50 170l222 490h33l-222 -490h282v230h30v-230h95v-30h-95v-140h-30v140h-315v30z" />
    <glyph glyph-name="five.tb" unicode="&#xf63d;" 
d="M435 226v-26q0 -98 -46.5 -155t-143.5 -57q-40 0 -78.5 8t-56.5 16l-19 9l3 23l9 4q68 -30 142 -30q81 0 120.5 48t39.5 134v26q0 156 -150 156q-33 0 -69 -11t-55 -22l-19 -11l-25 7l18 315h290v-30h-262l-15 -256q63 38 137 38q86 0 133 -45.5t47 -140.5z" />
    <glyph glyph-name="six.tb" unicode="&#xf63e;" 
d="M90 350v-11q35 30 84.5 52t100.5 22q92 0 138.5 -52t46.5 -136v-25q0 -96 -49.5 -154t-140.5 -58q-99 0 -154.5 72t-55.5 215v65q0 332 240 332q27 0 54.5 -5t41.5 -10l15 -5l-2 -24l-8 -5q-51 19 -101 19q-210 0 -210 -292zM275 383q-94 0 -185 -79v-39
q0 -131 50.5 -189t129.5 -58q72 0 116 46.5t44 130.5v35q0 74 -42 113.5t-113 39.5z" />
    <glyph glyph-name="seven.tb" unicode="&#xf63f;" 
d="M60 630v30h380v-30l-306 -630h-34l304 625v5h-344z" />
    <glyph glyph-name="eight.tb" unicode="&#xf640;" 
d="M50 155q0 66 34 113t112 84v3q-29 14 -47 25t-40 30.5t-33 47t-11 62.5q0 68 50 110t135 42q87 0 136 -40t49 -112q0 -61 -31.5 -102.5t-100.5 -77.5v-5q71 -36 109 -76t38 -104q0 -82 -56 -124.5t-144 -42.5t-144 42.5t-56 124.5zM283 312l-52 26q-82 -37 -116.5 -81
t-34.5 -102q0 -64 44 -100.5t126 -36.5t126 36.5t44 100.5q0 47 -27.5 81.5t-109.5 75.5zM95 520q0 -46 26.5 -78t99.5 -66l45 -23q73 35 106 72t33 95q0 55 -41 88.5t-114 33.5t-114 -33.5t-41 -88.5z" />
    <glyph glyph-name="nine.tb" unicode="&#xf641;" 
d="M210 18q210 0 210 292v1q-82 -64 -185 -64q-92 0 -138.5 52t-46.5 136v25q0 95 54 153.5t146 58.5q200 0 200 -287v-65q0 -332 -240 -332q-27 0 -54.5 5t-41.5 10l-15 5l2 24l8 5q51 -19 101 -19zM235 277q105 0 185 68v50q0 247 -170 247q-74 0 -122 -47t-48 -130v-35
q0 -74 42 -113.5t113 -39.5z" />
    <glyph glyph-name="zero.ot" unicode="&#xf643;" 
d="M40 249v22q0 117 57 189t152 72h2q95 0 152 -72t57 -189v-22q0 -117 -57 -189t-152 -72h-2q-95 0 -152 72t-57 189zM70 242q0 -103 50 -163.5t130 -60.5t130 60.5t50 163.5v36q0 103 -50 163.5t-130 60.5t-130 -60.5t-50 -163.5v-36z" />
    <glyph glyph-name="one.ot" unicode="&#xf644;" 
d="M100 380v26l160 114h20v-490h150v-30h-350v30h170v441l-4 2l-136 -93h-10z" />
    <glyph glyph-name="two.ot" unicode="&#xf645;" 
d="M435 360q0 -59 -33 -105t-106 -99l-174 -126l1 -4l45 4h267v-30h-370v20l213 160q69 53 98 90.5t29 89.5q0 64 -44 103t-123 39q-32 0 -68.5 -9t-56.5 -17l-20 -9l-9 3q-2 13 -3 24q69 38 157 38q91 0 144 -47.5t53 -124.5z" />
    <glyph glyph-name="three.ot" unicode="&#xf646;" 
d="M441 52v-5q0 -82 -56.5 -135.5t-156.5 -53.5q-40 0 -78 7t-56 13l-17 7l2 23l9 5q59 -25 140 -25q89 0 136 46.5t47 112.5v5q0 67 -47 105t-133 38h-90v30h90q66 0 113 40t47 97v5q0 58 -41.5 96.5t-114.5 38.5q-30 0 -63.5 -8t-51.5 -16l-19 -7l-11 3q-3 11 -4 21
q61 37 149 37q92 0 139 -49t47 -116v-5q0 -55 -30.5 -92t-73.5 -54v-3q51 -14 87.5 -53.5t36.5 -107.5z" />
    <glyph glyph-name="four.ot" unicode="&#xf647;" 
d="M50 30l222 490h33l-222 -490h282v230h30v-230h95v-30h-95v-130h-30v130h-315v30z" />
    <glyph glyph-name="five.ot" unicode="&#xf648;" 
d="M435 86v-16q0 -98 -46.5 -155t-143.5 -57q-40 0 -78.5 8t-56.5 16l-19 9l3 23l9 4q68 -30 142 -30q81 0 120.5 48t39.5 134v16q0 156 -150 156q-33 0 -69 -11t-55 -22l-19 -11l-25 7l18 315h290v-30h-262l-15 -256q63 38 137 38q86 0 133 -45.5t47 -140.5z" />
    <glyph glyph-name="six.ot" unicode="&#xf649;" 
d="M90 350v-11q35 30 84.5 52t100.5 22q92 0 138.5 -52t46.5 -136v-25q0 -96 -49.5 -154t-140.5 -58q-99 0 -154.5 72t-55.5 215v65q0 154 62 233t178 79q28 0 56 -5.5t42 -10.5l13 -6l-2 -23l-8 -5q-47 20 -101 20q-98 0 -154 -68.5t-56 -203.5zM275 383q-94 0 -185 -79
v-39q0 -131 50.5 -189t129.5 -58q72 0 116 46.5t44 130.5v35q0 74 -42 113.5t-113 39.5z" />
    <glyph glyph-name="seven.ot" unicode="&#xf64a;" 
d="M60 490v30h380v-30l-301 -620h-34l299 615v5h-344z" />
    <glyph glyph-name="eight.ot" unicode="&#xf64b;" 
d="M50 150q0 65 33.5 110t112.5 82v3q-32 16 -47.5 24.5t-39 28t-34 46t-10.5 61.5q0 64 50.5 105.5t134.5 41.5q86 0 135.5 -39.5t49.5 -107.5q0 -62 -31 -100.5t-102 -75.5v-4q74 -37 111 -74t37 -101q0 -78 -56.5 -120t-143.5 -42t-143.5 42t-56.5 120zM283 302l-52 26
q-83 -37 -117 -79t-34 -99q0 -60 44.5 -96t125.5 -36t125.5 36t44.5 96q0 46 -27 78t-110 74zM95 505q0 -45 26 -74.5t100 -64.5l45 -23q74 36 106.5 70.5t32.5 91.5q0 51 -41 84t-114 33t-114 -33t-41 -84z" />
    <glyph glyph-name="nine.ot" unicode="&#xf64c;" 
d="M210 -112q97 0 153.5 73t56.5 209v1q-82 -64 -185 -64q-92 0 -138.5 52t-46.5 136v25q0 95 54 153.5t146 58.5q200 0 200 -287v-65q0 -154 -63.5 -238t-176.5 -84q-27 0 -54.5 5t-41.5 10l-15 5l2 24l8 5q51 -19 101 -19zM235 137q105 0 185 68v50q0 247 -170 247
q-74 0 -122 -47t-48 -130v-35q0 -74 42 -113.5t113 -39.5z" />
    <glyph glyph-name="zero.denominator" unicode="&#xf655;" horiz-adv-x="356" 
d="M177 404h2q59 0 95.5 -44.5t36.5 -135.5v-50q0 -91 -36.5 -135.5t-95.5 -44.5h-2q-59 0 -95.5 44.5t-36.5 135.5v50q0 91 36.5 135.5t95.5 44.5zM281 174v50q0 73 -27 111.5t-76 38.5t-76 -38.5t-27 -111.5v-50q0 -73 27 -111.5t76 -38.5t76 38.5t27 111.5z" />
    <glyph glyph-name="one.denominator" unicode="&#xf656;" horiz-adv-x="267" 
d="M41 295v26l106 77h20v-398h-30v349l-4 2l-82 -56h-10z" />
    <glyph glyph-name="two.denominator" unicode="&#xf657;" horiz-adv-x="320" 
d="M275 292q0 -40 -22 -72t-84 -78l-28 -22q-46 -34 -56 -47t-10 -33v-10h194v-30h-224v40q0 29 13.5 47.5t63.5 56.5l29 22q59 45 76.5 69.5t17.5 56.5q0 36 -23.5 59t-70.5 23q-19 0 -41.5 -5t-35.5 -11l-12 -5l-9 4q-1 5 -1 23q47 24 99 24q60 0 92 -31.5t32 -80.5z" />
    <glyph glyph-name="three.denominator" unicode="&#xf658;" horiz-adv-x="296" 
d="M261 114q0 -54 -34.5 -87t-100.5 -33q-25 0 -48 4t-33 8l-10 3l2 24l8 4q41 -13 81 -13q52 0 78.5 24.5t26.5 65.5q0 34 -23 54.5t-65 20.5h-70v30h70q35 0 55.5 22t20.5 59q0 33 -23 53.5t-64 20.5q-17 0 -37 -4.5t-31 -9.5l-12 -4l-8 4q-1 6 -4 22q41 22 92 22
q56 0 86.5 -29.5t30.5 -74.5q0 -64 -48 -91v-2q60 -24 60 -93z" />
    <glyph glyph-name="four.denominator" unicode="&#xf659;" horiz-adv-x="326" 
d="M30 125l112 271h33l-112 -271h140v125h30v-125h63v-30h-63v-95h-30v95h-173v30z" />
    <glyph glyph-name="five.denominator" unicode="&#xf65a;" horiz-adv-x="299" 
d="M259 140v-10q0 -136 -115 -136q-24 0 -49 5.5t-37 10.5l-13 6l2 24l8 4q49 -20 89 -20q45 0 65 26t20 80v10q0 85 -71 85q-21 0 -41 -6.5t-29 -13.5l-10 -7l-29 8l10 192h176v-30h-147l-7 -137q31 24 77 24q48 0 74.5 -31t26.5 -84z" />
    <glyph glyph-name="six.denominator" unicode="&#xf65b;" horiz-adv-x="350" 
d="M200 374q-63 0 -93 -37.5t-32 -115.5q54 40 110 40q58 0 89 -33t31 -86v-11q0 -60 -33.5 -98.5t-96.5 -38.5q-60 0 -95 43.5t-35 128.5v39q0 199 155 199q16 0 35 -3t30 -6l11 -3l-2 -24l-7 -4q-34 10 -67 10zM185 231q-55 0 -110 -42v-23q0 -142 100 -142q46 0 73 27.5
t27 79.5v11q0 89 -90 89z" />
    <glyph glyph-name="seven.denominator" unicode="&#xf65c;" horiz-adv-x="285" 
d="M30 366v30h225v-28l-174 -368h-33l168 357v9h-186z" />
    <glyph glyph-name="eight.denominator" unicode="&#xf65d;" horiz-adv-x="362" 
d="M55 96q0 42 18.5 67t59.5 45v2q-68 34 -68 96q0 41 32 69.5t84 28.5q53 0 84.5 -27.5t31.5 -70.5q0 -35 -16 -57.5t-56 -43.5v-4q43 -21 62.5 -44.5t19.5 -60.5q0 -49 -36.5 -75.5t-89.5 -26.5t-89.5 26.5t-36.5 75.5zM194 184l-27 11q-47 -22 -64.5 -44t-17.5 -55
q0 -32 25 -52t71 -20q47 0 71.5 20.5t24.5 51.5q0 28 -18.5 47.5t-64.5 40.5zM95 306q0 -25 12.5 -40.5t53.5 -34.5l31 -14q43 22 59 39.5t16 49.5q0 30 -21.5 49t-64.5 19q-41 0 -63.5 -19.5t-22.5 -48.5z" />
    <glyph glyph-name="nine.denominator" unicode="&#xf65e;" horiz-adv-x="350" 
d="M150 24q64 0 93.5 39t31.5 120q-50 -41 -110 -41q-57 0 -88.5 35t-31.5 89v6q0 57 33.5 94.5t96.5 37.5q60 0 95 -41t35 -126v-44q0 -199 -155 -199q-18 0 -37 3t-29 6l-10 3l2 25l7 4q39 -11 67 -11zM165 172q54 0 110 43v22q0 137 -100 137q-46 0 -73 -26t-27 -76v-6
q0 -42 23 -68t67 -26z" />
    <glyph glyph-name="zero.numerator" unicode="&#xf661;" horiz-adv-x="356" 
d="M177 666h2q59 0 95.5 -44.5t36.5 -135.5v-50q0 -91 -36.5 -135.5t-95.5 -44.5h-2q-59 0 -95.5 44.5t-36.5 135.5v50q0 91 36.5 135.5t95.5 44.5zM281 436v50q0 73 -27 111.5t-76 38.5t-76 -38.5t-27 -111.5v-50q0 -73 27 -111.5t76 -38.5t76 38.5t27 111.5z" />
    <glyph glyph-name="one.numerator" unicode="&#xf662;" horiz-adv-x="267" 
d="M41 557v26l106 77h20v-398h-30v349l-4 2l-82 -56h-10z" />
    <glyph glyph-name="two.numerator" unicode="&#xf663;" horiz-adv-x="320" 
d="M275 554q0 -40 -22 -72t-84 -78l-28 -22q-46 -34 -56 -47t-10 -33v-10h194v-30h-224v40q0 29 13.5 47.5t63.5 56.5l29 22q59 45 76.5 69.5t17.5 56.5q0 36 -23.5 59t-70.5 23q-19 0 -41.5 -5t-35.5 -11l-12 -5l-9 4q-1 5 -1 23q47 24 99 24q60 0 92 -31.5t32 -80.5z" />
    <glyph glyph-name="three.numerator" unicode="&#xf664;" horiz-adv-x="296" 
d="M261 376q0 -54 -34.5 -87t-100.5 -33q-25 0 -48 4t-33 8l-10 3l2 24l8 4q41 -13 81 -13q52 0 78.5 24.5t26.5 65.5q0 34 -23 54.5t-65 20.5h-70v30h70q35 0 55.5 22t20.5 59q0 33 -23 53.5t-64 20.5q-17 0 -37 -4.5t-31 -9.5l-12 -4l-8 4q-1 6 -4 22q41 22 92 22
q56 0 86.5 -29.5t30.5 -74.5q0 -64 -48 -91v-2q60 -24 60 -93z" />
    <glyph glyph-name="four.numerator" unicode="&#xf665;" horiz-adv-x="326" 
d="M30 387l112 271h33l-112 -271h140v125h30v-125h63v-30h-63v-95h-30v95h-173v30z" />
    <glyph glyph-name="five.numerator" unicode="&#xf666;" horiz-adv-x="299" 
d="M259 402v-10q0 -136 -115 -136q-24 0 -49 5.5t-37 10.5l-13 6l2 24l8 4q49 -20 89 -20q45 0 65 26t20 80v10q0 85 -71 85q-21 0 -41 -6.5t-29 -13.5l-10 -7l-29 8l10 192h176v-30h-147l-7 -137q31 24 77 24q48 0 74.5 -31t26.5 -84z" />
    <glyph glyph-name="six.numerator" unicode="&#xf667;" horiz-adv-x="350" 
d="M200 636q-63 0 -93 -37.5t-32 -115.5q54 40 110 40q58 0 89 -33t31 -86v-11q0 -60 -33.5 -98.5t-96.5 -38.5q-60 0 -95 43.5t-35 128.5v39q0 199 155 199q16 0 35 -3t30 -6l11 -3l-2 -24l-7 -4q-34 10 -67 10zM185 493q-55 0 -110 -42v-23q0 -142 100 -142q46 0 73 27.5
t27 79.5v11q0 89 -90 89z" />
    <glyph glyph-name="seven.numerator" unicode="&#xf668;" horiz-adv-x="285" 
d="M30 628v30h225v-28l-174 -368h-33l168 357v9h-186z" />
    <glyph glyph-name="eight.numerator" unicode="&#xf669;" horiz-adv-x="362" 
d="M55 358q0 42 18.5 67t59.5 45v2q-68 34 -68 96q0 41 32 69.5t84 28.5q53 0 84.5 -27.5t31.5 -70.5q0 -35 -16 -57.5t-56 -43.5v-4q43 -21 62.5 -44.5t19.5 -60.5q0 -49 -36.5 -75.5t-89.5 -26.5t-89.5 26.5t-36.5 75.5zM194 446l-27 11q-47 -22 -64.5 -44t-17.5 -55
q0 -32 25 -52t71 -20q47 0 71.5 20.5t24.5 51.5q0 28 -18.5 47.5t-64.5 40.5zM95 568q0 -25 12.5 -40.5t53.5 -34.5l31 -14q43 22 59 39.5t16 49.5q0 30 -21.5 49t-64.5 19q-41 0 -63.5 -19.5t-22.5 -48.5z" />
    <glyph glyph-name="nine.numerator" unicode="&#xf66a;" horiz-adv-x="350" 
d="M150 286q64 0 93.5 39t31.5 120q-50 -41 -110 -41q-57 0 -88.5 35t-31.5 89v6q0 57 33.5 94.5t96.5 37.5q60 0 95 -41t35 -126v-44q0 -199 -155 -199q-18 0 -37 3t-29 6l-10 3l2 25l7 4q39 -11 67 -11zM165 434q54 0 110 43v22q0 137 -100 137q-46 0 -73 -26t-27 -76v-6
q0 -42 23 -68t67 -26z" />
    <glyph glyph-name="Abreve.sc" unicode="&#xf66d;" horiz-adv-x="461" 
d="M48 0h-33l199 550h32l200 -550h-33l-58 160h-250zM220 478l-104 -288h228l-104 288l-9 36h-2q-5 -24 -9 -36zM325 737h30q0 -59 -32 -94t-92 -35q-59 0 -90.5 35t-31.5 94h30q0 -47 24.5 -73t67.5 -26q44 0 69 26t25 73z" />
    <glyph glyph-name="Amacron.sc" unicode="&#xf66e;" horiz-adv-x="461" 
d="M48 0h-33l199 550h32l200 -550h-33l-58 160h-250zM220 478l-104 -288h228l-104 288l-9 36h-2q-5 -24 -9 -36zM115 620v30h230v-30h-230z" />
    <glyph glyph-name="Aogonek.sc" unicode="&#xf66f;" horiz-adv-x="461" 
d="M472 -176l5 -26q-22 -10 -52 -10q-41 0 -63.5 22t-22.5 60q0 59 74 130l-58 160h-250l-57 -160h-33l199 550h32l200 -550q-77 -81 -77 -130q0 -52 57 -52zM220 478l-104 -288h228l-104 288l-9 36h-2q-5 -24 -9 -36z" />
    <glyph glyph-name="Cacute.sc" unicode="&#xf671;" horiz-adv-x="413" 
d="M394 8q-54 -20 -113 -20q-223 0 -223 262v29q0 151 58.5 217t156.5 66q25 0 50 -3.5t37 -6.5l13 -4l-3 -22l-8 -5q-42 11 -89 11q-102 0 -143.5 -68t-41.5 -186v-18q0 -127 46 -184.5t147 -57.5q24 0 49.5 4t38.5 8l13 5l9 -3q3 -20 3 -24zM380 749v-20l-113 -120h-20
l-5 10l105 130h33z" />
    <glyph glyph-name="Ccaron.sc" unicode="&#xf672;" horiz-adv-x="413" 
d="M394 8q-54 -20 -113 -20q-223 0 -223 262v29q0 151 58.5 217t156.5 66q25 0 50 -3.5t37 -6.5l13 -4l-3 -22l-8 -5q-42 11 -89 11q-102 0 -143.5 -68t-41.5 -186v-18q0 -127 46 -184.5t147 -57.5q24 0 49.5 4t38.5 8l13 5l9 -3q3 -20 3 -24zM132 749h20l104 -106l104 106
h20l5 -10l-115 -130h-28l-115 130z" />
    <glyph glyph-name="Ccircumflex.sc" unicode="&#xf673;" horiz-adv-x="413" 
d="M394 8q-54 -20 -113 -20q-223 0 -223 262v29q0 151 58.5 217t156.5 66q25 0 50 -3.5t37 -6.5l13 -4l-3 -22l-8 -5q-42 11 -89 11q-102 0 -143.5 -68t-41.5 -186v-18q0 -127 46 -184.5t147 -57.5q24 0 49.5 4t38.5 8l13 5l9 -3q3 -20 3 -24zM356 609l-104 105l-104 -105
h-20l-5 10l115 130h28l115 -130l-5 -10h-20z" />
    <glyph glyph-name="Cdotaccent.sc" unicode="&#xf674;" horiz-adv-x="413" 
d="M394 8q-54 -20 -113 -20q-223 0 -223 262v29q0 151 58.5 217t156.5 66q25 0 50 -3.5t37 -6.5l13 -4l-3 -22l-8 -5q-42 11 -89 11q-102 0 -143.5 -68t-41.5 -186v-18q0 -127 46 -184.5t147 -57.5q24 0 49.5 4t38.5 8l13 5l9 -3q3 -20 3 -24zM232 658q0 33 28 33t28 -33
q0 -32 -28 -32t-28 32z" />
    <glyph glyph-name="Dcaron.sc" unicode="&#xf675;" horiz-adv-x="493" 
d="M75 0v550h132q108 0 168 -64t60 -196v-65q0 -112 -50.5 -168.5t-147.5 -56.5h-162zM207 520h-102v-490h132q168 0 168 195v65q0 230 -198 230zM93 750h20l104 -106l104 106h20l5 -10l-115 -130h-28l-115 130z" />
    <glyph glyph-name="Dmacron.sc" unicode="&#xf676;" horiz-adv-x="493" 
d="M5 270v30h70v250h132q108 0 168 -64t60 -196v-65q0 -112 -50.5 -168.5t-147.5 -56.5h-162v270h-70zM207 520h-102v-220h120v-30h-120v-240h132q168 0 168 195v65q0 230 -198 230z" />
    <glyph glyph-name="Ebreve.sc" unicode="&#xf677;" horiz-adv-x="404" 
d="M75 0v550h290v-30h-260v-220h230v-30h-230v-240h270v-30h-300zM314 737h30q0 -59 -32 -94t-92 -35q-59 0 -90.5 35t-31.5 94h30q0 -47 24.5 -73t67.5 -26q44 0 69 26t25 73z" />
    <glyph glyph-name="Ecaron.sc" unicode="&#xf678;" horiz-adv-x="404" 
d="M75 0v550h290v-30h-260v-220h230v-30h-230v-240h270v-30h-300zM107 749h20l104 -106l104 106h20l5 -10l-115 -130h-28l-115 130z" />
    <glyph glyph-name="Edotaccent.sc" unicode="&#xf679;" horiz-adv-x="404" 
d="M75 0v550h290v-30h-260v-220h230v-30h-230v-240h270v-30h-300zM201 642q0 33 28 33t28 -33q0 -32 -28 -32t-28 32z" />
    <glyph glyph-name="Emacron.sc" unicode="&#xf67a;" horiz-adv-x="404" 
d="M75 0v550h290v-30h-260v-220h230v-30h-230v-240h270v-30h-300zM102 621v30h230v-30h-230z" />
    <glyph glyph-name="Eogonek.sc" unicode="&#xf67c;" horiz-adv-x="404" 
d="M75 0v550h290v-30h-260v-220h230v-30h-230v-240h270v-30q-80 -80 -80 -130q0 -52 57 -52l46 6l5 -26q-22 -10 -52 -10q-41 0 -63.5 22t-22.5 60q0 58 72 129v1h-262z" />
    <glyph glyph-name="Gbreve.sc" unicode="&#xf67d;" horiz-adv-x="483" 
d="M262 18q39 0 74.5 15.5t51.5 30.5l15 16v220h30v-300h-20l-8 45q-63 -57 -143 -57q-93 0 -148.5 66.5t-55.5 199.5v29q0 144 60 211.5t162 67.5q36 0 69.5 -6t48.5 -12l16 -6l-2 -23l-7 -5q-58 22 -125 22q-192 0 -192 -253v-25q0 -119 46 -177.5t128 -58.5zM360 737h30
q0 -59 -32 -94t-92 -35q-59 0 -90.5 35t-31.5 94h30q0 -47 24.5 -73t67.5 -26q44 0 69 26t25 73z" />
    <glyph glyph-name="Gcircumflex.sc" unicode="&#xf67e;" horiz-adv-x="483" 
d="M262 18q39 0 74.5 15.5t51.5 30.5l15 16v220h30v-300h-20l-8 45q-63 -57 -143 -57q-93 0 -148.5 66.5t-55.5 199.5v29q0 144 60 211.5t162 67.5q36 0 69.5 -6t48.5 -12l16 -6l-2 -23l-7 -5q-58 22 -125 22q-192 0 -192 -253v-25q0 -119 46 -177.5t128 -58.5zM381 609
l-104 105l-104 -105h-20l-5 10l115 130h28l115 -130l-5 -10h-20z" />
    <glyph glyph-name="Gcommaaccent.sc" unicode="&#xf67f;" horiz-adv-x="483" 
d="M262 18q39 0 74.5 15.5t51.5 30.5l15 16v220h30v-300h-20l-8 45q-63 -57 -143 -57q-93 0 -148.5 66.5t-55.5 199.5v29q0 144 60 211.5t162 67.5q36 0 69.5 -6t48.5 -12l16 -6l-2 -23l-7 -5q-58 22 -125 22q-192 0 -192 -253v-25q0 -119 46 -177.5t128 -58.5zM247 -75
q0 30 25 30t25 -30q0 -19 -12 -56l-20 -63h-18v9l15 79q-15 8 -15 31z" />
    <glyph glyph-name="Gdotaccent.sc" unicode="&#xf680;" horiz-adv-x="483" 
d="M262 18q39 0 74.5 15.5t51.5 30.5l15 16v220h30v-300h-20l-8 45q-63 -57 -143 -57q-93 0 -148.5 66.5t-55.5 199.5v29q0 144 60 211.5t162 67.5q36 0 69.5 -6t48.5 -12l16 -6l-2 -23l-7 -5q-58 22 -125 22q-192 0 -192 -253v-25q0 -119 46 -177.5t128 -58.5zM244 644
q0 33 28 33t28 -33q0 -32 -28 -32t-28 32z" />
    <glyph glyph-name="Imacron.sc" unicode="&#xf685;" horiz-adv-x="180" 
d="M75 0v550h30v-550h-30zM-25 621v30h230v-30h-230z" />
    <glyph glyph-name="Iogonek.sc" unicode="&#xf686;" horiz-adv-x="180" 
d="M75 0v550h30v-550q-77 -81 -77 -130q0 -52 57 -52l46 6l5 -26q-22 -10 -52 -10q-41 0 -63.5 22t-22.5 60q0 60 77 130z" />
    <glyph glyph-name="Jcircumflex.sc" unicode="&#xf688;" horiz-adv-x="291" 
d="M20 -1l2 23l9 5q29 -9 60 -9q100 0 100 152v380h30v-385q0 -177 -130 -177q-18 0 -36 2.5t-27 5.5zM312 609l-104 105l-104 -105h-20l-5 10l115 130h28l115 -130l-5 -10h-20z" />
    <glyph glyph-name="Kcommaaccent.sc" unicode="&#xf689;" horiz-adv-x="428" 
d="M105 0h-30v550h30v-250h77l183 250h38l-196 -267l206 -283h-37l-196 270h-75v-270zM198 -75q0 30 25 30t25 -30q0 -19 -12 -56l-20 -63h-18v9l15 80q-15 6 -15 30z" />
    <glyph glyph-name="Lacute.sc" unicode="&#xf68a;" horiz-adv-x="315" 
d="M75 0v550h30v-520h200v-30h-230zM219 750v-20l-113 -120h-20l-5 10l105 130h33z" />
    <glyph glyph-name="Lcaron.sc" unicode="&#xf68b;" horiz-adv-x="315" 
d="M75 0v550h30v-520h200v-30h-230zM183 531q0 26 22 26q23 0 23 -26q0 -13 -11 -50l-18 -56h-16v8l14 70q-14 6 -14 28z" />
    <glyph glyph-name="Lcommaaccent.sc" unicode="&#xf68c;" horiz-adv-x="315" 
d="M75 0v550h30v-520h200v-30h-230zM166 -75q0 30 25 30t25 -30q0 -19 -12 -56l-20 -63h-18v9l15 80q-15 6 -15 30z" />
    <glyph glyph-name="Ldot.sc" unicode="&#xf68d;" horiz-adv-x="315" 
d="M75 0v550h30v-520h200v-30h-230zM180 304q0 33 28 33t28 -33q0 -32 -28 -32t-28 32z" />
    <glyph glyph-name="Nacute.sc" unicode="&#xf68e;" horiz-adv-x="542" 
d="M435 0l-308 466l-23 46l-4 -1q5 -51 5 -71v-440h-30v550h32l314 -475l17 -36l3 1q-4 50 -4 70v440h30v-550h-32zM391 750v-20l-113 -120h-20l-5 10l105 130h33z" />
    <glyph glyph-name="Ncaron.sc" unicode="&#xf68f;" horiz-adv-x="542" 
d="M435 0l-308 466l-23 46l-4 -1q5 -51 5 -71v-440h-30v550h32l314 -475l17 -36l3 1q-4 50 -4 70v440h30v-550h-32zM160 750h20l104 -106l104 106h20l5 -10l-115 -130h-28l-115 130z" />
    <glyph glyph-name="Ncommaaccent.sc" unicode="&#xf690;" horiz-adv-x="542" 
d="M435 0l-308 466l-23 46l-4 -1q5 -51 5 -71v-440h-30v550h32l314 -475l17 -36l3 1q-4 50 -4 70v440h30v-550h-32zM234 -75q0 30 25 30t25 -30q0 -19 -12 -56l-20 -63h-18v9l15 80q-15 6 -15 30z" />
    <glyph glyph-name="Obreve.sc" unicode="&#xf691;" horiz-adv-x="506" 
d="M250 562h6q88 0 140 -68t52 -202v-34q0 -134 -52 -202t-140 -68h-6q-88 0 -140 68t-52 202v34q0 134 52 202t140 68zM256 532h-6q-75 0 -118.5 -59t-43.5 -181v-34q0 -122 43.5 -181t118.5 -59h6q75 0 118.5 59t43.5 181v34q0 122 -43.5 181t-118.5 59zM348 739h30
q0 -59 -32 -94t-92 -35q-59 0 -90.5 35t-31.5 94h30q0 -47 24.5 -73t67.5 -26q44 0 69 26t25 73z" />
    <glyph glyph-name="Ohungarumlaut.sc" unicode="&#xf692;" horiz-adv-x="506" 
d="M250 562h6q88 0 140 -68t52 -202v-34q0 -134 -52 -202t-140 -68h-6q-88 0 -140 68t-52 202v34q0 134 52 202t140 68zM256 532h-6q-75 0 -118.5 -59t-43.5 -181v-34q0 -122 43.5 -181t118.5 -59h6q75 0 118.5 59t43.5 181v34q0 122 -43.5 181t-118.5 59zM311 749v-20
l-103 -120h-20l-5 10l95 130h33zM439 749v-20l-103 -120h-20l-5 10l95 130h33z" />
    <glyph glyph-name="Omacron.sc" unicode="&#xf693;" horiz-adv-x="506" 
d="M250 562h6q88 0 140 -68t52 -202v-34q0 -134 -52 -202t-140 -68h-6q-88 0 -140 68t-52 202v34q0 134 52 202t140 68zM256 532h-6q-75 0 -118.5 -59t-43.5 -181v-34q0 -122 43.5 -181t118.5 -59h6q75 0 118.5 59t43.5 181v34q0 122 -43.5 181t-118.5 59zM136 622v30h230
v-30h-230z" />
    <glyph glyph-name="Oslashacute.sc" unicode="&#xf694;" horiz-adv-x="506" 
d="M250 562h6q72 0 120 -45l37 67l26 -15l-43 -76q52 -71 52 -201v-34q0 -134 -52 -202t-140 -68h-6q-67 0 -112 38l-38 -68l-26 14l42 76q-58 71 -58 210v34q0 134 52 202t140 68zM256 532h-6q-75 0 -118.5 -59t-43.5 -181v-34q0 -120 43 -182l5 8l12 22l213 384
q-41 42 -105 42zM369 443l-217 -390q39 -35 98 -35h6q75 0 118.5 59t43.5 181v34q0 110 -38 172l-2 -5zM381 749v-20l-113 -120h-20l-5 10l105 130h33z" />
    <glyph glyph-name="Racute.sc" unicode="&#xf695;" horiz-adv-x="430" 
d="M215 225h-110v-225h-30v550h132q198 0 198 -158v-9q0 -133 -128 -154v-2q4 -3 15 -19l123 -208h-35l-120 203q-13 22 -45 22zM207 520h-102v-265h122q148 0 148 128v9q0 66 -40.5 97t-127.5 31zM332 749v-20l-113 -120h-20l-5 10l105 130h33z" />
    <glyph glyph-name="Rcaron.sc" unicode="&#xf696;" horiz-adv-x="430" 
d="M215 225h-110v-225h-30v550h132q198 0 198 -158v-9q0 -133 -128 -154v-2q4 -3 15 -19l123 -208h-35l-120 203q-13 22 -45 22zM207 520h-102v-265h122q148 0 148 128v9q0 66 -40.5 97t-127.5 31zM94 750h20l104 -106l104 106h20l5 -10l-115 -130h-28l-115 130z" />
    <glyph glyph-name="Rcommaaccent.sc" unicode="&#xf697;" horiz-adv-x="430" 
d="M215 225h-110v-225h-30v550h132q198 0 198 -158v-9q0 -133 -128 -154v-2q4 -3 15 -19l123 -208h-35l-120 203q-13 22 -45 22zM207 520h-102v-265h122q148 0 148 128v9q0 66 -40.5 97t-127.5 31zM206 -75q0 30 25 30t25 -30q0 -19 -12 -56l-20 -63h-18v9l15 80
q-15 6 -15 30z" />
    <glyph glyph-name="Sacute.sc" unicode="&#xf698;" horiz-adv-x="440" 
d="M68 6l-1 26l10 3q54 -17 120 -17q78 0 120.5 34.5t42.5 96.5q0 43 -27 70.5t-90 44.5l-61 16q-67 18 -99.5 50t-32.5 88q0 63 45 103.5t135 40.5q25 0 52.5 -3t42.5 -7l15 -3l-1 -25l-5 -4q-47 12 -104 12q-76 0 -113 -31t-37 -83q0 -46 25.5 -69.5t84.5 -39.5l60 -16
q140 -37 140 -144q0 -67 -45.5 -114t-147.5 -47q-57 0 -129 18zM332 750v-20l-113 -120h-20l-5 10l105 130h33z" />
    <glyph glyph-name="Scedilla.sc" unicode="&#xf699;" horiz-adv-x="440" 
d="M167 -204l4 30q38 -8 67 -8q31 0 46.5 13t15.5 34q0 35 -43 35h-62l11 88h-9q-57 0 -129 18l-1 26l10 3q54 -17 120 -17q78 0 120.5 34.5t42.5 96.5q0 43 -27 70.5t-90 44.5l-61 16q-67 18 -99.5 50t-32.5 88q0 63 45 103.5t135 40.5q25 0 52.5 -3t42.5 -7l15 -3l-1 -25
l-5 -4q-47 12 -104 12q-76 0 -113 -31t-37 -83q0 -46 25.5 -69.5t84.5 -39.5l60 -16q140 -37 140 -144q0 -60 -36.5 -104.5t-116.5 -53.5l-6 -61h27q72 0 72 -65q0 -36 -24.5 -56.5t-67.5 -20.5q-16 0 -34 2t-28 4z" />
    <glyph glyph-name="Scircumflex.sc" unicode="&#xf69a;" horiz-adv-x="440" 
d="M68 6l-1 26l10 3q54 -17 120 -17q78 0 120.5 34.5t42.5 96.5q0 43 -27 70.5t-90 44.5l-61 16q-67 18 -99.5 50t-32.5 88q0 63 45 103.5t135 40.5q25 0 52.5 -3t42.5 -7l15 -3l-1 -25l-5 -4q-47 12 -104 12q-76 0 -113 -31t-37 -83q0 -46 25.5 -69.5t84.5 -39.5l60 -16
q140 -37 140 -144q0 -67 -45.5 -114t-147.5 -47q-57 0 -129 18zM325 610l-104 105l-104 -105h-20l-5 10l115 130h28l115 -130l-5 -10h-20z" />
    <glyph glyph-name="Scommaaccent.sc" unicode="&#xf69b;" horiz-adv-x="440" 
d="M68 6l-1 26l10 3q54 -17 120 -17q78 0 120.5 34.5t42.5 96.5q0 43 -27 70.5t-90 44.5l-61 16q-67 18 -99.5 50t-32.5 88q0 63 45 103.5t135 40.5q25 0 52.5 -3t42.5 -7l15 -3l-1 -25l-5 -4q-47 12 -104 12q-76 0 -113 -31t-37 -83q0 -46 25.5 -69.5t84.5 -39.5l60 -16
q140 -37 140 -144q0 -67 -45.5 -114t-147.5 -47q-57 0 -129 18zM203 -75q0 30 25 30t25 -30q0 -19 -12 -56l-20 -63h-18v9l15 79q-15 8 -15 31z" />
    <glyph glyph-name="Tcaron.sc" unicode="&#xf69d;" horiz-adv-x="400" 
d="M15 520v30h370v-30h-170v-520h-30v520h-170zM78 750h20l104 -106l104 106h20l5 -10l-115 -130h-28l-115 130z" />
    <glyph glyph-name="Tcommaaccent.sc" unicode="&#xf69e;" horiz-adv-x="400" 
d="M15 520v30h370v-30h-170v-520h-30v520h-170zM175 -75q0 30 25 30t25 -30q0 -19 -12 -56l-20 -63h-18v9l15 80q-15 6 -15 30z" />
    <glyph glyph-name="Ubreve.sc" unicode="&#xf69f;" 
d="M400 550h30v-330q0 -124 -44 -178t-132 -54h-8q-88 0 -132 54t-44 178v330h30v-330q0 -113 37 -157.5t113 -44.5t113 44.5t37 157.5v330zM343 739h30q0 -59 -32 -94t-92 -35q-59 0 -90.5 35t-31.5 94h30q0 -47 24.5 -73t67.5 -26q44 0 69 26t25 73z" />
    <glyph glyph-name="Uhungarumlaut.sc" unicode="&#xf6a0;" 
d="M400 550h30v-330q0 -124 -44 -178t-132 -54h-8q-88 0 -132 54t-44 178v330h30v-330q0 -113 37 -157.5t113 -44.5t113 44.5t37 157.5v330zM293 749v-20l-103 -120h-20l-5 10l95 130h33zM421 749v-20l-103 -120h-20l-5 10l95 130h33z" />
    <glyph glyph-name="Umacron.sc" unicode="&#xf6a1;" 
d="M400 550h30v-330q0 -124 -44 -178t-132 -54h-8q-88 0 -132 54t-44 178v330h30v-330q0 -113 37 -157.5t113 -44.5t113 44.5t37 157.5v330zM135 621v30h230v-30h-230z" />
    <glyph glyph-name="Uogonek.sc" unicode="&#xf6a2;" 
d="M344 -176l5 -26q-22 -10 -52 -10q-41 0 -63.5 22t-22.5 60q0 55 59 118v1q-12 -1 -16 -1h-8q-88 0 -132 54t-44 178v330h30v-330q0 -113 37 -157.5t113 -44.5t113 44.5t37 157.5v330h30v-330q0 -191 -113 -224q-76 -76 -76 -126q0 -52 57 -52z" />
    <glyph glyph-name="Uring.sc" unicode="&#xf6a3;" 
d="M400 550h30v-330q0 -124 -44 -178t-132 -54h-8q-88 0 -132 54t-44 178v330h30v-330q0 -113 37 -157.5t113 -44.5t113 44.5t37 157.5v330zM155 703q0 39 28 67t67 28t67 -28t28 -67t-28 -67t-67 -28t-67 28t-28 67zM185 703q0 -27 19 -46t46 -19t46 19t19 46t-19 46
t-46 19t-46 -19t-19 -46z" />
    <glyph glyph-name="Utilde.sc" unicode="&#xf6a4;" 
d="M400 550h30v-330q0 -124 -44 -178t-132 -54h-8q-88 0 -132 54t-44 178v330h30v-330q0 -113 37 -157.5t113 -44.5t113 44.5t37 157.5v330zM386 724l29 -10q-18 -56 -41 -80t-57 -24q-19 0 -38.5 13t-33 28.5t-30 28.5t-30.5 13q-23 0 -37.5 -18t-31.5 -66l-29 10
q18 57 41 80.5t57 23.5q24 0 48 -20.5t45.5 -41.5t38.5 -21q25 0 38 17.5t31 66.5z" />
    <glyph glyph-name="Wacute.sc" unicode="&#xf6a5;" horiz-adv-x="620" 
d="M312 485h-4q-5 -39 -9 -54l-111 -431h-31l-142 550h31l106 -410l19 -97h4q8 57 16 87l103 403h32l103 -403l16 -87h4q11 67 19 97l106 410h31l-142 -550h-31l-111 431zM427 750v-20l-113 -120h-20l-5 10l105 130h33z" />
    <glyph glyph-name="Wcircumflex.sc" unicode="&#xf6a6;" horiz-adv-x="620" 
d="M312 485h-4q-5 -39 -9 -54l-111 -431h-31l-142 550h31l106 -410l19 -97h4q8 57 16 87l103 403h32l103 -403l16 -87h4q11 67 19 97l106 410h31l-142 -550h-31l-111 431zM414 610l-104 105l-104 -105h-20l-5 10l115 130h28l115 -130l-5 -10h-20z" />
    <glyph glyph-name="Wdieresis.sc" unicode="&#xf6a7;" horiz-adv-x="620" 
d="M312 485h-4q-5 -39 -9 -54l-111 -431h-31l-142 550h31l106 -410l19 -97h4q8 57 16 87l103 403h32l103 -403l16 -87h4q11 67 19 97l106 410h31l-142 -550h-31l-111 431zM202 650q0 33 28 33t28 -33q0 -32 -28 -32t-28 32zM360 650q0 33 28 33t28 -33q0 -32 -28 -32t-28 32
z" />
    <glyph glyph-name="Wgrave.sc" unicode="&#xf6a8;" horiz-adv-x="620" 
d="M312 485h-4q-5 -39 -9 -54l-111 -431h-31l-142 550h31l106 -410l19 -97h4q8 57 16 87l103 403h32l103 -403l16 -87h4q11 67 19 97l106 410h31l-142 -550h-31l-111 431zM198 729v20h33l105 -130l-5 -10h-20z" />
    <glyph glyph-name="Ycircumflex.sc" unicode="&#xf6a9;" horiz-adv-x="407" 
d="M189 210l-174 340h34l127 -247l26 -61h4q14 38 26 61l126 247h34l-173 -340v-210h-30v210zM308 609l-104 105l-104 -105h-20l-5 10l115 130h28l115 -130l-5 -10h-20z" />
    <glyph glyph-name="Ygrave.sc" unicode="&#xf6aa;" horiz-adv-x="407" 
d="M189 210l-174 340h34l127 -247l26 -61h4q14 38 26 61l126 247h34l-173 -340v-210h-30v210zM95 729v20h33l105 -130l-5 -10h-20z" />
    <glyph glyph-name="Zacute.sc" unicode="&#xf6ab;" horiz-adv-x="380" 
d="M47 520v30h303v-25l-263 -461l-21 -32v-2h284v-30h-320v25l263 460l21 33v2h-267zM324 749v-20l-113 -120h-20l-5 10l105 130h33z" />
    <glyph glyph-name="Zdotaccent.sc" unicode="&#xf6ac;" horiz-adv-x="380" 
d="M47 520v30h303v-25l-263 -461l-21 -32v-2h284v-30h-320v25l263 460l21 33v2h-267zM178 653q0 33 28 33t28 -33q0 -32 -28 -32t-28 32z" />
    <glyph glyph-name="Idotaccent.sc" unicode="&#xf6ad;" horiz-adv-x="180" 
d="M75 0v550h30v-550h-30zM62 680q0 33 28 33t28 -33q0 -32 -28 -32t-28 32z" />
    <glyph glyph-name="Germandbls.sc" unicode="&#xf6be;" horiz-adv-x="881" 
d="M68 6l-1 26l10 3q54 -17 120 -17q78 0 120.5 34.5t42.5 96.5q0 43 -27 70.5t-90 44.5l-61 16q-67 18 -99.5 50t-32.5 88q0 63 45 103.5t135 40.5q25 0 52.5 -3t42.5 -7l15 -3l-1 -25l-5 -4q-47 12 -104 12q-76 0 -113 -31t-37 -83q0 -46 25.5 -69.5t84.5 -39.5l60 -16
q140 -37 140 -144q0 -67 -45.5 -114t-147.5 -47q-57 0 -129 18zM509 6l-1 26l10 3q54 -17 120 -17q78 0 120.5 34.5t42.5 96.5q0 43 -27 70.5t-90 44.5l-61 16q-67 18 -99.5 50t-32.5 88q0 63 45 103.5t135 40.5q25 0 52.5 -3t42.5 -7l15 -3l-1 -25l-5 -4q-47 12 -104 12
q-76 0 -113 -31t-37 -83q0 -46 25.5 -69.5t84.5 -39.5l60 -16q140 -37 140 -144q0 -67 -45.5 -114t-147.5 -47q-57 0 -129 18z" />
    <glyph glyph-name="commaaccent" unicode="&#xf6c3;" horiz-adv-x="220" 
d="M81 -83q0 33 28 33t28 -33q0 -19 -14 -62l-22 -70h-20v10l17 88q-17 8 -17 34z" />
    <glyph glyph-name="dblgrave" unicode="&#xf6d6;" horiz-adv-x="470" 
d="M209 700v20h33l95 -130l-5 -10h-20zM70 700v20h33l95 -130l-5 -10h-20z" />
    <glyph glyph-name="one.tb" unicode="&#xf6dc;" 
d="M100 520v26l160 114h20v-630h150v-30h-350v30h170v581l-4 2l-136 -93h-10z" />
    <glyph glyph-name="rupiah" unicode="&#xf6dd;" horiz-adv-x="970" 
d="M232 290h-122v-290h-30v650h132q218 0 218 -185v-10q0 -130 -130 -159v-1q8 -9 16 -25l124 -270h-32l-123 264q-8 16 -17.5 21t-35.5 5zM212 620h-102v-300h122q168 0 168 135v10q0 84 -47.5 119.5t-140.5 35.5zM580 -200h-30v720h20l7 -50q77 62 163 62q180 0 180 -247
v-55q0 -125 -48 -183.5t-127 -58.5q-92 0 -165 73v-261zM890 230v45q0 127 -39 177t-111 50q-40 0 -80 -15t-60 -31l-20 -15v-345q8 -9 22 -22t57 -34.5t86 -21.5q145 0 145 212z" />
    <glyph glyph-name="Lslash.sc" unicode="&#xf6f9;" horiz-adv-x="315" 
d="M5 191v34l70 40v285h30v-267l120 70v-34l-120 -70v-219h200v-30h-230v231z" />
    <glyph glyph-name="OE.sc" unicode="&#xf6fa;" horiz-adv-x="682" 
d="M250 562h6q36 0 67 -12h320v-30h-262l-4 -5q68 -67 71 -215h165v-30h-165v-12q0 -155 -71 -224l3 -4h273v-30h-330q-31 -12 -67 -12h-6q-88 0 -140 68t-52 202v34q0 134 52 202t140 68zM256 532h-6q-75 0 -118.5 -59t-43.5 -181v-34q0 -122 43.5 -181t118.5 -59h6
q75 0 118.5 59t43.5 181v34q0 122 -43.5 181t-118.5 59z" />
    <glyph glyph-name="Scaron.sc" unicode="&#xf6fd;" horiz-adv-x="440" 
d="M68 6l-1 26l10 3q54 -17 120 -17q78 0 120.5 34.5t42.5 96.5q0 43 -27 70.5t-90 44.5l-61 16q-67 18 -99.5 50t-32.5 88q0 63 45 103.5t135 40.5q25 0 52.5 -3t42.5 -7l15 -3l-1 -25l-5 -4q-47 12 -104 12q-76 0 -113 -31t-37 -83q0 -46 25.5 -69.5t84.5 -39.5l60 -16
q140 -37 140 -144q0 -67 -45.5 -114t-147.5 -47q-57 0 -129 18zM86 750h20l104 -106l104 106h20l5 -10l-115 -130h-28l-115 130z" />
    <glyph glyph-name="Zcaron.sc" unicode="&#xf6ff;" horiz-adv-x="380" 
d="M47 520v30h303v-25l-263 -461l-21 -32v-2h284v-30h-320v25l263 460l21 33v2h-267zM88 749h20l104 -106l104 106h20l5 -10l-115 -130h-28l-115 130z" />
    <glyph glyph-name="exclam.sc" unicode="&#xf721;" horiz-adv-x="216" 
d="M105 582h6q15 0 15 -17v-105l-9 -275h-18l-9 275v105q0 17 15 17zM80 22q0 33 28 33t28 -33q0 -32 -28 -32t-28 32z" />
    <glyph glyph-name="ampersand.sc" unicode="&#xf726;" horiz-adv-x="565" 
d="M460 267v-55q0 -68 -27 -118l102 -94h-45l-73 68q-60 -80 -182 -80q-85 0 -135 36.5t-50 97.5q0 48 29 85t106 74l2 1l-14 14q-37 35 -52 51t-28 41t-13 54q0 52 41 86t114 34q67 0 111 -34.5t44 -85.5q0 -48 -30.5 -85.5t-117.5 -80.5l-3 -2l171 -159q20 43 20 100v52
h30zM235 18q109 0 160 70l-184 172l-11 -5q-71 -36 -95.5 -66t-24.5 -67q0 -48 43.5 -76t111.5 -28zM110 442q0 -33 15.5 -54.5t69.5 -71.5l21 -20l14 7q79 38 104.5 67.5t25.5 71.5t-38 66t-87 24q-53 0 -89 -22.5t-36 -67.5z" />
    <glyph glyph-name="zerooldstyle" unicode="&#xf730;" horiz-adv-x="540" 
d="M40 254v12q0 119 62 192.5t167 73.5h2q105 0 167 -73.5t62 -192.5v-12q0 -119 -62 -192.5t-167 -73.5h-2q-105 0 -167 73.5t-62 192.5zM70 273v-26q0 -105 55 -167t145 -62t145 62t55 167v26q0 105 -55 167t-145 62t-145 -62t-55 -167z" />
    <glyph glyph-name="oneoldstyle" unicode="&#xf731;" horiz-adv-x="280" 
d="M20 380v26l160 114h20v-520h-30v471l-4 2l-136 -93h-10z" />
    <glyph glyph-name="twooldstyle" unicode="&#xf732;" horiz-adv-x="468" 
d="M418 360q0 -59 -33 -105t-106 -99l-174 -126l1 -4l45 4h267v-30h-370v20l213 160q69 53 98 90.5t29 89.5q0 64 -44 103t-123 39q-32 0 -68.5 -9t-56.5 -17l-20 -9l-9 3q-2 13 -3 24q69 38 157 38q91 0 144 -47.5t53 -124.5z" />
    <glyph glyph-name="threeoldstyle" unicode="&#xf733;" horiz-adv-x="454" 
d="M404 52v-5q0 -82 -56.5 -135.5t-156.5 -53.5q-40 0 -78 7t-55 13l-18 7l2 23l9 5q59 -25 140 -25q89 0 136 46.5t47 112.5v5q0 67 -47 105t-133 38h-90v30h90q66 0 113 40t47 97v5q0 58 -41.5 96.5t-114.5 38.5q-30 0 -63.5 -8t-52.5 -16l-18 -7l-11 3q-3 11 -4 21
q61 37 149 37q92 0 139 -49t47 -116v-5q0 -55 -30.5 -92t-73.5 -54v-3q51 -14 87.5 -53.5t36.5 -107.5z" />
    <glyph glyph-name="fouroldstyle" unicode="&#xf734;" horiz-adv-x="480" 
d="M30 30l222 490h33l-222 -490h282v230h30v-230h95v-30h-95v-130h-30v130h-315v30z" />
    <glyph glyph-name="fiveoldstyle" unicode="&#xf735;" horiz-adv-x="472" 
d="M414 86v-16q0 -98 -46.5 -155t-143.5 -57q-40 0 -78.5 8t-57.5 16l-18 9l3 23l9 4q68 -30 142 -30q81 0 120.5 48t39.5 134v16q0 156 -150 156q-33 0 -69 -11t-55 -22l-19 -11l-25 7l18 315h290v-30h-262l-15 -256q63 38 137 38q86 0 133 -45.5t47 -140.5z" />
    <glyph glyph-name="sixoldstyle" unicode="&#xf736;" horiz-adv-x="520" 
d="M90 350v-11q35 30 84.5 52t100.5 22q92 0 138.5 -52t46.5 -136v-25q0 -96 -49.5 -154t-140.5 -58q-99 0 -154.5 72t-55.5 215v65q0 154 62 233t178 79q28 0 56 -5.5t42 -10.5l13 -6l-2 -23l-8 -5q-47 20 -101 20q-98 0 -154 -68.5t-56 -203.5zM275 383q-94 0 -185 -79
v-39q0 -131 50.5 -189t129.5 -58q72 0 116 46.5t44 130.5v35q0 74 -42 113.5t-113 39.5z" />
    <glyph glyph-name="sevenoldstyle" unicode="&#xf737;" horiz-adv-x="430" 
d="M30 490v30h380v-30l-301 -620h-34l299 615v5h-344z" />
    <glyph glyph-name="eightoldstyle" unicode="&#xf738;" 
d="M50 150q0 65 33.5 110t112.5 82v3q-32 16 -47.5 24.5t-39 28t-34 46t-10.5 61.5q0 64 50.5 105.5t134.5 41.5q86 0 135.5 -39.5t49.5 -107.5q0 -62 -31 -100.5t-102 -75.5v-4q74 -37 111 -74t37 -101q0 -78 -56.5 -120t-143.5 -42t-143.5 42t-56.5 120zM283 302l-52 26
q-83 -37 -117 -79t-34 -99q0 -60 44.5 -96t125.5 -36t125.5 36t44.5 96q0 46 -27 78t-110 74zM95 505q0 -45 26 -74.5t100 -64.5l45 -23q74 36 106.5 70.5t32.5 91.5q0 51 -41 84t-114 33t-114 -33t-41 -84z" />
    <glyph glyph-name="nineoldstyle" unicode="&#xf739;" horiz-adv-x="520" 
d="M220 -112q97 0 153.5 73t56.5 209v1q-82 -64 -185 -64q-92 0 -138.5 52t-46.5 136v25q0 95 54 153.5t146 58.5q200 0 200 -287v-65q0 -154 -63.5 -238t-176.5 -84q-27 0 -54.5 5t-41.5 10l-15 5l2 24l8 5q51 -19 101 -19zM245 137q105 0 185 68v50q0 247 -170 247
q-74 0 -122 -47t-48 -130v-35q0 -74 42 -113.5t113 -39.5z" />
    <glyph glyph-name="question.sc" unicode="&#xf73f;" horiz-adv-x="364" 
d="M314 431v-5q0 -44 -22 -77t-76 -68q-48 -31 -58 -44t-10 -42v-30h-30v35q0 35 15 54t69 54q45 29 63.5 55.5t18.5 62.5v5q0 45 -33 73t-99 28q-19 0 -41.5 -3.5t-35.5 -6.5l-13 -4l-8 4q-1 4 -4 23q44 17 102 17q78 0 120 -36.5t42 -94.5zM105 22q0 33 28 33t28 -33
q0 -32 -28 -32t-28 32z" />
    <glyph glyph-name="A.sc" unicode="&#xf761;" horiz-adv-x="461" 
d="M48 0h-33l199 550h32l200 -550h-33l-58 160h-250zM220 478l-104 -288h228l-104 288l-9 36h-2q-5 -24 -9 -36z" />
    <glyph glyph-name="B.sc" unicode="&#xf762;" horiz-adv-x="453" 
d="M75 0v550h142q178 0 178 -150v-5q0 -80 -68 -108v-3q88 -25 88 -129v-6q0 -149 -158 -149h-182zM255 265h-150v-235h152q71 0 99.5 31.5t28.5 87.5v6q0 110 -130 110zM217 520h-112v-225h150q51 0 80.5 27.5t29.5 72.5v5q0 58 -32 89t-116 31z" />
    <glyph glyph-name="C.sc" unicode="&#xf763;" horiz-adv-x="413" 
d="M394 8q-54 -20 -113 -20q-223 0 -223 262v29q0 151 58.5 217t156.5 66q25 0 50 -3.5t37 -6.5l13 -4l-3 -22l-8 -5q-42 11 -89 11q-102 0 -143.5 -68t-41.5 -186v-18q0 -127 46 -184.5t147 -57.5q24 0 49.5 4t38.5 8l13 5l9 -3q3 -20 3 -24z" />
    <glyph glyph-name="D.sc" unicode="&#xf764;" horiz-adv-x="493" 
d="M75 0v550h132q108 0 168 -64t60 -196v-65q0 -112 -50.5 -168.5t-147.5 -56.5h-162zM207 520h-102v-490h132q168 0 168 195v65q0 230 -198 230z" />
    <glyph glyph-name="E.sc" unicode="&#xf765;" horiz-adv-x="404" 
d="M75 0v550h290v-30h-260v-220h230v-30h-230v-240h270v-30h-300z" />
    <glyph glyph-name="F.sc" unicode="&#xf766;" horiz-adv-x="380" 
d="M75 0v550h290v-30h-260v-240h220v-30h-220v-250h-30z" />
    <glyph glyph-name="G.sc" unicode="&#xf767;" horiz-adv-x="483" 
d="M262 18q39 0 74.5 15.5t51.5 30.5l15 16v220h30v-300h-20l-8 45q-63 -57 -143 -57q-93 0 -148.5 66.5t-55.5 199.5v29q0 144 60 211.5t162 67.5q36 0 69.5 -6t48.5 -12l16 -6l-2 -23l-7 -5q-58 22 -125 22q-192 0 -192 -253v-25q0 -119 46 -177.5t128 -58.5z" />
    <glyph glyph-name="H.sc" unicode="&#xf768;" horiz-adv-x="520" 
d="M415 0v260h-310v-260h-30v550h30v-260h310v260h30v-550h-30z" />
    <glyph glyph-name="I.sc" unicode="&#xf769;" horiz-adv-x="180" 
d="M75 0v550h30v-550h-30z" />
    <glyph glyph-name="J.sc" unicode="&#xf76a;" horiz-adv-x="291" 
d="M20 -1l2 23l9 5q29 -9 60 -9q100 0 100 152v380h30v-385q0 -177 -130 -177q-18 0 -36 2.5t-27 5.5z" />
    <glyph glyph-name="K.sc" unicode="&#xf76b;" horiz-adv-x="428" 
d="M105 0h-30v550h30v-250h77l183 250h38l-196 -267l206 -283h-37l-196 270h-75v-270z" />
    <glyph glyph-name="L.sc" unicode="&#xf76c;" horiz-adv-x="315" 
d="M75 0v550h30v-520h200v-30h-230z" />
    <glyph glyph-name="M.sc" unicode="&#xf76d;" horiz-adv-x="630" 
d="M555 0h-30v400l3 83l-4 1q-12 -39 -23 -64l-175 -400h-23l-174 400l-23 64l-4 -1q3 -63 3 -83v-400h-30v550h30l175 -400l33 -87h3q15 46 33 87l176 400h30v-550z" />
    <glyph glyph-name="N.sc" unicode="&#xf76e;" horiz-adv-x="542" 
d="M435 0l-308 466l-23 46l-4 -1q5 -51 5 -71v-440h-30v550h32l314 -475l17 -36l3 1q-4 50 -4 70v440h30v-550h-32z" />
    <glyph glyph-name="O.sc" unicode="&#xf76f;" horiz-adv-x="506" 
d="M250 562h6q88 0 140 -68t52 -202v-34q0 -134 -52 -202t-140 -68h-6q-88 0 -140 68t-52 202v34q0 134 52 202t140 68zM256 532h-6q-75 0 -118.5 -59t-43.5 -181v-34q0 -122 43.5 -181t118.5 -59h6q75 0 118.5 59t43.5 181v34q0 122 -43.5 181t-118.5 59z" />
    <glyph glyph-name="P.sc" unicode="&#xf770;" horiz-adv-x="405" 
d="M75 0v550h122q98 0 143 -43t45 -132v-20q0 -155 -178 -155h-102v-200h-30zM197 520h-92v-290h102q148 0 148 125v20q0 75 -36 110t-122 35z" />
    <glyph glyph-name="Q.sc" unicode="&#xf771;" horiz-adv-x="506" 
d="M250 562h6q88 0 140 -68t52 -202v-34q0 -178 -92 -241l58 -101l-27 -16l-58 102q-34 -14 -73 -14h-6q-88 0 -140 68t-52 202v34q0 134 52 202t140 68zM256 532h-6q-75 0 -118.5 -59t-43.5 -181v-34q0 -122 43.5 -181t118.5 -59h6q75 0 118.5 59t43.5 181v34
q0 122 -43.5 181t-118.5 59z" />
    <glyph glyph-name="R.sc" unicode="&#xf772;" horiz-adv-x="430" 
d="M215 225h-110v-225h-30v550h132q198 0 198 -158v-9q0 -133 -128 -154v-2q4 -3 15 -19l123 -208h-35l-120 203q-13 22 -45 22zM207 520h-102v-265h122q148 0 148 128v9q0 66 -40.5 97t-127.5 31z" />
    <glyph glyph-name="S.sc" unicode="&#xf773;" horiz-adv-x="440" 
d="M68 6l-1 26l10 3q54 -17 120 -17q78 0 120.5 34.5t42.5 96.5q0 43 -27 70.5t-90 44.5l-61 16q-67 18 -99.5 50t-32.5 88q0 63 45 103.5t135 40.5q25 0 52.5 -3t42.5 -7l15 -3l-1 -25l-5 -4q-47 12 -104 12q-76 0 -113 -31t-37 -83q0 -46 25.5 -69.5t84.5 -39.5l60 -16
q140 -37 140 -144q0 -67 -45.5 -114t-147.5 -47q-57 0 -129 18z" />
    <glyph glyph-name="T.sc" unicode="&#xf774;" horiz-adv-x="400" 
d="M15 520v30h370v-30h-170v-520h-30v520h-170z" />
    <glyph glyph-name="U.sc" unicode="&#xf775;" 
d="M400 550h30v-330q0 -124 -44 -178t-132 -54h-8q-88 0 -132 54t-44 178v330h30v-330q0 -113 37 -157.5t113 -44.5t113 44.5t37 157.5v330z" />
    <glyph glyph-name="V.sc" unicode="&#xf776;" horiz-adv-x="443" 
d="M15 550h32l162 -470l11 -45h3q4 25 11 45l162 470h32l-189 -550h-35z" />
    <glyph glyph-name="W.sc" unicode="&#xf777;" horiz-adv-x="620" 
d="M312 485h-4q-5 -39 -9 -54l-111 -431h-31l-142 550h31l106 -410l19 -97h4q8 57 16 87l103 403h32l103 -403l16 -87h4q11 67 19 97l106 410h31l-142 -550h-31l-111 431z" />
    <glyph glyph-name="X.sc" unicode="&#xf778;" horiz-adv-x="410" 
d="M204 303h2q6 17 12 28l131 219h35l-160 -268l171 -282h-35l-138 228l-16 32h-2q-10 -22 -16 -32l-138 -228h-35l171 282l-160 268h35l131 -219z" />
    <glyph glyph-name="Y.sc" unicode="&#xf779;" horiz-adv-x="407" 
d="M189 210l-174 340h34l127 -247l26 -61h4q14 38 26 61l126 247h34l-173 -340v-210h-30v210z" />
    <glyph glyph-name="Z.sc" unicode="&#xf77a;" horiz-adv-x="380" 
d="M47 520v30h303v-25l-263 -461l-21 -32v-2h284v-30h-320v25l263 460l21 33v2h-267z" />
    <glyph glyph-name="exclamdown.sc" unicode="&#xf7a1;" horiz-adv-x="216" 
d="M136 468q0 -33 -28 -33t-28 33q0 32 28 32t28 -32zM111 -92h-6q-15 0 -15 17v105l9 275h18l9 -275v-105q0 -17 -15 -17z" />
    <glyph glyph-name="questiondown.sc" unicode="&#xf7bf;" horiz-adv-x="364" 
d="M259 468q0 -33 -28 -33t-28 33q0 32 28 32t28 -32zM50 59v5q0 44 22 77t76 68q48 31 58 44t10 42v30h30v-35q0 -35 -15 -54t-69 -54q-45 -29 -63.5 -55.5t-18.5 -62.5v-5q0 -45 33 -73t99 -28q19 0 41.5 3.5t35.5 6.5l13 4l8 -4q1 -4 4 -23q-44 -17 -102 -17
q-78 0 -120 36.5t-42 94.5z" />
    <glyph glyph-name="Agrave.sc" unicode="&#xf7e0;" horiz-adv-x="461" 
d="M48 0h-33l199 550h32l200 -550h-33l-58 160h-250zM220 478l-104 -288h228l-104 288l-9 36h-2q-5 -24 -9 -36zM129 729v20h33l105 -130l-5 -10h-20z" />
    <glyph glyph-name="Aacute.sc" unicode="&#xf7e1;" horiz-adv-x="461" 
d="M48 0h-33l199 550h32l200 -550h-33l-58 160h-250zM220 478l-104 -288h228l-104 288l-9 36h-2q-5 -24 -9 -36zM354 750v-20l-113 -120h-20l-5 10l105 130h33z" />
    <glyph glyph-name="Acircumflex.sc" unicode="&#xf7e2;" horiz-adv-x="461" 
d="M48 0h-33l199 550h32l200 -550h-33l-58 160h-250zM220 478l-104 -288h228l-104 288l-9 36h-2q-5 -24 -9 -36zM335 609l-104 105l-104 -105h-20l-5 10l115 130h28l115 -130l-5 -10h-20z" />
    <glyph glyph-name="Atilde.sc" unicode="&#xf7e3;" horiz-adv-x="461" 
d="M48 0h-33l199 550h32l200 -550h-33l-58 160h-250zM220 478l-104 -288h228l-104 288l-9 36h-2q-5 -24 -9 -36zM366 725l29 -10q-18 -56 -41 -80t-57 -24q-24 0 -48 20.5t-45.5 41.5t-38.5 21q-23 0 -37.5 -18t-31.5 -66l-29 10q18 57 41 80.5t57 23.5q24 0 48 -21
t45.5 -41.5t38.5 -20.5q25 0 38 17.5t31 66.5z" />
    <glyph glyph-name="Adieresis.sc" unicode="&#xf7e4;" horiz-adv-x="461" 
d="M48 0h-33l199 550h32l200 -550h-33l-58 160h-250zM220 478l-104 -288h228l-104 288l-9 36h-2q-5 -24 -9 -36zM123 654q0 33 28 33t28 -33q0 -32 -28 -32t-28 32zM281 654q0 33 28 33t28 -33q0 -32 -28 -32t-28 32z" />
    <glyph glyph-name="Aring.sc" unicode="&#xf7e5;" horiz-adv-x="461" 
d="M48 0h-33l199 550h32l200 -550h-33l-58 160h-250zM220 478l-104 -288h228l-104 288l-9 36h-2q-5 -24 -9 -36zM135 703q0 39 28 67t67 28t67 -28t28 -67t-28 -67t-67 -28t-67 28t-28 67zM165 703q0 -27 19 -46t46 -19t46 19t19 46t-19 46t-46 19t-46 -19t-19 -46z" />
    <glyph glyph-name="AE.sc" unicode="&#xf7e6;" horiz-adv-x="579" 
d="M47 0h-32l221 550h304v-30h-240v-220h210v-30h-210v-240h250v-30h-280v160h-159zM240 479l-117 -289h147v330h-14z" />
    <glyph glyph-name="Ccedilla.sc" unicode="&#xf7e7;" horiz-adv-x="413" 
d="M201 -204l4 30q38 -8 67 -8q31 0 46.5 13t15.5 34q0 35 -43 35h-62l12 91q-183 22 -183 259v29q0 151 58.5 217t156.5 66q25 0 50 -3.5t37 -6.5l13 -4l-3 -22l-8 -5q-42 11 -89 11q-102 0 -143.5 -68t-41.5 -186v-18q0 -127 46 -184.5t147 -57.5q24 0 49.5 4t38.5 8l13 5
l9 -3q3 -20 3 -24q-54 -20 -113 -20h-10l-6 -58h27q72 0 72 -65q0 -36 -24.5 -56.5t-67.5 -20.5q-16 0 -34 2t-28 4z" />
    <glyph glyph-name="Egrave.sc" unicode="&#xf7e8;" horiz-adv-x="404" 
d="M75 0v550h290v-30h-260v-220h230v-30h-230v-240h270v-30h-300zM118 730v20h33l105 -130l-5 -10h-20z" />
    <glyph glyph-name="Eacute.sc" unicode="&#xf7e9;" horiz-adv-x="404" 
d="M75 0v550h290v-30h-260v-220h230v-30h-230v-240h270v-30h-300zM331 750v-20l-113 -120h-20l-5 10l105 130h33z" />
    <glyph glyph-name="Ecircumflex.sc" unicode="&#xf7ea;" horiz-adv-x="404" 
d="M75 0v550h290v-30h-260v-220h230v-30h-230v-240h270v-30h-300zM328 609l-104 105l-104 -105h-20l-5 10l115 130h28l115 -130l-5 -10h-20z" />
    <glyph glyph-name="Edieresis.sc" unicode="&#xf7eb;" horiz-adv-x="404" 
d="M75 0v550h290v-30h-260v-220h230v-30h-230v-240h270v-30h-300zM116 650q0 33 28 33t28 -33q0 -32 -28 -32t-28 32zM274 650q0 33 28 33t28 -33q0 -32 -28 -32t-28 32z" />
    <glyph glyph-name="Igrave.sc" unicode="&#xf7ec;" horiz-adv-x="180" 
d="M75 0v550h30v-550h-30zM-18 729v20h33l105 -130l-5 -10h-20z" />
    <glyph glyph-name="Iacute.sc" unicode="&#xf7ed;" horiz-adv-x="180" 
d="M75 0v550h30v-550h-30zM208 750v-20l-113 -120h-20l-5 10l105 130h33z" />
    <glyph glyph-name="Icircumflex.sc" unicode="&#xf7ee;" horiz-adv-x="180" 
d="M75 0v550h30v-550h-30zM194 609l-104 105l-104 -105h-20l-5 10l115 130h28l115 -130l-5 -10h-20z" />
    <glyph glyph-name="Idieresis.sc" unicode="&#xf7ef;" horiz-adv-x="180" 
d="M75 0v550h30v-550h-30zM-17 650q0 33 28 33t28 -33q0 -32 -28 -32t-28 32zM141 650q0 33 28 33t28 -33q0 -32 -28 -32t-28 32z" />
    <glyph glyph-name="Eth.sc" unicode="&#xf7f0;" horiz-adv-x="493" 
d="M5 270v30h70v250h132q108 0 168 -64t60 -196v-65q0 -112 -50.5 -168.5t-147.5 -56.5h-162v270h-70zM207 520h-102v-220h120v-30h-120v-240h132q168 0 168 195v65q0 230 -198 230z" />
    <glyph glyph-name="Ntilde.sc" unicode="&#xf7f1;" horiz-adv-x="542" 
d="M435 0l-308 466l-23 46l-4 -1q5 -51 5 -71v-440h-30v550h32l314 -475l17 -36l3 1q-4 50 -4 70v440h30v-550h-32zM419 727l29 -10q-18 -56 -41 -80t-57 -24q-24 0 -48 20.5t-45.5 41.5t-38.5 21q-23 0 -37.5 -18t-31.5 -66l-29 10q18 57 41 80.5t57 23.5q24 0 48 -21
t45.5 -41.5t38.5 -20.5q25 0 38 17.5t31 66.5z" />
    <glyph glyph-name="Ograve.sc" unicode="&#xf7f2;" horiz-adv-x="506" 
d="M250 562h6q88 0 140 -68t52 -202v-34q0 -134 -52 -202t-140 -68h-6q-88 0 -140 68t-52 202v34q0 134 52 202t140 68zM256 532h-6q-75 0 -118.5 -59t-43.5 -181v-34q0 -122 43.5 -181t118.5 -59h6q75 0 118.5 59t43.5 181v34q0 122 -43.5 181t-118.5 59zM150 730v20h33
l105 -130l-5 -10h-20z" />
    <glyph glyph-name="Oacute.sc" unicode="&#xf7f3;" horiz-adv-x="506" 
d="M250 562h6q88 0 140 -68t52 -202v-34q0 -134 -52 -202t-140 -68h-6q-88 0 -140 68t-52 202v34q0 134 52 202t140 68zM256 532h-6q-75 0 -118.5 -59t-43.5 -181v-34q0 -122 43.5 -181t118.5 -59h6q75 0 118.5 59t43.5 181v34q0 122 -43.5 181t-118.5 59zM365 750v-20
l-113 -120h-20l-5 10l105 130h33z" />
    <glyph glyph-name="Ocircumflex.sc" unicode="&#xf7f4;" horiz-adv-x="506" 
d="M250 562h6q88 0 140 -68t52 -202v-34q0 -134 -52 -202t-140 -68h-6q-88 0 -140 68t-52 202v34q0 134 52 202t140 68zM256 532h-6q-75 0 -118.5 -59t-43.5 -181v-34q0 -122 43.5 -181t118.5 -59h6q75 0 118.5 59t43.5 181v34q0 122 -43.5 181t-118.5 59zM359 610l-104 105
l-104 -105h-20l-5 10l115 130h28l115 -130l-5 -10h-20z" />
    <glyph glyph-name="Otilde.sc" unicode="&#xf7f5;" horiz-adv-x="506" 
d="M250 562h6q88 0 140 -68t52 -202v-34q0 -134 -52 -202t-140 -68h-6q-88 0 -140 68t-52 202v34q0 134 52 202t140 68zM256 532h-6q-75 0 -118.5 -59t-43.5 -181v-34q0 -122 43.5 -181t118.5 -59h6q75 0 118.5 59t43.5 181v34q0 122 -43.5 181t-118.5 59zM389 727l29 -10
q-18 -56 -41 -80t-57 -24q-24 0 -48 20.5t-45.5 41.5t-38.5 21q-23 0 -37.5 -18t-31.5 -66l-29 10q18 57 41 80.5t57 23.5q24 0 48 -21t45.5 -41.5t38.5 -20.5q25 0 38 17.5t31 66.5z" />
    <glyph glyph-name="Odieresis.sc" unicode="&#xf7f6;" horiz-adv-x="506" 
d="M250 562h6q88 0 140 -68t52 -202v-34q0 -134 -52 -202t-140 -68h-6q-88 0 -140 68t-52 202v34q0 134 52 202t140 68zM256 532h-6q-75 0 -118.5 -59t-43.5 -181v-34q0 -122 43.5 -181t118.5 -59h6q75 0 118.5 59t43.5 181v34q0 122 -43.5 181t-118.5 59zM147 651
q0 33 28 33t28 -33q0 -32 -28 -32t-28 32zM305 651q0 33 28 33t28 -33q0 -32 -28 -32t-28 32z" />
    <glyph glyph-name="AEacute.sc" unicode="&#xf7f7;" horiz-adv-x="579" 
d="M47 0h-32l221 550h304v-30h-240v-220h210v-30h-210v-240h250v-30h-280v160h-159zM240 479l-117 -289h147v330h-14zM480 749v-20l-113 -120h-20l-5 10l105 130h33z" />
    <glyph glyph-name="Oslash.sc" unicode="&#xf7f8;" horiz-adv-x="506" 
d="M250 562h6q72 0 120 -45l37 67l26 -15l-43 -76q52 -71 52 -201v-34q0 -134 -52 -202t-140 -68h-6q-67 0 -112 38l-38 -68l-26 14l42 76q-58 71 -58 210v34q0 134 52 202t140 68zM256 532h-6q-75 0 -118.5 -59t-43.5 -181v-34q0 -120 43 -182l5 8l12 22l213 384
q-41 42 -105 42zM369 443l-217 -390q39 -35 98 -35h6q75 0 118.5 59t43.5 181v34q0 110 -38 172l-2 -5z" />
    <glyph glyph-name="Ugrave.sc" unicode="&#xf7f9;" 
d="M400 550h30v-330q0 -124 -44 -178t-132 -54h-8q-88 0 -132 54t-44 178v330h30v-330q0 -113 37 -157.5t113 -44.5t113 44.5t37 157.5v330zM135 729v20h33l105 -130l-5 -10h-20z" />
    <glyph glyph-name="Uacute.sc" unicode="&#xf7fa;" 
d="M400 550h30v-330q0 -124 -44 -178t-132 -54h-8q-88 0 -132 54t-44 178v330h30v-330q0 -113 37 -157.5t113 -44.5t113 44.5t37 157.5v330zM366 750v-20l-113 -120h-20l-5 10l105 130h33z" />
    <glyph glyph-name="Ucircumflex.sc" unicode="&#xf7fb;" 
d="M400 550h30v-330q0 -124 -44 -178t-132 -54h-8q-88 0 -132 54t-44 178v330h30v-330q0 -113 37 -157.5t113 -44.5t113 44.5t37 157.5v330zM356 610l-104 105l-104 -105h-20l-5 10l115 130h28l115 -130l-5 -10h-20z" />
    <glyph glyph-name="Udieresis.sc" unicode="&#xf7fc;" 
d="M400 550h30v-330q0 -124 -44 -178t-132 -54h-8q-88 0 -132 54t-44 178v330h30v-330q0 -113 37 -157.5t113 -44.5t113 44.5t37 157.5v330zM147 648q0 33 28 33t28 -33q0 -32 -28 -32t-28 32zM305 648q0 33 28 33t28 -33q0 -32 -28 -32t-28 32z" />
    <glyph glyph-name="Yacute.sc" unicode="&#xf7fd;" horiz-adv-x="407" 
d="M189 210l-174 340h34l127 -247l26 -61h4q14 38 26 61l126 247h34l-173 -340v-210h-30v210zM329 750v-20l-113 -120h-20l-5 10l105 130h33z" />
    <glyph glyph-name="Thorn.sc" unicode="&#xf7fe;" horiz-adv-x="405" 
d="M197 420h-92v-290h102q148 0 148 125v20q0 75 -36 110t-122 35zM75 0v550h30v-100h92q98 0 143 -43t45 -132v-20q0 -155 -178 -155h-102v-100h-30z" />
    <glyph glyph-name="Ydieresis.sc" unicode="&#xf7ff;" horiz-adv-x="407" 
d="M189 210l-174 340h34l127 -247l26 -61h4q14 38 26 61l126 247h34l-173 -340v-210h-30v210zM97 650q0 33 28 33t28 -33q0 -32 -28 -32t-28 32zM255 650q0 33 28 33t28 -33q0 -32 -28 -32t-28 32z" />
    <glyph glyph-name="s_t" unicode="&#xfb06;" horiz-adv-x="690" 
d="M415 490v30h80v110q0 46 -27.5 70.5t-73.5 24.5h-8q-50 0 -80.5 -28t-30.5 -72q0 -41 19 -69t39 -37l-2 -24l-8 -5q-57 12 -98 12q-80 0 -114.5 -29t-34.5 -83q0 -41 25.5 -62.5t79.5 -35.5l59 -15q136 -34 136 -139q0 -72 -48 -111t-136 -39q-32 0 -63.5 3t-46.5 7
l-15 3l-2 23l8 7q53 -13 119 -13q154 0 154 119q0 42 -26 69.5t-88 42.5l-57 14q-63 15 -95.5 44t-33.5 83q-2 60 39 101t140 41q20 0 54 -4l1 1q-35 37 -35 96q0 58 38.5 94t102.5 36h8q60 0 95.5 -32.5t35.5 -92.5v-110h140v-30h-140v-375q0 -55 21.5 -76t60.5 -21l51 6
l7 -5v-23q-28 -8 -58 -8q-112 0 -112 127v375h-80z" />
    <glyph glyph-name="c_t" unicode="&#xfb1e;" horiz-adv-x="680" 
d="M405 490v30h80v110q0 47 -21 71t-69 24h-7q-48 0 -75.5 -24.5t-27.5 -70.5q0 -85 66 -111l8 -2l-4 -22l-5 -5q-45 12 -90 12q-43 0 -72.5 -9.5t-54 -34.5t-36.5 -74t-12 -124v-15q0 -73 13.5 -121t40.5 -70t53 -29t63 -7q46 0 103 19l7 -4l4 -22q-49 -23 -114 -23
q-102 0 -151 58t-49 199v15q0 149 50 210.5t155 61.5q12 0 30 -2l1 2q-36 36 -36 98q0 57 36.5 91t96.5 34h7q120 0 120 -125v-110h140v-30h-140v-375q0 -55 21.5 -76t60.5 -21l51 6l7 -5v-23q-28 -8 -58 -8q-112 0 -112 127v375h-80z" />
    <glyph glyph-name="f_t_y" unicode="&#xfb34;" horiz-adv-x="941" 
d="M130 490v-490h-30v490h-80v30h80v60q0 84 27.5 122t102.5 38q15 0 31 -2t25 -4l9 -1l-2 -22l-7 -6q-34 5 -56 5q-61 0 -80.5 -27.5t-19.5 -102.5v-60h220v120h30v-120h185l143 -393l26 -91h4l24 91l128 393h31l-198 -615q-20 -62 -43.5 -89.5t-67.5 -27.5l-38 5l4 23l6 5
q10 -3 28 -3q31 0 47.5 20.5t36.5 81.5l26 80l-178 490h-164v-375q0 -55 21.5 -76t60.5 -21l51 6l7 -5v-23q-28 -8 -58 -8q-112 0 -112 127v375h-220z" />
    <glyph glyph-name="Adblgrave.sc" unicode="&#xfff0;" horiz-adv-x="461" 
d="M48 0h-33l199 550h32l200 -550h-33l-58 160h-250zM220 478l-104 -288h228l-104 288l-9 36h-2q-5 -24 -9 -36zM194 730v20h33l95 -130l-5 -10h-20zM55 730v20h33l95 -130l-5 -10h-20z" />
    <glyph glyph-name="Ainvertedbreve.sc" unicode="&#xfff1;" horiz-adv-x="461" 
d="M48 0h-33l199 550h32l200 -550h-33l-58 160h-250zM220 478l-104 -288h228l-104 288l-9 36h-2q-5 -24 -9 -36zM137 610h-30q0 59 32 94t92 35q59 0 90.5 -35t31.5 -94h-30q0 47 -24.5 73t-67.5 26q-44 0 -69 -26t-25 -73z" />
    <glyph glyph-name="Edblgrave.sc" unicode="&#xfff2;" horiz-adv-x="404" 
d="M75 0v550h290v-30h-260v-220h230v-30h-230v-240h270v-30h-300zM186 729v20h33l95 -130l-5 -10h-20zM47 729v20h33l95 -130l-5 -10h-20z" />
    <glyph glyph-name="Einvertedbreve.sc" unicode="&#xfff3;" horiz-adv-x="404" 
d="M75 0v550h290v-30h-260v-220h230v-30h-230v-240h270v-30h-300zM131 610h-30q0 59 32 94t92 35q59 0 90.5 -35t31.5 -94h-30q0 47 -24.5 73t-67.5 26q-44 0 -69 -26t-25 -73z" />
    <glyph glyph-name="Idblgrave.sc" unicode="&#xfff4;" horiz-adv-x="180" 
d="M75 0v550h30v-550h-30zM45 730v20h33l95 -130l-5 -10h-20zM-94 730v20h33l95 -130l-5 -10h-20z" />
    <glyph glyph-name="Iinvertedbreve.sc" unicode="&#xfff5;" horiz-adv-x="180" 
d="M75 0v550h30v-550h-30zM-3 610h-30q0 59 32 94t92 35q59 0 90.5 -35t31.5 -94h-30q0 47 -24.5 73t-67.5 26q-44 0 -69 -26t-25 -73z" />
    <glyph glyph-name="Odblgrave.sc" unicode="&#xfff6;" horiz-adv-x="506" 
d="M250 562h6q88 0 140 -68t52 -202v-34q0 -134 -52 -202t-140 -68h-6q-88 0 -140 68t-52 202v34q0 134 52 202t140 68zM256 532h-6q-75 0 -118.5 -59t-43.5 -181v-34q0 -122 43.5 -181t118.5 -59h6q75 0 118.5 59t43.5 181v34q0 122 -43.5 181t-118.5 59zM214 730v20h33
l95 -130l-5 -10h-20zM75 730v20h33l95 -130l-5 -10h-20z" />
    <glyph glyph-name="Oinvertedbreve.sc" unicode="&#xfff7;" horiz-adv-x="506" 
d="M250 562h6q88 0 140 -68t52 -202v-34q0 -134 -52 -202t-140 -68h-6q-88 0 -140 68t-52 202v34q0 134 52 202t140 68zM256 532h-6q-75 0 -118.5 -59t-43.5 -181v-34q0 -122 43.5 -181t118.5 -59h6q75 0 118.5 59t43.5 181v34q0 122 -43.5 181t-118.5 59zM160 609h-30
q0 59 32 94t92 35q59 0 90.5 -35t31.5 -94h-30q0 47 -24.5 73t-67.5 26q-44 0 -69 -26t-25 -73z" />
    <glyph glyph-name="Rdblgrave.sc" unicode="&#xfff8;" horiz-adv-x="430" 
d="M215 225h-110v-225h-30v550h132q198 0 198 -158v-9q0 -133 -128 -154v-2q4 -3 15 -19l123 -208h-35l-120 203q-13 22 -45 22zM207 520h-102v-265h122q148 0 148 128v9q0 66 -40.5 97t-127.5 31zM175 729v20h33l95 -130l-5 -10h-20zM36 729v20h33l95 -130l-5 -10h-20z" />
    <glyph glyph-name="Rinvertedbreve.sc" unicode="&#xfff9;" horiz-adv-x="430" 
d="M215 225h-110v-225h-30v550h132q198 0 198 -158v-9q0 -133 -128 -154v-2q4 -3 15 -19l123 -208h-35l-120 203q-13 22 -45 22zM207 520h-102v-265h122q148 0 148 128v9q0 66 -40.5 97t-127.5 31zM115 609h-30q0 59 32 94t92 35q59 0 90.5 -35t31.5 -94h-30q0 47 -24.5 73
t-67.5 26q-44 0 -69 -26t-25 -73z" />
    <glyph glyph-name="Udblgrave.sc" unicode="&#xfffa;" 
d="M400 550h30v-330q0 -124 -44 -178t-132 -54h-8q-88 0 -132 54t-44 178v330h30v-330q0 -113 37 -157.5t113 -44.5t113 44.5t37 157.5v330zM214 729v20h33l95 -130l-5 -10h-20zM75 729v20h33l95 -130l-5 -10h-20z" />
    <glyph glyph-name="Uinvertedbreve.sc" unicode="&#xfffb;" 
d="M400 550h30v-330q0 -124 -44 -178t-132 -54h-8q-88 0 -132 54t-44 178v330h30v-330q0 -113 37 -157.5t113 -44.5t113 44.5t37 157.5v330zM157 610h-30q0 59 32 94t92 35q59 0 90.5 -35t31.5 -94h-30q0 47 -24.5 73t-67.5 26q-44 0 -69 -26t-25 -73z" />
    </font>
</defs>
</svg>
