<svg width="313" height="35" viewBox="0 0 313 35" fill="none" xmlns="http://www.w3.org/2000/svg">
<g clip-path="url(#clip0)">
<path d="M306.029 11.5417C304.878 11.5433 303.752 11.213 302.794 10.5925C301.836 9.97208 301.089 9.08942 300.647 8.05622C300.206 7.02301 300.089 5.88571 300.313 4.78819C300.537 3.69068 301.09 2.68229 301.904 1.89061C302.717 1.09893 303.754 0.559541 304.883 0.340692C306.012 0.121843 307.182 0.233369 308.246 0.661158C309.31 1.08895 310.219 1.81378 310.859 2.74393C311.499 3.67408 311.84 4.76776 311.84 5.88658C311.839 7.38644 311.225 8.82443 310.133 9.88475C309.042 10.9451 307.562 11.541 306.018 11.5417H306.029ZM306.018 1.52079C305.13 1.52079 304.261 1.77684 303.523 2.25656C302.784 2.73628 302.208 3.41812 301.868 4.21587C301.528 5.01361 301.439 5.89142 301.612 6.7383C301.786 7.58518 302.214 8.36309 302.842 8.97366C303.47 9.58422 304.271 10 305.142 10.1685C306.013 10.3369 306.917 10.2505 307.738 9.92004C308.558 9.5896 309.26 9.03003 309.754 8.31208C310.247 7.59413 310.511 6.75005 310.511 5.88658C310.512 4.72913 310.041 3.61837 309.201 2.79794C308.361 1.97751 307.22 1.51441 306.029 1.5102" fill="black"/>
<path d="M308.029 2.92188V4.89164H306.729V6.64431C306.729 7.13675 306.904 7.34061 307.361 7.34061C307.531 7.33964 307.7 7.31921 307.865 7.27972L308.029 7.36444V9.05622C307.608 9.23606 307.153 9.32634 306.694 9.32097C304.629 9.32097 304.261 8.42081 304.261 6.7158V4.89164H303.58V2.92188H308.029Z" fill="black"/>
<path d="M14.198 22.9932C14.198 23.43 14.3179 23.7504 14.8572 23.8377L15.5165 23.9542L15.7562 24.5076C15.4566 26.0193 15.067 27.5337 15.067 27.5337C14.6535 27.9311 14.1623 28.244 13.6224 28.4541C13.0824 28.6642 12.5047 28.7671 11.9232 28.7569C10.4249 28.7569 9.37609 28.1744 8.74679 27.3298H8.50706C8.08686 27.7814 7.57348 28.1419 7.00036 28.3878C6.42724 28.6336 5.80724 28.7594 5.18077 28.7569C2.00704 28.7569 0.119141 26.3132 0.119141 21.3438V20.6342C0.119141 14.8705 2.57095 12.9193 6.2296 12.9193C6.89338 12.909 7.5564 12.9676 8.20739 13.094V8.0293H14.2007L14.198 22.9932ZM6.10973 20.8381C6.10973 23.6921 6.55923 24.2799 7.42826 24.2799C7.70868 24.2658 7.97907 24.174 8.20739 24.0151V17.7802C7.96165 17.7249 7.71046 17.6956 7.45823 17.6928C6.55923 17.6928 6.10973 18.2461 6.10973 20.6342V20.8381Z" fill="#005971"/>
<path d="M19.4734 6.98047C21.3804 6.98047 22.8297 7.77473 22.8297 9.54064C22.8297 11.3065 21.3913 12.1008 19.4734 12.1008C17.5556 12.1008 16.1172 11.3436 16.1172 9.53799C16.1172 7.73237 17.5256 6.98047 19.4734 6.98047ZM16.4768 28.407V13.2684H22.4701V28.407H16.4768Z" fill="#005971"/>
<path d="M25.2224 28.4633V28.3177C24.8513 28.1059 24.5484 27.7977 24.3477 27.4277C24.147 27.0578 24.0565 26.6407 24.0864 26.2235C24.0864 24.7965 24.8328 23.8063 26.0315 22.554C24.446 21.7095 23.3672 20.436 23.3672 18.2438C23.3672 14.8973 25.9416 12.917 30.017 12.917H30.4665C32.5942 12.917 34.3595 13.5577 35.4682 14.6061H35.5282C35.828 14.1897 36.2273 13.8503 36.6919 13.617C37.1564 13.3836 37.6723 13.2633 38.1952 13.2665H38.9444V17.8361L38.3995 18.1565C38.0967 18.0771 37.7842 18.0379 37.4705 18.04H37.1109V18.2438C37.1109 21.5638 34.9316 23.4568 30.521 23.4568C29.682 23.4568 29.0826 23.4277 29.0826 23.4277C29.024 23.6166 28.9937 23.8128 28.9927 24.0102C28.9927 24.4179 29.1725 24.6218 29.682 24.6218H32.951C36.7241 24.6218 38.5221 26.6604 38.5221 29.0749V29.5726C38.5221 32.1937 36.844 34.5791 31.9839 34.5791H29.6765C25.7945 34.5765 23.3972 33.356 23.3972 31.1612V31.0156C23.3972 29.6865 24.2662 28.9002 25.2224 28.4633ZM31.1558 17.6587C31.1558 16.8645 30.946 16.5256 30.2568 16.5256C29.5675 16.5256 29.3578 16.8724 29.3578 17.6587V18.7177C29.3578 19.512 29.5675 19.8535 30.2568 19.8535C30.946 19.8535 31.1558 19.5041 31.1558 18.7177V17.6587ZM29.3578 28.9266V30.1022C29.3578 30.8964 29.8372 31.4418 30.9923 31.4418C32.1474 31.4418 32.5206 30.9758 32.5206 30.1604V30.0148C32.5206 29.1993 31.9758 28.9372 31.292 28.9372L29.3578 28.9266Z" fill="#005971"/>
<path d="M42.7814 6.98047C44.6884 6.98047 46.1377 7.77473 46.1377 9.54064C46.1377 11.3065 44.6993 12.1008 42.7814 12.1008C40.8636 12.1008 39.417 11.3463 39.417 9.54064C39.417 7.73502 40.8336 6.98047 42.7814 6.98047ZM39.7848 28.407V13.2684H45.7781V28.407H39.7848Z" fill="#005971"/>
<path d="M54.2538 13.2666H57.3948V18.0322H54.2538V22.2921C54.2538 23.4861 54.6733 23.9812 55.7794 23.9812C56.1933 23.9785 56.6055 23.9296 57.008 23.8356L57.3975 24.0394V28.1431C56.3765 28.5677 55.2742 28.7762 54.1639 28.7547C49.1595 28.7547 48.2605 26.5705 48.2605 22.4377V18.0401H46.6123V13.2745H48.2605" fill="#005971"/>
<path d="M63.9041 12.9177C69.5052 12.9177 71.6628 14.8106 71.6628 18.7422V22.9915C71.6628 23.341 71.7227 23.7196 72.322 23.8361L72.9813 23.9526L73.221 24.5059C73.0712 25.4087 72.5318 27.5321 72.5318 27.5321C72.1084 27.9336 71.6065 28.2487 71.0558 28.4587C70.5052 28.6688 69.9168 28.7696 69.3254 28.7552C68.7264 28.7764 68.1309 28.6579 67.5887 28.4097C67.0465 28.1614 66.5734 27.7906 66.2088 27.3282H65.9691C65.1328 28.1728 64.1439 28.7552 62.4058 28.7552C59.6816 28.7552 57.8809 26.9496 57.8809 24.3312V23.7487C57.8809 20.9529 59.9186 19.4677 62.5556 19.2056L65.6694 18.8852V18.7978C65.6694 18.0698 65.2826 17.6912 63.155 17.6912C61.9441 17.6913 60.7374 17.8281 59.559 18.0989L59.0141 17.7494C59.1531 16.2548 59.3732 14.7683 59.6734 13.2963C61.0672 13.0334 62.4844 12.9066 63.9041 12.9177ZM65.6694 24.0135V21.7101L64.5634 22.0596C64.054 22.2052 63.8742 22.7003 63.8742 23.1663V23.574C63.8742 24.0691 64.1466 24.3894 64.5934 24.3894C64.9788 24.3537 65.3488 24.2245 65.6694 24.0135Z" fill="#005971"/>
<path d="M73.9414 8.0293H79.9347V22.5272C79.9347 23.5862 80.3543 23.9833 81.1634 23.9833C81.395 23.9703 81.6253 23.9411 81.8526 23.896L82.422 24.3328V28.0579C82.422 28.0579 81.2533 28.7569 79.1529 28.7569C75.7094 28.7569 73.9414 26.9804 73.9414 23.4618V8.0293Z" fill="#005971"/>
<path d="M89.0968 28.4062H83.1035V13.2675H86.6096L88.315 14.9858C89.154 13.9956 90.2928 12.9181 92.5103 12.9181C93.2276 12.8958 93.9386 13.0549 94.5737 13.3797C95.2088 13.7046 95.7463 14.1841 96.1335 14.7713C96.9508 13.8685 98.0814 12.9181 100.149 12.9181C102.786 12.9181 104.374 14.7237 104.374 17.1965V28.4062H98.381V18.3614C98.381 18.0702 98.2612 17.6916 97.6019 17.6916C97.3038 17.6991 97.0096 17.7583 96.7329 17.8663V28.4062H90.7396V18.3614C90.7396 18.0702 90.6197 17.6916 89.9604 17.6916C89.6624 17.6991 89.3681 17.7583 89.0914 17.8663L89.0968 28.4062Z" fill="#005971"/>
<path d="M111.206 12.9177C116.81 12.9177 118.965 14.8106 118.965 18.7422V22.9915C118.965 23.341 119.025 23.7196 119.624 23.8361L120.283 23.9526L120.523 24.5059C120.373 25.4087 119.834 27.532 119.834 27.532C119.411 27.9334 118.91 28.2483 118.359 28.4584C117.809 28.6685 117.221 28.7694 116.63 28.7552C116.032 28.776 115.437 28.6573 114.895 28.409C114.353 28.1608 113.881 27.7902 113.516 27.3282H113.277C112.438 28.1728 111.449 28.7552 109.713 28.7552C106.989 28.7552 105.188 26.9496 105.188 24.3312V23.7487C105.188 20.9529 107.226 19.4677 109.863 19.2055L112.972 18.8852V18.7978C112.972 18.0698 112.582 17.6912 110.454 17.6912C109.244 17.6914 108.039 17.8282 106.861 18.0989L106.316 17.7494C106.456 16.2547 106.677 14.7683 106.978 13.2962C108.371 13.0335 109.788 12.9067 111.206 12.9177ZM112.972 24.0135V21.7101L111.863 22.0596C111.353 22.2052 111.174 22.7003 111.174 23.1663V23.574C111.174 24.0691 111.446 24.3894 111.893 24.3894C112.279 24.3536 112.65 24.2244 112.972 24.0135Z" fill="#005971"/>
<path d="M121.245 28.4051V13.2665H124.751L126.339 14.8973H126.399C126.999 13.9945 127.838 12.917 129.873 12.917C130.154 12.9179 130.434 12.9374 130.712 12.9752L130.322 18.2703L129.663 18.5907C129.265 18.4782 128.852 18.4194 128.437 18.4159C128.024 18.394 127.611 18.4741 127.238 18.6489V28.4024L121.245 28.4051Z" fill="#005971"/>
<path d="M131.275 28.4065V8.02051H137.269V18.7986H137.508L139.576 13.2679H145.687L142.75 20.2257L145.986 28.4065H139.636L137.457 22.8758H137.277V28.4065H131.275Z" fill="#005971"/>
<path d="M151.771 22.2937V22.585C151.771 23.3792 152.044 23.9829 153.951 23.9829C155.231 23.9375 156.5 23.732 157.726 23.3713L158.146 23.6043C158.146 23.6043 158.326 25.4972 158.356 27.6788C158.356 27.6788 156.468 28.7564 153.112 28.7564C148.529 28.7564 145.772 26.4265 145.772 21.2744V20.2154C145.772 15.4128 148.739 12.9082 152.485 12.9082H153.172C156.917 12.9082 158.892 14.8886 158.892 19.1087V19.6038C158.859 20.5015 158.768 21.3964 158.62 22.2831L151.771 22.2937ZM151.771 19.4397H153.561V17.7797C153.561 17.1098 153.321 16.8186 152.782 16.8186C152.243 16.8186 151.766 17.2263 151.766 18.1424L151.771 19.4397Z" fill="#005971"/>
<path d="M167.109 13.2666H170.256V18.0322H167.109V22.2921C167.109 23.4861 167.529 23.9812 168.638 23.9812C169.052 23.9785 169.464 23.9296 169.866 23.8356L170.256 24.0394V28.1431C169.234 28.5678 168.131 28.7763 167.02 28.7547C162.018 28.7547 161.119 26.5705 161.119 22.4377V18.0401H159.484V13.2745H161.119" fill="#005971"/>
<path d="M174.087 6.98047C175.994 6.98047 177.443 7.77473 177.443 9.54064C177.443 11.3065 176.005 12.1008 174.087 12.1008C172.169 12.1008 170.723 11.3463 170.723 9.54064C170.723 7.73502 172.142 6.98047 174.087 6.98047ZM171.09 28.407V13.2684H177.084V28.407H171.09Z" fill="#005971"/>
<path d="M178.254 28.4051V13.2665H181.76L183.495 14.9556C184.424 13.9654 185.833 12.917 187.93 12.917C190.448 12.917 192.033 14.6061 192.033 17.0789V28.4051H186.04V18.3444C186.04 17.9658 185.83 17.7037 185.291 17.7037C184.922 17.7203 184.563 17.8201 184.242 17.995V28.4183L178.254 28.4051Z" fill="#005971"/>
<path d="M194.759 28.4633V28.3177C194.388 28.1059 194.086 27.7977 193.885 27.4277C193.684 27.0578 193.594 26.6407 193.623 26.2235C193.623 24.7965 194.37 23.8063 195.569 22.554C193.983 21.7095 192.904 20.436 192.904 18.2438C192.904 14.8973 195.479 12.917 199.554 12.917H200.004C202.131 12.917 203.897 13.5577 205.005 14.6061H205.065C205.365 14.1897 205.764 13.8503 206.229 13.617C206.693 13.3836 207.209 13.2633 207.732 13.2665H208.481V17.8361L207.937 18.1565C207.634 18.0771 207.321 18.0379 207.008 18.04H206.648V18.2438C206.648 21.5638 204.469 23.4568 200.058 23.4568C199.219 23.4568 198.62 23.4277 198.62 23.4277C198.561 23.6166 198.531 23.8128 198.53 24.0102C198.53 24.4179 198.71 24.6218 199.219 24.6218H202.488C206.261 24.6218 208.059 26.6604 208.059 29.0749V29.5726C208.059 32.1937 206.381 34.5791 201.521 34.5791H199.214C195.318 34.5791 192.923 33.3586 192.923 31.1744V31.0288C192.934 29.6865 193.803 28.9002 194.759 28.4633ZM200.69 17.6587C200.69 16.8645 200.48 16.5256 199.791 16.5256C199.102 16.5256 198.892 16.8724 198.892 17.6587V18.7177C198.892 19.512 199.102 19.8535 199.791 19.8535C200.48 19.8535 200.69 19.4961 200.69 18.7177V17.6587ZM198.892 28.9266V30.1022C198.892 30.8964 199.372 31.4418 200.54 31.4418C201.709 31.4418 202.069 30.9758 202.069 30.1604V30.0148C202.069 29.1993 201.524 28.9372 200.84 28.9372L198.892 28.9266Z" fill="#005971"/>
<path d="M208.997 34.227V13.2665H212.5L214.089 14.8682C214.529 14.2699 215.109 13.7813 215.781 13.4422C216.453 13.1031 217.197 12.9231 217.954 12.917C221.158 12.917 223.076 14.9847 223.076 20.6319V21.4262C223.076 26.61 221.098 28.7625 218.194 28.7625C217.072 28.7697 215.975 28.4446 215.048 27.8306H214.988V34.235L208.997 34.227ZM217.085 20.6319C217.085 18.3312 216.726 17.6905 215.737 17.6905C215.484 17.6904 215.233 17.7198 214.988 17.7779V24.1849C215.203 24.2418 215.424 24.2711 215.647 24.2723C216.516 24.2723 217.085 24.0684 217.085 20.7775V20.6319Z" fill="black"/>
<path d="M229.637 12.9177C235.238 12.9177 237.395 14.8106 237.395 18.7422V22.9915C237.395 23.341 237.455 23.7196 238.055 23.8361L238.711 23.9526L238.951 24.5059C238.804 25.4087 238.264 27.5321 238.264 27.5321C237.841 27.9336 237.339 28.2487 236.788 28.4587C236.238 28.6688 235.649 28.7696 235.058 28.7552C234.459 28.7764 233.863 28.6579 233.321 28.4097C232.779 28.1614 232.306 27.7906 231.941 27.3282H231.702C230.863 28.1728 229.874 28.7552 228.138 28.7552C225.414 28.7552 223.613 26.9496 223.613 24.3312V23.7487C223.613 20.9529 225.651 19.4677 228.288 19.2056L231.402 18.8852V18.7978C231.402 18.0698 231.012 17.6912 228.887 17.6912C227.677 17.6913 226.47 17.8281 225.291 18.0989L224.747 17.7494C224.886 16.2548 225.106 14.7683 225.406 13.2963C226.8 13.0334 228.217 12.9066 229.637 12.9177ZM231.402 24.0135V21.7101L230.293 22.0596C229.786 22.2052 229.607 22.7003 229.607 23.1663V23.574C229.607 24.0691 229.879 24.3894 230.323 24.3894C230.709 24.3536 231.08 24.2244 231.402 24.0135Z" fill="black"/>
<path d="M239.676 28.4051V13.2665H243.193L244.781 14.8973H244.827C245.427 13.9945 246.266 12.917 248.303 12.917C248.584 12.9179 248.864 12.9374 249.142 12.9752L248.753 18.2703L248.096 18.5933C247.697 18.481 247.284 18.4222 246.868 18.4186C246.454 18.3966 246.042 18.4768 245.669 18.6516V28.4051H239.676Z" fill="black"/>
<path d="M257.556 13.2666H260.702V18.0322H257.556V22.2921C257.556 23.4861 257.975 23.9812 259.084 23.9812C259.498 23.9785 259.91 23.9296 260.313 23.8356L260.702 24.0394V28.1431C259.68 28.5678 258.577 28.7763 257.466 28.7547C252.461 28.7547 251.562 26.5705 251.562 22.4377V18.0401H249.928V13.2745H251.562" fill="black"/>
<path d="M261.539 28.4051V13.2665H265.045L266.783 14.9556C267.712 13.9654 269.121 12.917 271.216 12.917C273.733 12.917 275.321 14.6061 275.321 17.0789V28.4051H269.341V18.3444C269.341 17.9658 269.132 17.7037 268.592 17.7037C268.224 17.7203 267.865 17.8201 267.543 17.995V28.4183L261.539 28.4051Z" fill="black"/>
<path d="M282.213 22.2937V22.585C282.213 23.3792 282.485 23.9829 284.392 23.9829C285.672 23.9375 286.942 23.732 288.168 23.3713L288.587 23.6043C288.587 23.6043 288.767 25.4972 288.797 27.6788C288.797 27.6788 286.909 28.7564 283.553 28.7564C278.971 28.7564 276.214 26.4265 276.214 21.2744V20.2154C276.214 15.4128 279.181 12.9082 282.926 12.9082H283.613C287.359 12.9082 289.334 14.8886 289.334 19.1087V19.6038C289.3 20.5015 289.209 21.3964 289.061 22.2831L282.213 22.2937ZM282.213 19.4397H284.008V17.7797C284.008 17.1098 283.768 16.8186 283.229 16.8186C282.689 16.8186 282.213 17.2263 282.213 18.1424V19.4397Z" fill="black"/>
<path d="M290.245 28.4051V13.2665H293.751L295.337 14.8973H295.397C295.996 13.9945 296.835 12.917 298.873 12.917C299.153 12.9179 299.434 12.9374 299.712 12.9752L299.322 18.2703L298.663 18.5907C298.264 18.4784 297.85 18.4196 297.434 18.4159C297.021 18.394 296.609 18.4741 296.236 18.6489V28.4024L290.245 28.4051Z" fill="black"/>
</g>
<defs>
<clipPath id="clip0">
<rect width="311.993" height="34.5238" fill="white" transform="translate(0.111328 0.231445)"/>
</clipPath>
</defs>
</svg>
