<svg width="30" height="27" viewBox="0 0 30 27" fill="none" xmlns="http://www.w3.org/2000/svg">
<path d="M29.8242 12.2266L26.25 9.29688V4.72656C26.25 4.55078 26.0742 4.375 25.8984 4.375H24.7266C24.4922 4.375 24.375 4.55078 24.375 4.72656V7.77344L16.1719 1.09375C15.8789 0.859375 15.3516 0.683594 15 0.683594C14.5898 0.683594 14.0625 0.859375 13.7695 1.09375L0.175781 12.2266C0.0585937 12.2852 0 12.4609 0 12.5781C0 12.6367 0 12.8125 0.0585937 12.8711L0.644531 13.5742C0.761719 13.6914 0.9375 13.75 1.05469 13.75C1.11328 13.75 1.23047 13.6914 1.34766 13.6328L3.75 11.6992L3.75 25.9375C3.75 26.4648 4.16016 26.875 4.6875 26.875L12.1875 26.875C12.6562 26.875 13.125 26.4648 13.125 25.9375V18.4375H16.875V25.9375C16.875 26.4648 17.2852 26.875 17.8125 26.875H25.3125C25.7812 26.875 26.25 26.4648 26.25 25.9375V11.6992L28.5937 13.6328C28.7109 13.6914 28.8281 13.75 28.8867 13.75C29.0625 13.75 29.1797 13.6914 29.2969 13.5742L29.8828 12.8711C29.9414 12.8125 29.9414 12.6367 29.9414 12.5781C29.9414 12.4609 29.8828 12.2852 29.8242 12.2266ZM24.3164 25L18.6914 25.0586V17.5C18.6914 17.0313 18.2812 16.5625 17.8125 16.5625H12.1875H12.1289C11.6602 16.5625 11.1914 16.9727 11.1914 17.5V25L5.625 25L5.625 10.1758L15 2.5L24.375 10.1758L24.3164 25Z" fill="url(#paint0_linear)"/>
<defs>
<linearGradient id="paint0_linear" x1="-1.98536" y1="14.005" x2="32.0057" y2="14.005" gradientUnits="userSpaceOnUse">
<stop stop-color="#00CE7C"/>
<stop offset="0.317708" stop-color="#5CC3B0"/>
<stop offset="0.71875" stop-color="#00A1DE"/>
<stop offset="1" stop-color="#005971"/>
</linearGradient>
</defs>
</svg>