<svg width="30" height="37" viewBox="0 0 30 37" fill="none" xmlns="http://www.w3.org/2000/svg">
<rect width="30" height="3" fill="url(#paint0_linear)"/>
<rect y="8" width="30" height="3" fill="url(#paint1_linear)"/>
<rect x="10" y="16" width="20" height="3" fill="url(#paint2_linear)"/>
<path d="M2.29649 34H0.996492V27.24H1.77649L2.14049 28.02C2.79916 27.396 3.46649 27.084 4.14249 27.084C4.87916 27.084 5.39483 27.4047 5.68949 28.046C6.33083 27.4047 7.01116 27.084 7.73049 27.084C8.25916 27.084 8.67516 27.2487 8.97849 27.578C9.29049 27.9073 9.44649 28.3667 9.44649 28.956V34H8.14649V29.177C8.14649 28.8563 8.06416 28.6137 7.89949 28.449C7.73483 28.2757 7.52249 28.189 7.26249 28.189C6.77716 28.189 6.30483 28.3927 5.84549 28.8C5.86283 28.9473 5.87149 29.1553 5.87149 29.424V34H4.57149V29.177C4.57149 28.5183 4.27683 28.189 3.68749 28.189C3.20216 28.189 2.73849 28.384 2.29649 28.774V34ZM15.6429 31.075H11.9769C11.9769 31.777 12.1113 32.284 12.3799 32.596C12.6573 32.8993 13.1079 33.051 13.7319 33.051C13.8706 33.051 14.0136 33.0423 14.1609 33.025C14.3083 32.999 14.4426 32.973 14.5639 32.947C14.6939 32.9123 14.8023 32.882 14.8889 32.856C14.9843 32.8213 15.0666 32.791 15.1359 32.765C15.2139 32.739 15.2573 32.726 15.2659 32.726L15.4089 32.804C15.4089 32.8127 15.4133 32.8647 15.4219 32.96C15.4393 33.0467 15.4566 33.1637 15.4739 33.311C15.4913 33.4497 15.5043 33.5753 15.5129 33.688C15.4609 33.7227 15.3699 33.7703 15.2399 33.831C15.1186 33.883 14.8846 33.948 14.5379 34.026C14.1999 34.1127 13.8489 34.156 13.4849 34.156C11.6129 34.156 10.6769 33.0423 10.6769 30.815V30.36C10.6769 29.346 10.9196 28.5487 11.4049 27.968C11.8989 27.3787 12.5446 27.084 13.3419 27.084H13.4069C14.1436 27.084 14.7156 27.3137 15.1229 27.773C15.5389 28.2237 15.7469 28.891 15.7469 29.775V29.983L15.6429 31.075ZM11.9769 29.853V30.1H14.5119V29.645C14.5119 28.6743 14.1349 28.189 13.3809 28.189H13.3159C12.9346 28.189 12.6139 28.3277 12.3539 28.605C12.1026 28.8823 11.9769 29.2983 11.9769 29.853ZM18.318 34H17.018V27.24H17.798L18.175 28.033C18.8596 27.4003 19.592 27.084 20.372 27.084C20.944 27.084 21.3946 27.266 21.724 27.63C22.0533 27.994 22.218 28.4793 22.218 29.086V34H20.918V29.307C20.918 28.5617 20.58 28.189 19.904 28.189C19.3406 28.189 18.812 28.3927 18.318 28.8V34ZM23.7084 27.24H25.0084V31.725C25.0084 32.609 25.3551 33.051 26.0484 33.051C26.6377 33.051 27.1577 32.752 27.6084 32.154V27.24H28.9084V32.232C28.9084 32.5007 28.9517 32.6957 29.0384 32.817C29.1251 32.9383 29.2637 33.0163 29.4544 33.051L29.6884 33.09L29.7534 33.22L29.5844 33.922C29.4371 34.078 29.2117 34.156 28.9084 34.156C28.2497 34.156 27.8424 33.7963 27.6864 33.077H27.6474C27.1534 33.7963 26.4904 34.156 25.6584 34.156C25.0171 34.156 24.5317 33.9523 24.2024 33.545C23.8731 33.1377 23.7084 32.5657 23.7084 31.829V27.24Z" fill="url(#paint3_linear)"/>
<defs>
<linearGradient id="paint0_linear" x1="0.0129172" y1="1.5005" x2="30.005" y2="1.5005" gradientUnits="userSpaceOnUse">
<stop stop-color="#00CE7C"/>
<stop offset="0.317708" stop-color="#5CC3B0"/>
<stop offset="0.71875" stop-color="#00A1DE"/>
<stop offset="1" stop-color="#005971"/>
</linearGradient>
<linearGradient id="paint1_linear" x1="0.0129172" y1="9.5005" x2="30.005" y2="9.5005" gradientUnits="userSpaceOnUse">
<stop stop-color="#00CE7C"/>
<stop offset="0.317708" stop-color="#5CC3B0"/>
<stop offset="0.71875" stop-color="#00A1DE"/>
<stop offset="1" stop-color="#005971"/>
</linearGradient>
<linearGradient id="paint2_linear" x1="10.0086" y1="17.5005" x2="30.0034" y2="17.5005" gradientUnits="userSpaceOnUse">
<stop stop-color="#00CE7C"/>
<stop offset="0.317708" stop-color="#5CC3B0"/>
<stop offset="0.71875" stop-color="#00A1DE"/>
<stop offset="1" stop-color="#005971"/>
</linearGradient>
<linearGradient id="paint3_linear" x1="0.0129172" y1="30.5022" x2="30.005" y2="30.5022" gradientUnits="userSpaceOnUse">
<stop stop-color="#00CE7C"/>
<stop offset="0.317708" stop-color="#5CC3B0"/>
<stop offset="0.71875" stop-color="#00A1DE"/>
<stop offset="1" stop-color="#005971"/>
</linearGradient>
</defs>
</svg>
