<svg width="473" height="888" viewBox="0 0 473 888" fill="none" xmlns="http://www.w3.org/2000/svg">
<path d="M323.04 825.53C235.7 825.53 153.49 787.16 97.49 720.25C47.11 660.05 23.19 583.83 30.13 505.63C37.08 427.43 74.05 356.62 134.25 306.24C187.05 262.06 253.99 237.72 322.72 237.72C410.06 237.72 492.27 276.1 548.26 343C598.64 403.2 622.56 479.42 615.61 557.62C608.66 635.82 571.68 706.63 511.48 757.01C458.71 801.2 391.78 825.53 323.04 825.53ZM322.74 239.72C254.47 239.72 187.99 263.89 135.55 307.77C75.76 357.81 39.03 428.14 32.13 505.8C25.23 583.47 48.99 659.17 99.03 718.96C154.64 785.41 236.29 823.53 323.04 823.53C391.31 823.53 457.78 799.36 510.22 755.48C570.01 705.44 606.74 635.11 613.64 557.44C620.54 479.77 596.78 404.07 546.75 344.28C491.14 277.84 409.49 239.72 322.74 239.72Z" fill="url(#paint0_linear)"/>
<path d="M312.149 807.88C263.119 807.88 214.439 795.53 171.379 772.15C126.979 748.05 89.2987 712.5 62.4187 669.36C20.9087 602.73 7.8187 523.93 25.5787 447.46C43.3387 371 89.8187 306.02 156.439 264.5C203.159 235.39 256.809 220.01 311.589 220.01C360.629 220.01 409.299 232.36 452.359 255.74C496.759 279.84 534.439 315.39 561.319 358.53C602.829 425.15 615.919 503.96 598.159 580.43C580.399 656.9 533.919 721.88 467.289 763.39C420.569 792.5 366.929 807.88 312.149 807.88ZM311.589 222.01C257.189 222.01 203.899 237.29 157.499 266.2C91.3287 307.43 45.1687 371.97 27.5287 447.92C9.8887 523.87 22.8887 602.14 64.1187 668.31C90.8187 711.16 128.239 746.46 172.329 770.4C215.099 793.61 263.439 805.89 312.139 805.89C366.539 805.89 419.819 790.61 466.219 761.7C532.399 720.47 578.559 655.93 596.199 579.98C613.839 504.03 600.849 425.76 559.619 359.59C532.919 316.74 495.499 281.44 451.409 257.5C408.639 234.28 360.289 222.01 311.589 222.01Z" fill="url(#paint1_linear)"/>
<path d="M303.58 788.87C187.4 788.87 81.8797 720.27 34.7697 614.1C2.92966 542.35 0.939663 462.48 29.1697 389.23C57.3997 315.98 112.46 258.1 184.21 226.25C222.09 209.44 262.14 200.92 303.25 200.92C419.44 200.92 524.96 269.52 572.07 375.69C603.91 447.44 605.9 527.3 577.67 600.56C549.44 673.82 494.38 731.7 422.62 763.53C384.74 780.35 344.69 788.87 303.58 788.87ZM303.25 202.93C262.42 202.93 222.65 211.39 185.02 228.09C113.75 259.71 59.0697 317.2 31.0297 389.96C2.99966 462.71 4.97966 542.03 36.5997 613.29C83.3897 718.74 188.19 786.87 303.58 786.87C344.41 786.87 384.18 778.41 421.8 761.71C493.07 730.09 547.76 672.6 575.8 599.84C603.84 527.08 601.86 447.76 570.24 376.5C523.45 271.06 418.65 202.93 303.25 202.93Z" fill="url(#paint2_linear)"/>
<path d="M297.55 768.84C234.96 768.84 172.67 748.16 122.16 710.61C70 671.82 32.97 618.2 15.08 555.53C-6.45999 480.04 2.68001 400.68 40.82 332.07C78.97 263.46 141.54 213.8 217.03 192.25C243.44 184.71 270.63 180.89 297.83 180.89C360.43 180.89 422.72 201.57 473.23 239.12C525.4 277.9 562.43 331.53 580.31 394.2C601.85 469.68 592.71 549.04 554.57 617.66C516.42 686.28 453.84 735.93 378.35 757.47C351.95 765.02 324.76 768.84 297.55 768.84ZM297.83 182.89C270.81 182.89 243.81 186.69 217.58 194.17C142.61 215.57 80.46 264.89 42.57 333.03C4.69001 401.18 -4.38999 480 17 554.98C34.77 617.22 71.54 670.48 123.35 709C173.52 746.3 235.38 766.84 297.55 766.84C324.57 766.84 351.57 763.04 377.8 755.56C452.78 734.16 514.93 684.85 552.82 616.7C590.71 548.55 599.79 469.73 578.39 394.76C560.63 332.51 523.85 279.25 472.04 240.73C421.88 203.43 360.01 182.89 297.83 182.89Z" fill="url(#paint3_linear)"/>
<path d="M294.45 748.16C224.21 748.16 156.09 722.74 102.65 676.6C48.7095 630.02 13.5795 565.45 3.72952 494.78C-7.10048 417.03 12.9995 339.71 60.3195 277.07C107.64 214.43 176.52 173.97 254.27 163.13C267.83 161.24 281.59 160.28 295.18 160.28C365.43 160.28 433.549 185.7 487 231.84C540.95 278.42 576.079 342.99 585.919 413.66C596.76 491.41 576.66 568.72 529.33 631.36C482 694 413.12 734.46 335.37 745.29C321.81 747.21 308.04 748.16 294.45 748.16ZM295.18 162.29C281.68 162.29 268.01 163.24 254.55 165.12C177.33 175.88 108.92 216.07 61.9195 278.28C14.9195 340.49 -5.04048 417.28 5.71952 494.51C15.4995 564.7 50.3895 628.83 103.96 675.09C157.04 720.93 224.69 746.17 294.46 746.17C307.96 746.17 321.63 745.22 335.1 743.34C412.32 732.58 480.74 692.4 527.74 630.18C574.74 567.97 594.7 491.18 583.94 413.96C574.159 343.77 539.27 279.64 485.69 233.38C432.609 187.53 364.949 162.29 295.18 162.29Z" fill="url(#paint4_linear)"/>
<path d="M294.859 727.29H294.499C215.999 727.2 142.229 696.54 86.7894 640.96C31.3394 585.38 0.859417 511.54 0.949417 433.04C1.03942 354.6 31.6594 280.87 87.1694 225.44C142.669 170.01 216.429 139.48 294.859 139.48H295.199C373.699 139.58 447.479 170.24 502.919 225.81C558.369 281.39 588.849 355.23 588.759 433.73C588.669 512.16 558.049 585.89 502.549 641.32C447.039 696.76 373.279 727.29 294.859 727.29ZM294.849 141.49C216.959 141.49 143.699 171.81 88.5794 226.86C33.4494 281.92 3.03942 355.14 2.94942 433.05C2.85942 511.01 33.1394 584.35 88.1994 639.55C143.269 694.75 216.529 725.2 294.499 725.29H294.859C372.749 725.29 445.999 694.97 501.129 639.92C556.259 584.86 586.669 511.64 586.759 433.74C586.849 355.77 556.579 282.44 501.509 227.24C446.439 172.04 373.169 141.59 295.199 141.49H294.849Z" fill="url(#paint5_linear)"/>
<path d="M298.139 706.7C284.319 706.7 270.309 705.71 256.529 703.75C178.809 692.74 110.029 652.11 62.8494 589.36C15.6794 526.61 -4.24059 449.24 6.77941 371.52C16.7694 301 51.9694 236.59 105.879 190.15C159.289 144.15 227.309 118.82 297.409 118.82C311.229 118.82 325.219 119.81 339.009 121.76C416.739 132.78 485.519 173.41 532.699 236.16C579.869 298.91 599.789 376.28 588.769 454C578.779 524.52 543.589 588.93 489.679 635.36C436.269 681.37 368.249 706.7 298.139 706.7ZM297.409 120.82C227.779 120.82 160.229 145.98 107.179 191.66C53.6294 237.78 18.6794 301.75 8.74941 371.8C-2.18059 449 17.5994 525.83 64.4494 588.16C111.299 650.49 179.619 690.83 256.809 701.77C270.509 703.71 284.409 704.7 298.139 704.7C367.769 704.7 435.329 679.54 488.369 633.86C541.909 587.74 576.869 523.77 586.789 453.73C597.729 376.54 577.959 299.7 531.099 237.37C484.249 175.04 415.929 134.69 338.729 123.75C325.039 121.81 311.139 120.82 297.409 120.82Z" fill="url(#paint6_linear)"/>
<path d="M303.68 686.71C276.24 686.71 248.83 682.82 222.21 675.16C146.78 653.44 84.3105 603.64 46.3305 534.93C8.35047 466.22 -0.609533 386.84 21.1205 311.41C39.1205 248.9 76.1805 195.43 128.3 156.78C178.76 119.36 240.95 98.76 303.41 98.76C330.85 98.76 358.25 102.64 384.87 110.31C460.31 132.04 522.771 181.84 560.76 250.55C598.74 319.26 607.7 398.64 585.97 474.07C567.97 536.58 530.91 590.04 478.79 628.69C428.33 666.11 366.14 686.71 303.68 686.71ZM303.41 100.76C241.37 100.76 179.61 121.23 129.49 158.39C77.7305 196.78 40.9105 249.88 23.0405 311.96C1.46046 386.88 10.3605 465.72 48.0805 533.96C85.8005 602.2 147.84 651.66 222.76 673.23C249.2 680.85 276.43 684.71 303.68 684.71C365.72 684.71 427.48 664.24 477.6 627.08C529.36 588.7 566.17 535.59 584.05 473.51C605.63 398.59 596.73 319.75 559.01 251.51C521.29 183.27 459.24 133.81 384.32 112.23C357.88 104.62 330.66 100.76 303.41 100.76Z" fill="url(#paint7_linear)"/>
<path d="M311.87 667.69C270.52 667.69 230.25 659.07 192.19 642.07C120.51 610.06 65.5901 552.06 37.5401 478.73C9.49006 405.41 11.6701 325.55 43.6701 253.87C67.2601 201.03 105.44 156.75 154.08 125.82C201.5 95.67 256.18 79.73 312.2 79.73C353.55 79.73 393.81 88.35 431.86 105.34C503.54 137.35 558.47 195.36 586.52 268.69C614.57 342.01 612.4 421.87 580.39 493.55C556.8 546.39 518.62 590.67 469.99 621.59C422.58 651.75 367.9 667.69 311.87 667.69ZM312.21 81.74C256.57 81.74 202.26 97.57 155.16 127.52C106.86 158.23 68.9401 202.21 45.5001 254.7C13.7101 325.89 11.5401 405.2 39.4101 478.03C67.2701 550.85 121.82 608.47 193.01 640.25C230.81 657.13 270.8 665.69 311.87 665.69C367.52 665.69 421.82 649.86 468.92 619.91C517.22 589.2 555.14 545.22 578.57 492.74C610.36 421.55 612.53 342.24 584.66 269.41C556.8 196.59 502.24 138.97 431.05 107.17C393.25 90.3 353.27 81.74 312.21 81.74Z" fill="url(#paint8_linear)"/>
<path d="M322.819 650C267.789 650 213.939 634.48 167.079 605.13C100.549 563.46 54.2391 498.38 36.6591 421.86C19.0791 345.35 32.3491 266.57 74.0191 200.04C100.929 157.07 138.589 121.68 182.919 97.68C225.899 74.41 274.469 62.11 323.379 62.11C378.399 62.11 432.249 77.62 479.109 106.97C545.639 148.65 591.959 213.74 609.539 290.25C627.119 366.76 613.849 445.54 572.179 512.07C545.269 555.04 507.619 590.43 463.289 614.43C420.299 637.7 371.729 650 322.819 650ZM323.379 64.12C274.799 64.12 226.559 76.34 183.869 99.45C139.839 123.28 102.449 158.44 75.7191 201.11C34.3291 267.18 21.1491 345.42 38.6091 421.41C56.0691 497.4 102.069 562.05 168.149 603.43C214.679 632.59 268.169 648 322.819 648C371.399 648 419.639 635.78 462.329 612.67C506.349 588.84 543.749 553.68 570.479 511.01C611.869 444.94 625.049 366.7 607.589 290.7C590.129 214.71 544.129 150.06 478.049 108.67C431.499 79.53 378.019 64.12 323.379 64.12Z" fill="url(#paint9_linear)"/>
<path d="M336.359 634.02C267.359 634.02 200.239 609.53 147.349 565.05C87.2685 514.53 50.4585 443.63 43.6985 365.42C36.9385 287.21 61.0385 211.04 111.559 150.96C167.539 84.39 249.579 46.21 336.649 46.21C405.639 46.21 472.769 70.7 525.649 115.17C585.729 165.7 622.549 236.6 629.309 314.81C636.069 393.03 611.969 469.19 561.439 529.27C505.469 595.84 423.429 634.02 336.359 634.02ZM336.649 48.2C250.169 48.2 168.689 86.12 113.089 152.24C62.9085 211.91 38.9685 287.56 45.6885 365.24C52.3985 442.92 88.9585 513.34 148.639 563.51C201.169 607.68 267.839 632.01 336.359 632.01C422.839 632.01 504.319 594.09 559.919 527.97C610.099 468.3 634.039 392.65 627.319 314.97C620.609 237.29 584.039 166.87 524.369 116.68C471.839 72.53 405.179 48.2 336.649 48.2Z" fill="url(#paint10_linear)"/>
<path d="M352.109 620.09C311.249 620.09 271.619 611.84 234.329 595.58C195.729 578.75 161.769 554.2 133.389 522.62C80.9191 464.23 54.3391 388.9 58.5291 310.51C62.7191 232.12 97.1891 160.05 155.569 107.58C209.599 59.03 279.329 32.29 351.899 32.29C392.759 32.29 432.379 40.54 469.679 56.8C508.279 73.63 542.239 98.18 570.609 129.76C623.079 188.16 649.669 263.49 645.479 341.88C641.289 420.28 606.829 492.34 548.429 544.81C494.409 593.35 424.689 620.09 352.109 620.09ZM351.899 34.28C279.819 34.28 210.569 60.84 156.899 109.06C98.9091 161.17 64.6791 232.75 60.5091 310.61C56.3491 388.47 82.7591 463.29 134.869 521.28C163.049 552.64 196.779 577.03 235.119 593.74C272.159 609.9 311.519 618.09 352.099 618.09C424.179 618.09 493.429 591.53 547.089 543.31C605.089 491.2 639.319 419.63 643.479 341.76C647.639 263.9 621.229 189.08 569.119 131.08C540.939 99.72 507.209 75.34 468.869 58.62C431.839 42.47 392.479 34.28 351.899 34.28Z" fill="url(#paint11_linear)"/>
<path d="M369.569 608.48C271.439 608.48 180.189 559.94 125.469 478.65C81.639 413.53 65.789 335.23 80.849 258.18C95.909 181.13 140.059 114.56 205.189 70.73C253.899 37.95 310.549 20.62 369.019 20.62C467.139 20.62 558.399 69.15 613.109 150.44C656.939 215.57 672.789 293.87 657.729 370.92C642.669 447.97 598.519 514.54 533.389 558.37C484.689 591.16 428.039 608.48 369.569 608.48ZM369.009 22.62C310.939 22.62 254.669 39.83 206.299 72.39C141.619 115.92 97.759 182.04 82.809 258.57C67.849 335.1 83.589 412.86 127.129 477.54C181.469 558.29 272.099 606.49 369.569 606.49C427.639 606.49 483.909 589.28 532.279 556.72C596.959 513.19 640.819 447.07 655.769 370.54C670.729 294.01 654.979 216.25 611.449 151.56C557.099 70.82 466.469 22.62 369.009 22.62Z" fill="url(#paint12_linear)"/>
<path d="M388.25 599.4C333.91 599.4 280.64 584.36 234.22 555.91C186.53 526.69 148.33 484.53 123.75 434C89.4099 363.41 84.6099 283.67 110.24 209.47C135.87 135.27 188.86 75.49 259.45 41.14C299.93 21.44 343.12 11.45 387.81 11.45C442.15 11.45 495.41 26.49 541.84 54.93C589.53 84.15 627.73 126.3 652.31 176.83C686.65 247.42 691.45 327.17 665.82 401.37C640.19 475.6 587.2 535.38 516.6 569.72C476.12 589.42 432.94 599.4 388.25 599.4ZM387.8 13.47C343.42 13.47 300.52 23.39 260.31 42.95C190.2 77.06 137.57 136.43 112.11 210.13C86.6499 283.83 91.4199 363.03 125.53 433.13C149.95 483.32 187.89 525.19 235.25 554.21C281.36 582.47 334.26 597.4 388.24 597.4C432.62 597.4 475.52 587.48 515.72 567.92C585.83 533.81 638.46 474.44 663.92 400.74C689.38 327.04 684.61 247.84 650.5 177.72C626.08 127.54 588.14 85.67 540.78 56.65C494.68 28.4 441.78 13.47 387.8 13.47Z" fill="url(#paint13_linear)"/>
<path d="M407.79 593C346.17 593 286.98 573.95 236.62 537.91C185.24 501.15 147.77 449.85 128.25 389.57C104.06 314.89 110.41 235.26 146.11 165.34C181.82 95.43 242.61 43.6 317.29 19.41C346.75 9.87 377.23 5.03 407.9 5.03C469.51 5.03 528.71 24.08 579.07 60.12C630.45 96.88 667.92 148.17 687.45 208.45C711.64 283.14 705.29 362.77 669.59 432.69C633.88 502.61 573.09 554.43 498.41 578.62C468.95 588.16 438.46 593 407.79 593ZM407.91 7.03C377.45 7.03 347.17 11.83 317.91 21.31C243.74 45.33 183.36 96.81 147.89 166.24C112.43 235.68 106.12 314.77 130.15 388.94C149.54 448.81 186.76 499.76 237.79 536.27C287.81 572.08 346.59 591 407.79 591C438.25 591 468.53 586.2 497.78 576.72C571.95 552.7 632.34 501.23 667.8 431.79C703.26 362.35 709.57 283.25 685.54 209.08C666.15 149.21 628.93 98.27 577.9 61.76C527.89 25.95 469.1 7.03 407.91 7.03Z" fill="url(#paint14_linear)"/>
<path d="M428.019 589.37C359.759 589.37 293.099 565.19 240.309 521.29C186.919 476.88 150.889 414.69 138.879 346.18C125.319 268.86 142.679 190.88 187.769 126.62C232.859 62.35 300.269 19.49 377.589 5.92999C394.489 2.96999 411.689 1.45999 428.699 1.45999C496.959 1.45999 563.629 25.64 616.409 69.53C669.799 113.94 705.829 176.12 717.839 244.63C731.399 321.96 714.039 399.94 668.949 464.2C623.859 528.47 556.449 571.33 479.119 584.89C462.239 587.87 445.039 589.37 428.019 589.37ZM428.709 3.45999C411.809 3.45999 394.729 4.94999 377.939 7.89999C301.149 21.37 234.189 63.94 189.409 127.77C144.629 191.6 127.379 269.05 140.849 345.84C152.779 413.89 188.559 475.65 241.589 519.76C294.009 563.36 360.219 587.37 428.019 587.37C444.919 587.37 461.999 585.88 478.789 582.93C555.589 569.47 622.539 526.9 667.319 463.07C712.099 399.24 729.349 321.79 715.879 244.99C703.939 176.95 668.169 115.18 615.139 71.08C562.719 27.48 496.509 3.45999 428.709 3.45999Z" fill="url(#paint15_linear)"/>
<path d="M449 588.62C372.61 588.62 300.21 559.36 245.13 506.22C189.92 452.96 158.07 381.39 155.46 304.7C152.79 226.24 180.83 151.44 234.43 94.08C288.02 36.71 360.74 3.65 439.2 0.979996C442.58 0.859996 446.01 0.809998 449.38 0.809998C525.78 0.809998 598.18 30.07 653.26 83.21C708.47 136.47 740.31 208.03 742.92 284.72C745.59 363.18 717.54 437.98 663.95 495.35C610.36 552.72 537.63 585.78 459.18 588.45C455.8 588.56 452.38 588.62 449 588.62ZM449.38 2.8C446.03 2.8 442.63 2.86 439.27 2.97C361.35 5.62 289.12 38.46 235.89 95.44C182.66 152.42 154.81 226.71 157.46 304.63C160.05 380.79 191.68 451.87 246.51 504.77C301.22 557.55 373.13 586.61 449 586.61C452.35 586.61 455.76 586.55 459.11 586.44C537.03 583.79 609.26 550.95 662.49 493.97C715.72 436.99 743.57 362.7 740.92 284.77C738.33 208.6 706.7 137.52 651.87 84.63C597.17 31.86 525.25 2.8 449.38 2.8Z" fill="url(#paint16_linear)"/>
<path d="M470.27 590.83C459.88 590.83 449.33 590.27 438.93 589.17C360.87 580.9 290.7 542.72 241.35 481.67C192 420.61 169.37 344 177.65 265.93C185.35 193.31 219.55 126.52 273.95 77.88C327.97 29.58 397.43 2.98 469.56 2.98C479.95 2.98 490.49 3.54 500.89 4.64C578.96 12.91 649.13 51.09 698.48 112.14C747.83 173.19 770.45 249.81 762.18 327.87C754.48 400.5 720.28 467.28 665.88 515.93C611.87 564.23 542.4 590.83 470.27 590.83ZM469.56 4.98C397.93 4.98 328.93 31.4 275.29 79.37C221.26 127.68 187.29 194.01 179.64 266.14C171.42 343.68 193.89 419.77 242.91 480.41C291.93 541.05 361.62 578.97 439.15 587.18C449.48 588.27 459.95 588.83 470.28 588.83C541.91 588.83 610.91 562.41 664.55 514.44C718.58 466.13 752.55 399.79 760.19 327.66C768.4 250.13 745.93 174.03 696.92 113.4C647.9 52.76 578.21 14.84 500.68 6.63C490.35 5.53 479.88 4.98 469.56 4.98Z" fill="url(#paint17_linear)"/>
<path d="M490.339 595.94C466.349 595.94 442.269 592.96 418.779 587.08C342.629 568.03 278.459 520.46 238.079 453.13C197.699 385.8 185.959 306.78 205.019 230.62C213.189 197.96 226.679 167.31 245.109 139.51C262.929 112.64 284.969 89 310.619 69.24C361.899 29.74 425.569 7.99 489.909 7.99C513.899 7.99 537.969 10.97 561.459 16.85C637.619 35.9 701.799 83.47 742.169 150.8C782.549 218.13 794.289 297.14 775.239 373.3C767.069 405.96 753.579 436.61 735.139 464.41C717.319 491.28 695.279 514.92 669.629 534.68C618.359 574.18 554.679 595.94 490.339 595.94ZM489.909 9.98999C426.009 9.98999 362.769 31.59 311.839 70.82C286.359 90.45 264.469 113.93 246.779 140.61C228.469 168.22 215.069 198.66 206.959 231.1C188.029 306.74 199.699 385.22 239.799 452.09C279.899 518.96 343.639 566.21 419.269 585.13C442.599 590.97 466.519 593.93 490.349 593.93C554.249 593.93 617.489 572.32 668.419 533.09C693.899 513.46 715.789 489.98 733.479 463.3C751.789 435.69 765.189 405.24 773.299 372.81C792.219 297.17 780.559 218.69 740.459 151.83C700.359 84.96 636.619 37.71 560.979 18.79C537.649 12.95 513.739 9.98999 489.909 9.98999Z" fill="url(#paint18_linear)"/>
<path d="M509.33 603.76C471.53 603.76 434.45 596.5 399.11 582.19C326.35 552.73 269.42 496.69 238.81 424.4C208.19 352.11 207.56 272.22 237.03 199.46C259.43 144.14 297.49 97.57 347.08 64.77C395.52 32.74 451.7 15.8 509.55 15.8C547.34 15.8 584.43 23.06 619.76 37.37C692.52 66.83 749.45 122.87 780.07 195.16C810.68 267.45 811.32 347.33 781.85 420.09C759.45 475.42 721.39 522 671.8 554.8C623.36 586.83 567.18 603.76 509.33 603.76ZM509.55 17.8C452.09 17.8 396.29 34.62 348.19 66.43C298.94 99.01 261.14 145.26 238.89 200.2C209.62 272.47 210.25 351.81 240.66 423.61C271.07 495.41 327.61 551.07 399.87 580.33C434.97 594.54 471.8 601.75 509.34 601.75C566.8 601.75 622.59 584.93 670.7 553.11C719.95 520.53 757.75 474.27 780 419.33C809.26 347.06 808.63 267.72 778.23 195.93C747.82 124.13 691.28 68.47 619.01 39.21C583.91 25.01 547.08 17.8 509.55 17.8Z" fill="url(#paint19_linear)"/>
<path d="M527.189 614.17C475.819 614.17 425.039 600.5 380.319 574.63C312.369 535.33 263.789 471.91 243.529 396.06C223.269 320.21 233.759 241.01 273.069 173.06C299.359 127.6 337.299 90.01 382.779 64.35C426.929 39.44 477.069 26.27 527.759 26.27C579.129 26.27 629.909 39.94 674.629 65.81C742.579 105.11 791.159 168.53 811.419 244.38C831.679 320.23 821.189 399.42 781.889 467.38C755.599 512.84 717.659 550.43 672.169 576.1C628.009 601 577.879 614.17 527.189 614.17ZM527.749 28.27C477.399 28.27 427.609 41.35 383.759 66.09C338.589 91.58 300.909 128.91 274.799 174.06C235.759 241.55 225.339 320.21 245.469 395.54C265.589 470.87 313.839 533.86 381.329 572.89C425.739 598.58 476.189 612.16 527.199 612.16C577.549 612.16 627.339 599.08 671.199 574.33C716.369 548.84 754.049 511.5 780.169 466.35C819.209 398.86 829.619 320.2 809.499 244.87C789.379 169.54 741.129 106.55 673.639 67.52C629.209 41.84 578.769 28.27 527.749 28.27Z" fill="url(#paint20_linear)"/>
<path d="M543.67 626.97C477.53 626.97 414.97 605.37 362.75 564.51C300.93 516.14 261.65 446.58 252.14 368.65C242.63 290.72 264.04 213.75 312.42 151.93C340.76 115.71 376.03 87.39 417.25 67.76C456.55 49.04 500.41 39.14 544.08 39.14C610.23 39.14 672.79 60.74 725 101.59C786.82 149.97 826.11 219.53 835.62 297.45C845.13 375.38 823.72 452.34 775.35 514.17C747.01 550.39 711.73 578.71 670.51 598.35C631.2 617.07 587.34 626.97 543.67 626.97ZM544.09 41.14C500.72 41.14 457.16 50.97 418.12 69.56C377.18 89.06 342.15 117.19 314 153.16C265.95 214.56 244.69 291.01 254.13 368.41C263.57 445.81 302.59 514.89 363.99 562.94C415.85 603.52 477.98 624.97 543.67 624.97C587.04 624.97 630.6 615.14 669.64 596.54C710.58 577.04 745.61 548.91 773.76 512.94C821.81 451.54 843.07 375.1 833.63 297.7C824.19 220.3 785.17 151.22 723.77 103.17C671.92 62.59 609.78 41.14 544.09 41.14Z" fill="url(#paint21_linear)"/>
<path d="M558.37 641.95C519.28 641.95 481.25 634.38 445.32 619.44C408.13 603.97 374.97 581.3 346.77 552.06C292.28 495.55 263.06 421.21 264.49 342.71C265.92 264.21 297.83 190.98 354.34 136.48C409.4 83.39 481.84 54.15 558.31 54.15C597.4 54.15 635.43 61.73 671.36 76.67C708.56 92.14 741.71 114.81 769.91 144.05C824.4 200.56 853.62 274.91 852.2 353.4C850.77 431.89 818.86 505.13 762.36 559.62C707.29 612.71 634.85 641.95 558.37 641.95ZM558.31 56.15C482.36 56.15 410.41 85.19 355.73 137.92C299.6 192.04 267.91 264.78 266.49 342.74C265.07 420.7 294.09 494.54 348.21 550.66C376.22 579.7 409.15 602.22 446.09 617.58C481.77 632.42 519.55 639.94 558.37 639.94C634.32 639.94 706.27 610.9 760.96 558.16C817.08 504.04 848.77 431.3 850.19 353.34C851.61 275.38 822.59 201.54 768.47 145.42C740.46 116.38 707.53 93.86 670.59 78.5C634.91 63.68 597.13 56.15 558.31 56.15Z" fill="url(#paint22_linear)"/>
<path d="M570.82 658.84C525.33 658.84 479.81 648.14 439.2 627.89C397.24 606.97 360.41 575.71 332.68 537.5C286.59 473.96 267.99 396.27 280.33 318.74C292.67 241.21 334.46 173.12 398 127.02C448.52 90.37 508.11 71 570.33 71C615.82 71 661.34 81.7 701.95 101.95C743.91 122.87 780.75 154.12 808.47 192.34C854.57 255.88 873.16 333.57 860.82 411.1C848.48 488.63 806.7 556.71 743.15 602.81C692.64 639.47 633.04 658.84 570.82 658.84ZM570.33 73C508.53 73 449.35 92.24 399.17 128.64C336.06 174.42 294.55 242.05 282.3 319.05C270.05 396.05 288.51 473.22 334.29 536.32C361.83 574.28 398.41 605.32 440.08 626.1C480.42 646.21 525.62 656.84 570.8 656.84C632.6 656.84 691.79 637.6 741.97 601.19C805.08 555.41 846.58 487.78 858.84 410.78C871.09 333.78 852.63 256.61 806.84 193.5C779.3 155.54 742.72 124.5 701.05 103.73C660.72 83.63 615.52 73 570.33 73Z" fill="url(#paint23_linear)"/>
<path d="M580.599 677.28C471.449 677.28 371.879 617.44 320.749 521.12C283.939 451.79 276.339 372.26 299.349 297.2C322.349 222.14 373.209 160.53 442.549 123.72C484.899 101.24 532.459 89.36 580.089 89.36C689.239 89.36 788.809 149.2 839.949 245.52C876.759 314.86 884.359 394.38 861.359 469.44C838.359 544.5 787.499 606.11 718.159 642.91C675.799 665.4 628.229 677.28 580.599 677.28ZM580.089 91.36C532.789 91.36 485.549 103.16 443.489 125.49C374.619 162.05 324.109 223.24 301.269 297.79C278.419 372.34 285.969 451.32 322.519 520.18C373.299 615.85 472.189 675.28 580.599 675.28C627.909 675.28 675.149 663.48 717.219 641.15C786.089 604.59 836.599 543.4 859.439 468.86C882.289 394.31 874.739 315.33 838.179 246.46C787.389 150.79 688.499 91.36 580.089 91.36Z" fill="url(#paint24_linear)"/>
<path d="M587.49 696.89C527.73 696.89 470.02 678.9 420.57 644.86C370.04 610.07 332.23 561.1 311.21 503.25C284.41 429.47 287.95 349.66 321.18 278.53C354.41 207.4 413.34 153.47 487.13 126.66C519.53 114.89 553.28 108.92 587.44 108.92C647.2 108.92 704.92 126.91 754.36 160.95C804.89 195.74 842.7 244.71 863.72 302.56C890.52 376.34 886.98 456.15 853.76 527.28C820.54 598.41 761.6 652.34 687.82 679.14C655.4 690.92 621.65 696.89 587.49 696.89ZM587.43 110.92C553.51 110.92 519.99 116.85 487.81 128.54C414.52 155.16 355.99 208.73 322.99 279.37C289.99 350.02 286.47 429.28 313.09 502.56C333.96 560.02 371.52 608.66 421.7 643.21C470.8 677.02 528.13 694.89 587.48 694.89C621.41 694.89 654.93 688.96 687.11 677.27C760.4 650.65 818.93 597.08 851.93 526.44C884.93 455.8 888.44 376.53 861.82 303.25C840.95 245.79 803.39 197.15 753.21 162.6C704.11 128.79 646.79 110.92 587.43 110.92Z" fill="url(#paint25_linear)"/>
<path d="M591.499 717.25C525.179 717.25 459.979 694.28 407.909 652.58C381.959 631.8 359.919 607.03 342.389 578.95C324.249 549.9 311.429 518.02 304.259 484.21C287.989 407.42 302.599 328.88 345.399 263.07C388.199 197.25 454.069 152.05 530.859 135.77C551.039 131.5 571.629 129.33 592.069 129.33C658.389 129.33 723.589 152.3 775.659 194C801.609 214.78 823.649 239.55 841.169 267.63C859.309 296.68 872.129 328.56 879.299 362.37C895.569 439.16 880.969 517.7 838.169 583.52C795.369 649.33 729.509 694.54 652.709 710.81C632.529 715.08 611.939 717.25 591.499 717.25ZM592.069 131.33C571.769 131.33 551.319 133.48 531.279 137.73C455.009 153.89 389.589 198.79 347.079 264.16C304.569 329.53 290.059 407.53 306.219 483.8C313.339 517.38 326.079 549.04 344.089 577.89C361.499 605.77 383.389 630.37 409.159 651.01C460.869 692.43 525.629 715.24 591.499 715.24C611.799 715.24 632.259 713.09 652.299 708.84C728.569 692.68 793.989 647.78 836.499 582.41C879.009 517.04 893.519 439.04 877.349 362.77C870.229 329.19 857.489 297.53 839.479 268.68C822.069 240.8 800.179 216.2 774.409 195.56C722.699 154.14 657.939 131.33 592.069 131.33Z" fill="url(#paint26_linear)"/>
<path d="M592.929 737.99C518.649 737.99 447.689 710.05 393.099 659.33C338.249 608.36 305.199 539.14 300.019 464.4C294.589 386.09 319.989 310.35 371.529 251.13C423.069 191.91 494.589 156.31 572.899 150.88C579.749 150.41 586.689 150.17 593.519 150.17C667.789 150.17 738.759 178.11 793.339 228.84C848.179 279.81 881.239 349.03 886.419 423.76C891.849 502.07 866.459 577.81 814.919 637.03C763.379 696.25 691.869 731.85 613.549 737.28C606.699 737.75 599.769 737.99 592.929 737.99ZM593.519 152.16C586.729 152.16 579.839 152.4 573.039 152.87C495.259 158.26 424.229 193.62 373.039 252.44C321.849 311.26 296.629 386.48 302.019 464.26C307.159 538.49 339.999 607.24 394.469 657.86C448.689 708.24 519.169 735.99 592.939 735.99C599.729 735.99 606.619 735.75 613.419 735.28C691.199 729.89 762.229 694.53 813.419 635.71C864.609 576.9 889.829 501.67 884.439 423.89C879.289 349.67 846.459 280.91 791.989 230.29C737.769 179.91 667.279 152.16 593.519 152.16Z" fill="url(#paint27_linear)"/>
<path d="M592.059 758.77C585.109 758.77 578.059 758.52 571.089 758.03C492.779 752.51 421.309 716.82 369.829 657.54C318.359 598.26 293.049 522.49 298.579 444.18C303.839 369.52 336.939 300.38 391.779 249.48C446.349 198.83 517.269 170.94 591.469 170.94C598.419 170.94 605.469 171.19 612.439 171.68C690.749 177.2 762.219 212.89 813.689 272.17C865.159 331.45 890.459 407.22 884.939 485.53C879.679 560.19 846.579 629.34 791.749 680.23C737.169 730.88 666.249 758.77 592.059 758.77ZM591.459 172.94C517.769 172.94 447.329 200.65 393.129 250.95C338.669 301.5 305.799 370.17 300.569 444.32C295.089 522.1 320.219 597.35 371.339 656.23C422.459 715.11 493.449 750.55 571.229 756.04C578.149 756.53 585.149 756.77 592.059 756.77C665.749 756.77 736.179 729.07 790.379 678.76C844.839 628.21 877.709 559.54 882.939 485.39C888.419 407.62 863.289 332.36 812.169 273.48C761.049 214.6 690.059 179.16 612.289 173.67C605.369 173.19 598.369 172.94 591.459 172.94Z" fill="url(#paint28_linear)"/>
<path d="M587.699 779.2C567.149 779.2 546.439 777.01 526.149 772.68C449.369 756.31 383.559 711.03 340.839 645.16C298.119 579.3 283.599 500.74 299.969 423.96C307.169 390.19 320.019 358.36 338.169 329.35C355.709 301.32 377.749 276.58 403.689 255.83C455.739 214.19 520.889 191.26 587.139 191.26C607.699 191.26 628.399 193.45 648.689 197.78C725.469 214.14 791.279 259.43 833.999 325.3C876.719 391.17 891.239 469.72 874.869 546.5C867.669 580.27 854.819 612.11 836.669 641.12C819.129 669.15 797.089 693.89 771.149 714.64C719.099 756.27 653.949 779.2 587.699 779.2ZM587.129 193.28C521.329 193.28 456.629 216.05 404.929 257.41C379.169 278.02 357.269 302.58 339.859 330.43C321.839 359.24 309.069 390.86 301.919 424.4C285.669 500.66 300.079 578.68 342.519 644.09C384.949 709.51 450.319 754.48 526.569 770.74C546.719 775.03 567.289 777.21 587.699 777.21C653.499 777.21 718.199 754.44 769.899 713.09C795.659 692.48 817.559 667.92 834.969 640.07C852.989 611.26 865.759 579.64 872.909 546.1C889.159 469.85 874.749 391.83 832.319 326.41C789.879 260.98 724.519 216 648.259 199.75C628.119 195.45 607.549 193.28 587.129 193.28Z" fill="url(#paint29_linear)"/>
<path d="M580.25 798.79C545.97 798.79 512.11 792.78 479.61 780.93C405.86 754.04 346.98 700.04 313.84 628.87C280.7 557.7 277.26 477.89 304.14 404.14C325.2 346.37 363.02 297.49 413.53 262.76C462.94 228.79 520.61 210.83 580.3 210.83C614.58 210.83 648.44 216.84 680.94 228.69C754.69 255.58 813.56 309.58 846.7 380.75C879.84 451.92 883.28 531.73 856.4 605.48C835.34 663.25 797.52 712.14 747.02 746.86C697.61 780.84 639.94 798.79 580.25 798.79ZM580.31 212.83C521.02 212.83 463.75 230.67 414.67 264.41C364.51 298.9 326.94 347.45 306.03 404.83C279.32 478.08 282.74 557.35 315.66 628.04C348.58 698.72 407.05 752.36 480.3 779.07C512.58 790.84 546.21 796.8 580.25 796.8C639.54 796.8 696.81 778.96 745.88 745.22C796.04 710.73 833.6 662.18 854.52 604.8C881.22 531.55 877.8 452.28 844.89 381.6C811.98 310.92 753.51 257.28 680.26 230.57C647.98 218.8 614.35 212.83 580.31 212.83Z" fill="url(#paint30_linear)"/>
<path d="M570.229 817.16C522.479 817.16 474.809 805.22 432.379 782.63C363.079 745.74 312.299 684.07 289.379 608.98C266.459 533.89 274.159 454.38 311.049 385.08C362.219 288.95 461.729 229.24 570.739 229.24C618.489 229.24 666.159 241.18 708.589 263.77C777.879 300.66 828.669 362.33 851.579 437.42C874.499 512.51 866.799 592.02 829.909 661.31C778.749 757.45 679.239 817.16 570.229 817.16ZM570.739 231.25C462.469 231.25 363.639 290.56 312.819 386.03C276.179 454.85 268.539 533.83 291.299 608.4C314.059 682.98 364.499 744.23 433.319 780.87C475.459 803.3 522.809 815.16 570.229 815.16C678.499 815.16 777.329 755.85 828.149 660.37C864.789 591.55 872.429 512.58 849.669 438C826.909 363.42 776.469 302.17 707.649 265.53C665.509 243.1 618.169 231.25 570.739 231.25Z" fill="url(#paint31_linear)"/>
<path d="M557.989 833.98C495.639 833.98 435.949 814.54 385.369 777.75C321.879 731.57 280.169 663.44 267.929 585.89C255.679 508.34 274.369 430.67 320.539 367.19C348.269 329.06 385.079 297.88 427.009 277.01C467.579 256.81 513.039 246.14 558.469 246.14C620.819 246.14 680.519 265.58 731.099 302.37C794.589 348.54 836.289 416.68 848.529 494.22C860.779 571.77 842.089 649.44 795.919 712.92C768.189 751.05 731.369 782.23 689.449 803.1C648.879 823.3 603.419 833.98 557.989 833.98ZM558.469 248.13C513.349 248.13 468.199 258.73 427.899 278.79C386.259 299.52 349.699 330.49 322.159 368.35C276.299 431.41 257.739 508.55 269.909 585.57C282.069 662.59 323.499 730.26 386.549 776.12C436.789 812.66 496.079 831.97 557.999 831.97C603.119 831.97 648.269 821.37 688.569 801.31C730.209 780.58 766.769 749.61 794.309 711.74C840.169 648.69 858.719 571.54 846.559 494.53C834.399 417.51 792.979 349.84 729.919 303.98C679.679 267.45 620.399 248.13 558.469 248.13Z" fill="url(#paint32_linear)"/>
<path d="M543.72 848.94C467.12 848.94 394.59 819.61 339.49 766.36C283.04 711.8 251.22 638.52 249.89 560.03C248.55 481.53 277.86 407.22 332.42 350.77C360.6 321.61 393.73 299.01 430.88 283.58C466.77 268.68 504.75 261.13 543.77 261.13C620.38 261.13 692.91 290.46 748 343.71C804.44 398.27 836.26 471.54 837.6 550.04C838.93 628.54 809.62 702.85 755.07 759.29C726.89 788.45 693.76 811.06 656.61 826.48C620.73 841.38 582.75 848.94 543.72 848.94ZM543.78 263.14C505.02 263.14 467.3 270.64 431.66 285.44C394.76 300.76 361.86 323.21 333.87 352.17C279.68 408.23 250.57 482.04 251.9 560C253.23 637.96 284.83 710.74 340.9 764.93C395.62 817.82 467.66 846.94 543.74 846.94C582.5 846.94 620.22 839.44 655.86 824.64C692.76 809.32 725.66 786.87 753.65 757.91C807.84 701.85 836.94 628.04 835.62 550.08C834.3 472.12 802.69 399.34 746.63 345.16C691.9 292.26 619.86 263.14 543.78 263.14Z" fill="url(#paint33_linear)"/>
<path d="M527.539 861.77C483.809 861.77 439.899 851.85 400.549 833.08C359.279 813.39 323.989 785.01 295.649 748.71C247.349 686.83 226.029 609.83 235.629 531.92C245.229 454 284.599 384.49 346.479 336.18C398.639 295.47 461.099 273.95 527.119 273.95C570.849 273.95 614.759 283.87 654.109 302.64C695.379 322.33 730.669 350.71 759.009 387.02C807.309 448.9 828.629 525.89 819.029 603.81C809.429 681.73 770.059 751.24 708.189 799.54C656.019 840.25 593.549 861.77 527.539 861.77ZM527.119 275.94C461.549 275.94 399.519 297.31 347.709 337.75C286.249 385.73 247.149 454.77 237.619 532.15C228.089 609.54 249.259 686 297.229 747.47C325.379 783.52 360.429 811.72 401.409 831.27C440.489 849.91 484.099 859.77 527.529 859.77C593.089 859.77 655.129 838.39 706.939 797.95C768.399 749.98 807.489 680.94 817.029 603.55C826.569 526.16 805.399 449.7 757.419 388.24C729.269 352.19 694.219 323.99 653.239 304.44C614.159 285.8 570.549 275.94 527.119 275.94Z" fill="url(#paint34_linear)"/>
<path d="M509.559 872.22C458.809 872.22 408.619 859.02 364.429 834.05C318.909 808.33 280.969 770.66 254.699 725.12C215.479 657.12 205.079 577.91 225.429 502.08C245.779 426.26 294.429 362.9 362.439 323.67C407.079 297.92 457.759 284.31 508.999 284.31C559.749 284.31 609.939 297.51 654.129 322.48C699.649 348.2 737.599 385.87 763.869 431.41C803.089 499.41 813.489 578.62 793.139 654.44C772.789 730.26 724.139 793.62 656.139 832.84C611.479 858.61 560.799 872.22 509.559 872.22ZM508.989 286.32C458.099 286.32 407.759 299.84 363.429 325.41C295.889 364.37 247.559 427.3 227.349 502.6C207.139 577.91 217.469 656.58 256.419 724.12C282.509 769.35 320.199 806.76 365.409 832.31C409.299 857.11 459.149 870.22 509.549 870.22C560.439 870.22 610.779 856.7 655.119 831.12C722.659 792.16 770.979 729.24 791.189 653.93C811.399 578.62 801.079 499.96 762.119 432.42C736.029 387.19 698.339 349.78 653.129 324.23C609.249 299.43 559.399 286.32 508.989 286.32Z" fill="url(#paint35_linear)"/>
<path d="M490.059 880.05C432.149 880.05 375.919 863.08 327.449 830.99C277.829 798.13 239.779 751.47 217.419 696.07C188.039 623.27 188.769 543.39 219.469 471.13C250.169 398.88 307.169 342.9 379.969 313.52C415.209 299.3 452.179 292.09 489.859 292.09C547.769 292.09 604.009 309.06 652.479 341.15C702.099 374.01 740.159 420.67 762.519 476.07C791.899 548.87 791.169 628.75 760.469 701C729.769 773.25 672.769 829.23 599.979 858.61C564.709 872.83 527.739 880.05 490.059 880.05ZM489.849 294.08C452.429 294.08 415.709 301.24 380.709 315.37C308.409 344.55 251.799 400.14 221.299 471.91C190.809 543.67 190.089 623.01 219.269 695.32C241.479 750.35 279.269 796.68 328.549 829.32C376.689 861.2 432.529 878.05 490.059 878.05C527.479 878.05 564.199 870.89 599.209 856.76C671.509 827.58 728.119 771.99 758.609 700.23C789.099 628.47 789.829 549.13 760.649 476.83C738.439 421.8 700.649 375.46 651.359 342.83C603.219 310.94 547.369 294.08 489.849 294.08Z" fill="url(#paint36_linear)"/>
<path d="M469.519 885.07C405.109 885.07 341.389 863.28 290.089 823.71C264.429 803.92 242.389 780.24 224.579 753.33C206.159 725.49 192.689 694.79 184.549 662.1C165.589 585.92 177.419 506.92 217.879 439.64C258.339 372.36 322.569 324.86 398.749 305.9C422.129 300.08 446.089 297.13 469.969 297.13C534.379 297.13 598.099 318.92 649.409 358.49C675.069 378.28 697.109 401.96 714.919 428.87C733.339 456.71 746.819 487.41 754.959 520.1C773.919 596.28 762.089 675.28 721.629 742.56C681.169 809.84 616.939 857.34 540.769 876.3C517.359 882.12 493.389 885.07 469.519 885.07ZM469.949 299.13C446.239 299.13 422.439 302.06 399.219 307.84C323.559 326.68 259.759 373.85 219.579 440.67C179.399 507.49 167.649 585.96 186.479 661.62C194.569 694.1 207.939 724.58 226.239 752.23C243.919 778.95 265.809 802.47 291.299 822.13C342.249 861.43 405.539 883.07 469.509 883.07C493.219 883.07 517.019 880.14 540.249 874.35C615.909 855.52 679.699 808.34 719.879 741.52C760.059 674.7 771.819 596.23 752.979 520.57C744.899 488.09 731.519 457.61 713.219 429.96C695.539 403.24 673.639 379.72 648.159 360.06C597.209 320.77 533.919 299.13 469.949 299.13Z" fill="url(#paint37_linear)"/>
<path d="M448.659 887.2C376.459 887.2 306.939 860.56 252.909 812.19C198.499 763.47 164.329 696.61 156.709 623.91C148.529 545.83 171.239 469.24 220.669 408.25C270.089 347.25 340.309 309.16 418.389 300.98C428.669 299.9 439.099 299.36 449.369 299.36C521.569 299.36 591.089 326 645.119 374.38C699.539 423.1 733.699 489.97 741.319 562.67C749.499 640.74 726.779 717.33 677.359 778.33C627.929 839.33 557.719 877.42 479.649 885.6C469.359 886.65 458.939 887.2 448.659 887.2ZM449.369 301.34C439.159 301.34 428.809 301.88 418.599 302.95C341.059 311.07 271.319 348.91 222.229 409.49C173.139 470.07 150.579 546.14 158.709 623.69C166.279 695.9 200.209 762.31 254.249 810.69C307.909 858.73 376.959 885.19 448.659 885.19C458.869 885.19 469.219 884.65 479.439 883.58C556.979 875.46 626.719 837.62 675.809 777.04C724.899 716.46 747.459 640.39 739.339 562.85C731.769 490.64 697.839 424.23 643.789 375.84C590.119 327.8 521.069 301.34 449.369 301.34Z" fill="url(#paint38_linear)"/>
<path d="M428.38 886.45C424.89 886.45 421.35 886.39 417.85 886.26C339.4 883.5 266.71 850.35 213.19 792.92C159.67 735.49 131.71 660.66 134.47 582.2C137.17 505.58 169.06 434.09 224.26 380.91C279.33 327.85 351.69 298.63 428.01 298.63C431.5 298.63 435.04 298.69 438.54 298.82C516.99 301.58 589.67 334.73 643.2 392.16C696.73 449.59 724.68 524.43 721.92 602.88C719.22 679.5 687.33 750.98 632.13 804.17C577.05 857.23 504.69 886.45 428.38 886.45ZM428.01 300.63C352.21 300.63 280.35 329.65 225.65 382.35C170.83 435.17 139.16 506.17 136.47 582.27C133.73 660.19 161.49 734.52 214.65 791.56C267.81 848.6 340 881.52 417.92 884.27C421.39 884.39 424.91 884.45 428.38 884.45C504.18 884.45 576.04 855.43 630.74 802.74C685.57 749.92 717.24 678.92 719.92 602.82C722.66 524.9 694.9 450.57 641.73 393.53C588.57 336.49 516.38 303.56 438.47 300.82C434.99 300.69 431.47 300.63 428.01 300.63Z" fill="url(#paint39_linear)"/>
<path d="M408.01 882.87C390.88 882.87 373.57 881.35 356.56 878.34C279.25 864.69 211.89 821.75 166.88 757.43C121.87 693.11 104.6 615.11 118.25 537.81C130.34 469.38 166.39 407.27 219.76 362.93C272.52 319.1 339.14 294.96 407.33 294.96C424.46 294.96 441.77 296.48 458.78 299.49C536.08 313.14 603.44 356.08 648.46 420.41C693.47 484.73 710.74 562.73 697.09 640.04C685 708.47 648.95 770.58 595.57 814.92C542.82 858.73 476.21 882.87 408.01 882.87ZM407.34 296.96C339.61 296.96 273.45 320.93 221.05 364.46C168.04 408.5 132.23 470.18 120.22 538.15C106.66 614.93 123.81 692.4 168.52 756.28C213.23 820.16 280.13 862.81 356.91 876.37C373.81 879.35 391 880.87 408.01 880.87C475.74 880.87 541.9 856.9 594.3 813.37C647.31 769.33 683.12 707.65 695.13 639.69C708.69 562.91 691.53 485.44 646.83 421.56C602.12 357.68 535.22 315.03 458.44 301.47C441.54 298.47 424.35 296.96 407.34 296.96Z" fill="url(#paint40_linear)"/>
<path d="M387.909 876.45C357.119 876.45 326.529 871.58 296.969 861.97C222.319 837.69 161.579 785.8 125.959 715.84C90.3386 645.88 84.0886 566.24 108.359 491.59C127.939 431.39 165.429 380.18 216.779 343.48C267.119 307.51 326.259 288.49 387.809 288.49C418.599 288.49 449.189 293.36 478.749 302.97C553.399 327.24 614.129 379.14 649.759 449.1C685.389 519.06 691.639 598.7 667.359 673.36C647.779 733.56 610.289 784.77 558.939 821.47C508.599 857.44 449.459 876.45 387.909 876.45ZM387.809 290.49C326.679 290.49 267.939 309.38 217.949 345.11C166.949 381.56 129.719 432.42 110.269 492.21C86.1586 566.36 92.3686 645.46 127.749 714.94C163.129 784.42 223.449 835.96 297.599 860.07C326.949 869.62 357.339 874.46 387.919 874.46C449.049 874.46 507.789 855.58 557.789 819.85C608.789 783.4 646.029 732.54 665.469 672.75C689.579 598.6 683.369 519.5 647.989 450.02C612.609 380.54 552.289 328.99 478.149 304.88C448.779 295.33 418.389 290.49 387.809 290.49Z" fill="url(#paint41_linear)"/>
<path d="M368.909 867.3C324.099 867.3 280.809 857.26 240.239 837.47C169.689 803.04 116.769 743.2 91.2292 668.97C65.6892 594.74 70.5792 515 105.009 444.45C129.629 394.01 167.829 351.93 215.479 322.77C261.869 294.38 315.079 279.37 369.359 279.37C414.169 279.37 457.459 289.41 498.029 309.21C568.579 343.64 621.499 403.48 647.039 477.71C672.579 551.95 667.689 631.69 633.259 702.24C608.649 752.68 570.439 794.75 522.789 823.91C476.399 852.29 423.189 867.3 368.909 867.3ZM369.359 281.36C315.449 281.36 262.599 296.26 216.519 324.46C169.189 353.42 131.249 395.21 106.799 445.31C72.6092 515.38 67.7492 594.57 93.1092 668.3C118.479 742.03 171.039 801.46 241.109 835.66C281.399 855.32 324.399 865.29 368.899 865.29C422.809 865.29 475.659 850.39 521.739 822.19C569.069 793.23 607.009 751.44 631.459 701.34C665.649 631.27 670.509 552.07 645.139 478.34C619.769 404.61 567.209 345.17 497.139 310.98C456.859 291.33 413.869 281.36 369.359 281.36Z" fill="url(#paint42_linear)"/>
<path d="M351.589 855.61C292.989 855.61 236.239 838.22 187.469 805.31C122.399 761.4 78.3194 694.78 63.3494 617.71C48.3894 540.64 64.3294 462.37 108.239 397.29C162.979 316.17 254.149 267.75 352.139 267.75C410.739 267.75 467.489 285.14 516.259 318.05C581.329 361.96 625.409 428.58 640.369 505.65C655.329 582.72 639.389 661 595.479 726.07C540.759 807.19 449.579 855.61 351.589 855.61ZM352.139 269.75C254.819 269.75 164.259 317.85 109.889 398.41C66.2794 463.04 50.4494 540.79 65.3094 617.33C80.1694 693.87 123.949 760.04 188.579 803.65C237.019 836.33 293.379 853.61 351.579 853.61C448.899 853.61 539.459 805.52 593.819 724.96C637.429 660.33 653.259 582.58 638.399 506.04C623.539 429.5 579.759 363.33 515.129 319.72C466.709 287.02 410.339 269.75 352.139 269.75Z" fill="url(#paint43_linear)"/>
<path d="M336.29 841.64C263.58 841.64 193.76 814.82 139.69 766.12C81.3598 713.58 46.9798 641.47 42.8798 563.08C38.7798 484.68 65.4598 409.38 118 351.05C146.37 319.56 180.3 295.07 218.86 278.28C256.11 262.06 295.69 253.83 336.48 253.83C409.19 253.83 479.01 280.65 533.07 329.35C591.4 381.89 625.78 453.99 629.87 532.4C633.97 610.8 607.29 686.1 554.75 744.43C526.38 775.92 492.45 800.4 453.89 817.19C416.65 833.41 377.08 841.64 336.29 841.64ZM336.49 255.83C295.97 255.83 256.67 264 219.66 280.11C181.36 296.78 147.66 321.1 119.49 352.38C67.3098 410.31 40.8098 485.1 44.8798 562.97C48.9498 640.84 83.0898 712.45 141.03 764.63C194.73 813 264.07 839.64 336.29 839.64C376.81 839.64 416.11 831.47 453.11 815.36C491.4 798.69 525.11 774.37 553.28 743.09C605.46 685.16 631.96 610.37 627.89 532.5C623.82 454.63 589.68 383.01 531.75 330.84C478.04 282.47 408.7 255.83 336.49 255.83Z" fill="url(#paint44_linear)"/>
<path d="M323.149 825.68C235.939 825.68 153.809 787.4 97.8288 720.66C47.3787 660.52 23.3688 584.33 30.2188 506.12C37.0688 427.91 73.9688 357.06 134.109 306.61C186.959 262.28 253.989 237.87 322.849 237.87C410.059 237.87 492.179 276.15 548.169 342.89C598.619 403.03 622.629 479.22 615.779 557.43C608.929 635.64 572.029 706.5 511.889 756.95C459.039 801.27 392.009 825.68 323.149 825.68ZM322.849 239.87C254.449 239.87 187.879 264.12 135.389 308.15C75.6587 358.25 39.0087 428.62 32.1987 506.3C25.3887 583.97 49.2388 659.65 99.3488 719.38C154.959 785.67 236.529 823.68 323.139 823.68C391.539 823.68 458.099 799.43 510.589 755.41C570.319 705.3 606.969 634.92 613.779 557.25C620.589 479.57 596.739 403.9 546.629 344.17C491.029 277.88 409.459 239.87 322.849 239.87Z" fill="url(#paint45_linear)"/>
<path d="M312.24 808.04C263.27 808.04 214.64 795.71 171.62 772.39C127.26 748.34 89.5904 712.87 62.6904 669.82C21.1004 603.24 7.92037 524.45 25.5904 447.96C43.2604 371.47 89.6604 306.44 156.23 264.85C203.02 235.62 256.77 220.17 311.68 220.17C360.65 220.17 409.28 232.5 452.29 255.81C496.65 279.86 534.32 315.33 561.21 358.38C602.8 424.96 615.98 503.75 598.31 580.24C580.64 656.74 534.24 721.77 467.66 763.36C420.88 792.59 367.13 808.04 312.24 808.04ZM311.68 222.16C257.15 222.16 203.77 237.51 157.29 266.54C91.1604 307.85 45.0804 372.44 27.5304 448.41C9.98037 524.38 23.0704 602.64 64.3804 668.76C91.0904 711.52 128.5 746.75 172.56 770.63C215.29 793.79 263.59 806.04 312.23 806.04C366.75 806.04 420.13 790.7 466.6 761.67C532.72 720.36 578.81 655.77 596.36 579.79C613.91 503.82 600.82 425.56 559.52 359.44C532.81 316.68 495.4 281.45 451.34 257.56C408.61 234.4 360.32 222.16 311.68 222.16Z" fill="url(#paint46_linear)"/>
<path d="M303.65 789.04C247.56 789.04 192.83 773.07 145.38 742.86C96.7198 711.87 58.5398 667.52 34.9798 614.59C3.0498 542.87 0.969797 463.01 29.1098 389.72C57.2498 316.43 112.24 258.49 183.96 226.56C221.93 209.66 262.09 201.09 303.32 201.09C359.41 201.09 414.14 217.06 461.59 247.27C510.25 278.26 548.43 322.61 571.99 375.54C603.91 447.25 606 527.11 577.86 600.4C549.71 673.7 494.71 731.65 423 763.57C385.03 780.47 344.87 789.04 303.65 789.04ZM303.32 203.09C262.37 203.09 222.49 211.6 184.77 228.39C113.54 260.1 58.9198 317.65 30.9698 390.44C3.0198 463.23 5.0898 542.55 36.7998 613.78C60.1998 666.35 98.1098 710.4 146.45 741.18C193.58 771.19 247.94 787.05 303.65 787.05C344.59 787.05 384.47 778.54 422.18 761.75C493.41 730.04 548.03 672.49 575.98 599.7C603.93 526.91 601.86 447.59 570.15 376.37C546.75 323.8 508.83 279.75 460.5 248.97C413.38 218.96 359.03 203.09 303.32 203.09Z" fill="url(#paint47_linear)"/>
<path d="M297.599 769.01C235.069 769.01 172.829 748.37 122.349 710.88C70.2095 672.16 33.1595 618.62 15.2195 556.03C-6.42054 480.57 2.62945 401.2 40.6995 332.53C78.7595 263.87 141.289 214.14 216.749 192.51C243.269 184.91 270.569 181.05 297.889 181.05C360.419 181.05 422.659 201.69 473.139 239.17C525.279 277.88 562.329 331.43 580.269 394.03C601.899 469.49 592.859 548.86 554.789 617.52C516.719 686.18 454.199 735.91 378.739 757.55C352.219 765.16 324.919 769.01 297.599 769.01ZM297.879 183.06C270.739 183.06 243.629 186.89 217.289 194.44C142.339 215.93 80.2395 265.32 42.4395 333.51C4.62946 401.7 -4.35054 480.54 17.1395 555.48C34.9595 617.64 71.7595 670.83 123.539 709.28C173.679 746.51 235.499 767.01 297.599 767.01C324.729 767.01 351.849 763.18 378.179 755.63C453.129 734.14 515.229 684.75 553.029 616.56C590.839 548.36 599.819 469.53 578.339 394.59C560.519 332.42 523.719 279.24 471.939 240.79C421.799 203.56 359.979 183.06 297.879 183.06Z" fill="url(#paint48_linear)"/>
<path d="M294.47 748.34C224.29 748.34 156.22 722.97 102.8 676.89C48.8699 630.38 13.7099 565.89 3.78994 495.3C-7.13006 417.56 12.8699 340.22 60.1199 277.52C107.37 214.82 176.2 174.28 253.94 163.36C267.61 161.44 281.5 160.46 295.2 160.46C365.38 160.46 433.45 185.83 486.87 231.9C540.8 278.4 575.96 342.9 585.88 413.5C596.8 491.24 576.8 568.58 529.55 631.27C482.3 693.97 413.47 734.51 335.73 745.44C322.06 747.37 308.18 748.34 294.47 748.34ZM295.2 162.47C281.59 162.47 267.8 163.44 254.22 165.35C177.01 176.2 108.64 216.47 61.7199 278.73C14.7899 341 -5.08006 417.81 5.76994 495.02C15.6199 565.14 50.5499 629.19 104.1 675.38C157.16 721.14 224.77 746.34 294.47 746.34C308.08 746.34 321.87 745.37 335.45 743.46C412.66 732.61 481.03 692.34 527.95 630.07C574.88 567.8 594.75 490.99 583.9 413.78C574.05 343.66 539.12 279.61 485.57 233.42C432.51 187.67 364.9 162.47 295.2 162.47Z" fill="url(#paint49_linear)"/>
<path d="M294.83 727.47C216.33 727.47 142.53 696.9 87.0097 641.38C31.4997 585.87 0.929688 512.07 0.929688 433.57C0.929688 355.07 31.4997 281.26 87.0097 225.75C142.52 170.24 216.33 139.67 294.83 139.67C373.33 139.67 447.14 170.24 502.65 225.75C558.16 281.26 588.74 355.07 588.74 433.57C588.74 512.07 558.17 585.87 502.65 641.39C447.14 696.9 373.34 727.47 294.83 727.47ZM294.83 141.67C216.86 141.67 143.56 172.03 88.4297 227.17C33.2997 282.3 2.92969 355.6 2.92969 433.57C2.92969 511.53 33.2997 584.84 88.4297 639.97C143.57 695.11 216.87 725.47 294.83 725.47C372.8 725.47 446.1 695.11 501.24 639.97C556.38 584.83 586.74 511.53 586.74 433.57C586.74 355.6 556.37 282.3 501.24 227.17C446.11 172.03 372.8 141.67 294.83 141.67Z" fill="url(#paint50_linear)"/>
<defs>
<linearGradient id="paint0_linear" x1="29.2062" y1="531.723" x2="616.888" y2="531.723" gradientUnits="userSpaceOnUse">
<stop stop-color="#00CE7C"/>
<stop offset="0.317708" stop-color="#5CC3B0"/>
<stop offset="0.71875" stop-color="#00A1DE"/>
<stop offset="1" stop-color="#005971"/>
</linearGradient>
<linearGradient id="paint1_linear" x1="18.1048" y1="514.043" x2="605.984" y2="514.043" gradientUnits="userSpaceOnUse">
<stop stop-color="#00CE7C"/>
<stop offset="0.317708" stop-color="#5CC3B0"/>
<stop offset="0.71875" stop-color="#00A1DE"/>
<stop offset="1" stop-color="#005971"/>
</linearGradient>
<linearGradient id="paint2_linear" x1="9.60675" y1="494.993" x2="597.584" y2="494.993" gradientUnits="userSpaceOnUse">
<stop stop-color="#00CE7C"/>
<stop offset="0.317708" stop-color="#5CC3B0"/>
<stop offset="0.71875" stop-color="#00A1DE"/>
<stop offset="1" stop-color="#005971"/>
</linearGradient>
<linearGradient id="paint3_linear" x1="3.91727" y1="474.963" x2="591.825" y2="474.963" gradientUnits="userSpaceOnUse">
<stop stop-color="#00CE7C"/>
<stop offset="0.317708" stop-color="#5CC3B0"/>
<stop offset="0.71875" stop-color="#00A1DE"/>
<stop offset="1" stop-color="#005971"/>
</linearGradient>
<linearGradient id="paint4_linear" x1="1.11838" y1="454.318" x2="588.887" y2="454.318" gradientUnits="userSpaceOnUse">
<stop stop-color="#00CE7C"/>
<stop offset="0.317708" stop-color="#5CC3B0"/>
<stop offset="0.71875" stop-color="#00A1DE"/>
<stop offset="1" stop-color="#005971"/>
</linearGradient>
<linearGradient id="paint5_linear" x1="1.20231" y1="433.483" x2="588.858" y2="433.483" gradientUnits="userSpaceOnUse">
<stop stop-color="#00CE7C"/>
<stop offset="0.317708" stop-color="#5CC3B0"/>
<stop offset="0.71875" stop-color="#00A1DE"/>
<stop offset="1" stop-color="#005971"/>
</linearGradient>
<linearGradient id="paint6_linear" x1="4.0676" y1="412.858" x2="591.833" y2="412.858" gradientUnits="userSpaceOnUse">
<stop stop-color="#00CE7C"/>
<stop offset="0.317708" stop-color="#5CC3B0"/>
<stop offset="0.71875" stop-color="#00A1DE"/>
<stop offset="1" stop-color="#005971"/>
</linearGradient>
<linearGradient id="paint7_linear" x1="9.75907" y1="392.833" x2="597.684" y2="392.833" gradientUnits="userSpaceOnUse">
<stop stop-color="#00CE7C"/>
<stop offset="0.317708" stop-color="#5CC3B0"/>
<stop offset="0.71875" stop-color="#00A1DE"/>
<stop offset="1" stop-color="#005971"/>
</linearGradient>
<linearGradient id="paint8_linear" x1="18.2317" y1="373.808" x2="606.184" y2="373.808" gradientUnits="userSpaceOnUse">
<stop stop-color="#00CE7C"/>
<stop offset="0.317708" stop-color="#5CC3B0"/>
<stop offset="0.71875" stop-color="#00A1DE"/>
<stop offset="1" stop-color="#005971"/>
</linearGradient>
<linearGradient id="paint9_linear" x1="29.3411" y1="356.153" x2="617.209" y2="356.153" gradientUnits="userSpaceOnUse">
<stop stop-color="#00CE7C"/>
<stop offset="0.317708" stop-color="#5CC3B0"/>
<stop offset="0.71875" stop-color="#00A1DE"/>
<stop offset="1" stop-color="#005971"/>
</linearGradient>
<linearGradient id="paint10_linear" x1="42.8351" y1="340.213" x2="630.524" y2="340.213" gradientUnits="userSpaceOnUse">
<stop stop-color="#00CE7C"/>
<stop offset="0.317708" stop-color="#5CC3B0"/>
<stop offset="0.71875" stop-color="#00A1DE"/>
<stop offset="1" stop-color="#005971"/>
</linearGradient>
<linearGradient id="paint11_linear" x1="58.3527" y1="326.288" x2="646.007" y2="326.288" gradientUnits="userSpaceOnUse">
<stop stop-color="#00CE7C"/>
<stop offset="0.317708" stop-color="#5CC3B0"/>
<stop offset="0.71875" stop-color="#00A1DE"/>
<stop offset="1" stop-color="#005971"/>
</linearGradient>
<linearGradient id="paint12_linear" x1="75.5559" y1="314.648" x2="663.374" y2="314.648" gradientUnits="userSpaceOnUse">
<stop stop-color="#00CE7C"/>
<stop offset="0.317708" stop-color="#5CC3B0"/>
<stop offset="0.71875" stop-color="#00A1DE"/>
<stop offset="1" stop-color="#005971"/>
</linearGradient>
<linearGradient id="paint13_linear" x1="94.2356" y1="305.523" x2="682.176" y2="305.523" gradientUnits="userSpaceOnUse">
<stop stop-color="#00CE7C"/>
<stop offset="0.317708" stop-color="#5CC3B0"/>
<stop offset="0.71875" stop-color="#00A1DE"/>
<stop offset="1" stop-color="#005971"/>
</linearGradient>
<linearGradient id="paint14_linear" x1="114.058" y1="299.113" x2="701.993" y2="299.113" gradientUnits="userSpaceOnUse">
<stop stop-color="#00CE7C"/>
<stop offset="0.317708" stop-color="#5CC3B0"/>
<stop offset="0.71875" stop-color="#00A1DE"/>
<stop offset="1" stop-color="#005971"/>
</linearGradient>
<linearGradient id="paint15_linear" x1="134.638" y1="295.513" x2="722.432" y2="295.513" gradientUnits="userSpaceOnUse">
<stop stop-color="#00CE7C"/>
<stop offset="0.317708" stop-color="#5CC3B0"/>
<stop offset="0.71875" stop-color="#00A1DE"/>
<stop offset="1" stop-color="#005971"/>
</linearGradient>
<linearGradient id="paint16_linear" x1="155.538" y1="294.813" x2="743.193" y2="294.813" gradientUnits="userSpaceOnUse">
<stop stop-color="#00CE7C"/>
<stop offset="0.317708" stop-color="#5CC3B0"/>
<stop offset="0.71875" stop-color="#00A1DE"/>
<stop offset="1" stop-color="#005971"/>
</linearGradient>
<linearGradient id="paint17_linear" x1="176.23" y1="297.003" x2="763.95" y2="297.003" gradientUnits="userSpaceOnUse">
<stop stop-color="#00CE7C"/>
<stop offset="0.317708" stop-color="#5CC3B0"/>
<stop offset="0.71875" stop-color="#00A1DE"/>
<stop offset="1" stop-color="#005971"/>
</linearGradient>
<linearGradient id="paint18_linear" x1="196.361" y1="302.063" x2="784.242" y2="302.063" gradientUnits="userSpaceOnUse">
<stop stop-color="#00CE7C"/>
<stop offset="0.317708" stop-color="#5CC3B0"/>
<stop offset="0.71875" stop-color="#00A1DE"/>
<stop offset="1" stop-color="#005971"/>
</linearGradient>
<linearGradient id="paint19_linear" x1="215.63" y1="309.878" x2="803.598" y2="309.878" gradientUnits="userSpaceOnUse">
<stop stop-color="#00CE7C"/>
<stop offset="0.317708" stop-color="#5CC3B0"/>
<stop offset="0.71875" stop-color="#00A1DE"/>
<stop offset="1" stop-color="#005971"/>
</linearGradient>
<linearGradient id="paint20_linear" x1="233.7" y1="320.318" x2="821.599" y2="320.318" gradientUnits="userSpaceOnUse">
<stop stop-color="#00CE7C"/>
<stop offset="0.317708" stop-color="#5CC3B0"/>
<stop offset="0.71875" stop-color="#00A1DE"/>
<stop offset="1" stop-color="#005971"/>
</linearGradient>
<linearGradient id="paint21_linear" x1="250.185" y1="333.153" x2="837.927" y2="333.153" gradientUnits="userSpaceOnUse">
<stop stop-color="#00CE7C"/>
<stop offset="0.317708" stop-color="#5CC3B0"/>
<stop offset="0.71875" stop-color="#00A1DE"/>
<stop offset="1" stop-color="#005971"/>
</linearGradient>
<linearGradient id="paint22_linear" x1="264.693" y1="348.148" x2="852.348" y2="348.148" gradientUnits="userSpaceOnUse">
<stop stop-color="#00CE7C"/>
<stop offset="0.317708" stop-color="#5CC3B0"/>
<stop offset="0.71875" stop-color="#00A1DE"/>
<stop offset="1" stop-color="#005971"/>
</linearGradient>
<linearGradient id="paint23_linear" x1="276.864" y1="365.018" x2="864.639" y2="365.018" gradientUnits="userSpaceOnUse">
<stop stop-color="#00CE7C"/>
<stop offset="0.317708" stop-color="#5CC3B0"/>
<stop offset="0.71875" stop-color="#00A1DE"/>
<stop offset="1" stop-color="#005971"/>
</linearGradient>
<linearGradient id="paint24_linear" x1="286.554" y1="383.418" x2="874.498" y2="383.418" gradientUnits="userSpaceOnUse">
<stop stop-color="#00CE7C"/>
<stop offset="0.317708" stop-color="#5CC3B0"/>
<stop offset="0.71875" stop-color="#00A1DE"/>
<stop offset="1" stop-color="#005971"/>
</linearGradient>
<linearGradient id="paint25_linear" x1="293.652" y1="403.003" x2="881.63" y2="403.003" gradientUnits="userSpaceOnUse">
<stop stop-color="#00CE7C"/>
<stop offset="0.317708" stop-color="#5CC3B0"/>
<stop offset="0.71875" stop-color="#00A1DE"/>
<stop offset="1" stop-color="#005971"/>
</linearGradient>
<linearGradient id="paint26_linear" x1="298.032" y1="423.388" x2="885.878" y2="423.388" gradientUnits="userSpaceOnUse">
<stop stop-color="#00CE7C"/>
<stop offset="0.317708" stop-color="#5CC3B0"/>
<stop offset="0.71875" stop-color="#00A1DE"/>
<stop offset="1" stop-color="#005971"/>
</linearGradient>
<linearGradient id="paint27_linear" x1="299.552" y1="444.178" x2="887.239" y2="444.178" gradientUnits="userSpaceOnUse">
<stop stop-color="#00CE7C"/>
<stop offset="0.317708" stop-color="#5CC3B0"/>
<stop offset="0.71875" stop-color="#00A1DE"/>
<stop offset="1" stop-color="#005971"/>
</linearGradient>
<linearGradient id="paint28_linear" x1="298.085" y1="464.953" x2="885.783" y2="464.953" gradientUnits="userSpaceOnUse">
<stop stop-color="#00CE7C"/>
<stop offset="0.317708" stop-color="#5CC3B0"/>
<stop offset="0.71875" stop-color="#00A1DE"/>
<stop offset="1" stop-color="#005971"/>
</linearGradient>
<linearGradient id="paint29_linear" x1="293.665" y1="485.328" x2="881.525" y2="485.328" gradientUnits="userSpaceOnUse">
<stop stop-color="#00CE7C"/>
<stop offset="0.317708" stop-color="#5CC3B0"/>
<stop offset="0.71875" stop-color="#00A1DE"/>
<stop offset="1" stop-color="#005971"/>
</linearGradient>
<linearGradient id="paint30_linear" x1="286.466" y1="504.908" x2="874.426" y2="504.908" gradientUnits="userSpaceOnUse">
<stop stop-color="#00CE7C"/>
<stop offset="0.317708" stop-color="#5CC3B0"/>
<stop offset="0.71875" stop-color="#00A1DE"/>
<stop offset="1" stop-color="#005971"/>
</linearGradient>
<linearGradient id="paint31_linear" x1="276.689" y1="523.298" x2="864.621" y2="523.298" gradientUnits="userSpaceOnUse">
<stop stop-color="#00CE7C"/>
<stop offset="0.317708" stop-color="#5CC3B0"/>
<stop offset="0.71875" stop-color="#00A1DE"/>
<stop offset="1" stop-color="#005971"/>
</linearGradient>
<linearGradient id="paint32_linear" x1="264.517" y1="540.158" x2="852.292" y2="540.158" gradientUnits="userSpaceOnUse">
<stop stop-color="#00CE7C"/>
<stop offset="0.317708" stop-color="#5CC3B0"/>
<stop offset="0.71875" stop-color="#00A1DE"/>
<stop offset="1" stop-color="#005971"/>
</linearGradient>
<linearGradient id="paint33_linear" x1="250.099" y1="555.133" x2="837.742" y2="555.133" gradientUnits="userSpaceOnUse">
<stop stop-color="#00CE7C"/>
<stop offset="0.317708" stop-color="#5CC3B0"/>
<stop offset="0.71875" stop-color="#00A1DE"/>
<stop offset="1" stop-color="#005971"/>
</linearGradient>
<linearGradient id="paint34_linear" x1="233.632" y1="567.958" x2="821.378" y2="567.958" gradientUnits="userSpaceOnUse">
<stop stop-color="#00CE7C"/>
<stop offset="0.317708" stop-color="#5CC3B0"/>
<stop offset="0.71875" stop-color="#00A1DE"/>
<stop offset="1" stop-color="#005971"/>
</linearGradient>
<linearGradient id="paint35_linear" x1="215.511" y1="578.363" x2="803.41" y2="578.363" gradientUnits="userSpaceOnUse">
<stop stop-color="#00CE7C"/>
<stop offset="0.317708" stop-color="#5CC3B0"/>
<stop offset="0.71875" stop-color="#00A1DE"/>
<stop offset="1" stop-color="#005971"/>
</linearGradient>
<linearGradient id="paint36_linear" x1="196.156" y1="586.168" x2="784.135" y2="586.168" gradientUnits="userSpaceOnUse">
<stop stop-color="#00CE7C"/>
<stop offset="0.317708" stop-color="#5CC3B0"/>
<stop offset="0.71875" stop-color="#00A1DE"/>
<stop offset="1" stop-color="#005971"/>
</linearGradient>
<linearGradient id="paint37_linear" x1="175.982" y1="591.198" x2="763.878" y2="591.198" gradientUnits="userSpaceOnUse">
<stop stop-color="#00CE7C"/>
<stop offset="0.317708" stop-color="#5CC3B0"/>
<stop offset="0.71875" stop-color="#00A1DE"/>
<stop offset="1" stop-color="#005971"/>
</linearGradient>
<linearGradient id="paint38_linear" x1="155.327" y1="593.378" x2="743.051" y2="593.378" gradientUnits="userSpaceOnUse">
<stop stop-color="#00CE7C"/>
<stop offset="0.317708" stop-color="#5CC3B0"/>
<stop offset="0.71875" stop-color="#00A1DE"/>
<stop offset="1" stop-color="#005971"/>
</linearGradient>
<linearGradient id="paint39_linear" x1="134.536" y1="592.638" x2="722.205" y2="592.638" gradientUnits="userSpaceOnUse">
<stop stop-color="#00CE7C"/>
<stop offset="0.317708" stop-color="#5CC3B0"/>
<stop offset="0.71875" stop-color="#00A1DE"/>
<stop offset="1" stop-color="#005971"/>
</linearGradient>
<linearGradient id="paint40_linear" x1="113.948" y1="589.013" x2="701.742" y2="589.013" gradientUnits="userSpaceOnUse">
<stop stop-color="#00CE7C"/>
<stop offset="0.317708" stop-color="#5CC3B0"/>
<stop offset="0.71875" stop-color="#00A1DE"/>
<stop offset="1" stop-color="#005971"/>
</linearGradient>
<linearGradient id="paint41_linear" x1="94.0638" y1="582.568" x2="682.012" y2="582.568" gradientUnits="userSpaceOnUse">
<stop stop-color="#00CE7C"/>
<stop offset="0.317708" stop-color="#5CC3B0"/>
<stop offset="0.71875" stop-color="#00A1DE"/>
<stop offset="1" stop-color="#005971"/>
</linearGradient>
<linearGradient id="paint42_linear" x1="75.3392" y1="573.433" x2="663.281" y2="573.433" gradientUnits="userSpaceOnUse">
<stop stop-color="#00CE7C"/>
<stop offset="0.317708" stop-color="#5CC3B0"/>
<stop offset="0.71875" stop-color="#00A1DE"/>
<stop offset="1" stop-color="#005971"/>
</linearGradient>
<linearGradient id="paint43_linear" x1="58.1282" y1="561.778" x2="645.942" y2="561.778" gradientUnits="userSpaceOnUse">
<stop stop-color="#00CE7C"/>
<stop offset="0.317708" stop-color="#5CC3B0"/>
<stop offset="0.71875" stop-color="#00A1DE"/>
<stop offset="1" stop-color="#005971"/>
</linearGradient>
<linearGradient id="paint44_linear" x1="42.7218" y1="547.833" x2="630.379" y2="547.833" gradientUnits="userSpaceOnUse">
<stop stop-color="#00CE7C"/>
<stop offset="0.317708" stop-color="#5CC3B0"/>
<stop offset="0.71875" stop-color="#00A1DE"/>
<stop offset="1" stop-color="#005971"/>
</linearGradient>
<linearGradient id="paint45_linear" x1="29.3254" y1="531.873" x2="617.024" y2="531.873" gradientUnits="userSpaceOnUse">
<stop stop-color="#00CE7C"/>
<stop offset="0.317708" stop-color="#5CC3B0"/>
<stop offset="0.71875" stop-color="#00A1DE"/>
<stop offset="1" stop-color="#005971"/>
</linearGradient>
<linearGradient id="paint46_linear" x1="18.1946" y1="514.203" x2="606.058" y2="514.203" gradientUnits="userSpaceOnUse">
<stop stop-color="#00CE7C"/>
<stop offset="0.317708" stop-color="#5CC3B0"/>
<stop offset="0.71875" stop-color="#00A1DE"/>
<stop offset="1" stop-color="#005971"/>
</linearGradient>
<linearGradient id="paint47_linear" x1="9.67315" y1="495.163" x2="597.645" y2="495.163" gradientUnits="userSpaceOnUse">
<stop stop-color="#00CE7C"/>
<stop offset="0.317708" stop-color="#5CC3B0"/>
<stop offset="0.71875" stop-color="#00A1DE"/>
<stop offset="1" stop-color="#005971"/>
</linearGradient>
<linearGradient id="paint48_linear" x1="3.95438" y1="475.128" x2="591.882" y2="475.128" gradientUnits="userSpaceOnUse">
<stop stop-color="#00CE7C"/>
<stop offset="0.317708" stop-color="#5CC3B0"/>
<stop offset="0.71875" stop-color="#00A1DE"/>
<stop offset="1" stop-color="#005971"/>
</linearGradient>
<linearGradient id="paint49_linear" x1="1.13009" y1="454.498" x2="588.891" y2="454.498" gradientUnits="userSpaceOnUse">
<stop stop-color="#00CE7C"/>
<stop offset="0.317708" stop-color="#5CC3B0"/>
<stop offset="0.71875" stop-color="#00A1DE"/>
<stop offset="1" stop-color="#005971"/>
</linearGradient>
<linearGradient id="paint50_linear" x1="1.18278" y1="433.668" x2="588.838" y2="433.668" gradientUnits="userSpaceOnUse">
<stop stop-color="#00CE7C"/>
<stop offset="0.317708" stop-color="#5CC3B0"/>
<stop offset="0.71875" stop-color="#00A1DE"/>
<stop offset="1" stop-color="#005971"/>
</linearGradient>
</defs>
</svg>
