<svg width="117" height="140" viewBox="0 0 117 140" fill="none" xmlns="http://www.w3.org/2000/svg">
<path d="M58.4999 32.7761C26.601 32.7761 0.740234 50.2788 0.740234 71.892C0.740234 93.4907 26.601 140 58.4999 140C90.3987 140 116.26 93.5053 116.26 71.892C116.26 50.2788 90.3987 32.7761 58.4999 32.7761Z" fill="#E30613"/>
<path fill-rule="evenodd" clip-rule="evenodd" d="M64.8585 33.4591C64.482 33.401 63.8883 33.3719 63.0051 33.2557C61.1082 32.9071 58.2123 34.3306 57.3724 33.8657C57.9371 33.0959 59.0666 33.5898 59.834 32.9216C59.0811 33.0233 58.1254 32.878 57.3869 32.878C56.3154 32.878 55.0267 33.2557 54.2014 32.878C54.4041 32.3116 55.7363 32.7473 56.1272 32.3987C56.272 32.0501 56.1996 31.9485 56.1272 31.5998C54.5055 30.0311 53.3905 26.6759 52.8982 25.8915C50.6104 25.4267 49.9878 24.2938 49.2493 24.0033C46.6575 23.7563 44.6158 25.9206 42.2411 25.906C42.3859 24.3664 43.8339 24.1485 44.4855 23.1318C43.9063 22.9429 43.6746 22.8994 43.4284 22.8703C42.5452 23.2189 41.8357 23.7418 40.7787 23.9306C40.9235 23.2915 41.4158 22.972 41.8357 22.6089C40.1705 22.4346 38.5488 21.9698 36.6954 21.8826C33.6546 21.7228 30.3822 22.7105 27.9497 22.8848C27.4139 22.9284 26.5017 23.0446 26.2266 22.3474C31.7578 20.9385 36.6809 20.1977 41.6909 18.629C43.1534 18.1787 44.8909 17.4525 46.0493 16.6391C46.9615 16.0145 47.7434 15.0704 48.6846 14.3877C51.3923 12.3978 54.6358 10.3062 57.2711 8.28718C59.9064 6.2682 60.4856 0.821311 65.0612 0.603436C66.1037 0.559861 67.1173 1.09729 68.1019 1.25706C69.101 0.734162 70.6069 -0.471415 71.939 0.196737C71.0268 2.11404 69.0866 1.22801 68.2467 4.97547C67.2476 6.97993 68.6232 8.62125 68.377 12.6592C68.0006 18.9631 63.787 22.42 58.3281 24.4535C56.2141 27.8524 60.1381 30.1183 61.3689 32.2825C62.4548 32.1227 63.0051 32.5875 63.5119 32.7183C64.0042 32.8345 65.6114 32.8926 66.9291 32.9361C66.9725 33.3428 65.8431 33.6043 64.8585 33.4591ZM54.6792 25.6301C54.2014 26.8647 54.9109 27.9686 55.6059 29.3485C56.5326 31.1786 57.6476 32.849 60.0946 32.3987C59.0666 30.0747 57.3435 28.4334 55.8666 26.5597C55.8666 26.2111 55.939 25.5284 55.939 25.1798C55.3887 25.4558 55.186 25.5429 54.6792 25.6301Z" fill="black"/>
<path d="M36.8105 112.504L33.263 112.621C33.0313 112.621 32.8141 112.621 32.5824 112.621C28.7598 112.621 24.9082 111.604 24.9082 105.823V87.1146C24.9082 86.5046 25.4005 86.0107 26.0086 86.0107H29.9471C30.5553 86.0107 31.0476 86.5046 31.0476 87.1146V105.896C31.0476 107.101 32.0757 107.711 33.2775 107.711H36.825C37.4331 107.711 37.9255 108.205 37.9255 108.815V111.4C37.911 112.011 37.4187 112.504 36.8105 112.504Z" fill="white"/>
<path d="M45.4057 112.46H41.0907C40.4826 112.46 39.9902 111.966 39.9902 111.356V87.1139C39.9902 86.5039 40.4826 86.01 41.0907 86.01H45.4057C46.0138 86.01 46.5061 86.5039 46.5061 87.1139V111.356C46.5061 111.966 46.0138 112.46 45.4057 112.46Z" fill="white"/>
<path d="M62.2078 112.504L58.6458 112.62C58.4141 112.62 58.1969 112.62 57.9653 112.62C54.1426 112.62 50.291 111.603 50.291 105.822V87.1139C50.291 86.5039 50.7833 86.01 51.3914 86.01H55.3299C55.9381 86.01 56.4304 86.5039 56.4304 87.1139V105.895C56.4304 107.1 57.4585 107.71 58.6603 107.71H62.2223C62.8305 107.71 63.3228 108.204 63.3228 108.814V111.4C63.3083 112.01 62.816 112.504 62.2078 112.504Z" fill="white"/>
<path d="M77.3114 112.504L73.7493 112.62C73.5321 112.62 73.3004 112.62 73.0688 112.62C69.2461 112.62 65.3945 111.603 65.3945 105.822V87.1139C65.3945 86.5039 65.8869 86.01 66.495 86.01H70.4335C71.0416 86.01 71.5339 86.5039 71.5339 87.1139V105.895C71.5339 107.1 72.562 107.71 73.7638 107.71H77.3258C77.934 107.71 78.4263 108.204 78.4263 108.814V111.4C78.4118 112.01 77.9195 112.504 77.3114 112.504Z" fill="white"/>
<path d="M97.003 87.5643L90.6029 101.29C90.2554 102.017 90.1106 102.423 90.1106 103.266V111.313C90.1106 111.923 89.6183 112.446 89.0102 112.446H85.0717C84.4635 112.446 83.9712 111.908 83.9712 111.313V103.237C83.9712 102.365 83.783 101.871 83.4789 101.261L77.0064 87.5643C76.934 87.4045 76.8906 87.2593 76.8906 87.0995C76.8906 86.4604 77.6146 85.9956 78.1069 85.9956H82.002C82.6101 85.9956 83.2183 86.4459 83.4354 87.0559L86.3169 94.4201C86.5052 94.8849 86.7658 95.1028 87.0409 95.1028C87.3016 95.1028 87.5622 94.9285 87.7504 94.4927L90.6319 87.0269C90.8925 86.4604 91.5007 85.9956 92.1088 85.9956H96.0039C96.4528 85.9956 97.1333 86.3297 97.1333 86.9833C97.1478 87.1867 97.1043 87.3464 97.003 87.5643Z" fill="white"/>
<path d="M42.3666 81.8853H38.0516C37.4435 81.8853 36.9512 81.3914 36.9512 80.7814V56.5246C36.9512 55.929 37.4435 55.4207 38.0516 55.4207H42.3666C42.9747 55.4207 43.4671 55.9145 43.4671 56.5246V80.7814C43.4671 81.3914 42.9747 81.8853 42.3666 81.8853Z" fill="white"/>
<path d="M55.4286 82.3072C51.1137 82.3072 46.8711 81.3921 46.8711 75.2916V61.9721C46.8711 55.9007 51.1137 54.9856 55.4286 54.9856C59.7001 54.9856 63.9427 55.8571 63.9427 61.9721V63.4537C63.9427 64.0637 63.4504 64.5576 62.8422 64.5576H58.8748C58.2667 64.5576 57.7454 64.0637 57.7454 63.4537V61.5509C57.7454 60.3453 56.616 59.7353 55.3997 59.7353C54.1834 59.7353 53.025 60.3453 53.025 61.5509V75.7854C53.025 77.0055 54.1979 77.6156 55.3997 77.6156C56.616 77.6156 57.7454 77.0055 57.7454 75.7854V73.781C57.7454 73.1709 58.2811 72.7497 58.8748 72.7497H62.8422C63.4504 72.7497 63.9427 73.1709 63.9427 73.781V75.3352C63.9427 81.4357 59.7001 82.3072 55.4286 82.3072Z" fill="white"/>
<path d="M75.338 82.3072C71.023 82.3072 66.7949 81.3921 66.7949 75.2916V61.9721C66.7949 55.9007 71.0375 54.9856 75.338 54.9856C79.6095 54.9856 83.852 55.8571 83.852 61.9721V63.4537C83.852 64.0637 83.3597 64.5576 82.7516 64.5576H78.7841C78.176 64.5576 77.6547 64.0637 77.6547 63.4537V61.5509C77.6547 60.3453 76.5253 59.7353 75.309 59.7353C74.0927 59.7353 72.9199 60.3453 72.9199 61.5509V75.7854C72.9199 77.0055 74.0927 77.6156 75.309 77.6156C76.5108 77.6156 77.6547 77.0055 77.6547 75.7854V73.781C77.6547 73.1709 78.1905 72.7497 78.7841 72.7497H82.7516C83.3597 72.7497 83.852 73.1709 83.852 73.781V75.3352C83.852 81.4357 79.6095 82.3072 75.338 82.3072Z" fill="white"/>
<path d="M103.575 81.8854H100.244C99.6361 81.8854 98.9121 81.3915 98.7673 80.7815L98.1591 78.0508C98.0867 77.7167 97.7827 77.4407 97.3917 77.4407H92.9319C92.512 77.4407 92.2514 77.7022 92.2079 78.0072L91.5708 80.7815C91.426 81.4206 90.7455 81.8854 90.1374 81.8854H86.807C86.2713 81.8854 85.75 81.5077 85.75 80.7089C85.75 80.5927 85.75 80.4474 85.7789 80.2876L90.5862 56.4666C90.731 55.8565 91.455 55.4353 92.0632 55.4353H98.3039C98.9121 55.4353 99.5926 55.8565 99.7374 56.4956L104.661 80.2876C104.661 80.4038 104.69 80.52 104.69 80.5927C104.704 81.348 104.096 81.8854 103.575 81.8854ZM97.2469 72.3279L95.8569 64.862C95.7121 64.1794 95.437 63.8308 95.1763 63.8308C94.9157 63.8308 94.6406 64.1794 94.5392 64.8185L93.1347 72.4151C93.1057 72.4586 93.1057 72.5313 93.1057 72.5603C93.1057 72.8653 93.2505 73.0106 93.4822 73.0106H96.8125C97.1166 73.0106 97.2614 72.8653 97.2614 72.5603C97.2469 72.4732 97.2469 72.4005 97.2469 72.3279Z" fill="white"/>
<path d="M25.4142 54.9417C25.4142 54.9417 25.1246 54.9417 23.3146 54.9417C18.9852 54.9417 16.8711 56.5394 16.8711 59.9092V80.7962C16.8711 81.4062 17.3634 81.9001 17.9716 81.9001H21.9101C22.5182 81.9001 23.0395 81.4062 23.0395 80.7962V74.1873C23.0395 73.5773 23.5318 73.0544 24.1399 73.0544H25.4286C29.6712 73.0544 33.9427 72.5605 33.9427 66.46V61.9427C33.9282 55.8567 29.6857 54.9417 25.4142 54.9417ZM27.7164 61.507V66.8231V66.8667C27.7164 68.0868 26.587 68.6533 25.3707 68.6533H24.082C23.4739 68.6533 23.025 68.1158 23.025 67.5203V66.8376V61.5215C23.025 60.0545 23.8793 59.7059 24.7771 59.7059H25.3707C26.587 59.7059 27.7164 60.2723 27.7164 61.4924V61.507Z" fill="white"/>
</svg>
