<svg width="138" height="35" viewBox="0 0 138 35" fill="none" xmlns="http://www.w3.org/2000/svg">
<path fill-rule="evenodd" clip-rule="evenodd" d="M131.613 1.29803C129.194 1.29803 127.226 3.26556 127.226 5.68467C127.226 8.10403 129.194 10.0724 131.613 10.0724C134.032 10.0724 136.001 8.10403 136.001 5.68467C136.001 3.26556 134.032 1.29803 131.613 1.29803ZM131.613 11.3701C128.479 11.3701 125.93 8.81984 125.93 5.68467C125.93 2.55056 128.479 0 131.613 0C134.748 0 137.298 2.55056 137.298 5.68467C137.298 8.81984 134.748 11.3701 131.613 11.3701Z" fill="black"/>
<mask id="mask0" mask-type="alpha" maskUnits="userSpaceOnUse" x="0" y="2" width="134" height="27">
<path d="M0.916992 2.7041H133.557V28.7674H0.916992V2.7041Z" fill="white"/>
</mask>
<g mask="url(#mask0)">
<path fill-rule="evenodd" clip-rule="evenodd" d="M133.558 2.7041V4.68334H132.291V6.44518C132.291 6.94013 132.461 7.14582 132.907 7.14582C133.173 7.14582 133.401 7.08408 133.401 7.08408L133.558 7.16977V8.87041C133.558 8.87041 133.052 9.1248 132.256 9.1248C130.239 9.1248 129.878 8.22033 129.878 6.50559V4.68334H129.215V2.7041H133.558Z" fill="black"/>
<path fill-rule="evenodd" clip-rule="evenodd" d="M7.02723 12.4805V22.8895C7.02723 23.5017 7.33351 23.7466 7.854 23.7466C8.43569 23.7466 8.86411 23.4405 8.86411 23.4405V12.4805H14.9873V22.7058C14.9873 23.2261 15.1709 23.5017 15.6608 23.5935L16.3343 23.716L16.5791 24.2976C16.3774 25.3536 16.1528 26.405 15.9056 27.4512C15.9056 27.4512 14.7728 28.7676 12.5993 28.7676C11.1297 28.7676 9.99689 28.0941 9.4152 27.2673H9.17039C8.37422 28.002 7.11903 28.7676 5.40482 28.7676C2.86358 28.7676 0.904297 27.3288 0.904297 23.4099V12.4805H7.02723Z" fill="#41B079"/>
</g>
<path fill-rule="evenodd" clip-rule="evenodd" d="M29.4962 20.3801L32.4049 28.4011H26.0981L24.8429 23.6863L24.6896 22.8598H24.506L24.353 23.6863L23.0978 28.4011H16.791L19.6995 20.4719L16.9443 12.4814H23.159L24.3836 17.3492L24.506 18.1145H24.6896L24.8123 17.3492L26.0369 12.4814H32.2516L29.4962 20.3801Z" fill="#41B079"/>
<path fill-rule="evenodd" clip-rule="evenodd" d="M41.3471 20.2271C41.3471 17.8085 40.9797 17.135 39.9696 17.135C39.5409 17.135 39.204 17.2268 39.204 17.2268V23.962C39.204 23.962 39.51 24.0538 39.8775 24.0538C40.7655 24.0538 41.3471 23.8399 41.3471 20.3803V20.2271ZM33.0811 34.5243V12.4817H36.663L38.2854 14.1653C39.0816 13.094 40.4286 12.1143 42.2348 12.1143C45.5108 12.1143 47.4701 14.288 47.4701 20.2271V21.0538C47.4701 26.5033 45.4493 28.7688 42.4799 28.7688C41.1633 28.7688 40.0611 28.3402 39.2652 27.7891H39.204V34.5243H33.0811ZM55.9509 23.7787V21.3599L54.8181 21.7273C54.2976 21.8803 54.114 22.4008 54.114 22.8907V23.3191C54.114 23.8399 54.3894 24.1765 54.8487 24.1765C55.3692 24.1765 55.9509 23.7787 55.9509 23.7787ZM54.1446 12.1143C59.8695 12.1143 62.0738 14.1041 62.0738 18.2372V22.7071C62.0738 23.0743 62.135 23.4724 62.7473 23.5948L63.4208 23.7172L63.6656 24.2989C63.5126 25.2481 62.9615 27.4831 62.9615 27.4831C62.9615 27.4831 61.829 28.7688 59.6859 28.7688C58.1244 28.7688 57.0531 28.0339 56.5017 27.2686H56.2569C55.3998 28.1565 54.3894 28.7688 52.6138 28.7688C49.8277 28.7688 47.9908 26.8705 47.9908 24.1153V23.503C47.9908 20.564 50.0728 19.0025 52.7668 18.7271L55.9509 18.3905V18.2984C55.9509 17.5331 55.5528 17.135 53.3791 17.135C51.328 17.135 49.7053 17.5637 49.7053 17.5637L49.1542 17.1962C49.4299 14.3492 49.8277 12.5123 49.8277 12.5123C49.8277 12.5123 51.6034 12.1143 54.1446 12.1143ZM64.3705 28.4014V12.4817H67.9525L69.5749 14.1959H69.6364C70.2487 13.247 71.1058 12.1143 73.1877 12.1143C73.6467 12.1143 74.0448 12.1755 74.0448 12.1755L73.6467 17.7473L72.9732 18.0842C72.9732 18.0842 72.3915 17.9006 71.7181 17.9006C70.8915 17.9006 70.4935 18.1454 70.4935 18.1454V28.4014H64.3705ZM85.8929 17.5025V12.4817H74.8713V17.5025H76.5552V22.1254C76.5552 26.4727 77.4735 28.7688 82.5863 28.7688C84.6071 28.7688 85.8929 28.1259 85.8929 28.1259V23.809L85.4948 23.5948C85.4948 23.5948 84.9131 23.7478 84.2396 23.7478C83.1068 23.7478 82.6784 23.2273 82.6784 21.9724V17.5025H85.8929ZM86.7196 28.4014V12.4817H90.3016L92.077 14.2572C93.0262 13.2164 94.465 12.1143 96.6081 12.1143C99.1797 12.1143 100.802 13.8899 100.802 16.4921V28.4014H94.6794V17.8085C94.6794 17.4107 94.465 17.135 93.9141 17.135C93.363 17.135 92.8426 17.4413 92.8426 17.4413V28.4014H86.7196ZM107.814 18.9722H109.651V17.2268C109.651 16.5227 109.406 16.2167 108.855 16.2167C108.334 16.2167 107.814 16.6451 107.814 17.5943V18.9722ZM107.814 21.9724V22.2784C107.814 23.1049 108.089 23.7478 110.049 23.7478C111.855 23.7478 113.906 23.1049 113.906 23.1049L114.335 23.35C114.335 23.35 114.518 25.3399 114.549 27.6361C114.549 27.6361 112.62 28.7688 109.191 28.7688C104.508 28.7688 101.691 26.3197 101.691 20.9008V19.7987C101.691 14.747 104.722 12.1143 108.549 12.1143H109.253C113.08 12.1143 115.1 14.1959 115.1 18.6353V19.1558C115.1 20.2579 114.825 21.9724 114.825 21.9724H107.814ZM115.988 28.4014V12.4817H119.57L121.193 14.1959H121.254C121.866 13.247 122.724 12.1143 124.806 12.1143C125.265 12.1143 125.663 12.1755 125.663 12.1755L125.265 17.7473L124.591 18.0842C124.591 18.0842 124.01 17.9006 123.336 17.9006C122.509 17.9006 122.112 18.1454 122.112 18.1454V28.4014H115.988Z" fill="black"/>
</svg>
