<svg width="190" height="35" viewBox="0 0 190 35" fill="none" xmlns="http://www.w3.org/2000/svg">
<g clip-path="url(#clip0)">
<path d="M157.375 23.3286C157.375 27.032 159.176 28.909 162.702 28.909C164.858 28.909 166.05 28.1734 166.05 28.1734V24.2418L165.467 23.7852C165.467 23.7852 165.01 23.8866 164.756 23.8866C163.919 23.8866 163.488 23.4554 163.488 22.3647V7.09473H157.375V23.3286ZM140.964 12.599V23.5315C140.964 27.4632 142.917 28.8836 145.479 28.8836C147.204 28.8836 148.446 28.1227 149.258 27.3871H149.512C150.095 28.2241 151.237 28.8836 152.708 28.8836C154.889 28.8836 156.031 27.5646 156.031 27.5646C156.031 27.5646 156.386 26.0427 156.716 24.4193L156.462 23.8359L155.777 23.7091C155.295 23.6076 155.092 23.3286 155.092 22.8213V12.599H148.954V23.5823C148.954 23.5823 148.523 23.8866 147.939 23.8866C147.406 23.8866 147.102 23.633 147.102 23.0242V12.599H140.964ZM127.368 28.3002C127.368 28.3002 129.397 28.909 132.796 28.909C137.894 28.909 139.797 26.7022 139.797 23.0242C139.797 20.2848 138.376 18.9404 134.825 18.357L132.948 18.0526C132.745 18.0272 132.644 17.9258 132.644 17.7482C132.644 17.4692 132.923 17.2663 134.14 17.2663C135.738 17.2663 137.844 17.7482 137.844 17.7482L138.376 17.4692C138.376 17.4692 138.681 14.7805 138.782 12.878C138.782 12.8527 136.525 12.2439 133.887 12.2439C128.788 12.2439 126.531 14.4507 126.531 17.9765C126.531 20.6399 127.951 22.1872 131.299 22.6945L133.303 22.9989C133.633 23.0496 133.709 23.151 133.709 23.3286C133.709 23.6584 133.405 23.8866 131.908 23.8866C130.006 23.8866 127.621 23.4047 127.621 23.4047L127.089 23.6584C127.063 23.633 127.114 25.9666 127.368 28.3002ZM117.348 28.5539V17.5707C117.348 17.5707 117.881 17.2663 118.414 17.2663C118.972 17.2663 119.175 17.5453 119.175 17.9511V28.5539H125.313V16.6321C125.313 14.0195 123.69 12.2439 121.103 12.2439C118.946 12.2439 117.526 13.3346 116.562 14.4L114.787 12.6244H111.21V28.5539H117.348ZM103.879 22.7198C103.879 23.6076 103.499 23.8866 102.966 23.8866C102.408 23.8866 102.053 23.6076 102.053 22.7198V18.4331C102.053 17.5199 102.408 17.2663 102.966 17.2663C103.524 17.2663 103.879 17.5199 103.879 18.4331V22.7198ZM102.687 12.2439C98.8824 12.2439 95.9147 15.0595 95.9147 19.9296V21.2233C95.9147 26.0934 98.8824 28.909 102.687 28.909H103.245C107.05 28.909 110.018 26.0934 110.018 21.2233V19.9296C110.018 15.0595 107.05 12.2439 103.245 12.2439H102.687ZM95.5088 28.1988C95.2298 25.6622 94.9254 23.7598 94.9254 23.7598L94.4942 23.5823C94.4942 23.5823 93.6318 23.8866 93.023 23.8866C91.6533 23.8866 90.8669 23.3286 90.8669 20.9696V20.3355C90.8669 17.9765 91.6279 17.2663 92.8708 17.2663C93.4796 17.2663 94.2152 17.4438 94.2152 17.4438L94.6464 17.2663C94.6464 17.317 95.0269 14.7297 95.1283 12.7005C95.1283 12.7005 93.8347 12.2439 91.9323 12.2439C87.3665 12.2439 84.7285 14.6029 84.7285 20.5891V21.0457C84.7285 27.032 87.6455 28.9344 91.7801 28.9344C93.9869 28.909 95.5088 28.1988 95.5088 28.1988Z" fill="black"/>
<path d="M75.1925 24.3181C74.736 24.3181 74.4569 23.9883 74.4569 23.4556V23.0244C74.4569 22.5425 74.6345 22.0098 75.1672 21.8576L76.3086 21.4771V23.9122C76.3086 23.9122 75.7252 24.3181 75.1925 24.3181ZM70.1702 12.65C70.1702 12.65 69.7643 14.5016 69.4853 17.3426L70.0434 17.723C70.0434 17.723 71.6667 17.2918 73.7213 17.2918C75.9028 17.2918 76.3086 17.6977 76.3086 18.4586V18.5601L73.1126 18.8645C70.4238 19.1435 68.3185 20.7162 68.3185 23.6586V24.2673C68.3185 27.0322 70.1702 28.9346 72.935 28.9346C74.7106 28.9346 75.7252 28.3258 76.5876 27.438H76.8413C77.3993 28.199 78.4647 28.9346 80.0373 28.9346C82.1934 28.9346 83.3095 27.6409 83.3095 27.6409C83.3095 27.6409 83.8675 25.4088 84.0197 24.4449L83.7661 23.8615L83.0812 23.7347C82.4724 23.6078 82.3963 23.202 82.3963 22.8469V18.3572C82.3963 14.2226 80.1895 12.2188 74.4569 12.2188C71.9458 12.2441 70.1702 12.65 70.1702 12.65ZM51.9832 28.5541V18.2811C51.9832 18.2811 52.389 18.0274 53.2007 18.0274C53.8856 18.0274 54.469 18.205 54.469 18.205L55.1538 17.8752L55.5597 12.2948C55.5597 12.2948 55.1538 12.2441 54.6973 12.2441C52.6173 12.2441 51.7549 13.3856 51.1461 14.3241H51.0954L49.472 12.5992H45.8955V28.5287H51.9832V28.5541ZM38.5395 22.72C38.5395 23.6078 38.159 23.8868 37.6263 23.8868C37.0683 23.8868 36.7132 23.6078 36.7132 22.72V18.4333C36.7132 17.5201 37.0683 17.2665 37.6263 17.2665C38.1844 17.2665 38.5395 17.5201 38.5395 18.4333V22.72ZM37.3473 12.2441C33.5425 12.2441 30.5747 15.0597 30.5747 19.9298V21.2235C30.5747 26.0936 33.5425 28.9092 37.3473 28.9092H37.9053C41.7102 28.9092 44.6779 26.0936 44.6779 21.2235V19.9298C44.6779 15.0597 41.7102 12.2441 37.9053 12.2441H37.3473ZM21.3671 34.6672V27.9199H21.4178C22.2041 28.478 23.3202 28.9092 24.6392 28.9092C27.607 28.9092 29.6362 26.6517 29.6362 21.1981V20.3611C29.6362 14.4255 27.6831 12.2441 24.3856 12.2441C22.5846 12.2441 21.2403 13.2334 20.4286 14.2987L18.8052 12.6246H15.2287V34.6925H21.3671V34.6672ZM23.5232 20.5132C23.5232 23.9883 22.9397 24.1912 22.052 24.1912C21.6968 24.1912 21.3671 24.0898 21.3671 24.0898V17.3679C21.3671 17.3679 21.6968 17.2665 22.1281 17.2665C23.1427 17.2665 23.4978 17.9513 23.4978 20.3611V20.5132H23.5232ZM6.7566 17.723C6.7566 16.7845 7.28927 16.3533 7.79658 16.3533C8.35462 16.3533 8.58291 16.6577 8.58291 17.3679V19.1181H6.73123V17.723H6.7566ZM13.7575 22.1113C13.7575 22.1113 14.0365 20.3864 14.0365 19.2957V18.763C14.0365 14.3241 12.0072 12.2441 8.17706 12.2441H7.46683C3.66202 12.2441 0.618164 14.8821 0.618164 19.9298V21.0206C0.618164 26.4488 3.43373 28.9092 8.12633 28.9092C11.5507 28.9092 13.4784 27.7678 13.4784 27.7678C13.4531 25.4595 13.2755 23.481 13.2755 23.481L12.8443 23.2273C12.8443 23.2273 10.7897 23.8615 8.98876 23.8615C7.03562 23.8615 6.7566 23.2273 6.7566 22.3903V22.0859H13.7575V22.1113Z" fill="#00A1DE"/>
<path d="M64.4375 12.6484H67.6589V17.6962H64.4375V22.1858C64.4375 23.4541 64.8687 23.9614 66.0102 23.9614C66.6951 23.9614 67.2785 23.8092 67.2785 23.8092L67.6843 24.0375V28.375C67.6843 28.375 66.3907 29.0091 64.3614 29.0091C59.2376 29.0091 58.2991 26.7009 58.2991 22.338V17.6962H56.5996V12.6484H58.2991" fill="#0FA0DB"/>
<path d="M173.56 12.6484H176.781V17.6962H173.56V22.1858C173.56 23.4541 173.991 23.9614 175.132 23.9614C175.817 23.9614 176.401 23.8092 176.401 23.8092L176.806 24.0375V28.375C176.806 28.375 175.513 29.0091 173.484 29.0091C168.36 29.0091 167.421 26.7009 167.421 22.338V17.6962H165.722V12.6484H167.421" fill="black"/>
<path d="M188.929 6.07992C188.929 3.26436 186.646 1.00684 183.856 1.00684C181.041 1.00684 178.783 3.28972 178.783 6.07992C178.783 8.89548 181.066 11.1784 183.856 11.1784C186.646 11.1784 188.929 8.89548 188.929 6.07992Z" stroke="black" stroke-width="2.69604"/>
<path d="M184.518 3.08691H185.787V5.09078H184.518V6.86636C184.518 7.37367 184.696 7.57659 185.127 7.57659C185.406 7.57659 185.634 7.52586 185.634 7.52586L185.787 7.60196V9.32681C185.787 9.32681 185.279 9.58046 184.468 9.58046C182.438 9.58046 182.058 8.66731 182.058 6.94246V5.09078H181.398V3.08691H182.058" fill="black"/>
</g>
<defs>
<clipPath id="clip0">
<rect width="188.972" height="34.5238" fill="white" transform="translate(0.621094 0.34668)"/>
</clipPath>
</defs>
</svg>
