<svg width="86" height="35" viewBox="0 0 86 35" fill="none" xmlns="http://www.w3.org/2000/svg">
<g clip-path="url(#clip0)">
<path d="M79.8434 11.5079C76.715 11.5079 74.1709 8.96373 74.1709 5.83268C74.1709 2.7043 76.715 0.160156 79.8434 0.160156C82.9718 0.160156 85.5186 2.7043 85.5186 5.83268C85.516 8.96373 82.9718 11.5079 79.8434 11.5079ZM79.8434 1.45613C77.4294 1.45613 75.4642 3.41867 75.4642 5.83534C75.4642 8.24935 77.4294 10.2146 79.8434 10.2146C82.2574 10.2146 84.2226 8.24935 84.2226 5.83534C84.22 3.42133 82.2548 1.45613 79.8434 1.45613Z" fill="black"/>
<path d="M81.783 2.86035V4.83618H80.5189V6.59423C80.5189 7.08819 80.6889 7.29268 81.1324 7.29268C81.3979 7.29268 81.6237 7.2316 81.6237 7.2316L81.7803 7.31658V9.01356C81.7803 9.01356 81.2758 9.2685 80.4791 9.2685C78.4661 9.2685 78.1076 8.36557 78.1076 6.65531V4.83618H77.4463V2.86035H81.783Z" fill="black"/>
<path d="M8.89522 29.2974C8.89522 32.7152 7.58066 34.614 4.19202 34.614C2.14715 34.614 0.686523 33.8253 0.686523 33.8253L1.12471 30.1737L1.5629 29.794C1.5629 29.794 1.85502 29.8232 2.00108 29.8232C2.67297 29.8232 3.05273 29.4142 3.05273 28.5671V13.2279H8.89522V29.2974ZM5.97132 6.91797C7.84092 6.91797 9.24312 7.70671 9.24312 9.48866C9.24312 11.2998 7.84092 12.0594 5.97132 12.0594C4.07251 12.0594 2.69953 11.2998 2.69953 9.48866C2.69953 7.70405 4.07251 6.91797 5.97132 6.91797Z" fill="#5CC3B0"/>
<path d="M10.5322 21.6718V17.582H17.838V21.6718H10.5322Z" fill="#5CC3B0"/>
<path d="M19.4717 28.4216V13.2285H22.8895L24.5839 14.9228C25.4894 13.9296 26.8624 12.8779 28.9073 12.8779C31.3612 12.8779 32.9094 14.5723 32.9094 17.0553V28.4216H27.0669V18.3114C27.0669 17.9317 26.8624 17.6688 26.3366 17.6688C25.8108 17.6688 25.3142 17.9609 25.3142 17.9609V28.4216H19.4717Z" fill="black"/>
<path d="M39.6352 22.286V22.5781C39.6352 23.3669 39.8981 23.9803 41.7677 23.9803C43.4912 23.9803 45.4485 23.3669 45.4485 23.3669L45.8574 23.6006C45.8574 23.6006 46.0327 25.4994 46.0619 27.6903C46.0619 27.6903 44.2215 28.7712 40.9497 28.7712C36.4802 28.7712 33.79 26.4342 33.79 21.2609V20.2093C33.79 15.3892 36.6821 12.877 40.3363 12.877H41.0082C44.6597 12.877 46.5878 14.8634 46.5878 19.0992V19.5958C46.5878 20.6475 46.3248 22.2834 46.3248 22.2834H39.6352V22.286ZM39.6352 19.4205H41.3879V17.7554C41.3879 17.0835 41.1542 16.7914 40.6284 16.7914C40.1318 16.7914 39.6352 17.2004 39.6352 18.106V19.4205Z" fill="black"/>
<path d="M58.5372 20.7653L61.3124 28.4216H55.2947L54.0969 23.9229L53.9509 23.1342H53.7756L53.6295 23.9229L52.4318 28.4216H46.4141L49.1892 20.853L46.5601 13.2285H52.4903L53.6588 17.8733L53.7756 18.6036H53.9509L54.0677 17.8733L55.2362 13.2285H61.1664L58.5372 20.7653Z" fill="black"/>
<path d="M69.113 13.2285H72.1803V18.0194H69.113V22.2844C69.113 23.4821 69.5219 23.9787 70.6028 23.9787C71.2455 23.9787 71.8005 23.8326 71.8005 23.8326L72.1803 24.0371V28.1561C72.1803 28.1561 70.9534 28.7695 69.0253 28.7695C64.1469 28.7695 63.2678 26.5786 63.2678 22.4304V18.0194H61.6611V13.2285H63.2678" fill="black"/>
</g>
<defs>
<clipPath id="clip0">
<rect width="85.2472" height="34.5238" fill="white" transform="translate(0.484375 0.116211)"/>
</clipPath>
</defs>
</svg>
