<svg width="31" height="31" viewBox="0 0 31 31" fill="none" xmlns="http://www.w3.org/2000/svg">
<path d="M1.46484 2.21484L7.32422 0.808594C8.20312 0.632813 9.08203 1.04297 9.43359 1.86328L12.1875 8.25C12.4805 9.01172 12.3047 9.89063 11.6602 10.3594L8.49609 12.9375C10.4883 17.0391 13.7695 20.3203 17.8711 22.3125L20.4492 19.1484C20.918 18.5039 21.7969 18.3281 22.5586 18.6211L28.9453 21.375C29.707 21.7266 30.1758 22.6055 30 23.4258L28.5938 29.3438C28.418 30.1641 27.7148 30.75 26.8359 30.75C12.0703 30.75 0 18.7969 0 3.97266C0 3.09375 0.585938 2.39063 1.46484 2.21484ZM26.7773 28.875L28.125 23.0742L21.8555 20.3789L18.3398 24.6563C12.3047 21.7852 9.02344 18.5039 6.15234 12.4688L10.4297 8.95313L7.73438 2.68359L1.93359 4.03125C1.93359 17.7422 13.0664 28.875 26.7773 28.875Z" fill="url(#paint0_linear)"/>
<defs>
<linearGradient id="paint0_linear" x1="29.9871" y1="16.005" x2="-0.00502998" y2="16.005" gradientUnits="userSpaceOnUse">
<stop stop-color="#00CE7C"/>
<stop offset="0.317708" stop-color="#5CC3B0"/>
<stop offset="0.71875" stop-color="#00A1DE"/>
<stop offset="1" stop-color="#005971"/>
</linearGradient>
</defs>
</svg>
