<svg width="117" height="140" viewBox="0 0 117 140" fill="none" xmlns="http://www.w3.org/2000/svg">
<path d="M58.4999 32.7764C26.601 32.7764 0.740234 50.279 0.740234 71.8923C0.740234 93.491 26.601 140 58.4999 140C90.3987 140 116.26 93.5055 116.26 71.8923C116.26 50.279 90.3987 32.7764 58.4999 32.7764Z" fill="#E30613"/>
<path fill-rule="evenodd" clip-rule="evenodd" d="M64.8585 33.4591C64.482 33.401 63.8883 33.3719 63.0051 33.2557C61.1082 32.9071 58.2123 34.3306 57.3724 33.8657C57.9371 33.0959 59.0666 33.5898 59.834 32.9216C59.0811 33.0233 58.1254 32.878 57.3869 32.878C56.3154 32.878 55.0267 33.2557 54.2014 32.878C54.4041 32.3116 55.7363 32.7473 56.1272 32.3987C56.272 32.0501 56.1996 31.9485 56.1272 31.5998C54.5055 30.0311 53.3905 26.6759 52.8982 25.8915C50.6104 25.4267 49.9878 24.2938 49.2493 24.0033C46.6575 23.7563 44.6158 25.9206 42.2411 25.906C42.3859 24.3664 43.8339 24.1485 44.4855 23.1318C43.9063 22.9429 43.6746 22.8994 43.4284 22.8703C42.5452 23.2189 41.8357 23.7418 40.7787 23.9306C40.9235 23.2915 41.4158 22.972 41.8357 22.6089C40.1705 22.4346 38.5488 21.9698 36.6954 21.8826C33.6546 21.7228 30.3822 22.7105 27.9497 22.8848C27.4139 22.9284 26.5017 23.0446 26.2266 22.3474C31.7578 20.9385 36.6809 20.1977 41.6909 18.629C43.1534 18.1787 44.8909 17.4525 46.0493 16.6391C46.9615 16.0145 47.7434 15.0704 48.6846 14.3877C51.3923 12.3978 54.6358 10.3062 57.2711 8.28718C59.9064 6.2682 60.4856 0.821311 65.0612 0.603436C66.1037 0.559861 67.1173 1.09729 68.1019 1.25706C69.101 0.734162 70.6069 -0.471415 71.939 0.196737C71.0268 2.11404 69.0866 1.22801 68.2467 4.97547C67.2476 6.97993 68.6232 8.62125 68.377 12.6592C68.0006 18.9631 63.787 22.42 58.3281 24.4535C56.2141 27.8524 60.1381 30.1183 61.3689 32.2825C62.4548 32.1227 63.0051 32.5875 63.5119 32.7183C64.0042 32.8345 65.6114 32.8926 66.9291 32.9361C66.9725 33.3428 65.8431 33.6043 64.8585 33.4591ZM54.6792 25.6301C54.2014 26.8647 54.9109 27.9686 55.6059 29.3485C56.5326 31.1786 57.6476 32.849 60.0946 32.3987C59.0666 30.0747 57.3435 28.4334 55.8666 26.5597C55.8666 26.2111 55.939 25.5284 55.939 25.1798C55.3887 25.4558 55.186 25.5429 54.6792 25.6301Z" fill="black"/>
<path d="M36.8105 112.504L33.263 112.62C33.0313 112.62 32.8141 112.62 32.5824 112.62C28.7598 112.62 24.9082 111.603 24.9082 105.822V87.1141C24.9082 86.5041 25.4005 86.0103 26.0086 86.0103H29.9471C30.5553 86.0103 31.0476 86.5041 31.0476 87.1141V105.895C31.0476 107.101 32.0757 107.711 33.2775 107.711H36.825C37.4331 107.711 37.9255 108.204 37.9255 108.815V111.4C37.911 112.01 37.4187 112.504 36.8105 112.504Z" fill="white"/>
<path d="M45.4057 112.46H41.0907C40.4826 112.46 39.9902 111.966 39.9902 111.356V87.1137C39.9902 86.5036 40.4826 86.0098 41.0907 86.0098H45.4057C46.0138 86.0098 46.5061 86.5036 46.5061 87.1137V111.356C46.5061 111.966 46.0138 112.46 45.4057 112.46Z" fill="white"/>
<path d="M62.2078 112.503L58.6458 112.62C58.4141 112.62 58.1969 112.62 57.9653 112.62C54.1426 112.62 50.291 111.603 50.291 105.822V87.1137C50.291 86.5036 50.7833 86.0098 51.3914 86.0098H55.3299C55.9381 86.0098 56.4304 86.5036 56.4304 87.1137V105.895C56.4304 107.1 57.4585 107.71 58.6603 107.71H62.2223C62.8305 107.71 63.3228 108.204 63.3228 108.814V111.4C63.3083 112.01 62.816 112.503 62.2078 112.503Z" fill="white"/>
<path d="M77.3114 112.503L73.7493 112.62C73.5321 112.62 73.3004 112.62 73.0688 112.62C69.2461 112.62 65.3945 111.603 65.3945 105.822V87.1137C65.3945 86.5036 65.8869 86.0098 66.495 86.0098H70.4335C71.0416 86.0098 71.5339 86.5036 71.5339 87.1137V105.895C71.5339 107.1 72.562 107.71 73.7638 107.71H77.3258C77.934 107.71 78.4263 108.204 78.4263 108.814V111.4C78.4118 112.01 77.9195 112.503 77.3114 112.503Z" fill="white"/>
<path d="M97.003 87.5638L90.6029 101.29C90.2554 102.016 90.1106 102.423 90.1106 103.265V111.312C90.1106 111.922 89.6183 112.445 89.0102 112.445H85.0717C84.4635 112.445 83.9712 111.908 83.9712 111.312V103.236C83.9712 102.365 83.783 101.871 83.4789 101.261L77.0064 87.5638C76.934 87.404 76.8906 87.2588 76.8906 87.099C76.8906 86.4599 77.6146 85.9951 78.1069 85.9951H82.002C82.6101 85.9951 83.2183 86.4454 83.4354 87.0554L86.3169 94.4196C86.5052 94.8844 86.7658 95.1023 87.0409 95.1023C87.3016 95.1023 87.5622 94.928 87.7504 94.4923L90.6319 87.0264C90.8925 86.4599 91.5007 85.9951 92.1088 85.9951H96.0039C96.4528 85.9951 97.1333 86.3292 97.1333 86.9828C97.1478 87.1862 97.1043 87.3459 97.003 87.5638Z" fill="white"/>
<path d="M42.3666 81.885H38.0516C37.4435 81.885 36.9512 81.3912 36.9512 80.7811V56.5243C36.9512 55.9288 37.4435 55.4204 38.0516 55.4204H42.3666C42.9747 55.4204 43.4671 55.9143 43.4671 56.5243V80.7811C43.4671 81.3912 42.9747 81.885 42.3666 81.885Z" fill="white"/>
<path d="M55.4286 82.3069C51.1137 82.3069 46.8711 81.3918 46.8711 75.2913V61.9719C46.8711 55.9004 51.1137 54.9854 55.4286 54.9854C59.7001 54.9854 63.9427 55.8568 63.9427 61.9719V63.4534C63.9427 64.0635 63.4504 64.5573 62.8422 64.5573H58.8748C58.2667 64.5573 57.7454 64.0635 57.7454 63.4534V61.5507C57.7454 60.3451 56.616 59.735 55.3997 59.735C54.1834 59.735 53.025 60.3451 53.025 61.5507V75.7852C53.025 77.0053 54.1979 77.6154 55.3997 77.6154C56.616 77.6154 57.7454 77.0053 57.7454 75.7852V73.7807C57.7454 73.1707 58.2811 72.7495 58.8748 72.7495H62.8422C63.4504 72.7495 63.9427 73.1707 63.9427 73.7807V75.3349C63.9427 81.4354 59.7001 82.3069 55.4286 82.3069Z" fill="white"/>
<path d="M75.338 82.3069C71.023 82.3069 66.7949 81.3918 66.7949 75.2913V61.9719C66.7949 55.9004 71.0375 54.9854 75.338 54.9854C79.6095 54.9854 83.852 55.8568 83.852 61.9719V63.4534C83.852 64.0635 83.3597 64.5573 82.7516 64.5573H78.7841C78.176 64.5573 77.6547 64.0635 77.6547 63.4534V61.5507C77.6547 60.3451 76.5253 59.735 75.309 59.735C74.0927 59.735 72.9199 60.3451 72.9199 61.5507V75.7852C72.9199 77.0053 74.0927 77.6154 75.309 77.6154C76.5108 77.6154 77.6547 77.0053 77.6547 75.7852V73.7807C77.6547 73.1707 78.1905 72.7495 78.7841 72.7495H82.7516C83.3597 72.7495 83.852 73.1707 83.852 73.7807V75.3349C83.852 81.4354 79.6095 82.3069 75.338 82.3069Z" fill="white"/>
<path d="M103.575 81.8851H100.244C99.6361 81.8851 98.9121 81.3913 98.7673 80.7812L98.1591 78.0505C98.0867 77.7165 97.7827 77.4405 97.3917 77.4405H92.9319C92.512 77.4405 92.2514 77.7019 92.2079 78.007L91.5708 80.7812C91.426 81.4203 90.7455 81.8851 90.1374 81.8851H86.807C86.2713 81.8851 85.75 81.5075 85.75 80.7086C85.75 80.5924 85.75 80.4472 85.7789 80.2874L90.5862 56.4663C90.731 55.8563 91.455 55.4351 92.0632 55.4351H98.3039C98.9121 55.4351 99.5926 55.8563 99.7374 56.4954L104.661 80.2874C104.661 80.4036 104.69 80.5198 104.69 80.5924C104.704 81.3477 104.096 81.8851 103.575 81.8851ZM97.2469 72.3277L95.8569 64.8618C95.7121 64.1791 95.437 63.8305 95.1763 63.8305C94.9157 63.8305 94.6406 64.1791 94.5392 64.8182L93.1347 72.4148C93.1057 72.4584 93.1057 72.531 93.1057 72.5601C93.1057 72.8651 93.2505 73.0103 93.4822 73.0103H96.8125C97.1166 73.0103 97.2614 72.8651 97.2614 72.5601C97.2469 72.4729 97.2469 72.4003 97.2469 72.3277Z" fill="white"/>
<path d="M25.4142 54.9414C25.4142 54.9414 25.1246 54.9414 23.3146 54.9414C18.9852 54.9414 16.8711 56.5392 16.8711 59.909V80.7959C16.8711 81.406 17.3634 81.8999 17.9716 81.8999H21.9101C22.5182 81.8999 23.0395 81.406 23.0395 80.7959V74.1871C23.0395 73.577 23.5318 73.0541 24.1399 73.0541H25.4286C29.6712 73.0541 33.9427 72.5603 33.9427 66.4598V61.9425C33.9282 55.8565 29.6857 54.9414 25.4142 54.9414ZM27.7164 61.5067V66.8229V66.8665C27.7164 68.0866 26.587 68.653 25.3707 68.653H24.082C23.4739 68.653 23.025 68.1156 23.025 67.5201V66.8374V61.5212C23.025 60.0542 23.8793 59.7056 24.7771 59.7056H25.3707C26.587 59.7056 27.7164 60.2721 27.7164 61.4922V61.5067Z" fill="white"/>
</svg>