<svg width="287" height="34" viewBox="0 0 287 34" fill="none" xmlns="http://www.w3.org/2000/svg">
<g clip-path="url(#clip0)">
<path d="M284.82 6.98578C284.817 5.84664 284.471 4.73387 283.824 3.78789C283.178 2.84192 282.261 2.10513 281.189 1.67052C280.117 1.2359 278.938 1.12294 277.801 1.34587C276.663 1.56881 275.619 2.11765 274.799 2.92315C273.978 3.72865 273.42 4.7547 273.193 5.87182C272.966 6.98894 273.081 8.14706 273.523 9.20004C273.966 10.253 274.716 11.1537 275.679 11.7883C276.642 12.423 277.775 12.7632 278.935 12.766C280.496 12.766 281.993 12.157 283.096 11.073C284.2 9.98903 284.82 8.5188 284.82 6.98578V6.98578Z" stroke="black" stroke-width="0.870107"/>
<path d="M279.724 3.56445H281.191V5.83908H279.724V7.85712C279.724 8.4337 279.92 8.66146 280.443 8.66146C280.641 8.66086 280.838 8.63666 281.03 8.58938L281.212 8.6874V10.642C280.731 10.8437 280.211 10.942 279.688 10.9303C277.34 10.9303 276.912 9.88958 276.912 7.92343V5.83908H276.128V3.56445H276.903" fill="black"/>
<path d="M261.788 32.6493V26.0186H262.003L264.591 32.6493H272.108L268.293 22.8474L271.768 14.5215H264.521L262.073 21.1522H261.779V8.2627H254.694V32.6493H261.788ZM249.587 32.6493V20.9793C250.027 20.7667 250.515 20.6675 251.004 20.691C251.501 20.6943 251.995 20.7641 252.472 20.8985L253.253 20.5151L253.714 14.1727C253.385 14.1277 253.053 14.1046 252.721 14.1035C250.309 14.1035 249.314 15.3922 248.612 16.4733H248.542L246.66 14.5215H242.489V32.6378L249.587 32.6493ZM234.03 26.0186C234.03 27.0276 233.604 27.3419 232.967 27.3419C232.331 27.3419 231.902 27.0276 231.902 26.0186V21.1522C231.902 20.1086 232.328 19.829 232.967 19.829C233.607 19.829 234.03 20.1173 234.03 21.1522V26.0186ZM232.648 14.1035C228.245 14.1035 224.808 17.3093 224.808 22.8474V24.3119C224.808 29.85 228.251 33.0558 232.648 33.0558H233.285C237.687 33.0558 241.124 29.85 241.124 24.3119V22.8589C241.124 17.3208 237.684 14.115 233.285 14.115L232.648 14.1035ZM211.083 25.3325H211.508L211.802 28.2154L212.682 32.6407H221.033L224.332 14.5244H217.581L216.375 21.4232L216.199 24.802H215.667L215.453 21.4232L214.141 14.5244H208.406L207.094 21.4232L206.882 24.802H206.348L206.172 21.4232L204.966 14.5244H198.215L201.514 32.6407H209.909L210.789 28.2154L211.083 25.3325ZM186.665 14.533H184.713V20.247H186.665V25.5083C186.665 30.4525 187.73 33.0673 193.653 33.0673C194.964 33.0916 196.264 32.842 197.469 32.3351V27.4341L197.011 27.1919C196.53 27.3046 196.038 27.3626 195.544 27.3649C194.232 27.3649 193.736 26.7883 193.736 25.3469V20.247H197.457V14.533H193.765H186.665ZM175.273 20.3537C175.273 19.2754 175.878 18.7854 176.48 18.7854C177.081 18.7854 177.401 19.1342 177.401 19.9385V21.9249H175.273V20.3537ZM183.395 25.3353C183.569 24.2743 183.676 23.2036 183.715 22.1295V21.5357C183.715 16.4848 181.367 14.115 176.94 14.115H176.124C171.692 14.115 168.179 17.1104 168.179 22.8589V24.1015C168.179 30.268 171.443 33.0558 176.87 33.0558C180.841 33.0558 183.078 31.7671 183.078 31.7671C183.043 29.1523 182.828 26.8892 182.828 26.8892L182.332 26.6009C180.88 27.0327 179.378 27.2789 177.862 27.3332C175.593 27.3332 175.273 26.601 175.273 25.6611V25.3325L183.395 25.3353ZM157.565 32.6522V20.1778C157.955 19.9643 158.39 19.8447 158.836 19.829C159.473 19.829 159.717 20.1432 159.717 20.5958V32.6493H166.811V19.0996C166.811 16.1388 164.929 14.1179 161.953 14.1179C159.467 14.1179 157.803 15.372 156.702 16.5569L154.647 14.5388H150.485V32.6551L157.565 32.6522Z" fill="black"/>
<path d="M139.559 32.6493V20.1778C139.94 19.9686 140.365 19.8492 140.801 19.829C141.441 19.829 141.681 20.1432 141.681 20.5958V32.6493H148.776V19.0996C148.776 16.1388 146.897 14.1179 143.918 14.1179C141.435 14.1179 139.768 15.372 138.667 16.5569L136.612 14.5388H132.465V32.6551L139.559 32.6493ZM121.082 27.8493C120.548 27.8493 120.231 27.4658 120.231 26.8748V26.379C120.231 25.8226 120.442 25.2258 121.044 25.0557L122.359 24.6348V27.388C121.979 27.644 121.54 27.8026 121.082 27.8493ZM115.265 14.5878C114.909 16.35 114.649 18.1293 114.484 19.9183L115.121 20.3364C116.515 20.013 117.944 19.8495 119.377 19.8491C121.895 19.8491 122.359 20.3018 122.359 21.1724V21.2762L118.669 21.6596C115.549 21.9739 113.136 23.7497 113.136 27.0939V27.7916C113.136 30.9282 115.265 33.0875 118.49 33.0875C120.545 33.0875 121.719 32.3899 122.711 31.3808H123.005C123.645 32.2457 124.886 33.0875 126.694 33.0875C127.395 33.1002 128.091 32.9748 128.741 32.7188C129.391 32.4628 129.983 32.0814 130.481 31.597C130.481 31.597 131.118 29.0543 131.297 27.9732L131.003 27.313L130.222 27.1747C129.512 27.0334 129.442 26.5808 129.442 26.1627V21.083C129.442 16.381 126.891 14.115 120.257 14.115C118.583 14.103 116.911 14.2546 115.267 14.5676L115.265 14.5878ZM93.773 20.0452C94.1002 19.9168 94.448 19.8465 94.8003 19.8376C95.581 19.8376 95.7219 20.2902 95.7219 20.6391V32.658H102.816V20.0365C103.145 19.9079 103.493 19.8377 103.847 19.829C104.624 19.829 104.768 20.2816 104.768 20.6304V32.6493H111.871V19.238C111.871 16.2743 109.99 14.115 106.882 14.115C104.434 14.115 103.086 15.2682 102.127 16.3464C101.67 15.6407 101.034 15.0638 100.282 14.6726C99.5294 14.2813 98.6862 14.0892 97.8353 14.115C95.2112 14.115 93.864 15.4037 92.8719 16.5886L90.8495 14.533H86.6756V32.6493H93.77L93.773 20.0452ZM67.3561 14.5417V26.9844C67.3561 31.4443 69.628 33.0818 72.572 33.0818C74.1943 33.08 75.7546 32.4695 76.9337 31.3751H77.2272C77.9023 32.3149 79.2144 33.0818 80.9168 33.0818C81.6254 33.1 82.3304 32.9765 82.9888 32.7188C83.6473 32.4611 84.2456 32.0745 84.7472 31.5826C84.7472 31.5826 85.1728 29.8529 85.528 27.9934L85.2345 27.3332L84.4537 27.1948C83.8843 27.0882 83.6729 26.7768 83.6729 26.1829V14.533H76.5668V27.0046C76.2171 27.2279 75.8099 27.3489 75.3927 27.3534C74.8057 27.3534 74.4359 27.0651 74.4359 26.379V14.533L67.3561 14.5417ZM56.4313 32.658V20.1778C56.8121 19.9686 57.2371 19.8492 57.6729 19.829C58.3128 19.829 58.5535 20.1432 58.5535 20.5612V32.6493H65.642V19.0996C65.642 16.1734 63.7957 14.1179 60.7842 14.1179C59.2058 14.1076 57.6782 14.6655 56.49 15.6862H56.4196V8.2627H49.3252V32.6493L56.4313 32.658Z" fill="#FF6319"/>
<path d="M39.5037 20.3537C39.5037 19.2755 40.1084 18.7854 40.7101 18.7854C41.3118 18.7854 41.6317 19.1342 41.6317 19.9385V21.9249H39.5037V20.3537ZM47.6254 25.3354C47.7996 24.2743 47.9065 23.2036 47.9454 22.1295V21.5357C47.9454 16.4848 45.5972 14.115 41.1709 14.115H40.3549C35.9228 14.115 32.4093 17.1104 32.4093 22.8589V24.1015C32.4093 30.268 35.6733 33.0558 41.1005 33.0558C45.0718 33.0558 47.3084 31.7671 47.3084 31.7671C47.2732 29.1523 47.0589 26.8892 47.0589 26.8892L46.5629 26.601C45.111 27.0327 43.6085 27.2789 42.0926 27.3332C39.8236 27.3332 39.5037 26.601 39.5037 25.6611V25.3325L47.6254 25.3354ZM21.7956 32.6522V20.1778C22.1764 19.9686 22.6014 19.8492 23.0372 19.829C23.6771 19.829 23.9178 20.1432 23.9178 20.5612V32.6493H31.0122V19.0996C31.0122 16.1734 29.1689 14.1179 26.1544 14.1179C24.5814 14.1103 23.0596 14.667 21.8749 15.6833H21.8044V8.2627H14.7189V32.6493L21.7956 32.6522ZM2.57886 14.533H0.629883V20.247H2.57886V25.5083C2.57886 30.4525 3.64434 33.0673 9.56758 33.0673C10.8829 33.0935 12.1887 32.8439 13.398 32.3351V27.4341L12.9372 27.1919C12.4564 27.3049 11.9639 27.3629 11.4696 27.3649C10.1576 27.3649 9.6615 26.7883 9.6615 25.3469V20.247H13.398V14.533H9.67618" fill="black"/>
</g>
<defs>
<clipPath id="clip0">
<rect width="286" height="33.5374" fill="white" transform="translate(0.108398 0.462891)"/>
</clipPath>
</defs>
</svg>
